<svg width="14" height="14" viewBox="0 0 14 14" fill="none" xmlns="http://www.w3.org/2000/svg">
    <path d="M7.0002 13.3002C3.5208 13.3002 0.700195 10.4796 0.700195 7.0002C0.700195 3.5208 3.5208 0.700195 7.0002 0.700195C10.4796 0.700195 13.3002 3.5208 13.3002 7.0002C13.3002 10.4796 10.4796 13.3002 7.0002 13.3002ZM7.0002 12.1452C9.8417 12.1452 12.1452 9.8417 12.1452 7.0002C12.1452 4.15869 9.8417 1.8552 7.0002 1.8552C4.15869 1.8552 1.8552 4.15869 1.8552 7.0002C1.8552 9.8417 4.15869 12.1452 7.0002 12.1452ZM6.4752 9.15238V7.3005C6.4752 6.98155 6.73375 6.723 7.0527 6.723C7.36386 6.723 7.61755 6.96909 7.62974 7.27727L7.6302 7.3005V9.11395C7.6302 9.43613 7.3747 9.70027 7.0527 9.71098C6.74419 9.72125 6.48577 9.47947 6.4755 9.17096C6.4753 9.16477 6.4752 9.15857 6.4752 9.15238ZM6.4752 4.84738V4.7805C6.4752 4.46155 6.73375 4.203 7.0527 4.203C7.36386 4.203 7.61755 4.44909 7.62974 4.75727L7.6302 4.7805V4.80895C7.6302 5.13113 7.3747 5.39527 7.0527 5.40598C6.74419 5.41625 6.48577 5.17447 6.4755 4.86596C6.4753 4.85977 6.4752 4.85357 6.4752 4.84738Z" fill="black"/>
</svg>
