<svg width="32" height="33" viewBox="0 0 32 33" fill="none" xmlns="http://www.w3.org/2000/svg">
    <path d="M16.0055 23.2474C16.7111 23.2474 17.2864 23.8055 17.3141 24.5044L17.3151 24.557V30.0021C17.3151 30.7254 16.7288 31.3117 16.0055 31.3117C15.2999 31.3117 14.7246 30.7536 14.6969 30.0548L14.6959 30.0021V24.557C14.6959 23.8338 15.2822 23.2474 16.0055 23.2474ZM22.3687 21.4247L22.412 21.4661L26.1877 25.2418C26.6991 25.7532 26.6991 26.5824 26.1877 27.0938C25.6904 27.591 24.8929 27.6048 24.3789 27.1352L24.3356 27.0938L20.56 23.3182C20.0486 22.8068 20.0486 21.9776 20.56 21.4661C21.0426 20.9835 21.8081 20.9563 22.3226 21.3845L22.3687 21.4247ZM11.5272 21.329C12.0231 21.8275 12.0348 22.6251 11.5638 23.1378L11.5223 23.181L7.627 27.0486C7.11422 27.5587 6.28503 27.5565 5.77495 27.0437C5.27904 26.5452 5.26734 25.7476 5.7383 25.2349L5.77985 25.1917L9.67511 21.3241C10.1879 20.814 11.0171 20.8162 11.5272 21.329ZM8.36483 15.602C9.08811 15.602 9.67444 16.1884 9.67444 16.9116C9.67444 17.6173 9.11636 18.1926 8.41751 18.2202L8.36483 18.2212H2.90921C2.18594 18.2212 1.59961 17.6349 1.59961 16.9116C1.59961 16.206 2.15769 15.6307 2.85654 15.6031L2.90921 15.602H8.36483ZM29.0962 15.602C29.8195 15.602 30.4058 16.1884 30.4058 16.9116C30.4058 17.6173 29.8478 18.1926 29.1489 18.2202L29.0962 18.2212H23.8611C23.1378 18.2212 22.5515 17.6349 22.5515 16.9116C22.5515 16.206 23.1096 15.6307 23.8085 15.6031L23.8611 15.602H29.0962ZM7.62368 6.67968L7.66703 6.72112L11.4556 10.5097C11.967 11.0211 11.967 11.8503 11.4556 12.3617C10.9583 12.8589 10.1608 12.8727 9.64684 12.4031L9.6035 12.3617L5.81497 8.57317C5.30354 8.06174 5.30354 7.23255 5.81497 6.72112C6.29757 6.23852 7.06312 6.21131 7.57762 6.6395L7.62368 6.67968ZM26.1927 6.73366C26.6886 7.2322 26.7003 8.02981 26.2294 8.54248L26.1878 8.58571L22.5032 12.2438C21.9904 12.7539 21.1612 12.7517 20.6512 12.2389C20.1552 11.7404 20.1435 10.9428 20.6145 10.4301L20.656 10.3869L24.3407 6.72877C24.8535 6.21869 25.6827 6.22088 26.1927 6.73366ZM16.0055 2.51172C16.7111 2.51172 17.2864 3.06979 17.3141 3.76865L17.3151 3.82132V9.05911C17.3151 9.78238 16.7288 10.3687 16.0055 10.3687C15.2999 10.3687 14.7246 9.81063 14.6969 9.11178L14.6959 9.05911V3.82132C14.6959 3.09805 15.2822 2.51172 16.0055 2.51172Z" fill="#FF8A00"/>
</svg>
