<svg width="40" height="40" viewBox="0 0 40 40" fill="none" xmlns="http://www.w3.org/2000/svg">
    <path fill-rule="evenodd" clip-rule="evenodd" d="M16.4423 0H23.3463C28.8835 0 31.0805 0.613723 33.2353 1.76617C35.3902 2.91861 37.0814 4.60978 38.2338 6.76466L38.3214 6.93056C39.4029 9.00672 39.9846 11.2 40 16.4423V23.3463C40 28.8835 39.3863 31.0805 38.2338 33.2353C37.0814 35.3902 35.3902 37.0814 33.2353 38.2338L33.0694 38.3214C30.9933 39.4029 28.8 39.9846 23.5577 40H16.6537C11.1165 40 8.91954 39.3863 6.76466 38.2338C4.60977 37.0814 2.91861 35.3902 1.76617 33.2353L1.67858 33.0695C0.597074 30.9933 0.0154219 28.8 0 23.5577V16.6537C0 11.1165 0.613723 8.91954 1.76617 6.76466C2.91861 4.60978 4.60977 2.91861 6.76466 1.76617L6.93055 1.67858C9.00672 0.597074 11.2 0.0154219 16.4423 0Z" fill="#00AC26"/>
    <path fill-rule="evenodd" clip-rule="evenodd" d="M9.63197 17.0363C10.6491 16.0192 12.2981 16.0192 13.3153 17.0363L19.735 23.456C20.7521 24.4732 20.7521 26.1222 19.735 27.1393C18.7179 28.1565 17.0688 28.1565 16.0517 27.1393L9.63197 20.7196C8.61486 19.7025 8.61486 18.0534 9.63197 17.0363Z" fill="white"/>
    <path fill-rule="evenodd" clip-rule="evenodd" d="M30.8043 12.6328C31.8215 13.6499 31.8215 15.299 30.8043 16.3161L20 27.1204C18.9829 28.1376 17.3338 28.1376 16.3167 27.1204C15.2996 26.1033 15.2996 24.4543 16.3167 23.4371L27.121 12.6328C28.1382 11.6157 29.7872 11.6157 30.8043 12.6328Z" fill="white"/>
</svg>
