<svg width="10" height="12" viewBox="0 0 10 12" fill="none" xmlns="http://www.w3.org/2000/svg">
<path d="M5.13404 0.652105L5.15302 0.662491L9.44915 3.14357C9.59279 3.22653 9.66993 3.36706 9.68057 3.51186L9.68147 3.52864L9.68184 3.54736V8.46475C9.68184 8.62442 9.60006 8.77242 9.46612 8.85756L9.44836 8.86831L5.1522 11.3382C5.01422 11.4175 4.84577 11.4206 4.70545 11.3476L4.68649 11.3372L0.43205 8.86732C0.294547 8.7875 0.20772 8.64332 0.200723 8.48542L0.200195 8.46475L0.20035 3.53861L0.200195 3.52439C0.20104 3.37069 0.278044 3.22133 0.415856 3.13378L0.432684 3.12357L4.68716 0.66265C4.81842 0.586724 4.97752 0.579914 5.11378 0.642238L5.13404 0.652105ZM8.75081 4.35305L5.38566 6.29643V10.13L8.75081 8.19537V4.35305ZM1.13125 4.35694V8.19673L4.45468 10.1261V6.29507L1.13125 4.35694ZM4.92034 1.60319L1.57515 3.5381L4.92135 5.48952L8.28549 3.54665L4.92034 1.60319Z" fill="#7B61FF"/>
</svg>
