<svg width="12" height="12" viewBox="0 0 12 12" fill="none" xmlns="http://www.w3.org/2000/svg">
    <path d="M6.0001 11.4001C3.01776 11.4001 0.600098 8.98244 0.600098 6.0001C0.600098 3.01776 3.01776 0.600098 6.0001 0.600098C8.98244 0.600098 11.4001 3.01776 11.4001 6.0001C11.4001 8.98244 8.98244 11.4001 6.0001 11.4001ZM6.0001 10.4101C8.43567 10.4101 10.4101 8.43567 10.4101 6.0001C10.4101 3.56452 8.43567 1.5901 6.0001 1.5901C3.56452 1.5901 1.5901 3.56452 1.5901 6.0001C1.5901 8.43567 3.56452 10.4101 6.0001 10.4101ZM5.5501 7.84482V6.2575C5.5501 5.98412 5.77172 5.7625 6.0451 5.7625C6.31181 5.7625 6.52926 5.97344 6.5397 6.23759L6.5401 6.2575V7.81188C6.5401 8.08804 6.3211 8.31444 6.0451 8.32363C5.78066 8.33243 5.55916 8.12519 5.55036 7.86075C5.55019 7.85545 5.5501 7.85013 5.5501 7.84482ZM5.5501 4.15482V4.0975C5.5501 3.82412 5.77172 3.6025 6.0451 3.6025C6.31181 3.6025 6.52926 3.81344 6.5397 4.07759L6.5401 4.0975V4.12188C6.5401 4.39804 6.3211 4.62444 6.0451 4.63363C5.78066 4.64243 5.55916 4.43519 5.55036 4.17075C5.55019 4.16545 5.5501 4.16014 5.5501 4.15482Z" fill="#003DC1"/>
</svg>
