<svg width="32" height="32" viewBox="0 0 32 32" fill="none" xmlns="http://www.w3.org/2000/svg">
<rect width="32" height="32" rx="8" fill="#EBEEF1"/>
<g opacity="0.5">
<path d="M19.6305 8.7998C19.9832 8.7998 20.2707 9.07873 20.2846 9.42802L20.2851 9.45435L20.2852 9.95023C20.7142 10.0332 21.0132 10.1563 21.3134 10.3169C21.9147 10.6384 22.3865 11.1103 22.708 11.7115L22.7356 11.7638L22.7761 11.8437C23.0537 12.4055 23.2008 13.0293 23.2008 14.5535V18.1856C23.2008 19.8301 23.0296 20.4265 22.708 21.0277C22.3865 21.6289 21.9147 22.1007 21.3134 22.4223L21.2611 22.4499L21.1812 22.4904C20.6194 22.7679 19.9956 22.915 18.4714 22.915H13.5302C11.8857 22.915 11.2893 22.7438 10.6881 22.4223C10.0869 22.1007 9.61507 21.6289 9.29354 21.0277L9.26514 20.9738L9.22467 20.8939C8.95195 20.3413 8.8054 19.728 8.80078 18.2565V14.5535C8.80078 12.909 8.97201 12.3127 9.29354 11.7115C9.61507 11.1103 10.0869 10.6384 10.6881 10.3169L10.742 10.2885C11.0383 10.1346 11.3411 10.0173 11.776 9.9391L11.776 9.45435C11.776 9.09285 12.069 8.7998 12.4305 8.7998C12.7832 8.7998 13.0707 9.07873 13.0846 9.42802L13.0851 9.45435L13.085 9.82875L13.23 9.82609C13.3041 9.82503 13.3805 9.82437 13.4594 9.82413H18.4714C18.6518 9.82413 18.8196 9.82619 18.9762 9.83028L18.976 9.45435C18.976 9.09285 19.269 8.7998 19.6305 8.7998ZM21.8916 15.0605H10.1098L10.1099 18.2524L10.1107 18.3771C10.1199 19.5359 10.2098 19.9652 10.4479 20.4103C10.6474 20.7834 10.9324 21.0684 11.3055 21.2679L11.3522 21.2924L11.4 21.3162C11.8148 21.518 12.265 21.5974 13.3412 21.6053L13.5302 21.6059H18.4714C19.7731 21.6059 20.2284 21.518 20.6961 21.2679C21.0692 21.0684 21.3541 20.7834 21.5536 20.4103L21.5781 20.3636L21.602 20.3158C21.8038 19.901 21.8831 19.4509 21.891 18.3746L21.8917 18.1856L21.8916 15.0605ZM18.4714 11.1332H13.4634L13.3387 11.134C13.2499 11.1347 13.1655 11.1359 13.085 11.1376L13.0851 11.979C13.0851 12.3405 12.792 12.6336 12.4305 12.6336C12.0779 12.6336 11.7903 12.3546 11.7765 12.0054L11.776 11.979L11.776 11.2792C11.6022 11.3283 11.4547 11.3914 11.3055 11.4713C10.9324 11.6708 10.6474 11.9558 10.4479 12.3288L10.4234 12.3756C10.2494 12.7156 10.1598 13.0643 10.1261 13.7513H21.8755C21.8402 13.0328 21.7438 12.6844 21.5536 12.3288C21.3541 11.9558 21.0692 11.6708 20.6961 11.4713L20.6493 11.4468C20.5333 11.3874 20.4163 11.3379 20.2851 11.297L20.2851 11.979C20.2851 12.3405 19.992 12.6336 19.6305 12.6336C19.2779 12.6336 18.9903 12.3546 18.9765 12.0054L18.976 11.979L18.9762 11.1387C18.8772 11.1363 18.7722 11.1347 18.6604 11.1339L18.4714 11.1332Z" fill="black"/>
</g>
</svg>
