<svg width="24" height="24" fill="none" version="1.1" viewBox="0 0 24 24" xmlns="http://www.w3.org/2000/svg">
    <path d="m5 4.1992188c-0.7422926 0-1.4555826 0.2954124-1.9804688 0.8203124-0.5248999 0.5248863-0.8203124 1.2381762-0.8203124 1.9804688v3c-4.321e-4 0.442438 0.3583431 0.801213 0.8007812 0.800781 0.318576 0 0.6224104 0.126298 0.8476562 0.351563 0.2252911 0.225302 0.3515625 0.529132 0.3515626 0.847656 0 0.318524-0.1262715 0.622354-0.3515626 0.847656-0.2252457 0.225265-0.5290802 0.351563-0.8476562 0.351563-0.4424381-4.32e-4 -0.8012133 0.358343-0.8007812 0.800781v3c0 0.742275 0.2954438 1.455572 0.8203124 1.980469 0.5248928 0.524935 1.2381863 0.820312 1.9804688 0.820312h14c0.742283 0 1.455576-0.295377 1.980469-0.820312 0.524868-0.524897 0.820312-1.238194 0.820312-1.980469v-3c4.32e-4 -0.442438-0.358343-0.801213-0.800781-0.800781-0.318576 0-0.62241-0.126298-0.847656-0.351563-0.225291-0.225302-0.351563-0.529132-0.351563-0.847656s0.126272-0.622354 0.351563-0.847656c0.225246-0.225265 0.52908-0.351563 0.847656-0.351563 0.442438 4.32e-4 0.801213-0.358343 0.800781-0.800781v-3c0-0.7422926-0.295412-1.4555824-0.820312-1.9804688-0.524886-0.5249-1.238176-0.8203124-1.980469-0.8203124zm0 1.6015624h9.199219v1.1992188c-4.32e-4 0.4424381 0.358343 0.8012133 0.800781 0.8007812 0.442438 4.321e-4 0.801213-0.3583431 0.800781-0.8007812v-1.1992188h3.199219c0.318566 2e-7 0.622403 0.1263034 0.847656 0.3515626 0.225259 0.2252532 0.351563 0.5290899 0.351563 0.8476562v2.3164062c-0.44158 0.1318308-0.848224 0.3716358-1.179688 0.7031248-0.524868 0.524897-0.820312 1.238194-0.820312 1.980469s0.295444 1.455572 0.820312 1.980469c0.331464 0.33149 0.738108 0.571294 1.179688 0.703125v2.316406c0 0.318524-0.126272 0.622354-0.351563 0.847656-0.225246 0.225265-0.52908 0.351563-0.847656 0.351563h-3.199219v-1.199219c4.32e-4 -0.442438-0.358343-0.801213-0.800781-0.800781-0.442438-4.32e-4 -0.801213 0.358343-0.800781 0.800781v1.199219h-9.199219c-0.3185764 0-0.6224097-0.126298-0.8476562-0.351563-0.2252907-0.225302-0.3515625-0.529132-0.3515626-0.847656v-2.316406c0.4415798-0.131831 0.848224-0.371635 1.1796876-0.703125 0.5248679-0.524897 0.8203125-1.238194 0.8203124-1.980469 0-0.742275-0.2954445-1.455572-0.8203124-1.980469-0.3314636-0.331489-0.7381079-0.5712941-1.1796876-0.7031248v-2.3164062c0-0.3185663 0.1263034-0.622403 0.3515626-0.8476562 0.2252532-0.2252592 0.5290899-0.3515624 0.8476562-0.3515626zm10 4.3984378c-0.442438-4.32e-4 -0.801213 0.358343-0.800781 0.800781v2c-4.32e-4 0.442438 0.358343 0.801213 0.800781 0.800781 0.442438 4.32e-4 0.801213-0.358343 0.800781-0.800781v-2c4.32e-4 -0.442438-0.358343-0.801213-0.800781-0.800781z" fill="#000" stroke-linecap="round" stroke-linejoin="round" />
</svg>
