<svg width="140" height="146" viewBox="0 0 140 146" fill="none" xmlns="http://www.w3.org/2000/svg">
<path opacity="0.8" d="M73 146C65.5055 146 59.4063 140.038 59.2039 132.606L20.3697 110.229C18.3502 111.32 16.1715 111.858 14.0141 111.888L13.8007 111.89C9.03648 111.884 4.40479 109.414 1.85133 105C-1.89584 98.522 0.227692 90.2689 6.57433 86.3781V41.6219C0.227692 37.7311 -1.89584 29.478 1.85133 23C4.36667 18.6516 8.89868 16.1897 13.5874 16.112L13.8007 16.1101C16.0276 16.1076 18.2836 16.6435 20.3697 17.7712L59.2039 -4.6066C59.4044 -11.9623 65.3822 -17.8786 72.7718 -17.9981L73 -18C80.4943 -18 86.5934 -12.0379 86.7961 -4.6067L125.629 17.7717C127.649 16.6797 129.828 16.1424 131.986 16.1115L132.199 16.1101C136.964 16.1156 141.595 18.5857 144.149 23C147.896 29.478 145.772 37.7311 139.426 41.6219V86.3781C145.772 90.2689 147.896 98.522 144.149 105C141.633 109.348 137.101 111.81 132.413 111.888L132.199 111.89C129.972 111.892 127.717 111.357 125.63 110.229L86.7961 132.607C86.5956 139.962 80.6178 145.879 73.2282 145.998L73 146ZM73 2.33484L73.1787 2.33246C73.1937 2.33206 73.2086 2.33162 73.2236 2.33112L73.1789 2.33244C73.2385 2.33086 73.298 2.32846 73.3573 2.32529L73.2236 2.33112C73.2888 2.32895 73.3537 2.32582 73.4184 2.32176L73.3573 2.32529C73.4179 2.32204 73.4783 2.31798 73.5385 2.3131L73.4184 2.32176C73.4776 2.31805 73.5367 2.31355 73.5955 2.30827L73.5385 2.3131C73.5918 2.30878 73.645 2.3038 73.698 2.29822L73.5955 2.30827C73.6603 2.30247 73.7248 2.29572 73.7891 2.28804L73.698 2.29822C73.758 2.2919 73.8177 2.28476 73.8773 2.27682L73.7891 2.28804C73.8436 2.28152 73.8979 2.27435 73.9521 2.26651L73.8773 2.27682C73.9446 2.26787 74.0117 2.25789 74.0784 2.2469L73.9521 2.26651C74.0068 2.25859 74.0613 2.24998 74.1157 2.24071L74.0784 2.2469C74.1352 2.23755 74.1917 2.22746 74.2481 2.21666L74.1157 2.24071C74.1755 2.2305 74.235 2.21947 74.2943 2.20766L74.2481 2.21666C74.3206 2.20276 74.3927 2.18765 74.4645 2.17137L74.2943 2.20766C74.4309 2.18042 74.5661 2.14896 74.6995 2.1134C74.7331 2.10455 74.7666 2.09534 74.8001 2.08586L74.6995 2.1134C74.7546 2.09872 74.8094 2.08334 74.8639 2.06729L74.8001 2.08586C74.849 2.07201 74.8977 2.05759 74.9463 2.04263L74.8639 2.06729C77.5857 1.2653 79.5721 -1.2482 79.5721 -4.22478C79.5721 -7.84756 76.6296 -10.7844 73 -10.7844C69.3704 -10.7844 66.4279 -7.84756 66.4279 -4.22478C66.4279 -1.28062 68.3713 1.21051 71.0474 2.0405C71.0808 2.05103 71.1146 2.06117 71.1484 2.07106L71.0474 2.0405C71.0975 2.05602 71.1478 2.07095 71.1984 2.0853L71.1484 2.07106C71.2022 2.08678 71.2563 2.10181 71.3106 2.11617L71.1984 2.0853C71.2566 2.10182 71.3151 2.11757 71.374 2.13252L71.3106 2.11617C71.4396 2.15025 71.5699 2.1805 71.7016 2.2068C71.7223 2.21098 71.7432 2.21507 71.7643 2.21906L71.7016 2.2068C71.7627 2.21902 71.8241 2.23038 71.8858 2.24088L71.7643 2.21906C71.8148 2.22865 71.8656 2.23769 71.9165 2.24612L71.8858 2.24088C71.9408 2.25026 71.996 2.25896 72.0515 2.26695L71.9165 2.24612C71.9843 2.25734 72.0523 2.26752 72.1208 2.27664L72.0515 2.26695C72.1044 2.27458 72.1574 2.28159 72.2107 2.28795L72.1208 2.27664C72.181 2.28468 72.2415 2.2919 72.3022 2.29831L72.2107 2.28795C72.2751 2.29564 72.3397 2.30241 72.4045 2.30823L72.3022 2.29831C72.3551 2.30388 72.4082 2.30882 72.4615 2.31314L72.4045 2.30823C72.4634 2.31352 72.5225 2.31802 72.5817 2.32175L72.4615 2.31314C72.5217 2.31799 72.582 2.32207 72.6426 2.3253L72.5817 2.32175C72.6464 2.32581 72.7112 2.32892 72.7763 2.3311L72.6426 2.3253C72.7609 2.33163 72.8801 2.33484 73 2.33484ZM94.3642 47.354L118.813 33.2655C118.795 33.1969 118.779 33.1282 118.762 33.0595C118.757 33.0384 118.752 33.0169 118.747 32.9954C118.736 32.948 118.725 32.9011 118.715 32.8541C118.708 32.8199 118.7 32.7853 118.693 32.7506C118.684 32.7102 118.676 32.67 118.667 32.6297C118.659 32.5869 118.65 32.5444 118.642 32.5018C118.618 32.3797 118.596 32.2571 118.576 32.1345C118.571 32.1034 118.566 32.0721 118.561 32.0408C118.514 31.7411 118.476 31.441 118.449 31.1408C118.446 31.107 118.443 31.0732 118.44 31.0395C118.43 30.9126 118.421 30.7854 118.414 30.6583C118.413 30.6475 118.413 30.6366 118.412 30.6258L118.414 30.6583C118.41 30.5928 118.407 30.5272 118.404 30.4616C118.403 30.4221 118.401 30.3824 118.4 30.3426C118.398 30.2989 118.397 30.2554 118.396 30.212C118.396 30.1788 118.395 30.1455 118.394 30.1121C118.394 30.0791 118.393 30.0462 118.393 30.0132C118.393 29.983 118.393 29.9529 118.393 29.9227L118.393 30.0132C118.387 29.2794 118.44 28.5482 118.55 27.827C118.568 27.7071 118.588 27.5874 118.609 27.468C118.619 27.4159 118.628 27.3639 118.638 27.3121C118.659 27.202 118.682 27.092 118.705 26.9823C118.714 26.9428 118.723 26.9033 118.732 26.8638C118.738 26.8353 118.745 26.807 118.751 26.7787C118.757 26.7522 118.764 26.7255 118.77 26.6988C118.782 26.648 118.794 26.5976 118.807 26.5472C118.845 26.397 118.885 26.2471 118.928 26.0979C118.958 25.991 118.99 25.8843 119.023 25.778C119.035 25.7419 119.046 25.7061 119.058 25.6703C119.067 25.6409 119.077 25.6114 119.086 25.582C119.098 25.5478 119.109 25.5136 119.121 25.4795C119.136 25.433 119.152 25.3868 119.168 25.3406C119.176 25.318 119.184 25.2954 119.192 25.2728C119.208 25.2276 119.225 25.1827 119.241 25.1378C119.245 25.1285 119.248 25.1187 119.252 25.109C119.273 25.051 119.295 24.9936 119.317 24.9363C119.369 24.8017 119.423 24.6678 119.479 24.5347C119.524 24.4285 119.57 24.3228 119.617 24.2176C119.633 24.1821 119.65 24.1464 119.666 24.1107C119.677 24.0879 119.687 24.0652 119.698 24.0426C119.72 23.9946 119.743 23.9465 119.766 23.8986C119.782 23.8652 119.799 23.832 119.815 23.799C119.83 23.7688 119.845 23.7386 119.86 23.7085C119.88 23.6691 119.899 23.6299 119.92 23.5908C119.932 23.5666 119.945 23.5421 119.957 23.5177C119.978 23.4771 120 23.437 120.021 23.3971C120.033 23.3746 120.045 23.3521 120.057 23.3296C120.117 23.2187 120.179 23.1085 120.242 22.9991L84.9543 2.66389C84.9473 2.67595 84.9403 2.688 84.9333 2.70003C84.8681 2.81169 84.8015 2.9222 84.7334 3.03166C84.7218 3.05029 84.7102 3.06888 84.6985 3.08745C84.6726 3.12865 84.6464 3.16985 84.62 3.21089C84.6028 3.23756 84.5857 3.26389 84.5686 3.29015C84.5472 3.32289 84.5254 3.35591 84.5035 3.38882C84.4836 3.41875 84.4637 3.44835 84.4437 3.47789C84.4306 3.49718 84.4175 3.51656 84.4042 3.53589C84.1904 3.84825 83.9642 4.15131 83.7261 4.4444C83.6566 4.52991 83.586 4.61473 83.5145 4.69867C83.448 4.77663 83.3806 4.85388 83.3124 4.93039C83.28 4.96671 83.2475 5.00279 83.2148 5.03871C83.1966 5.0587 83.1782 5.07875 83.1597 5.09877C83.1408 5.11935 83.1218 5.13976 83.1028 5.16013C83.024 5.24463 82.944 5.32822 82.8631 5.41078C82.6088 5.67006 82.3441 5.91953 82.0699 6.15834L82.0454 6.17964C81.9571 6.2562 81.8678 6.33165 81.7775 6.40598C81.7629 6.41803 81.7485 6.42984 81.7341 6.44164C81.7004 6.4691 81.6664 6.49666 81.6322 6.52406C81.6014 6.54871 81.5706 6.57317 81.5397 6.5975C81.5227 6.61086 81.5058 6.62415 81.4887 6.63741C81.3773 6.72427 81.2646 6.80942 81.1506 6.89284C81.1435 6.89799 81.1369 6.90282 81.1303 6.90762C81.0959 6.93272 81.0611 6.95786 81.0261 6.98285C80.9429 7.04234 80.8591 7.10083 80.7746 7.15842L80.7393 7.18237C80.5025 7.34277 80.2604 7.49602 80.0133 7.64178C79.9892 7.65599 79.9651 7.67012 79.941 7.68417C79.8406 7.7426 79.7393 7.79982 79.6373 7.8558C79.5961 7.87839 79.555 7.90063 79.5138 7.92268C79.4896 7.93568 79.4652 7.94862 79.4408 7.9615C79.4128 7.9763 79.3846 7.99106 79.3563 8.00572C79.308 8.03078 79.2597 8.05548 79.2112 8.07993C79.1916 8.08977 79.1719 8.09966 79.1521 8.1095C79.0406 8.16504 78.9284 8.21899 78.8154 8.27148C78.7894 8.28355 78.7632 8.29561 78.737 8.3076C78.621 8.36057 78.5045 8.41183 78.3872 8.46155C78.2715 8.51054 78.1549 8.55804 78.0376 8.60397C77.93 8.64609 77.8217 8.68694 77.7127 8.72646C77.6866 8.73592 77.6606 8.74524 77.6346 8.75449C77.5841 8.77246 77.5332 8.79022 77.4822 8.80771C77.4695 8.81204 77.4572 8.81624 77.4449 8.82042C77.389 8.83939 77.3327 8.85808 77.2763 8.87642C77.255 8.88332 77.2339 8.89015 77.2126 8.89693C77.1559 8.91505 77.099 8.93286 77.0418 8.9503C77.0288 8.95427 77.0159 8.95819 77.003 8.9621C76.9557 8.97636 76.9082 8.99042 76.8607 9.00423C76.8199 9.01605 76.7791 9.02768 76.7383 9.03912C76.728 9.04202 76.7178 9.04486 76.7076 9.04768L76.708 35.5765C84.2587 36.5081 90.7432 40.9986 94.3642 47.354ZM52.8929 47.9133C56.2712 41.5809 62.3802 37.0952 69.4788 35.7889L69.4787 9.09802C69.3992 9.07715 69.32 9.05559 69.2411 9.03333C69.2061 9.02347 69.1714 9.01352 69.1367 9.00346C68.8703 8.92607 68.6069 8.84082 68.3472 8.748C68.3242 8.73978 68.3012 8.73148 68.2782 8.72311C68.2272 8.70461 68.1766 8.6859 68.1262 8.66689C68.1084 8.66017 68.0905 8.65338 68.0727 8.64658C68.0245 8.6282 67.9766 8.6096 67.9288 8.59076C67.9044 8.58112 67.88 8.5714 67.8555 8.5616C67.8008 8.53966 67.7463 8.51738 67.692 8.49478C67.6769 8.48846 67.6616 8.48207 67.6463 8.47566C67.5252 8.42474 67.4052 8.37224 67.2861 8.3181C67.2536 8.30328 67.2213 8.28845 67.189 8.27351C67.0933 8.22913 66.9981 8.18358 66.9034 8.13698C66.8446 8.108 66.7861 8.07869 66.7278 8.04897C66.6932 8.03133 66.6584 8.01338 66.6237 7.9953C66.6091 7.98767 66.5947 7.98015 66.5803 7.9726C66.5255 7.94382 66.4707 7.91458 66.4162 7.88498C66.3967 7.87439 66.3771 7.86368 66.3576 7.85294C66.3241 7.83461 66.2909 7.81621 66.2578 7.79765C66.1526 7.73869 66.0482 7.67844 65.9447 7.61687C65.9221 7.60349 65.8998 7.59012 65.8775 7.57671C65.8346 7.5508 65.7916 7.5246 65.7488 7.49815C65.7221 7.48169 65.6955 7.46512 65.6689 7.44847C65.6426 7.4319 65.616 7.41516 65.5896 7.39832C65.5589 7.3788 65.5286 7.35936 65.4984 7.33981C65.4014 7.27696 65.305 7.2128 65.2094 7.14746C65.1759 7.12457 65.1425 7.1015 65.1091 7.07828C64.9386 6.95937 64.7708 6.83676 64.606 6.71054C64.5741 6.6862 64.5423 6.66161 64.5106 6.63687L64.485 6.61681C64.3512 6.51195 64.2193 6.40466 64.0895 6.29503C64.0573 6.26793 64.0255 6.24077 63.9938 6.21349C63.9608 6.18503 63.9279 6.15648 63.8952 6.12776C63.8727 6.10815 63.8502 6.0883 63.8278 6.06839C63.8096 6.05208 63.7915 6.03596 63.7736 6.01982C63.5132 5.78621 63.2619 5.5428 63.0201 5.29024C62.9982 5.26718 62.976 5.24387 62.954 5.22049C62.8542 5.11502 62.7564 5.00804 62.6602 4.89954L62.6543 4.89267C62.485 4.70148 62.321 4.50552 62.1624 4.3051C62.1385 4.27509 62.1148 4.24484 62.0912 4.21449C62.0695 4.18634 62.0477 4.15819 62.0261 4.12996C62.0032 4.10028 61.9806 4.07047 61.9581 4.04054C61.9415 4.0183 61.925 3.99619 61.9085 3.97404C61.879 3.93457 61.8496 3.89462 61.8205 3.85449C61.8028 3.82999 61.7852 3.80551 61.7676 3.78101C61.7446 3.74916 61.722 3.71732 61.6995 3.68535C61.6803 3.65782 61.6609 3.63002 61.6416 3.60213C61.616 3.56548 61.5909 3.52892 61.566 3.49223C61.5488 3.4666 61.5314 3.4408 61.5141 3.41493C61.3662 3.19405 61.2246 2.9687 61.0896 2.73907L61.0459 2.66389L25.7578 22.9988C25.8324 23.128 25.9034 23.2557 25.9723 23.3844C25.996 23.4287 26.0194 23.473 26.0426 23.5175C26.06 23.5509 26.0772 23.5842 26.0942 23.6176C26.1043 23.6372 26.1143 23.6569 26.1242 23.6766C26.1854 23.7978 26.2448 23.9198 26.3023 24.0427C26.313 24.0655 26.3235 24.0881 26.3339 24.1108C26.3542 24.1546 26.3742 24.1986 26.394 24.2427C26.4033 24.2634 26.4125 24.2841 26.4217 24.3047C26.442 24.3505 26.462 24.3965 26.4818 24.4425C26.5648 24.6352 26.6431 24.8295 26.717 25.0254C26.7878 25.213 26.8545 25.4021 26.917 25.5925C26.9247 25.6159 26.9325 25.6397 26.9401 25.6635C27.0332 25.9521 27.1167 26.2436 27.1906 26.5375C27.199 26.571 27.2073 26.6045 27.2154 26.638C27.2432 26.7523 27.2696 26.8669 27.2945 26.9819C27.3005 27.0098 27.3065 27.0376 27.3123 27.0654C27.3235 27.1189 27.3345 27.1726 27.3451 27.2264C27.3501 27.2513 27.3549 27.2761 27.3597 27.3009C27.3978 27.4994 27.4315 27.6986 27.4609 27.8986C27.4713 27.9697 27.4812 28.041 27.4906 28.1123C27.503 28.2074 27.5145 28.3027 27.5249 28.398C27.5469 28.598 27.5645 28.7987 27.5777 28.9999C27.5803 29.0397 27.5828 29.0795 27.585 29.1193C27.5868 29.1499 27.5884 29.1807 27.59 29.2115C27.5965 29.3411 27.6011 29.4708 27.604 29.6006C27.607 29.7382 27.6079 29.8759 27.6068 30.0136C27.6065 30.0464 27.6061 30.0795 27.6056 30.1126C27.6052 30.1373 27.6048 30.1616 27.6043 30.1859C27.6015 30.3176 27.5969 30.4498 27.5903 30.5821C27.588 30.629 27.5854 30.676 27.5826 30.723C27.5806 30.7551 27.5786 30.7871 27.5765 30.8192C27.5747 30.8452 27.5729 30.8712 27.571 30.8971C27.5599 31.0489 27.5463 31.2007 27.5302 31.3524C27.5299 31.3548 27.5296 31.3572 27.5294 31.3596L27.5302 31.3524C27.4968 31.665 27.4527 31.9772 27.3975 32.2887C27.3921 32.3189 27.3867 32.3491 27.3811 32.3794C27.374 32.4177 27.3668 32.456 27.3594 32.4943C27.3373 32.6086 27.3138 32.7228 27.2887 32.8368C27.2679 32.9316 27.246 33.0265 27.223 33.1213L52.8929 47.9133ZM135.482 35.5684C138.626 33.757 139.703 29.7452 137.888 26.6078C136.073 23.4704 132.054 22.3954 128.91 24.2068C126.433 25.6347 125.239 28.4297 125.733 31.086C125.738 31.1119 125.743 31.1378 125.748 31.1637L125.733 31.086C125.742 31.1352 125.752 31.1843 125.762 31.2334L125.748 31.1637C125.76 31.2268 125.774 31.2897 125.788 31.3525L125.762 31.2334C125.776 31.2996 125.791 31.3657 125.807 31.4317L125.788 31.3525C125.8 31.4043 125.813 31.4561 125.826 31.5078L125.807 31.4317C125.821 31.488 125.835 31.5442 125.851 31.6003L125.826 31.5078C125.842 31.5691 125.858 31.6303 125.876 31.6913L125.851 31.6003C125.865 31.6526 125.88 31.7047 125.895 31.7568L125.876 31.6913C125.932 31.8843 125.996 32.0755 126.07 32.2644C126.08 32.2909 126.091 32.3176 126.102 32.3441L126.07 32.2644C126.093 32.3241 126.118 32.3837 126.143 32.4429L126.102 32.3441C126.124 32.3984 126.147 32.4526 126.17 32.5066L126.143 32.4429C126.164 32.4928 126.186 32.5424 126.208 32.5919L126.17 32.5066C126.198 32.5707 126.227 32.6346 126.258 32.6982L126.208 32.5919C126.232 32.645 126.257 32.6979 126.283 32.7505L126.258 32.6982C126.283 32.7505 126.308 32.8026 126.335 32.8545L126.283 32.7505C126.314 32.8146 126.347 32.8784 126.38 32.9418L126.335 32.8545C126.373 32.9292 126.412 33.0034 126.454 33.0771L126.505 33.1674C126.595 33.323 126.69 33.4739 126.791 33.6198C126.806 33.6406 126.82 33.6613 126.835 33.6818L126.791 33.6198C126.862 33.7216 126.935 33.8211 127.01 33.9181C127.024 33.9353 127.037 33.952 127.05 33.9687L127.01 33.9181C127.041 33.9576 127.072 33.9968 127.104 34.0355L127.05 33.9687C127.093 34.0223 127.136 34.075 127.18 34.127L127.104 34.0355C127.14 34.0792 127.176 34.1225 127.212 34.1652L127.18 34.127C127.213 34.166 127.246 34.2046 127.28 34.2427L127.212 34.1652C127.3 34.2677 127.391 34.3671 127.485 34.4634C127.553 34.5328 127.622 34.6005 127.692 34.6666C127.757 34.7279 127.823 34.7878 127.891 34.8461C127.927 34.8773 127.964 34.9081 128 34.9385L127.891 34.8461C127.934 34.8836 127.978 34.9205 128.022 34.9568L128 34.9385C130.056 36.6393 133.035 36.9789 135.482 35.5684ZM18.3593 34.6178L18.4123 34.5665C18.4794 34.5006 18.5451 34.4331 18.6095 34.364C18.6185 34.3544 18.6272 34.345 18.6359 34.3357L18.6095 34.364C18.6499 34.3207 18.6898 34.2768 18.7291 34.2323L18.6359 34.3357C18.6788 34.2891 18.7211 34.2419 18.7628 34.1939L18.7291 34.2323C18.77 34.186 18.8102 34.1391 18.8499 34.0916L18.7628 34.1939C18.7985 34.1529 18.8337 34.1113 18.8685 34.0693L18.8499 34.0916C18.8834 34.0514 18.9165 34.0108 18.9491 33.9697L18.8685 34.0693C18.9144 34.0138 18.9594 33.9574 19.0037 33.9001L18.9491 33.9697C18.9862 33.923 19.0228 33.8757 19.0587 33.8278L19.0037 33.9001C19.0369 33.8571 19.0697 33.8136 19.102 33.7695L19.0587 33.8278C19.0936 33.7814 19.1279 33.7344 19.1616 33.6869L19.102 33.7695C19.1387 33.7195 19.1747 33.6689 19.2101 33.6177L19.1616 33.6869C19.2799 33.5202 19.3913 33.347 19.4952 33.1674C19.5125 33.1374 19.5296 33.1073 19.5465 33.0772L19.4952 33.1674C19.5724 33.0339 19.6444 32.8988 19.7112 32.7624C19.7276 32.7289 19.7436 32.6954 19.7594 32.6618L19.7112 32.7624C19.7302 32.7236 19.7488 32.6848 19.7669 32.6458L19.7594 32.6618C19.7852 32.6068 19.8102 32.5515 19.8344 32.496C19.8415 32.4797 19.8485 32.4633 19.8555 32.4469L19.8344 32.496C19.9402 32.253 20.0304 32.0057 20.1052 31.7553C20.1098 31.7398 20.1144 31.7243 20.1189 31.7089L20.1052 31.7553C20.1221 31.6987 20.1383 31.642 20.1536 31.5851L20.1189 31.7089C20.1365 31.6484 20.1531 31.5876 20.1689 31.5268L20.1536 31.5851C20.1682 31.531 20.182 31.4768 20.1952 31.4225L20.1689 31.5268C20.2005 31.4048 20.2285 31.2822 20.2528 31.1593C20.2565 31.1424 20.2598 31.1254 20.263 31.1085L20.2528 31.1593C20.7831 28.4813 19.5902 25.6478 17.0896 24.2068C13.9463 22.3954 9.92688 23.4704 8.11205 26.6078C6.29723 29.7452 7.37422 33.757 10.5176 35.5684C13.1121 37.0635 16.3035 36.5922 18.3593 34.6178ZM23.4263 88.2328L39.0825 79.2104C36.4204 75.9392 34.825 71.7683 34.825 67.2256C34.825 60.3891 38.4382 54.3949 43.8624 51.0416L23.7441 39.4482C23.6626 39.5328 23.5801 39.6162 23.4967 39.6984C23.3524 39.8406 23.2054 39.9791 23.0558 40.114C22.4487 40.6614 21.7986 41.149 21.1148 41.5744C20.8485 41.74 20.5771 41.8962 20.3011 42.0428L20.2926 42.0474C20.1673 42.1138 20.041 42.1784 19.9138 42.2409C19.7308 42.3308 19.5462 42.4166 19.3599 42.4982C19.2973 42.5256 19.2346 42.5525 19.1717 42.579C19.0291 42.6389 18.8855 42.6965 18.7409 42.7517C18.6481 42.7871 18.5552 42.8214 18.4621 42.8547C18.2875 42.9171 18.1116 42.976 17.9347 43.0313C17.8267 43.0651 17.7184 43.0975 17.6098 43.1286C17.4187 43.1833 17.2263 43.234 17.033 43.2804C16.9181 43.3081 16.8026 43.3343 16.6868 43.359C16.576 43.3827 16.4648 43.405 16.3533 43.4259C16.3307 43.4302 16.3084 43.4343 16.2861 43.4384C16.2021 43.4538 16.1176 43.4685 16.0329 43.4823C15.921 43.5007 15.809 43.5177 15.6969 43.5332C15.6848 43.5349 15.673 43.5365 15.6612 43.5381C15.6379 43.5413 15.6143 43.5445 15.5907 43.5476C15.4596 43.5647 15.3284 43.58 15.1969 43.5935C15.0699 43.6064 14.943 43.6176 14.8159 43.6271C14.7863 43.6293 14.7568 43.6314 14.7272 43.6334C14.5982 43.6421 14.4689 43.6491 14.3395 43.6542C14.3132 43.6553 14.287 43.6562 14.2608 43.6571C14.1805 43.6599 14.1002 43.6619 14.0198 43.6632L13.8065 43.6651L13.8036 43.6651V84.3349H13.8065C14.2333 84.3354 14.659 84.3557 15.0823 84.3953C15.1579 84.4024 15.2334 84.4101 15.3087 84.4184C15.4813 84.4375 15.6535 84.4597 15.8253 84.4852C15.9452 84.503 16.0647 84.5224 16.1839 84.5433C16.3434 84.5713 16.5024 84.602 16.6607 84.6355C16.7878 84.6624 16.9142 84.691 17.0402 84.7213L17.2682 84.7783C17.6947 84.8887 18.116 85.0194 18.5303 85.1699C18.6264 85.2048 18.7216 85.2406 18.8165 85.2775C19.0144 85.3544 19.2089 85.4351 19.4016 85.5202C19.4345 85.5347 19.4677 85.5495 19.5008 85.5645C19.5802 85.6003 19.6589 85.6367 19.7373 85.6739C19.886 85.7444 20.0336 85.8176 20.1799 85.8935C20.5883 86.1054 20.987 86.338 21.3741 86.591C21.4719 86.6549 21.5689 86.7201 21.6652 86.7866C21.7045 86.8137 21.7438 86.8411 21.7829 86.8688C21.9045 86.9546 22.0247 87.0424 22.1436 87.1323C22.5908 87.4704 23.0193 87.8374 23.4263 88.2328ZM122.682 88.1303L122.755 88.0596C122.994 87.836 123.24 87.6219 123.492 87.4174C123.938 87.0559 124.404 86.7248 124.887 86.4247L124.894 86.4201C124.999 86.3547 125.105 86.2909 125.212 86.2284C125.237 86.2138 125.263 86.1991 125.288 86.1845L125.212 86.2284C125.419 86.1079 125.628 85.9929 125.84 85.8835C126.142 85.7274 126.449 85.5827 126.761 85.4496C127.229 85.2499 127.707 85.0763 128.193 84.9293C128.227 84.9192 128.26 84.9092 128.294 84.8993C128.402 84.8675 128.511 84.8368 128.621 84.8075C128.8 84.7596 128.98 84.7153 129.16 84.6746C129.203 84.665 129.245 84.6556 129.288 84.6464C129.409 84.6203 129.531 84.5958 129.653 84.5729C129.664 84.5709 129.674 84.5689 129.685 84.5669C129.746 84.5556 129.807 84.5447 129.868 84.5342L129.685 84.5669C129.779 84.5496 129.872 84.5332 129.966 84.5178C130.09 84.4975 130.214 84.4789 130.339 84.4619C130.471 84.4439 130.603 84.4278 130.736 84.4136C130.759 84.4111 130.782 84.4087 130.805 84.4063C130.929 84.3937 131.054 84.3827 131.178 84.3734C131.209 84.3711 131.241 84.3688 131.273 84.3667C131.396 84.3583 131.52 84.3515 131.644 84.3465C131.676 84.3452 131.708 84.344 131.74 84.3429C131.755 84.3424 131.769 84.3419 131.783 84.3415C131.92 84.3372 132.058 84.335 132.196 84.3349L132.167 84.3357L132.193 84.3349L132.196 84.3349V43.6651H132.193C131.939 43.6648 131.686 43.6575 131.433 43.6433C131.327 43.6374 131.222 43.6302 131.117 43.6219C130.975 43.6107 130.833 43.5972 130.691 43.5816C130.544 43.5653 130.396 43.5467 130.249 43.5257C130.15 43.5114 130.051 43.4961 129.951 43.4798C129.832 43.46 129.712 43.4387 129.593 43.4158C129.479 43.3939 129.365 43.3705 129.252 43.3458C128.927 43.2748 128.604 43.1922 128.285 43.0981C127.914 42.9887 127.55 42.8645 127.191 42.7253C127.061 42.6752 126.933 42.6232 126.805 42.5692C126.764 42.552 126.724 42.5345 126.683 42.5169C126.513 42.4429 126.344 42.3656 126.176 42.2849C126.089 42.2428 126.002 42.1997 125.916 42.1557C125.647 42.0189 125.382 41.873 125.122 41.7183C125.043 41.6712 124.964 41.6234 124.886 41.5747L124.688 41.4497C124.623 41.4072 124.557 41.3641 124.492 41.3205C123.73 40.8096 123.015 40.2197 122.359 39.5539L97.4526 53.9057C105.382 54.8999 111.536 61.5919 111.669 69.7449L111.671 70.0134C111.671 73.7173 110.428 77.1316 108.336 79.8634L122.682 88.1303ZM72.1498 79.0329L95.4049 79.0329C100.396 79.0329 104.442 74.9947 104.442 70.0134C104.442 65.0321 100.396 60.9939 95.4048 60.9939L90.4261 60.9937L90.1587 57.6753C89.4757 49.1988 82.3586 42.6128 73.7822 42.6128C66.9313 42.6128 60.873 46.8364 58.4474 53.1095L57.5546 55.4183L53.884 55.4182C47.3506 55.4182 42.0543 60.7046 42.0543 67.2256C42.0543 73.7466 47.3506 79.0329 53.884 79.0329H71.5529C71.6332 79.0329 71.7116 79.0321 71.7884 79.0305L71.8661 79.0289L72.0467 79.0323L72.1498 79.0329ZM61.0459 125.336L61.0852 125.268C61.1425 125.171 61.2009 125.074 61.2605 124.978C61.279 124.948 61.2974 124.919 61.316 124.89C61.3326 124.863 61.3493 124.837 61.3662 124.811C61.3867 124.779 61.4073 124.747 61.428 124.715C61.6055 124.443 61.7925 124.178 61.9883 123.919C62.0846 123.793 62.1828 123.668 62.2831 123.544C62.4452 123.345 62.6126 123.151 62.7852 122.961C62.8011 122.944 62.817 122.927 62.8329 122.909C62.8648 122.875 62.897 122.84 62.9293 122.806C62.9466 122.787 62.9636 122.769 62.9806 122.751C63.0137 122.716 63.0471 122.682 63.0807 122.647C63.3763 122.342 63.6858 122.051 64.0082 121.774C64.153 121.65 64.3007 121.528 64.4508 121.41C64.4706 121.394 64.4907 121.379 64.5109 121.363C64.5467 121.335 64.5824 121.307 64.6184 121.28C64.6504 121.255 64.6827 121.231 64.7152 121.207C64.7364 121.191 64.7578 121.175 64.7792 121.159C64.8742 121.088 64.97 121.019 65.0667 120.951C65.093 120.933 65.1193 120.915 65.1457 120.896C65.2384 120.832 65.332 120.769 65.4264 120.707C65.4674 120.68 65.5087 120.653 65.5501 120.627C65.667 120.552 65.785 120.479 65.9042 120.407C65.9307 120.391 65.9573 120.376 65.9839 120.36C66.0823 120.302 66.1813 120.245 66.281 120.189C66.308 120.174 66.3354 120.159 66.3627 120.144C66.3969 120.125 66.4308 120.107 66.4648 120.089C66.5718 120.031 66.6799 119.975 66.7888 119.92C66.8059 119.911 66.8231 119.903 66.8403 119.894C66.8819 119.874 66.9236 119.853 66.9655 119.833C66.9956 119.818 67.0259 119.803 67.0563 119.789C67.1574 119.741 67.2592 119.694 67.3617 119.648C67.4632 119.602 67.5652 119.558 67.6679 119.515C67.7864 119.466 67.9059 119.418 68.0262 119.371C68.1607 119.319 68.2963 119.269 68.4329 119.222C68.4517 119.215 68.4704 119.209 68.4891 119.202C68.6048 119.162 68.7215 119.124 68.8388 119.087C68.8659 119.078 68.8927 119.07 68.9195 119.062C68.9572 119.05 68.9954 119.038 69.0336 119.027C69.0683 119.017 69.1026 119.006 69.137 118.996C69.1781 118.985 69.2197 118.973 69.2613 118.961C69.2804 118.956 69.2993 118.95 69.3184 118.945C69.3543 118.935 69.3904 118.925 69.4267 118.916L69.4791 118.903L69.4791 86.2487L53.884 86.2485C50.7026 86.2485 47.7032 85.4704 45.0665 84.0946L27.1096 94.4425C27.1457 94.5724 27.1797 94.7026 27.2118 94.833C27.2401 94.9481 27.2669 95.0635 27.2922 95.1791C27.3158 95.2872 27.338 95.3952 27.3589 95.5033C27.3669 95.5445 27.3746 95.5855 27.3822 95.6266C27.3897 95.6675 27.3971 95.7088 27.4043 95.75C27.4559 96.0465 27.4976 96.3436 27.5294 96.641C27.5353 96.6952 27.5407 96.7495 27.5459 96.8037C27.5554 96.9034 27.5637 97.0028 27.5709 97.1022C27.5734 97.1361 27.5758 97.17 27.578 97.2039C27.581 97.2497 27.5837 97.2957 27.5863 97.3417C27.588 97.3733 27.5897 97.4048 27.5912 97.4362C27.5975 97.566 27.6019 97.6958 27.6045 97.8256C27.6053 97.8636 27.6059 97.9015 27.6063 97.9394C27.6066 97.9684 27.6069 97.9974 27.607 98.0265L27.6063 97.9394C27.6084 98.1162 27.607 98.2927 27.6023 98.469C27.5993 98.58 27.5949 98.6909 27.5893 98.8017C27.5876 98.8348 27.5858 98.8678 27.5839 98.9007C27.5819 98.9338 27.5799 98.9669 27.5777 99C27.56 99.2706 27.5342 99.5402 27.5007 99.8087C27.491 99.8861 27.4806 99.9635 27.4696 100.041C27.4634 100.085 27.4569 100.129 27.4501 100.173L27.4696 100.041C27.4378 100.264 27.4005 100.487 27.3578 100.709C27.3529 100.734 27.3479 100.76 27.3429 100.785C27.302 100.991 27.2565 101.196 27.2062 101.4C27.1711 101.542 27.1336 101.685 27.0939 101.826C27.0863 101.853 27.0787 101.88 27.071 101.907C27.0655 101.926 27.0599 101.945 27.0543 101.965L27.071 101.907C27.0274 102.059 26.9812 102.21 26.9325 102.36C26.9257 102.381 26.9188 102.402 26.9118 102.423C26.8968 102.469 26.8815 102.515 26.8659 102.56C26.8593 102.579 26.8527 102.599 26.846 102.618C26.8026 102.743 26.7574 102.868 26.7104 102.992C26.6271 103.212 26.5381 103.43 26.4436 103.646C26.3748 103.802 26.3031 103.958 26.2285 104.112C26.2105 104.15 26.1921 104.187 26.1736 104.225C26.1588 104.255 26.144 104.284 26.129 104.314C26.11 104.352 26.0907 104.39 26.0711 104.427C26.0589 104.451 26.0467 104.475 26.0344 104.498C26.0132 104.539 25.9918 104.579 25.9703 104.619C25.9022 104.747 25.8318 104.873 25.7594 104.999L25.7578 105.001L61.0459 125.336ZM84.9541 125.336L120.242 105.001C120.185 104.901 120.128 104.801 120.073 104.7C120.059 104.673 120.044 104.646 120.03 104.619C120.008 104.579 119.987 104.539 119.966 104.498C119.953 104.475 119.941 104.451 119.929 104.428C119.907 104.385 119.885 104.342 119.863 104.299C119.852 104.277 119.841 104.255 119.831 104.233C119.809 104.19 119.788 104.147 119.767 104.104C119.751 104.071 119.735 104.037 119.72 104.004C119.713 103.991 119.707 103.977 119.701 103.964L119.72 104.004C119.689 103.94 119.66 103.876 119.63 103.812C119.582 103.705 119.535 103.598 119.489 103.49L119.484 103.478C119.365 103.195 119.254 102.908 119.154 102.618C119.147 102.599 119.141 102.579 119.134 102.56C119.119 102.515 119.103 102.469 119.088 102.423C119.081 102.402 119.074 102.381 119.068 102.36C119.054 102.317 119.04 102.275 119.026 102.232C118.993 102.124 118.96 102.015 118.929 101.907C118.921 101.88 118.914 101.853 118.906 101.826C118.866 101.685 118.829 101.542 118.794 101.4C118.762 101.27 118.732 101.14 118.704 101.009C118.697 100.979 118.691 100.948 118.684 100.917C118.659 100.797 118.635 100.676 118.613 100.554C118.596 100.457 118.579 100.36 118.564 100.263L118.559 100.229C118.45 99.5358 118.394 98.8331 118.393 98.1275C118.393 98.0941 118.393 98.0604 118.393 98.0267C118.393 97.9974 118.393 97.9684 118.394 97.9393L118.393 98.0267C118.393 97.9597 118.394 97.8927 118.395 97.8256C118.397 97.7719 118.398 97.7181 118.4 97.6643C118.401 97.6301 118.402 97.5961 118.403 97.562C118.405 97.5202 118.407 97.4782 118.409 97.4362C118.41 97.409 118.412 97.3818 118.413 97.3545C118.419 97.236 118.427 97.1175 118.437 96.999C118.44 96.9553 118.444 96.9118 118.448 96.8683C118.475 96.5653 118.513 96.262 118.561 95.9594C118.564 95.9369 118.568 95.9144 118.572 95.892C118.594 95.7559 118.618 95.6199 118.645 95.4841C118.65 95.4597 118.654 95.4354 118.659 95.4112C118.67 95.3585 118.681 95.3058 118.692 95.2531C118.697 95.2286 118.702 95.2039 118.708 95.1793C118.716 95.1404 118.725 95.1017 118.734 95.0631C118.744 95.0196 118.754 94.976 118.764 94.9324C118.795 94.8037 118.827 94.6753 118.862 94.5472C118.876 94.4934 118.891 94.4395 118.906 94.3856C118.914 94.3572 118.922 94.3289 118.931 94.3006L102.305 84.7196C100.21 85.7004 97.8717 86.2485 95.4049 86.2485L76.7081 86.2487L76.7082 118.952C76.7763 118.971 76.8441 118.991 76.9118 119.011C76.9322 119.017 76.9526 119.023 76.9731 119.029C77.0216 119.043 77.0699 119.058 77.1181 119.073C77.1424 119.081 77.1669 119.089 77.1914 119.096C77.2355 119.11 77.2794 119.125 77.3232 119.139C77.3486 119.147 77.3741 119.156 77.3995 119.164C77.5191 119.204 77.638 119.246 77.7561 119.289C77.7762 119.297 77.7965 119.304 77.8168 119.312C77.8563 119.326 77.8955 119.341 77.9346 119.356C78.0399 119.396 78.1445 119.438 78.2485 119.481C78.405 119.545 78.5598 119.612 78.7131 119.682C78.7967 119.72 78.8796 119.758 78.9621 119.798C78.9901 119.811 79.0182 119.825 79.0462 119.838C79.218 119.922 79.3878 120.009 79.5554 120.1C79.5986 120.123 79.6415 120.146 79.6844 120.17C79.7037 120.181 79.7232 120.192 79.7427 120.203C79.7788 120.223 79.8145 120.243 79.8501 120.263C79.8871 120.285 79.9238 120.306 79.9604 120.327C79.986 120.342 80.0119 120.357 80.0377 120.373C80.0816 120.399 80.1251 120.425 80.1684 120.451C80.1819 120.459 80.1951 120.467 80.2084 120.476C80.2598 120.507 80.3111 120.539 80.3621 120.571C80.3802 120.582 80.3981 120.594 80.4159 120.605C80.4484 120.626 80.4808 120.647 80.5132 120.668C80.5456 120.689 80.578 120.71 80.6102 120.731C80.6401 120.751 80.6696 120.771 80.699 120.79C80.729 120.811 80.759 120.831 80.7889 120.851C80.8302 120.88 80.8713 120.908 80.9122 120.937C81.0271 121.017 81.1407 121.099 81.253 121.183C81.3369 121.245 81.4202 121.309 81.5028 121.374C81.5307 121.395 81.5584 121.417 81.5861 121.439C81.7899 121.601 81.9891 121.769 82.1833 121.942C82.2063 121.962 82.2295 121.983 82.2527 122.004C82.2963 122.043 82.3393 122.082 82.382 122.122C82.3964 122.135 82.411 122.149 82.4256 122.162C82.4443 122.18 82.4629 122.197 82.4815 122.215C82.5186 122.25 82.5556 122.285 82.5924 122.321C82.6113 122.339 82.63 122.357 82.6486 122.375C82.6713 122.397 82.6941 122.42 82.7168 122.442L82.759 122.484C82.7711 122.496 82.7831 122.508 82.7952 122.52C82.8766 122.602 82.9572 122.685 83.0367 122.77L83.0541 122.788C83.119 122.857 83.1832 122.926 83.2466 122.996C83.2995 123.055 83.3519 123.114 83.4037 123.173C83.4794 123.26 83.5539 123.347 83.6274 123.435C83.6472 123.459 83.667 123.483 83.6866 123.507C83.7154 123.542 83.744 123.578 83.7724 123.613C83.8423 123.7 83.9111 123.788 83.9788 123.876C83.9997 123.904 84.0207 123.931 84.0416 123.959C84.0595 123.983 84.0774 124.007 84.0952 124.031C84.124 124.069 84.1524 124.108 84.1806 124.147C84.1958 124.168 84.211 124.189 84.2261 124.21C84.255 124.25 84.2839 124.291 84.3125 124.332C84.3265 124.352 84.3404 124.372 84.3542 124.392C84.3795 124.428 84.4047 124.465 84.4296 124.501C84.4481 124.529 84.4665 124.556 84.4848 124.583C84.6227 124.789 84.755 124.999 84.8817 125.212L84.9541 125.336ZM17.0896 103.793C19.5722 102.363 20.7658 99.5596 20.264 96.8987C20.2607 96.8794 20.257 96.8601 20.2531 96.8407L20.264 96.8987C20.2438 96.7914 20.2208 96.6843 20.195 96.5776C20.0834 96.1159 19.9204 95.6627 19.7053 95.2257C19.6953 95.2052 19.6849 95.1844 19.6744 95.1637L19.7053 95.2257C19.6824 95.1792 19.659 95.1328 19.6349 95.0867L19.6744 95.1637C19.6448 95.1051 19.6143 95.0467 19.5827 94.9887L19.4952 94.8326C19.4056 94.6778 19.3105 94.5277 19.2101 94.3824C19.1952 94.3607 19.1801 94.3391 19.1648 94.3176L19.2101 94.3824C19.1775 94.3352 19.1443 94.2885 19.1106 94.2423L19.1648 94.3176C19.1296 94.2679 19.0938 94.2189 19.0574 94.1704L19.1106 94.2423C19.0716 94.1889 19.0319 94.1362 18.9914 94.0841L19.0574 94.1704C19.026 94.1285 18.9941 94.0871 18.9618 94.0462L18.9914 94.0841C18.9535 94.0354 18.915 93.9873 18.8759 93.9398L18.9618 94.0462C18.9254 94.0001 18.8885 93.9547 18.8511 93.9098L18.8759 93.9398C18.807 93.8562 18.7362 93.7745 18.6637 93.6948C16.6294 91.4608 13.244 90.8605 10.5176 92.4316C7.37422 94.243 6.29723 98.2548 8.11205 101.392C9.92688 104.53 13.9463 105.605 17.0896 103.793ZM137.888 101.392C139.703 98.2548 138.626 94.243 135.482 92.4316C132.991 90.9959 129.949 91.3734 127.891 93.154C127.848 93.1908 127.806 93.2283 127.764 93.2664L127.641 93.3822C127.573 93.4475 127.506 93.5145 127.44 93.5831C127.424 93.5998 127.409 93.6165 127.393 93.6332L127.44 93.5831C127.406 93.6195 127.371 93.6564 127.337 93.6937L127.393 93.6332C127.355 93.6737 127.318 93.7147 127.281 93.7561L127.337 93.6937C127.298 93.7369 127.259 93.7808 127.221 93.8253L127.281 93.7561C127.242 93.8003 127.203 93.8451 127.165 93.8905L127.221 93.8253C127.182 93.8694 127.145 93.9142 127.108 93.9596L127.165 93.8905C127.047 94.0305 126.935 94.1762 126.828 94.3272C126.816 94.3446 126.804 94.3623 126.791 94.3801L126.828 94.3272C126.714 94.4895 126.606 94.6581 126.505 94.8326C126.475 94.8847 126.445 94.9371 126.417 94.9898C126.406 95.0098 126.395 95.0298 126.384 95.0499L126.417 94.9898C126.385 95.0483 126.354 95.1071 126.324 95.1662L126.384 95.0499C126.355 95.1056 126.326 95.1616 126.299 95.2178L126.324 95.1662C126.299 95.2155 126.275 95.2651 126.252 95.3148L126.299 95.2178C126.269 95.2766 126.241 95.3358 126.214 95.3951L126.252 95.3148C126.194 95.4361 126.141 95.5586 126.091 95.682C126.084 95.6998 126.077 95.7175 126.07 95.7352L126.091 95.682C125.995 95.9211 125.914 96.1639 125.848 96.4094C125.84 96.4398 125.832 96.4701 125.824 96.5003L125.848 96.4094C125.833 96.4651 125.819 96.5209 125.805 96.5768L125.824 96.5003C125.81 96.5542 125.797 96.6083 125.785 96.6624L125.805 96.5768C125.79 96.64 125.775 96.7033 125.762 96.7667L125.785 96.6624C125.772 96.7204 125.76 96.7786 125.748 96.8368L125.762 96.7667C125.751 96.8176 125.741 96.8686 125.732 96.9197L125.748 96.8368C125.216 99.516 126.409 102.352 128.91 103.793C132.054 105.605 136.073 104.53 137.888 101.392ZM73 138.784C76.6296 138.784 79.5721 135.848 79.5721 132.225C79.5721 129.451 77.8476 127.08 75.4104 126.12C75.3926 126.113 75.3746 126.106 75.3567 126.099L75.4104 126.12C75.3655 126.103 75.3203 126.086 75.2749 126.069L75.3567 126.099C75.3034 126.079 75.2499 126.059 75.1961 126.04L75.2749 126.069C75.2241 126.05 75.173 126.032 75.1217 126.015L75.1961 126.04C75.1422 126.021 75.0881 126.003 75.0336 125.985L75.1217 126.015C75.0649 125.995 75.0077 125.977 74.9502 125.959L75.0336 125.985C74.9773 125.967 74.9207 125.949 74.8638 125.933L74.9502 125.959C74.9004 125.943 74.8504 125.929 74.8 125.914L74.8638 125.933C74.8092 125.916 74.7544 125.901 74.6994 125.887L74.8 125.914C74.7407 125.897 74.681 125.881 74.621 125.866L74.6994 125.887C74.5659 125.851 74.4309 125.82 74.2945 125.792C74.2656 125.787 74.2369 125.781 74.2081 125.776L74.2945 125.792C74.2426 125.782 74.1905 125.772 74.1382 125.763L74.2081 125.776C74.149 125.765 74.0897 125.755 74.0301 125.745L74.1382 125.763C74.0752 125.752 74.012 125.742 73.9485 125.733L74.0301 125.745C73.9883 125.739 73.9464 125.733 73.9044 125.727L73.9485 125.733C73.8833 125.724 73.8179 125.715 73.7521 125.708L73.9044 125.727C73.8467 125.719 73.7887 125.712 73.7305 125.705L73.7521 125.708C73.697 125.701 73.6416 125.696 73.5861 125.691L73.7305 125.705C73.6678 125.698 73.6049 125.692 73.5418 125.687L73.5861 125.691C73.5242 125.685 73.4622 125.681 73.4 125.677L73.5418 125.687C73.4819 125.682 73.4217 125.678 73.3613 125.675L73.4 125.677C73.3414 125.674 73.2826 125.671 73.2237 125.669L73.3613 125.675C73.2417 125.668 73.1212 125.665 73 125.665L72.8213 125.668C72.8063 125.668 72.7914 125.668 72.7764 125.669L72.8211 125.668C72.7602 125.669 72.6994 125.672 72.6388 125.675L72.7764 125.669C72.7174 125.671 72.6585 125.674 72.5999 125.677L72.6388 125.675C72.5784 125.678 72.5182 125.682 72.4582 125.687L72.5999 125.677C72.5377 125.681 72.4757 125.685 72.4139 125.691L72.4582 125.687C72.3951 125.692 72.3322 125.698 72.2694 125.705L72.4139 125.691C72.3584 125.696 72.3031 125.701 72.2479 125.708L72.2694 125.705C72.2104 125.712 72.1516 125.719 72.0929 125.727L72.2479 125.708C72.1839 125.715 72.1201 125.723 72.0566 125.732L72.0929 125.727C72.0499 125.733 72.0069 125.739 71.9641 125.746L72.0566 125.732C71.9912 125.742 71.9261 125.752 71.8612 125.763L71.9641 125.746C71.9119 125.755 71.86 125.763 71.8082 125.773L71.8612 125.763C71.8077 125.773 71.7544 125.783 71.7013 125.793L71.8082 125.773C71.6619 125.8 71.517 125.831 71.3738 125.867C71.3529 125.873 71.3317 125.878 71.3107 125.884L71.3738 125.867C71.315 125.882 71.2565 125.898 71.1983 125.915L71.3107 125.884C71.2564 125.898 71.2023 125.913 71.1486 125.929L71.1983 125.915C71.1459 125.929 71.0936 125.945 71.0417 125.961L71.1486 125.929C71.0888 125.947 71.0293 125.965 70.9703 125.984L71.0417 125.961C70.987 125.978 70.9326 125.996 70.8786 126.014L70.9703 125.984C70.9144 126.002 70.8589 126.021 70.8037 126.04L70.8786 126.014C70.8272 126.032 70.7761 126.05 70.7252 126.068L70.8037 126.04C70.7492 126.06 70.695 126.08 70.6412 126.1L70.7252 126.068C70.6815 126.084 70.638 126.101 70.5947 126.118L70.6412 126.1C68.1768 127.047 66.4279 129.432 66.4279 132.225C66.4279 135.848 69.3704 138.784 73 138.784Z" fill="#EFF6FF"/>
</svg>
