<svg width="15" height="17" viewBox="0 0 15 17" fill="none" xmlns="http://www.w3.org/2000/svg">
<rect width="15" height="17" fill="#E5E5E5"/>
<g clip-path="url(#clip0_11080_68109)">
<rect width="1440" height="1011" transform="translate(-354 -254)" fill="#FAFAFB"/>
<g filter="url(#filter0_d_11080_68109)">
<rect x="-34" y="-28" width="348" height="203" rx="10" fill="white"/>
</g>
<mask id="mask0_11080_68109" style="mask-type:alpha" maskUnits="userSpaceOnUse" x="-34" y="-28" width="348" height="179">
<rect x="-34" y="-28" width="348" height="179" rx="10" fill="white"/>
</mask>
<g mask="url(#mask0_11080_68109)">
<rect x="-9" y="-4" width="32" height="24" rx="4" fill="#E6EDF7"/>
<path d="M7.5 17C6.73002 17 6.10338 16.382 6.08259 15.6116L2.09277 13.292C1.88529 13.4052 1.66146 13.4609 1.4398 13.4641L1.41788 13.4642C0.928405 13.4636 0.452545 13.2076 0.190205 12.75C-0.194779 12.0785 0.0233927 11.223 0.675444 10.8197L0.675444 6.18032C0.0233927 5.77701 -0.194779 4.9215 0.190205 4.25C0.44863 3.79925 0.914248 3.54406 1.39597 3.536L1.41788 3.5358C1.64668 3.53554 1.87845 3.5911 2.09278 3.70799L6.08259 1.38834C6.1032 0.625856 6.71735 0.0125885 7.47655 0.000192642L7.5 0C8.26996 0 8.89659 0.618017 8.91741 1.38833L12.9071 3.70805C13.1146 3.59485 13.3385 3.53915 13.5602 3.53595L13.5821 3.5358C14.0716 3.53637 14.5475 3.79242 14.8098 4.25C15.1948 4.9215 14.9766 5.77701 14.3246 6.18032L14.3246 10.8197C14.9766 11.223 15.1948 12.0785 14.8098 12.75C14.5514 13.2008 14.0858 13.4559 13.604 13.464L13.5821 13.4642C13.3533 13.4645 13.1216 13.4089 12.9072 13.292L8.91741 15.6117C8.8968 16.3741 8.28265 16.9874 7.52345 16.9998L7.5 17ZM7.5 2.10788L7.51836 2.10763C7.5199 2.10759 7.52143 2.10754 7.52297 2.10749L7.51838 2.10763C7.52451 2.10747 7.53062 2.10722 7.53671 2.10689L7.52297 2.10749C7.52967 2.10727 7.53634 2.10694 7.54298 2.10652L7.53671 2.10689C7.54293 2.10655 7.54914 2.10613 7.55532 2.10563L7.54298 2.10652C7.54907 2.10614 7.55514 2.10567 7.56118 2.10513L7.55532 2.10563C7.5608 2.10518 7.56626 2.10466 7.57171 2.10408L7.56118 2.10513C7.56784 2.10452 7.57447 2.10382 7.58107 2.10303L7.57171 2.10408C7.57787 2.10343 7.58401 2.10269 7.59013 2.10187L7.58107 2.10303C7.58667 2.10235 7.59225 2.10161 7.59781 2.1008L7.59013 2.10187C7.59705 2.10094 7.60394 2.0999 7.61079 2.09876L7.59781 2.1008C7.60344 2.09997 7.60904 2.09908 7.61462 2.09812L7.61079 2.09876C7.61663 2.09779 7.62244 2.09675 7.62823 2.09563L7.61462 2.09812C7.62077 2.09706 7.62688 2.09592 7.63297 2.0947L7.62823 2.09563C7.63568 2.09419 7.64309 2.09262 7.65046 2.09093L7.63297 2.0947C7.64701 2.09187 7.6609 2.08861 7.67461 2.08492C7.67806 2.08401 7.6815 2.08305 7.68494 2.08207L7.67461 2.08492C7.68027 2.0834 7.6859 2.08181 7.69149 2.08014L7.68494 2.08207C7.68997 2.08063 7.69497 2.07914 7.69996 2.07759L7.69149 2.08014C7.97113 1.99701 8.17521 1.73647 8.17521 1.42792C8.17521 1.05239 7.87291 0.747957 7.5 0.747957C7.12709 0.747957 6.82479 1.05239 6.82479 1.42792C6.82479 1.73311 7.02444 1.99133 7.29939 2.07737C7.30282 2.07846 7.30629 2.07951 7.30977 2.08054L7.29939 2.07737C7.30454 2.07898 7.30971 2.08052 7.3149 2.08201L7.30977 2.08054C7.3153 2.08216 7.32085 2.08372 7.32643 2.08521L7.3149 2.08201C7.32088 2.08373 7.3269 2.08536 7.33294 2.08691L7.32643 2.08521C7.33968 2.08875 7.35308 2.09188 7.3666 2.09461C7.36873 2.09504 7.37088 2.09546 7.37304 2.09588L7.3666 2.09461C7.37288 2.09587 7.37919 2.09705 7.38552 2.09814L7.37304 2.09588C7.37823 2.09687 7.38345 2.09781 7.38868 2.09868L7.38552 2.09814C7.39118 2.09911 7.39685 2.10001 7.40255 2.10084L7.38868 2.09868C7.39564 2.09984 7.40264 2.1009 7.40967 2.10185L7.40255 2.10084C7.40798 2.10163 7.41344 2.10236 7.41891 2.10302L7.40967 2.10185C7.41585 2.10268 7.42207 2.10343 7.42831 2.10409L7.41891 2.10302C7.42552 2.10382 7.43216 2.10452 7.43882 2.10512L7.42831 2.10409C7.43375 2.10467 7.4392 2.10518 7.44468 2.10563L7.43882 2.10512C7.44487 2.10567 7.45094 2.10614 7.45703 2.10652L7.44468 2.10563C7.45085 2.10613 7.45705 2.10655 7.46328 2.10689L7.45703 2.10652C7.46367 2.10694 7.47033 2.10727 7.47702 2.10749L7.46328 2.10689C7.47543 2.10755 7.48768 2.10788 7.5 2.10788ZM9.69495 6.7745L12.2068 5.31411C12.205 5.30699 12.2033 5.29988 12.2016 5.29275C12.2011 5.29057 12.2006 5.28834 12.2 5.2861C12.1989 5.2812 12.1978 5.27633 12.1968 5.27147C12.196 5.26792 12.1952 5.26433 12.1944 5.26073C12.1936 5.25655 12.1927 5.25237 12.1919 5.24819C12.191 5.24377 12.1901 5.23936 12.1893 5.23494C12.1868 5.22228 12.1846 5.20958 12.1825 5.19687C12.1819 5.19364 12.1814 5.1904 12.1809 5.18715C12.176 5.15609 12.1722 5.12498 12.1694 5.09386C12.1691 5.09036 12.1688 5.08686 12.1685 5.08337C12.1674 5.0702 12.1665 5.05703 12.1658 5.04385C12.1657 5.04273 12.1657 5.0416 12.1656 5.04047L12.1658 5.04385C12.1654 5.03706 12.1651 5.03026 12.1648 5.02346C12.1647 5.01937 12.1645 5.01525 12.1644 5.01113C12.1642 5.00659 12.1641 5.00208 12.164 4.99758C12.1639 4.99415 12.1639 4.99069 12.1638 4.98723C12.1638 4.98381 12.1637 4.9804 12.1637 4.97698C12.1637 4.97385 12.1636 4.97072 12.1636 4.96759L12.1637 4.97698C12.1631 4.90091 12.1685 4.82512 12.1798 4.75036C12.1817 4.73793 12.1837 4.72552 12.1859 4.71314C12.1869 4.70774 12.1878 4.70236 12.1889 4.69698C12.191 4.68557 12.1933 4.67417 12.1958 4.6628C12.1966 4.65871 12.1975 4.65461 12.1985 4.65051C12.1991 4.64756 12.1998 4.64462 12.2005 4.64169C12.2011 4.63894 12.2017 4.63618 12.2024 4.63341C12.2036 4.62815 12.2049 4.62292 12.2062 4.6177C12.2101 4.60212 12.2142 4.58659 12.2186 4.57113C12.2217 4.56004 12.225 4.54898 12.2284 4.53796C12.2296 4.53422 12.2308 4.53051 12.232 4.52679C12.2329 4.52375 12.2339 4.5207 12.2349 4.51764C12.2361 4.5141 12.2372 4.51056 12.2384 4.50702C12.24 4.5022 12.2417 4.49741 12.2433 4.49263C12.2441 4.49028 12.245 4.48794 12.2458 4.48559C12.2474 4.48091 12.2491 4.47625 12.2508 4.4716C12.2512 4.47063 12.2515 4.46962 12.2519 4.46861C12.2541 4.4626 12.2563 4.45665 12.2586 4.45071C12.2639 4.43676 12.2695 4.42288 12.2752 4.40909C12.2798 4.39808 12.2846 4.38712 12.2894 4.37622C12.2911 4.37253 12.2928 4.36883 12.2945 4.36514C12.2955 4.36277 12.2966 4.36042 12.2977 4.35808C12.3 4.3531 12.3024 4.34811 12.3047 4.34315C12.3064 4.33968 12.3081 4.33625 12.3097 4.33282C12.3113 4.32969 12.3128 4.32656 12.3144 4.32344C12.3164 4.31935 12.3184 4.31529 12.3205 4.31124C12.3218 4.30874 12.3231 4.3062 12.3244 4.30366C12.3266 4.29946 12.3287 4.2953 12.3309 4.29116C12.3322 4.28883 12.3334 4.28649 12.3346 4.28417C12.3408 4.27267 12.3471 4.26125 12.3536 4.24991L8.72818 2.14199C8.72747 2.14324 8.72675 2.14449 8.72602 2.14573C8.71933 2.15731 8.71248 2.16876 8.70549 2.18011C8.7043 2.18204 8.7031 2.18397 8.7019 2.18589C8.69924 2.19016 8.69655 2.19443 8.69383 2.19869C8.69207 2.20146 8.69031 2.20418 8.68855 2.20691C8.68635 2.2103 8.68412 2.21372 8.68187 2.21713C8.67982 2.22023 8.67778 2.2233 8.67572 2.22637C8.67438 2.22837 8.67303 2.23038 8.67167 2.23238C8.6497 2.26476 8.62646 2.29617 8.60199 2.32655C8.59486 2.33542 8.58761 2.34421 8.58025 2.35291C8.57342 2.36099 8.5665 2.369 8.55949 2.37693C8.55616 2.3807 8.55282 2.38444 8.54946 2.38816C8.54759 2.39023 8.5457 2.39231 8.54381 2.39438C8.54186 2.39652 8.53991 2.39863 8.53796 2.40074C8.52986 2.4095 8.52165 2.41817 8.51333 2.42673C8.4872 2.4536 8.46001 2.47946 8.43184 2.50422L8.42932 2.50642C8.42025 2.51436 8.41108 2.52218 8.4018 2.52989C8.4003 2.53114 8.39882 2.53236 8.39734 2.53358C8.39388 2.53643 8.39038 2.53929 8.38687 2.54213C8.3837 2.54468 8.38054 2.54722 8.37736 2.54974C8.37562 2.55112 8.37388 2.5525 8.37213 2.55388C8.36068 2.56288 8.3491 2.57171 8.33739 2.58035C8.33666 2.58089 8.33599 2.58139 8.33531 2.58189C8.33177 2.58449 8.32819 2.5871 8.3246 2.58968C8.31605 2.59585 8.30744 2.60192 8.29876 2.60788L8.29514 2.61037C8.2708 2.62699 8.24593 2.64288 8.22055 2.65799C8.21807 2.65946 8.2156 2.66093 8.21312 2.66238C8.2028 2.66844 8.1924 2.67437 8.18191 2.68017C8.17768 2.68252 8.17346 2.68482 8.16923 2.68711C8.16674 2.68845 8.16423 2.6898 8.16173 2.69113C8.15884 2.69267 8.15595 2.69419 8.15304 2.69571C8.14808 2.69831 8.14312 2.70087 8.13813 2.70341C8.13613 2.70443 8.1341 2.70545 8.13207 2.70647C8.12061 2.71223 8.10908 2.71782 8.09747 2.72326C8.0948 2.72451 8.09211 2.72576 8.08941 2.72701C8.0775 2.7325 8.06553 2.73781 8.05347 2.74296C8.04159 2.74804 8.02961 2.75297 8.01756 2.75773C8.00651 2.76209 7.99538 2.76633 7.98418 2.77042C7.9815 2.77141 7.97883 2.77237 7.97616 2.77333C7.97097 2.77519 7.96574 2.77704 7.9605 2.77885C7.9592 2.7793 7.95793 2.77973 7.95667 2.78017C7.95093 2.78213 7.94514 2.78407 7.93935 2.78597C7.93716 2.78669 7.93498 2.78739 7.93281 2.7881C7.92698 2.78997 7.92113 2.79182 7.91525 2.79363C7.91392 2.79404 7.91259 2.79445 7.91126 2.79485C7.90641 2.79633 7.90153 2.79779 7.89665 2.79922C7.89246 2.80044 7.88827 2.80165 7.88407 2.80284C7.88301 2.80314 7.88196 2.80343 7.88092 2.80372L7.88096 5.55366C8.65672 5.65023 9.32293 6.11571 9.69495 6.7745ZM5.4342 6.83248C5.78129 6.17607 6.40893 5.71109 7.13823 5.57568L7.13822 2.80894C7.13006 2.80678 7.12192 2.80454 7.11381 2.80224C7.11021 2.80121 7.10665 2.80018 7.10309 2.79914C7.07571 2.79112 7.04866 2.78228 7.02197 2.77266C7.01961 2.77181 7.01724 2.77095 7.01488 2.77008C7.00964 2.76816 7.00445 2.76622 6.99926 2.76425C6.99744 2.76355 6.9956 2.76285 6.99377 2.76214C6.98882 2.76024 6.9839 2.75831 6.97899 2.75636C6.97648 2.75536 6.97397 2.75435 6.97146 2.75333C6.96583 2.75106 6.96024 2.74875 6.95466 2.74641C6.9531 2.74576 6.95153 2.74509 6.94997 2.74443C6.93752 2.73915 6.92519 2.73371 6.91295 2.7281C6.90961 2.72656 6.90629 2.72502 6.90298 2.72347C6.89315 2.71887 6.88336 2.71415 6.87364 2.70932C6.86759 2.70632 6.86158 2.70328 6.8556 2.7002C6.85204 2.69837 6.84846 2.69651 6.8449 2.69463C6.8434 2.69384 6.84192 2.69306 6.84044 2.69228C6.83481 2.6893 6.82918 2.68627 6.82358 2.6832C6.82158 2.6821 6.81957 2.68099 6.81756 2.67988C6.81412 2.67798 6.81071 2.67607 6.80731 2.67415C6.7965 2.66803 6.78577 2.66179 6.77514 2.65541C6.77282 2.65402 6.77053 2.65263 6.76824 2.65124C6.76383 2.64856 6.75941 2.64584 6.75502 2.6431C6.75227 2.64139 6.74953 2.63968 6.74681 2.63795C6.7441 2.63623 6.74137 2.6345 6.73866 2.63275C6.7355 2.63073 6.73239 2.62871 6.72929 2.62669C6.71932 2.62017 6.70942 2.61352 6.6996 2.60675C6.69615 2.60438 6.69272 2.60198 6.68929 2.59958C6.67177 2.58725 6.65454 2.57454 6.6376 2.56146C6.63433 2.55894 6.63106 2.55639 6.6278 2.55382L6.62517 2.55174C6.61142 2.54087 6.59788 2.52975 6.58454 2.51839C6.58123 2.51558 6.57796 2.51276 6.5747 2.50993C6.57132 2.50698 6.56794 2.50402 6.56458 2.50105C6.56226 2.49902 6.55995 2.49696 6.55765 2.49489C6.55578 2.4932 6.55392 2.49153 6.55208 2.48986C6.52533 2.46564 6.49951 2.44041 6.47467 2.41423C6.47242 2.41184 6.47014 2.40943 6.46787 2.407C6.45763 2.39607 6.44757 2.38498 6.43769 2.37373L6.43708 2.37302C6.41969 2.3532 6.40284 2.33289 6.38655 2.31211C6.38409 2.309 6.38165 2.30587 6.37923 2.30272C6.377 2.2998 6.37477 2.29689 6.37255 2.29396C6.3702 2.29088 6.36787 2.28779 6.36556 2.28469C6.36385 2.28238 6.36216 2.28009 6.36047 2.2778C6.35743 2.27371 6.35442 2.26956 6.35142 2.2654C6.34961 2.26286 6.34779 2.26033 6.34599 2.25779C6.34363 2.25449 6.3413 2.25118 6.33899 2.24787C6.33702 2.24502 6.33502 2.24214 6.33304 2.23924C6.33041 2.23545 6.32783 2.23166 6.32527 2.22785C6.32351 2.22519 6.32172 2.22252 6.31994 2.21984C6.30474 2.19694 6.2902 2.17358 6.27633 2.14978L6.27184 2.14199L2.64635 4.24987C2.65402 4.26327 2.66131 4.27651 2.66838 4.28985C2.67082 4.29444 2.67322 4.29903 2.67561 4.30364C2.67739 4.30711 2.67916 4.31056 2.68091 4.31401C2.68194 4.31605 2.68297 4.31809 2.68399 4.32014C2.69028 4.33269 2.69638 4.34535 2.70229 4.35809C2.70338 4.36045 2.70447 4.36279 2.70554 4.36514C2.70762 4.36969 2.70968 4.37425 2.71171 4.37882C2.71267 4.38096 2.71362 4.3831 2.71456 4.38525C2.71664 4.38999 2.7187 4.39475 2.72074 4.39953C2.72925 4.4195 2.73731 4.43964 2.7449 4.45995C2.75217 4.47939 2.75902 4.499 2.76545 4.51873C2.76624 4.52116 2.76703 4.52363 2.76782 4.52609C2.77738 4.55602 2.78596 4.58623 2.79355 4.6167C2.79442 4.62017 2.79527 4.62364 2.79611 4.62711C2.79896 4.63896 2.80167 4.65084 2.80423 4.66275C2.80485 4.66565 2.80546 4.66853 2.80606 4.67141C2.80721 4.67696 2.80834 4.68253 2.80943 4.6881C2.80994 4.69068 2.81043 4.69325 2.81092 4.69583C2.81484 4.7164 2.81831 4.73705 2.82132 4.75778C2.8224 4.76515 2.82341 4.77254 2.82437 4.77993C2.82565 4.78979 2.82683 4.79966 2.8279 4.80955C2.83016 4.83028 2.83197 4.85109 2.83333 4.87194C2.83359 4.87607 2.83384 4.88019 2.83408 4.88432C2.83426 4.88749 2.83443 4.89068 2.83458 4.89387C2.83525 4.90731 2.83573 4.92075 2.83602 4.93421C2.83633 4.94848 2.83643 4.96274 2.83631 4.97702C2.83628 4.98041 2.83624 4.98385 2.83619 4.98728C2.83615 4.98985 2.83611 4.99236 2.83605 4.99488C2.83577 5.00853 2.83529 5.02224 2.83462 5.03595C2.83438 5.04081 2.83411 5.04568 2.83382 5.05055C2.83363 5.05388 2.83342 5.0572 2.8332 5.06052C2.83302 5.06322 2.83283 5.06591 2.83263 5.06861C2.8315 5.08434 2.8301 5.10007 2.82844 5.1158C2.82841 5.11605 2.82839 5.11629 2.82836 5.11654L2.82844 5.1158C2.82502 5.1482 2.82048 5.18057 2.81481 5.21285C2.81426 5.21598 2.8137 5.21912 2.81313 5.22225C2.8124 5.22623 2.81166 5.2302 2.8109 5.23417C2.80863 5.24602 2.80621 5.25785 2.80364 5.26966C2.80149 5.27949 2.79924 5.28933 2.79688 5.29916L5.4342 6.83248ZM13.9194 5.55282C14.2424 5.36506 14.353 4.9492 14.1666 4.62398C13.9801 4.29876 13.5672 4.18733 13.2442 4.3751C12.9897 4.5231 12.867 4.81283 12.9178 5.08818C12.9182 5.09086 12.9188 5.09355 12.9193 5.09624L12.9178 5.08818C12.9187 5.09328 12.9197 5.09837 12.9208 5.10346L12.9193 5.09624C12.9206 5.10278 12.922 5.1093 12.9235 5.11581L12.9208 5.10346C12.9222 5.11032 12.9238 5.11718 12.9254 5.12402L12.9235 5.11581C12.9247 5.12118 12.926 5.12655 12.9273 5.1319L12.9254 5.12402C12.9268 5.12985 12.9283 5.13568 12.9299 5.1415L12.9273 5.1319C12.929 5.13826 12.9307 5.1446 12.9325 5.15093L12.9299 5.1415C12.9313 5.14691 12.9328 5.15232 12.9344 5.15772L12.9325 5.15093C12.9382 5.17093 12.9448 5.19075 12.9524 5.21033C12.9535 5.21309 12.9545 5.21584 12.9557 5.2186L12.9524 5.21033C12.9548 5.21653 12.9573 5.2227 12.9599 5.22884L12.9557 5.2186C12.9579 5.22423 12.9603 5.22984 12.9627 5.23544L12.9599 5.22884C12.9621 5.23401 12.9643 5.23915 12.9666 5.24428L12.9627 5.23544C12.9656 5.24209 12.9686 5.24871 12.9717 5.2553L12.9666 5.24428C12.9691 5.24979 12.9716 5.25527 12.9743 5.26073L12.9717 5.2553C12.9742 5.26072 12.9769 5.26612 12.9796 5.27151L12.9743 5.26073C12.9775 5.26737 12.9808 5.27398 12.9843 5.28055L12.9796 5.27151C12.9835 5.27924 12.9876 5.28693 12.9918 5.29458L12.9971 5.30394C13.0063 5.32007 13.0161 5.3357 13.0265 5.35083C13.028 5.35299 13.0295 5.35513 13.031 5.35726L13.0265 5.35083C13.0337 5.36139 13.0413 5.3717 13.049 5.38176C13.0504 5.38354 13.0517 5.38527 13.0531 5.387L13.049 5.38176C13.0522 5.38585 13.0554 5.38991 13.0586 5.39392L13.0531 5.387C13.0575 5.39255 13.0619 5.39802 13.0664 5.40341L13.0586 5.39392C13.0623 5.39846 13.066 5.40294 13.0698 5.40736L13.0664 5.40341C13.0698 5.40745 13.0732 5.41145 13.0767 5.4154L13.0698 5.40736C13.0788 5.41799 13.0882 5.4283 13.0978 5.43828C13.1047 5.44547 13.1118 5.4525 13.119 5.45934C13.1257 5.4657 13.1325 5.4719 13.1394 5.47795C13.1432 5.48118 13.1469 5.48438 13.1507 5.48752L13.1394 5.47795C13.1439 5.48184 13.1484 5.48566 13.1529 5.48942L13.1507 5.48752C13.3619 5.66383 13.6679 5.69903 13.9194 5.55282ZM1.88623 5.45429L1.89168 5.44897C1.89857 5.44213 1.90532 5.43513 1.91194 5.42798C1.91286 5.42698 1.91375 5.42601 1.91464 5.42504L1.91194 5.42798C1.91609 5.42349 1.92019 5.41893 1.92423 5.41432L1.91464 5.42504C1.91905 5.42021 1.9234 5.41532 1.92769 5.41034L1.92423 5.41432C1.92842 5.40953 1.93256 5.40467 1.93663 5.39974L1.92769 5.41034C1.93135 5.40609 1.93497 5.40178 1.93854 5.39742L1.93663 5.39974C1.94007 5.39557 1.94347 5.39136 1.94683 5.3871L1.93854 5.39742C1.94326 5.39167 1.94789 5.38583 1.95243 5.37989L1.94683 5.3871C1.95064 5.38226 1.95439 5.37735 1.95809 5.37239L1.95243 5.37989C1.95585 5.37543 1.95922 5.37092 1.96254 5.36635L1.95809 5.37239C1.96167 5.36758 1.96519 5.36271 1.96866 5.35778L1.96254 5.36635C1.9663 5.36117 1.97001 5.35592 1.97364 5.35061L1.96866 5.35778C1.98081 5.34051 1.99226 5.32255 2.00293 5.30394C2.00471 5.30083 2.00647 5.29771 2.0082 5.29458L2.00293 5.30394C2.01087 5.2901 2.01826 5.2761 2.02513 5.26195C2.0268 5.25848 2.02845 5.25501 2.03007 5.25153L2.02513 5.26195C2.02708 5.25793 2.02898 5.25391 2.03085 5.24987L2.03007 5.25153C2.03272 5.24583 2.03529 5.2401 2.03778 5.23434C2.03851 5.23266 2.03923 5.23096 2.03995 5.22926L2.03778 5.23434C2.04865 5.20916 2.05792 5.18352 2.06561 5.15756C2.06608 5.15595 2.06655 5.15435 2.06701 5.15275L2.06561 5.15756C2.06734 5.1517 2.069 5.14581 2.07057 5.13991L2.06701 5.15275C2.06881 5.14648 2.07053 5.14018 2.07215 5.13388L2.07057 5.13991C2.07207 5.13431 2.07349 5.12869 2.07485 5.12306L2.07215 5.13388C2.07539 5.12122 2.07827 5.10852 2.08077 5.09579C2.08115 5.09402 2.08148 5.09227 2.08181 5.09051L2.08077 5.09579C2.13525 4.81818 2.01269 4.52447 1.75578 4.3751C1.43284 4.18733 1.01988 4.29876 0.833429 4.62398C0.646975 4.9492 0.757625 5.36506 1.08057 5.55282C1.34713 5.7078 1.67501 5.65895 1.88623 5.45429ZM2.40681 11.0119L4.01532 10.0767C3.74182 9.7376 3.57791 9.30525 3.57791 8.83436C3.57791 8.1257 3.94913 7.50435 4.50642 7.15676L2.43946 5.955C2.43109 5.96377 2.42261 5.97241 2.41404 5.98093C2.39922 5.99567 2.38412 6.01003 2.36875 6.02401C2.30638 6.08076 2.23959 6.1313 2.16933 6.17539C2.14196 6.19256 2.11408 6.20875 2.08573 6.22395L2.08486 6.22442C2.07198 6.23131 2.059 6.238 2.04594 6.24448C2.02714 6.25381 2.00817 6.26269 1.98903 6.27115C1.9826 6.27399 1.97616 6.27678 1.96969 6.27953C1.95505 6.28574 1.94029 6.29171 1.92544 6.29743C1.9159 6.3011 1.90636 6.30466 1.89679 6.30811C1.87885 6.31458 1.86078 6.32068 1.84261 6.32642C1.83151 6.32992 1.82039 6.33328 1.80922 6.3365C1.78959 6.34217 1.76983 6.34742 1.74996 6.35224C1.73816 6.3551 1.72629 6.35782 1.7144 6.36038C1.70302 6.36284 1.69159 6.36515 1.68014 6.36732C1.67782 6.36776 1.67552 6.36819 1.67323 6.36862C1.66459 6.37021 1.65591 6.37173 1.64722 6.37317C1.63572 6.37507 1.62422 6.37683 1.61269 6.37844C1.61146 6.37862 1.61024 6.37879 1.60902 6.37895C1.60663 6.37928 1.60421 6.37961 1.60179 6.37993C1.58832 6.38171 1.57483 6.3833 1.56132 6.38469C1.54827 6.38603 1.53524 6.38719 1.52218 6.38817C1.51914 6.3884 1.5161 6.38862 1.51307 6.38883C1.49981 6.38973 1.48653 6.39045 1.47324 6.39099C1.47053 6.3911 1.46784 6.39119 1.46515 6.39129C1.4569 6.39157 1.44865 6.39178 1.44039 6.39192L1.41848 6.39212L1.41818 6.39212L1.41818 10.6079H1.41848C1.46233 10.6079 1.50606 10.61 1.54955 10.6141C1.55732 10.6149 1.56507 10.6157 1.57281 10.6165C1.59054 10.6185 1.60824 10.6208 1.62588 10.6235C1.6382 10.6253 1.65048 10.6273 1.66273 10.6295C1.67912 10.6324 1.69545 10.6356 1.71171 10.639C1.72477 10.6418 1.73776 10.6448 1.7507 10.6479L1.77413 10.6538C1.81795 10.6653 1.86123 10.6788 1.9038 10.6944C1.91367 10.6981 1.92346 10.7018 1.9332 10.7056C1.95354 10.7136 1.97352 10.7219 1.99332 10.7308C1.9967 10.7323 2.0001 10.7338 2.0035 10.7353C2.01166 10.7391 2.01975 10.7428 2.0278 10.7467C2.04308 10.754 2.05824 10.7616 2.07328 10.7695C2.11524 10.7914 2.15619 10.8155 2.19597 10.8417C2.20602 10.8484 2.21599 10.8551 2.22588 10.862C2.22991 10.8648 2.23395 10.8677 2.23797 10.8705C2.25046 10.8794 2.26281 10.8885 2.27503 10.8979C2.32097 10.9329 2.365 10.971 2.40681 11.0119ZM12.6043 11.0013L12.6118 10.994C12.6364 10.9708 12.6616 10.9486 12.6876 10.9274C12.7334 10.8899 12.7812 10.8556 12.8308 10.8245L12.8316 10.824C12.8424 10.8173 12.8533 10.8106 12.8643 10.8042C12.8668 10.8027 12.8694 10.8011 12.8721 10.7996L12.8643 10.8042C12.8855 10.7917 12.907 10.7797 12.9287 10.7684C12.9598 10.7522 12.9913 10.7372 13.0234 10.7234C13.0715 10.7027 13.1206 10.6847 13.1706 10.6695C13.174 10.6684 13.1774 10.6674 13.1809 10.6664C13.192 10.6631 13.2032 10.6599 13.2145 10.6569C13.2329 10.6519 13.2513 10.6473 13.2699 10.6431C13.2743 10.6421 13.2786 10.6411 13.283 10.6402C13.2955 10.6375 13.308 10.6349 13.3205 10.6326C13.3216 10.6323 13.3227 10.6321 13.3238 10.6319C13.3301 10.6308 13.3364 10.6296 13.3427 10.6285L13.3238 10.6319C13.3334 10.6301 13.343 10.6284 13.3527 10.6268C13.3654 10.6247 13.3782 10.6228 13.3909 10.6211C13.4045 10.6192 13.4181 10.6175 13.4318 10.616C13.4341 10.6158 13.4365 10.6155 13.4389 10.6153C13.4516 10.614 13.4644 10.6128 13.4772 10.6119C13.4804 10.6116 13.4837 10.6114 13.4869 10.6112C13.4996 10.6103 13.5123 10.6096 13.525 10.6091C13.5283 10.6089 13.5316 10.6088 13.5349 10.6087C13.5364 10.6087 13.5379 10.6086 13.5393 10.6086C13.5535 10.6081 13.5676 10.6079 13.5818 10.6079L13.5788 10.608L13.5815 10.6079L13.5818 10.6079L13.5818 6.39212H13.5815C13.5554 6.39209 13.5293 6.39133 13.5033 6.38985C13.4925 6.38924 13.4817 6.3885 13.4709 6.38763C13.4563 6.38647 13.4417 6.38508 13.4272 6.38346C13.412 6.38177 13.3969 6.37984 13.3818 6.37766C13.3716 6.37619 13.3614 6.3746 13.3512 6.3729C13.3389 6.37085 13.3266 6.36864 13.3144 6.36627C13.3027 6.364 13.291 6.36158 13.2793 6.35901C13.2459 6.35166 13.2128 6.34309 13.18 6.33334C13.1419 6.322 13.1044 6.30913 13.0675 6.2947C13.0542 6.2895 13.041 6.28411 13.0279 6.27851C13.0237 6.27673 13.0196 6.27492 13.0154 6.27309C12.9979 6.26543 12.9805 6.25741 12.9633 6.24904C12.9544 6.24468 12.9455 6.24021 12.9366 6.23565C12.9089 6.22147 12.8817 6.20635 12.855 6.19031C12.8469 6.18543 12.8388 6.18047 12.8307 6.17543L12.8105 6.16247C12.8037 6.15806 12.797 6.1536 12.7903 6.14907C12.712 6.09611 12.6385 6.03497 12.5711 5.96596L10.0122 7.45364C10.827 7.55669 11.4592 8.25038 11.4728 9.09551L11.473 9.12334C11.473 9.50728 11.3453 9.8612 11.1304 10.1444L12.6043 11.0013ZM7.41265 10.0583H9.80188C10.3146 10.0583 10.7303 9.6397 10.7303 9.12334C10.7303 8.60698 10.3146 8.18839 9.80186 8.18839L9.29035 8.18837L9.26288 7.84439C9.19271 6.96573 8.4615 6.28304 7.58036 6.28304C6.8765 6.28304 6.25407 6.72085 6.00487 7.3711L5.91314 7.61043L5.53603 7.61043C4.86479 7.61043 4.32065 8.1584 4.32065 8.83436C4.32065 9.51031 4.86479 10.0583 5.53603 10.0583H7.35132C7.35957 10.0583 7.36763 10.0582 7.37552 10.058L7.3835 10.0579L7.40206 10.0582L7.41265 10.0583ZM6.27184 14.858L6.27588 14.851C6.28176 14.8409 6.28777 14.8309 6.29389 14.8209C6.29579 14.8178 6.29768 14.8148 6.29959 14.8117C6.30129 14.809 6.30301 14.8063 6.30474 14.8035C6.30685 14.8002 6.30897 14.7969 6.3111 14.7936C6.32934 14.7654 6.34854 14.7379 6.36867 14.7112C6.37855 14.698 6.38864 14.685 6.39895 14.6723C6.4156 14.6516 6.4328 14.6315 6.45054 14.6118C6.45217 14.61 6.4538 14.6082 6.45543 14.6064C6.45871 14.6029 6.46202 14.5993 6.46534 14.5957C6.46711 14.5938 6.46886 14.5919 6.47061 14.5901C6.47401 14.5865 6.47744 14.5828 6.48089 14.5793C6.51126 14.5476 6.54306 14.5175 6.57618 14.4888C6.59106 14.4759 6.60623 14.4633 6.62166 14.451C6.62369 14.4494 6.62576 14.4478 6.62783 14.4462C6.63151 14.4433 6.63518 14.4404 6.63887 14.4376C6.64217 14.435 6.64549 14.4325 6.64882 14.43C6.651 14.4283 6.6532 14.4267 6.6554 14.425C6.66516 14.4177 6.675 14.4105 6.68493 14.4035C6.68764 14.4016 6.69034 14.3997 6.69305 14.3978C6.70258 14.3911 6.71219 14.3846 6.72189 14.3782C6.72611 14.3754 6.73035 14.3726 6.7346 14.3699C6.74661 14.3621 6.75874 14.3545 6.77098 14.3471C6.7737 14.3454 6.77643 14.3438 6.77917 14.3422C6.78928 14.3362 6.79945 14.3303 6.8097 14.3245C6.81247 14.3229 6.81528 14.3214 6.81809 14.3198C6.8216 14.3179 6.82508 14.316 6.82858 14.3141C6.83956 14.3081 6.85067 14.3023 6.86187 14.2966C6.86362 14.2957 6.86539 14.2948 6.86715 14.2939C6.87143 14.2918 6.87572 14.2896 6.88001 14.2875C6.88311 14.286 6.88622 14.2845 6.88934 14.283C6.89973 14.278 6.9102 14.2731 6.92072 14.2684C6.93115 14.2637 6.94163 14.2591 6.95218 14.2546C6.96435 14.2495 6.97663 14.2445 6.98899 14.2397C7.00281 14.2343 7.01675 14.2292 7.03078 14.2242C7.03271 14.2235 7.03463 14.2228 7.03655 14.2222C7.04844 14.218 7.06042 14.214 7.07248 14.2102C7.07526 14.2093 7.07801 14.2085 7.08077 14.2076C7.08464 14.2064 7.08856 14.2052 7.0925 14.204C7.09606 14.2029 7.09958 14.2019 7.10311 14.2009C7.10734 14.1996 7.11161 14.1984 7.11588 14.1972C7.11784 14.1966 7.1198 14.1961 7.12175 14.1955C7.12544 14.1945 7.12915 14.1935 7.13288 14.1925L7.13826 14.1911L7.13826 10.8063L5.53603 10.8062C5.20917 10.8062 4.90101 10.7256 4.63012 10.583L2.78523 11.6556C2.78894 11.6691 2.79244 11.6826 2.79573 11.6961C2.79864 11.708 2.8014 11.72 2.80399 11.732C2.80642 11.7432 2.8087 11.7544 2.81085 11.7656C2.81167 11.7699 2.81246 11.7741 2.81324 11.7784C2.81401 11.7826 2.81477 11.7869 2.81551 11.7912C2.82082 11.8219 2.8251 11.8527 2.82837 11.8835C2.82896 11.8891 2.82953 11.8948 2.83006 11.9004C2.83103 11.9107 2.83189 11.921 2.83263 11.9313C2.83288 11.9348 2.83313 11.9384 2.83335 11.9419C2.83366 11.9466 2.83395 11.9514 2.83421 11.9561C2.83439 11.9594 2.83456 11.9627 2.83471 11.966C2.83536 11.9794 2.83581 11.9929 2.83608 12.0063C2.83616 12.0102 2.83622 12.0142 2.83626 12.0181C2.8363 12.0211 2.83632 12.0241 2.83634 12.0271L2.83626 12.0181C2.83648 12.0364 2.83634 12.0547 2.83585 12.073C2.83554 12.0845 2.8351 12.096 2.83451 12.1075C2.83434 12.1109 2.83416 12.1143 2.83396 12.1178C2.83376 12.1212 2.83355 12.1246 2.83333 12.1281C2.8315 12.1561 2.82886 12.184 2.82541 12.2119C2.82442 12.2199 2.82335 12.2279 2.82222 12.2359C2.82158 12.2405 2.82091 12.2451 2.82022 12.2497L2.82222 12.2359C2.81895 12.2591 2.81512 12.2822 2.81073 12.3052C2.81023 12.3078 2.80972 12.3104 2.8092 12.3131C2.805 12.3344 2.80032 12.3557 2.79516 12.3768C2.79155 12.3916 2.7877 12.4063 2.78362 12.421C2.78284 12.4238 2.78206 12.4266 2.78127 12.4294C2.7807 12.4314 2.78013 12.4334 2.77955 12.4354L2.78127 12.4294C2.77679 12.4451 2.77204 12.4608 2.76703 12.4764C2.76633 12.4785 2.76563 12.4807 2.76492 12.4829C2.76337 12.4876 2.76179 12.4924 2.7602 12.4971C2.75952 12.4991 2.75884 12.5011 2.75815 12.5031C2.75369 12.5161 2.74905 12.529 2.74422 12.5419C2.73566 12.5647 2.72652 12.5873 2.7168 12.6096C2.70974 12.6259 2.70238 12.642 2.69471 12.658C2.69286 12.6618 2.69097 12.6657 2.68906 12.6696C2.68754 12.6727 2.68602 12.6758 2.68449 12.6789C2.68254 12.6828 2.68055 12.6867 2.67854 12.6906C2.67729 12.6931 2.67603 12.6955 2.67476 12.698C2.67259 12.7022 2.67039 12.7064 2.66818 12.7105C2.66118 12.7237 2.65395 12.7368 2.64651 12.7499L2.64635 12.7501L6.27184 14.858ZM8.72816 14.858L12.3536 12.7501C12.3477 12.7398 12.3419 12.7294 12.3363 12.7189C12.3348 12.7161 12.3333 12.7133 12.3318 12.7105C12.3296 12.7064 12.3274 12.7022 12.3252 12.698C12.324 12.6955 12.3227 12.6931 12.3215 12.6907C12.3192 12.6862 12.3169 12.6818 12.3147 12.6773C12.3136 12.6751 12.3125 12.6728 12.3114 12.6705C12.3092 12.666 12.307 12.6616 12.3049 12.6571C12.3032 12.6537 12.3016 12.6502 12.3 12.6468C12.2993 12.6454 12.2987 12.644 12.298 12.6426L12.3 12.6468C12.2969 12.6401 12.2938 12.6335 12.2908 12.6268C12.2858 12.6158 12.281 12.6047 12.2763 12.5935L12.2758 12.5922C12.2635 12.5629 12.2522 12.5332 12.2418 12.5031C12.2412 12.5011 12.2405 12.4991 12.2398 12.4971C12.2382 12.4924 12.2366 12.4876 12.2351 12.4829C12.2344 12.4807 12.2337 12.4785 12.233 12.4764C12.2315 12.4719 12.2301 12.4675 12.2287 12.463C12.2253 12.4519 12.2219 12.4406 12.2187 12.4294C12.2179 12.4266 12.2172 12.4238 12.2164 12.421C12.2123 12.4063 12.2085 12.3916 12.2048 12.3768C12.2016 12.3633 12.1985 12.3499 12.1956 12.3363C12.1949 12.3332 12.1942 12.33 12.1936 12.3268C12.191 12.3143 12.1886 12.3017 12.1863 12.2892C12.1845 12.2791 12.1828 12.2691 12.1812 12.259L12.1807 12.2555C12.1695 12.1836 12.1638 12.1108 12.1636 12.0376C12.1636 12.0341 12.1636 12.0307 12.1637 12.0272C12.1637 12.0241 12.1637 12.0211 12.1637 12.0181L12.1637 12.0272C12.1637 12.0202 12.1638 12.0133 12.1639 12.0063C12.164 12.0007 12.1642 11.9952 12.1643 11.9896C12.1645 11.9861 12.1646 11.9825 12.1647 11.979C12.1649 11.9746 12.1651 11.9703 12.1653 11.9659C12.1654 11.9631 12.1656 11.9603 12.1657 11.9575C12.1664 11.9452 12.1672 11.9329 12.1682 11.9206C12.1685 11.9161 12.1689 11.9116 12.1693 11.9071C12.1721 11.8757 12.176 11.8442 12.1809 11.8129C12.1813 11.8105 12.1817 11.8082 12.182 11.8059C12.1843 11.7918 12.1868 11.7777 12.1895 11.7636C12.19 11.7611 12.1905 11.7586 12.191 11.756C12.1921 11.7506 12.1932 11.7451 12.1944 11.7397C12.1949 11.7371 12.1954 11.7346 12.196 11.732C12.1969 11.728 12.1978 11.724 12.1987 11.72C12.1997 11.7155 12.2007 11.7109 12.2018 11.7064C12.2049 11.6931 12.2083 11.6798 12.2118 11.6665C12.2133 11.6609 12.2148 11.6553 12.2164 11.6497C12.2172 11.6468 12.2181 11.6438 12.2189 11.6409L10.5108 10.6478C10.2956 10.7494 10.0553 10.8062 9.80188 10.8062L7.88097 10.8063L7.88097 14.1963C7.88797 14.1983 7.89495 14.2003 7.9019 14.2023C7.90399 14.203 7.90609 14.2036 7.90819 14.2042C7.91317 14.2057 7.91814 14.2073 7.92309 14.2088C7.92559 14.2096 7.92811 14.2104 7.93062 14.2112C7.93516 14.2127 7.93967 14.2141 7.94416 14.2156C7.94677 14.2165 7.94939 14.2174 7.952 14.2182C7.96429 14.2224 7.97651 14.2267 7.98864 14.2312C7.9907 14.232 7.99279 14.2328 7.99487 14.2335C7.99893 14.2351 8.00296 14.2366 8.00698 14.2381C8.0178 14.2423 8.02855 14.2466 8.03923 14.251C8.05531 14.2577 8.07121 14.2646 8.08697 14.2719C8.09555 14.2758 8.10407 14.2798 8.11254 14.2839C8.11542 14.2853 8.11831 14.2867 8.12119 14.2881C8.13884 14.2968 8.15628 14.3058 8.1735 14.3152C8.17794 14.3176 8.18235 14.3201 8.18675 14.3225C8.18874 14.3236 8.19074 14.3248 8.19275 14.3259C8.19645 14.328 8.20012 14.3301 8.20378 14.3322C8.20758 14.3344 8.21135 14.3366 8.21511 14.3388C8.21774 14.3403 8.2204 14.3419 8.22305 14.3435C8.22756 14.3462 8.23203 14.3489 8.23648 14.3516C8.23786 14.3525 8.23923 14.3533 8.24059 14.3542C8.24587 14.3574 8.25114 14.3607 8.25638 14.3641C8.25824 14.3653 8.26007 14.3664 8.26191 14.3676C8.26524 14.3698 8.26858 14.3719 8.27191 14.3741C8.27523 14.3763 8.27856 14.3785 8.28187 14.3807C8.28494 14.3827 8.28797 14.3848 8.291 14.3868C8.29407 14.3889 8.29716 14.391 8.30023 14.3931C8.30447 14.3961 8.30869 14.399 8.3129 14.402C8.3247 14.4103 8.33637 14.4188 8.34791 14.4275C8.35653 14.434 8.36509 14.4406 8.37358 14.4473C8.37644 14.4495 8.37929 14.4518 8.38213 14.4541C8.40307 14.4708 8.42354 14.4882 8.44349 14.5061C8.44585 14.5083 8.44824 14.5104 8.45062 14.5126C8.4551 14.5167 8.45951 14.5207 8.4639 14.5248C8.46538 14.5262 8.46689 14.5276 8.46838 14.529C8.4703 14.5308 8.47222 14.5327 8.47412 14.5345C8.47794 14.5381 8.48174 14.5418 8.48552 14.5454C8.48747 14.5473 8.48938 14.5492 8.4913 14.5511C8.49362 14.5534 8.49597 14.5557 8.4983 14.558L8.50264 14.5624C8.50388 14.5636 8.50512 14.5649 8.50635 14.5661C8.51472 14.5746 8.523 14.5833 8.53117 14.592L8.53295 14.5939C8.53962 14.601 8.54621 14.6082 8.55274 14.6155C8.55817 14.6215 8.56355 14.6276 8.56888 14.6338C8.57665 14.6428 8.58431 14.6518 8.59185 14.661C8.59389 14.6635 8.59592 14.666 8.59794 14.6684C8.6009 14.6721 8.60383 14.6757 8.60675 14.6794C8.61394 14.6884 8.621 14.6975 8.62796 14.7067C8.63011 14.7095 8.63227 14.7124 8.63441 14.7153C8.63625 14.7177 8.63809 14.7202 8.63992 14.7227C8.64287 14.7267 8.64579 14.7307 8.64869 14.7347C8.65025 14.7369 8.65181 14.7391 8.65336 14.7413C8.65634 14.7455 8.6593 14.7497 8.66224 14.7539C8.66369 14.756 8.66511 14.758 8.66653 14.7601C8.66912 14.7639 8.67171 14.7677 8.67428 14.7715C8.67617 14.7743 8.67806 14.7771 8.67994 14.78C8.69411 14.8013 8.7077 14.8231 8.72072 14.8452L8.72816 14.858ZM1.75578 12.6249C2.01084 12.4766 2.13348 12.1861 2.08192 11.9102C2.08158 11.9082 2.08119 11.9062 2.0808 11.9042L2.08192 11.9102C2.07984 11.8991 2.07748 11.888 2.07483 11.8769C2.06337 11.8291 2.04661 11.7821 2.02452 11.7368C2.02349 11.7347 2.02242 11.7325 2.02135 11.7304L2.02452 11.7368C2.02217 11.732 2.01976 11.7272 2.01728 11.7224L2.02135 11.7304C2.0183 11.7243 2.01516 11.7183 2.01192 11.7122L2.00293 11.6961C1.99373 11.68 1.98395 11.6645 1.97364 11.6494C1.9721 11.6471 1.97055 11.6449 1.96899 11.6427L1.97364 11.6494C1.97029 11.6445 1.96688 11.6397 1.96342 11.6349L1.96899 11.6427C1.96537 11.6375 1.96169 11.6324 1.95795 11.6274L1.96342 11.6349C1.95941 11.6293 1.95533 11.6239 1.95117 11.6185L1.95795 11.6274C1.95472 11.6231 1.95144 11.6188 1.94812 11.6145L1.95117 11.6185C1.94728 11.6134 1.94332 11.6084 1.9393 11.6035L1.94812 11.6145C1.94439 11.6098 1.9406 11.6051 1.93676 11.6004L1.9393 11.6035C1.93222 11.5948 1.92496 11.5864 1.9175 11.5781C1.7085 11.3465 1.36068 11.2843 1.08057 11.4472C0.757625 11.6349 0.646975 12.0508 0.833429 12.376C1.01988 12.7012 1.43284 12.8127 1.75578 12.6249ZM14.1666 12.376C14.353 12.0508 14.2424 11.6349 13.9194 11.4472C13.6635 11.2984 13.3509 11.3375 13.1395 11.5221C13.1351 11.5259 13.1307 11.5298 13.1265 11.5337L13.1138 11.5457C13.1068 11.5525 13.0999 11.5594 13.0932 11.5665C13.0915 11.5683 13.0899 11.57 13.0883 11.5717L13.0932 11.5665C13.0896 11.5703 13.0861 11.5741 13.0826 11.578L13.0883 11.5717C13.0844 11.5759 13.0806 11.5802 13.0768 11.5845L13.0826 11.578C13.0785 11.5825 13.0746 11.587 13.0706 11.5916L13.0768 11.5845C13.0728 11.5891 13.0688 11.5937 13.0649 11.5984L13.0706 11.5916C13.0667 11.5962 13.0628 11.6009 13.059 11.6056L13.0649 11.5984C13.0528 11.6129 13.0413 11.628 13.0303 11.6437C13.029 11.6455 13.0278 11.6473 13.0265 11.6492L13.0303 11.6437C13.0185 11.6605 13.0074 11.678 12.9971 11.6961C12.994 11.7015 12.991 11.7069 12.988 11.7124C12.9869 11.7144 12.9858 11.7165 12.9847 11.7186L12.988 11.7124C12.9848 11.7184 12.9816 11.7245 12.9785 11.7306L12.9847 11.7186C12.9817 11.7244 12.9787 11.7302 12.9759 11.736L12.9785 11.7306C12.976 11.7358 12.9735 11.7409 12.9711 11.746L12.9759 11.736C12.9729 11.7421 12.97 11.7482 12.9672 11.7544L12.9711 11.746C12.9652 11.7586 12.9597 11.7713 12.9546 11.7841C12.9538 11.786 12.9531 11.7878 12.9524 11.7896L12.9546 11.7841C12.9447 11.8089 12.9364 11.8341 12.9296 11.8595C12.9287 11.8627 12.9279 11.8658 12.9271 11.8689L12.9296 11.8595C12.928 11.8653 12.9266 11.8711 12.9252 11.8769L12.9271 11.8689C12.9257 11.8745 12.9244 11.8801 12.9231 11.8857L12.9252 11.8769C12.9236 11.8834 12.9221 11.89 12.9208 11.8966L12.9231 11.8857C12.9218 11.8918 12.9205 11.8978 12.9193 11.9038L12.9208 11.8966C12.9197 11.9018 12.9186 11.9071 12.9176 11.9124L12.9193 11.9038C12.8646 12.1815 12.9872 12.4755 13.2442 12.6249C13.5672 12.8127 13.9801 12.7012 14.1666 12.376ZM7.5 16.252C7.87291 16.252 8.17521 15.9476 8.17521 15.5721C8.17521 15.2846 7.99804 15.0388 7.74765 14.9393C7.74582 14.9385 7.74397 14.9378 7.74212 14.9371L7.74765 14.9393C7.74303 14.9375 7.73839 14.9357 7.73372 14.934L7.74212 14.9371C7.73665 14.935 7.73116 14.9329 7.72563 14.931L7.73372 14.934C7.7285 14.932 7.72326 14.9301 7.71798 14.9283L7.72563 14.931C7.72009 14.929 7.71453 14.9271 7.70893 14.9253L7.71798 14.9283C7.71214 14.9263 7.70627 14.9244 7.70037 14.9226L7.70893 14.9253C7.70315 14.9234 7.69733 14.9216 7.69148 14.9198L7.70037 14.9226C7.69525 14.921 7.69011 14.9194 7.68494 14.9179L7.69148 14.9198C7.68588 14.9182 7.68025 14.9166 7.67459 14.9151L7.68494 14.9179C7.67884 14.9162 7.67271 14.9145 7.66654 14.913L7.67459 14.9151C7.66088 14.9114 7.64701 14.9081 7.633 14.9053C7.63003 14.9047 7.62707 14.9041 7.62412 14.9036L7.633 14.9053C7.62766 14.9042 7.62231 14.9032 7.61694 14.9023L7.62412 14.9036C7.61805 14.9024 7.61195 14.9014 7.60583 14.9004L7.61694 14.9023C7.61047 14.9012 7.60397 14.9001 7.59745 14.8992L7.60583 14.9004C7.60154 14.8997 7.59724 14.8991 7.59292 14.8985L7.59745 14.8992C7.59075 14.8982 7.58403 14.8973 7.57727 14.8965L7.59292 14.8985C7.58699 14.8977 7.58103 14.8969 7.57505 14.8963L7.57727 14.8965C7.57161 14.8959 7.56592 14.8953 7.56021 14.8948L7.57505 14.8963C7.56861 14.8956 7.56215 14.8949 7.55566 14.8944L7.56021 14.8948C7.55386 14.8942 7.54749 14.8938 7.54109 14.8934L7.55566 14.8944C7.54951 14.8939 7.54333 14.8935 7.53712 14.8931L7.54109 14.8934C7.53507 14.893 7.52904 14.8927 7.52298 14.8925L7.53712 14.8931C7.52483 14.8925 7.51246 14.8921 7.5 14.8921L7.48164 14.8924C7.4801 14.8924 7.47857 14.8925 7.47703 14.8925L7.48162 14.8924C7.47536 14.8925 7.46912 14.8928 7.46289 14.8931L7.47703 14.8925C7.47096 14.8927 7.46492 14.893 7.45889 14.8934L7.46289 14.8931C7.45669 14.8935 7.4505 14.8939 7.44434 14.8944L7.45889 14.8934C7.4525 14.8937 7.44613 14.8942 7.43979 14.8948L7.44434 14.8944C7.43785 14.8949 7.43139 14.8956 7.42494 14.8963L7.43979 14.8948C7.43408 14.8953 7.4284 14.8959 7.42273 14.8965L7.42494 14.8963C7.41888 14.897 7.41283 14.8977 7.40681 14.8986L7.42273 14.8965C7.41615 14.8973 7.4096 14.8981 7.40308 14.8991L7.40681 14.8986C7.40238 14.8992 7.39797 14.8998 7.39357 14.9005L7.40308 14.8991C7.39636 14.9 7.38966 14.9011 7.383 14.9023L7.39357 14.9005C7.38821 14.9014 7.38287 14.9023 7.37755 14.9033L7.383 14.9023C7.3775 14.9033 7.37203 14.9043 7.36657 14.9054L7.37755 14.9033C7.36252 14.9061 7.34764 14.9093 7.33293 14.9131C7.33077 14.9136 7.3286 14.9142 7.32644 14.9148L7.33293 14.9131C7.32689 14.9146 7.32088 14.9163 7.31489 14.918L7.32644 14.9148C7.32086 14.9163 7.31531 14.9178 7.30979 14.9195L7.31489 14.918C7.3095 14.9195 7.30414 14.9211 7.2988 14.9228L7.30979 14.9195C7.30364 14.9213 7.29753 14.9232 7.29147 14.9252L7.2988 14.9228C7.29319 14.9246 7.2876 14.9264 7.28204 14.9283L7.29147 14.9252C7.28573 14.927 7.28002 14.929 7.27435 14.931L7.28204 14.9283C7.27676 14.9301 7.27151 14.932 7.26629 14.9339L7.27435 14.931C7.26875 14.933 7.26319 14.9351 7.25766 14.9372L7.26629 14.9339C7.2618 14.9356 7.25733 14.9373 7.25288 14.939L7.25766 14.9372C7.00447 15.0353 6.82479 15.2826 6.82479 15.5721C6.82479 15.9476 7.12709 16.252 7.5 16.252Z" fill="#0149FF"/>
</g>
</g>
<defs>
<filter id="filter0_d_11080_68109" x="-54" y="-48" width="388" height="243" filterUnits="userSpaceOnUse" color-interpolation-filters="sRGB">
<feFlood flood-opacity="0" result="BackgroundImageFix"/>
<feColorMatrix in="SourceAlpha" type="matrix" values="0 0 0 0 0 0 0 0 0 0 0 0 0 0 0 0 0 0 127 0" result="hardAlpha"/>
<feOffset/>
<feGaussianBlur stdDeviation="10"/>
<feColorMatrix type="matrix" values="0 0 0 0 0 0 0 0 0 0 0 0 0 0 0 0 0 0 0.04 0"/>
<feBlend mode="normal" in2="BackgroundImageFix" result="effect1_dropShadow_11080_68109"/>
<feBlend mode="normal" in="SourceGraphic" in2="effect1_dropShadow_11080_68109" result="shape"/>
</filter>
<clipPath id="clip0_11080_68109">
<rect width="1440" height="1011" fill="white" transform="translate(-354 -254)"/>
</clipPath>
</defs>
</svg>
