<svg width="1024" height="900" viewBox="0 0 1024 900" fill="none" xmlns="http://www.w3.org/2000/svg">
<g clip-path="url(#clip0)">
<rect width="1024" height="900" fill="white"/>
<rect width="1440" height="900" fill="#2683FF"/>
<g clip-path="url(#clip1)">
<path d="M-238 0H1202V900H-238" fill="white"/>
<path d="M1202 0H-238V900H1202V0Z" fill="#2683FF"/>
<path d="M494.7 900L830.2 321H863.8L1276.5 325.6L1276.2 900L604.8 899.1L494.7 900Z" fill="#007AFF"/>
<path d="M87.3 580C87 579.6 86.5 579.3 86.1 579.1C85.6 578.9 85.2 578.8 84.7 578.8C84.1 578.8 83.5 578.9 83 579.2C82.5 579.5 82.1 579.9 81.8 580.4C81.5 580.9 81.4 581.5 81.4 582.1C81.4 582.7 81.5 583.3 81.8 583.8C82.1 584.3 82.5 584.7 83 585C83.5 585.3 84.1 585.4 84.7 585.4C85.2 585.4 85.6 585.3 86.1 585.1C86.6 584.9 87 584.6 87.4 584.2L88.5 585.4C88 585.9 87.4 586.3 86.7 586.6C86 586.9 85.3 587 84.6 587C83.7 587 82.8 586.8 82 586.3C81.2 585.8 80.6 585.2 80.2 584.5C79.8 583.7 79.5 582.9 79.5 581.9C79.5 580.9 79.7 580.1 80.2 579.4C80.7 578.6 81.3 578 82.1 577.6C82.9 577.2 83.8 576.9 84.7 576.9C85.4 576.9 86.1 577 86.8 577.3C87.5 577.6 88 578 88.5 578.5L87.3 580ZM91.7 581C92 580.5 92.3 580.1 92.7 579.9C93.1 579.6 93.6 579.5 94.2 579.5V581.3C93.4 581.3 92.8 581.4 92.3 581.8C91.8 582.2 91.6 582.7 91.6 583.4V587H89.8V579.5H91.6V581H91.7ZM98.6 579.5C99.8 579.5 100.7 579.8 101.3 580.5C101.9 581.2 102.2 582.1 102.2 583.4C102.2 583.6 102.2 583.8 102.2 583.9H96.7C96.8 584.4 97.1 584.9 97.4 585.2C97.8 585.5 98.2 585.6 98.8 585.6C99.2 585.6 99.5 585.5 99.9 585.4C100.3 585.3 100.6 585 100.8 584.8L101.8 585.8C101.4 586.2 101 586.5 100.4 586.8C99.9 587 99.3 587.1 98.6 587.1C97.8 587.1 97.2 586.9 96.6 586.6C96 586.3 95.6 585.8 95.3 585.3C95 584.7 94.8 584.1 94.8 583.3C94.8 582.5 95 581.9 95.3 581.3C95.6 580.7 96.1 580.3 96.7 580C97.2 579.6 97.9 579.5 98.6 579.5ZM100.6 582.7C100.6 582.1 100.4 581.7 100.1 581.4C99.8 581.1 99.3 580.9 98.7 580.9C98.2 580.9 97.7 581.1 97.4 581.4C97 581.7 96.8 582.2 96.7 582.7H100.6ZM108.2 587V586.1C107.9 586.4 107.6 586.7 107.2 586.8C106.8 587 106.3 587.1 105.8 587.1C105.3 587.1 104.8 587 104.4 586.8C104 586.6 103.7 586.3 103.5 586C103.3 585.6 103.2 585.2 103.2 584.8C103.2 584.1 103.4 583.6 103.9 583.2C104.4 582.8 105.1 582.6 106 582.6H108.2V582.4C108.2 582 108.1 581.6 107.8 581.4C107.5 581.2 107.1 581 106.5 581C105.8 581 105 581.2 104.3 581.7L103.6 580.4C104.2 580.1 104.7 579.8 105.2 579.7C105.7 579.6 106.3 579.5 106.9 579.5C107.9 579.5 108.6 579.7 109.2 580.2C109.7 580.7 110 581.3 110 582.2V587.1H108.2V587ZM106.2 585.7C106.7 585.7 107.2 585.6 107.5 585.3C107.9 585 108.1 584.7 108.1 584.4V583.7H106.2C105.7 583.7 105.4 583.8 105.1 583.9C104.9 584 104.8 584.3 104.8 584.6C104.8 584.9 104.9 585.2 105.2 585.4C105.5 585.6 105.8 585.7 106.2 585.7ZM116.4 586.5C115.8 586.9 115.2 587 114.5 587C113.9 587 113.3 586.8 112.9 586.4C112.5 586 112.3 585.5 112.3 584.7V581H111.3V579.7H112.4V577.6H114.2V579.7H116.3V581H114.2V584.4C114.2 584.7 114.3 585 114.4 585.1C114.5 585.2 114.7 585.3 115 585.3C115.3 585.3 115.6 585.2 116.1 585L116.4 586.5ZM120.9 579.5C122.1 579.5 123 579.8 123.6 580.5C124.2 581.2 124.5 582.1 124.5 583.4C124.5 583.6 124.5 583.8 124.5 583.9H119C119.1 584.4 119.4 584.9 119.7 585.2C120.1 585.5 120.6 585.6 121.1 585.6C121.5 585.6 121.8 585.5 122.2 585.4C122.6 585.3 122.9 585 123.1 584.8L124.1 585.8C123.7 586.2 123.3 586.5 122.7 586.8C122.2 587 121.6 587.1 120.9 587.1C120.1 587.1 119.5 586.9 118.9 586.6C118.3 586.3 117.9 585.8 117.6 585.3C117.3 584.7 117.1 584.1 117.1 583.3C117.1 582.5 117.3 581.9 117.6 581.3C117.9 580.7 118.4 580.3 119 580C119.5 579.6 120.2 579.5 120.9 579.5ZM122.8 582.7C122.8 582.1 122.6 581.7 122.3 581.4C122 581.1 121.5 580.9 120.9 580.9C120.4 580.9 119.9 581.1 119.6 581.4C119.2 581.7 119 582.2 118.9 582.7H122.8ZM133.9 587V586.1C133.6 586.4 133.3 586.7 132.9 586.8C132.5 587 132 587.1 131.5 587.1C131 587.1 130.5 587 130.1 586.8C129.7 586.6 129.4 586.3 129.2 586C129 585.6 128.9 585.2 128.9 584.8C128.9 584.1 129.1 583.6 129.6 583.2C130.1 582.8 130.8 582.6 131.7 582.6H133.9V582.4C133.9 582 133.8 581.6 133.5 581.4C133.2 581.2 132.8 581 132.2 581C131.5 581 130.7 581.2 130 581.7L129.3 580.4C129.9 580.1 130.4 579.8 130.9 579.7C131.4 579.6 131.9 579.5 132.6 579.5C133.6 579.5 134.3 579.7 134.9 580.2C135.4 580.7 135.7 581.3 135.7 582.2V587.1H133.9V587ZM131.9 585.7C132.4 585.7 132.9 585.6 133.2 585.3C133.6 585 133.8 584.7 133.8 584.4V583.7H132C131.5 583.7 131.2 583.8 130.9 583.9C130.7 584 130.6 584.3 130.6 584.6C130.6 584.9 130.7 585.2 131 585.4C131.2 585.6 131.5 585.7 131.9 585.7ZM142.9 581.9C142.4 581.3 141.7 581.1 140.9 581.1C140.3 581.1 139.8 581.3 139.4 581.7C139 582.1 138.8 582.6 138.8 583.3C138.8 584 139 584.5 139.4 584.9C139.8 585.3 140.3 585.5 140.9 585.5C141.8 585.5 142.5 585.2 142.9 584.6L144 585.5C143.7 586 143.2 586.4 142.7 586.6C142.1 586.9 141.5 587 140.8 587C140.1 587 139.4 586.8 138.8 586.5C138.2 586.2 137.8 585.7 137.5 585.2C137.2 584.6 137 584 137 583.2C137 582.4 137.2 581.8 137.5 581.2C137.8 580.6 138.3 580.2 138.8 579.9C139.4 579.6 140 579.4 140.8 579.4C141.5 579.4 142.1 579.5 142.6 579.8C143.1 580 143.6 580.4 143.9 580.8L142.9 581.9ZM150.6 581.9C150.1 581.3 149.4 581.1 148.6 581.1C148 581.1 147.5 581.3 147.1 581.7C146.7 582.1 146.5 582.6 146.5 583.3C146.5 584 146.7 584.5 147.1 584.9C147.5 585.3 148 585.5 148.6 585.5C149.5 585.5 150.2 585.2 150.6 584.6L151.7 585.5C151.4 586 150.9 586.4 150.4 586.6C149.8 586.9 149.2 587 148.5 587C147.8 587 147.1 586.8 146.5 586.5C145.9 586.2 145.5 585.7 145.2 585.2C144.9 584.6 144.7 584 144.7 583.2C144.7 582.4 144.9 581.8 145.2 581.2C145.5 580.6 146 580.2 146.5 579.9C147.1 579.6 147.7 579.4 148.5 579.4C149.2 579.4 149.8 579.5 150.3 579.8C150.8 580 151.3 580.4 151.6 580.8L150.6 581.9ZM156.3 579.5C157.1 579.5 157.8 579.7 158.3 580C158.9 580.3 159.4 580.8 159.7 581.3C160 581.9 160.2 582.5 160.2 583.3C160.2 584.1 160 584.7 159.7 585.3C159.4 585.9 158.9 586.3 158.3 586.6C157.7 586.9 157 587.1 156.3 587.1C155.5 587.1 154.8 586.9 154.2 586.6C153.6 586.3 153.1 585.8 152.8 585.3C152.5 584.7 152.3 584.1 152.3 583.3C152.3 582.6 152.5 581.9 152.8 581.3C153.1 580.7 153.6 580.3 154.2 580C154.8 579.6 155.5 579.5 156.3 579.5ZM156.3 581C155.7 581 155.2 581.2 154.8 581.6C154.4 582 154.2 582.6 154.2 583.2C154.2 583.8 154.4 584.4 154.8 584.8C155.2 585.2 155.7 585.4 156.3 585.4C156.9 585.4 157.4 585.2 157.8 584.8C158.2 584.4 158.4 583.8 158.4 583.2C158.4 582.6 158.2 582 157.8 581.6C157.4 581.2 156.9 581 156.3 581ZM168.8 579.5V587H167V585.6C166.5 586.6 165.6 587.1 164.4 587.1C163.6 587.1 162.9 586.8 162.4 586.3C161.9 585.8 161.7 585.1 161.7 584.2V579.5H163.5V583.7C163.5 584.2 163.6 584.6 163.9 584.9C164.2 585.2 164.6 585.3 165.1 585.3C165.7 585.3 166.1 585.1 166.5 584.7C166.8 584.3 167 583.8 167 583.2V579.5H168.8ZM175.5 579.4C176.4 579.4 177 579.7 177.5 580.2C178 580.7 178.2 581.4 178.2 582.3V587H176.4V582.9C176.4 582.4 176.3 582 176 581.7C175.7 581.4 175.3 581.2 174.8 581.2C174.2 581.2 173.7 581.4 173.4 581.8C173.1 582.2 172.9 582.7 172.9 583.3V587H171V579.5H172.8V580.9C173.4 579.9 174.3 579.5 175.5 579.4ZM184.7 586.5C184.1 586.9 183.5 587 182.8 587C182.2 587 181.6 586.8 181.2 586.4C180.8 586 180.6 585.5 180.6 584.7V581H179.6V579.7H180.7V577.6H182.5V579.7H184.6V581H182.5V584.4C182.5 584.7 182.6 585 182.7 585.1C182.8 585.2 183 585.3 183.3 585.3C183.6 585.3 183.9 585.2 184.4 585L184.7 586.5Z" fill="#2683FF"/>
<path d="M224 577.2H230.4V578.4H225.4V581.6H229.9V582.8H225.4V586.9H224V577.2ZM234.9 579.6C235.6 579.6 236.3 579.8 236.9 580.1C237.5 580.4 237.9 580.9 238.2 581.4C238.5 582 238.7 582.6 238.7 583.3C238.7 584 238.5 584.7 238.2 585.2C237.9 585.8 237.4 586.2 236.9 586.5C236.3 586.8 235.7 587 234.9 587C234.2 587 233.5 586.8 232.9 586.5C232.3 586.2 231.9 585.7 231.6 585.2C231.3 584.6 231.1 584 231.1 583.2C231.1 582.5 231.3 581.8 231.6 581.3C231.9 580.7 232.4 580.3 232.9 580C233.5 579.7 234.1 579.6 234.9 579.6ZM234.9 580.7C234.4 580.7 234 580.8 233.6 581C233.2 581.2 232.9 581.5 232.7 581.9C232.5 582.3 232.4 582.7 232.4 583.2C232.4 583.7 232.5 584.2 232.7 584.6C232.9 585 233.2 585.3 233.6 585.5C234 585.7 234.4 585.8 234.9 585.8C235.4 585.8 235.8 585.7 236.2 585.5C236.6 585.3 236.9 585 237.1 584.6C237.3 584.2 237.4 583.7 237.4 583.2C237.4 582.7 237.3 582.2 237.1 581.9C236.9 581.5 236.6 581.2 236.2 581C235.8 580.8 235.4 580.7 234.9 580.7ZM241.8 581.2C242 580.7 242.4 580.3 242.8 580C243.2 579.7 243.8 579.6 244.4 579.6V580.9C243.6 580.9 243 581.1 242.6 581.5C242.1 581.9 241.9 582.5 241.8 583.2V587.1H240.5V579.7H241.8V581.2ZM252.4 579.6V586.3C252.4 587 252.2 587.6 251.9 588.2C251.6 588.7 251.2 589.1 250.6 589.4C250 589.7 249.4 589.8 248.6 589.8C247.5 589.8 246.5 589.5 245.5 588.8L246.1 587.8C246.5 588.1 246.8 588.3 247.2 588.5C247.6 588.6 248 588.7 248.5 588.7C249.3 588.7 249.9 588.5 250.3 588.1C250.8 587.7 251 587.1 251 586.4V585.4C250.7 585.8 250.4 586.2 249.9 586.4C249.5 586.6 248.9 586.8 248.4 586.8C247.7 586.8 247.1 586.7 246.6 586.4C246.1 586.1 245.7 585.7 245.4 585.1C245.1 584.6 245 583.9 245 583.2C245 582.5 245.1 581.9 245.4 581.4C245.7 580.9 246.1 580.5 246.6 580.2C247.1 579.9 247.7 579.8 248.4 579.8C249 579.8 249.5 579.9 249.9 580.2C250.3 580.4 250.7 580.8 251 581.2V579.8H252.4V579.6ZM248.7 585.6C249.2 585.6 249.6 585.5 249.9 585.3C250.3 585.1 250.5 584.8 250.7 584.4C250.9 584 251 583.6 251 583.1C251 582.6 250.9 582.2 250.7 581.8C250.5 581.4 250.2 581.1 249.9 580.9C249.5 580.7 249.1 580.6 248.7 580.6C248.2 580.6 247.8 580.7 247.5 580.9C247.1 581.1 246.9 581.4 246.7 581.8C246.5 582.2 246.4 582.6 246.4 583.1C246.4 583.8 246.6 584.4 247.1 584.9C247.5 585.4 248 585.6 248.7 585.6ZM257.8 579.6C258.5 579.6 259.2 579.8 259.8 580.1C260.4 580.4 260.8 580.9 261.1 581.4C261.4 582 261.6 582.6 261.6 583.3C261.6 584 261.4 584.7 261.1 585.2C260.8 585.8 260.3 586.2 259.8 586.5C259.2 586.8 258.6 587 257.8 587C257.1 587 256.4 586.8 255.8 586.5C255.2 586.2 254.8 585.7 254.5 585.2C254.2 584.6 254 584 254 583.2C254 582.5 254.2 581.8 254.5 581.3C254.8 580.7 255.3 580.3 255.8 580C256.4 579.7 257.1 579.6 257.8 579.6ZM257.8 580.7C257.3 580.7 256.9 580.8 256.5 581C256.1 581.2 255.8 581.5 255.6 581.9C255.4 582.3 255.3 582.7 255.3 583.2C255.3 583.7 255.4 584.2 255.6 584.6C255.8 585 256.1 585.3 256.5 585.5C256.9 585.7 257.3 585.8 257.8 585.8C258.3 585.8 258.7 585.7 259.1 585.5C259.5 585.3 259.8 585 260 584.6C260.2 584.2 260.3 583.7 260.3 583.2C260.3 582.7 260.2 582.2 260 581.9C259.8 581.5 259.5 581.2 259.1 581C258.7 580.8 258.3 580.7 257.8 580.7ZM267.4 586.5C266.8 586.9 266.3 587 265.7 587C265.1 587 264.6 586.8 264.3 586.5C263.9 586.1 263.8 585.6 263.8 584.9V580.8H262.7V579.8H263.8V577.8H265.1V579.8H267.4V580.8H265V584.7C265 585.1 265.1 585.4 265.2 585.6C265.3 585.8 265.6 585.9 265.9 585.9C266.3 585.9 266.6 585.8 267 585.6L267.4 586.5ZM276.8 579.6C277.5 579.6 278.1 579.8 278.6 580.1C279.1 580.4 279.6 580.9 279.9 581.4C280.2 582 280.3 582.6 280.3 583.4C280.3 584.1 280.2 584.8 279.9 585.3C279.6 585.9 279.2 586.3 278.7 586.6C278.2 586.9 277.6 587.1 276.9 587.1C276.3 587.1 275.7 587 275.2 586.7C274.7 586.4 274.4 586.1 274.1 585.6V589.8H272.8V579.7H274.1V581.2C274.4 580.7 274.7 580.3 275.2 580.1C275.6 579.7 276.2 579.6 276.8 579.6ZM276.6 585.9C277.1 585.9 277.5 585.8 277.9 585.6C278.3 585.4 278.6 585.1 278.8 584.7C279 584.3 279.1 583.8 279.1 583.3C279.1 582.8 279 582.4 278.8 582C278.6 581.6 278.3 581.3 277.9 581.1C277.5 580.9 277.1 580.8 276.6 580.8C276.1 580.8 275.7 580.9 275.3 581.1C274.9 581.3 274.6 581.6 274.4 582C274.2 582.4 274.1 582.8 274.1 583.3C274.1 583.8 274.2 584.3 274.4 584.7C274.6 585.1 274.9 585.4 275.3 585.6C275.6 585.8 276.1 585.9 276.6 585.9ZM286.7 587V586C286.2 586.7 285.3 587.1 284.1 587.1C283.6 587.1 283.1 587 282.7 586.8C282.3 586.6 282 586.3 281.8 586C281.6 585.7 281.5 585.3 281.5 584.8C281.5 584.1 281.7 583.6 282.2 583.2C282.7 582.8 283.4 582.6 284.3 582.6H286.7V582.3C286.7 581.8 286.5 581.4 286.2 581.1C285.9 580.8 285.4 580.7 284.8 580.7C284.1 580.7 283.3 581 282.5 581.5L282 580.6C282.5 580.3 283 580 283.5 579.9C284 579.7 284.5 579.7 285.1 579.7C286 579.7 286.7 579.9 287.2 580.4C287.7 580.8 288 581.5 288 582.3V587.2H286.7V587ZM284.4 586C285 586 285.5 585.9 285.9 585.6C286.3 585.3 286.6 584.9 286.7 584.4V583.7H284.5C283.9 583.7 283.5 583.8 283.2 584C282.9 584.2 282.8 584.5 282.8 584.8C282.8 585.1 282.9 585.5 283.2 585.7C283.5 585.9 283.9 586 284.4 586ZM294.4 581.2C294.1 581 293.8 580.9 293.4 580.8C293 580.7 292.7 580.6 292.3 580.6C291.9 580.6 291.6 580.7 291.3 580.8C291.1 580.9 290.9 581.2 290.9 581.5C290.9 581.8 291 582 291.3 582.2C291.6 582.3 292 582.5 292.5 582.7C293 582.8 293.4 583 293.8 583.1C294.1 583.2 294.4 583.5 294.6 583.8C294.8 584.1 294.9 584.5 294.9 584.9C294.9 585.6 294.6 586.1 294.1 586.5C293.6 586.9 292.9 587 292.1 587C291.5 587 291 586.9 290.5 586.7C290 586.5 289.6 586.3 289.2 585.9L289.7 584.9C290 585.2 290.4 585.4 290.8 585.6C291.3 585.8 291.7 585.9 292.1 585.9C292.5 585.9 292.9 585.8 293.1 585.7C293.4 585.5 293.5 585.3 293.5 585C293.5 584.7 293.4 584.4 293.1 584.2C292.8 584 292.4 583.9 291.9 583.7C291.4 583.6 291 583.4 290.7 583.3C290.4 583.2 290.1 582.9 289.9 582.7C289.7 582.4 289.6 582.1 289.6 581.6C289.6 580.9 289.9 580.4 290.4 580C290.9 579.7 291.5 579.5 292.3 579.5C292.7 579.5 293.2 579.6 293.6 579.7C294 579.8 294.4 580 294.7 580.2L294.4 581.2ZM300.8 581.2C300.5 581 300.2 580.9 299.8 580.8C299.4 580.7 299.1 580.6 298.7 580.6C298.3 580.6 298 580.7 297.7 580.8C297.5 580.9 297.3 581.2 297.3 581.5C297.3 581.8 297.4 582 297.7 582.2C298 582.3 298.4 582.5 298.9 582.7C299.4 582.8 299.8 583 300.2 583.1C300.5 583.2 300.8 583.5 301 583.8C301.2 584.1 301.3 584.5 301.3 584.9C301.3 585.6 301 586.1 300.5 586.5C300 586.9 299.3 587 298.5 587C297.9 587 297.4 586.9 296.9 586.7C296.4 586.5 296 586.3 295.6 585.9L296.1 584.9C296.4 585.2 296.8 585.4 297.2 585.6C297.7 585.8 298.1 585.9 298.5 585.9C298.9 585.9 299.3 585.8 299.5 585.7C299.8 585.5 299.9 585.3 299.9 585C299.9 584.7 299.8 584.4 299.5 584.2C299.2 584 298.8 583.9 298.3 583.7C297.8 583.6 297.4 583.4 297.1 583.3C296.8 583.2 296.5 582.9 296.3 582.7C296.1 582.4 296 582.1 296 581.6C296 580.9 296.3 580.4 296.8 580C297.3 579.7 297.9 579.5 298.7 579.5C299.1 579.5 299.6 579.6 300 579.7C300.4 579.8 300.8 580 301.1 580.2L300.8 581.2ZM301.9 579.6H303.3L305.4 585.7L307.4 579.6H308.8L310.9 585.7L312.9 579.6H314.2L311.5 587H310.1L308.1 581.2L306.1 587H304.7L301.9 579.6ZM318.2 579.6C318.9 579.6 319.6 579.8 320.2 580.1C320.8 580.4 321.2 580.9 321.5 581.4C321.8 582 322 582.6 322 583.3C322 584 321.8 584.7 321.5 585.2C321.2 585.8 320.7 586.2 320.2 586.5C319.6 586.8 319 587 318.2 587C317.5 587 316.8 586.8 316.2 586.5C315.6 586.2 315.2 585.7 314.9 585.2C314.6 584.6 314.4 584 314.4 583.2C314.4 582.5 314.6 581.8 314.9 581.3C315.2 580.7 315.7 580.3 316.2 580C316.8 579.7 317.5 579.6 318.2 579.6ZM318.2 580.7C317.7 580.7 317.3 580.8 316.9 581C316.5 581.2 316.2 581.5 316 581.9C315.8 582.3 315.7 582.7 315.7 583.2C315.7 583.7 315.8 584.2 316 584.6C316.2 585 316.5 585.3 316.9 585.5C317.3 585.7 317.7 585.8 318.2 585.8C318.7 585.8 319.1 585.7 319.5 585.5C319.9 585.3 320.2 585 320.4 584.6C320.6 584.2 320.7 583.7 320.7 583.2C320.7 582.7 320.6 582.2 320.4 581.9C320.2 581.5 319.9 581.2 319.5 581C319.1 580.8 318.7 580.7 318.2 580.7ZM325.2 581.2C325.4 580.7 325.8 580.3 326.2 580C326.6 579.7 327.2 579.6 327.8 579.6V580.9C327 580.9 326.4 581.1 326 581.5C325.5 581.9 325.3 582.5 325.2 583.2V587.1H323.9V579.7H325.2V581.2ZM336.1 576.6V587H334.8V585.5C334.5 586 334.1 586.4 333.7 586.6C333.2 586.9 332.7 587 332.1 587C331.4 587 330.8 586.8 330.2 586.5C329.7 586.2 329.3 585.7 329 585.2C328.7 584.6 328.6 584 328.6 583.2C328.6 582.5 328.7 581.8 329 581.3C329.3 580.7 329.7 580.3 330.2 580C330.7 579.7 331.4 579.5 332 579.5C332.6 579.5 333.2 579.6 333.7 579.9C334.2 580.2 334.5 580.5 334.8 581V576.5L336.1 576.6ZM332.3 586C332.8 586 333.2 585.9 333.6 585.7C334 585.5 334.3 585.2 334.5 584.8C334.7 584.4 334.8 583.9 334.8 583.4C334.8 582.9 334.7 582.4 334.5 582C334.3 581.6 334 581.3 333.6 581.1C333.2 580.9 332.8 580.8 332.3 580.8C331.8 580.8 331.4 580.9 331 581.1C330.6 581.3 330.3 581.6 330.1 582C329.9 582.4 329.8 582.9 329.8 583.4C329.8 583.9 329.9 584.4 330.1 584.8C330.3 585.2 330.6 585.5 331 585.7C331.4 585.8 331.8 586 332.3 586Z" fill="#2683FF"/>
<path d="M942.6 323V125C942.6 119 940.2 113.7 936.2 109.7C932.2 105.8 926.9 103.3 920.9 103.3C914.9 103.3 909.5 105.7 905.6 109.7C901.6 113.6 899.2 119 899.2 125C899.2 134.4 895.4 142.8 889.2 149C883 155.2 874.5 159 865.1 159C855.7 159 847.2 155.2 841 149C834.8 142.8 831 134.3 831 125V62H843.4V125C843.4 131 845.8 136.3 849.8 140.3C853.8 144.2 859.2 146.7 865.1 146.7C871.1 146.7 876.5 144.3 880.4 140.3C884.4 136.4 886.8 130.9 886.8 125C886.8 115.6 890.6 107.2 896.8 101C903 94.8 911.5 91 920.9 91C930.3 91 938.8 94.8 945 101C951.2 107.2 955 115.7 955 125V323H942.6Z" fill="#007AFF"/>
<path d="M335.4 706V753C335.4 759 337.8 764.3 341.8 768.3C345.8 772.2 351.1 774.7 357.1 774.7C363.1 774.7 368.5 772.3 372.4 768.3C376.4 764.4 378.8 759 378.8 753C378.8 743.6 382.6 735.2 388.8 729C395 722.8 403.5 719 412.9 719C422.3 719 430.8 722.8 437 729C443.2 735.2 447 743.7 447 753V900H434.6V753C434.6 747 432.2 741.7 428.2 737.7C424.2 733.8 418.8 731.3 412.9 731.3C406.9 731.3 401.5 733.7 397.6 737.7C393.6 741.6 391.2 747.1 391.2 753C391.2 762.4 387.4 770.8 381.2 777C375 783.2 366.5 787 357.1 787C347.7 787 339.2 783.2 333 777C326.8 770.8 323 762.3 323 753V706H335.4Z" fill="#007AFF"/>
<path d="M1140 560H987V823H1140V560Z" fill="#0062FF"/>
<path d="M811.4 283.1C810.6 283.1 809.9 283.1 809.2 283.2C807.8 283.2 806.6 282.5 805.9 281.3C790.1 252.5 759.4 233 724.1 233C692.1 233 663.9 249 647.1 273.4C646.3 274.6 644.8 275.2 643.4 274.9C639.2 274 634.9 273.5 630.4 273.5C597.6 273.5 571 300 571 332.6C571 332.6 571 332.6 571 332.7C571 334.6 572.6 336.2 574.5 336.2H857.4C859.3 336.2 860.9 334.6 860.9 332.7V332.6C861 305.2 838.8 283.1 811.4 283.1Z" fill="#DEDEFC"/>
<path d="M305.2 839.8C304.3 839.8 303.5 839.8 302.7 839.9C301.2 840 299.7 839.2 299 837.8C281.1 805.1 246.1 782.8 205.9 782.8C169.5 782.8 137.4 801 118.4 828.7C117.5 830.1 115.8 830.7 114.1 830.4C109.3 829.4 104.4 828.8 99.3 828.8C62 828.9 31.8 858.9 31.8 896C31.8 896 31.8 896 31.8 896.1C31.8 898.3 33.6 900 35.8 900H357.6C359.8 900 361.6 898.2 361.6 896.1V896C361.6 865 336.3 839.8 305.2 839.8Z" fill="#007AFF"/>
<path d="M1147.5 654C1258.8 654 1349 563.6 1349 452C1349 340.4 1258.8 250 1147.5 250C1036.2 250 946 340.4 946 452C946 563.6 1036.2 654 1147.5 654Z" fill="white"/>
<path d="M1105 651C1057.4 639.3 1016.1 611.5 987 573.9V422.4C987 420.4 987.8 418.4 989.3 416.9L1046 359.9H1105V419.1V651Z" fill="#499FFC"/>
<path d="M987 562.8H876.7C871.3 562.8 866.4 560.6 862.8 557C859.2 553.5 857 548.6 857 543.2C857 537.8 859.2 532.9 862.8 529.4C866.3 525.9 871.3 523.6 876.7 523.6C885.2 523.6 892.9 520.1 898.5 514.6C904.1 509 907.6 501.3 907.6 492.9C907.6 484.4 904.1 476.7 898.5 471.2C892.9 465.6 885.2 462.2 876.7 462.2H544.5V473.4C674.2 473.4 746.9 473.4 876.7 473.4C882.1 473.4 887 475.6 890.6 479.2C894.1 482.7 896.4 487.6 896.4 493C896.4 498.4 894.2 503.3 890.6 506.8C887.1 510.3 882.1 512.6 876.7 512.6C868.2 512.6 860.5 516.1 854.9 521.6C849.3 527.2 845.8 534.9 845.8 543.3C845.8 551.8 849.3 559.5 854.9 565C860.5 570.6 868.2 574 876.7 574H987V562.8Z" fill="white"/>
<path d="M1000 429H992V446H1000V429Z" fill="#F7F9F9"/>
<path d="M1017 429H1008V446H1017V429Z" fill="#F7F9F9"/>
<path d="M1000 455H992V473H1000V455Z" fill="#F7F9F9"/>
<path d="M1017 455H1008V473H1017V455Z" fill="#F7F9F9"/>
<path d="M1000 482H992V499H1000V482Z" fill="#F7F9F9"/>
<path d="M1017 482H1008V499H1017V482Z" fill="#F7F9F9"/>
<path d="M1000 508H992V525H1000V508Z" fill="#F7F9F9"/>
<path d="M1017 508H1008V525H1017V508Z" fill="#F7F9F9"/>
<path d="M1000 534H992V551H1000V534Z" fill="#F7F9F9"/>
<path d="M1017 534H1008V551H1017V534Z" fill="#F7F9F9"/>
<path d="M1017 560H1008V577H1017V560Z" fill="#F7F9F9"/>
<path d="M794.2 513H816.8C819.1 513 821 511.2 821 509C821 506.8 819.1 505 816.8 505H794.2C791.9 505 790 506.8 790 509C790 511.2 791.9 513 794.2 513Z" fill="#0F002D"/>
<path d="M794.1 497H833.8C836.1 497 838 495 838 492.5C838 490 836.1 488 833.8 488H794.2C791.9 488 790 490 790 492.5C790 495 791.8 497 794.1 497Z" fill="#0F002D"/>
<path d="M849.2 497H851.9C854.2 497 856.1 495 856.1 492.5C856.1 490 854.3 488 851.9 488H849.2C846.9 488 845 490 845 492.5C845 495 846.8 497 849.2 497Z" fill="#6CB9FF"/>
<path d="M865.2 497H867.9C870.2 497 872.1 495 872.1 492.5C872.1 490 870.3 488 867.9 488H865.2C862.9 488 861 490 861 492.5C861 495 862.8 497 865.2 497Z" fill="#6CB9FF"/>
<path d="M847 28H791V123H847V28Z" fill="#499FFC"/>
<path d="M862 0H776V50H862V0Z" fill="#0F002D"/>
<path d="M866 133.9V141.1C866 166.4 845.5 187 820.5 187C795.5 187 775 166.4 775 141.1V133.9C775 108.6 795.5 88 820.5 88C845.5 88 866 108.7 866 133.9Z" fill="#499FFC"/>
<path d="M847 179.1V232.9C847 241.2 840.2 248 832 248C823.7 248 817 241.2 817 232.9V179.1C817 170.8 823.8 164 832 164C840.2 163.9 847 170.8 847 179.1Z" fill="#499FFC"/>
<path d="M804 166.8V181.2C804 188.3 798.2 194 791 194C783.8 194 778 188.3 778 181.2V166.8C778 159.7 783.8 154 791 154C798.2 154 804 159.7 804 166.8Z" fill="#6CB9FF"/>
<path d="M788 156.6V167.4C788 172.7 783.5 177 778 177C772.5 177 768 172.7 768 167.4V156.6C768 151.3 772.5 147 778 147C783.5 147 788 151.3 788 156.6Z" fill="#6CB9FF"/>
<path d="M823 179.3V194.7C823 202.5 816.5 209 808.5 209C800.5 209 794 202.6 794 194.7V179.3C794 171.4 800.5 165 808.5 165C816.5 165 823 171.4 823 179.3Z" fill="#6CB9FF"/>
<path d="M867.4 121.7L868 170.1C868.1 178.5 861.3 185.6 853 185.9C844.7 186.2 837.7 179.6 837.6 171.2L837 122.8C836.9 114.4 843.7 107.3 852 107C860.3 106.7 867.3 113.3 867.4 121.7Z" fill="#6CB9FF"/>
<path d="M862.6 182.8L852.4 195.5C847.2 201.9 837.8 202.9 831.4 197.6C825.1 192.3 824.2 182.7 829.4 176.2L839.6 163.5C844.8 157.1 854.2 156.1 860.6 161.4C866.9 166.7 867.8 176.4 862.6 182.8Z" fill="#6CB9FF"/>
<path d="M813 121.5C813 136.1 824.9 148 839.5 148C854.1 148 866 136.1 866 121.5C866 106.9 854.1 95 839.5 95C824.9 95 813 106.9 813 121.5Z" fill="#6CB9FF"/>
<path d="M822.7 267.4C821.1 266.4 819 267.6 819 269.6V271.6V274.5C819 275.4 819.4 276.2 820.2 276.7L830.3 282.7C831.1 283.2 832 283.2 832.8 282.7L842.9 276.7C843.7 276.2 844.1 275.4 844.1 274.5V271.6V269.6C844.1 267.6 842 266.5 840.4 267.4L832.8 271.9C832 272.4 831.1 272.4 830.3 271.9L822.7 267.4Z" fill="#0F002D"/>
<path d="M822.7 286.4C821.1 285.4 819 286.6 819 288.6V290.6V293.5C819 294.4 819.4 295.2 820.2 295.7L830.3 301.7C831.1 302.2 832 302.2 832.8 301.7L842.9 295.7C843.7 295.2 844.1 294.4 844.1 293.5V290.6V288.6C844.1 286.6 842 285.5 840.4 286.4L832.8 290.9C832 291.4 831.1 291.4 830.3 290.9L822.7 286.4Z" fill="#0F002D"/>
<path d="M1126.4 814.7C1124 814.7 1121.6 814.8 1119.3 815.1C1094.5 766.9 1044.3 734 986.4 734C933.7 734 887.5 761.2 860.9 802.4C853.1 800.3 844.8 799.2 836.3 799.2C783.7 799.2 741.1 841.8 741.1 894.4C741.1 896.3 741.2 898.2 741.3 900.1H1205.9C1206 898.2 1206.1 896.4 1206.1 894.4C1206 850.4 1170.4 814.7 1126.4 814.7Z" fill="white"/>
<path d="M665 512C666.7 512 668 510.4 668 508.5C668 506.6 666.7 505 665 505C663.3 505 662 506.6 662 508.5C662 510.4 663.3 512 665 512Z" fill="#DEDEFC"/>
<path d="M695.9 529.3C696.6 528.6 697 527.7 697 526.7V484.3C697 482.3 695.4 480.7 693.4 480.7H683.4V470.6C683.4 460.3 675.1 451.9 664.9 451.9C654.7 451.9 646.4 460.3 646.4 470.6V480.7H636.5C634.5 480.7 632.9 482.3 632.9 484.3V526.7C632.9 527.7 633.3 528.6 634 529.3L648 543C648.7 543.7 649.6 544 650.5 544H679.3C680.2 544 681.1 543.6 681.8 543L695.9 529.3ZM668.5 518.4V523C668.5 525 666.9 526.6 664.9 526.6C662.9 526.6 661.3 525 661.3 523V518.4C657.4 516.9 654.6 513.1 654.6 508.6C654.6 502.9 659.2 498.2 664.9 498.2C670.6 498.2 675.2 502.9 675.2 508.6C675.3 513.1 672.5 516.9 668.5 518.4ZM676.4 480.7H653.7V470.6C653.7 464.3 658.8 459.1 665 459.1C671.2 459.1 676.3 464.3 676.3 470.6L676.4 480.7Z" fill="#DEDEFC"/>
<path d="M591.7 427.7L588.1 424.2C589.3 423 590.6 421.8 591.9 420.7L595.3 424.4C594.1 425.4 592.8 426.5 591.7 427.7ZM599 421.1L595.8 417.3C597.1 416.2 598.5 415.2 599.9 414.2L602.9 418.2C601.6 419.1 600.3 420.1 599 421.1ZM607 415.3L604.2 411.2C605.6 410.3 607.1 409.4 608.6 408.5L611.2 412.8C609.8 413.5 608.3 414.4 607 415.3ZM714.5 412.6C713.2 411.9 711.9 411.1 710.6 410.5L713 406.1C714.4 406.8 715.7 407.6 717.1 408.4L714.5 412.6ZM615.5 410.3L613.1 405.9C614.6 405.1 616.2 404.3 617.7 403.6L619.9 408.1C618.4 408.8 616.9 409.6 615.5 410.3ZM706.2 408.2C704.7 407.5 703.2 406.9 701.7 406.2L703.6 401.6C705.2 402.2 706.8 402.9 708.4 403.7L706.2 408.2ZM624.4 406.2L622.5 401.6C624.1 401 625.7 400.4 627.4 399.8L629.1 404.5C627.5 405 626 405.5 624.4 406.2ZM697.1 404.5C695.6 404 694 403.5 692.4 403L693.9 398.2C695.6 398.7 697.2 399.2 698.8 399.8L697.1 404.5ZM633.7 402.9L632.2 398.1C633.9 397.6 635.6 397.2 637.2 396.8L638.4 401.6C636.9 402 635.4 402.4 633.7 402.9ZM687.6 401.6C686 401.2 684.4 400.9 682.8 400.6L683.8 395.7C685.5 396 687.2 396.4 688.9 396.8L687.6 401.6ZM643.4 400.5L642.4 395.6C644.1 395.3 645.8 395 647.5 394.8L648.2 399.7C646.6 399.9 645 400.2 643.4 400.5ZM677.9 399.7C676.3 399.5 674.6 399.3 673 399.1L673.5 394.1C675.2 394.2 677 394.5 678.7 394.7L677.9 399.7ZM653.2 399.1L652.7 394.1C654.4 394 656.2 393.8 657.9 393.8L658.2 398.8C656.5 398.8 654.8 399 653.2 399.1ZM668 398.8C666.4 398.7 664.7 398.7 663 398.7V393.7C664.7 393.7 666.5 393.7 668.2 393.8L668 398.8Z" fill="white"/>
<path d="M664.9 603.7L664.8 598.7C666.4 598.7 668.1 598.6 669.7 598.5L670 603.5C668.4 603.6 666.6 603.7 664.9 603.7ZM659.7 603.6C658 603.5 656.2 603.4 654.5 603.3L654.9 598.3C656.5 598.5 658.2 598.5 659.8 598.6L659.7 603.6ZM675.3 603L674.7 598C676.3 597.8 678 597.6 679.6 597.3L680.4 602.3C678.7 602.6 677 602.8 675.3 603ZM649.4 602.8C647.7 602.6 645.9 602.3 644.3 602L645.2 597.1C646.8 597.4 648.4 597.7 650.1 597.9L649.4 602.8ZM685.6 601.4L684.5 596.5C686.1 596.1 687.7 595.7 689.3 595.3L690.6 600.2C688.9 600.6 687.2 601 685.6 601.4ZM639.1 601C637.4 600.6 635.8 600.2 634.1 599.7L635.5 594.9C637.1 595.4 638.7 595.8 640.3 596.1L639.1 601ZM695.6 598.7L694 593.9C695.6 593.4 697.1 592.8 698.7 592.3L700.5 597C698.9 597.6 697.2 598.1 695.6 598.7ZM629.1 598.1C627.5 597.5 625.8 596.9 624.2 596.3L626.1 591.6C627.6 592.2 629.2 592.8 630.8 593.3L629.1 598.1ZM705.3 595L703.3 590.4C704.8 589.7 706.3 589 707.8 588.3L710 592.8C708.4 593.6 706.9 594.4 705.3 595ZM619.5 594.4C617.9 593.7 616.4 592.9 614.8 592.1L617.1 587.6C618.6 588.4 620 589.1 621.6 589.7L619.5 594.4ZM714.6 590.5L712.1 586.1C713.5 585.3 714.9 584.5 716.4 583.6L719.1 587.9C717.6 588.8 716.1 589.6 714.6 590.5ZM610.2 589.6C608.7 588.7 607.2 587.8 605.8 586.9L608.5 582.7C609.9 583.6 611.3 584.5 612.7 585.3L610.2 589.6ZM723.4 585L720.5 580.9C721.9 580 723.2 579 724.5 578L727.6 582C726.2 583.1 724.8 584.1 723.4 585ZM601.5 584.1C600.1 583.1 598.7 582 597.3 581L600.4 577.1C601.7 578.1 603 579.1 604.4 580.1L601.5 584.1ZM731.6 578.8L728.3 575C729.6 573.9 730.8 572.8 732 571.7L735.5 575.4C734.2 576.5 733 577.7 731.6 578.8ZM593.4 577.6C592.6 576.9 591.8 576.2 591.1 575.5L594.6 571.8C595.3 572.5 596.1 573.1 596.8 573.8L593.4 577.6ZM739.2 571.7L735.5 568.2C736.7 567 737.8 565.8 738.8 564.6L742.6 567.9C741.6 569.2 740.4 570.5 739.2 571.7ZM746 563.9L742 560.8C743 559.5 744 558.2 745 556.9L749.1 559.8C748.2 561.2 747.1 562.6 746 563.9ZM752.1 555.6L747.8 552.9C748.7 551.5 749.6 550.1 750.4 548.7L754.8 551.2C754 552.7 753 554.1 752.1 555.6ZM757.3 546.6L752.8 544.3C753.6 542.8 754.3 541.4 754.9 539.9L759.5 542C758.8 543.6 758.1 545.1 757.3 546.6ZM761.6 537.2L756.9 535.3C757.5 533.8 758.1 532.2 758.6 530.7L763.4 532.3C762.8 534 762.2 535.7 761.6 537.2ZM764.9 527.5L760 526.1C760.5 524.5 760.9 522.9 761.2 521.4L766.1 522.5C765.8 524.1 765.4 525.8 764.9 527.5ZM767.3 517.4L762.3 516.5C762.6 514.9 762.9 513.3 763.1 511.7L768.1 512.4C767.8 514 767.6 515.7 767.3 517.4Z" fill="white"/>
<path d="M727.9 872C726.3 872 725 870.6 725 869C725.8 846.5 735.4 826.1 750.5 811.2C765.6 796.3 786.2 786.8 809 786C810.6 786 812 787.3 812 788.9V814.5C812 816.1 810.8 817.3 809.2 817.4C795.1 818.1 782.3 824.1 772.9 833.4C763.5 842.7 757.4 855.3 756.7 869.3C756.6 870.9 755.3 872.1 753.8 872.1H727.9V872Z" fill="#DEDEFC"/>
<path d="M810.5 813C816.3 813 821 808.3 821 802.5C821 796.7 816.3 792 810.5 792C804.7 792 800 796.7 800 802.5C800 808.3 804.7 813 810.5 813Z" fill="#499FFC"/>
<path d="M806.5 871C809.5 871 812 868.5 812 865.5C812 862.5 809.5 860 806.5 860C803.5 860 801 862.5 801 865.5C801 868.5 803.5 871 806.5 871Z" fill="#0F002D"/>
<path d="M938.1 859.7V877.8C938.1 878.5 937.5 879 936.9 879H927.2C926.6 879 926 878.4 926 877.8V861.3C926 860.7 926.4 860.2 927 860.1C929 859.7 933.4 858.9 936.7 858.4C937.4 858.4 938.1 858.9 938.1 859.7ZM958.2 857C958.8 857 959.4 857.6 959.4 858.2V877.8C959.4 878.5 958.8 879 958.2 879H948.5C947.8 879 947.3 878.4 947.3 877.8V858.5C947.3 857.8 947.8 857.3 948.5 857.3C950.6 857.2 955.4 857 958.2 857ZM980.7 859.7V877.8C980.7 878.5 980.1 879 979.5 879H969.8C969.2 879 968.6 878.4 968.6 877.8V858.7C968.6 858 969.2 857.4 969.9 857.5C972.1 857.7 976.5 858.1 979.5 858.5C980.2 858.6 980.7 859.1 980.7 859.7ZM991.4 860.6C994.7 861.3 997.9 862.2 1001.1 863.1C1001.6 863.3 1002 863.8 1002 864.3V877.9C1002 878.6 1001.4 879.1 1000.8 879.1H991.1C990.4 879.1 989.9 878.5 989.9 877.9V861.8C989.9 861 990.6 860.4 991.4 860.6Z" fill="#007AFF"/>
<path d="M1206 901V888H928C926.9 888 926 888.8 926 889.9V899.1C926 900.2 926.9 901 928 901H1206Z" fill="#DEDEFC"/>
<path d="M680.5 195C685.2 195 689 191 689 186C689 181 685.2 177 680.5 177C675.8 177 672 181 672 186C672 190.9 675.8 195 680.5 195Z" fill="white"/>
<path d="M705.5 195C710.2 195 714 191 714 186C714 181 710.2 177 705.5 177C700.8 177 697 181 697 186C697 190.9 700.8 195 705.5 195Z" fill="white"/>
<path d="M680.5 166C685.2 166 689 162.2 689 157.5C689 152.8 685.2 149 680.5 149C675.8 149 672 152.8 672 157.5C672 162.1 675.8 166 680.5 166Z" fill="#6CB9FF"/>
<path d="M705.5 166C710.2 166 714 162.2 714 157.5C714 152.8 710.2 149 705.5 149C700.8 149 697 152.8 697 157.5C697 162.1 700.8 166 705.5 166Z" fill="#6CB9FF"/>
<path d="M655.5 136C660.2 136 664 132.2 664 127.5C664 122.8 660.2 119 655.5 119C650.8 119 647 122.8 647 127.5C647 132.2 650.8 136 655.5 136Z" fill="white"/>
<path d="M680.5 136C685.2 136 689 132.2 689 127.5C689 122.8 685.2 119 680.5 119C675.8 119 672 122.8 672 127.5C672 132.2 675.8 136 680.5 136Z" fill="white"/>
<path d="M705.5 136C710.2 136 714 132.2 714 127.5C714 122.8 710.2 119 705.5 119C700.8 119 697 122.8 697 127.5C697 132.2 700.8 136 705.5 136Z" fill="white"/>
<path d="M1000.5 269C1009 269 1016 261.8 1016 253C1016 244.2 1009 237 1000.5 237C992 237 985 244.2 985 253C984.9 261.8 992 269 1000.5 269Z" fill="#6CB9FF"/>
<path d="M1000 260C1003.8 260 1007 256.9 1007 253C1007 249.2 1003.9 246 1000 246C996.2 246 993 249.1 993 253C993 256.8 996.1 260 1000 260Z" fill="#0F002D"/>
<path d="M543.2 781.1C543.2 785.8 547.2 789.6 552.2 789.6C557.2 789.6 561.2 785.8 561.2 781.1C561.2 776.4 557.2 772.6 552.2 772.6C547.3 772.6 543.2 776.4 543.2 781.1Z" fill="white"/>
<path d="M543.2 806.1C543.2 810.8 547.2 814.6 552.2 814.6C557.2 814.6 561.2 810.8 561.2 806.1C561.2 801.4 557.2 797.6 552.2 797.6C547.3 797.6 543.2 801.4 543.2 806.1Z" fill="white"/>
<path d="M572.2 806.1C572.2 810.8 576 814.6 580.7 814.6C585.4 814.6 589.2 810.8 589.2 806.1C589.2 801.4 585.4 797.6 580.7 797.6C576 797.6 572.2 801.4 572.2 806.1Z" fill="#6CB9FF"/>
<path d="M791.4 704.6C799.9 704.6 806.9 697.4 806.9 688.6C806.9 679.8 799.9 672.6 791.4 672.6C782.9 672.6 775.9 679.8 775.9 688.6C775.8 697.5 782.8 704.6 791.4 704.6Z" fill="#499FFC"/>
<path d="M790.9 695.6C794.7 695.6 797.9 692.5 797.9 688.6C797.9 684.8 794.8 681.6 790.9 681.6C787.1 681.6 783.9 684.7 783.9 688.6C783.9 692.5 787 695.6 790.9 695.6Z" fill="#007AFF"/>
</g>
</g>
<defs>
<clipPath id="clip0">
<rect width="1024" height="900" fill="white"/>
</clipPath>
<clipPath id="clip1">
<rect width="1587" height="901" fill="white" transform="translate(-204)"/>
</clipPath>
</defs>
</svg>
