<svg width="1280" height="900" viewBox="0 0 1280 900" fill="none" xmlns="http://www.w3.org/2000/svg">
<g clip-path="url(#clip0)">
<rect width="1280" height="900" fill="white"/>
<rect width="1440" height="900" fill="#2683FF"/>
<path d="M-63 0H1377V900H-63" fill="white"/>
<path d="M1377 0H-63V900H1377V0Z" fill="#2683FF"/>
<path d="M669.7 900L1005.2 321H1038.8L1451.5 325.6L1451.2 900L779.8 899.1L669.7 900Z" fill="#007AFF"/>
<path d="M262.3 580C262 579.6 261.5 579.3 261.1 579.1C260.6 578.9 260.2 578.8 259.7 578.8C259.1 578.8 258.5 578.9 258 579.2C257.5 579.5 257.1 579.9 256.8 580.4C256.5 580.9 256.4 581.5 256.4 582.1C256.4 582.7 256.5 583.3 256.8 583.8C257.1 584.3 257.5 584.7 258 585C258.5 585.3 259.1 585.4 259.7 585.4C260.2 585.4 260.6 585.3 261.1 585.1C261.6 584.9 262 584.6 262.4 584.2L263.5 585.4C263 585.9 262.4 586.3 261.7 586.6C261 586.9 260.3 587 259.6 587C258.7 587 257.8 586.8 257 586.3C256.2 585.8 255.6 585.2 255.2 584.5C254.8 583.7 254.5 582.9 254.5 581.9C254.5 580.9 254.7 580.1 255.2 579.4C255.7 578.6 256.3 578 257.1 577.6C257.9 577.2 258.8 576.9 259.7 576.9C260.4 576.9 261.1 577 261.8 577.3C262.5 577.6 263 578 263.5 578.5L262.3 580ZM266.7 581C267 580.5 267.3 580.1 267.7 579.9C268.1 579.6 268.6 579.5 269.2 579.5V581.3C268.4 581.3 267.8 581.4 267.3 581.8C266.8 582.2 266.6 582.7 266.6 583.4V587H264.8V579.5H266.6V581H266.7ZM273.6 579.5C274.8 579.5 275.7 579.8 276.3 580.5C276.9 581.2 277.2 582.1 277.2 583.4C277.2 583.6 277.2 583.8 277.2 583.9H271.7C271.8 584.4 272.1 584.9 272.4 585.2C272.8 585.5 273.2 585.6 273.8 585.6C274.2 585.6 274.5 585.5 274.9 585.4C275.3 585.3 275.6 585 275.8 584.8L276.8 585.8C276.4 586.2 276 586.5 275.4 586.8C274.9 587 274.3 587.1 273.6 587.1C272.8 587.1 272.2 586.9 271.6 586.6C271 586.3 270.6 585.8 270.3 585.3C270 584.7 269.8 584.1 269.8 583.3C269.8 582.5 270 581.9 270.3 581.3C270.6 580.7 271.1 580.3 271.7 580C272.2 579.6 272.9 579.5 273.6 579.5ZM275.6 582.7C275.6 582.1 275.4 581.7 275.1 581.4C274.8 581.1 274.3 580.9 273.7 580.9C273.2 580.9 272.7 581.1 272.4 581.4C272 581.7 271.8 582.2 271.7 582.7H275.6ZM283.2 587V586.1C282.9 586.4 282.6 586.7 282.2 586.8C281.8 587 281.3 587.1 280.8 587.1C280.3 587.1 279.8 587 279.4 586.8C279 586.6 278.7 586.3 278.5 586C278.3 585.6 278.2 585.2 278.2 584.8C278.2 584.1 278.4 583.6 278.9 583.2C279.4 582.8 280.1 582.6 281 582.6H283.2V582.4C283.2 582 283.1 581.6 282.8 581.4C282.5 581.2 282.1 581 281.5 581C280.8 581 280 581.2 279.3 581.7L278.6 580.4C279.2 580.1 279.7 579.8 280.2 579.7C280.7 579.6 281.3 579.5 281.9 579.5C282.9 579.5 283.6 579.7 284.2 580.2C284.7 580.7 285 581.3 285 582.2V587.1H283.2V587ZM281.2 585.7C281.7 585.7 282.2 585.6 282.5 585.3C282.9 585 283.1 584.7 283.1 584.4V583.7H281.2C280.7 583.7 280.4 583.8 280.1 583.9C279.9 584 279.8 584.3 279.8 584.6C279.8 584.9 279.9 585.2 280.2 585.4C280.5 585.6 280.8 585.7 281.2 585.7ZM291.4 586.5C290.8 586.9 290.2 587 289.5 587C288.9 587 288.3 586.8 287.9 586.4C287.5 586 287.3 585.5 287.3 584.7V581H286.3V579.7H287.4V577.6H289.2V579.7H291.3V581H289.2V584.4C289.2 584.7 289.3 585 289.4 585.1C289.5 585.2 289.7 585.3 290 585.3C290.3 585.3 290.6 585.2 291.1 585L291.4 586.5ZM295.9 579.5C297.1 579.5 298 579.8 298.6 580.5C299.2 581.2 299.5 582.1 299.5 583.4C299.5 583.6 299.5 583.8 299.5 583.9H294C294.1 584.4 294.4 584.9 294.7 585.2C295.1 585.5 295.6 585.6 296.1 585.6C296.5 585.6 296.8 585.5 297.2 585.4C297.6 585.3 297.9 585 298.1 584.8L299.1 585.8C298.7 586.2 298.3 586.5 297.7 586.8C297.2 587 296.6 587.1 295.9 587.1C295.1 587.1 294.5 586.9 293.9 586.6C293.3 586.3 292.9 585.8 292.6 585.3C292.3 584.7 292.1 584.1 292.1 583.3C292.1 582.5 292.3 581.9 292.6 581.3C292.9 580.7 293.4 580.3 294 580C294.5 579.6 295.2 579.5 295.9 579.5ZM297.8 582.7C297.8 582.1 297.6 581.7 297.3 581.4C297 581.1 296.5 580.9 295.9 580.9C295.4 580.9 294.9 581.1 294.6 581.4C294.2 581.7 294 582.2 293.9 582.7H297.8ZM308.9 587V586.1C308.6 586.4 308.3 586.7 307.9 586.8C307.5 587 307 587.1 306.5 587.1C306 587.1 305.5 587 305.1 586.8C304.7 586.6 304.4 586.3 304.2 586C304 585.6 303.9 585.2 303.9 584.8C303.9 584.1 304.1 583.6 304.6 583.2C305.1 582.8 305.8 582.6 306.7 582.6H308.9V582.4C308.9 582 308.8 581.6 308.5 581.4C308.2 581.2 307.8 581 307.2 581C306.5 581 305.7 581.2 305 581.7L304.3 580.4C304.9 580.1 305.4 579.8 305.9 579.7C306.4 579.6 306.9 579.5 307.6 579.5C308.6 579.5 309.3 579.7 309.9 580.2C310.4 580.7 310.7 581.3 310.7 582.2V587.1H308.9V587ZM306.9 585.7C307.4 585.7 307.9 585.6 308.2 585.3C308.6 585 308.8 584.7 308.8 584.4V583.7H307C306.5 583.7 306.2 583.8 305.9 583.9C305.7 584 305.6 584.3 305.6 584.6C305.6 584.9 305.7 585.2 306 585.4C306.2 585.6 306.5 585.7 306.9 585.7ZM317.9 581.9C317.4 581.3 316.7 581.1 315.9 581.1C315.3 581.1 314.8 581.3 314.4 581.7C314 582.1 313.8 582.6 313.8 583.3C313.8 584 314 584.5 314.4 584.9C314.8 585.3 315.3 585.5 315.9 585.5C316.8 585.5 317.5 585.2 317.9 584.6L319 585.5C318.7 586 318.2 586.4 317.7 586.6C317.1 586.9 316.5 587 315.8 587C315.1 587 314.4 586.8 313.8 586.5C313.2 586.2 312.8 585.7 312.5 585.2C312.2 584.6 312 584 312 583.2C312 582.4 312.2 581.8 312.5 581.2C312.8 580.6 313.3 580.2 313.8 579.9C314.4 579.6 315 579.4 315.8 579.4C316.5 579.4 317.1 579.5 317.6 579.8C318.1 580 318.6 580.4 318.9 580.8L317.9 581.9ZM325.6 581.9C325.1 581.3 324.4 581.1 323.6 581.1C323 581.1 322.5 581.3 322.1 581.7C321.7 582.1 321.5 582.6 321.5 583.3C321.5 584 321.7 584.5 322.1 584.9C322.5 585.3 323 585.5 323.6 585.5C324.5 585.5 325.2 585.2 325.6 584.6L326.7 585.5C326.4 586 325.9 586.4 325.4 586.6C324.8 586.9 324.2 587 323.5 587C322.8 587 322.1 586.8 321.5 586.5C320.9 586.2 320.5 585.7 320.2 585.2C319.9 584.6 319.7 584 319.7 583.2C319.7 582.4 319.9 581.8 320.2 581.2C320.5 580.6 321 580.2 321.5 579.9C322.1 579.6 322.7 579.4 323.5 579.4C324.2 579.4 324.8 579.5 325.3 579.8C325.8 580 326.3 580.4 326.6 580.8L325.6 581.9ZM331.3 579.5C332.1 579.5 332.8 579.7 333.3 580C333.9 580.3 334.4 580.8 334.7 581.3C335 581.9 335.2 582.5 335.2 583.3C335.2 584.1 335 584.7 334.7 585.3C334.4 585.9 333.9 586.3 333.3 586.6C332.7 586.9 332 587.1 331.3 587.1C330.5 587.1 329.8 586.9 329.2 586.6C328.6 586.3 328.1 585.8 327.8 585.3C327.5 584.7 327.3 584.1 327.3 583.3C327.3 582.6 327.5 581.9 327.8 581.3C328.1 580.7 328.6 580.3 329.2 580C329.8 579.6 330.5 579.5 331.3 579.5ZM331.3 581C330.7 581 330.2 581.2 329.8 581.6C329.4 582 329.2 582.6 329.2 583.2C329.2 583.8 329.4 584.4 329.8 584.8C330.2 585.2 330.7 585.4 331.3 585.4C331.9 585.4 332.4 585.2 332.8 584.8C333.2 584.4 333.4 583.8 333.4 583.2C333.4 582.6 333.2 582 332.8 581.6C332.4 581.2 331.9 581 331.3 581ZM343.8 579.5V587H342V585.6C341.5 586.6 340.6 587.1 339.4 587.1C338.6 587.1 337.9 586.8 337.4 586.3C336.9 585.8 336.7 585.1 336.7 584.2V579.5H338.5V583.7C338.5 584.2 338.6 584.6 338.9 584.9C339.2 585.2 339.6 585.3 340.1 585.3C340.7 585.3 341.1 585.1 341.5 584.7C341.8 584.3 342 583.8 342 583.2V579.5H343.8ZM350.5 579.4C351.4 579.4 352 579.7 352.5 580.2C353 580.7 353.2 581.4 353.2 582.3V587H351.4V582.9C351.4 582.4 351.3 582 351 581.7C350.7 581.4 350.3 581.2 349.8 581.2C349.2 581.2 348.7 581.4 348.4 581.8C348.1 582.2 347.9 582.7 347.9 583.3V587H346V579.5H347.8V580.9C348.4 579.9 349.3 579.5 350.5 579.4ZM359.7 586.5C359.1 586.9 358.5 587 357.8 587C357.2 587 356.6 586.8 356.2 586.4C355.8 586 355.6 585.5 355.6 584.7V581H354.6V579.7H355.7V577.6H357.5V579.7H359.6V581H357.5V584.4C357.5 584.7 357.6 585 357.7 585.1C357.8 585.2 358 585.3 358.3 585.3C358.6 585.3 358.9 585.2 359.4 585L359.7 586.5Z" fill="#2683FF"/>
<path d="M399 577.2H405.4V578.4H400.4V581.6H404.9V582.8H400.4V586.9H399V577.2ZM409.9 579.6C410.6 579.6 411.3 579.8 411.9 580.1C412.5 580.4 412.9 580.9 413.2 581.4C413.5 582 413.7 582.6 413.7 583.3C413.7 584 413.5 584.7 413.2 585.2C412.9 585.8 412.4 586.2 411.9 586.5C411.3 586.8 410.7 587 409.9 587C409.2 587 408.5 586.8 407.9 586.5C407.3 586.2 406.9 585.7 406.6 585.2C406.3 584.6 406.1 584 406.1 583.2C406.1 582.5 406.3 581.8 406.6 581.3C406.9 580.7 407.4 580.3 407.9 580C408.5 579.7 409.1 579.6 409.9 579.6ZM409.9 580.7C409.4 580.7 409 580.8 408.6 581C408.2 581.2 407.9 581.5 407.7 581.9C407.5 582.3 407.4 582.7 407.4 583.2C407.4 583.7 407.5 584.2 407.7 584.6C407.9 585 408.2 585.3 408.6 585.5C409 585.7 409.4 585.8 409.9 585.8C410.4 585.8 410.8 585.7 411.2 585.5C411.6 585.3 411.9 585 412.1 584.6C412.3 584.2 412.4 583.7 412.4 583.2C412.4 582.7 412.3 582.2 412.1 581.9C411.9 581.5 411.6 581.2 411.2 581C410.8 580.8 410.4 580.7 409.9 580.7ZM416.8 581.2C417 580.7 417.4 580.3 417.8 580C418.2 579.7 418.8 579.6 419.4 579.6V580.9C418.6 580.9 418 581.1 417.6 581.5C417.1 581.9 416.9 582.5 416.8 583.2V587.1H415.5V579.7H416.8V581.2ZM427.4 579.6V586.3C427.4 587 427.2 587.6 426.9 588.2C426.6 588.7 426.2 589.1 425.6 589.4C425 589.7 424.4 589.8 423.6 589.8C422.5 589.8 421.5 589.5 420.5 588.8L421.1 587.8C421.5 588.1 421.8 588.3 422.2 588.5C422.6 588.6 423 588.7 423.5 588.7C424.3 588.7 424.9 588.5 425.3 588.1C425.8 587.7 426 587.1 426 586.4V585.4C425.7 585.8 425.4 586.2 424.9 586.4C424.5 586.6 423.9 586.8 423.4 586.8C422.7 586.8 422.1 586.7 421.6 586.4C421.1 586.1 420.7 585.7 420.4 585.1C420.1 584.6 420 583.9 420 583.2C420 582.5 420.1 581.9 420.4 581.4C420.7 580.9 421.1 580.5 421.6 580.2C422.1 579.9 422.7 579.8 423.4 579.8C424 579.8 424.5 579.9 424.9 580.2C425.3 580.4 425.7 580.8 426 581.2V579.8H427.4V579.6ZM423.7 585.6C424.2 585.6 424.6 585.5 424.9 585.3C425.3 585.1 425.5 584.8 425.7 584.4C425.9 584 426 583.6 426 583.1C426 582.6 425.9 582.2 425.7 581.8C425.5 581.4 425.2 581.1 424.9 580.9C424.5 580.7 424.1 580.6 423.7 580.6C423.2 580.6 422.8 580.7 422.5 580.9C422.1 581.1 421.9 581.4 421.7 581.8C421.5 582.2 421.4 582.6 421.4 583.1C421.4 583.8 421.6 584.4 422.1 584.9C422.5 585.4 423 585.6 423.7 585.6ZM432.8 579.6C433.5 579.6 434.2 579.8 434.8 580.1C435.4 580.4 435.8 580.9 436.1 581.4C436.4 582 436.6 582.6 436.6 583.3C436.6 584 436.4 584.7 436.1 585.2C435.8 585.8 435.3 586.2 434.8 586.5C434.2 586.8 433.6 587 432.8 587C432.1 587 431.4 586.8 430.8 586.5C430.2 586.2 429.8 585.7 429.5 585.2C429.2 584.6 429 584 429 583.2C429 582.5 429.2 581.8 429.5 581.3C429.8 580.7 430.3 580.3 430.8 580C431.4 579.7 432.1 579.6 432.8 579.6ZM432.8 580.7C432.3 580.7 431.9 580.8 431.5 581C431.1 581.2 430.8 581.5 430.6 581.9C430.4 582.3 430.3 582.7 430.3 583.2C430.3 583.7 430.4 584.2 430.6 584.6C430.8 585 431.1 585.3 431.5 585.5C431.9 585.7 432.3 585.8 432.8 585.8C433.3 585.8 433.7 585.7 434.1 585.5C434.5 585.3 434.8 585 435 584.6C435.2 584.2 435.3 583.7 435.3 583.2C435.3 582.7 435.2 582.2 435 581.9C434.8 581.5 434.5 581.2 434.1 581C433.7 580.8 433.3 580.7 432.8 580.7ZM442.4 586.5C441.8 586.9 441.3 587 440.7 587C440.1 587 439.6 586.8 439.3 586.5C438.9 586.1 438.8 585.6 438.8 584.9V580.8H437.7V579.8H438.8V577.8H440.1V579.8H442.4V580.8H440V584.7C440 585.1 440.1 585.4 440.2 585.6C440.3 585.8 440.6 585.9 440.9 585.9C441.3 585.9 441.6 585.8 442 585.6L442.4 586.5ZM451.8 579.6C452.5 579.6 453.1 579.8 453.6 580.1C454.1 580.4 454.6 580.9 454.9 581.4C455.2 582 455.3 582.6 455.3 583.4C455.3 584.1 455.2 584.8 454.9 585.3C454.6 585.9 454.2 586.3 453.7 586.6C453.2 586.9 452.6 587.1 451.9 587.1C451.3 587.1 450.7 587 450.2 586.7C449.7 586.4 449.4 586.1 449.1 585.6V589.8H447.8V579.7H449.1V581.2C449.4 580.7 449.7 580.3 450.2 580.1C450.6 579.7 451.2 579.6 451.8 579.6ZM451.6 585.9C452.1 585.9 452.5 585.8 452.9 585.6C453.3 585.4 453.6 585.1 453.8 584.7C454 584.3 454.1 583.8 454.1 583.3C454.1 582.8 454 582.4 453.8 582C453.6 581.6 453.3 581.3 452.9 581.1C452.5 580.9 452.1 580.8 451.6 580.8C451.1 580.8 450.7 580.9 450.3 581.1C449.9 581.3 449.6 581.6 449.4 582C449.2 582.4 449.1 582.8 449.1 583.3C449.1 583.8 449.2 584.3 449.4 584.7C449.6 585.1 449.9 585.4 450.3 585.6C450.6 585.8 451.1 585.9 451.6 585.9ZM461.7 587V586C461.2 586.7 460.3 587.1 459.1 587.1C458.6 587.1 458.1 587 457.7 586.8C457.3 586.6 457 586.3 456.8 586C456.6 585.7 456.5 585.3 456.5 584.8C456.5 584.1 456.7 583.6 457.2 583.2C457.7 582.8 458.4 582.6 459.3 582.6H461.7V582.3C461.7 581.8 461.5 581.4 461.2 581.1C460.9 580.8 460.4 580.7 459.8 580.7C459.1 580.7 458.3 581 457.5 581.5L457 580.6C457.5 580.3 458 580 458.5 579.9C459 579.7 459.5 579.7 460.1 579.7C461 579.7 461.7 579.9 462.2 580.4C462.7 580.8 463 581.5 463 582.3V587.2H461.7V587ZM459.4 586C460 586 460.5 585.9 460.9 585.6C461.3 585.3 461.6 584.9 461.7 584.4V583.7H459.5C458.9 583.7 458.5 583.8 458.2 584C457.9 584.2 457.8 584.5 457.8 584.8C457.8 585.1 457.9 585.5 458.2 585.7C458.5 585.9 458.9 586 459.4 586ZM469.4 581.2C469.1 581 468.8 580.9 468.4 580.8C468 580.7 467.7 580.6 467.3 580.6C466.9 580.6 466.6 580.7 466.3 580.8C466.1 580.9 465.9 581.2 465.9 581.5C465.9 581.8 466 582 466.3 582.2C466.6 582.3 467 582.5 467.5 582.7C468 582.8 468.4 583 468.8 583.1C469.1 583.2 469.4 583.5 469.6 583.8C469.8 584.1 469.9 584.5 469.9 584.9C469.9 585.6 469.6 586.1 469.1 586.5C468.6 586.9 467.9 587 467.1 587C466.5 587 466 586.9 465.5 586.7C465 586.5 464.6 586.3 464.2 585.9L464.7 584.9C465 585.2 465.4 585.4 465.8 585.6C466.3 585.8 466.7 585.9 467.1 585.9C467.5 585.9 467.9 585.8 468.1 585.7C468.4 585.5 468.5 585.3 468.5 585C468.5 584.7 468.4 584.4 468.1 584.2C467.8 584 467.4 583.9 466.9 583.7C466.4 583.6 466 583.4 465.7 583.3C465.4 583.2 465.1 582.9 464.9 582.7C464.7 582.4 464.6 582.1 464.6 581.6C464.6 580.9 464.9 580.4 465.4 580C465.9 579.7 466.5 579.5 467.3 579.5C467.7 579.5 468.2 579.6 468.6 579.7C469 579.8 469.4 580 469.7 580.2L469.4 581.2ZM475.8 581.2C475.5 581 475.2 580.9 474.8 580.8C474.4 580.7 474.1 580.6 473.7 580.6C473.3 580.6 473 580.7 472.7 580.8C472.5 580.9 472.3 581.2 472.3 581.5C472.3 581.8 472.4 582 472.7 582.2C473 582.3 473.4 582.5 473.9 582.7C474.4 582.8 474.8 583 475.2 583.1C475.5 583.2 475.8 583.5 476 583.8C476.2 584.1 476.3 584.5 476.3 584.9C476.3 585.6 476 586.1 475.5 586.5C475 586.9 474.3 587 473.5 587C472.9 587 472.4 586.9 471.9 586.7C471.4 586.5 471 586.3 470.6 585.9L471.1 584.9C471.4 585.2 471.8 585.4 472.2 585.6C472.7 585.8 473.1 585.9 473.5 585.9C473.9 585.9 474.3 585.8 474.5 585.7C474.8 585.5 474.9 585.3 474.9 585C474.9 584.7 474.8 584.4 474.5 584.2C474.2 584 473.8 583.9 473.3 583.7C472.8 583.6 472.4 583.4 472.1 583.3C471.8 583.2 471.5 582.9 471.3 582.7C471.1 582.4 471 582.1 471 581.6C471 580.9 471.3 580.4 471.8 580C472.3 579.7 472.9 579.5 473.7 579.5C474.1 579.5 474.6 579.6 475 579.7C475.4 579.8 475.8 580 476.1 580.2L475.8 581.2ZM476.9 579.6H478.3L480.4 585.7L482.4 579.6H483.8L485.9 585.7L487.9 579.6H489.2L486.5 587H485.1L483.1 581.2L481.1 587H479.7L476.9 579.6ZM493.2 579.6C493.9 579.6 494.6 579.8 495.2 580.1C495.8 580.4 496.2 580.9 496.5 581.4C496.8 582 497 582.6 497 583.3C497 584 496.8 584.7 496.5 585.2C496.2 585.8 495.7 586.2 495.2 586.5C494.6 586.8 494 587 493.2 587C492.5 587 491.8 586.8 491.2 586.5C490.6 586.2 490.2 585.7 489.9 585.2C489.6 584.6 489.4 584 489.4 583.2C489.4 582.5 489.6 581.8 489.9 581.3C490.2 580.7 490.7 580.3 491.2 580C491.8 579.7 492.5 579.6 493.2 579.6ZM493.2 580.7C492.7 580.7 492.3 580.8 491.9 581C491.5 581.2 491.2 581.5 491 581.9C490.8 582.3 490.7 582.7 490.7 583.2C490.7 583.7 490.8 584.2 491 584.6C491.2 585 491.5 585.3 491.9 585.5C492.3 585.7 492.7 585.8 493.2 585.8C493.7 585.8 494.1 585.7 494.5 585.5C494.9 585.3 495.2 585 495.4 584.6C495.6 584.2 495.7 583.7 495.7 583.2C495.7 582.7 495.6 582.2 495.4 581.9C495.2 581.5 494.9 581.2 494.5 581C494.1 580.8 493.7 580.7 493.2 580.7ZM500.2 581.2C500.4 580.7 500.8 580.3 501.2 580C501.6 579.7 502.2 579.6 502.8 579.6V580.9C502 580.9 501.4 581.1 501 581.5C500.5 581.9 500.3 582.5 500.2 583.2V587.1H498.9V579.7H500.2V581.2ZM511.1 576.6V587H509.8V585.5C509.5 586 509.1 586.4 508.7 586.6C508.2 586.9 507.7 587 507.1 587C506.4 587 505.8 586.8 505.2 586.5C504.7 586.2 504.3 585.7 504 585.2C503.7 584.6 503.6 584 503.6 583.2C503.6 582.5 503.7 581.8 504 581.3C504.3 580.7 504.7 580.3 505.2 580C505.7 579.7 506.4 579.5 507 579.5C507.6 579.5 508.2 579.6 508.7 579.9C509.2 580.2 509.5 580.5 509.8 581V576.5L511.1 576.6ZM507.3 586C507.8 586 508.2 585.9 508.6 585.7C509 585.5 509.3 585.2 509.5 584.8C509.7 584.4 509.8 583.9 509.8 583.4C509.8 582.9 509.7 582.4 509.5 582C509.3 581.6 509 581.3 508.6 581.1C508.2 580.9 507.8 580.8 507.3 580.8C506.8 580.8 506.4 580.9 506 581.1C505.6 581.3 505.3 581.6 505.1 582C504.9 582.4 504.8 582.9 504.8 583.4C504.8 583.9 504.9 584.4 505.1 584.8C505.3 585.2 505.6 585.5 506 585.7C506.4 585.8 506.8 586 507.3 586Z" fill="#2683FF"/>
<path d="M1117.6 323V125C1117.6 119 1115.2 113.7 1111.2 109.7C1107.2 105.8 1101.9 103.3 1095.9 103.3C1089.9 103.3 1084.5 105.7 1080.6 109.7C1076.6 113.6 1074.2 119 1074.2 125C1074.2 134.4 1070.4 142.8 1064.2 149C1058 155.2 1049.5 159 1040.1 159C1030.7 159 1022.2 155.2 1016 149C1009.8 142.8 1006 134.3 1006 125V62H1018.4V125C1018.4 131 1020.8 136.3 1024.8 140.3C1028.8 144.2 1034.2 146.7 1040.1 146.7C1046.1 146.7 1051.5 144.3 1055.4 140.3C1059.4 136.4 1061.8 130.9 1061.8 125C1061.8 115.6 1065.6 107.2 1071.8 101C1078 94.8 1086.5 91 1095.9 91C1105.3 91 1113.8 94.8 1120 101C1126.2 107.2 1130 115.7 1130 125V323H1117.6Z" fill="#007AFF"/>
<path d="M510.4 706V753C510.4 759 512.8 764.3 516.8 768.3C520.8 772.2 526.1 774.7 532.1 774.7C538.1 774.7 543.5 772.3 547.4 768.3C551.4 764.4 553.8 759 553.8 753C553.8 743.6 557.6 735.2 563.8 729C570 722.8 578.5 719 587.9 719C597.3 719 605.8 722.8 612 729C618.2 735.2 622 743.7 622 753V900H609.6V753C609.6 747 607.2 741.7 603.2 737.7C599.2 733.8 593.8 731.3 587.9 731.3C581.9 731.3 576.5 733.7 572.6 737.7C568.6 741.6 566.2 747.1 566.2 753C566.2 762.4 562.4 770.8 556.2 777C550 783.2 541.5 787 532.1 787C522.7 787 514.2 783.2 508 777C501.8 770.8 498 762.3 498 753V706H510.4Z" fill="#007AFF"/>
<path d="M1315 560H1162V823H1315V560Z" fill="#0062FF"/>
<path d="M986.4 283.1C985.6 283.1 984.9 283.1 984.2 283.2C982.8 283.2 981.6 282.5 980.9 281.3C965.1 252.5 934.4 233 899.1 233C867.1 233 838.9 249 822.1 273.4C821.3 274.6 819.8 275.2 818.4 274.9C814.2 274 809.9 273.5 805.4 273.5C772.6 273.5 746 300 746 332.6C746 332.6 746 332.6 746 332.7C746 334.6 747.6 336.2 749.5 336.2H1032.4C1034.3 336.2 1035.9 334.6 1035.9 332.7V332.6C1036 305.2 1013.8 283.1 986.4 283.1Z" fill="#DEDEFC"/>
<path d="M480.2 839.8C479.3 839.8 478.5 839.8 477.7 839.9C476.2 840 474.7 839.2 474 837.8C456.1 805.1 421.1 782.8 380.9 782.8C344.5 782.8 312.4 801 293.4 828.7C292.5 830.1 290.8 830.7 289.1 830.4C284.3 829.4 279.4 828.8 274.3 828.8C237 828.9 206.8 858.9 206.8 896C206.8 896 206.8 896 206.8 896.1C206.8 898.3 208.6 900 210.8 900H532.6C534.8 900 536.6 898.2 536.6 896.1V896C536.6 865 511.3 839.8 480.2 839.8Z" fill="#007AFF"/>
<path d="M1322.5 654C1433.8 654 1524 563.6 1524 452C1524 340.4 1433.8 250 1322.5 250C1211.2 250 1121 340.4 1121 452C1121 563.6 1211.2 654 1322.5 654Z" fill="white"/>
<path d="M1280 651C1232.4 639.3 1191.1 611.5 1162 573.9V422.4C1162 420.4 1162.8 418.4 1164.3 416.9L1221 359.9H1280V419.1V651Z" fill="#499FFC"/>
<path d="M1162 562.8H1051.7C1046.3 562.8 1041.4 560.6 1037.8 557C1034.2 553.5 1032 548.6 1032 543.2C1032 537.8 1034.2 532.9 1037.8 529.4C1041.3 525.9 1046.3 523.6 1051.7 523.6C1060.2 523.6 1067.9 520.1 1073.5 514.6C1079.1 509 1082.6 501.3 1082.6 492.9C1082.6 484.4 1079.1 476.7 1073.5 471.2C1067.9 465.6 1060.2 462.2 1051.7 462.2H719.5V473.4C849.2 473.4 921.9 473.4 1051.7 473.4C1057.1 473.4 1062 475.6 1065.6 479.2C1069.1 482.7 1071.4 487.6 1071.4 493C1071.4 498.4 1069.2 503.3 1065.6 506.8C1062.1 510.3 1057.1 512.6 1051.7 512.6C1043.2 512.6 1035.5 516.1 1029.9 521.6C1024.3 527.2 1020.8 534.9 1020.8 543.3C1020.8 551.8 1024.3 559.5 1029.9 565C1035.5 570.6 1043.2 574 1051.7 574H1162V562.8Z" fill="white"/>
<path d="M1316 657C1280.6 654.5 1247.6 643.3 1219 625.7V422.5C1219 420.5 1219.8 418.5 1221.3 417L1278.1 360H1314.8L1316 657Z" fill="#2683FF"/>
<path d="M1175 429H1167V446H1175V429Z" fill="#F7F9F9"/>
<path d="M1192 429H1183V446H1192V429Z" fill="#F7F9F9"/>
<path d="M1208 429H1199V446H1208V429Z" fill="#F7F9F9"/>
<path d="M1175 455H1167V473H1175V455Z" fill="#F7F9F9"/>
<path d="M1192 455H1183V473H1192V455Z" fill="#F7F9F9"/>
<path d="M1208 455H1199V473H1208V455Z" fill="#F7F9F9"/>
<path d="M1175 482H1167V499H1175V482Z" fill="#F7F9F9"/>
<path d="M1192 482H1183V499H1192V482Z" fill="#F7F9F9"/>
<path d="M1208 482H1199V499H1208V482Z" fill="#F7F9F9"/>
<path d="M1175 508H1167V525H1175V508Z" fill="#F7F9F9"/>
<path d="M1192 508H1183V525H1192V508Z" fill="#F7F9F9"/>
<path d="M1208 508H1199V525H1208V508Z" fill="#F7F9F9"/>
<path d="M1175 534H1167V551H1175V534Z" fill="#F7F9F9"/>
<path d="M1192 534H1183V551H1192V534Z" fill="#F7F9F9"/>
<path d="M1208 534H1199V551H1208V534Z" fill="#F7F9F9"/>
<path d="M1192 560H1183V577H1192V560Z" fill="#F7F9F9"/>
<path d="M1208 560H1199V577H1208V560Z" fill="#F7F9F9"/>
<path d="M969.2 513H991.8C994.1 513 996 511.2 996 509C996 506.8 994.1 505 991.8 505H969.2C966.9 505 965 506.8 965 509C965 511.2 966.9 513 969.2 513Z" fill="#0F002D"/>
<path d="M969.1 497H1008.8C1011.1 497 1013 495 1013 492.5C1013 490 1011.1 488 1008.8 488H969.2C966.9 488 965 490 965 492.5C965 495 966.8 497 969.1 497Z" fill="#0F002D"/>
<path d="M1024.2 497H1026.9C1029.2 497 1031.1 495 1031.1 492.5C1031.1 490 1029.3 488 1026.9 488H1024.2C1021.9 488 1020 490 1020 492.5C1020 495 1021.8 497 1024.2 497Z" fill="#6CB9FF"/>
<path d="M1040.2 497H1042.9C1045.2 497 1047.1 495 1047.1 492.5C1047.1 490 1045.3 488 1042.9 488H1040.2C1037.9 488 1036 490 1036 492.5C1036 495 1037.8 497 1040.2 497Z" fill="#6CB9FF"/>
<path d="M1022 28H966V123H1022V28Z" fill="#499FFC"/>
<path d="M1037 0H951V50H1037V0Z" fill="#0F002D"/>
<path d="M1041 133.9V141.1C1041 166.4 1020.5 187 995.5 187C970.5 187 950 166.4 950 141.1V133.9C950 108.6 970.5 88 995.5 88C1020.5 88 1041 108.7 1041 133.9Z" fill="#499FFC"/>
<path d="M1022 179.1V232.9C1022 241.2 1015.2 248 1007 248C998.7 248 992 241.2 992 232.9V179.1C992 170.8 998.8 164 1007 164C1015.2 163.9 1022 170.8 1022 179.1Z" fill="#499FFC"/>
<path d="M979 166.8V181.2C979 188.3 973.2 194 966 194C958.8 194 953 188.3 953 181.2V166.8C953 159.7 958.8 154 966 154C973.2 154 979 159.7 979 166.8Z" fill="#6CB9FF"/>
<path d="M963 156.6V167.4C963 172.7 958.5 177 953 177C947.5 177 943 172.7 943 167.4V156.6C943 151.3 947.5 147 953 147C958.5 147 963 151.3 963 156.6Z" fill="#6CB9FF"/>
<path d="M998 179.3V194.7C998 202.5 991.5 209 983.5 209C975.5 209 969 202.6 969 194.7V179.3C969 171.4 975.5 165 983.5 165C991.5 165 998 171.4 998 179.3Z" fill="#6CB9FF"/>
<path d="M1042.4 121.7L1043 170.1C1043.1 178.5 1036.3 185.6 1028 185.9C1019.7 186.2 1012.7 179.6 1012.6 171.2L1012 122.8C1011.9 114.4 1018.7 107.3 1027 107C1035.3 106.7 1042.3 113.3 1042.4 121.7Z" fill="#6CB9FF"/>
<path d="M1037.6 182.8L1027.4 195.5C1022.2 201.9 1012.8 202.9 1006.4 197.6C1000.1 192.3 999.2 182.7 1004.4 176.2L1014.6 163.5C1019.8 157.1 1029.2 156.1 1035.6 161.4C1041.9 166.7 1042.8 176.4 1037.6 182.8Z" fill="#6CB9FF"/>
<path d="M988 121.5C988 136.1 999.9 148 1014.5 148C1029.1 148 1041 136.1 1041 121.5C1041 106.9 1029.1 95 1014.5 95C999.9 95 988 106.9 988 121.5Z" fill="#6CB9FF"/>
<path d="M997.7 267.4C996.1 266.4 994 267.6 994 269.6V271.6V274.5C994 275.4 994.4 276.2 995.2 276.7L1005.3 282.7C1006.1 283.2 1007 283.2 1007.8 282.7L1017.9 276.7C1018.7 276.2 1019.1 275.4 1019.1 274.5V271.6V269.6C1019.1 267.6 1017 266.5 1015.4 267.4L1007.8 271.9C1007 272.4 1006.1 272.4 1005.3 271.9L997.7 267.4Z" fill="#0F002D"/>
<path d="M997.7 286.4C996.1 285.4 994 286.6 994 288.6V290.6V293.5C994 294.4 994.4 295.2 995.2 295.7L1005.3 301.7C1006.1 302.2 1007 302.2 1007.8 301.7L1017.9 295.7C1018.7 295.2 1019.1 294.4 1019.1 293.5V290.6V288.6C1019.1 286.6 1017 285.5 1015.4 286.4L1007.8 290.9C1007 291.4 1006.1 291.4 1005.3 290.9L997.7 286.4Z" fill="#0F002D"/>
<path d="M1315 0H1221V360H1315V0Z" fill="#499FFC"/>
<path d="M1301.4 814.7C1299 814.7 1296.6 814.8 1294.3 815.1C1269.5 766.9 1219.3 734 1161.4 734C1108.7 734 1062.5 761.2 1035.9 802.4C1028.1 800.3 1019.8 799.2 1011.3 799.2C958.7 799.2 916.1 841.8 916.1 894.4C916.1 896.3 916.2 898.2 916.3 900.1H1380.9C1381 898.2 1381.1 896.4 1381.1 894.4C1381 850.4 1345.4 814.7 1301.4 814.7Z" fill="white"/>
<path d="M1279.2 343H1301.8C1304.1 343 1306 341.2 1306 339C1306 336.8 1304.1 335 1301.8 335H1279.2C1276.9 335 1275 336.8 1275 339C1275 341.2 1276.9 343 1279.2 343Z" fill="white"/>
<path d="M1279.3 327H1285.7C1288.1 327 1290 325 1290 322.5C1290 320 1288.1 318 1285.7 318H1279.3C1276.9 318 1275 320 1275 322.5C1275 325 1276.9 327 1279.3 327Z" fill="white"/>
<path d="M1279.3 311H1285.7C1288.1 311 1290 309.2 1290 307C1290 304.8 1288.1 303 1285.7 303H1279.3C1276.9 303 1275 304.8 1275 307C1275 309.2 1276.9 311 1279.3 311Z" fill="#0F002D"/>
<path d="M840 512C841.7 512 843 510.4 843 508.5C843 506.6 841.7 505 840 505C838.3 505 837 506.6 837 508.5C837 510.4 838.3 512 840 512Z" fill="#DEDEFC"/>
<path d="M870.9 529.3C871.6 528.6 872 527.7 872 526.7V484.3C872 482.3 870.4 480.7 868.4 480.7H858.4V470.6C858.4 460.3 850.1 451.9 839.9 451.9C829.7 451.9 821.4 460.3 821.4 470.6V480.7H811.5C809.5 480.7 807.9 482.3 807.9 484.3V526.7C807.9 527.7 808.3 528.6 809 529.3L823 543C823.7 543.7 824.6 544 825.5 544H854.3C855.2 544 856.1 543.6 856.8 543L870.9 529.3ZM843.5 518.4V523C843.5 525 841.9 526.6 839.9 526.6C837.9 526.6 836.3 525 836.3 523V518.4C832.4 516.9 829.6 513.1 829.6 508.6C829.6 502.9 834.2 498.2 839.9 498.2C845.6 498.2 850.2 502.9 850.2 508.6C850.3 513.1 847.5 516.9 843.5 518.4ZM851.4 480.7H828.7V470.6C828.7 464.3 833.8 459.1 840 459.1C846.2 459.1 851.3 464.3 851.3 470.6L851.4 480.7Z" fill="#DEDEFC"/>
<path d="M766.7 427.7L763.1 424.2C764.3 423 765.6 421.8 766.9 420.7L770.3 424.4C769.1 425.4 767.8 426.5 766.7 427.7ZM774 421.1L770.8 417.3C772.1 416.2 773.5 415.2 774.9 414.2L777.9 418.2C776.6 419.1 775.3 420.1 774 421.1ZM782 415.3L779.2 411.2C780.6 410.3 782.1 409.4 783.6 408.5L786.2 412.8C784.8 413.5 783.3 414.4 782 415.3ZM889.5 412.6C888.2 411.9 886.9 411.1 885.6 410.5L888 406.1C889.4 406.8 890.7 407.6 892.1 408.4L889.5 412.6ZM790.5 410.3L788.1 405.9C789.6 405.1 791.2 404.3 792.7 403.6L794.9 408.1C793.4 408.8 791.9 409.6 790.5 410.3ZM881.2 408.2C879.7 407.5 878.2 406.9 876.7 406.2L878.6 401.6C880.2 402.2 881.8 402.9 883.4 403.7L881.2 408.2ZM799.4 406.2L797.5 401.6C799.1 401 800.7 400.4 802.4 399.8L804.1 404.5C802.5 405 801 405.5 799.4 406.2ZM872.1 404.5C870.6 404 869 403.5 867.4 403L868.9 398.2C870.6 398.7 872.2 399.2 873.8 399.8L872.1 404.5ZM808.7 402.9L807.2 398.1C808.9 397.6 810.6 397.2 812.2 396.8L813.4 401.6C811.9 402 810.4 402.4 808.7 402.9ZM862.6 401.6C861 401.2 859.4 400.9 857.8 400.6L858.8 395.7C860.5 396 862.2 396.4 863.9 396.8L862.6 401.6ZM818.4 400.5L817.4 395.6C819.1 395.3 820.8 395 822.5 394.8L823.2 399.7C821.6 399.9 820 400.2 818.4 400.5ZM852.9 399.7C851.3 399.5 849.6 399.3 848 399.1L848.5 394.1C850.2 394.2 852 394.5 853.7 394.7L852.9 399.7ZM828.2 399.1L827.7 394.1C829.4 394 831.2 393.8 832.9 393.8L833.2 398.8C831.5 398.8 829.8 399 828.2 399.1ZM843 398.8C841.4 398.7 839.7 398.7 838 398.7V393.7C839.7 393.7 841.5 393.7 843.2 393.8L843 398.8Z" fill="white"/>
<path d="M839.9 603.7L839.8 598.7C841.4 598.7 843.1 598.6 844.7 598.5L845 603.5C843.4 603.6 841.6 603.7 839.9 603.7ZM834.7 603.6C833 603.5 831.2 603.4 829.5 603.3L829.9 598.3C831.5 598.5 833.2 598.5 834.8 598.6L834.7 603.6ZM850.3 603L849.7 598C851.3 597.8 853 597.6 854.6 597.3L855.4 602.3C853.7 602.6 852 602.8 850.3 603ZM824.4 602.8C822.7 602.6 820.9 602.3 819.3 602L820.2 597.1C821.8 597.4 823.4 597.7 825.1 597.9L824.4 602.8ZM860.6 601.4L859.5 596.5C861.1 596.1 862.7 595.7 864.3 595.3L865.6 600.2C863.9 600.6 862.2 601 860.6 601.4ZM814.1 601C812.4 600.6 810.8 600.2 809.1 599.7L810.5 594.9C812.1 595.4 813.7 595.8 815.3 596.1L814.1 601ZM870.6 598.7L869 593.9C870.6 593.4 872.1 592.8 873.7 592.3L875.5 597C873.9 597.6 872.2 598.1 870.6 598.7ZM804.1 598.1C802.5 597.5 800.8 596.9 799.2 596.3L801.1 591.6C802.6 592.2 804.2 592.8 805.8 593.3L804.1 598.1ZM880.3 595L878.3 590.4C879.8 589.7 881.3 589 882.8 588.3L885 592.8C883.4 593.6 881.9 594.4 880.3 595ZM794.5 594.4C792.9 593.7 791.4 592.9 789.8 592.1L792.1 587.6C793.6 588.4 795 589.1 796.6 589.7L794.5 594.4ZM889.6 590.5L887.1 586.1C888.5 585.3 889.9 584.5 891.4 583.6L894.1 587.9C892.6 588.8 891.1 589.6 889.6 590.5ZM785.2 589.6C783.7 588.7 782.2 587.8 780.8 586.9L783.5 582.7C784.9 583.6 786.3 584.5 787.7 585.3L785.2 589.6ZM898.4 585L895.5 580.9C896.9 580 898.2 579 899.5 578L902.6 582C901.2 583.1 899.8 584.1 898.4 585ZM776.5 584.1C775.1 583.1 773.7 582 772.3 581L775.4 577.1C776.7 578.1 778 579.1 779.4 580.1L776.5 584.1ZM906.6 578.8L903.3 575C904.6 573.9 905.8 572.8 907 571.7L910.5 575.4C909.2 576.5 908 577.7 906.6 578.8ZM768.4 577.6C767.6 576.9 766.8 576.2 766.1 575.5L769.6 571.8C770.3 572.5 771.1 573.1 771.8 573.8L768.4 577.6ZM914.2 571.7L910.5 568.2C911.7 567 912.8 565.8 913.8 564.6L917.6 567.9C916.6 569.2 915.4 570.5 914.2 571.7ZM921 563.9L917 560.8C918 559.5 919 558.2 920 556.9L924.1 559.8C923.2 561.2 922.1 562.6 921 563.9ZM927.1 555.6L922.8 552.9C923.7 551.5 924.6 550.1 925.4 548.7L929.8 551.2C929 552.7 928 554.1 927.1 555.6ZM932.3 546.6L927.8 544.3C928.6 542.8 929.3 541.4 929.9 539.9L934.5 542C933.8 543.6 933.1 545.1 932.3 546.6ZM936.6 537.2L931.9 535.3C932.5 533.8 933.1 532.2 933.6 530.7L938.4 532.3C937.8 534 937.2 535.7 936.6 537.2ZM939.9 527.5L935 526.1C935.5 524.5 935.9 522.9 936.2 521.4L941.1 522.5C940.8 524.1 940.4 525.8 939.9 527.5ZM942.3 517.4L937.3 516.5C937.6 514.9 937.9 513.3 938.1 511.7L943.1 512.4C942.8 514 942.6 515.7 942.3 517.4Z" fill="white"/>
<path d="M902.9 872C901.3 872 900 870.6 900 869C900.8 846.5 910.4 826.1 925.5 811.2C940.6 796.3 961.2 786.8 984 786C985.6 786 987 787.3 987 788.9V814.5C987 816.1 985.8 817.3 984.2 817.4C970.1 818.1 957.3 824.1 947.9 833.4C938.5 842.7 932.4 855.3 931.7 869.3C931.6 870.9 930.3 872.1 928.8 872.1H902.9V872Z" fill="#DEDEFC"/>
<path d="M985.5 813C991.3 813 996 808.3 996 802.5C996 796.7 991.3 792 985.5 792C979.7 792 975 796.7 975 802.5C975 808.3 979.7 813 985.5 813Z" fill="#499FFC"/>
<path d="M981.5 871C984.5 871 987 868.5 987 865.5C987 862.5 984.5 860 981.5 860C978.5 860 976 862.5 976 865.5C976 868.5 978.5 871 981.5 871Z" fill="#0F002D"/>
<path d="M1113.1 859.7V877.8C1113.1 878.5 1112.5 879 1111.9 879H1102.2C1101.6 879 1101 878.4 1101 877.8V861.3C1101 860.7 1101.4 860.2 1102 860.1C1104 859.7 1108.4 858.9 1111.7 858.4C1112.4 858.4 1113.1 858.9 1113.1 859.7ZM1133.2 857C1133.8 857 1134.4 857.6 1134.4 858.2V877.8C1134.4 878.5 1133.8 879 1133.2 879H1123.5C1122.8 879 1122.3 878.4 1122.3 877.8V858.5C1122.3 857.8 1122.8 857.3 1123.5 857.3C1125.6 857.2 1130.4 857 1133.2 857ZM1155.7 859.7V877.8C1155.7 878.5 1155.1 879 1154.5 879H1144.8C1144.2 879 1143.6 878.4 1143.6 877.8V858.7C1143.6 858 1144.2 857.4 1144.9 857.5C1147.1 857.7 1151.5 858.1 1154.5 858.5C1155.2 858.6 1155.7 859.1 1155.7 859.7ZM1166.4 860.6C1169.7 861.3 1172.9 862.2 1176.1 863.1C1176.6 863.3 1177 863.8 1177 864.3V877.9C1177 878.6 1176.4 879.1 1175.8 879.1H1166.1C1165.4 879.1 1164.9 878.5 1164.9 877.9V861.8C1164.9 861 1165.6 860.4 1166.4 860.6Z" fill="#007AFF"/>
<path d="M1381 901V888H1103C1101.9 888 1101 888.8 1101 889.9V899.1C1101 900.2 1101.9 901 1103 901H1381Z" fill="#DEDEFC"/>
<path d="M855.5 195C860.2 195 864 191 864 186C864 181 860.2 177 855.5 177C850.8 177 847 181 847 186C847 190.9 850.8 195 855.5 195Z" fill="white"/>
<path d="M880.5 195C885.2 195 889 191 889 186C889 181 885.2 177 880.5 177C875.8 177 872 181 872 186C872 190.9 875.8 195 880.5 195Z" fill="white"/>
<path d="M855.5 166C860.2 166 864 162.2 864 157.5C864 152.8 860.2 149 855.5 149C850.8 149 847 152.8 847 157.5C847 162.1 850.8 166 855.5 166Z" fill="#6CB9FF"/>
<path d="M880.5 166C885.2 166 889 162.2 889 157.5C889 152.8 885.2 149 880.5 149C875.8 149 872 152.8 872 157.5C872 162.1 875.8 166 880.5 166Z" fill="#6CB9FF"/>
<path d="M830.5 136C835.2 136 839 132.2 839 127.5C839 122.8 835.2 119 830.5 119C825.8 119 822 122.8 822 127.5C822 132.2 825.8 136 830.5 136Z" fill="white"/>
<path d="M855.5 136C860.2 136 864 132.2 864 127.5C864 122.8 860.2 119 855.5 119C850.8 119 847 122.8 847 127.5C847 132.2 850.8 136 855.5 136Z" fill="white"/>
<path d="M880.5 136C885.2 136 889 132.2 889 127.5C889 122.8 885.2 119 880.5 119C875.8 119 872 122.8 872 127.5C872 132.2 875.8 136 880.5 136Z" fill="white"/>
<path d="M1175.5 269C1184 269 1191 261.8 1191 253C1191 244.2 1184 237 1175.5 237C1167 237 1160 244.2 1160 253C1159.9 261.8 1167 269 1175.5 269Z" fill="#6CB9FF"/>
<path d="M1175 260C1178.8 260 1182 256.9 1182 253C1182 249.2 1178.9 246 1175 246C1171.2 246 1168 249.1 1168 253C1168 256.8 1171.1 260 1175 260Z" fill="#0F002D"/>
<path d="M718.2 781.1C718.2 785.8 722.2 789.6 727.2 789.6C732.2 789.6 736.2 785.8 736.2 781.1C736.2 776.4 732.2 772.6 727.2 772.6C722.3 772.6 718.2 776.4 718.2 781.1Z" fill="white"/>
<path d="M718.2 806.1C718.2 810.8 722.2 814.6 727.2 814.6C732.2 814.6 736.2 810.8 736.2 806.1C736.2 801.4 732.2 797.6 727.2 797.6C722.3 797.6 718.2 801.4 718.2 806.1Z" fill="white"/>
<path d="M747.2 806.1C747.2 810.8 751 814.6 755.7 814.6C760.4 814.6 764.2 810.8 764.2 806.1C764.2 801.4 760.4 797.6 755.7 797.6C751 797.6 747.2 801.4 747.2 806.1Z" fill="#6CB9FF"/>
<path d="M966.4 704.6C974.9 704.6 981.9 697.4 981.9 688.6C981.9 679.8 974.9 672.6 966.4 672.6C957.9 672.6 950.9 679.8 950.9 688.6C950.8 697.5 957.8 704.6 966.4 704.6Z" fill="#499FFC"/>
<path d="M965.9 695.6C969.7 695.6 972.9 692.5 972.9 688.6C972.9 684.8 969.8 681.6 965.9 681.6C962.1 681.6 958.9 684.7 958.9 688.6C958.9 692.5 962 695.6 965.9 695.6Z" fill="#007AFF"/>
</g>
<defs>
<clipPath id="clip0">
<rect width="1280" height="900" fill="white"/>
</clipPath>
</defs>
</svg>
