<svg width="1920" height="1035" viewBox="0 0 1920 1035" fill="none" xmlns="http://www.w3.org/2000/svg">
<g clip-path="url(#clip0)">
<rect width="1920" height="1035" fill="#F2F2F3"/>
<rect width="1920" height="1035" fill="#2683FF"/>
<g clip-path="url(#clip1)">
<path d="M1102.39 1034.73L1488.11 369.055H1526.74L2001.23 374.343L2000.88 1034.73L1228.97 1033.7L1102.39 1034.73Z" fill="#007AFF"/>
<path d="M633.999 666.829C633.654 666.369 633.079 666.024 632.619 665.794C632.044 665.564 631.584 665.449 631.009 665.449C630.32 665.449 629.63 665.564 629.055 665.909C628.48 666.254 628.02 666.714 627.675 667.289C627.33 667.863 627.215 668.553 627.215 669.243C627.215 669.933 627.33 670.623 627.675 671.198C628.02 671.772 628.48 672.232 629.055 672.577C629.63 672.922 630.32 673.037 631.009 673.037C631.584 673.037 632.044 672.922 632.619 672.692C633.194 672.462 633.654 672.117 634.114 671.657L635.378 673.037C634.803 673.612 634.114 674.072 633.309 674.417C632.504 674.762 631.699 674.877 630.895 674.877C629.86 674.877 628.825 674.647 627.905 674.072C626.986 673.497 626.296 672.807 625.836 672.002C625.376 671.083 625.031 670.163 625.031 669.013C625.031 667.863 625.261 666.944 625.836 666.139C626.411 665.219 627.1 664.529 628.02 664.069C628.94 663.61 629.975 663.265 631.009 663.265C631.814 663.265 632.619 663.38 633.424 663.724C634.229 664.069 634.803 664.529 635.378 665.104L633.999 666.829ZM639.057 667.978C639.402 667.404 639.747 666.944 640.207 666.714C640.667 666.369 641.242 666.254 641.932 666.254V668.323C641.012 668.323 640.322 668.438 639.747 668.898C639.172 669.358 638.942 669.933 638.942 670.738V674.877H636.873V666.254H638.942V667.978H639.057ZM646.99 666.254C648.37 666.254 649.405 666.599 650.095 667.404C650.784 668.208 651.129 669.243 651.129 670.738C651.129 670.968 651.129 671.198 651.129 671.313H644.806C644.921 671.887 645.266 672.462 645.611 672.807C646.071 673.152 646.53 673.267 647.22 673.267C647.68 673.267 648.025 673.152 648.485 673.037C648.945 672.922 649.29 672.577 649.52 672.347L650.669 673.497C650.21 673.957 649.75 674.302 649.06 674.647C648.485 674.877 647.795 674.992 646.99 674.992C646.071 674.992 645.381 674.762 644.691 674.417C644.001 674.072 643.541 673.497 643.196 672.922C642.851 672.232 642.621 671.542 642.621 670.623C642.621 669.703 642.851 669.013 643.196 668.323C643.541 667.633 644.116 667.174 644.806 666.829C645.381 666.369 646.186 666.254 646.99 666.254ZM649.29 669.933C649.29 669.243 649.06 668.783 648.715 668.438C648.37 668.093 647.795 667.863 647.105 667.863C646.53 667.863 645.956 668.093 645.611 668.438C645.151 668.783 644.921 669.358 644.806 669.933H649.29ZM658.028 674.877V673.842C657.683 674.187 657.338 674.532 656.878 674.647C656.418 674.877 655.843 674.992 655.268 674.992C654.693 674.992 654.119 674.877 653.659 674.647C653.199 674.417 652.854 674.072 652.624 673.727C652.394 673.267 652.279 672.807 652.279 672.347C652.279 671.542 652.509 670.968 653.084 670.508C653.659 670.048 654.463 669.818 655.498 669.818H658.028V669.588C658.028 669.128 657.913 668.668 657.568 668.438C657.223 668.208 656.763 667.978 656.073 667.978C655.268 667.978 654.348 668.208 653.544 668.783L652.739 667.289C653.429 666.944 654.004 666.599 654.578 666.484C655.153 666.369 655.843 666.254 656.533 666.254C657.683 666.254 658.487 666.484 659.177 667.059C659.752 667.634 660.097 668.323 660.097 669.358V674.992H658.028V674.877ZM655.728 673.382C656.303 673.382 656.878 673.267 657.223 672.922C657.683 672.577 657.913 672.232 657.913 671.887V671.083H655.728C655.153 671.083 654.808 671.198 654.463 671.313C654.233 671.428 654.118 671.772 654.118 672.117C654.118 672.462 654.233 672.807 654.578 673.037C654.923 673.267 655.268 673.382 655.728 673.382ZM667.455 674.302C666.765 674.762 666.075 674.877 665.271 674.877C664.581 674.877 663.891 674.647 663.431 674.187C662.971 673.727 662.741 673.152 662.741 672.232V667.978H661.592V666.484H662.856V664.069H664.926V666.484H667.34V667.978H664.926V671.887C664.926 672.232 665.041 672.577 665.156 672.692C665.271 672.807 665.501 672.922 665.845 672.922C666.19 672.922 666.535 672.807 667.11 672.577L667.455 674.302ZM672.629 666.254C674.008 666.254 675.043 666.599 675.733 667.404C676.423 668.208 676.768 669.243 676.768 670.738C676.768 670.968 676.768 671.198 676.768 671.313H670.444C670.559 671.887 670.904 672.462 671.249 672.807C671.709 673.152 672.284 673.267 672.859 673.267C673.319 673.267 673.663 673.152 674.123 673.037C674.583 672.922 674.928 672.577 675.158 672.347L676.308 673.497C675.848 673.957 675.388 674.302 674.698 674.647C674.123 674.877 673.434 674.992 672.629 674.992C671.709 674.992 671.019 674.762 670.329 674.417C669.64 674.072 669.18 673.497 668.835 672.922C668.49 672.232 668.26 671.542 668.26 670.623C668.26 669.703 668.49 669.013 668.835 668.323C669.18 667.633 669.754 667.174 670.444 666.829C671.019 666.369 671.824 666.254 672.629 666.254ZM674.813 669.933C674.813 669.243 674.583 668.783 674.238 668.438C673.893 668.093 673.319 667.863 672.629 667.863C672.054 667.863 671.479 668.093 671.134 668.438C670.674 668.783 670.444 669.358 670.329 669.933H674.813ZM687.575 674.877V673.842C687.23 674.187 686.885 674.532 686.425 674.647C685.965 674.877 685.39 674.992 684.816 674.992C684.241 674.992 683.666 674.877 683.206 674.647C682.746 674.417 682.401 674.072 682.171 673.727C681.941 673.267 681.826 672.807 681.826 672.347C681.826 671.542 682.056 670.968 682.631 670.508C683.206 670.048 684.011 669.818 685.046 669.818H687.575V669.588C687.575 669.128 687.46 668.668 687.115 668.438C686.77 668.208 686.31 667.978 685.62 667.978C684.816 667.978 683.896 668.208 683.091 668.783L682.286 667.289C682.976 666.944 683.551 666.599 684.126 666.484C684.701 666.369 685.275 666.254 686.08 666.254C687.23 666.254 688.035 666.484 688.725 667.059C689.299 667.634 689.644 668.323 689.644 669.358V674.992H687.575V674.877ZM685.275 673.382C685.85 673.382 686.425 673.267 686.77 672.922C687.23 672.577 687.46 672.232 687.46 671.887V671.083H685.39C684.816 671.083 684.471 671.198 684.126 671.313C683.896 671.428 683.781 671.772 683.781 672.117C683.781 672.462 683.896 672.807 684.241 673.037C684.471 673.267 684.816 673.382 685.275 673.382ZM697.922 669.013C697.347 668.323 696.543 668.093 695.623 668.093C694.933 668.093 694.358 668.323 693.898 668.783C693.438 669.243 693.208 669.818 693.208 670.623C693.208 671.428 693.438 672.002 693.898 672.462C694.358 672.922 694.933 673.152 695.623 673.152C696.658 673.152 697.462 672.807 697.922 672.117L699.187 673.152C698.842 673.727 698.267 674.187 697.692 674.417C697.002 674.762 696.313 674.877 695.508 674.877C694.703 674.877 693.898 674.647 693.208 674.302C692.519 673.957 692.059 673.382 691.714 672.807C691.369 672.117 691.139 671.428 691.139 670.508C691.139 669.588 691.369 668.898 691.714 668.208C692.059 667.519 692.634 667.059 693.208 666.714C693.898 666.369 694.588 666.139 695.508 666.139C696.313 666.139 697.002 666.254 697.577 666.599C698.152 666.829 698.727 667.289 699.072 667.748L697.922 669.013ZM706.775 669.013C706.2 668.323 705.395 668.093 704.476 668.093C703.786 668.093 703.211 668.323 702.751 668.783C702.291 669.243 702.061 669.818 702.061 670.623C702.061 671.428 702.291 672.002 702.751 672.462C703.211 672.922 703.786 673.152 704.476 673.152C705.51 673.152 706.315 672.807 706.775 672.117L708.04 673.152C707.695 673.727 707.12 674.187 706.545 674.417C705.855 674.762 705.165 674.877 704.361 674.877C703.556 674.877 702.751 674.647 702.061 674.302C701.371 673.957 700.911 673.382 700.567 672.807C700.222 672.117 699.992 671.428 699.992 670.508C699.992 669.588 700.222 668.898 700.567 668.208C700.911 667.519 701.486 667.059 702.061 666.714C702.751 666.369 703.441 666.139 704.361 666.139C705.165 666.139 705.855 666.254 706.43 666.599C707.005 666.829 707.58 667.289 707.925 667.748L706.775 669.013ZM713.328 666.254C714.248 666.254 715.053 666.484 715.628 666.829C716.317 667.174 716.892 667.748 717.237 668.323C717.582 669.013 717.812 669.703 717.812 670.623C717.812 671.542 717.582 672.232 717.237 672.922C716.892 673.612 716.317 674.072 715.628 674.417C714.938 674.762 714.133 674.992 713.328 674.992C712.408 674.992 711.604 674.762 710.914 674.417C710.224 674.072 709.649 673.497 709.304 672.922C708.959 672.232 708.729 671.542 708.729 670.623C708.729 669.818 708.959 669.013 709.304 668.323C709.649 667.633 710.224 667.174 710.914 666.829C711.604 666.369 712.408 666.254 713.328 666.254ZM713.328 667.978C712.638 667.978 712.064 668.208 711.604 668.668C711.144 669.128 710.914 669.818 710.914 670.508C710.914 671.198 711.144 671.887 711.604 672.347C712.064 672.807 712.638 673.037 713.328 673.037C714.018 673.037 714.593 672.807 715.053 672.347C715.513 671.887 715.743 671.198 715.743 670.508C715.743 669.818 715.513 669.128 715.053 668.668C714.593 668.208 714.018 667.978 713.328 667.978ZM727.7 666.254V674.877H725.63V673.267C725.055 674.417 724.02 674.992 722.641 674.992C721.721 674.992 720.916 674.647 720.341 674.072C719.767 673.497 719.537 672.692 719.537 671.657V666.254H721.606V671.083C721.606 671.657 721.721 672.117 722.066 672.462C722.411 672.807 722.871 672.922 723.446 672.922C724.135 672.922 724.595 672.692 725.055 672.232C725.4 671.772 725.63 671.198 725.63 670.508V666.254H727.7ZM735.403 666.139C736.437 666.139 737.127 666.484 737.702 667.059C738.277 667.634 738.507 668.438 738.507 669.473V674.877H736.437V670.163C736.437 669.588 736.322 669.128 735.977 668.783C735.633 668.438 735.173 668.208 734.598 668.208C733.908 668.208 733.333 668.438 732.988 668.898C732.643 669.358 732.413 669.933 732.413 670.623V674.877H730.229V666.254H732.298V667.863C732.988 666.714 734.023 666.254 735.403 666.139ZM745.98 674.302C745.29 674.762 744.6 674.877 743.795 674.877C743.106 674.877 742.416 674.647 741.956 674.187C741.496 673.727 741.266 673.152 741.266 672.232V667.978H740.116V666.484H741.381V664.069H743.45V666.484H745.865V667.978H743.45V671.887C743.45 672.232 743.565 672.577 743.68 672.692C743.795 672.807 744.025 672.922 744.37 672.922C744.715 672.922 745.06 672.807 745.635 672.577L745.98 674.302Z" fill="#2683FF"/>
<path d="M791.163 663.609H798.521V664.988H792.773V668.667H797.946V670.047H792.773V674.761H791.163V663.609ZM803.695 666.368C804.5 666.368 805.304 666.598 805.994 666.943C806.684 667.288 807.144 667.862 807.489 668.437C807.834 669.127 808.064 669.817 808.064 670.622C808.064 671.426 807.834 672.231 807.489 672.806C807.144 673.496 806.569 673.956 805.994 674.301C805.304 674.646 804.615 674.876 803.695 674.876C802.89 674.876 802.085 674.646 801.395 674.301C800.706 673.956 800.246 673.381 799.901 672.806C799.556 672.116 799.326 671.427 799.326 670.507C799.326 669.702 799.556 668.897 799.901 668.322C800.246 667.632 800.821 667.173 801.395 666.828C802.085 666.483 802.775 666.368 803.695 666.368ZM803.695 667.632C803.12 667.632 802.66 667.747 802.2 667.977C801.74 668.207 801.395 668.552 801.166 669.012C800.936 669.472 800.821 669.932 800.821 670.507C800.821 671.082 800.936 671.656 801.166 672.116C801.395 672.576 801.74 672.921 802.2 673.151C802.66 673.381 803.12 673.496 803.695 673.496C804.27 673.496 804.73 673.381 805.189 673.151C805.649 672.921 805.994 672.576 806.224 672.116C806.454 671.656 806.569 671.082 806.569 670.507C806.569 669.932 806.454 669.357 806.224 669.012C805.994 668.552 805.649 668.207 805.189 667.977C804.73 667.747 804.27 667.632 803.695 667.632ZM811.628 668.207C811.858 667.632 812.318 667.173 812.778 666.828C813.237 666.483 813.927 666.368 814.617 666.368V667.862C813.697 667.862 813.007 668.092 812.548 668.552C811.973 669.012 811.743 669.702 811.628 670.507V674.991H810.133V666.483H811.628V668.207ZM823.815 666.368V674.071C823.815 674.876 823.585 675.565 823.24 676.255C822.895 676.83 822.435 677.29 821.745 677.635C821.055 677.98 820.366 678.095 819.446 678.095C818.181 678.095 817.031 677.75 815.882 676.945L816.572 675.795C817.031 676.14 817.376 676.37 817.836 676.6C818.296 676.715 818.756 676.83 819.331 676.83C820.251 676.83 820.94 676.6 821.4 676.14C821.975 675.68 822.205 674.991 822.205 674.186V673.036C821.86 673.496 821.515 673.956 820.94 674.186C820.481 674.416 819.791 674.646 819.216 674.646C818.411 674.646 817.721 674.531 817.146 674.186C816.572 673.841 816.112 673.381 815.767 672.691C815.422 672.116 815.307 671.312 815.307 670.507C815.307 669.702 815.422 669.012 815.767 668.437C816.112 667.862 816.572 667.403 817.146 667.058C817.721 666.713 818.411 666.598 819.216 666.598C819.906 666.598 820.481 666.713 820.94 667.058C821.4 667.288 821.86 667.747 822.205 668.207V666.598H823.815V666.368ZM819.561 673.266C820.136 673.266 820.595 673.151 820.94 672.921C821.4 672.691 821.63 672.346 821.86 671.886C822.09 671.427 822.205 670.967 822.205 670.392C822.205 669.817 822.09 669.357 821.86 668.897C821.63 668.437 821.285 668.092 820.94 667.862C820.481 667.632 820.021 667.517 819.561 667.517C818.986 667.517 818.526 667.632 818.181 667.862C817.721 668.092 817.491 668.437 817.261 668.897C817.031 669.357 816.916 669.817 816.916 670.392C816.916 671.197 817.146 671.886 817.721 672.461C818.181 673.036 818.756 673.266 819.561 673.266ZM830.023 666.368C830.828 666.368 831.633 666.598 832.322 666.943C833.012 667.288 833.472 667.862 833.817 668.437C834.162 669.127 834.392 669.817 834.392 670.622C834.392 671.426 834.162 672.231 833.817 672.806C833.472 673.496 832.897 673.956 832.322 674.301C831.633 674.646 830.943 674.876 830.023 674.876C829.218 674.876 828.413 674.646 827.724 674.301C827.034 673.956 826.574 673.381 826.229 672.806C825.884 672.116 825.654 671.427 825.654 670.507C825.654 669.702 825.884 668.897 826.229 668.322C826.574 667.632 827.149 667.173 827.724 666.828C828.413 666.483 829.218 666.368 830.023 666.368ZM830.023 667.632C829.448 667.632 828.988 667.747 828.528 667.977C828.069 668.207 827.724 668.552 827.494 669.012C827.264 669.472 827.149 669.932 827.149 670.507C827.149 671.082 827.264 671.656 827.494 672.116C827.724 672.576 828.069 672.921 828.528 673.151C828.988 673.381 829.448 673.496 830.023 673.496C830.598 673.496 831.058 673.381 831.518 673.151C831.978 672.921 832.322 672.576 832.552 672.116C832.782 671.656 832.897 671.082 832.897 670.507C832.897 669.932 832.782 669.357 832.552 669.012C832.322 668.552 831.978 668.207 831.518 667.977C831.058 667.747 830.598 667.632 830.023 667.632ZM841.06 674.301C840.37 674.761 839.796 674.876 839.106 674.876C838.416 674.876 837.841 674.646 837.496 674.301C837.036 673.841 836.921 673.266 836.921 672.461V667.747H835.657V666.598H836.921V664.298H838.416V666.598H841.06V667.747H838.301V672.231C838.301 672.691 838.416 673.036 838.531 673.266C838.646 673.496 838.991 673.611 839.336 673.611C839.796 673.611 840.14 673.496 840.6 673.266L841.06 674.301ZM851.867 666.368C852.672 666.368 853.362 666.598 853.937 666.943C854.512 667.288 855.087 667.862 855.432 668.437C855.776 669.127 855.891 669.817 855.891 670.737C855.891 671.541 855.776 672.346 855.432 672.921C855.087 673.611 854.627 674.071 854.052 674.416C853.477 674.761 852.787 674.991 851.982 674.991C851.293 674.991 850.603 674.876 850.028 674.531C849.453 674.186 849.108 673.841 848.763 673.266V678.095H847.269V666.483H848.763V668.207C849.108 667.632 849.453 667.173 850.028 666.943C850.488 666.483 851.178 666.368 851.867 666.368ZM851.637 673.611C852.212 673.611 852.672 673.496 853.132 673.266C853.592 673.036 853.937 672.691 854.167 672.231C854.397 671.771 854.512 671.197 854.512 670.622C854.512 670.047 854.397 669.587 854.167 669.127C853.937 668.667 853.592 668.322 853.132 668.092C852.672 667.862 852.212 667.747 851.637 667.747C851.063 667.747 850.603 667.862 850.143 668.092C849.683 668.322 849.338 668.667 849.108 669.127C848.878 669.587 848.763 670.047 848.763 670.622C848.763 671.197 848.878 671.771 849.108 672.231C849.338 672.691 849.683 673.036 850.143 673.266C850.488 673.496 851.063 673.611 851.637 673.611ZM863.25 674.876V673.726C862.675 674.531 861.64 674.991 860.26 674.991C859.685 674.991 859.111 674.876 858.651 674.646C858.191 674.416 857.846 674.071 857.616 673.726C857.386 673.381 857.271 672.921 857.271 672.346C857.271 671.541 857.501 670.967 858.076 670.507C858.651 670.047 859.455 669.817 860.49 669.817H863.25V669.472C863.25 668.897 863.02 668.437 862.675 668.092C862.33 667.747 861.755 667.632 861.065 667.632C860.26 667.632 859.341 667.977 858.421 668.552L857.846 667.517C858.421 667.173 858.996 666.828 859.57 666.713C860.145 666.483 860.72 666.483 861.41 666.483C862.445 666.483 863.25 666.713 863.824 667.288C864.399 667.747 864.744 668.552 864.744 669.472V675.106H863.25V674.876ZM860.605 673.726C861.295 673.726 861.87 673.611 862.33 673.266C862.79 672.921 863.135 672.461 863.25 671.886V671.082H860.72C860.03 671.082 859.57 671.197 859.226 671.426C858.881 671.656 858.766 672.001 858.766 672.346C858.766 672.691 858.881 673.151 859.226 673.381C859.57 673.611 860.03 673.726 860.605 673.726ZM872.102 668.207C871.757 667.977 871.412 667.862 870.953 667.747C870.493 667.632 870.148 667.517 869.688 667.517C869.228 667.517 868.883 667.632 868.538 667.747C868.308 667.862 868.078 668.207 868.078 668.552C868.078 668.897 868.193 669.127 868.538 669.357C868.883 669.472 869.343 669.702 869.918 669.932C870.493 670.047 870.953 670.277 871.412 670.392C871.757 670.507 872.102 670.852 872.332 671.197C872.562 671.541 872.677 672.001 872.677 672.461C872.677 673.266 872.332 673.841 871.757 674.301C871.182 674.761 870.378 674.876 869.458 674.876C868.768 674.876 868.193 674.761 867.618 674.531C867.044 674.301 866.584 674.071 866.124 673.611L866.699 672.461C867.044 672.806 867.503 673.036 867.963 673.266C868.538 673.496 868.998 673.611 869.458 673.611C869.918 673.611 870.378 673.496 870.608 673.381C870.952 673.151 871.067 672.921 871.067 672.576C871.067 672.231 870.952 671.886 870.608 671.656C870.263 671.427 869.803 671.312 869.228 671.082C868.653 670.967 868.193 670.737 867.848 670.622C867.503 670.507 867.159 670.162 866.929 669.932C866.699 669.587 866.584 669.242 866.584 668.667C866.584 667.862 866.929 667.288 867.503 666.828C868.078 666.483 868.768 666.253 869.688 666.253C870.148 666.253 870.723 666.368 871.182 666.483C871.642 666.598 872.102 666.828 872.447 667.058L872.102 668.207ZM879.46 668.207C879.115 667.977 878.77 667.862 878.311 667.747C877.851 667.632 877.506 667.517 877.046 667.517C876.586 667.517 876.241 667.632 875.896 667.747C875.666 667.862 875.436 668.207 875.436 668.552C875.436 668.897 875.551 669.127 875.896 669.357C876.241 669.472 876.701 669.702 877.276 669.932C877.851 670.047 878.311 670.277 878.771 670.392C879.115 670.507 879.46 670.852 879.69 671.197C879.92 671.541 880.035 672.001 880.035 672.461C880.035 673.266 879.69 673.841 879.115 674.301C878.541 674.761 877.736 674.876 876.816 674.876C876.126 674.876 875.551 674.761 874.977 674.531C874.402 674.301 873.942 674.071 873.482 673.611L874.057 672.461C874.402 672.806 874.862 673.036 875.321 673.266C875.896 673.496 876.356 673.611 876.816 673.611C877.276 673.611 877.736 673.496 877.966 673.381C878.311 673.151 878.426 672.921 878.426 672.576C878.426 672.231 878.311 671.886 877.966 671.656C877.621 671.427 877.161 671.312 876.586 671.082C876.011 670.967 875.551 670.737 875.206 670.622C874.861 670.507 874.517 670.162 874.287 669.932C874.057 669.587 873.942 669.242 873.942 668.667C873.942 667.862 874.287 667.288 874.862 666.828C875.436 666.483 876.126 666.253 877.046 666.253C877.506 666.253 878.081 666.368 878.541 666.483C879 666.598 879.46 666.828 879.805 667.058L879.46 668.207ZM880.725 666.368H882.335L884.749 673.381L887.048 666.368H888.658L891.072 673.381L893.372 666.368H894.866L891.762 674.876H890.153L887.853 668.207L885.554 674.876H883.944L880.725 666.368ZM899.465 666.368C900.27 666.368 901.075 666.598 901.765 666.943C902.454 667.288 902.914 667.862 903.259 668.437C903.604 669.127 903.834 669.817 903.834 670.622C903.834 671.426 903.604 672.231 903.259 672.806C902.914 673.496 902.339 673.956 901.765 674.301C901.075 674.646 900.385 674.876 899.465 674.876C898.66 674.876 897.856 674.646 897.166 674.301C896.476 673.956 896.016 673.381 895.671 672.806C895.326 672.116 895.096 671.427 895.096 670.507C895.096 669.702 895.326 668.897 895.671 668.322C896.016 667.632 896.591 667.173 897.166 666.828C897.856 666.483 898.66 666.368 899.465 666.368ZM899.465 667.632C898.89 667.632 898.43 667.747 897.971 667.977C897.511 668.207 897.166 668.552 896.936 669.012C896.706 669.472 896.591 669.932 896.591 670.507C896.591 671.082 896.706 671.656 896.936 672.116C897.166 672.576 897.511 672.921 897.971 673.151C898.43 673.381 898.89 673.496 899.465 673.496C900.04 673.496 900.5 673.381 900.96 673.151C901.42 672.921 901.765 672.576 901.995 672.116C902.224 671.656 902.339 671.082 902.339 670.507C902.339 669.932 902.224 669.357 901.995 669.012C901.765 668.552 901.42 668.207 900.96 667.977C900.5 667.747 900.04 667.632 899.465 667.632ZM907.513 668.207C907.743 667.632 908.203 667.173 908.663 666.828C909.123 666.483 909.812 666.368 910.502 666.368V667.862C909.583 667.862 908.893 668.092 908.433 668.552C907.858 669.012 907.628 669.702 907.513 670.507V674.991H906.019V666.483H907.513V668.207V668.207ZM920.045 662.919V674.876H918.55V673.151C918.205 673.726 917.745 674.186 917.286 674.416C916.711 674.761 916.136 674.876 915.446 674.876C914.641 674.876 913.951 674.646 913.262 674.301C912.687 673.956 912.227 673.381 911.882 672.806C911.537 672.116 911.422 671.427 911.422 670.507C911.422 669.702 911.537 668.897 911.882 668.322C912.227 667.632 912.687 667.173 913.262 666.828C913.836 666.483 914.641 666.253 915.331 666.253C916.021 666.253 916.711 666.368 917.286 666.713C917.86 667.058 918.205 667.403 918.55 667.977V662.804L920.045 662.919ZM915.676 673.726C916.251 673.726 916.711 673.611 917.171 673.381C917.63 673.151 917.975 672.806 918.205 672.346C918.435 671.886 918.55 671.312 918.55 670.737C918.55 670.162 918.435 669.587 918.205 669.127C917.975 668.667 917.63 668.322 917.171 668.092C916.711 667.862 916.251 667.747 915.676 667.747C915.101 667.747 914.641 667.862 914.181 668.092C913.722 668.322 913.377 668.667 913.147 669.127C912.917 669.587 912.802 670.162 912.802 670.737C912.802 671.312 912.917 671.886 913.147 672.346C913.377 672.806 913.722 673.151 914.181 673.381C914.641 673.496 915.101 673.726 915.676 673.726Z" fill="#2683FF"/>
<path d="M1617.34 371.354V143.713C1617.34 136.814 1614.58 130.721 1609.98 126.122C1605.38 121.638 1599.29 118.764 1592.39 118.764C1585.49 118.764 1579.28 121.523 1574.8 126.122C1570.2 130.606 1567.44 136.814 1567.44 143.713C1567.44 154.52 1563.07 164.177 1555.95 171.305C1548.82 178.434 1539.05 182.803 1528.24 182.803C1517.43 182.803 1507.66 178.434 1500.53 171.305C1493.4 164.177 1489.03 154.405 1489.03 143.713V71.2812H1503.29V143.713C1503.29 150.611 1506.05 156.704 1510.65 161.303C1515.25 165.787 1521.45 168.661 1528.24 168.661C1535.14 168.661 1541.34 165.902 1545.83 161.303C1550.43 156.819 1553.19 150.496 1553.19 143.713C1553.19 132.905 1557.56 123.248 1564.68 116.12C1571.81 108.992 1581.58 104.623 1592.39 104.623C1603.2 104.623 1612.97 108.992 1620.1 116.12C1627.23 123.248 1631.6 133.02 1631.6 143.713V371.354H1617.34Z" fill="#007AFF"/>
<path d="M795.649 691.5V865.727C795.649 872.625 798.408 878.718 803.007 883.317C807.606 887.801 813.699 890.675 820.597 890.675C827.495 890.675 833.704 887.916 838.188 883.317C842.787 878.833 845.546 872.625 845.546 865.727C845.546 854.919 849.915 845.262 857.043 838.134C864.171 831.005 873.944 826.637 884.751 826.637C895.558 826.637 905.33 831.005 912.459 838.134C919.587 845.262 923.956 855.034 923.956 865.727V1034.73H909.699V865.727C909.699 858.828 906.94 852.735 902.341 848.136C897.742 843.652 891.534 840.778 884.751 840.778C877.853 840.778 871.644 843.537 867.16 848.136C862.561 852.62 859.802 858.943 859.802 865.727C859.802 876.534 855.433 886.191 848.305 893.319C841.177 900.448 831.404 904.816 820.597 904.816C809.79 904.816 800.018 900.448 792.889 893.319C785.761 886.191 781.392 876.419 781.392 865.727V691.5H795.649Z" fill="#007AFF"/>
<path d="M1844.29 643.834H1668.39V946.206H1844.29V643.834Z" fill="#0062FF"/>
<path d="M1466.5 325.482C1465.58 325.482 1464.77 325.482 1463.97 325.597C1462.36 325.597 1460.98 324.792 1460.18 323.413C1442.01 290.301 1406.71 267.882 1366.13 267.882C1329.34 267.882 1296.92 286.277 1277.6 314.33C1276.68 315.71 1274.96 316.399 1273.35 316.054C1268.52 315.02 1263.58 314.445 1258.4 314.445C1220.69 314.445 1190.11 344.912 1190.11 382.392C1190.11 382.392 1190.11 382.392 1190.11 382.507C1190.11 384.692 1191.95 386.531 1194.13 386.531H1519.39C1521.57 386.531 1523.41 384.692 1523.41 382.507V382.392C1523.52 350.89 1498 325.482 1466.5 325.482Z" fill="#DEDEFC"/>
<path d="M760.928 965.521C759.893 965.521 758.973 965.521 758.053 965.636C756.329 965.751 754.604 964.832 753.799 963.222C733.22 925.627 692.98 899.988 646.762 899.988C604.913 899.988 568.007 920.913 546.163 952.76C545.128 954.369 543.174 955.059 541.219 954.714C535.701 953.565 530.067 952.875 524.204 952.875C481.32 952.99 446.599 987.481 446.599 1030.13C446.599 1030.13 446.599 1030.13 446.599 1030.25C446.599 1032.78 448.668 1034.73 451.197 1034.73H821.172C823.701 1034.73 825.771 1032.66 825.771 1030.25V1030.13C825.771 994.494 796.683 965.521 760.928 965.521Z" fill="#007AFF"/>
<path d="M1852.91 751.906C1980.88 751.906 2084.58 647.973 2084.58 519.666C2084.58 391.359 1980.88 287.426 1852.91 287.426C1724.95 287.426 1621.25 391.359 1621.25 519.666C1621.25 647.973 1724.95 751.906 1852.91 751.906Z" fill="white"/>
<path d="M1876.37 0H1920.17V942.757H1844.29V0.229941L1876.37 0Z" fill="#6CB9FF"/>
<path d="M1804.05 748.458C1749.33 735.007 1701.84 703.045 1668.39 659.816V485.636C1668.39 483.336 1669.31 481.037 1671.03 479.312L1736.22 413.779H1804.05V481.842V748.458Z" fill="#499FFC"/>
<path d="M1668.39 647.053H1541.57C1535.37 647.053 1529.73 644.524 1525.59 640.385C1521.46 636.361 1518.93 630.728 1518.93 624.519C1518.93 618.311 1521.46 612.677 1525.59 608.653C1529.62 604.629 1535.37 601.985 1541.57 601.985C1551.35 601.985 1560.2 597.961 1566.64 591.638C1573.08 585.199 1577.1 576.347 1577.1 566.689C1577.1 556.917 1573.08 548.064 1566.64 541.741C1560.2 535.302 1551.35 531.393 1541.57 531.393L784.5 528.864V541.741C933.617 541.741 1392.34 544.27 1541.57 544.27C1547.78 544.27 1553.42 546.799 1557.56 550.938C1561.58 554.962 1564.22 560.596 1564.22 566.804C1564.22 573.013 1561.69 578.646 1557.56 582.67C1553.53 586.694 1547.78 589.338 1541.57 589.338C1531.8 589.338 1522.95 593.362 1516.51 599.686C1510.07 606.124 1506.05 614.977 1506.05 624.634C1506.05 634.407 1510.07 643.259 1516.51 649.583C1522.95 656.021 1531.8 659.93 1541.57 659.93H1668.39V647.053Z" fill="white"/>
<path d="M1845.44 755.356C1804.74 752.481 1766.8 739.605 1733.92 719.37V485.75C1733.92 483.451 1734.84 481.151 1736.56 479.427L1801.87 413.894H1844.06L1845.44 755.356Z" fill="#2683FF"/>
<path d="M1919.02 413.894H1844.29V441.486H1919.02V413.894Z" fill="#2683FF"/>
<path d="M1919.02 477.127H1844.29V503.57H1919.02V477.127Z" fill="#2683FF"/>
<path d="M1919.02 539.211H1844.29V566.804H1919.02V539.211Z" fill="#2683FF"/>
<path d="M1919.02 602.445H1844.29V630.038H1919.02V602.445Z" fill="#2683FF"/>
<path d="M1919.02 665.679H1844.29V692.122H1919.02V665.679Z" fill="#2683FF"/>
<path d="M1919.02 727.763H1844.29V755.356H1919.02V727.763Z" fill="#2683FF"/>
<path d="M1919.02 790.996H1841.99V818.589H1919.02V790.996Z" fill="#0062FF"/>
<path d="M1919.02 854.23H1841.99V881.823H1919.02V854.23Z" fill="#0062FF"/>
<path d="M1919.02 916.314H1841.99V943.907L1919.02 1034.73V916.314Z" fill="#0062FF"/>
<path d="M1683.33 493.224H1674.14V512.769H1683.33V493.224Z" fill="#F7F9F9"/>
<path d="M1702.88 493.224H1692.53V512.769H1702.88V493.224Z" fill="#F7F9F9"/>
<path d="M1721.27 493.224H1710.93V512.769H1721.27V493.224Z" fill="#F7F9F9"/>
<path d="M1683.33 523.115H1674.14V543.81H1683.33V523.115Z" fill="#F7F9F9"/>
<path d="M1702.88 523.115H1692.53V543.81H1702.88V523.115Z" fill="#F7F9F9"/>
<path d="M1721.27 523.115H1710.93V543.81H1721.27V523.115Z" fill="#F7F9F9"/>
<path d="M1683.33 554.157H1674.14V573.702H1683.33V554.157Z" fill="#F7F9F9"/>
<path d="M1702.88 554.157H1692.53V573.702H1702.88V554.157Z" fill="#F7F9F9"/>
<path d="M1721.27 554.157H1710.93V573.702H1721.27V554.157Z" fill="#F7F9F9"/>
<path d="M1683.33 584.05H1674.14V603.595H1683.33V584.05Z" fill="#F7F9F9"/>
<path d="M1702.88 584.05H1692.53V603.595H1702.88V584.05Z" fill="#F7F9F9"/>
<path d="M1721.27 584.05H1710.93V603.595H1721.27V584.05Z" fill="#F7F9F9"/>
<path d="M1683.33 613.941H1674.14V633.486H1683.33V613.941Z" fill="#F7F9F9"/>
<path d="M1702.88 613.941H1692.53V633.486H1702.88V613.941Z" fill="#F7F9F9"/>
<path d="M1721.27 613.941H1710.93V633.486H1721.27V613.941Z" fill="#F7F9F9"/>
<path d="M1702.88 643.834H1692.53V663.379H1702.88V643.834Z" fill="#F7F9F9"/>
<path d="M1721.27 643.834H1710.93V663.379H1721.27V643.834Z" fill="#F7F9F9"/>
<path d="M1446.72 589.798H1472.71C1475.35 589.798 1477.54 587.729 1477.54 585.199C1477.54 582.67 1475.35 580.601 1472.71 580.601H1446.72C1444.08 580.601 1441.9 582.67 1441.9 585.199C1441.9 587.729 1444.08 589.798 1446.72 589.798Z" fill="#0F002D"/>
<path d="M1446.61 571.403H1492.25C1494.9 571.403 1497.08 569.104 1497.08 566.229C1497.08 563.355 1494.9 561.056 1492.25 561.056H1446.72C1444.08 561.056 1441.9 563.355 1441.9 566.229C1441.9 569.104 1443.96 571.403 1446.61 571.403Z" fill="#0F002D"/>
<path d="M1509.96 571.403H1513.06C1515.71 571.403 1517.89 569.104 1517.89 566.229C1517.89 563.355 1515.82 561.056 1513.06 561.056H1509.96C1507.31 561.056 1505.13 563.355 1505.13 566.229C1505.13 569.104 1507.2 571.403 1509.96 571.403Z" fill="#6CB9FF"/>
<path d="M1528.35 571.403H1531.46C1534.1 571.403 1536.29 569.104 1536.29 566.229C1536.29 563.355 1534.22 561.056 1531.46 561.056H1528.35C1525.71 561.056 1523.52 563.355 1523.52 566.229C1523.52 569.104 1525.59 571.403 1528.35 571.403Z" fill="#6CB9FF"/>
<path d="M1507.43 32.1924H1443.05V141.414H1507.43V32.1924Z" fill="#499FFC"/>
<path d="M1524.67 0H1425.8V57.4852H1524.67V0Z" fill="#0F002D"/>
<path d="M1529.27 153.946V162.224C1529.27 191.312 1505.7 214.995 1476.96 214.995C1448.22 214.995 1424.65 191.312 1424.65 162.224V153.946C1424.65 124.859 1448.22 101.175 1476.96 101.175C1505.7 101.175 1529.27 124.974 1529.27 153.946Z" fill="#499FFC"/>
<path d="M1507.43 205.913V267.767C1507.43 277.309 1499.61 285.127 1490.18 285.127C1480.64 285.127 1472.94 277.309 1472.94 267.767V205.913C1472.94 196.37 1480.76 188.552 1490.18 188.552C1499.61 188.437 1507.43 196.37 1507.43 205.913Z" fill="#499FFC"/>
<path d="M1457.99 191.771V208.327C1457.99 216.49 1451.32 223.043 1443.05 223.043C1434.77 223.043 1428.1 216.49 1428.1 208.327V191.771C1428.1 183.608 1434.77 177.055 1443.05 177.055C1451.32 177.055 1457.99 183.608 1457.99 191.771Z" fill="#6CB9FF"/>
<path d="M1439.6 180.044V192.461C1439.6 198.554 1434.42 203.498 1428.1 203.498C1421.78 203.498 1416.6 198.554 1416.6 192.461V180.044C1416.6 173.951 1421.78 169.007 1428.1 169.007C1434.42 169.007 1439.6 173.951 1439.6 180.044Z" fill="#6CB9FF"/>
<path d="M1479.84 206.143V223.848C1479.84 232.816 1472.36 240.289 1463.16 240.289C1453.97 240.289 1446.49 232.931 1446.49 223.848V206.143C1446.49 197.06 1453.97 189.702 1463.16 189.702C1472.36 189.702 1479.84 197.06 1479.84 206.143Z" fill="#6CB9FF"/>
<path d="M1530.88 139.92L1531.57 195.565C1531.69 205.223 1523.87 213.386 1514.33 213.731C1504.78 214.076 1496.74 206.488 1496.62 196.83L1495.93 141.184C1495.82 131.527 1503.63 123.364 1513.18 123.019C1522.72 122.674 1530.77 130.262 1530.88 139.92Z" fill="#6CB9FF"/>
<path d="M1525.36 210.166L1513.64 224.767C1507.66 232.125 1496.85 233.275 1489.49 227.181C1482.25 221.088 1481.22 210.051 1487.19 202.578L1498.92 187.976C1504.9 180.618 1515.71 179.469 1523.06 185.562C1530.31 191.656 1531.34 202.808 1525.36 210.166Z" fill="#6CB9FF"/>
<path d="M1468.34 139.689C1468.34 156.475 1482.02 170.156 1498.81 170.156C1515.59 170.156 1529.27 156.475 1529.27 139.689C1529.27 122.903 1515.59 109.222 1498.81 109.222C1482.02 109.222 1468.34 122.903 1468.34 139.689Z" fill="#6CB9FF"/>
<path d="M1479.49 307.432C1477.65 306.282 1475.24 307.662 1475.24 309.961V312.261V315.595C1475.24 316.629 1475.7 317.549 1476.62 318.124L1488.23 325.022C1489.15 325.597 1490.18 325.597 1491.1 325.022L1502.71 318.124C1503.63 317.549 1504.09 316.629 1504.09 315.595V312.261V309.961C1504.09 307.662 1501.68 306.397 1499.84 307.432L1491.1 312.605C1490.18 313.18 1489.15 313.18 1488.23 312.605L1479.49 307.432Z" fill="#0F002D"/>
<path d="M1479.49 329.277C1477.65 328.127 1475.24 329.506 1475.24 331.806V334.105V337.439C1475.24 338.474 1475.7 339.394 1476.62 339.969L1488.23 346.867C1489.15 347.442 1490.18 347.442 1491.1 346.867L1502.71 339.969C1503.63 339.394 1504.09 338.474 1504.09 337.439V334.105V331.806C1504.09 329.506 1501.68 328.242 1499.84 329.277L1491.1 334.45C1490.18 335.025 1489.15 335.025 1488.23 334.45L1479.49 329.277Z" fill="#0F002D"/>
<path d="M1844.29 0H1736.22V413.893H1844.29V0Z" fill="#499FFC"/>
<path d="M1828.66 936.664C1825.9 936.664 1823.14 936.779 1820.49 937.124C1791.98 881.708 1734.27 843.883 1667.7 843.883C1607.11 843.883 1553.99 875.155 1523.41 922.523C1514.44 920.108 1504.9 918.844 1495.13 918.844C1434.65 918.844 1385.68 967.821 1385.68 1028.3C1385.68 1030.48 1385.79 1032.66 1385.91 1034.85H1920.06C1920.17 1032.66 1920.29 1030.59 1920.29 1028.3C1920.17 977.708 1879.24 936.664 1828.66 936.664Z" fill="white"/>
<path d="M1803.13 394.348H1829.12C1831.76 394.348 1833.94 392.279 1833.94 389.749C1833.94 387.22 1831.76 385.15 1829.12 385.15H1803.13C1800.49 385.15 1798.3 387.22 1798.3 389.749C1798.3 392.279 1800.49 394.348 1803.13 394.348Z" fill="white"/>
<path d="M1803.25 375.954H1810.61C1813.36 375.954 1815.55 373.654 1815.55 370.78C1815.55 367.906 1813.36 365.606 1810.61 365.606H1803.25C1800.49 365.606 1798.3 367.906 1798.3 370.78C1798.3 373.654 1800.49 375.954 1803.25 375.954Z" fill="white"/>
<path d="M1803.25 357.558H1810.61C1813.36 357.558 1815.55 355.489 1815.55 352.959C1815.55 350.43 1813.36 348.36 1810.61 348.36H1803.25C1800.49 348.36 1798.3 350.43 1798.3 352.959C1798.3 355.489 1800.49 357.558 1803.25 357.558Z" fill="#0F002D"/>
<path d="M1298.18 588.649C1300.14 588.649 1301.63 586.809 1301.63 584.625C1301.63 582.44 1300.14 580.601 1298.18 580.601C1296.23 580.601 1294.73 582.44 1294.73 584.625C1294.73 586.809 1296.23 588.649 1298.18 588.649Z" fill="#DEDEFC"/>
<path d="M1333.71 608.539C1334.51 607.734 1334.97 606.699 1334.97 605.55V556.802C1334.97 554.503 1333.13 552.663 1330.83 552.663H1319.34V541.051C1319.34 529.209 1309.79 519.552 1298.07 519.552C1286.34 519.552 1276.8 529.209 1276.8 541.051V552.663H1265.42C1263.12 552.663 1261.28 554.503 1261.28 556.802V605.55C1261.28 606.699 1261.74 607.734 1262.54 608.539L1278.64 624.29C1279.44 625.095 1280.48 625.439 1281.51 625.439H1314.62C1315.66 625.439 1316.69 624.98 1317.5 624.29L1333.71 608.539ZM1302.21 596.007V601.296C1302.21 603.595 1300.37 605.435 1298.07 605.435C1295.77 605.435 1293.93 603.595 1293.93 601.296V596.007C1289.44 594.283 1286.23 589.914 1286.23 584.74C1286.23 578.187 1291.51 572.783 1298.07 572.783C1304.62 572.783 1309.91 578.187 1309.91 584.74C1310.02 589.914 1306.81 594.283 1302.21 596.007ZM1311.29 552.663H1285.19V541.051C1285.19 533.808 1291.05 527.83 1298.18 527.83C1305.31 527.83 1311.17 533.808 1311.17 541.051L1311.29 552.663Z" fill="#DEDEFC"/>
<path d="M1213.91 491.729L1209.77 487.705C1211.15 486.325 1212.64 484.945 1214.14 483.681L1218.05 487.935C1216.67 489.084 1215.17 490.349 1213.91 491.729ZM1222.3 484.141L1218.62 479.772C1220.12 478.507 1221.73 477.357 1223.34 476.208L1226.79 480.806C1225.29 481.841 1223.8 482.991 1222.3 484.141ZM1231.5 477.472L1228.28 472.758C1229.89 471.724 1231.61 470.689 1233.34 469.654L1236.33 474.598C1234.72 475.403 1232.99 476.438 1231.5 477.472ZM1355.09 474.368C1353.6 473.563 1352.1 472.644 1350.61 471.954L1353.37 466.895C1354.98 467.7 1356.47 468.62 1358.08 469.539L1355.09 474.368ZM1241.27 471.724L1238.51 466.665C1240.24 465.745 1242.08 464.826 1243.8 464.021L1246.33 469.194C1244.61 469.999 1242.88 470.919 1241.27 471.724ZM1345.55 469.309C1343.83 468.505 1342.1 467.815 1340.38 467.01L1342.56 461.721C1344.4 462.411 1346.24 463.216 1348.08 464.136L1345.55 469.309ZM1251.5 467.01L1249.32 461.721C1251.16 461.032 1253 460.342 1254.95 459.652L1256.91 465.055C1255.07 465.63 1253.34 466.205 1251.5 467.01ZM1335.09 465.055C1333.36 464.481 1331.52 463.906 1329.68 463.331L1331.41 457.812C1333.36 458.387 1335.2 458.962 1337.04 459.652L1335.09 465.055ZM1262.2 463.216L1260.47 457.697C1262.43 457.123 1264.38 456.663 1266.22 456.203L1267.6 461.721C1265.88 462.181 1264.15 462.641 1262.2 463.216ZM1324.17 461.721C1322.33 461.261 1320.49 460.917 1318.65 460.572L1319.8 454.938C1321.75 455.283 1323.71 455.743 1325.66 456.203L1324.17 461.721ZM1273.35 460.457L1272.2 454.823C1274.15 454.478 1276.11 454.133 1278.06 453.903L1278.87 459.537C1277.03 459.767 1275.19 460.112 1273.35 460.457ZM1313.01 459.537C1311.17 459.307 1309.22 459.077 1307.38 458.847L1307.95 453.099C1309.91 453.214 1311.98 453.558 1313.93 453.788L1313.01 459.537ZM1284.62 458.847L1284.04 453.099C1286 452.984 1288.07 452.754 1290.02 452.754L1290.36 458.502C1288.41 458.502 1286.46 458.732 1284.62 458.847ZM1301.63 458.502C1299.79 458.387 1297.84 458.387 1295.88 458.387V452.639C1297.84 452.639 1299.91 452.639 1301.86 452.754L1301.63 458.502Z" fill="white"/>
<path d="M1298.07 694.076L1297.95 688.328C1299.79 688.328 1301.75 688.213 1303.59 688.098L1303.93 693.847C1302.09 693.961 1300.02 694.076 1298.07 694.076ZM1292.09 693.961C1290.13 693.846 1288.07 693.732 1286.11 693.617L1286.57 687.868C1288.41 688.098 1290.36 688.098 1292.2 688.213L1292.09 693.961ZM1310.02 693.272L1309.33 687.523C1311.17 687.293 1313.13 687.063 1314.97 686.718L1315.89 692.467C1313.93 692.812 1311.98 693.042 1310.02 693.272ZM1280.25 693.042C1278.29 692.812 1276.22 692.467 1274.38 692.122L1275.42 686.488C1277.26 686.833 1279.1 687.178 1281.05 687.408L1280.25 693.042ZM1321.87 691.432L1320.6 685.799C1322.44 685.339 1324.28 684.879 1326.12 684.419L1327.62 690.052C1325.66 690.512 1323.71 690.972 1321.87 691.432ZM1268.41 690.972C1266.45 690.512 1264.61 690.052 1262.66 689.478L1264.27 683.959C1266.11 684.534 1267.95 684.994 1269.78 685.339L1268.41 690.972ZM1333.36 688.328L1331.52 682.809C1333.36 682.235 1335.09 681.545 1336.93 680.97L1339 686.373C1337.16 687.063 1335.2 687.638 1333.36 688.328ZM1256.91 687.638C1255.07 686.948 1253.11 686.258 1251.27 685.569L1253.46 680.165C1255.18 680.855 1257.02 681.545 1258.86 682.12L1256.91 687.638ZM1344.52 684.074L1342.22 678.785C1343.94 677.981 1345.67 677.176 1347.39 676.371L1349.92 681.545C1348.08 682.464 1346.36 683.384 1344.52 684.074ZM1245.87 683.384C1244.03 682.579 1242.31 681.66 1240.47 680.74L1243.11 675.566C1244.84 676.486 1246.45 677.291 1248.29 677.981L1245.87 683.384ZM1355.21 678.9L1352.33 673.842C1353.94 672.922 1355.55 672.002 1357.28 670.967L1360.38 675.911C1358.66 676.946 1356.93 677.866 1355.21 678.9ZM1235.18 677.866C1233.45 676.831 1231.73 675.796 1230.12 674.761L1233.22 669.933C1234.83 670.967 1236.44 672.002 1238.05 672.922L1235.18 677.866ZM1365.33 672.577L1361.99 667.863C1363.6 666.828 1365.1 665.679 1366.59 664.529L1370.15 669.128C1368.54 670.393 1366.93 671.542 1365.33 672.577ZM1225.18 671.542C1223.57 670.393 1221.96 669.128 1220.35 667.978L1223.91 663.494C1225.41 664.644 1226.9 665.794 1228.51 666.943L1225.18 671.542ZM1374.75 665.449L1370.96 661.08C1372.45 659.815 1373.83 658.551 1375.21 657.286L1379.24 661.54C1377.74 662.805 1376.36 664.184 1374.75 665.449ZM1215.86 664.069C1214.94 663.264 1214.02 662.46 1213.22 661.655L1217.24 657.401C1218.05 658.206 1218.97 658.895 1219.77 659.7L1215.86 664.069ZM1383.49 657.286L1379.24 653.262C1380.62 651.882 1381.88 650.503 1383.03 649.123L1387.4 652.917C1386.25 654.412 1384.87 655.906 1383.49 657.286ZM1391.31 648.318L1386.71 644.754C1387.86 643.26 1389.01 641.765 1390.16 640.27L1394.87 643.604C1393.84 645.214 1392.57 646.824 1391.31 648.318ZM1398.32 638.776L1393.38 635.672C1394.41 634.062 1395.45 632.452 1396.37 630.843L1401.43 633.717C1400.51 635.442 1399.36 637.051 1398.32 638.776ZM1404.3 628.428L1399.13 625.784C1400.05 624.059 1400.85 622.45 1401.54 620.725L1406.83 623.14C1406.02 624.979 1405.22 626.704 1404.3 628.428ZM1409.24 617.621L1403.84 615.437C1404.53 613.712 1405.22 611.873 1405.79 610.148L1411.31 611.988C1410.62 613.942 1409.93 615.897 1409.24 617.621ZM1413.04 606.469L1407.4 604.859C1407.98 603.02 1408.44 601.18 1408.78 599.456L1414.42 600.72C1414.07 602.56 1413.61 604.515 1413.04 606.469ZM1415.8 594.857L1410.05 593.822C1410.39 591.983 1410.74 590.143 1410.97 588.304L1416.72 589.109C1416.37 590.948 1416.14 592.903 1415.8 594.857Z" fill="white"/>
<path d="M1370.5 1002.54C1368.66 1002.54 1367.16 1000.93 1367.16 999.092C1368.08 973.224 1379.12 949.77 1396.48 932.64C1413.84 915.509 1437.53 904.587 1463.74 903.667C1465.58 903.667 1467.19 905.162 1467.19 907.001V936.434C1467.19 938.273 1465.81 939.653 1463.97 939.768C1447.76 940.573 1433.04 947.471 1422.24 958.163C1411.43 968.855 1404.42 983.341 1403.61 999.437C1403.5 1001.28 1402 1002.66 1400.28 1002.66H1370.5V1002.54Z" fill="#DEDEFC"/>
<path d="M1465.46 934.709C1472.13 934.709 1477.54 929.306 1477.54 922.637C1477.54 915.969 1472.13 910.565 1465.46 910.565C1458.8 910.565 1453.39 915.969 1453.39 922.637C1453.39 929.306 1458.8 934.709 1465.46 934.709Z" fill="#499FFC"/>
<path d="M1460.87 1001.39C1464.31 1001.39 1467.19 998.518 1467.19 995.068C1467.19 991.619 1464.31 988.745 1460.87 988.745C1457.42 988.745 1454.54 991.619 1454.54 995.068C1454.54 998.518 1457.42 1001.39 1460.87 1001.39Z" fill="#0F002D"/>
<path d="M1612.17 988.4V1009.21C1612.17 1010.01 1611.48 1010.59 1610.79 1010.59H1599.63C1598.94 1010.59 1598.26 1009.9 1598.26 1009.21V990.24C1598.26 989.55 1598.72 988.975 1599.4 988.86C1601.7 988.4 1606.76 987.48 1610.56 986.906C1611.36 986.906 1612.17 987.48 1612.17 988.4ZM1635.28 985.296C1635.97 985.296 1636.66 985.986 1636.66 986.676V1009.21C1636.66 1010.01 1635.97 1010.59 1635.28 1010.59H1624.12C1623.32 1010.59 1622.74 1009.9 1622.74 1009.21V987.02C1622.74 986.216 1623.32 985.641 1624.12 985.641C1626.54 985.526 1632.06 985.296 1635.28 985.296ZM1661.14 988.4V1009.21C1661.14 1010.01 1660.45 1010.59 1659.76 1010.59H1648.61C1647.92 1010.59 1647.23 1009.9 1647.23 1009.21V987.25C1647.23 986.446 1647.92 985.756 1648.73 985.871C1651.26 986.101 1656.32 986.561 1659.76 987.02C1660.57 987.135 1661.14 987.71 1661.14 988.4ZM1673.45 989.435C1677.24 990.24 1680.92 991.274 1684.6 992.309C1685.17 992.539 1685.63 993.114 1685.63 993.689V1009.32C1685.63 1010.13 1684.94 1010.7 1684.25 1010.7H1673.1C1672.3 1010.7 1671.72 1010.01 1671.72 1009.32V990.814C1671.72 989.895 1672.53 989.205 1673.45 989.435Z" fill="#007AFF"/>
<path d="M1920.17 1035.88V1020.94H1600.55C1599.29 1020.94 1598.26 1021.86 1598.26 1023.12V1033.7C1598.26 1034.96 1599.29 1035.88 1600.55 1035.88H1920.17Z" fill="#DEDEFC"/>
<path d="M1316 224.192C1321.41 224.192 1325.78 219.593 1325.78 213.844C1325.78 208.096 1321.41 203.497 1316 203.497C1310.6 203.497 1306.23 208.096 1306.23 213.844C1306.23 219.478 1310.6 224.192 1316 224.192Z" fill="white"/>
<path d="M1344.75 224.192C1350.15 224.192 1354.52 219.593 1354.52 213.844C1354.52 208.096 1350.15 203.497 1344.75 203.497C1339.34 203.497 1334.97 208.096 1334.97 213.844C1334.97 219.478 1339.34 224.192 1344.75 224.192Z" fill="white"/>
<path d="M1316 190.851C1321.41 190.851 1325.78 186.482 1325.78 181.078C1325.78 175.675 1321.41 171.306 1316 171.306C1310.6 171.306 1306.23 175.675 1306.23 181.078C1306.23 186.367 1310.6 190.851 1316 190.851Z" fill="#6CB9FF"/>
<path d="M1344.75 190.851C1350.15 190.851 1354.52 186.482 1354.52 181.078C1354.52 175.675 1350.15 171.306 1344.75 171.306C1339.34 171.306 1334.97 175.675 1334.97 181.078C1334.97 186.367 1339.34 190.851 1344.75 190.851Z" fill="#6CB9FF"/>
<path d="M1287.26 156.359C1292.66 156.359 1297.03 151.991 1297.03 146.587C1297.03 141.183 1292.66 136.814 1287.26 136.814C1281.86 136.814 1277.49 141.183 1277.49 146.587C1277.49 151.991 1281.86 156.359 1287.26 156.359Z" fill="white"/>
<path d="M1316 156.359C1321.41 156.359 1325.78 151.991 1325.78 146.587C1325.78 141.183 1321.41 136.814 1316 136.814C1310.6 136.814 1306.23 141.183 1306.23 146.587C1306.23 151.991 1310.6 156.359 1316 156.359Z" fill="white"/>
<path d="M1344.75 156.359C1350.15 156.359 1354.52 151.991 1354.52 146.587C1354.52 141.183 1350.15 136.814 1344.75 136.814C1339.34 136.814 1334.97 141.183 1334.97 146.587C1334.97 151.991 1339.34 156.359 1344.75 156.359Z" fill="white"/>
<path d="M1683.91 309.27C1693.68 309.27 1701.73 300.992 1701.73 290.875C1701.73 280.757 1693.68 272.479 1683.91 272.479C1674.14 272.479 1666.09 280.757 1666.09 290.875C1665.97 300.992 1674.14 309.27 1683.91 309.27Z" fill="#6CB9FF"/>
<path d="M1683.33 298.923C1687.7 298.923 1691.38 295.359 1691.38 290.875C1691.38 286.506 1687.82 282.827 1683.33 282.827C1678.96 282.827 1675.29 286.391 1675.29 290.875C1675.29 295.244 1678.85 298.923 1683.33 298.923Z" fill="#0F002D"/>
<path d="M1158.15 898.033C1158.15 903.437 1162.75 907.806 1168.5 907.806C1174.24 907.806 1178.84 903.437 1178.84 898.033C1178.84 892.63 1174.24 888.261 1168.5 888.261C1162.86 888.261 1158.15 892.63 1158.15 898.033Z" fill="white"/>
<path d="M1158.15 926.776C1158.15 932.18 1162.75 936.549 1168.5 936.549C1174.24 936.549 1178.84 932.18 1178.84 926.776C1178.84 921.373 1174.24 917.004 1168.5 917.004C1162.86 917.004 1158.15 921.373 1158.15 926.776Z" fill="white"/>
<path d="M1191.49 926.776C1191.49 932.18 1195.86 936.549 1201.26 936.549C1206.67 936.549 1211.03 932.18 1211.03 926.776C1211.03 921.373 1206.67 917.004 1201.26 917.004C1195.86 917.004 1191.49 921.373 1191.49 926.776Z" fill="#6CB9FF"/>
<path d="M1443.51 810.081C1453.28 810.081 1461.33 801.803 1461.33 791.685C1461.33 781.568 1453.28 773.29 1443.51 773.29C1433.73 773.29 1425.68 781.568 1425.68 791.685C1425.57 801.918 1433.62 810.081 1443.51 810.081Z" fill="#499FFC"/>
<path d="M1442.93 799.734C1447.3 799.734 1450.98 796.169 1450.98 791.686C1450.98 787.317 1447.41 783.638 1442.93 783.638C1438.56 783.638 1434.88 787.202 1434.88 791.686C1434.88 796.169 1438.45 799.734 1442.93 799.734Z" fill="#007AFF"/>
</g>
</g>
<defs>
<clipPath id="clip0">
<rect width="1920" height="1035" fill="white"/>
</clipPath>
<clipPath id="clip1">
<rect width="1824.58" height="1035.88" fill="white" transform="translate(260)"/>
</clipPath>
</defs>
</svg>
