<svg width="320" height="1090" viewBox="0 0 320 1090" fill="none" xmlns="http://www.w3.org/2000/svg">
<g clip-path="url(#clip0)">
<rect width="320" height="1090" fill="white"/>
<rect y="-30" width="800" height="1606" fill="#2683FF"/>
<g clip-path="url(#clip1)">
<path d="M-376 649.159H329.028V1089.8H-376" fill="white"/>
<path d="M329.028 649.159H-376V1433.5H329.028V649.159Z" fill="#2683FF"/>
<path d="M-17.2686 1089.8L146.993 806.322H163.444L365.503 808.574L365.356 1089.8L36.6367 1089.36L-17.2686 1089.8Z" fill="#007AFF"/>
<path d="M202.025 807.302V710.361C202.025 707.423 200.85 704.828 198.891 702.87C196.933 700.96 194.338 699.736 191.401 699.736C188.463 699.736 185.819 700.911 183.91 702.87C181.951 704.779 180.776 707.423 180.776 710.361C180.776 714.963 178.916 719.076 175.88 722.111C172.845 725.147 168.683 727.007 164.081 727.007C159.478 727.007 155.317 725.147 152.281 722.111C149.246 719.076 147.385 714.914 147.385 710.361V679.516H153.456V710.361C153.456 713.298 154.631 715.893 156.59 717.852C158.548 719.761 161.192 720.985 164.081 720.985C167.018 720.985 169.662 719.81 171.572 717.852C173.53 715.942 174.705 713.249 174.705 710.361C174.705 705.758 176.566 701.646 179.601 698.61C182.637 695.575 186.798 693.714 191.401 693.714C196.003 693.714 200.164 695.575 203.2 698.61C206.236 701.646 208.096 705.807 208.096 710.361V807.302H202.025Z" fill="#007AFF"/>
<path d="M298.673 923.338H223.764V1052.1H298.673V923.338Z" fill="#0062FF"/>
<path d="M137.789 787.767C137.398 787.767 137.055 787.767 136.712 787.816C136.027 787.816 135.439 787.474 135.097 786.886C127.361 772.786 112.33 763.238 95.0471 763.238C79.3798 763.238 65.573 771.072 57.3476 783.018C56.956 783.606 56.2216 783.9 55.5361 783.753C53.4798 783.312 51.3745 783.067 49.1713 783.067C33.1123 783.067 20.0889 796.042 20.0889 812.003C20.0889 812.003 20.0889 812.003 20.0889 812.052C20.0889 812.982 20.8722 813.765 21.8025 813.765H160.311C161.241 813.765 162.025 812.982 162.025 812.052V812.003C162.074 798.588 151.205 787.767 137.789 787.767Z" fill="#DEDEFC"/>
<path d="M302.345 969.359C356.838 969.359 401 925.099 401 870.459C401 815.82 356.838 771.56 302.345 771.56C247.853 771.56 203.69 815.82 203.69 870.459C203.69 925.099 247.853 969.359 302.345 969.359Z" fill="white"/>
<path d="M312.332 649.159H330.986V1050.63H298.672V649.257L312.332 649.159Z" fill="#6CB9FF"/>
<path d="M281.536 967.895C258.231 962.166 238.011 948.555 223.763 930.146V855.971C223.763 854.992 224.155 854.013 224.889 853.278L252.65 825.371H281.536V854.356V967.895Z" fill="#499FFC"/>
<path d="M223.764 924.708H169.76C167.117 924.708 164.718 923.631 162.955 921.868C161.192 920.155 160.115 917.756 160.115 915.112C160.115 912.468 161.192 910.069 162.955 908.355C164.669 906.642 167.117 905.516 169.76 905.516C173.922 905.516 177.692 903.802 180.434 901.109C183.176 898.368 184.889 894.598 184.889 890.485C184.889 886.323 183.176 882.553 180.434 879.861C177.692 877.119 173.922 875.454 169.76 875.454H-1V880.938C62.5015 880.938 106.21 880.938 169.76 880.938C172.404 880.938 174.803 882.015 176.566 883.777C178.279 885.491 179.406 887.89 179.406 890.534C179.406 893.178 178.328 895.577 176.566 897.29C174.852 899.004 172.404 900.13 169.76 900.13C165.599 900.13 161.829 901.844 159.087 904.537C156.345 907.278 154.632 911.048 154.632 915.161C154.632 919.323 156.345 923.092 159.087 925.785C161.829 928.527 165.599 930.192 169.76 930.192H223.764V924.708Z" fill="white"/>
<path d="M299.163 970.829C281.831 969.605 265.674 964.122 251.671 955.505V856.017C251.671 855.038 252.063 854.059 252.797 853.324L280.607 825.417H298.575L299.163 970.829Z" fill="#2683FF"/>
<path d="M330.497 825.417H298.673V837.167H330.497V825.417Z" fill="#2683FF"/>
<path d="M330.497 852.345H298.672V863.606H330.497V852.345Z" fill="#2683FF"/>
<path d="M330.497 878.783H298.672V890.534H330.497V878.783Z" fill="#2683FF"/>
<path d="M330.497 905.713H298.673V917.463H330.497V905.713Z" fill="#2683FF"/>
<path d="M330.497 932.64H298.673V943.901H330.497V932.64Z" fill="#2683FF"/>
<path d="M330.497 959.077H298.672V970.828H330.497V959.077Z" fill="#2683FF"/>
<path d="M330.497 986.007H297.694V997.757H330.497V986.007Z" fill="#0062FF"/>
<path d="M330.497 1012.94H297.694V1024.69H330.497V1012.94Z" fill="#0062FF"/>
<path d="M330.497 1039.37H297.694V1051.12L330.497 1089.8V1039.37Z" fill="#0062FF"/>
<path d="M230.128 859.199H226.211V867.522H230.128V859.199Z" fill="#F7F9F9"/>
<path d="M238.451 859.199H234.045V867.522H238.451V859.199Z" fill="#F7F9F9"/>
<path d="M246.286 859.199H241.879V867.522H246.286V859.199Z" fill="#F7F9F9"/>
<path d="M230.128 871.93H226.211V880.743H230.128V871.93Z" fill="#F7F9F9"/>
<path d="M238.452 871.93H234.046V880.743H238.452V871.93Z" fill="#F7F9F9"/>
<path d="M246.286 871.93H241.879V880.743H246.286V871.93Z" fill="#F7F9F9"/>
<path d="M230.128 885.15H226.211V893.474H230.128V885.15Z" fill="#F7F9F9"/>
<path d="M238.451 885.15H234.045V893.474H238.451V885.15Z" fill="#F7F9F9"/>
<path d="M246.286 885.15H241.879V893.474H246.286V885.15Z" fill="#F7F9F9"/>
<path d="M230.129 897.879H226.212V906.202H230.129V897.879Z" fill="#F7F9F9"/>
<path d="M238.452 897.879H234.046V906.202H238.452V897.879Z" fill="#F7F9F9"/>
<path d="M246.286 897.879H241.88V906.202H246.286V897.879Z" fill="#F7F9F9"/>
<path d="M230.128 910.607H226.211V918.931H230.128V910.607Z" fill="#F7F9F9"/>
<path d="M238.452 910.607H234.046V918.931H238.452V910.607Z" fill="#F7F9F9"/>
<path d="M246.286 910.607H241.879V918.931H246.286V910.607Z" fill="#F7F9F9"/>
<path d="M238.452 923.338H234.046V931.661H238.452V923.338Z" fill="#F7F9F9"/>
<path d="M246.286 923.338H241.879V931.661H246.286V923.338Z" fill="#F7F9F9"/>
<path d="M129.369 900.327H140.434C141.56 900.327 142.49 899.446 142.49 898.369C142.49 897.291 141.56 896.41 140.434 896.41H129.369C128.243 896.41 127.312 897.291 127.312 898.369C127.312 899.446 128.243 900.327 129.369 900.327Z" fill="#0F002D"/>
<path d="M129.32 892.491H148.757C149.883 892.491 150.813 891.512 150.813 890.288C150.813 889.064 149.883 888.085 148.757 888.085H129.369C128.243 888.085 127.312 889.064 127.312 890.288C127.312 891.512 128.194 892.491 129.32 892.491Z" fill="#0F002D"/>
<path d="M156.297 892.491H157.619C158.745 892.491 159.675 891.512 159.675 890.288C159.675 889.064 158.794 888.085 157.619 888.085H156.297C155.17 888.085 154.24 889.064 154.24 890.288C154.24 891.512 155.121 892.491 156.297 892.491Z" fill="#6CB9FF"/>
<path d="M164.13 892.491H165.452C166.578 892.491 167.508 891.512 167.508 890.288C167.508 889.064 166.627 888.085 165.452 888.085H164.13C163.004 888.085 162.074 889.064 162.074 890.288C162.074 891.512 162.955 892.491 164.13 892.491Z" fill="#6CB9FF"/>
<path d="M155.219 662.868H127.801V709.38H155.219V662.868Z" fill="#499FFC"/>
<path d="M162.563 649.159H120.458V673.639H162.563V649.159Z" fill="#0F002D"/>
<path d="M164.522 714.719V718.244C164.522 730.631 154.485 740.717 142.245 740.717C130.005 740.717 119.968 730.631 119.968 718.244V714.719C119.968 702.332 130.005 692.246 142.245 692.246C154.485 692.246 164.522 702.381 164.522 714.719Z" fill="#499FFC"/>
<path d="M155.22 736.847V763.187C155.22 767.251 151.891 770.58 147.876 770.58C143.812 770.58 140.532 767.251 140.532 763.187V736.847C140.532 732.783 143.861 729.454 147.876 729.454C151.891 729.405 155.22 732.783 155.22 736.847Z" fill="#499FFC"/>
<path d="M134.166 730.826V737.876C134.166 741.352 131.327 744.143 127.801 744.143C124.276 744.143 121.437 741.352 121.437 737.876V730.826C121.437 727.349 124.276 724.559 127.801 724.559C131.327 724.559 134.166 727.349 134.166 730.826Z" fill="#6CB9FF"/>
<path d="M126.333 725.833V731.121C126.333 733.716 124.13 735.821 121.437 735.821C118.744 735.821 116.541 733.716 116.541 731.121V725.833C116.541 723.238 118.744 721.133 121.437 721.133C124.13 721.133 126.333 723.238 126.333 725.833Z" fill="#6CB9FF"/>
<path d="M143.469 736.947V744.487C143.469 748.305 140.286 751.488 136.369 751.488C132.452 751.488 129.27 748.354 129.27 744.487V736.947C129.27 733.079 132.452 729.945 136.369 729.945C140.286 729.945 143.469 733.079 143.469 736.947Z" fill="#6CB9FF"/>
<path d="M165.207 708.747L165.501 732.444C165.55 736.556 162.221 740.033 158.157 740.179C154.093 740.326 150.666 737.095 150.617 732.982L150.323 709.285C150.274 705.173 153.604 701.697 157.667 701.55C161.731 701.403 165.158 704.634 165.207 708.747Z" fill="#6CB9FF"/>
<path d="M162.857 738.659L157.863 744.877C155.317 748.01 150.715 748.5 147.581 745.905C144.497 743.31 144.056 738.61 146.602 735.428L151.596 729.21C154.142 726.076 158.744 725.586 161.878 728.181C164.962 730.776 165.403 735.525 162.857 738.659Z" fill="#6CB9FF"/>
<path d="M138.572 708.647C138.572 715.796 144.399 721.622 151.547 721.622C158.695 721.622 164.521 715.796 164.521 708.647C164.521 701.499 158.695 695.673 151.547 695.673C144.399 695.673 138.572 701.499 138.572 708.647Z" fill="#6CB9FF"/>
<path d="M143.322 780.078C142.538 779.589 141.51 780.176 141.51 781.155V782.135V783.555C141.51 783.995 141.706 784.387 142.098 784.632L147.043 787.569C147.434 787.814 147.875 787.814 148.267 787.569L153.212 784.632C153.603 784.387 153.799 783.995 153.799 783.555V782.135V781.155C153.799 780.176 152.771 779.638 151.988 780.078L148.267 782.282C147.875 782.526 147.434 782.526 147.043 782.282L143.322 780.078Z" fill="#0F002D"/>
<path d="M143.322 789.383C142.538 788.893 141.51 789.481 141.51 790.46V791.439V792.859C141.51 793.3 141.706 793.692 142.098 793.936L147.043 796.874C147.434 797.119 147.875 797.119 148.267 796.874L153.212 793.936C153.603 793.692 153.799 793.3 153.799 792.859V791.439V790.46C153.799 789.481 152.771 788.942 151.988 789.383L148.267 791.586C147.875 791.831 147.434 791.831 147.043 791.586L143.322 789.383Z" fill="#0F002D"/>
<path d="M298.673 649.159H252.65V825.416H298.673V649.159Z" fill="#499FFC"/>
<path d="M292.014 1048.04C290.839 1048.04 289.664 1048.09 288.538 1048.24C276.395 1024.64 251.817 1008.53 223.469 1008.53C197.667 1008.53 175.048 1021.85 162.024 1042.02C158.205 1040.99 154.141 1040.45 149.98 1040.45C124.227 1040.45 103.37 1061.31 103.37 1087.06C103.37 1087.99 103.419 1088.92 103.468 1089.85H330.937C330.986 1088.92 331.035 1088.04 331.035 1087.06C330.986 1065.52 313.556 1048.04 292.014 1048.04Z" fill="white"/>
<path d="M281.146 817.095H292.211C293.337 817.095 294.267 816.213 294.267 815.136C294.267 814.059 293.337 813.178 292.211 813.178H281.146C280.02 813.178 279.089 814.059 279.089 815.136C279.089 816.213 280.02 817.095 281.146 817.095Z" fill="white"/>
<path d="M281.194 809.26H284.328C285.503 809.26 286.433 808.281 286.433 807.057C286.433 805.833 285.503 804.854 284.328 804.854H281.194C280.019 804.854 279.089 805.833 279.089 807.057C279.089 808.281 280.019 809.26 281.194 809.26Z" fill="white"/>
<path d="M281.194 801.426H284.328C285.503 801.426 286.433 800.544 286.433 799.467C286.433 798.39 285.503 797.509 284.328 797.509H281.194C280.019 797.509 279.089 798.39 279.089 799.467C279.089 800.544 280.019 801.426 281.194 801.426Z" fill="#0F002D"/>
<path d="M66.1114 899.837C66.9437 899.837 67.5802 899.054 67.5802 898.124C67.5802 897.194 66.9437 896.41 66.1114 896.41C65.2791 896.41 64.6426 897.194 64.6426 898.124C64.6426 899.054 65.2791 899.837 66.1114 899.837Z" fill="#DEDEFC"/>
<path d="M81.2405 908.307C81.5832 907.965 81.7791 907.524 81.7791 907.034V886.275C81.7791 885.296 80.9957 884.513 80.0165 884.513H75.1205V879.568C75.1205 874.525 71.0568 870.412 66.0628 870.412C61.0689 870.412 57.0051 874.525 57.0051 879.568V884.513H52.1581C51.1789 884.513 50.3955 885.296 50.3955 886.275V907.034C50.3955 907.524 50.5913 907.965 50.9341 908.307L57.7885 915.015C58.1312 915.358 58.5719 915.505 59.0125 915.505H73.1131C73.5537 915.505 73.9944 915.309 74.3371 915.015L81.2405 908.307ZM67.8254 902.971V905.223C67.8254 906.202 67.042 906.985 66.0628 906.985C65.0836 906.985 64.3002 906.202 64.3002 905.223V902.971C62.3908 902.236 61.0199 900.376 61.0199 898.173C61.0199 895.382 63.2721 893.081 66.0628 893.081C68.8535 893.081 71.1057 895.382 71.1057 898.173C71.1547 900.376 69.7838 902.236 67.8254 902.971ZM71.6932 884.513H60.5792V879.568C60.5792 876.483 63.0762 873.937 66.1118 873.937C69.1473 873.937 71.6443 876.483 71.6443 879.568L71.6932 884.513Z" fill="#DEDEFC"/>
<path d="M30.2235 858.564L28.4609 856.851C29.0485 856.263 29.685 855.676 30.3215 855.137L31.9861 856.949C31.3986 857.438 30.7621 857.977 30.2235 858.564ZM33.7976 855.333L32.2309 853.473C32.8674 852.934 33.5528 852.444 34.2383 851.955L35.7071 853.913C35.0706 854.354 34.4341 854.843 33.7976 855.333ZM37.7144 852.493L36.3436 850.486C37.029 850.045 37.7634 849.605 38.4978 849.164L39.7708 851.269C39.0853 851.612 38.3509 852.053 37.7144 852.493ZM90.3468 851.171C89.7103 850.829 89.0738 850.437 88.4373 850.143L89.6124 847.989C90.2978 848.332 90.9343 848.723 91.6197 849.115L90.3468 851.171ZM41.8761 850.045L40.701 847.891C41.4354 847.499 42.2188 847.108 42.9532 846.765L44.0303 848.968C43.2959 849.311 42.5615 849.703 41.8761 850.045ZM86.2831 849.017C85.5487 848.674 84.8143 848.381 84.0799 848.038L85.0101 845.786C85.7935 846.08 86.5768 846.422 87.3602 846.814L86.2831 849.017ZM46.2336 848.038L45.3033 845.786C46.0867 845.492 46.87 845.198 47.7024 844.905L48.5347 847.206C47.7513 847.45 47.0169 847.695 46.2336 848.038ZM81.8277 847.206C81.0933 846.961 80.3099 846.716 79.5266 846.471L80.261 844.121C81.0933 844.366 81.8766 844.611 82.66 844.905L81.8277 847.206ZM50.7869 846.422L50.0525 844.072C50.8848 843.827 51.7171 843.632 52.5005 843.436L53.088 845.786C52.3536 845.982 51.6192 846.178 50.7869 846.422ZM77.1764 845.786C76.3931 845.59 75.6097 845.443 74.8264 845.296L75.316 842.897C76.1483 843.044 76.9806 843.24 77.8129 843.436L77.1764 845.786ZM55.536 845.247L55.0464 842.848C55.8787 842.701 56.711 842.554 57.5434 842.457L57.8861 844.856C57.1027 844.954 56.3194 845.1 55.536 845.247ZM72.4273 844.856C71.644 844.758 70.8116 844.66 70.0282 844.562L70.273 842.114C71.1054 842.163 71.9867 842.31 72.819 842.408L72.4273 844.856ZM60.3341 844.562L60.0893 842.114C60.9216 842.065 61.8029 841.967 62.6353 841.967L62.7821 844.415C61.9498 844.415 61.1175 844.513 60.3341 844.562ZM67.5802 844.415C66.7969 844.366 65.9645 844.366 65.1322 844.366V841.918C65.9645 841.918 66.8458 841.918 67.6782 841.967L67.5802 844.415Z" fill="white"/>
<path d="M66.0624 944.733L66.0134 942.285C66.7968 942.285 67.6291 942.236 68.4125 942.187L68.5594 944.635C67.776 944.684 66.8947 944.733 66.0624 944.733ZM63.5165 944.684C62.6842 944.635 61.8029 944.586 60.9705 944.537L61.1664 942.089C61.9497 942.187 62.7821 942.187 63.5654 942.236L63.5165 944.684ZM71.1543 944.39L70.8605 941.942C71.6439 941.844 72.4762 941.746 73.2596 941.599L73.6513 944.047C72.8189 944.194 71.9866 944.292 71.1543 944.39ZM58.4736 944.292C57.6412 944.194 56.7599 944.047 55.9766 943.901L56.4172 941.502C57.2006 941.648 57.9839 941.795 58.8163 941.893L58.4736 944.292ZM76.1972 943.607L75.6586 941.208C76.442 941.012 77.2253 940.816 78.0087 940.62L78.6452 943.019C77.8129 943.215 76.9805 943.411 76.1972 943.607ZM53.4306 943.411C52.5983 943.215 51.8149 943.019 50.9826 942.775L51.6681 940.424C52.4514 940.669 53.2348 940.865 54.0182 941.012L53.4306 943.411ZM81.0932 942.285L80.3099 939.935C81.0932 939.69 81.8276 939.396 82.611 939.151L83.4923 941.453C82.7089 941.746 81.8766 941.991 81.0932 942.285ZM48.5346 941.991C47.7512 941.697 46.9189 941.404 46.1356 941.11L47.0658 938.809C47.8002 939.102 48.5836 939.396 49.3669 939.641L48.5346 941.991ZM85.8424 940.473L84.8632 938.221C85.5976 937.878 86.332 937.536 87.0664 937.193L88.1435 939.396C87.3601 939.788 86.6257 940.18 85.8424 940.473ZM43.8344 940.18C43.0511 939.837 42.3167 939.445 41.5333 939.054L42.6594 936.85C43.3938 937.242 44.0792 937.585 44.8626 937.878L43.8344 940.18ZM90.3957 938.27L89.1717 936.116C89.8571 935.724 90.5426 935.333 91.277 934.892L92.5989 936.997C91.8645 937.438 91.1301 937.83 90.3957 938.27ZM39.2811 937.83C38.5467 937.389 37.8123 936.948 37.1269 936.508L38.4488 934.451C39.1342 934.892 39.8197 935.333 40.5051 935.724L39.2811 937.83ZM94.7042 935.577L93.2843 933.57C93.9698 933.129 94.6063 932.64 95.2427 932.15L96.7605 934.109C96.0751 934.647 95.3896 935.137 94.7042 935.577ZM35.0216 935.137C34.3361 934.647 33.6507 934.109 32.9652 933.619L34.483 931.709C35.1195 932.199 35.756 932.689 36.4414 933.178L35.0216 935.137ZM98.7189 932.542L97.1032 930.681C97.7397 930.143 98.3272 929.604 98.9148 929.066L100.628 930.877C99.9919 931.416 99.4044 932.003 98.7189 932.542ZM31.0558 931.954C30.6641 931.612 30.2724 931.269 29.9297 930.926L31.6433 929.115C31.986 929.457 32.3777 929.751 32.7204 930.094L31.0558 931.954ZM102.44 929.066L100.628 927.352C101.216 926.764 101.754 926.177 102.244 925.589L104.105 927.205C103.615 927.842 103.027 928.478 102.44 929.066ZM105.769 925.247L103.811 923.729C104.3 923.092 104.79 922.456 105.28 921.82L107.287 923.239C106.846 923.925 106.308 924.61 105.769 925.247ZM108.756 921.183L106.65 919.861C107.091 919.176 107.532 918.49 107.923 917.805L110.078 919.029C109.686 919.763 109.196 920.449 108.756 921.183ZM111.302 916.777L109.099 915.65C109.49 914.916 109.833 914.231 110.127 913.496L112.379 914.524C112.036 915.308 111.693 916.042 111.302 916.777ZM113.407 912.174L111.106 911.244C111.4 910.51 111.693 909.726 111.938 908.992L114.288 909.775C113.995 910.608 113.701 911.44 113.407 912.174ZM115.023 907.425L112.624 906.74C112.868 905.956 113.064 905.173 113.211 904.439L115.61 904.977C115.463 905.761 115.268 906.593 115.023 907.425ZM116.198 902.48L113.75 902.04C113.897 901.256 114.043 900.473 114.141 899.689L116.589 900.032C116.443 900.816 116.345 901.648 116.198 902.48Z" fill="white"/>
<path d="M96.9072 1076.1C96.1238 1076.1 95.4873 1075.41 95.4873 1074.63C95.879 1063.61 100.579 1053.62 107.972 1046.33C115.365 1039.03 125.451 1034.38 136.614 1033.99C137.397 1033.99 138.083 1034.63 138.083 1035.41V1047.94C138.083 1048.73 137.495 1049.31 136.712 1049.36C129.808 1049.71 123.542 1052.64 118.939 1057.2C114.337 1061.75 111.35 1067.92 111.008 1074.77C110.959 1075.56 110.322 1076.14 109.588 1076.14H96.9072V1076.1Z" fill="#DEDEFC"/>
<path d="M137.348 1047.21C140.188 1047.21 142.489 1044.91 142.489 1042.07C142.489 1039.23 140.188 1036.93 137.348 1036.93C134.509 1036.93 132.208 1039.23 132.208 1042.07C132.208 1044.91 134.509 1047.21 137.348 1047.21Z" fill="#499FFC"/>
<path d="M135.39 1075.61C136.859 1075.61 138.083 1074.38 138.083 1072.91C138.083 1071.44 136.859 1070.22 135.39 1070.22C133.921 1070.22 132.697 1071.44 132.697 1072.91C132.697 1074.38 133.921 1075.61 135.39 1075.61Z" fill="#0F002D"/>
<path d="M199.823 1070.07V1078.93C199.823 1079.28 199.529 1079.52 199.235 1079.52H194.486C194.192 1079.52 193.898 1079.23 193.898 1078.93V1070.86C193.898 1070.56 194.094 1070.32 194.388 1070.27C195.367 1070.07 197.521 1069.68 199.137 1069.44C199.48 1069.44 199.823 1069.68 199.823 1070.07ZM209.664 1068.75C209.957 1068.75 210.251 1069.04 210.251 1069.34V1078.93C210.251 1079.28 209.957 1079.52 209.664 1079.52H204.915C204.572 1079.52 204.327 1079.23 204.327 1078.93V1069.49C204.327 1069.14 204.572 1068.9 204.915 1068.9C205.943 1068.85 208.293 1068.75 209.664 1068.75ZM220.68 1070.07V1078.93C220.68 1079.28 220.386 1079.52 220.092 1079.52H215.343C215.049 1079.52 214.756 1079.23 214.756 1078.93V1069.58C214.756 1069.24 215.049 1068.95 215.392 1069C216.469 1069.09 218.623 1069.29 220.092 1069.49C220.435 1069.53 220.68 1069.78 220.68 1070.07ZM225.918 1070.51C227.534 1070.86 229.101 1071.3 230.668 1071.74C230.912 1071.84 231.108 1072.08 231.108 1072.33V1078.98C231.108 1079.33 230.815 1079.57 230.521 1079.57H225.772C225.429 1079.57 225.184 1079.28 225.184 1078.98V1071.1C225.184 1070.71 225.527 1070.42 225.918 1070.51Z" fill="#007AFF"/>
<path d="M330.987 1090.29V1083.93H194.878C194.339 1083.93 193.898 1084.32 193.898 1084.86V1089.36C193.898 1089.9 194.339 1090.29 194.878 1090.29H330.987Z" fill="#DEDEFC"/>
<path d="M73.7007 744.632C76.0018 744.632 77.8623 742.674 77.8623 740.226C77.8623 737.778 76.0018 735.819 73.7007 735.819C71.3996 735.819 69.5391 737.778 69.5391 740.226C69.5391 742.625 71.3996 744.632 73.7007 744.632Z" fill="white"/>
<path d="M85.9404 744.632C88.2416 744.632 90.1021 742.674 90.1021 740.226C90.1021 737.778 88.2416 735.819 85.9404 735.819C83.6393 735.819 81.7788 737.778 81.7788 740.226C81.7788 742.625 83.6393 744.632 85.9404 744.632Z" fill="white"/>
<path d="M73.7007 730.435C76.0018 730.435 77.8623 728.574 77.8623 726.273C77.8623 723.972 76.0018 722.111 73.7007 722.111C71.3996 722.111 69.5391 723.972 69.5391 726.273C69.5391 728.525 71.3996 730.435 73.7007 730.435Z" fill="#6CB9FF"/>
<path d="M85.9404 730.435C88.2416 730.435 90.1021 728.574 90.1021 726.273C90.1021 723.972 88.2416 722.111 85.9404 722.111C83.6393 722.111 81.7788 723.972 81.7788 726.273C81.7788 728.525 83.6393 730.435 85.9404 730.435Z" fill="#6CB9FF"/>
<path d="M61.4605 715.747C63.7616 715.747 65.6221 713.887 65.6221 711.585C65.6221 709.284 63.7616 707.424 61.4605 707.424C59.1593 707.424 57.2988 709.284 57.2988 711.585C57.2988 713.887 59.1593 715.747 61.4605 715.747Z" fill="white"/>
<path d="M73.7002 715.747C76.0013 715.747 77.8618 713.887 77.8618 711.585C77.8618 709.284 76.0013 707.424 73.7002 707.424C71.3991 707.424 69.5386 709.284 69.5386 711.585C69.5386 713.887 71.3991 715.747 73.7002 715.747Z" fill="white"/>
<path d="M85.9414 715.747C88.2425 715.747 90.103 713.887 90.103 711.585C90.103 709.284 88.2425 707.424 85.9414 707.424C83.6403 707.424 81.7798 709.284 81.7798 711.585C81.7798 713.887 83.6403 715.747 85.9414 715.747Z" fill="white"/>
<path d="M230.374 780.864C234.535 780.864 237.962 777.338 237.962 773.03C237.962 768.721 234.535 765.196 230.374 765.196C226.212 765.196 222.785 768.721 222.785 773.03C222.736 777.338 226.212 780.864 230.374 780.864Z" fill="#6CB9FF"/>
<path d="M230.128 776.457C231.989 776.457 233.556 774.939 233.556 773.03C233.556 771.169 232.038 769.603 230.128 769.603C228.268 769.603 226.701 771.12 226.701 773.03C226.701 774.89 228.219 776.457 230.128 776.457Z" fill="#0F002D"/>
<path d="M6.47803 1031.59C6.47803 1033.89 8.43644 1035.75 10.8845 1035.75C13.3325 1035.75 15.2909 1033.89 15.2909 1031.59C15.2909 1029.29 13.3325 1027.43 10.8845 1027.43C8.4854 1027.43 6.47803 1029.29 6.47803 1031.59Z" fill="white"/>
<path d="M6.47803 1043.83C6.47803 1046.13 8.43644 1047.99 10.8845 1047.99C13.3325 1047.99 15.2909 1046.13 15.2909 1043.83C15.2909 1041.53 13.3325 1039.67 10.8845 1039.67C8.4854 1039.67 6.47803 1041.53 6.47803 1043.83Z" fill="white"/>
<path d="M20.6763 1043.83C20.6763 1046.13 22.5368 1047.99 24.8379 1047.99C27.139 1047.99 28.9995 1046.13 28.9995 1043.83C28.9995 1041.53 27.139 1039.67 24.8379 1039.67C22.5368 1039.67 20.6763 1041.53 20.6763 1043.83Z" fill="#6CB9FF"/>
<path d="M127.998 994.133C132.159 994.133 135.586 990.608 135.586 986.299C135.586 981.991 132.159 978.466 127.998 978.466C123.836 978.466 120.409 981.991 120.409 986.299C120.36 990.657 123.787 994.133 127.998 994.133Z" fill="#499FFC"/>
<path d="M127.752 989.727C129.612 989.727 131.179 988.209 131.179 986.299C131.179 984.439 129.661 982.872 127.752 982.872C125.891 982.872 124.325 984.39 124.325 986.299C124.325 988.209 125.842 989.727 127.752 989.727Z" fill="#007AFF"/>
</g>
</g>
<defs>
<clipPath id="clip0">
<rect width="320" height="1090" fill="white"/>
</clipPath>
<clipPath id="clip1">
<rect width="777" height="441.132" fill="white" transform="translate(-376 649.161)"/>
</clipPath>
</defs>
</svg>
