<svg width="800" height="1593" viewBox="0 0 800 1593" fill="none" xmlns="http://www.w3.org/2000/svg">
<g clip-path="url(#clip0)">
<rect width="800" height="1593" fill="white"/>
<rect width="800" height="1606" fill="#2683FF"/>
<g clip-path="url(#clip1)">
<path d="M-744 693H696V1593H-744" fill="white"/>
<path d="M696 693H-744V2295H696V693Z" fill="#2683FF"/>
<path d="M-11.3 1593L324.2 1014H357.8L770.5 1018.6L770.2 1593L98.7999 1592.1L-11.3 1593Z" fill="#007AFF"/>
<path d="M436.6 1016V818C436.6 812 434.2 806.7 430.2 802.7C426.2 798.8 420.9 796.3 414.9 796.3C408.9 796.3 403.5 798.7 399.6 802.7C395.6 806.6 393.2 812 393.2 818C393.2 827.4 389.4 835.8 383.2 842C377 848.2 368.5 852 359.1 852C349.7 852 341.2 848.2 335 842C328.8 835.8 325 827.3 325 818V755H337.4V818C337.4 824 339.8 829.3 343.8 833.3C347.8 837.2 353.2 839.7 359.1 839.7C365.1 839.7 370.5 837.3 374.4 833.3C378.4 829.4 380.8 823.9 380.8 818C380.8 808.6 384.6 800.2 390.8 794C397 787.8 405.5 784 414.9 784C424.3 784 432.8 787.8 439 794C445.2 800.2 449 808.7 449 818V1016H436.6Z" fill="#007AFF"/>
<path d="M634 1253H481V1516H634V1253Z" fill="#0062FF"/>
<path d="M305.4 976.1C304.6 976.1 303.9 976.1 303.2 976.2C301.8 976.2 300.6 975.5 299.9 974.3C284.1 945.5 253.4 926 218.1 926C186.1 926 157.9 942 141.1 966.4C140.3 967.6 138.8 968.2 137.4 967.9C133.2 967 128.9 966.5 124.4 966.5C91.6 966.5 65 993 65 1025.6C65 1025.6 65 1025.6 65 1025.7C65 1027.6 66.6 1029.2 68.5 1029.2H351.4C353.3 1029.2 354.9 1027.6 354.9 1025.7V1025.6C355 998.2 332.8 976.1 305.4 976.1Z" fill="#DEDEFC"/>
<path d="M641.5 1347C752.8 1347 843 1256.6 843 1145C843 1033.4 752.8 943 641.5 943C530.2 943 440 1033.4 440 1145C440 1256.6 530.2 1347 641.5 1347Z" fill="white"/>
<path d="M661.9 693H700V1513H634V693.2L661.9 693Z" fill="#6CB9FF"/>
<path d="M599 1344C551.4 1332.3 510.1 1304.5 481 1266.9V1115.4C481 1113.4 481.8 1111.4 483.3 1109.9L540 1052.9H599V1112.1V1344Z" fill="#499FFC"/>
<path d="M481 1255.8H370.7C365.3 1255.8 360.4 1253.6 356.8 1250C353.2 1246.5 351 1241.6 351 1236.2C351 1230.8 353.2 1225.9 356.8 1222.4C360.3 1218.9 365.3 1216.6 370.7 1216.6C379.2 1216.6 386.9 1213.1 392.5 1207.6C398.1 1202 401.6 1194.3 401.6 1185.9C401.6 1177.4 398.1 1169.7 392.5 1164.2C386.9 1158.6 379.2 1155.2 370.7 1155.2H-0.5V1166.4C129.2 1166.4 240.9 1166.4 370.7 1166.4C376.1 1166.4 381 1168.6 384.6 1172.2C388.1 1175.7 390.4 1180.6 390.4 1186C390.4 1191.4 388.2 1196.3 384.6 1199.8C381.1 1203.3 376.1 1205.6 370.7 1205.6C362.2 1205.6 354.5 1209.1 348.9 1214.6C343.3 1220.2 339.8 1227.9 339.8 1236.3C339.8 1244.8 343.3 1252.5 348.9 1258C354.5 1263.6 362.2 1267 370.7 1267H481V1255.8Z" fill="white"/>
<path d="M635 1350C599.6 1347.5 566.6 1336.3 538 1318.7V1115.5C538 1113.5 538.8 1111.5 540.3 1110L597.1 1053H633.8L635 1350Z" fill="#2683FF"/>
<path d="M699 1053H634V1077H699V1053Z" fill="#2683FF"/>
<path d="M699 1108H634V1131H699V1108Z" fill="#2683FF"/>
<path d="M699 1162H634V1186H699V1162Z" fill="#2683FF"/>
<path d="M699 1217H634V1241H699V1217Z" fill="#2683FF"/>
<path d="M699 1272H634V1295H699V1272Z" fill="#2683FF"/>
<path d="M699 1326H634V1350H699V1326Z" fill="#2683FF"/>
<path d="M699 1381H632V1405H699V1381Z" fill="#0062FF"/>
<path d="M699 1436H632V1460H699V1436Z" fill="#0062FF"/>
<path d="M699 1490H632V1514L699 1593V1490Z" fill="#0062FF"/>
<path d="M494 1122H486V1139H494V1122Z" fill="#F7F9F9"/>
<path d="M511 1122H502V1139H511V1122Z" fill="#F7F9F9"/>
<path d="M527 1122H518V1139H527V1122Z" fill="#F7F9F9"/>
<path d="M494 1148H486V1166H494V1148Z" fill="#F7F9F9"/>
<path d="M511 1148H502V1166H511V1148Z" fill="#F7F9F9"/>
<path d="M527 1148H518V1166H527V1148Z" fill="#F7F9F9"/>
<path d="M494 1175H486V1192H494V1175Z" fill="#F7F9F9"/>
<path d="M511 1175H502V1192H511V1175Z" fill="#F7F9F9"/>
<path d="M527 1175H518V1192H527V1175Z" fill="#F7F9F9"/>
<path d="M494 1201H486V1218H494V1201Z" fill="#F7F9F9"/>
<path d="M511 1201H502V1218H511V1201Z" fill="#F7F9F9"/>
<path d="M527 1201H518V1218H527V1201Z" fill="#F7F9F9"/>
<path d="M494 1227H486V1244H494V1227Z" fill="#F7F9F9"/>
<path d="M511 1227H502V1244H511V1227Z" fill="#F7F9F9"/>
<path d="M527 1227H518V1244H527V1227Z" fill="#F7F9F9"/>
<path d="M511 1253H502V1270H511V1253Z" fill="#F7F9F9"/>
<path d="M527 1253H518V1270H527V1253Z" fill="#F7F9F9"/>
<path d="M288.2 1206H310.8C313.1 1206 315 1204.2 315 1202C315 1199.8 313.1 1198 310.8 1198H288.2C285.9 1198 284 1199.8 284 1202C284 1204.2 285.9 1206 288.2 1206Z" fill="#0F002D"/>
<path d="M288.1 1190H327.8C330.1 1190 332 1188 332 1185.5C332 1183 330.1 1181 327.8 1181H288.2C285.9 1181 284 1183 284 1185.5C284 1188 285.8 1190 288.1 1190Z" fill="#0F002D"/>
<path d="M343.2 1190H345.9C348.2 1190 350.1 1188 350.1 1185.5C350.1 1183 348.3 1181 345.9 1181H343.2C340.9 1181 339 1183 339 1185.5C339 1188 340.8 1190 343.2 1190Z" fill="#6CB9FF"/>
<path d="M359.2 1190H361.9C364.2 1190 366.1 1188 366.1 1185.5C366.1 1183 364.3 1181 361.9 1181H359.2C356.9 1181 355 1183 355 1185.5C355 1188 356.8 1190 359.2 1190Z" fill="#6CB9FF"/>
<path d="M341 721H285V816H341V721Z" fill="#499FFC"/>
<path d="M356 693H270V743H356V693Z" fill="#0F002D"/>
<path d="M360 826.9V834.1C360 859.4 339.5 880 314.5 880C289.5 880 269 859.4 269 834.1V826.9C269 801.6 289.5 781 314.5 781C339.5 781 360 801.7 360 826.9Z" fill="#499FFC"/>
<path d="M341 872.1V925.9C341 934.2 334.2 941 326 941C317.7 941 311 934.2 311 925.9V872.1C311 863.8 317.8 857 326 857C334.2 856.9 341 863.8 341 872.1Z" fill="#499FFC"/>
<path d="M298 859.8V874.2C298 881.3 292.2 887 285 887C277.8 887 272 881.3 272 874.2V859.8C272 852.7 277.8 847 285 847C292.2 847 298 852.7 298 859.8Z" fill="#6CB9FF"/>
<path d="M282 849.6V860.4C282 865.7 277.5 870 272 870C266.5 870 262 865.7 262 860.4V849.6C262 844.3 266.5 840 272 840C277.5 840 282 844.3 282 849.6Z" fill="#6CB9FF"/>
<path d="M317 872.3V887.7C317 895.5 310.5 902 302.5 902C294.5 902 288 895.6 288 887.7V872.3C288 864.4 294.5 858 302.5 858C310.5 858 317 864.4 317 872.3Z" fill="#6CB9FF"/>
<path d="M361.4 814.7L362 863.1C362.1 871.5 355.3 878.6 347 878.9C338.7 879.2 331.7 872.6 331.6 864.2L331 815.8C330.9 807.4 337.7 800.3 346 800C354.3 799.7 361.3 806.3 361.4 814.7Z" fill="#6CB9FF"/>
<path d="M356.6 875.8L346.4 888.5C341.2 894.9 331.8 895.9 325.4 890.6C319.1 885.3 318.2 875.7 323.4 869.2L333.6 856.5C338.8 850.1 348.2 849.1 354.6 854.4C360.9 859.7 361.8 869.4 356.6 875.8Z" fill="#6CB9FF"/>
<path d="M307 814.5C307 829.1 318.9 841 333.5 841C348.1 841 360 829.1 360 814.5C360 799.9 348.1 788 333.5 788C318.9 788 307 799.9 307 814.5Z" fill="#6CB9FF"/>
<path d="M316.7 960.4C315.1 959.4 313 960.6 313 962.6V964.6V967.5C313 968.4 313.4 969.2 314.2 969.7L324.3 975.7C325.1 976.2 326 976.2 326.8 975.7L336.9 969.7C337.7 969.2 338.1 968.4 338.1 967.5V964.6V962.6C338.1 960.6 336 959.5 334.4 960.4L326.8 964.9C326 965.4 325.1 965.4 324.3 964.9L316.7 960.4Z" fill="#0F002D"/>
<path d="M316.7 979.4C315.1 978.4 313 979.6 313 981.6V983.6V986.5C313 987.4 313.4 988.2 314.2 988.7L324.3 994.7C325.1 995.2 326 995.2 326.8 994.7L336.9 988.7C337.7 988.2 338.1 987.4 338.1 986.5V983.6V981.6C338.1 979.6 336 978.5 334.4 979.4L326.8 983.9C326 984.4 325.1 984.4 324.3 983.9L316.7 979.4Z" fill="#0F002D"/>
<path d="M634 693H540V1053H634V693Z" fill="#499FFC"/>
<path d="M620.4 1507.7C618 1507.7 615.6 1507.8 613.3 1508.1C588.5 1459.9 538.3 1427 480.4 1427C427.7 1427 381.5 1454.2 354.9 1495.4C347.1 1493.3 338.8 1492.2 330.3 1492.2C277.7 1492.2 235.1 1534.8 235.1 1587.4C235.1 1589.3 235.2 1591.2 235.3 1593.1H699.9C700 1591.2 700.1 1589.4 700.1 1587.4C700 1543.4 664.4 1507.7 620.4 1507.7Z" fill="white"/>
<path d="M598.2 1036H620.8C623.1 1036 625 1034.2 625 1032C625 1029.8 623.1 1028 620.8 1028H598.2C595.9 1028 594 1029.8 594 1032C594 1034.2 595.9 1036 598.2 1036Z" fill="white"/>
<path d="M598.3 1020H604.7C607.1 1020 609 1018 609 1015.5C609 1013 607.1 1011 604.7 1011H598.3C595.9 1011 594 1013 594 1015.5C594 1018 595.9 1020 598.3 1020Z" fill="white"/>
<path d="M598.3 1004H604.7C607.1 1004 609 1002.2 609 1000C609 997.8 607.1 996 604.7 996H598.3C595.9 996 594 997.8 594 1000C594 1002.2 595.9 1004 598.3 1004Z" fill="#0F002D"/>
<path d="M159 1205C160.7 1205 162 1203.4 162 1201.5C162 1199.6 160.7 1198 159 1198C157.3 1198 156 1199.6 156 1201.5C156 1203.4 157.3 1205 159 1205Z" fill="#DEDEFC"/>
<path d="M189.9 1222.3C190.6 1221.6 191 1220.7 191 1219.7V1177.3C191 1175.3 189.4 1173.7 187.4 1173.7H177.4V1163.6C177.4 1153.3 169.1 1144.9 158.9 1144.9C148.7 1144.9 140.4 1153.3 140.4 1163.6V1173.7H130.5C128.5 1173.7 126.9 1175.3 126.9 1177.3V1219.7C126.9 1220.7 127.3 1221.6 128 1222.3L142 1236C142.7 1236.7 143.6 1237 144.5 1237H173.3C174.2 1237 175.1 1236.6 175.8 1236L189.9 1222.3ZM162.5 1211.4V1216C162.5 1218 160.9 1219.6 158.9 1219.6C156.9 1219.6 155.3 1218 155.3 1216V1211.4C151.4 1209.9 148.6 1206.1 148.6 1201.6C148.6 1195.9 153.2 1191.2 158.9 1191.2C164.6 1191.2 169.2 1195.9 169.2 1201.6C169.3 1206.1 166.5 1209.9 162.5 1211.4ZM170.4 1173.7H147.7V1163.6C147.7 1157.3 152.8 1152.1 159 1152.1C165.2 1152.1 170.3 1157.3 170.3 1163.6L170.4 1173.7Z" fill="#DEDEFC"/>
<path d="M85.7001 1120.7L82.1001 1117.2C83.3001 1116 84.6001 1114.8 85.9001 1113.7L89.3001 1117.4C88.1001 1118.4 86.8001 1119.5 85.7001 1120.7ZM93.0001 1114.1L89.8001 1110.3C91.1001 1109.2 92.5001 1108.2 93.9001 1107.2L96.9001 1111.2C95.6001 1112.1 94.3001 1113.1 93.0001 1114.1ZM101 1108.3L98.2001 1104.2C99.6001 1103.3 101.1 1102.4 102.6 1101.5L105.2 1105.8C103.8 1106.5 102.3 1107.4 101 1108.3ZM208.5 1105.6C207.2 1104.9 205.9 1104.1 204.6 1103.5L207 1099.1C208.4 1099.8 209.7 1100.6 211.1 1101.4L208.5 1105.6ZM109.5 1103.3L107.1 1098.9C108.6 1098.1 110.2 1097.3 111.7 1096.6L113.9 1101.1C112.4 1101.8 110.9 1102.6 109.5 1103.3ZM200.2 1101.2C198.7 1100.5 197.2 1099.9 195.7 1099.2L197.6 1094.6C199.2 1095.2 200.8 1095.9 202.4 1096.7L200.2 1101.2ZM118.4 1099.2L116.5 1094.6C118.1 1094 119.7 1093.4 121.4 1092.8L123.1 1097.5C121.5 1098 120 1098.5 118.4 1099.2ZM191.1 1097.5C189.6 1097 188 1096.5 186.4 1096L187.9 1091.2C189.6 1091.7 191.2 1092.2 192.8 1092.8L191.1 1097.5ZM127.7 1095.9L126.2 1091.1C127.9 1090.6 129.6 1090.2 131.2 1089.8L132.4 1094.6C130.9 1095 129.4 1095.4 127.7 1095.9ZM181.6 1094.6C180 1094.2 178.4 1093.9 176.8 1093.6L177.8 1088.7C179.5 1089 181.2 1089.4 182.9 1089.8L181.6 1094.6ZM137.4 1093.5L136.4 1088.6C138.1 1088.3 139.8 1088 141.5 1087.8L142.2 1092.7C140.6 1092.9 139 1093.2 137.4 1093.5ZM171.9 1092.7C170.3 1092.5 168.6 1092.3 167 1092.1L167.5 1087.1C169.2 1087.2 171 1087.5 172.7 1087.7L171.9 1092.7ZM147.2 1092.1L146.7 1087.1C148.4 1087 150.2 1086.8 151.9 1086.8L152.2 1091.8C150.5 1091.8 148.8 1092 147.2 1092.1ZM162 1091.8C160.4 1091.7 158.7 1091.7 157 1091.7V1086.7C158.7 1086.7 160.5 1086.7 162.2 1086.8L162 1091.8Z" fill="white"/>
<path d="M158.9 1296.7L158.8 1291.7C160.4 1291.7 162.1 1291.6 163.7 1291.5L164 1296.5C162.4 1296.6 160.6 1296.7 158.9 1296.7ZM153.7 1296.6C152 1296.5 150.2 1296.4 148.5 1296.3L148.9 1291.3C150.5 1291.5 152.2 1291.5 153.8 1291.6L153.7 1296.6ZM169.3 1296L168.7 1291C170.3 1290.8 172 1290.6 173.6 1290.3L174.4 1295.3C172.7 1295.6 171 1295.8 169.3 1296ZM143.4 1295.8C141.7 1295.6 139.9 1295.3 138.3 1295L139.2 1290.1C140.8 1290.4 142.4 1290.7 144.1 1290.9L143.4 1295.8ZM179.6 1294.4L178.5 1289.5C180.1 1289.1 181.7 1288.7 183.3 1288.3L184.6 1293.2C182.9 1293.6 181.2 1294 179.6 1294.4ZM133.1 1294C131.4 1293.6 129.8 1293.2 128.1 1292.7L129.5 1287.9C131.1 1288.4 132.7 1288.8 134.3 1289.1L133.1 1294ZM189.6 1291.7L188 1286.9C189.6 1286.4 191.1 1285.8 192.7 1285.3L194.5 1290C192.9 1290.6 191.2 1291.1 189.6 1291.7ZM123.1 1291.1C121.5 1290.5 119.8 1289.9 118.2 1289.3L120.1 1284.6C121.6 1285.2 123.2 1285.8 124.8 1286.3L123.1 1291.1ZM199.3 1288L197.3 1283.4C198.8 1282.7 200.3 1282 201.8 1281.3L204 1285.8C202.4 1286.6 200.9 1287.4 199.3 1288ZM113.5 1287.4C111.9 1286.7 110.4 1285.9 108.8 1285.1L111.1 1280.6C112.6 1281.4 114 1282.1 115.6 1282.7L113.5 1287.4ZM208.6 1283.5L206.1 1279.1C207.5 1278.3 208.9 1277.5 210.4 1276.6L213.1 1280.9C211.6 1281.8 210.1 1282.6 208.6 1283.5ZM104.2 1282.6C102.7 1281.7 101.2 1280.8 99.8001 1279.9L102.5 1275.7C103.9 1276.6 105.3 1277.5 106.7 1278.3L104.2 1282.6ZM217.4 1278L214.5 1273.9C215.9 1273 217.2 1272 218.5 1271L221.6 1275C220.2 1276.1 218.8 1277.1 217.4 1278ZM95.5001 1277.1C94.1001 1276.1 92.7001 1275 91.3001 1274L94.4001 1270.1C95.7001 1271.1 97.0001 1272.1 98.4001 1273.1L95.5001 1277.1ZM225.6 1271.8L222.3 1268C223.6 1266.9 224.8 1265.8 226 1264.7L229.5 1268.4C228.2 1269.5 227 1270.7 225.6 1271.8ZM87.4001 1270.6C86.6001 1269.9 85.8001 1269.2 85.1001 1268.5L88.6001 1264.8C89.3001 1265.5 90.1001 1266.1 90.8001 1266.8L87.4001 1270.6ZM233.2 1264.7L229.5 1261.2C230.7 1260 231.8 1258.8 232.8 1257.6L236.6 1260.9C235.6 1262.2 234.4 1263.5 233.2 1264.7ZM240 1256.9L236 1253.8C237 1252.5 238 1251.2 239 1249.9L243.1 1252.8C242.2 1254.2 241.1 1255.6 240 1256.9ZM246.1 1248.6L241.8 1245.9C242.7 1244.5 243.6 1243.1 244.4 1241.7L248.8 1244.2C248 1245.7 247 1247.1 246.1 1248.6ZM251.3 1239.6L246.8 1237.3C247.6 1235.8 248.3 1234.4 248.9 1232.9L253.5 1235C252.8 1236.6 252.1 1238.1 251.3 1239.6ZM255.6 1230.2L250.9 1228.3C251.5 1226.8 252.1 1225.2 252.6 1223.7L257.4 1225.3C256.8 1227 256.2 1228.7 255.6 1230.2ZM258.9 1220.5L254 1219.1C254.5 1217.5 254.9 1215.9 255.2 1214.4L260.1 1215.5C259.8 1217.1 259.4 1218.8 258.9 1220.5ZM261.3 1210.4L256.3 1209.5C256.6 1207.9 256.9 1206.3 257.1 1204.7L262.1 1205.4C261.8 1207 261.6 1208.7 261.3 1210.4Z" fill="white"/>
<path d="M221.9 1565C220.3 1565 219 1563.6 219 1562C219.8 1539.5 229.4 1519.1 244.5 1504.2C259.6 1489.3 280.2 1479.8 303 1479C304.6 1479 306 1480.3 306 1481.9V1507.5C306 1509.1 304.8 1510.3 303.2 1510.4C289.1 1511.1 276.3 1517.1 266.9 1526.4C257.5 1535.7 251.4 1548.3 250.7 1562.3C250.6 1563.9 249.3 1565.1 247.8 1565.1H221.9V1565Z" fill="#DEDEFC"/>
<path d="M304.5 1506C310.3 1506 315 1501.3 315 1495.5C315 1489.7 310.3 1485 304.5 1485C298.7 1485 294 1489.7 294 1495.5C294 1501.3 298.7 1506 304.5 1506Z" fill="#499FFC"/>
<path d="M300.5 1564C303.5 1564 306 1561.5 306 1558.5C306 1555.5 303.5 1553 300.5 1553C297.5 1553 295 1555.5 295 1558.5C295 1561.5 297.5 1564 300.5 1564Z" fill="#0F002D"/>
<path d="M432.1 1552.7V1570.8C432.1 1571.5 431.5 1572 430.9 1572H421.2C420.6 1572 420 1571.4 420 1570.8V1554.3C420 1553.7 420.4 1553.2 421 1553.1C423 1552.7 427.4 1551.9 430.7 1551.4C431.4 1551.4 432.1 1551.9 432.1 1552.7ZM452.2 1550C452.8 1550 453.4 1550.6 453.4 1551.2V1570.8C453.4 1571.5 452.8 1572 452.2 1572H442.5C441.8 1572 441.3 1571.4 441.3 1570.8V1551.5C441.3 1550.8 441.8 1550.3 442.5 1550.3C444.6 1550.2 449.4 1550 452.2 1550ZM474.7 1552.7V1570.8C474.7 1571.5 474.1 1572 473.5 1572H463.8C463.2 1572 462.6 1571.4 462.6 1570.8V1551.7C462.6 1551 463.2 1550.4 463.9 1550.5C466.1 1550.7 470.5 1551.1 473.5 1551.5C474.2 1551.6 474.7 1552.1 474.7 1552.7ZM485.4 1553.6C488.7 1554.3 491.9 1555.2 495.1 1556.1C495.6 1556.3 496 1556.8 496 1557.3V1570.9C496 1571.6 495.4 1572.1 494.8 1572.1H485.1C484.4 1572.1 483.9 1571.5 483.9 1570.9V1554.8C483.9 1554 484.6 1553.4 485.4 1553.6Z" fill="#007AFF"/>
<path d="M700 1594V1581H422C420.9 1581 420 1581.8 420 1582.9V1592.1C420 1593.2 420.9 1594 422 1594H700Z" fill="#DEDEFC"/>
<path d="M174.5 888C179.2 888 183 884 183 879C183 874 179.2 870 174.5 870C169.8 870 166 874 166 879C166 883.9 169.8 888 174.5 888Z" fill="white"/>
<path d="M199.5 888C204.2 888 208 884 208 879C208 874 204.2 870 199.5 870C194.8 870 191 874 191 879C191 883.9 194.8 888 199.5 888Z" fill="white"/>
<path d="M174.5 859C179.2 859 183 855.2 183 850.5C183 845.8 179.2 842 174.5 842C169.8 842 166 845.8 166 850.5C166 855.1 169.8 859 174.5 859Z" fill="#6CB9FF"/>
<path d="M199.5 859C204.2 859 208 855.2 208 850.5C208 845.8 204.2 842 199.5 842C194.8 842 191 845.8 191 850.5C191 855.1 194.8 859 199.5 859Z" fill="#6CB9FF"/>
<path d="M149.5 829C154.2 829 158 825.2 158 820.5C158 815.8 154.2 812 149.5 812C144.8 812 141 815.8 141 820.5C141 825.2 144.8 829 149.5 829Z" fill="white"/>
<path d="M174.5 829C179.2 829 183 825.2 183 820.5C183 815.8 179.2 812 174.5 812C169.8 812 166 815.8 166 820.5C166 825.2 169.8 829 174.5 829Z" fill="white"/>
<path d="M199.5 829C204.2 829 208 825.2 208 820.5C208 815.8 204.2 812 199.5 812C194.8 812 191 815.8 191 820.5C191 825.2 194.8 829 199.5 829Z" fill="white"/>
<path d="M494.5 962C503 962 510 954.8 510 946C510 937.2 503 930 494.5 930C486 930 479 937.2 479 946C478.9 954.8 486 962 494.5 962Z" fill="#6CB9FF"/>
<path d="M494 953C497.8 953 501 949.9 501 946C501 942.2 497.9 939 494 939C490.2 939 487 942.1 487 946C487 949.8 490.1 953 494 953Z" fill="#0F002D"/>
<path d="M37.2 1474.1C37.2 1478.8 41.2 1482.6 46.2 1482.6C51.2 1482.6 55.2 1478.8 55.2 1474.1C55.2 1469.4 51.2 1465.6 46.2 1465.6C41.3 1465.6 37.2 1469.4 37.2 1474.1Z" fill="white"/>
<path d="M37.2 1499.1C37.2 1503.8 41.2 1507.6 46.2 1507.6C51.2 1507.6 55.2 1503.8 55.2 1499.1C55.2 1494.4 51.2 1490.6 46.2 1490.6C41.3 1490.6 37.2 1494.4 37.2 1499.1Z" fill="white"/>
<path d="M66.2 1499.1C66.2 1503.8 70 1507.6 74.7 1507.6C79.4 1507.6 83.2 1503.8 83.2 1499.1C83.2 1494.4 79.4 1490.6 74.7 1490.6C70 1490.6 66.2 1494.4 66.2 1499.1Z" fill="#6CB9FF"/>
<path d="M285.4 1397.6C293.9 1397.6 300.9 1390.4 300.9 1381.6C300.9 1372.8 293.9 1365.6 285.4 1365.6C276.9 1365.6 269.9 1372.8 269.9 1381.6C269.8 1390.5 276.8 1397.6 285.4 1397.6Z" fill="#499FFC"/>
<path d="M284.9 1388.6C288.7 1388.6 291.9 1385.5 291.9 1381.6C291.9 1377.8 288.8 1374.6 284.9 1374.6C281.1 1374.6 277.9 1377.7 277.9 1381.6C277.9 1385.5 281 1388.6 284.9 1388.6Z" fill="#007AFF"/>
</g>
</g>
<defs>
<clipPath id="clip0">
<rect width="800" height="1593" fill="white"/>
</clipPath>
<clipPath id="clip1">
<rect width="1587" height="901" fill="white" transform="translate(-744 693)"/>
</clipPath>
</defs>
</svg>
