<svg width="1440" height="900" viewBox="0 0 1440 900" fill="none" xmlns="http://www.w3.org/2000/svg">
<path d="M0 -1H1440V899H0" fill="white"/>
<path d="M1440 -1H0V899H1440V-1Z" fill="#2683FF"/>
<path d="M732.7 899L1068.2 320H1101.8L1514.5 324.6L1514.2 899L842.8 898.1L732.7 899Z" fill="#007AFF"/>
<path d="M325.3 579C325 578.6 324.5 578.3 324.1 578.1C323.6 577.9 323.2 577.8 322.7 577.8C322.1 577.8 321.5 577.9 321 578.2C320.5 578.5 320.1 578.9 319.8 579.4C319.5 579.9 319.4 580.5 319.4 581.1C319.4 581.7 319.5 582.3 319.8 582.8C320.1 583.3 320.5 583.7 321 584C321.5 584.3 322.1 584.4 322.7 584.4C323.2 584.4 323.6 584.3 324.1 584.1C324.6 583.9 325 583.6 325.4 583.2L326.5 584.4C326 584.9 325.4 585.3 324.7 585.6C324 585.9 323.3 586 322.6 586C321.7 586 320.8 585.8 320 585.3C319.2 584.8 318.6 584.2 318.2 583.5C317.8 582.7 317.5 581.9 317.5 580.9C317.5 579.9 317.7 579.1 318.2 578.4C318.7 577.6 319.3 577 320.1 576.6C320.9 576.2 321.8 575.9 322.7 575.9C323.4 575.9 324.1 576 324.8 576.3C325.5 576.6 326 577 326.5 577.5L325.3 579ZM329.7 580C330 579.5 330.3 579.1 330.7 578.9C331.1 578.6 331.6 578.5 332.2 578.5V580.3C331.4 580.3 330.8 580.4 330.3 580.8C329.8 581.2 329.6 581.7 329.6 582.4V586H327.8V578.5H329.6V580H329.7ZM336.6 578.5C337.8 578.5 338.7 578.8 339.3 579.5C339.9 580.2 340.2 581.1 340.2 582.4C340.2 582.6 340.2 582.8 340.2 582.9H334.7C334.8 583.4 335.1 583.9 335.4 584.2C335.8 584.5 336.2 584.6 336.8 584.6C337.2 584.6 337.5 584.5 337.9 584.4C338.3 584.3 338.6 584 338.8 583.8L339.8 584.8C339.4 585.2 339 585.5 338.4 585.8C337.9 586 337.3 586.1 336.6 586.1C335.8 586.1 335.2 585.9 334.6 585.6C334 585.3 333.6 584.8 333.3 584.3C333 583.7 332.8 583.1 332.8 582.3C332.8 581.5 333 580.9 333.3 580.3C333.6 579.7 334.1 579.3 334.7 579C335.2 578.6 335.9 578.5 336.6 578.5ZM338.6 581.7C338.6 581.1 338.4 580.7 338.1 580.4C337.8 580.1 337.3 579.9 336.7 579.9C336.2 579.9 335.7 580.1 335.4 580.4C335 580.7 334.8 581.2 334.7 581.7H338.6ZM346.2 586V585.1C345.9 585.4 345.6 585.7 345.2 585.8C344.8 586 344.3 586.1 343.8 586.1C343.3 586.1 342.8 586 342.4 585.8C342 585.6 341.7 585.3 341.5 585C341.3 584.6 341.2 584.2 341.2 583.8C341.2 583.1 341.4 582.6 341.9 582.2C342.4 581.8 343.1 581.6 344 581.6H346.2V581.4C346.2 581 346.1 580.6 345.8 580.4C345.5 580.2 345.1 580 344.5 580C343.8 580 343 580.2 342.3 580.7L341.6 579.4C342.2 579.1 342.7 578.8 343.2 578.7C343.7 578.6 344.3 578.5 344.9 578.5C345.9 578.5 346.6 578.7 347.2 579.2C347.7 579.7 348 580.3 348 581.2V586.1H346.2V586ZM344.2 584.7C344.7 584.7 345.2 584.6 345.5 584.3C345.9 584 346.1 583.7 346.1 583.4V582.7H344.2C343.7 582.7 343.4 582.8 343.1 582.9C342.9 583 342.8 583.3 342.8 583.6C342.8 583.9 342.9 584.2 343.2 584.4C343.5 584.6 343.8 584.7 344.2 584.7ZM354.4 585.5C353.8 585.9 353.2 586 352.5 586C351.9 586 351.3 585.8 350.9 585.4C350.5 585 350.3 584.5 350.3 583.7V580H349.3V578.7H350.4V576.6H352.2V578.7H354.3V580H352.2V583.4C352.2 583.7 352.3 584 352.4 584.1C352.5 584.2 352.7 584.3 353 584.3C353.3 584.3 353.6 584.2 354.1 584L354.4 585.5ZM358.9 578.5C360.1 578.5 361 578.8 361.6 579.5C362.2 580.2 362.5 581.1 362.5 582.4C362.5 582.6 362.5 582.8 362.5 582.9H357C357.1 583.4 357.4 583.9 357.7 584.2C358.1 584.5 358.6 584.6 359.1 584.6C359.5 584.6 359.8 584.5 360.2 584.4C360.6 584.3 360.9 584 361.1 583.8L362.1 584.8C361.7 585.2 361.3 585.5 360.7 585.8C360.2 586 359.6 586.1 358.9 586.1C358.1 586.1 357.5 585.9 356.9 585.6C356.3 585.3 355.9 584.8 355.6 584.3C355.3 583.7 355.1 583.1 355.1 582.3C355.1 581.5 355.3 580.9 355.6 580.3C355.9 579.7 356.4 579.3 357 579C357.5 578.6 358.2 578.5 358.9 578.5ZM360.8 581.7C360.8 581.1 360.6 580.7 360.3 580.4C360 580.1 359.5 579.9 358.9 579.9C358.4 579.9 357.9 580.1 357.6 580.4C357.2 580.7 357 581.2 356.9 581.7H360.8ZM371.9 586V585.1C371.6 585.4 371.3 585.7 370.9 585.8C370.5 586 370 586.1 369.5 586.1C369 586.1 368.5 586 368.1 585.8C367.7 585.6 367.4 585.3 367.2 585C367 584.6 366.9 584.2 366.9 583.8C366.9 583.1 367.1 582.6 367.6 582.2C368.1 581.8 368.8 581.6 369.7 581.6H371.9V581.4C371.9 581 371.8 580.6 371.5 580.4C371.2 580.2 370.8 580 370.2 580C369.5 580 368.7 580.2 368 580.7L367.3 579.4C367.9 579.1 368.4 578.8 368.9 578.7C369.4 578.6 369.9 578.5 370.6 578.5C371.6 578.5 372.3 578.7 372.9 579.2C373.4 579.7 373.7 580.3 373.7 581.2V586.1H371.9V586ZM369.9 584.7C370.4 584.7 370.9 584.6 371.2 584.3C371.6 584 371.8 583.7 371.8 583.4V582.7H370C369.5 582.7 369.2 582.8 368.9 582.9C368.7 583 368.6 583.3 368.6 583.6C368.6 583.9 368.7 584.2 369 584.4C369.2 584.6 369.5 584.7 369.9 584.7ZM380.9 580.9C380.4 580.3 379.7 580.1 378.9 580.1C378.3 580.1 377.8 580.3 377.4 580.7C377 581.1 376.8 581.6 376.8 582.3C376.8 583 377 583.5 377.4 583.9C377.8 584.3 378.3 584.5 378.9 584.5C379.8 584.5 380.5 584.2 380.9 583.6L382 584.5C381.7 585 381.2 585.4 380.7 585.6C380.1 585.9 379.5 586 378.8 586C378.1 586 377.4 585.8 376.8 585.5C376.2 585.2 375.8 584.7 375.5 584.2C375.2 583.6 375 583 375 582.2C375 581.4 375.2 580.8 375.5 580.2C375.8 579.6 376.3 579.2 376.8 578.9C377.4 578.6 378 578.4 378.8 578.4C379.5 578.4 380.1 578.5 380.6 578.8C381.1 579 381.6 579.4 381.9 579.8L380.9 580.9ZM388.6 580.9C388.1 580.3 387.4 580.1 386.6 580.1C386 580.1 385.5 580.3 385.1 580.7C384.7 581.1 384.5 581.6 384.5 582.3C384.5 583 384.7 583.5 385.1 583.9C385.5 584.3 386 584.5 386.6 584.5C387.5 584.5 388.2 584.2 388.6 583.6L389.7 584.5C389.4 585 388.9 585.4 388.4 585.6C387.8 585.9 387.2 586 386.5 586C385.8 586 385.1 585.8 384.5 585.5C383.9 585.2 383.5 584.7 383.2 584.2C382.9 583.6 382.7 583 382.7 582.2C382.7 581.4 382.9 580.8 383.2 580.2C383.5 579.6 384 579.2 384.5 578.9C385.1 578.6 385.7 578.4 386.5 578.4C387.2 578.4 387.8 578.5 388.3 578.8C388.8 579 389.3 579.4 389.6 579.8L388.6 580.9ZM394.3 578.5C395.1 578.5 395.8 578.7 396.3 579C396.9 579.3 397.4 579.8 397.7 580.3C398 580.9 398.2 581.5 398.2 582.3C398.2 583.1 398 583.7 397.7 584.3C397.4 584.9 396.9 585.3 396.3 585.6C395.7 585.9 395 586.1 394.3 586.1C393.5 586.1 392.8 585.9 392.2 585.6C391.6 585.3 391.1 584.8 390.8 584.3C390.5 583.7 390.3 583.1 390.3 582.3C390.3 581.6 390.5 580.9 390.8 580.3C391.1 579.7 391.6 579.3 392.2 579C392.8 578.6 393.5 578.5 394.3 578.5ZM394.3 580C393.7 580 393.2 580.2 392.8 580.6C392.4 581 392.2 581.6 392.2 582.2C392.2 582.8 392.4 583.4 392.8 583.8C393.2 584.2 393.7 584.4 394.3 584.4C394.9 584.4 395.4 584.2 395.8 583.8C396.2 583.4 396.4 582.8 396.4 582.2C396.4 581.6 396.2 581 395.8 580.6C395.4 580.2 394.9 580 394.3 580ZM406.8 578.5V586H405V584.6C404.5 585.6 403.6 586.1 402.4 586.1C401.6 586.1 400.9 585.8 400.4 585.3C399.9 584.8 399.7 584.1 399.7 583.2V578.5H401.5V582.7C401.5 583.2 401.6 583.6 401.9 583.9C402.2 584.2 402.6 584.3 403.1 584.3C403.7 584.3 404.1 584.1 404.5 583.7C404.8 583.3 405 582.8 405 582.2V578.5H406.8ZM413.5 578.4C414.4 578.4 415 578.7 415.5 579.2C416 579.7 416.2 580.4 416.2 581.3V586H414.4V581.9C414.4 581.4 414.3 581 414 580.7C413.7 580.4 413.3 580.2 412.8 580.2C412.2 580.2 411.7 580.4 411.4 580.8C411.1 581.2 410.9 581.7 410.9 582.3V586H409V578.5H410.8V579.9C411.4 578.9 412.3 578.5 413.5 578.4ZM422.7 585.5C422.1 585.9 421.5 586 420.8 586C420.2 586 419.6 585.8 419.2 585.4C418.8 585 418.6 584.5 418.6 583.7V580H417.6V578.7H418.7V576.6H420.5V578.7H422.6V580H420.5V583.4C420.5 583.7 420.6 584 420.7 584.1C420.8 584.2 421 584.3 421.3 584.3C421.6 584.3 421.9 584.2 422.4 584L422.7 585.5Z" fill="#2683FF"/>
<path d="M462 576.2H468.4V577.4H463.4V580.6H467.9V581.8H463.4V585.9H462V576.2ZM472.9 578.6C473.6 578.6 474.3 578.8 474.9 579.1C475.5 579.4 475.9 579.9 476.2 580.4C476.5 581 476.7 581.6 476.7 582.3C476.7 583 476.5 583.7 476.2 584.2C475.9 584.8 475.4 585.2 474.9 585.5C474.3 585.8 473.7 586 472.9 586C472.2 586 471.5 585.8 470.9 585.5C470.3 585.2 469.9 584.7 469.6 584.2C469.3 583.6 469.1 583 469.1 582.2C469.1 581.5 469.3 580.8 469.6 580.3C469.9 579.7 470.4 579.3 470.9 579C471.5 578.7 472.1 578.6 472.9 578.6ZM472.9 579.7C472.4 579.7 472 579.8 471.6 580C471.2 580.2 470.9 580.5 470.7 580.9C470.5 581.3 470.4 581.7 470.4 582.2C470.4 582.7 470.5 583.2 470.7 583.6C470.9 584 471.2 584.3 471.6 584.5C472 584.7 472.4 584.8 472.9 584.8C473.4 584.8 473.8 584.7 474.2 584.5C474.6 584.3 474.9 584 475.1 583.6C475.3 583.2 475.4 582.7 475.4 582.2C475.4 581.7 475.3 581.2 475.1 580.9C474.9 580.5 474.6 580.2 474.2 580C473.8 579.8 473.4 579.7 472.9 579.7ZM479.8 580.2C480 579.7 480.4 579.3 480.8 579C481.2 578.7 481.8 578.6 482.4 578.6V579.9C481.6 579.9 481 580.1 480.6 580.5C480.1 580.9 479.9 581.5 479.8 582.2V586.1H478.5V578.7H479.8V580.2ZM490.4 578.6V585.3C490.4 586 490.2 586.6 489.9 587.2C489.6 587.7 489.2 588.1 488.6 588.4C488 588.7 487.4 588.8 486.6 588.8C485.5 588.8 484.5 588.5 483.5 587.8L484.1 586.8C484.5 587.1 484.8 587.3 485.2 587.5C485.6 587.6 486 587.7 486.5 587.7C487.3 587.7 487.9 587.5 488.3 587.1C488.8 586.7 489 586.1 489 585.4V584.4C488.7 584.8 488.4 585.2 487.9 585.4C487.5 585.6 486.9 585.8 486.4 585.8C485.7 585.8 485.1 585.7 484.6 585.4C484.1 585.1 483.7 584.7 483.4 584.1C483.1 583.6 483 582.9 483 582.2C483 581.5 483.1 580.9 483.4 580.4C483.7 579.9 484.1 579.5 484.6 579.2C485.1 578.9 485.7 578.8 486.4 578.8C487 578.8 487.5 578.9 487.9 579.2C488.3 579.4 488.7 579.8 489 580.2V578.8H490.4V578.6ZM486.7 584.6C487.2 584.6 487.6 584.5 487.9 584.3C488.3 584.1 488.5 583.8 488.7 583.4C488.9 583 489 582.6 489 582.1C489 581.6 488.9 581.2 488.7 580.8C488.5 580.4 488.2 580.1 487.9 579.9C487.5 579.7 487.1 579.6 486.7 579.6C486.2 579.6 485.8 579.7 485.5 579.9C485.1 580.1 484.9 580.4 484.7 580.8C484.5 581.2 484.4 581.6 484.4 582.1C484.4 582.8 484.6 583.4 485.1 583.9C485.5 584.4 486 584.6 486.7 584.6ZM495.8 578.6C496.5 578.6 497.2 578.8 497.8 579.1C498.4 579.4 498.8 579.9 499.1 580.4C499.4 581 499.6 581.6 499.6 582.3C499.6 583 499.4 583.7 499.1 584.2C498.8 584.8 498.3 585.2 497.8 585.5C497.2 585.8 496.6 586 495.8 586C495.1 586 494.4 585.8 493.8 585.5C493.2 585.2 492.8 584.7 492.5 584.2C492.2 583.6 492 583 492 582.2C492 581.5 492.2 580.8 492.5 580.3C492.8 579.7 493.3 579.3 493.8 579C494.4 578.7 495.1 578.6 495.8 578.6ZM495.8 579.7C495.3 579.7 494.9 579.8 494.5 580C494.1 580.2 493.8 580.5 493.6 580.9C493.4 581.3 493.3 581.7 493.3 582.2C493.3 582.7 493.4 583.2 493.6 583.6C493.8 584 494.1 584.3 494.5 584.5C494.9 584.7 495.3 584.8 495.8 584.8C496.3 584.8 496.7 584.7 497.1 584.5C497.5 584.3 497.8 584 498 583.6C498.2 583.2 498.3 582.7 498.3 582.2C498.3 581.7 498.2 581.2 498 580.9C497.8 580.5 497.5 580.2 497.1 580C496.7 579.8 496.3 579.7 495.8 579.7ZM505.4 585.5C504.8 585.9 504.3 586 503.7 586C503.1 586 502.6 585.8 502.3 585.5C501.9 585.1 501.8 584.6 501.8 583.9V579.8H500.7V578.8H501.8V576.8H503.1V578.8H505.4V579.8H503V583.7C503 584.1 503.1 584.4 503.2 584.6C503.3 584.8 503.6 584.9 503.9 584.9C504.3 584.9 504.6 584.8 505 584.6L505.4 585.5ZM514.8 578.6C515.5 578.6 516.1 578.8 516.6 579.1C517.1 579.4 517.6 579.9 517.9 580.4C518.2 581 518.3 581.6 518.3 582.4C518.3 583.1 518.2 583.8 517.9 584.3C517.6 584.9 517.2 585.3 516.7 585.6C516.2 585.9 515.6 586.1 514.9 586.1C514.3 586.1 513.7 586 513.2 585.7C512.7 585.4 512.4 585.1 512.1 584.6V588.8H510.8V578.7H512.1V580.2C512.4 579.7 512.7 579.3 513.2 579.1C513.6 578.7 514.2 578.6 514.8 578.6ZM514.6 584.9C515.1 584.9 515.5 584.8 515.9 584.6C516.3 584.4 516.6 584.1 516.8 583.7C517 583.3 517.1 582.8 517.1 582.3C517.1 581.8 517 581.4 516.8 581C516.6 580.6 516.3 580.3 515.9 580.1C515.5 579.9 515.1 579.8 514.6 579.8C514.1 579.8 513.7 579.9 513.3 580.1C512.9 580.3 512.6 580.6 512.4 581C512.2 581.4 512.1 581.8 512.1 582.3C512.1 582.8 512.2 583.3 512.4 583.7C512.6 584.1 512.9 584.4 513.3 584.6C513.6 584.8 514.1 584.9 514.6 584.9ZM524.7 586V585C524.2 585.7 523.3 586.1 522.1 586.1C521.6 586.1 521.1 586 520.7 585.8C520.3 585.6 520 585.3 519.8 585C519.6 584.7 519.5 584.3 519.5 583.8C519.5 583.1 519.7 582.6 520.2 582.2C520.7 581.8 521.4 581.6 522.3 581.6H524.7V581.3C524.7 580.8 524.5 580.4 524.2 580.1C523.9 579.8 523.4 579.7 522.8 579.7C522.1 579.7 521.3 580 520.5 580.5L520 579.6C520.5 579.3 521 579 521.5 578.9C522 578.7 522.5 578.7 523.1 578.7C524 578.7 524.7 578.9 525.2 579.4C525.7 579.8 526 580.5 526 581.3V586.2H524.7V586ZM522.4 585C523 585 523.5 584.9 523.9 584.6C524.3 584.3 524.6 583.9 524.7 583.4V582.7H522.5C521.9 582.7 521.5 582.8 521.2 583C520.9 583.2 520.8 583.5 520.8 583.8C520.8 584.1 520.9 584.5 521.2 584.7C521.5 584.9 521.9 585 522.4 585ZM532.4 580.2C532.1 580 531.8 579.9 531.4 579.8C531 579.7 530.7 579.6 530.3 579.6C529.9 579.6 529.6 579.7 529.3 579.8C529.1 579.9 528.9 580.2 528.9 580.5C528.9 580.8 529 581 529.3 581.2C529.6 581.3 530 581.5 530.5 581.7C531 581.8 531.4 582 531.8 582.1C532.1 582.2 532.4 582.5 532.6 582.8C532.8 583.1 532.9 583.5 532.9 583.9C532.9 584.6 532.6 585.1 532.1 585.5C531.6 585.9 530.9 586 530.1 586C529.5 586 529 585.9 528.5 585.7C528 585.5 527.6 585.3 527.2 584.9L527.7 583.9C528 584.2 528.4 584.4 528.8 584.6C529.3 584.8 529.7 584.9 530.1 584.9C530.5 584.9 530.9 584.8 531.1 584.7C531.4 584.5 531.5 584.3 531.5 584C531.5 583.7 531.4 583.4 531.1 583.2C530.8 583 530.4 582.9 529.9 582.7C529.4 582.6 529 582.4 528.7 582.3C528.4 582.2 528.1 581.9 527.9 581.7C527.7 581.4 527.6 581.1 527.6 580.6C527.6 579.9 527.9 579.4 528.4 579C528.9 578.7 529.5 578.5 530.3 578.5C530.7 578.5 531.2 578.6 531.6 578.7C532 578.8 532.4 579 532.7 579.2L532.4 580.2ZM538.8 580.2C538.5 580 538.2 579.9 537.8 579.8C537.4 579.7 537.1 579.6 536.7 579.6C536.3 579.6 536 579.7 535.7 579.8C535.5 579.9 535.3 580.2 535.3 580.5C535.3 580.8 535.4 581 535.7 581.2C536 581.3 536.4 581.5 536.9 581.7C537.4 581.8 537.8 582 538.2 582.1C538.5 582.2 538.8 582.5 539 582.8C539.2 583.1 539.3 583.5 539.3 583.9C539.3 584.6 539 585.1 538.5 585.5C538 585.9 537.3 586 536.5 586C535.9 586 535.4 585.9 534.9 585.7C534.4 585.5 534 585.3 533.6 584.9L534.1 583.9C534.4 584.2 534.8 584.4 535.2 584.6C535.7 584.8 536.1 584.9 536.5 584.9C536.9 584.9 537.3 584.8 537.5 584.7C537.8 584.5 537.9 584.3 537.9 584C537.9 583.7 537.8 583.4 537.5 583.2C537.2 583 536.8 582.9 536.3 582.7C535.8 582.6 535.4 582.4 535.1 582.3C534.8 582.2 534.5 581.9 534.3 581.7C534.1 581.4 534 581.1 534 580.6C534 579.9 534.3 579.4 534.8 579C535.3 578.7 535.9 578.5 536.7 578.5C537.1 578.5 537.6 578.6 538 578.7C538.4 578.8 538.8 579 539.1 579.2L538.8 580.2ZM539.9 578.6H541.3L543.4 584.7L545.4 578.6H546.8L548.9 584.7L550.9 578.6H552.2L549.5 586H548.1L546.1 580.2L544.1 586H542.7L539.9 578.6ZM556.2 578.6C556.9 578.6 557.6 578.8 558.2 579.1C558.8 579.4 559.2 579.9 559.5 580.4C559.8 581 560 581.6 560 582.3C560 583 559.8 583.7 559.5 584.2C559.2 584.8 558.7 585.2 558.2 585.5C557.6 585.8 557 586 556.2 586C555.5 586 554.8 585.8 554.2 585.5C553.6 585.2 553.2 584.7 552.9 584.2C552.6 583.6 552.4 583 552.4 582.2C552.4 581.5 552.6 580.8 552.9 580.3C553.2 579.7 553.7 579.3 554.2 579C554.8 578.7 555.5 578.6 556.2 578.6ZM556.2 579.7C555.7 579.7 555.3 579.8 554.9 580C554.5 580.2 554.2 580.5 554 580.9C553.8 581.3 553.7 581.7 553.7 582.2C553.7 582.7 553.8 583.2 554 583.6C554.2 584 554.5 584.3 554.9 584.5C555.3 584.7 555.7 584.8 556.2 584.8C556.7 584.8 557.1 584.7 557.5 584.5C557.9 584.3 558.2 584 558.4 583.6C558.6 583.2 558.7 582.7 558.7 582.2C558.7 581.7 558.6 581.2 558.4 580.9C558.2 580.5 557.9 580.2 557.5 580C557.1 579.8 556.7 579.7 556.2 579.7ZM563.2 580.2C563.4 579.7 563.8 579.3 564.2 579C564.6 578.7 565.2 578.6 565.8 578.6V579.9C565 579.9 564.4 580.1 564 580.5C563.5 580.9 563.3 581.5 563.2 582.2V586.1H561.9V578.7H563.2V580.2ZM574.1 575.6V586H572.8V584.5C572.5 585 572.1 585.4 571.7 585.6C571.2 585.9 570.7 586 570.1 586C569.4 586 568.8 585.8 568.2 585.5C567.7 585.2 567.3 584.7 567 584.2C566.7 583.6 566.6 583 566.6 582.2C566.6 581.5 566.7 580.8 567 580.3C567.3 579.7 567.7 579.3 568.2 579C568.7 578.7 569.4 578.5 570 578.5C570.6 578.5 571.2 578.6 571.7 578.9C572.2 579.2 572.5 579.5 572.8 580V575.5L574.1 575.6ZM570.3 585C570.8 585 571.2 584.9 571.6 584.7C572 584.5 572.3 584.2 572.5 583.8C572.7 583.4 572.8 582.9 572.8 582.4C572.8 581.9 572.7 581.4 572.5 581C572.3 580.6 572 580.3 571.6 580.1C571.2 579.9 570.8 579.8 570.3 579.8C569.8 579.8 569.4 579.9 569 580.1C568.6 580.3 568.3 580.6 568.1 581C567.9 581.4 567.8 581.9 567.8 582.4C567.8 582.9 567.9 583.4 568.1 583.8C568.3 584.2 568.6 584.5 569 584.7C569.4 584.8 569.8 585 570.3 585Z" fill="#2683FF"/>
<path d="M1180.6 322V124C1180.6 118 1178.2 112.7 1174.2 108.7C1170.2 104.8 1164.9 102.3 1158.9 102.3C1152.9 102.3 1147.5 104.7 1143.6 108.7C1139.6 112.6 1137.2 118 1137.2 124C1137.2 133.4 1133.4 141.8 1127.2 148C1121 154.2 1112.5 158 1103.1 158C1093.7 158 1085.2 154.2 1079 148C1072.8 141.8 1069 133.3 1069 124V61H1081.4V124C1081.4 130 1083.8 135.3 1087.8 139.3C1091.8 143.2 1097.2 145.7 1103.1 145.7C1109.1 145.7 1114.5 143.3 1118.4 139.3C1122.4 135.4 1124.8 129.9 1124.8 124C1124.8 114.6 1128.6 106.2 1134.8 100C1141 93.8 1149.5 90 1158.9 90C1168.3 90 1176.8 93.8 1183 100C1189.2 106.2 1193 114.7 1193 124V322H1180.6Z" fill="#007AFF"/>
<path d="M573.4 705V752C573.4 758 575.8 763.3 579.8 767.3C583.8 771.2 589.1 773.7 595.1 773.7C601.1 773.7 606.5 771.3 610.4 767.3C614.4 763.4 616.8 758 616.8 752C616.8 742.6 620.6 734.2 626.8 728C633 721.8 641.5 718 650.9 718C660.3 718 668.8 721.8 675 728C681.2 734.2 685 742.7 685 752V899H672.6V752C672.6 746 670.2 740.7 666.2 736.7C662.2 732.8 656.8 730.3 650.9 730.3C644.9 730.3 639.5 732.7 635.6 736.7C631.6 740.6 629.2 746.1 629.2 752C629.2 761.4 625.4 769.8 619.2 776C613 782.2 604.5 786 595.1 786C585.7 786 577.2 782.2 571 776C564.8 769.8 561 761.3 561 752V705H573.4Z" fill="#007AFF"/>
<path d="M1378 559H1225V822H1378V559Z" fill="#0062FF"/>
<path d="M1049.4 282.1C1048.6 282.1 1047.9 282.1 1047.2 282.2C1045.8 282.2 1044.6 281.5 1043.9 280.3C1028.1 251.5 997.4 232 962.1 232C930.1 232 901.9 248 885.1 272.4C884.3 273.6 882.8 274.2 881.4 273.9C877.2 273 872.9 272.5 868.4 272.5C835.6 272.5 809 299 809 331.6C809 331.6 809 331.6 809 331.7C809 333.6 810.6 335.2 812.5 335.2H1095.4C1097.3 335.2 1098.9 333.6 1098.9 331.7V331.6C1099 304.2 1076.8 282.1 1049.4 282.1Z" fill="#DEDEFC"/>
<path d="M543.2 838.8C542.3 838.8 541.5 838.8 540.7 838.9C539.2 839 537.7 838.2 537 836.8C519.1 804.1 484.1 781.8 443.9 781.8C407.5 781.8 375.4 800 356.4 827.7C355.5 829.1 353.8 829.7 352.1 829.4C347.3 828.4 342.4 827.8 337.3 827.8C300 827.9 269.8 857.9 269.8 895C269.8 895 269.8 895 269.8 895.1C269.8 897.3 271.6 899 273.8 899H595.6C597.8 899 599.6 897.2 599.6 895.1V895C599.6 864 574.3 838.8 543.2 838.8Z" fill="#007AFF"/>
<path d="M1385.5 653C1496.8 653 1587 562.6 1587 451C1587 339.4 1496.8 249 1385.5 249C1274.2 249 1184 339.4 1184 451C1184 562.6 1274.2 653 1385.5 653Z" fill="white"/>
<path d="M1405.9 -1H1444V819H1378V-0.8L1405.9 -1Z" fill="#6CB9FF"/>
<path d="M1343 650C1295.4 638.3 1254.1 610.5 1225 572.9V421.4C1225 419.4 1225.8 417.4 1227.3 415.9L1284 358.9H1343V418.1V650Z" fill="#499FFC"/>
<path d="M1225 561.8H1114.7C1109.3 561.8 1104.4 559.6 1100.8 556C1097.2 552.5 1095 547.6 1095 542.2C1095 536.8 1097.2 531.9 1100.8 528.4C1104.3 524.9 1109.3 522.6 1114.7 522.6C1123.2 522.6 1130.9 519.1 1136.5 513.6C1142.1 508 1145.6 500.3 1145.6 491.9C1145.6 483.4 1142.1 475.7 1136.5 470.2C1130.9 464.6 1123.2 461.2 1114.7 461.2H782.5V472.4C912.2 472.4 984.9 472.4 1114.7 472.4C1120.1 472.4 1125 474.6 1128.6 478.2C1132.1 481.7 1134.4 486.6 1134.4 492C1134.4 497.4 1132.2 502.3 1128.6 505.8C1125.1 509.3 1120.1 511.6 1114.7 511.6C1106.2 511.6 1098.5 515.1 1092.9 520.6C1087.3 526.2 1083.8 533.9 1083.8 542.3C1083.8 550.8 1087.3 558.5 1092.9 564C1098.5 569.6 1106.2 573 1114.7 573H1225V561.8Z" fill="white"/>
<path d="M1379 656C1343.6 653.5 1310.6 642.3 1282 624.7V421.5C1282 419.5 1282.8 417.5 1284.3 416L1341.1 359H1377.8L1379 656Z" fill="#2683FF"/>
<path d="M1443 359H1378V383H1443V359Z" fill="#2683FF"/>
<path d="M1443 414H1378V437H1443V414Z" fill="#2683FF"/>
<path d="M1443 468H1378V492H1443V468Z" fill="#2683FF"/>
<path d="M1443 523H1378V547H1443V523Z" fill="#2683FF"/>
<path d="M1443 578H1378V601H1443V578Z" fill="#2683FF"/>
<path d="M1443 632H1378V656H1443V632Z" fill="#2683FF"/>
<path d="M1443 687H1376V711H1443V687Z" fill="#0062FF"/>
<path d="M1443 742H1376V766H1443V742Z" fill="#0062FF"/>
<path d="M1443 796H1376V820L1443 899V796Z" fill="#0062FF"/>
<path d="M1238 428H1230V445H1238V428Z" fill="#F7F9F9"/>
<path d="M1255 428H1246V445H1255V428Z" fill="#F7F9F9"/>
<path d="M1271 428H1262V445H1271V428Z" fill="#F7F9F9"/>
<path d="M1238 454H1230V472H1238V454Z" fill="#F7F9F9"/>
<path d="M1255 454H1246V472H1255V454Z" fill="#F7F9F9"/>
<path d="M1271 454H1262V472H1271V454Z" fill="#F7F9F9"/>
<path d="M1238 481H1230V498H1238V481Z" fill="#F7F9F9"/>
<path d="M1255 481H1246V498H1255V481Z" fill="#F7F9F9"/>
<path d="M1271 481H1262V498H1271V481Z" fill="#F7F9F9"/>
<path d="M1238 507H1230V524H1238V507Z" fill="#F7F9F9"/>
<path d="M1255 507H1246V524H1255V507Z" fill="#F7F9F9"/>
<path d="M1271 507H1262V524H1271V507Z" fill="#F7F9F9"/>
<path d="M1238 533H1230V550H1238V533Z" fill="#F7F9F9"/>
<path d="M1255 533H1246V550H1255V533Z" fill="#F7F9F9"/>
<path d="M1271 533H1262V550H1271V533Z" fill="#F7F9F9"/>
<path d="M1255 559H1246V576H1255V559Z" fill="#F7F9F9"/>
<path d="M1271 559H1262V576H1271V559Z" fill="#F7F9F9"/>
<path d="M1032.2 512H1054.8C1057.1 512 1059 510.2 1059 508C1059 505.8 1057.1 504 1054.8 504H1032.2C1029.9 504 1028 505.8 1028 508C1028 510.2 1029.9 512 1032.2 512Z" fill="#0F002D"/>
<path d="M1032.1 496H1071.8C1074.1 496 1076 494 1076 491.5C1076 489 1074.1 487 1071.8 487H1032.2C1029.9 487 1028 489 1028 491.5C1028 494 1029.8 496 1032.1 496Z" fill="#0F002D"/>
<path d="M1087.2 496H1089.9C1092.2 496 1094.1 494 1094.1 491.5C1094.1 489 1092.3 487 1089.9 487H1087.2C1084.9 487 1083 489 1083 491.5C1083 494 1084.8 496 1087.2 496Z" fill="#6CB9FF"/>
<path d="M1103.2 496H1105.9C1108.2 496 1110.1 494 1110.1 491.5C1110.1 489 1108.3 487 1105.9 487H1103.2C1100.9 487 1099 489 1099 491.5C1099 494 1100.8 496 1103.2 496Z" fill="#6CB9FF"/>
<path d="M1085 27H1029V122H1085V27Z" fill="#499FFC"/>
<path d="M1100 -1H1014V49H1100V-1Z" fill="#0F002D"/>
<path d="M1104 132.9V140.1C1104 165.4 1083.5 186 1058.5 186C1033.5 186 1013 165.4 1013 140.1V132.9C1013 107.6 1033.5 87 1058.5 87C1083.5 87 1104 107.7 1104 132.9Z" fill="#499FFC"/>
<path d="M1085 178.1V231.9C1085 240.2 1078.2 247 1070 247C1061.7 247 1055 240.2 1055 231.9V178.1C1055 169.8 1061.8 163 1070 163C1078.2 162.9 1085 169.8 1085 178.1Z" fill="#499FFC"/>
<path d="M1042 165.8V180.2C1042 187.3 1036.2 193 1029 193C1021.8 193 1016 187.3 1016 180.2V165.8C1016 158.7 1021.8 153 1029 153C1036.2 153 1042 158.7 1042 165.8Z" fill="#6CB9FF"/>
<path d="M1026 155.6V166.4C1026 171.7 1021.5 176 1016 176C1010.5 176 1006 171.7 1006 166.4V155.6C1006 150.3 1010.5 146 1016 146C1021.5 146 1026 150.3 1026 155.6Z" fill="#6CB9FF"/>
<path d="M1061 178.3V193.7C1061 201.5 1054.5 208 1046.5 208C1038.5 208 1032 201.6 1032 193.7V178.3C1032 170.4 1038.5 164 1046.5 164C1054.5 164 1061 170.4 1061 178.3Z" fill="#6CB9FF"/>
<path d="M1105.4 120.7L1106 169.1C1106.1 177.5 1099.3 184.6 1091 184.9C1082.7 185.2 1075.7 178.6 1075.6 170.2L1075 121.8C1074.9 113.4 1081.7 106.3 1090 106C1098.3 105.7 1105.3 112.3 1105.4 120.7Z" fill="#6CB9FF"/>
<path d="M1100.6 181.8L1090.4 194.5C1085.2 200.9 1075.8 201.9 1069.4 196.6C1063.1 191.3 1062.2 181.7 1067.4 175.2L1077.6 162.5C1082.8 156.1 1092.2 155.1 1098.6 160.4C1104.9 165.7 1105.8 175.4 1100.6 181.8Z" fill="#6CB9FF"/>
<path d="M1051 120.5C1051 135.1 1062.9 147 1077.5 147C1092.1 147 1104 135.1 1104 120.5C1104 105.9 1092.1 94 1077.5 94C1062.9 94 1051 105.9 1051 120.5Z" fill="#6CB9FF"/>
<path d="M1060.7 266.4C1059.1 265.4 1057 266.6 1057 268.6V270.6V273.5C1057 274.4 1057.4 275.2 1058.2 275.7L1068.3 281.7C1069.1 282.2 1070 282.2 1070.8 281.7L1080.9 275.7C1081.7 275.2 1082.1 274.4 1082.1 273.5V270.6V268.6C1082.1 266.6 1080 265.5 1078.4 266.4L1070.8 270.9C1070 271.4 1069.1 271.4 1068.3 270.9L1060.7 266.4Z" fill="#0F002D"/>
<path d="M1060.7 285.4C1059.1 284.4 1057 285.6 1057 287.6V289.6V292.5C1057 293.4 1057.4 294.2 1058.2 294.7L1068.3 300.7C1069.1 301.2 1070 301.2 1070.8 300.7L1080.9 294.7C1081.7 294.2 1082.1 293.4 1082.1 292.5V289.6V287.6C1082.1 285.6 1080 284.5 1078.4 285.4L1070.8 289.9C1070 290.4 1069.1 290.4 1068.3 289.9L1060.7 285.4Z" fill="#0F002D"/>
<path d="M1378 -1H1284V359H1378V-1Z" fill="#499FFC"/>
<path d="M1364.4 813.7C1362 813.7 1359.6 813.8 1357.3 814.1C1332.5 765.9 1282.3 733 1224.4 733C1171.7 733 1125.5 760.2 1098.9 801.4C1091.1 799.3 1082.8 798.2 1074.3 798.2C1021.7 798.2 979.1 840.8 979.1 893.4C979.1 895.3 979.2 897.2 979.3 899.1H1443.9C1444 897.2 1444.1 895.4 1444.1 893.4C1444 849.4 1408.4 813.7 1364.4 813.7Z" fill="white"/>
<path d="M1342.2 342H1364.8C1367.1 342 1369 340.2 1369 338C1369 335.8 1367.1 334 1364.8 334H1342.2C1339.9 334 1338 335.8 1338 338C1338 340.2 1339.9 342 1342.2 342Z" fill="white"/>
<path d="M1342.3 326H1348.7C1351.1 326 1353 324 1353 321.5C1353 319 1351.1 317 1348.7 317H1342.3C1339.9 317 1338 319 1338 321.5C1338 324 1339.9 326 1342.3 326Z" fill="white"/>
<path d="M1342.3 310H1348.7C1351.1 310 1353 308.2 1353 306C1353 303.8 1351.1 302 1348.7 302H1342.3C1339.9 302 1338 303.8 1338 306C1338 308.2 1339.9 310 1342.3 310Z" fill="#0F002D"/>
<path d="M903 511C904.7 511 906 509.4 906 507.5C906 505.6 904.7 504 903 504C901.3 504 900 505.6 900 507.5C900 509.4 901.3 511 903 511Z" fill="#DEDEFC"/>
<path d="M933.9 528.3C934.6 527.6 935 526.7 935 525.7V483.3C935 481.3 933.4 479.7 931.4 479.7H921.4V469.6C921.4 459.3 913.1 450.9 902.9 450.9C892.7 450.9 884.4 459.3 884.4 469.6V479.7H874.5C872.5 479.7 870.9 481.3 870.9 483.3V525.7C870.9 526.7 871.3 527.6 872 528.3L886 542C886.7 542.7 887.6 543 888.5 543H917.3C918.2 543 919.1 542.6 919.8 542L933.9 528.3ZM906.5 517.4V522C906.5 524 904.9 525.6 902.9 525.6C900.9 525.6 899.3 524 899.3 522V517.4C895.4 515.9 892.6 512.1 892.6 507.6C892.6 501.9 897.2 497.2 902.9 497.2C908.6 497.2 913.2 501.9 913.2 507.6C913.3 512.1 910.5 515.9 906.5 517.4ZM914.4 479.7H891.7V469.6C891.7 463.3 896.8 458.1 903 458.1C909.2 458.1 914.3 463.3 914.3 469.6L914.4 479.7Z" fill="#DEDEFC"/>
<path d="M829.7 426.7L826.1 423.2C827.3 422 828.6 420.8 829.9 419.7L833.3 423.4C832.1 424.4 830.8 425.5 829.7 426.7ZM837 420.1L833.8 416.3C835.1 415.2 836.5 414.2 837.9 413.2L840.9 417.2C839.6 418.1 838.3 419.1 837 420.1ZM845 414.3L842.2 410.2C843.6 409.3 845.1 408.4 846.6 407.5L849.2 411.8C847.8 412.5 846.3 413.4 845 414.3ZM952.5 411.6C951.2 410.9 949.9 410.1 948.6 409.5L951 405.1C952.4 405.8 953.7 406.6 955.1 407.4L952.5 411.6ZM853.5 409.3L851.1 404.9C852.6 404.1 854.2 403.3 855.7 402.6L857.9 407.1C856.4 407.8 854.9 408.6 853.5 409.3ZM944.2 407.2C942.7 406.5 941.2 405.9 939.7 405.2L941.6 400.6C943.2 401.2 944.8 401.9 946.4 402.7L944.2 407.2ZM862.4 405.2L860.5 400.6C862.1 400 863.7 399.4 865.4 398.8L867.1 403.5C865.5 404 864 404.5 862.4 405.2ZM935.1 403.5C933.6 403 932 402.5 930.4 402L931.9 397.2C933.6 397.7 935.2 398.2 936.8 398.8L935.1 403.5ZM871.7 401.9L870.2 397.1C871.9 396.6 873.6 396.2 875.2 395.8L876.4 400.6C874.9 401 873.4 401.4 871.7 401.9ZM925.6 400.6C924 400.2 922.4 399.9 920.8 399.6L921.8 394.7C923.5 395 925.2 395.4 926.9 395.8L925.6 400.6ZM881.4 399.5L880.4 394.6C882.1 394.3 883.8 394 885.5 393.8L886.2 398.7C884.6 398.9 883 399.2 881.4 399.5ZM915.9 398.7C914.3 398.5 912.6 398.3 911 398.1L911.5 393.1C913.2 393.2 915 393.5 916.7 393.7L915.9 398.7ZM891.2 398.1L890.7 393.1C892.4 393 894.2 392.8 895.9 392.8L896.2 397.8C894.5 397.8 892.8 398 891.2 398.1ZM906 397.8C904.4 397.7 902.7 397.7 901 397.7V392.7C902.7 392.7 904.5 392.7 906.2 392.8L906 397.8Z" fill="white"/>
<path d="M902.9 602.7L902.8 597.7C904.4 597.7 906.1 597.6 907.7 597.5L908 602.5C906.4 602.6 904.6 602.7 902.9 602.7ZM897.7 602.6C896 602.5 894.2 602.4 892.5 602.3L892.9 597.3C894.5 597.5 896.2 597.5 897.8 597.6L897.7 602.6ZM913.3 602L912.7 597C914.3 596.8 916 596.6 917.6 596.3L918.4 601.3C916.7 601.6 915 601.8 913.3 602ZM887.4 601.8C885.7 601.6 883.9 601.3 882.3 601L883.2 596.1C884.8 596.4 886.4 596.7 888.1 596.9L887.4 601.8ZM923.6 600.4L922.5 595.5C924.1 595.1 925.7 594.7 927.3 594.3L928.6 599.2C926.9 599.6 925.2 600 923.6 600.4ZM877.1 600C875.4 599.6 873.8 599.2 872.1 598.7L873.5 593.9C875.1 594.4 876.7 594.8 878.3 595.1L877.1 600ZM933.6 597.7L932 592.9C933.6 592.4 935.1 591.8 936.7 591.3L938.5 596C936.9 596.6 935.2 597.1 933.6 597.7ZM867.1 597.1C865.5 596.5 863.8 595.9 862.2 595.3L864.1 590.6C865.6 591.2 867.2 591.8 868.8 592.3L867.1 597.1ZM943.3 594L941.3 589.4C942.8 588.7 944.3 588 945.8 587.3L948 591.8C946.4 592.6 944.9 593.4 943.3 594ZM857.5 593.4C855.9 592.7 854.4 591.9 852.8 591.1L855.1 586.6C856.6 587.4 858 588.1 859.6 588.7L857.5 593.4ZM952.6 589.5L950.1 585.1C951.5 584.3 952.9 583.5 954.4 582.6L957.1 586.9C955.6 587.8 954.1 588.6 952.6 589.5ZM848.2 588.6C846.7 587.7 845.2 586.8 843.8 585.9L846.5 581.7C847.9 582.6 849.3 583.5 850.7 584.3L848.2 588.6ZM961.4 584L958.5 579.9C959.9 579 961.2 578 962.5 577L965.6 581C964.2 582.1 962.8 583.1 961.4 584ZM839.5 583.1C838.1 582.1 836.7 581 835.3 580L838.4 576.1C839.7 577.1 841 578.1 842.4 579.1L839.5 583.1ZM969.6 577.8L966.3 574C967.6 572.9 968.8 571.8 970 570.7L973.5 574.4C972.2 575.5 971 576.7 969.6 577.8ZM831.4 576.6C830.6 575.9 829.8 575.2 829.1 574.5L832.6 570.8C833.3 571.5 834.1 572.1 834.8 572.8L831.4 576.6ZM977.2 570.7L973.5 567.2C974.7 566 975.8 564.8 976.8 563.6L980.6 566.9C979.6 568.2 978.4 569.5 977.2 570.7ZM984 562.9L980 559.8C981 558.5 982 557.2 983 555.9L987.1 558.8C986.2 560.2 985.1 561.6 984 562.9ZM990.1 554.6L985.8 551.9C986.7 550.5 987.6 549.1 988.4 547.7L992.8 550.2C992 551.7 991 553.1 990.1 554.6ZM995.3 545.6L990.8 543.3C991.6 541.8 992.3 540.4 992.9 538.9L997.5 541C996.8 542.6 996.1 544.1 995.3 545.6ZM999.6 536.2L994.9 534.3C995.5 532.8 996.1 531.2 996.6 529.7L1001.4 531.3C1000.8 533 1000.2 534.7 999.6 536.2ZM1002.9 526.5L998 525.1C998.5 523.5 998.9 521.9 999.2 520.4L1004.1 521.5C1003.8 523.1 1003.4 524.8 1002.9 526.5ZM1005.3 516.4L1000.3 515.5C1000.6 513.9 1000.9 512.3 1001.1 510.7L1006.1 511.4C1005.8 513 1005.6 514.7 1005.3 516.4Z" fill="white"/>
<path d="M965.9 871C964.3 871 963 869.6 963 868C963.8 845.5 973.4 825.1 988.5 810.2C1003.6 795.3 1024.2 785.8 1047 785C1048.6 785 1050 786.3 1050 787.9V813.5C1050 815.1 1048.8 816.3 1047.2 816.4C1033.1 817.1 1020.3 823.1 1010.9 832.4C1001.5 841.7 995.4 854.3 994.7 868.3C994.6 869.9 993.3 871.1 991.8 871.1H965.9V871Z" fill="#DEDEFC"/>
<path d="M1048.5 812C1054.3 812 1059 807.3 1059 801.5C1059 795.7 1054.3 791 1048.5 791C1042.7 791 1038 795.7 1038 801.5C1038 807.3 1042.7 812 1048.5 812Z" fill="#499FFC"/>
<path d="M1044.5 870C1047.5 870 1050 867.5 1050 864.5C1050 861.5 1047.5 859 1044.5 859C1041.5 859 1039 861.5 1039 864.5C1039 867.5 1041.5 870 1044.5 870Z" fill="#0F002D"/>
<path d="M1176.1 858.7V876.8C1176.1 877.5 1175.5 878 1174.9 878H1165.2C1164.6 878 1164 877.4 1164 876.8V860.3C1164 859.7 1164.4 859.2 1165 859.1C1167 858.7 1171.4 857.9 1174.7 857.4C1175.4 857.4 1176.1 857.9 1176.1 858.7ZM1196.2 856C1196.8 856 1197.4 856.6 1197.4 857.2V876.8C1197.4 877.5 1196.8 878 1196.2 878H1186.5C1185.8 878 1185.3 877.4 1185.3 876.8V857.5C1185.3 856.8 1185.8 856.3 1186.5 856.3C1188.6 856.2 1193.4 856 1196.2 856ZM1218.7 858.7V876.8C1218.7 877.5 1218.1 878 1217.5 878H1207.8C1207.2 878 1206.6 877.4 1206.6 876.8V857.7C1206.6 857 1207.2 856.4 1207.9 856.5C1210.1 856.7 1214.5 857.1 1217.5 857.5C1218.2 857.6 1218.7 858.1 1218.7 858.7ZM1229.4 859.6C1232.7 860.3 1235.9 861.2 1239.1 862.1C1239.6 862.3 1240 862.8 1240 863.3V876.9C1240 877.6 1239.4 878.1 1238.8 878.1H1229.1C1228.4 878.1 1227.9 877.5 1227.9 876.9V860.8C1227.9 860 1228.6 859.4 1229.4 859.6Z" fill="#007AFF"/>
<path d="M1444 900V887H1166C1164.9 887 1164 887.8 1164 888.9V898.1C1164 899.2 1164.9 900 1166 900H1444Z" fill="#DEDEFC"/>
<path d="M918.5 194C923.2 194 927 190 927 185C927 180 923.2 176 918.5 176C913.8 176 910 180 910 185C910 189.9 913.8 194 918.5 194Z" fill="white"/>
<path d="M943.5 194C948.2 194 952 190 952 185C952 180 948.2 176 943.5 176C938.8 176 935 180 935 185C935 189.9 938.8 194 943.5 194Z" fill="white"/>
<path d="M918.5 165C923.2 165 927 161.2 927 156.5C927 151.8 923.2 148 918.5 148C913.8 148 910 151.8 910 156.5C910 161.1 913.8 165 918.5 165Z" fill="#6CB9FF"/>
<path d="M943.5 165C948.2 165 952 161.2 952 156.5C952 151.8 948.2 148 943.5 148C938.8 148 935 151.8 935 156.5C935 161.1 938.8 165 943.5 165Z" fill="#6CB9FF"/>
<path d="M893.5 135C898.2 135 902 131.2 902 126.5C902 121.8 898.2 118 893.5 118C888.8 118 885 121.8 885 126.5C885 131.2 888.8 135 893.5 135Z" fill="white"/>
<path d="M918.5 135C923.2 135 927 131.2 927 126.5C927 121.8 923.2 118 918.5 118C913.8 118 910 121.8 910 126.5C910 131.2 913.8 135 918.5 135Z" fill="white"/>
<path d="M943.5 135C948.2 135 952 131.2 952 126.5C952 121.8 948.2 118 943.5 118C938.8 118 935 121.8 935 126.5C935 131.2 938.8 135 943.5 135Z" fill="white"/>
<path d="M1238.5 268C1247 268 1254 260.8 1254 252C1254 243.2 1247 236 1238.5 236C1230 236 1223 243.2 1223 252C1222.9 260.8 1230 268 1238.5 268Z" fill="#6CB9FF"/>
<path d="M1238 259C1241.8 259 1245 255.9 1245 252C1245 248.2 1241.9 245 1238 245C1234.2 245 1231 248.1 1231 252C1231 255.8 1234.1 259 1238 259Z" fill="#0F002D"/>
<path d="M781.2 780.1C781.2 784.8 785.2 788.6 790.2 788.6C795.2 788.6 799.2 784.8 799.2 780.1C799.2 775.4 795.2 771.6 790.2 771.6C785.3 771.6 781.2 775.4 781.2 780.1Z" fill="white"/>
<path d="M781.2 805.1C781.2 809.8 785.2 813.6 790.2 813.6C795.2 813.6 799.2 809.8 799.2 805.1C799.2 800.4 795.2 796.6 790.2 796.6C785.3 796.6 781.2 800.4 781.2 805.1Z" fill="white"/>
<path d="M810.2 805.1C810.2 809.8 814 813.6 818.7 813.6C823.4 813.6 827.2 809.8 827.2 805.1C827.2 800.4 823.4 796.6 818.7 796.6C814 796.6 810.2 800.4 810.2 805.1Z" fill="#6CB9FF"/>
<path d="M1029.4 703.6C1037.9 703.6 1044.9 696.4 1044.9 687.6C1044.9 678.8 1037.9 671.6 1029.4 671.6C1020.9 671.6 1013.9 678.8 1013.9 687.6C1013.8 696.5 1020.8 703.6 1029.4 703.6Z" fill="#499FFC"/>
<path d="M1028.9 694.6C1032.7 694.6 1035.9 691.5 1035.9 687.6C1035.9 683.8 1032.8 680.6 1028.9 680.6C1025.1 680.6 1021.9 683.7 1021.9 687.6C1021.9 691.5 1025 694.6 1028.9 694.6Z" fill="#007AFF"/>
</svg>
