<svg width="140" height="63" viewBox="0 0 140 63" fill="none" xmlns="http://www.w3.org/2000/svg">
<path d="M72.5283 26.3239C72.1886 26.5786 72.0188 27.0031 72.0188 27.5126C72.0188 28.022 72.2736 28.3617 72.6981 28.6164C73.1226 28.8711 74.1415 29.2108 75.6699 29.6353C77.1983 30.0598 78.4719 30.5693 79.321 31.3335C80.1701 32.0977 80.5946 33.2015 80.5946 34.7298C80.5946 36.1733 80.0002 37.362 78.8964 38.296C77.7926 39.23 76.3492 39.6545 74.5661 39.6545C71.9339 39.6545 69.6414 38.7205 67.5187 36.7676L69.7263 34.0506C71.5094 35.5789 73.1226 36.3431 74.651 36.3431C75.3303 36.3431 75.8397 36.1733 76.2643 35.9185C76.6888 35.6638 76.8586 35.2393 76.8586 34.7298C76.8586 34.2204 76.6888 33.8807 76.2643 33.5411C75.8397 33.2864 75.0755 32.9467 73.8019 32.692C71.849 32.2675 70.4905 31.6731 69.6414 30.9089C68.7923 30.1448 68.2828 29.0409 68.2828 27.5126C68.2828 25.9842 68.8772 24.7106 69.981 23.8615C71.0848 23.0124 72.5283 22.5879 74.1415 22.5879C75.2454 22.5879 76.3492 22.7577 77.453 23.1823C78.5568 23.5219 79.4908 24.1162 80.3399 24.7955L78.4719 27.5126C77.0284 26.4088 75.585 25.8993 74.0566 25.8993C73.3774 25.8993 72.8679 26.0691 72.5283 26.3239Z" fill="white"/>
<path d="M89.6799 26.2382V39.484H86.0289V26.2382H81.3589V23.0117H94.3499V26.2382H89.6799Z" fill="white"/>
<path d="M109.548 37.1913C107.85 38.8045 105.812 39.6536 103.435 39.6536C101.057 39.6536 98.9347 38.8045 97.3215 37.1913C95.6233 35.578 94.8591 33.5402 94.8591 31.1627C94.8591 28.7853 95.7082 26.7475 97.3215 25.1342C99.0196 23.521 101.057 22.6719 103.435 22.6719C105.897 22.6719 107.935 23.521 109.548 25.1342C111.246 26.7475 112.011 28.7853 112.011 31.1627C112.011 33.5402 111.246 35.578 109.548 37.1913ZM108.275 31.1627C108.275 29.7193 107.765 28.4457 106.831 27.4268C105.897 26.4079 104.709 25.8984 103.35 25.8984C101.991 25.8984 100.803 26.4079 99.8687 27.4268C98.9347 28.4457 98.4253 29.7193 98.4253 31.1627C98.4253 32.6062 98.9347 33.8798 99.8687 34.8987C100.803 35.9176 101.991 36.4271 103.35 36.4271C104.709 36.4271 105.897 35.9176 106.831 34.8987C107.85 33.8798 108.275 32.6062 108.275 31.1627Z" fill="white"/>
<path d="M127.634 28.5308C127.634 31.1629 126.615 32.8611 124.493 33.6253L128.653 39.484H124.153L120.502 34.2197H117.955V39.484H114.303V23.0117H120.502C123.049 23.0117 124.917 23.4363 125.936 24.2853C127.125 25.2193 127.634 26.5779 127.634 28.5308ZM123.219 30.4837C123.643 30.0591 123.898 29.4648 123.898 28.5308C123.898 27.5968 123.643 27.0024 123.219 26.7477C122.709 26.4081 121.945 26.2382 120.757 26.2382H118.039V31.078H120.757C121.945 31.078 122.794 30.8233 123.219 30.4837Z" fill="white"/>
<path d="M130.945 26.2382V23.0117H139.521V33.7102C139.521 35.6631 139.012 37.1066 137.993 38.1255C136.974 39.0594 135.7 39.5689 134.087 39.5689C132.134 39.5689 130.351 38.8047 128.908 37.2764L130.776 34.6442C131.794 35.748 132.813 36.2575 133.917 36.2575C134.427 36.2575 134.851 36.0876 135.276 35.6631C135.615 35.2386 135.87 34.6442 135.87 33.88V26.1533L130.945 26.2382Z" fill="white"/>
<path d="M55.3767 18.1728C55.2918 20.1257 54.4427 21.5692 52.8294 22.5881C52.4898 22.7579 52.4049 22.9277 52.4049 23.2673C52.4049 28.6166 52.4049 33.9658 52.4049 39.3151C52.4049 39.6547 52.4898 39.8245 52.7445 39.9943C54.6125 41.0981 55.6314 43.136 55.2918 45.2587C54.9522 47.2965 53.3389 48.9946 51.2162 49.3343C50.0275 49.589 48.8387 49.4192 47.7349 48.7399C47.3953 48.5701 47.1406 48.5701 46.8858 48.7399C42.3008 51.3721 37.7157 54.0892 33.1306 56.7213C32.791 56.8911 32.7061 57.061 32.7061 57.4855C32.7061 60.0328 30.7532 62.3253 28.2908 62.4951C25.6587 62.7498 23.2812 61.1366 22.7718 58.5044C22.6869 58.0799 22.6869 57.7402 22.6869 57.3157C22.6869 57.061 22.602 56.8911 22.3472 56.7213C17.6773 54.0043 13.0073 51.3721 8.33732 48.655C8.0826 48.4852 7.91278 48.4852 7.65805 48.655C4.60134 50.523 0.695545 48.7399 0.101184 45.3436C-0.323359 43.2209 0.610636 41.1831 2.47863 39.9943C2.81826 39.8245 2.90317 39.6547 2.90317 39.2302C2.90317 33.8809 2.90317 28.5317 2.90317 23.1824C2.90317 22.8428 2.81826 22.673 2.56353 22.5032C0.610636 21.3993 -0.323359 19.4464 0.101184 17.2388C0.440819 15.0312 2.13899 13.4179 4.34662 13.1632C5.53534 12.9934 6.63915 13.2481 7.65805 13.8425C7.91278 14.0123 8.0826 14.0123 8.33732 13.8425C13.0073 11.1254 17.5924 8.49323 22.2623 5.77615C22.5171 5.60634 22.6869 5.43652 22.6869 5.09689C22.6869 2.12508 24.9794 -0.0825403 27.9512 0.00236837C30.2437 0.087277 32.3665 1.95527 32.7061 4.2478C32.7061 4.41762 32.791 4.58743 32.791 4.84216C32.791 5.43652 33.0457 5.77615 33.4703 6.03088C37.9704 8.57814 42.4706 11.2103 46.9707 13.8425C47.3104 14.0123 47.4802 14.0123 47.8198 13.8425C50.8765 12.0594 54.6125 13.7576 55.2918 17.2388C55.3767 17.5785 55.3767 17.9181 55.3767 18.1728ZM15.5546 36.5131C15.4696 36.5131 15.4696 36.598 15.4696 36.598C12.9224 38.0414 10.3751 39.4849 7.82787 41.0132C7.65805 41.0981 7.40333 41.0981 7.23351 41.0132C6.55424 40.5887 5.87497 40.334 5.02589 40.334C2.39372 40.2491 0.865362 42.3718 0.780453 44.2398C0.780453 46.3625 2.39372 48.5701 5.02589 48.5701C7.31842 48.5701 9.1015 46.7021 9.1015 44.4096C9.1015 43.985 9.18641 43.7303 9.61095 43.5605C12.328 42.0321 14.9602 40.5038 17.6773 38.8905C17.932 38.7207 18.1867 38.7207 18.4414 38.8056C20.1396 39.5698 21.8378 39.7396 23.6209 39.2302C23.7907 39.1452 24.0454 39.2302 24.2152 39.3151C24.7247 39.5698 25.2341 39.8245 25.7436 39.9943C26.0832 40.0792 26.1681 40.2491 26.1681 40.5887C26.1681 44.8341 26.1681 48.9946 26.1681 53.2401C26.1681 53.4948 26.0832 53.6646 25.8285 53.8344C24.3851 54.5137 23.3661 56.2968 23.6209 58.1648C23.9605 60.3724 26.1681 61.9857 28.3758 61.5611C30.3287 61.2215 31.5174 59.863 31.857 57.9101C32.0268 56.5515 31.3476 54.7684 29.6494 53.8344C29.3947 53.7495 29.3098 53.5797 29.3098 53.325C29.3098 49.2494 29.3098 45.1738 29.3098 41.0981C29.3098 40.7585 29.4796 40.6736 29.8192 40.5887C30.6683 40.4189 31.5174 40.2491 32.2816 40.0792C32.6212 39.9943 32.9608 39.9943 33.3005 40.0792C35.0835 40.8434 36.8666 40.7585 38.5648 39.7396C38.8195 39.5698 38.9893 39.5698 39.2441 39.7396C41.4517 41.0132 43.6593 42.2869 45.8669 43.5605C46.2066 43.7303 46.3764 43.985 46.3764 44.4096C46.1217 46.787 48.3293 48.7399 50.7916 48.4852C53.254 48.2305 54.9522 45.853 54.3578 43.4756C53.6785 40.5887 50.6218 39.3151 48.0746 40.8434C47.8198 41.0132 47.65 41.0132 47.3104 40.8434C45.1877 39.5698 43.065 38.3811 40.9422 37.1923C40.6026 37.0225 40.6026 36.8527 40.6875 36.5131C41.3668 34.3904 40.8573 32.4375 39.329 30.8242C38.9893 30.4846 37.6308 28.2769 37.3761 27.8524C37.2063 27.5128 37.2912 27.3429 37.6308 27.1731C40.8573 25.3051 44.0839 23.5221 47.2255 21.6541C47.4802 21.4843 47.65 21.4843 47.9047 21.6541C48.8387 22.2484 49.8576 22.4182 50.8765 22.2484C52.9144 21.9088 54.4427 20.0408 54.2729 17.8332C54.1031 15.4557 51.7256 13.6727 49.3482 14.1821C47.3104 14.6067 45.9518 16.2199 46.0368 18.3426C46.0368 18.6823 45.9518 18.937 45.6122 19.1068C42.3857 20.9748 39.0742 22.8428 35.8477 24.7108C35.593 24.8806 35.4232 24.8806 35.1684 24.6259C33.6401 23.1824 31.7721 22.3333 29.7343 22.0786C29.055 21.9937 29.055 21.9937 29.055 21.2295C29.055 17.4086 29.055 13.5877 29.055 9.76686C29.055 9.25741 29.1399 8.91777 29.6494 8.66305C31.4325 7.64415 32.1117 5.43652 31.3476 3.48362C30.4985 1.61563 28.3758 0.51182 26.4229 1.19109C24.6398 1.70054 23.6209 3.05908 23.4511 4.84216C23.2812 6.28561 23.9605 7.89887 25.6587 8.74796C25.9134 8.91777 26.0832 9.00268 26.0832 9.34232C26.0832 13.5877 26.0832 17.7483 26.0832 21.9937C26.0832 22.3333 25.9134 22.4182 25.6587 22.5881C24.8096 23.0126 23.9605 23.3522 23.2812 23.9466C22.5171 24.6259 21.7529 24.9655 20.6491 24.9655C20.5642 24.9655 20.4793 24.9655 20.3943 24.9655C20.1396 24.9655 19.8 24.9655 19.5453 24.7957C16.2338 22.9277 13.0073 21.0597 9.69586 19.1917C9.18641 18.937 9.01659 18.5974 9.1015 18.0879C9.1015 17.8332 9.1015 17.6634 9.01659 17.4086C8.67696 15.3708 6.72406 13.6727 4.34662 14.0972C1.96917 14.5217 0.525727 16.6445 0.865362 18.8521C1.37481 21.739 4.68625 23.1824 7.1486 21.6541C7.40333 21.4843 7.65805 21.4843 7.91278 21.6541C10.3751 23.0975 12.8375 24.541 15.3847 25.9844C15.8093 26.2391 16.2338 26.4939 16.6584 26.7486C13.8564 29.7204 13.5167 32.9469 15.5546 36.5131Z" fill="white"/>
<path d="M22.4322 26.7486C23.1114 26.8335 23.3662 26.5788 23.8756 26.1542C25.9134 24.2013 28.3758 23.6919 31.0079 24.541C33.6401 25.39 35.2534 27.258 35.7628 29.9751C35.8477 30.4846 36.1025 30.8242 36.527 31.0789C37.8855 31.8431 38.6497 33.5413 38.395 34.8998C38.0554 36.6829 36.8666 37.9565 35.1685 38.2113C34.2345 38.3811 33.3854 38.2113 32.6212 37.7867C32.2816 37.532 32.0268 37.6169 31.6023 37.7867C29.2249 38.8056 27.0172 38.6358 24.8096 37.2773C24.47 37.1074 24.2153 37.0225 23.8756 37.1924C20.8189 38.2113 17.6773 36.4282 16.9131 33.4564C16.064 29.9751 18.866 26.5788 22.4322 26.7486Z" fill="white"/>
<path d="M49.1783 44.4094C49.1783 43.7302 49.6878 43.2207 50.3671 43.2207C51.0463 43.2207 51.5558 43.7302 51.5558 44.4094C51.5558 45.0038 50.9614 45.5981 50.3671 45.5981C49.6878 45.5981 49.1783 45.0887 49.1783 44.4094Z" fill="white"/>
<path d="M26.5078 5.18189C26.5078 4.50262 27.0173 3.99316 27.6965 3.99316C28.2909 3.99316 28.8003 4.50262 28.8003 5.18189C28.8003 5.77625 28.2909 6.37061 27.6116 6.37061C27.0173 6.2857 26.5078 5.77625 26.5078 5.18189Z" fill="white"/>
<path d="M6.12976 44.4094C6.12976 45.0887 5.62031 45.5981 4.94104 45.5981C4.34668 45.5981 3.75232 45.0038 3.75232 44.4094C3.75232 43.8151 4.34668 43.2207 4.94104 43.2207C5.62031 43.2207 6.12976 43.7302 6.12976 44.4094Z" fill="white"/>
<path d="M27.6965 56.2959C28.3758 56.2959 28.8853 56.8054 28.8853 57.4846C28.8853 58.1639 28.3758 58.5884 27.6965 58.5884C27.0173 58.5884 26.5078 58.079 26.5078 57.3997C26.5078 56.8054 27.0173 56.2959 27.6965 56.2959Z" fill="white"/>
<path d="M5.026 19.3609C4.34673 19.3609 3.83728 18.8514 3.83728 18.2571C3.83728 17.6627 4.34673 17.0684 5.026 17.0684C5.70527 17.0684 6.21472 17.4929 6.21472 18.1722C6.12981 18.8514 5.70527 19.3609 5.026 19.3609Z" fill="white"/>
<path d="M50.3672 19.3609C49.688 19.3609 49.1785 18.8514 49.2634 18.1722C49.2634 17.4929 49.7729 17.0684 50.4521 17.0684C51.1314 17.0684 51.6409 17.5778 51.6409 18.2571C51.5559 18.8514 50.9616 19.3609 50.3672 19.3609Z" fill="white"/>
</svg>
