<svg width="18" height="18" viewBox="0 0 18 18" fill="none" xmlns="http://www.w3.org/2000/svg">
	<rect class="checks-area-svg-rect" width="18" height="18" rx="9" fill="#5A667C"/>
	<path d="M8.99928 8.00325C8.44956 8.00325 7.99979 8.48247 7.99979 9.06819L7.99979 13.3351C7.99979 13.3883 8.00312 13.4451 8.00978 13.4984C8.08308 14.006 8.49953 14.4 8.99928 14.4C9.54901 14.4 9.99878 13.9208 9.99878 13.3351L9.99878 9.07174C9.99878 8.48247 9.54901 8.00325 8.99928 8.00325Z" fill="white"/>
	<path d="M8.99988 6.96423C9.77415 6.96423 10.3992 6.33921 10.3992 5.56494C10.3992 4.79066 9.77415 4.16564 8.99988 4.16564C8.22561 4.16564 7.60059 4.79066 7.60059 5.56494C7.59748 6.33921 8.2225 6.96423 8.99988 6.96423Z" fill="white"/>
</svg>
