<svg width="14" height="15" viewBox="0 0 14 15" fill="none" xmlns="http://www.w3.org/2000/svg">
<path d="M14 8.13063C13.8774 9.45738 13.3795 10.7218 12.5645 11.7759C11.7495 12.83 10.6512 13.6301 9.39801 14.0828C8.14485 14.5354 6.78869 14.6218 5.48822 14.3319C4.18775 14.0419 2.99676 13.3875 2.05461 12.4454C1.11246 11.5032 0.458115 10.3122 0.168141 9.01178C-0.121832 7.71131 -0.0354396 6.35515 0.41721 5.10199C0.86986 3.84883 1.67005 2.7505 2.72413 1.93552C3.77822 1.12054 5.04262 0.622609 6.36937 0.5C5.5926 1.55088 5.21881 2.84566 5.31599 4.14884C5.41317 5.45202 5.97487 6.67704 6.89892 7.60109C7.82296 8.52513 9.04798 9.08683 10.3512 9.18401C11.6543 9.28119 12.9491 8.9074 14 8.13063Z" fill="#354049"/>
</svg>
