<svg xmlns="http://www.w3.org/2000/svg" width="40px" height="40px" viewBox="0 0 40 40" version="1.1">
    <path style=" stroke:none;fill-rule:nonzero;fill:rgb(35.294118%,40%,48.627451%);fill-opacity:1;" d="M 20 0 C 31.046875 0 40 8.953125 40 20 C 40 31.046875 31.046875 40 20 40 C 8.953125 40 0 31.046875 0 20 C 0 8.953125 8.953125 0 20 0 Z M 20 0 "/>
    <path style=" stroke:none;fill-rule:nonzero;fill:rgb(100%,100%,100%);fill-opacity:1;" d="M 20 17.785156 C 18.777344 17.785156 17.777344 18.851562 17.777344 20.152344 L 17.777344 29.632812 C 17.777344 29.75 17.785156 29.878906 17.800781 29.996094 C 17.960938 31.125 18.886719 32 20 32 C 21.21875 32 22.21875 30.933594 22.21875 29.632812 L 22.21875 20.160156 C 22.21875 18.851562 21.21875 17.785156 20 17.785156 Z M 20 17.785156 "/>
    <path style=" stroke:none;fill-rule:nonzero;fill:rgb(100%,100%,100%);fill-opacity:1;" d="M 20 15.476562 C 21.71875 15.476562 23.109375 14.085938 23.109375 12.367188 C 23.109375 10.644531 21.71875 9.257812 20 9.257812 C 18.277344 9.257812 16.890625 10.644531 16.890625 12.367188 C 16.882812 14.085938 18.273438 15.476562 20 15.476562 Z M 20 15.476562 "/>
</svg>
