<svg width="149" height="29" viewBox="0 0 149 29" version="1.1" xmlns="http://www.w3.org/2000/svg">
    <g id="Page-1" stroke="none" stroke-width="1" fill="none" fill-rule="evenodd">
        <g id="storj-logo-full-color" fill-rule="nonzero">
            <path d="M22.752,0 C35.3176,0 45.504,10.1864 45.504,22.752 C45.504,24.8855 45.2103,26.9504 44.6612,28.9086 L40.3217,28.9086 C40.9969,26.9814 41.364,24.9096 41.364,22.752 C41.364,12.4729 33.0311,4.13997 22.752,4.13997 C12.4729,4.13997 4.13997,12.4729 4.13997,22.752 C4.13997,23.4578 4.17926,24.1545 4.25578,24.8399 L9.67237,24.8399 L30.0505,24.8398 C31.7456,24.8398 33.1198,23.4657 33.1198,21.7705 C33.1198,20.0754 31.7456,18.7012 30.0515,18.7012 L30.0097,18.7013 L28.219,18.7021 L27.9605,16.9301 C27.5849,14.3557 25.3645,12.4199 22.7341,12.4199 C20.3731,12.4199 18.3173,13.9833 17.6641,16.2137 L17.2283,17.7019 L15.6776,17.7019 L15.2037,17.7019 C13.6268,17.7019 12.3485,18.9802 12.3485,20.5571 C12.3485,20.6049 12.3497,20.6526 12.3521,20.6999 L8.21,20.6999 C8.20965,20.6824 8.20936,20.6649 8.20914,20.6473 L8.20856,20.5571 C8.20856,17.0415 10.802,14.1316 14.1801,13.6363 L14.2356,13.6286 L14.2683,13.5609 C15.8018,10.426 18.9956,8.32858 22.608,8.28077 L22.7341,8.27994 C26.8641,8.27994 30.4251,10.9525 31.6778,14.7296 L31.6834,14.7471 L31.7829,14.7708 C34.8907,15.5374 37.2047,18.3197 37.2588,21.6513 L37.2597,21.7705 C37.2597,25.407 34.5673,28.4146 31.0672,28.9086 L0.842748,28.9086 C0.293654,26.9504 0,24.8855 0,22.752 C0,10.1864 10.1864,0 22.752,0 Z" id="Path" fill="#0052FF" />
            <path d="M61.3668,8.22876 C62.2813,8.22876 63.0949,8.31768 63.8075,8.49602 C64.5181,8.67386 65.1504,8.9036 65.7044,9.18553 C66.2592,9.46794 66.7399,9.79342 67.146,10.1621 C67.5489,10.5279 67.8915,10.8991 68.1749,11.2773 C68.8318,12.1791 69.2825,13.1847 69.5264,14.2928 L69.5646,14.4662 L64.9913,14.4662 L64.9626,14.361 C64.8583,13.9781 64.6581,13.6296 64.3598,13.3135 C64.1153,13.0512 63.7566,12.8074 63.2832,12.5839 C62.8162,12.3634 62.1771,12.2515 61.3668,12.2515 C60.2905,12.2515 59.5146,12.4513 59.0374,12.8421 C58.562,13.2314 58.3291,13.6764 58.3291,14.185 C58.3291,14.5872 58.4776,14.9175 58.7791,15.1857 C59.0976,15.4691 59.5166,15.7145 60.0367,15.921 C60.5647,16.1306 61.1713,16.3178 61.8565,16.4824 C62.5499,16.6489 63.2524,16.834 63.9642,17.0376 C64.6787,17.2419 65.3839,17.4834 66.0799,17.7621 C66.7838,18.0439 67.4089,18.4015 67.9547,18.8348 C68.5047,19.2714 68.9505,19.8079 69.2915,20.4432 C69.6352,21.0836 69.8063,21.8587 69.8063,22.7669 C69.8063,23.5991 69.6361,24.3942 69.2959,25.1508 C68.955,25.9091 68.4438,26.5724 67.7637,27.1398 C67.0857,27.7053 66.2451,28.1566 65.2427,28.4942 C64.2407,28.8317 63.087,29 61.7816,29 C60.8115,29 59.9424,28.9018 59.1742,28.7048 C58.4083,28.5085 57.7253,28.2556 57.1253,27.946 C56.5244,27.6358 56.0024,27.278 55.5595,26.8724 C55.1186,26.4687 54.7475,26.0502 54.4485,25.6198 C53.8251,24.7718 53.3653,23.8283 53.0693,22.7901 L57.7358,22.7901 C57.8783,23.078 58.0554,23.3438 58.2676,23.588 C58.5677,23.9415 58.9998,24.2625 59.5647,24.5498 C60.1233,24.8338 60.8622,24.9772 61.7816,24.9772 C63.0618,24.9772 63.9596,24.7715 64.4732,24.3707 C64.9833,23.9726 65.2341,23.4875 65.2341,22.9053 C65.2341,22.3668 64.9809,21.9513 64.4608,21.644 C63.9096,21.3185 63.2106,21.0322 62.364,20.7862 C61.5084,20.5375 60.5882,20.2888 59.6034,20.0401 C58.6069,19.7884 57.6752,19.4433 56.8083,19.0048 C55.9328,18.5618 55.2067,17.9766 54.6313,17.2496 C54.0474,16.5118 53.757,15.5348 53.757,14.3234 C53.757,13.5087 53.9322,12.7311 54.2824,11.9923 C54.6322,11.2541 55.1332,10.606 55.7843,10.0486 C56.4344,9.4922 57.2289,9.04986 58.1668,8.72125 C59.1047,8.39268 60.1714,8.22876 61.3668,8.22876 Z M89.4911,8.22876 L89.4911,12.3899 L82.8899,12.3899 L82.8899,29 L78.456,29 L78.456,12.3899 L71.9262,12.3899 L71.9262,8.22876 L89.4911,8.22876 Z M148.996,8.22876 L148.996,21.5294 C148.996,22.6628 148.834,23.682 148.511,24.5866 L148.488,24.6481 C148.149,25.5705 147.653,26.3579 147,27.0088 C146.348,27.6597 145.559,28.1547 144.635,28.4935 C143.713,28.8314 142.671,29 141.51,29 C140.778,29 140.119,28.9249 139.534,28.7743 C138.951,28.624 138.423,28.4217 137.95,28.1672 C137.478,27.9129 137.067,27.625 136.716,27.3033 C136.368,26.9847 136.063,26.6563 135.801,26.3199 C135.179,25.5487 134.726,24.6555 134.444,23.6416 L134.403,23.4944 L134.553,23.4635 L138.571,22.6339 L138.697,22.608 L138.736,22.7304 C138.86,23.1199 139.046,23.4736 139.293,23.7905 C139.504,24.0538 139.788,24.2968 140.144,24.5191 C140.489,24.7342 140.943,24.8432 141.51,24.8432 C142.451,24.8432 143.19,24.5581 143.734,23.9886 C144.279,23.4184 144.554,22.6012 144.554,21.5294 L144.554,12.3687 L138.126,12.3687 L138.126,8.22876 L148.996,8.22876 Z M101.484,8.22876 C103.015,8.22876 104.44,8.49988 105.758,9.04232 C107.075,9.58426 108.22,10.3231 109.192,11.2584 C110.165,12.1945 110.923,13.2946 111.466,14.5578 C112.008,15.8216 112.28,17.1742 112.28,18.6144 C112.28,20.0546 112.008,21.4072 111.466,22.671 C110.923,23.9341 110.165,25.0342 109.192,25.9703 C108.22,26.9057 107.075,27.6445 105.758,28.1864 C104.44,28.7289 103.015,29 101.484,29 C99.935,29 98.5053,28.7289 97.1963,28.1863 C95.8889,27.6443 94.7486,26.9056 93.7764,25.9703 C92.8034,25.0342 92.0454,23.9341 91.503,22.671 C90.9603,21.4072 90.689,20.0546 90.689,18.6144 C90.689,17.1742 90.9603,15.8216 91.503,14.5578 C92.0454,13.2946 92.8034,12.1945 93.7764,11.2584 C94.7486,10.3232 95.8889,9.58441 97.1963,9.04246 C98.5053,8.49989 99.935,8.22876 101.484,8.22876 Z M125.073,8.29704 C126.269,8.29704 127.346,8.46995 128.303,8.81639 C129.26,9.16301 130.073,9.63712 130.742,10.2389 C131.411,10.8412 131.926,11.5431 132.284,12.3438 C132.643,13.1447 132.822,14.0067 132.822,14.9286 C132.822,15.6996 132.704,16.4066 132.468,17.0488 C132.232,17.6892 131.91,18.2598 131.504,18.76 C131.099,19.2585 130.623,19.6957 130.077,20.0715 C129.601,20.3993 129.089,20.6769 128.542,20.9042 L128.468,20.9343 L129.291,22.2187 L129.292,22.2182 L129.407,22.3988 L133.479,28.7495 L133.62,28.9693 L128.549,28.9693 L128.507,28.9028 L124.901,23.1929 L123.751,21.3827 L120.237,21.3827 L120.237,29 L115.803,29 L115.803,8.29704 L125.073,8.29704 Z M101.459,12.4354 C100.574,12.4354 99.7622,12.5888 99.0237,12.8952 C98.285,13.2016 97.6462,13.6292 97.1063,14.1783 C96.5663,14.7277 96.1431,15.3808 95.8364,16.1388 C95.5299,16.8964 95.3765,17.7365 95.3765,18.6599 C95.3765,19.5833 95.5299,20.4233 95.8364,21.1809 C96.1431,21.9389 96.5663,22.592 97.1063,23.1414 C97.6462,23.6905 98.285,24.1181 99.0237,24.4246 C99.7622,24.7309 100.574,24.8843 101.459,24.8843 C102.345,24.8843 103.156,24.7309 103.895,24.4246 C104.634,24.1181 105.272,23.6905 105.812,23.1414 C106.352,22.592 106.775,21.9389 107.082,21.1809 C107.389,20.4233 107.542,19.5833 107.542,18.6599 C107.542,17.7365 107.389,16.8964 107.082,16.1388 C106.775,15.3808 106.352,14.7277 105.812,14.1783 C105.272,13.6292 104.634,13.2016 103.895,12.8952 C103.156,12.5888 102.345,12.4354 101.459,12.4354 Z M124.946,12.4482 L120.249,12.4482 L120.249,17.409 L124.946,17.409 C126.095,17.409 126.934,17.1741 127.467,16.7122 C127.997,16.2518 128.261,15.6608 128.261,14.9286 C128.261,14.1964 127.997,13.6054 127.467,13.145 C126.934,12.6831 126.095,12.4482 124.946,12.4482 Z" id="Shape" fill="#001C4A" />
        </g>
    </g>
</svg>
