<svg width="55" height="53" viewBox="0 0 55 53" fill="none" xmlns="http://www.w3.org/2000/svg">
<g clip-path="url(#clip0)">
<path d="M54.6522 27.4886V23.644L36.7204 16.8062L0.267822 34.5461V38.3907L18.1729 49.0731L54.6522 27.4886Z" fill="#2B9E71"/>
<path d="M0.267822 35.315L18.1729 45.9974L54.6523 24.4129" stroke="#34BF89" stroke-width="0.5" stroke-miterlimit="10"/>
<path d="M0.267822 36.1114L18.1729 46.7938L54.6523 25.1819" stroke="#34BF89" stroke-width="0.5" stroke-miterlimit="10"/>
<path d="M0.267822 36.8803L18.1729 47.5627L54.6523 25.9782" stroke="#34BF89" stroke-width="0.5" stroke-miterlimit="10"/>
<path d="M54.6523 26.7471L18.1729 48.359L0.267822 37.6767" stroke="#34BF89" stroke-width="0.5" stroke-miterlimit="10"/>
<path d="M54.6522 23.644L36.7204 12.9616L0.267822 34.5461L18.1729 45.2285L54.6522 23.644Z" fill="#238052"/>
<path d="M4.30908 33.5026C5.27259 34.0792 5.27259 35.0129 4.30908 35.6171L16.4332 42.8393C17.4234 42.2627 19.0025 42.2627 19.966 42.8393L50.6108 24.6875C49.6473 24.1108 49.6473 23.1772 50.6108 22.573L38.4867 15.3507C37.4964 15.9274 35.9174 15.9274 34.9538 15.3507L4.30908 33.5026Z" fill="#238052"/>
<path d="M49.4601 24.6326L19.8858 42.1528C18.842 41.7958 17.5574 41.7958 16.5136 42.1528L5.43329 35.5621C6.04886 34.9305 6.04886 34.1891 5.43329 33.5575L35.0075 16.0373C36.0513 16.3943 37.336 16.3943 38.3798 16.0373L49.4601 22.6279C48.8445 23.2596 48.8445 24.0285 49.4601 24.6326ZM5.27271 33.53C5.91504 34.1616 5.91504 34.9305 5.29947 35.5347L5.27271 35.5621L16.4868 42.2352L16.5403 42.2077C17.5841 41.8507 18.842 41.8507 19.8858 42.2077L19.9394 42.2352L49.6474 24.6326L49.6206 24.6051C49.0051 24.001 49.0051 23.2321 49.6206 22.6279L49.6474 22.6005L38.4065 15.9274L38.353 15.9549C37.3092 16.3119 36.0513 16.3119 35.0075 15.9549L34.954 15.9274L5.27271 33.53Z" fill="#FFFFB2"/>
<path d="M21.9467 25.8135C24.9978 24.001 29.9491 24.001 32.9735 25.8135C35.9978 27.6259 35.9978 30.5642 32.9467 32.3767C29.8956 34.1891 24.9443 34.1891 21.9199 32.3767C18.8956 30.5642 18.8956 27.6259 21.9467 25.8135Z" fill="#34BF89"/>
<path d="M35.4356 20.3212C37.3359 19.1953 40.387 19.1953 42.2604 20.3212C44.1339 21.4471 44.1339 23.2596 42.2337 24.3855C40.3334 25.5114 37.2823 25.5114 35.4089 24.3855C33.5354 23.2596 33.5354 21.4471 35.4356 20.3212Z" fill="#34BF89"/>
<path d="M12.6595 33.8046C14.5597 32.6787 17.6108 32.6787 19.4843 33.8046C21.3578 34.9305 21.3578 36.743 19.4576 37.8689C17.5573 38.9948 14.5062 38.9948 12.6327 37.8689C10.7593 36.743 10.7593 34.9305 12.6595 33.8046Z" fill="#34BF89"/>
<path opacity="0.4" d="M39.1024 32.8435L21.1706 22.1611L15.3628 25.6212L33.2947 36.3036V40.1482L39.1024 36.6881V32.8435Z" fill="url(#paint0_linear)"/>
<path d="M39.3166 36.5782L33.5088 40.0109V36.1663L39.3166 32.7062V36.5782Z" fill="#D9D763"/>
<path d="M15.5769 25.4839L21.4115 22.0238L39.3166 32.7062L33.5088 36.1663L15.5769 25.4839Z" fill="#ADAC4F"/>
<path opacity="0.4" d="M2.14111 35.2876L54.6521 22.7928V27.4886L17.5036 46.2995L2.14111 35.2876Z" fill="url(#paint1_linear)"/>
<path opacity="0.56" d="M2.51587 24.8524L18.3602 34.7384L53.9563 14.8565L33.91 3.29535L2.51587 24.8524Z" fill="url(#paint2_linear)"/>
<path d="M54.8396 25.2093L55.0002 21.3647L37.3627 13.7855L0.214295 30.0425L0.0537109 33.8596L17.5574 45.2834L54.8396 25.2093Z" fill="#2B9E71"/>
<path d="M0.1875 30.7839L17.6644 42.2078L54.9734 22.1337" stroke="#34BF89" stroke-width="0.5" stroke-miterlimit="10"/>
<path d="M0.160645 31.5803L17.6375 43.0041L54.9198 22.9026" stroke="#34BF89" stroke-width="0.5" stroke-miterlimit="10"/>
<path d="M0.134033 32.3492L17.6109 43.773L54.8932 23.6989" stroke="#34BF89" stroke-width="0.5" stroke-miterlimit="10"/>
<path d="M0.0812988 33.1456L17.5849 44.5694L54.8672 24.4953" stroke="#34BF89" stroke-width="0.5" stroke-miterlimit="10"/>
<path d="M55.0002 21.3648L37.4966 9.94092L0.214355 30.0425L17.6912 41.4388L55.0002 21.3648Z" fill="#238052"/>
<path d="M4.3092 29.1363C5.27271 29.7679 5.21918 30.7015 4.20215 31.2508L16.0318 38.9673C17.0221 38.4181 18.6279 38.5005 19.5647 39.1046L50.9053 22.2435C49.9418 21.6119 49.9953 20.6782 51.0124 20.129L39.1827 12.4124C38.1924 12.9616 36.5866 12.8793 35.6498 12.2751L4.3092 29.1363Z" fill="#238052"/>
<path d="M49.7544 22.1611L19.5379 38.4456C18.4941 38.0337 17.2362 37.9788 16.1656 38.3083L5.35297 31.2508C5.9953 30.6466 6.02207 29.9052 5.43326 29.2461L35.6766 12.9617C36.7204 13.3736 38.005 13.4285 39.0488 13.099L49.8615 20.1565C49.2192 20.7332 49.1924 21.5021 49.7544 22.1611ZM5.27268 29.2186C5.88825 29.8777 5.86148 30.6466 5.21915 31.2233L5.19238 31.2508L16.1389 38.3907H16.1924C17.2362 38.0611 18.5209 38.1161 19.5379 38.528L19.5914 38.5554L49.9685 22.1886L49.9418 22.1611C49.353 21.5295 49.3797 20.7606 50.0221 20.1839L50.0488 20.1565L39.1024 13.0166H39.0488C38.005 13.3461 36.7204 13.2912 35.7033 12.8793L35.6498 12.8518L5.27268 29.2186Z" fill="#FFFFB2"/>
<path d="M22.2411 22.1886C25.3725 20.5135 30.297 20.7057 33.2678 22.6554C36.2386 24.5777 36.1048 27.516 32.9734 29.1912C29.842 30.8663 24.9175 30.6741 21.9467 28.7243C18.9759 26.8021 19.1097 23.8912 22.2411 22.1886Z" fill="#34BF89"/>
<path d="M35.9173 17.2456C37.8443 16.2021 40.8954 16.3394 42.7421 17.5202C44.5888 18.7285 44.4818 20.5409 42.5548 21.5844C40.6278 22.628 37.5767 22.4907 35.73 21.3098C33.91 20.1015 33.9903 18.2891 35.9173 17.2456Z" fill="#34BF89"/>
<path d="M12.6327 29.7953C14.5597 28.7518 17.6108 28.8891 19.4575 30.0699C21.3042 31.2782 21.1971 33.0907 19.2701 34.1342C17.3431 35.1777 14.292 35.0404 12.4453 33.8596C10.6254 32.6513 10.7056 30.8389 12.6327 29.7953Z" fill="#34BF89"/>
<path opacity="0.4" d="M39.1022 29.9326L21.5986 18.5088L15.657 21.7217L33.1339 33.1456L33 36.9901L38.9417 33.7772L39.1022 29.9326Z" fill="url(#paint3_linear)"/>
<path d="M39.156 33.6399L33.2144 36.8528L33.3749 33.0083L39.3165 29.7953L39.156 33.6399Z" fill="#D9D763"/>
<path d="M15.8713 21.5844L21.8397 18.399L39.3166 29.7953L33.375 33.0083L15.8713 21.5844Z" fill="#ADAC4F"/>
<path d="M54.6522 19.1129V15.2684L36.7204 8.43054L0.267822 26.1979V30.0425L18.1729 40.7248L54.6522 19.1129Z" fill="#2B9E71"/>
<path d="M0.267822 26.9394L18.1729 37.6217L54.6523 16.0373" stroke="#34BF89" stroke-width="0.5" stroke-miterlimit="10"/>
<path d="M0.267822 27.7357L18.1729 38.4181L54.6523 16.8062" stroke="#34BF89" stroke-width="0.5" stroke-miterlimit="10"/>
<path d="M0.267822 28.5321L18.1729 39.2145L54.6523 17.6026" stroke="#34BF89" stroke-width="0.5" stroke-miterlimit="10"/>
<path d="M0.267822 29.301L18.1729 39.9834L54.6523 18.399" stroke="#34BF89" stroke-width="0.5" stroke-miterlimit="10"/>
<path d="M54.6522 15.2684L36.7204 4.586L0.267822 26.1979L18.1729 36.8803L54.6522 15.2684Z" fill="#238052"/>
<path d="M4.30908 25.1269C5.27259 25.7036 5.27259 26.6373 4.30908 27.2414L16.4332 34.4637C17.4234 33.887 19.0025 33.887 19.966 34.4637L50.6108 16.3119C49.6473 15.7352 49.6473 14.8015 50.6108 14.1974L38.4867 6.9751C37.4964 7.55178 35.9174 7.55178 34.9538 6.9751L4.30908 25.1269Z" fill="#238052"/>
<path d="M49.4601 16.2844L19.8858 33.7772C18.842 33.4202 17.5574 33.4202 16.5136 33.7772L5.43329 27.1865C6.04886 26.5549 6.04886 25.8134 5.43329 25.1818L35.0075 7.66161C36.0513 8.0186 37.336 8.0186 38.3798 7.66161L49.4601 14.2523C48.8445 14.8839 48.8445 15.6528 49.4601 16.2844ZM5.27271 25.1818C5.91504 25.8134 5.91504 26.5823 5.29947 27.1865L5.27271 27.2139L16.4868 33.887L16.5403 33.8595C17.5841 33.5025 18.842 33.5025 19.8858 33.8595L19.9394 33.887L49.6474 16.2844L49.6206 16.2569C49.0051 15.6528 49.0051 14.8839 49.6206 14.2797L49.6474 14.2523L38.4333 7.57922L38.3798 7.60668C37.336 7.96368 36.0781 7.96368 35.0343 7.60668L34.9807 7.57922L5.27271 25.1818Z" fill="#FFFFB2"/>
<path d="M21.9467 17.4378C24.9978 15.6254 29.9491 15.6254 32.9735 17.4378C35.9978 19.2503 35.9978 22.1886 32.9467 24.001C29.8956 25.8135 24.9443 25.8135 21.9199 24.001C18.8956 22.1886 18.8956 19.2503 21.9467 17.4378Z" fill="#34BF89"/>
<path d="M35.4356 11.9456C37.3359 10.8197 40.387 10.8197 42.2604 11.9456C44.1339 13.0715 44.1339 14.8839 42.2337 16.0098C40.3334 17.1358 37.2823 17.1358 35.4089 16.0098C33.5354 14.8839 33.5354 13.0715 35.4356 11.9456Z" fill="#34BF89"/>
<path d="M12.6595 25.4565C14.5597 24.3306 17.6108 24.3306 19.4843 25.4565C21.3578 26.5824 21.3578 28.3948 19.4576 29.5207C17.5573 30.6466 14.5062 30.6466 12.6327 29.5207C10.7593 28.3948 10.7593 26.5549 12.6595 25.4565Z" fill="#34BF89"/>
<path opacity="0.4" d="M39.1024 24.4953L21.1706 13.7855L15.3628 17.2456L33.2947 27.928V31.7725L39.1024 28.3399V24.4953Z" fill="url(#paint4_linear)"/>
<path d="M39.3166 28.2026L33.5088 31.6352V27.7907L39.3166 24.358V28.2026Z" fill="#D9D763"/>
<path d="M15.5769 17.1083L21.4115 13.6482L39.3166 24.358L33.5088 27.7907L15.5769 17.1083Z" fill="#ADAC4F"/>
<path d="M54.4388 14.5269V10.6824L36.5069 3.84454L0.0275879 21.6119V25.4565L17.9595 36.1388L54.4388 14.5269Z" fill="#2B9E71"/>
<path d="M0.0275879 22.3534L17.9595 33.0632L54.4388 11.4513" stroke="#34BF89" stroke-width="0.5" stroke-miterlimit="10"/>
<path d="M0.0275879 23.1498L17.9595 33.8321L54.4388 12.2477" stroke="#34BF89" stroke-width="0.5" stroke-miterlimit="10"/>
<path d="M0.0275879 23.9461L17.9595 34.6285L54.4388 13.0166" stroke="#34BF89" stroke-width="0.5" stroke-miterlimit="10"/>
<path d="M0.0275879 24.715L17.9595 35.3974L54.4388 13.813" stroke="#34BF89" stroke-width="0.5" stroke-miterlimit="10"/>
<path d="M54.4378 10.6824L36.5059 0L0.0266113 21.6119L17.9585 32.2943L54.4378 10.6824Z" fill="#34BF89"/>
<path d="M4.06836 20.5409C5.03186 21.1176 5.03186 22.0513 4.06836 22.6554L16.1924 29.8777C17.1827 29.301 18.7618 29.301 19.7253 29.8777L50.3701 11.7259C49.4066 11.1492 49.4066 10.2155 50.3701 9.61138L38.246 2.3891C37.2557 2.96578 35.6766 2.96578 34.7131 2.3891L4.06836 20.5409Z" fill="#238052"/>
<path d="M49.2459 11.6984L19.6717 29.2186C18.6279 28.8616 17.3433 28.8616 16.2995 29.2186L5.21918 22.6279C5.83475 21.9963 5.83475 21.2549 5.21918 20.6233L34.7934 3.07561C35.8372 3.4326 37.1219 3.4326 38.1656 3.07561L49.2459 9.66628C48.6304 10.2979 48.6304 11.0668 49.2459 11.6984ZM5.05859 20.5958C5.70093 21.2274 5.70093 21.9963 5.08536 22.6005L5.05859 22.6279L16.2727 29.301L16.3262 29.2735C17.37 28.9165 18.6279 28.9165 19.6717 29.2735L19.7253 29.301L49.4333 11.6984L49.4065 11.6709C48.791 11.0668 48.791 10.2979 49.4065 9.69374L49.4333 9.66628L38.2192 2.99323L38.1656 3.02069C37.1219 3.37768 35.8639 3.37768 34.8201 3.02069L34.7666 2.99323L5.05859 20.5958Z" fill="#FFFFB2"/>
<path d="M21.7324 12.8793C24.7835 11.0669 29.7348 11.0669 32.7592 12.8793C35.7835 14.6918 35.7835 17.6301 32.7324 19.4425C29.6813 21.255 24.73 21.255 21.7056 19.4425C18.6546 17.6026 18.6813 14.6643 21.7324 12.8793Z" fill="#34BF89"/>
<path d="M35.2213 7.3596C37.1215 6.23369 40.1726 6.23369 42.0461 7.3596C43.9196 8.4855 43.9196 10.2979 42.0193 11.4238C40.1191 12.5498 37.068 12.5498 35.1945 11.4238C33.321 10.2979 33.321 8.4855 35.2213 7.3596Z" fill="#34BF89"/>
<path d="M12.4452 20.8705C14.3455 19.7446 17.3966 19.7446 19.27 20.8705C21.1435 21.9964 21.1435 23.8088 19.2433 24.9347C17.343 26.0606 14.2919 26.0606 12.4185 24.9347C10.5182 23.8088 10.545 21.9964 12.4452 20.8705Z" fill="#34BF89"/>
<path opacity="0.4" d="M38.8881 19.9093L20.9562 9.22696L15.1484 12.6596L33.0535 23.342V27.1865L38.8881 23.7539V19.9093Z" fill="url(#paint5_linear)"/>
<path d="M39.1022 23.6166L33.2944 27.0492V23.2047L39.1022 19.772V23.6166Z" fill="#D9D763"/>
<path d="M15.3625 12.5223L21.1703 9.08966L39.1022 19.772L33.2944 23.2047L15.3625 12.5223Z" fill="#FFFF7A"/>
</g>
<defs>
<linearGradient id="paint0_linear" x1="15.36" y1="31.1567" x2="39.0992" y2="31.1567" gradientUnits="userSpaceOnUse">
<stop offset="0.2853" stop-color="#404D2E"/>
<stop offset="1" stop-color="#AFBC9D"/>
</linearGradient>
<linearGradient id="paint1_linear" x1="36.0908" y1="38.262" x2="17.8293" y2="17.4521" gradientUnits="userSpaceOnUse">
<stop offset="0.2853" stop-color="#404D2E"/>
<stop offset="1" stop-color="#AFBC9D"/>
</linearGradient>
<linearGradient id="paint2_linear" x1="34.0232" y1="23.784" x2="9.52521" y2="7.92664" gradientUnits="userSpaceOnUse">
<stop offset="0.2853" stop-color="#404D2E"/>
<stop offset="1" stop-color="#AFBC9D"/>
</linearGradient>
<linearGradient id="paint3_linear" x1="15.4393" y1="27.2567" x2="39.1614" y2="28.1892" gradientUnits="userSpaceOnUse">
<stop offset="0.2853" stop-color="#404D2E"/>
<stop offset="1" stop-color="#AFBC9D"/>
</linearGradient>
<linearGradient id="paint4_linear" x1="15.36" y1="22.7873" x2="39.0992" y2="22.7873" gradientUnits="userSpaceOnUse">
<stop offset="0.2853" stop-color="#404D2E"/>
<stop offset="1" stop-color="#AFBC9D"/>
</linearGradient>
<linearGradient id="paint5_linear" x1="15.1379" y1="18.2052" x2="38.8771" y2="18.2052" gradientUnits="userSpaceOnUse">
<stop offset="0.2853" stop-color="#404D2E"/>
<stop offset="1" stop-color="#AFBC9D"/>
</linearGradient>
<clipPath id="clip0">
<rect width="55" height="53" fill="white"/>
</clipPath>
</defs>
</svg>
