<svg width="20" height="20" viewBox="0 0 20 20" fill="none" xmlns="http://www.w3.org/2000/svg">
    <path fill-rule="evenodd" clip-rule="evenodd" d="M18.7143 1.28565C19.0952 1.66652 19.0952 2.28403 18.7143 2.6649L11.3791 9.99987L18.6517 17.2724C19.0325 17.6533 19.0325 18.2708 18.6517 18.6517C18.2708 19.0325 17.6533 19.0325 17.2724 18.6517L9.99987 11.3791L2.6649 18.7143C2.28403 19.0952 1.66652 19.0952 1.28565 18.7143C0.904783 18.3335 0.904783 17.716 1.28565 17.3351L8.62075 9.99975L1.34835 2.72759C0.967476 2.34673 0.967476 1.72921 1.34835 1.34835C1.72921 0.967476 2.34673 0.967476 2.72759 1.34835L10 8.6205L17.3351 1.28565C17.716 0.904783 18.3335 0.904783 18.7143 1.28565Z" fill="#929FB1"/>
</svg>
