<svg width="20" height="20" viewBox="0 0 20 20" fill="none" xmlns="http://www.w3.org/2000/svg">
    <path d="M10 20C4.47715 20 0 15.5228 0 10C0 4.47715 4.47715 0 10 0C15.5228 0 20 4.47715 20 10C20 15.5228 15.5228 20 10 20ZM10 18.1667C14.5103 18.1667 18.1667 14.5103 18.1667 10C18.1667 5.48967 14.5103 1.83333 10 1.83333C5.48967 1.83333 1.83333 5.48967 1.83333 10C1.83333 14.5103 5.48967 18.1667 10 18.1667ZM9.16667 13.4162V10.4767C9.16667 9.97041 9.57707 9.56 10.0833 9.56C10.5772 9.56 10.9799 9.95063 10.9993 10.4398L11 10.4767V13.3552C11 13.8666 10.5945 14.2858 10.0833 14.3028C9.59364 14.3191 9.18345 13.9354 9.16716 13.4457C9.16683 13.4358 9.16667 13.426 9.16667 13.4162ZM9.16667 6.58283V6.47667C9.16667 5.97041 9.57707 5.56 10.0833 5.56C10.5772 5.56 10.9799 5.95063 10.9993 6.4398L11 6.47667V6.52183C11 7.03323 10.5945 7.45249 10.0833 7.4695C9.59364 7.48579 9.18345 7.10202 9.16716 6.61233C9.16683 6.6025 9.16667 6.59266 9.16667 6.58283Z" fill="#091C45"/>
</svg>
