<svg class="arrow-icon" width="7" height="12" viewBox="0 0 7 12" fill="none" xmlns="http://www.w3.org/2000/svg">
<path d="M6.46379 1.77339C6.46379 1.68061 6.42256 1.59814 6.3607 1.53629L5.84525 1.02083C5.78339 0.958978 5.69061 0.91774 5.60814 0.91774C5.52567 0.91774 5.43288 0.958978 5.37103 1.02083L0.566999 5.82486C0.505145 5.88672 0.463909 5.9795 0.463909 6.06197C0.463909 6.14444 0.505145 6.23723 0.566999 6.29908L5.37103 11.1031C5.43288 11.165 5.52567 11.2062 5.60814 11.2062C5.69061 11.2062 5.78339 11.165 5.84525 11.1031L6.3607 10.5877C6.42256 10.5258 6.46379 10.433 6.46379 10.3505C6.46379 10.2681 6.42256 10.1753 6.3607 10.1134L2.30923 6.06197L6.3607 2.0105C6.42256 1.94865 6.46379 1.85587 6.46379 1.77339Z" fill="#8C97B2"/>
</svg>
