<svg width="64" height="64" viewBox="0 0 64 64" fill="none" xmlns="http://www.w3.org/2000/svg">
	<path fill-rule="evenodd" clip-rule="evenodd" d="M26.3077 0H37.3541C46.2136 0 49.7287 0.981957 53.1765 2.82587C56.6243 4.66978 59.3302 7.37564 61.1741 10.8234L61.3143 11.0889C63.0447 14.4107 63.9753 17.9199 64 26.3077V37.3541C64 46.2136 63.018 49.7287 61.1741 53.1765C59.3302 56.6244 56.6243 59.3302 53.1765 61.1741L52.9111 61.3143C49.5892 63.0447 46.08 63.9753 37.6923 64H26.6459C17.7864 64 14.2713 63.018 10.8234 61.1741C7.37564 59.3302 4.66978 56.6244 2.82587 53.1765L2.68573 52.9111C0.955318 49.5893 0.024675 46.0801 0 37.6923V26.6459C0 17.7864 0.981957 14.2713 2.82587 10.8234C4.66978 7.37564 7.37564 4.66978 10.8234 2.82587L11.0889 2.68573C14.4107 0.955318 17.9199 0.024675 26.3077 0Z" fill="#0218A7"/>
	<path d="M32.2645 55.0085C45.1177 55.0085 55.5372 44.5889 55.5372 31.7357C55.5372 18.8825 45.1177 8.46289 32.2645 8.46289C19.4113 8.46289 8.9917 18.8825 8.9917 31.7357C8.9917 44.5889 19.4113 55.0085 32.2645 55.0085Z" fill="white"/>
	<path fill-rule="evenodd" clip-rule="evenodd" d="M32.2645 51.8548C43.3759 51.8548 52.3835 42.8472 52.3835 31.7357C52.3835 25.8749 36.3178 34.3287 32.3189 30.6516C28.7363 27.3573 37.5151 11.6167 32.2645 11.6167C21.1531 11.6167 12.1455 20.6243 12.1455 31.7357C12.1455 42.8472 21.1531 51.8548 32.2645 51.8548Z" fill="#FF458B"/>
	<path fill-rule="evenodd" clip-rule="evenodd" d="M32.2643 11.6167C33.7057 11.6167 34.8742 12.7852 34.8742 14.2267V31.7356C34.8742 33.1771 33.7057 34.3456 32.2643 34.3456C30.8228 34.3456 29.6543 33.1771 29.6543 31.7356V14.2267C29.6543 12.7852 30.8228 11.6167 32.2643 11.6167Z" fill="#0149FF"/>
	<path fill-rule="evenodd" clip-rule="evenodd" d="M52.3291 31.6813C52.3291 33.1228 51.1606 34.2914 49.7191 34.2914H32.2101C30.7686 34.2914 29.6001 33.1228 29.6001 31.6813C29.6001 30.2399 30.7686 29.0713 32.2101 29.0713L49.7191 29.0713C51.1606 29.0713 52.3291 30.2399 52.3291 31.6813Z" fill="#0149FF"/>
</svg>
