<svg width="60" height="60" viewBox="0 0 60 60" fill="none" xmlns="http://www.w3.org/2000/svg">
    <path d="M30 60C46.5685 60 60 46.5685 60 30C60 13.4315 46.5685 0 30 0C13.4315 0 0 13.4315 0 30C0 46.5685 13.4315 60 30 60Z" fill="#E8EAF2"/>
    <path d="M29.9998 16.7598C25.7965 16.7641 21.8459 18.7646 19.3534 22.1498C16.8607 25.535 16.1236 29.9013 17.3671 33.9162C18.6096 37.9314 21.6853 41.1186 25.6546 42.5032C29.6238 43.8868 34.014 43.305 37.4846 40.9348L35.9861 38.7538C33.3633 40.552 30.0711 41.0781 27.0174 40.1856C23.9649 39.2931 21.4732 37.077 20.2319 34.1482C18.9905 31.2203 19.1294 27.8888 20.6104 25.0734C22.0924 22.2591 24.7588 20.2577 27.8761 19.6232C30.9922 18.9878 34.2296 19.7862 36.6938 21.7976C39.1581 23.809 40.5898 26.8202 40.592 30.0007V31.0365C40.592 32.8762 39.8001 33.9732 38.4723 33.9732V33.995L38.4734 33.9961C38.3892 33.9819 38.305 33.9743 38.2208 33.9743H37.9408C37.1959 33.9743 36.0868 32.8903 36.0868 32.1597V30.0007C36.0989 28.1019 35.2293 26.3038 33.7331 25.1345C32.2358 23.9653 30.2824 23.5563 28.4417 24.0277C26.602 24.498 25.085 25.7963 24.3335 27.5408C23.5832 29.2854 23.6838 31.2794 24.6069 32.9395C25.529 34.5987 27.1696 35.7373 29.0475 36.0206C30.9254 36.3039 32.8286 35.6991 34.2 34.3855C35.0597 35.6542 36.521 36.6255 37.9386 36.6255V36.6025C38.0228 36.6178 38.1092 36.6255 38.1956 36.6255H38.4756C41.326 36.6255 43.2356 34.3855 43.2356 31.042V30.0007C43.2312 26.4909 41.8356 23.1265 39.3551 20.6448C36.8734 18.1631 33.5101 16.7654 30.0003 16.7598L29.9998 16.7598ZM29.9998 33.4416C28.6075 33.4416 27.353 32.6038 26.8204 31.3176C26.2878 30.0313 26.582 28.5515 27.5664 27.567C28.5508 26.5824 30.0306 26.2884 31.317 26.821C32.6032 27.3537 33.441 28.6082 33.441 30.0004C33.441 31.9014 31.901 33.4413 30.0001 33.4413L29.9998 33.4416Z" fill="#354049"/>
</svg>
