<svg width="40" height="40" viewBox="0 0 40 40" fill="none" xmlns="http://www.w3.org/2000/svg">
    <path fill-rule="evenodd" clip-rule="evenodd" d="M16.4423 0H23.3463C28.8835 0 31.0805 0.613726 33.2353 1.76618C35.3902 2.91863 37.0814 4.6098 38.2338 6.76469L38.3214 6.93059C39.4029 9.00676 39.9846 11.2 40 16.4424V23.3465C40 28.8837 39.3863 31.0806 38.2338 33.2355C37.0814 35.3904 35.3902 37.0816 33.2353 38.234L33.0694 38.3216C30.9933 39.4031 28.8 39.9848 23.5577 40.0002H16.6537C11.1165 40.0002 8.91954 39.3865 6.76466 38.234C4.60977 37.0816 2.91861 35.3904 1.76617 33.2355L1.67858 33.0696C0.597074 30.9934 0.0154219 28.8002 0 23.5578V16.6537C0 11.1166 0.613723 8.91958 1.76617 6.76469C2.91861 4.6098 4.60977 2.91863 6.76466 1.76618L6.93055 1.67859C9.00672 0.597077 11.2 0.0154219 16.4423 0Z" fill="#0218A7"/>
    <path d="M20.1652 24.4628C24.3644 24.4628 27.7685 21.0587 27.7685 16.8596C27.7685 12.6604 24.3644 9.25635 20.1652 9.25635C15.966 9.25635 12.5619 12.6604 12.5619 16.8596C12.5619 21.0587 15.966 24.4628 20.1652 24.4628Z" fill="#FFC600"/>
    <path fill-rule="evenodd" clip-rule="evenodd" d="M19.9999 7.27271C25.5684 7.27271 30.0826 11.7128 30.0826 17.1899C30.0826 22.667 25.5684 27.1071 19.9999 27.1071C14.767 27.1071 10.4652 23.1861 9.9657 18.1682C10.0423 16.4121 10.2089 15.0761 10.4612 13.9689C11.8206 10.0728 15.5778 7.27271 19.9999 7.27271ZM19.9999 10.2479C16.0637 10.2479 12.8925 13.367 12.8925 17.1899C12.8925 21.0128 16.0637 24.132 19.9999 24.132C23.9362 24.132 27.1074 21.0128 27.1074 17.1899C27.1074 13.367 23.9362 10.2479 19.9999 10.2479Z" fill="#FF458B"/>
    <path d="M30.0827 17.1903H9.91748V32.3967H30.0827V17.1903Z" fill="#0149FF"/>
    <path fill-rule="evenodd" clip-rule="evenodd" d="M20.1653 21.157C21.2608 21.157 22.1488 21.9862 22.1488 23.009C22.1488 23.7832 21.64 24.4465 20.9176 24.7232L20.9177 26.7769H19.413L19.413 24.7232C18.6906 24.4465 18.1819 23.7832 18.1819 23.009C18.1819 21.9862 19.0699 21.157 20.1653 21.157Z" fill="#0218A7"/>
</svg>
