<svg width="32" height="32" viewBox="0 0 32 32" fill="none" xmlns="http://www.w3.org/2000/svg">
<rect width="32" height="32" rx="8" fill="#537CFF" fill-opacity="0.1"/>
<rect x="0.5" y="0.5" width="31" height="31" rx="7.5" stroke="#537CFF" stroke-opacity="0.2"/>
<path d="M21.6978 10.0002C22.5965 10.0048 23.0675 10.0999 23.5573 10.3618C24.0213 10.61 24.39 10.9787 24.6382 11.4427C24.9068 11.945 25 12.4276 25 13.3722V19.2433C24.9952 20.142 24.9001 20.613 24.6382 21.1027C24.39 21.5668 24.0213 21.9354 23.5573 22.1836C23.0801 22.4388 22.6207 22.5357 21.7661 22.5447L21.6278 22.5455H10.3722C9.42764 22.5455 8.94504 22.4523 8.44271 22.1836C7.97867 21.9354 7.61001 21.5668 7.36184 21.1027C7.10663 20.6255 7.00976 20.1661 7.00071 19.3116L7 19.1733V13.3722C7 12.4276 7.0932 11.945 7.36184 11.4427C7.61001 10.9787 7.97867 10.61 8.44271 10.3618C8.94504 10.0932 9.42764 10 10.3722 10L21.6978 10.0002ZM15.1818 11.5L10.3164 11.5001C9.67852 11.5025 9.42696 11.5463 9.19156 11.6632L9.15011 11.6846C8.94748 11.7929 8.79293 11.9475 8.68456 12.1501C8.54802 12.4054 8.5 12.6541 8.5 13.3722V19.229C8.50245 19.8679 8.54645 20.1193 8.66373 20.355L8.68456 20.3953C8.79293 20.598 8.94748 20.7525 9.15011 20.8609C9.40542 20.9974 9.65409 21.0455 10.3722 21.0455H15.1818V11.5ZM21.6836 11.5001L16.6818 11.5V21.0453L21.6836 21.0454C22.3031 21.0431 22.5582 21.0016 22.7881 20.8922L22.8096 20.8817L22.8499 20.8609C23.0525 20.7525 23.2071 20.598 23.3154 20.3953C23.452 20.14 23.5 19.8914 23.5 19.1733L23.4999 13.3164C23.4975 12.6785 23.4537 12.427 23.3368 12.1916L23.3154 12.1501C23.2071 11.9475 23.0525 11.7929 22.8499 11.6846L22.8279 11.673L22.8096 11.6637C22.7902 11.6541 22.7707 11.6449 22.7509 11.6363C22.7489 11.6354 22.7469 11.6345 22.7449 11.6337L22.7509 11.6363C22.7455 11.6339 22.7401 11.6316 22.7347 11.6293L22.7449 11.6337C22.7362 11.6299 22.7273 11.6262 22.7184 11.6226L22.7347 11.6293C22.7269 11.626 22.7191 11.6228 22.7111 11.6197L22.7184 11.6226C22.7137 11.6207 22.7089 11.6188 22.7042 11.617L22.7111 11.6197C22.6963 11.6138 22.6812 11.6082 22.6658 11.6028C22.6632 11.6019 22.6606 11.601 22.6579 11.6001L22.6658 11.6028C22.6565 11.5995 22.6471 11.5964 22.6376 11.5933C22.6084 11.5839 22.5779 11.5753 22.5457 11.5674C22.5413 11.5664 22.5368 11.5653 22.5324 11.5643L22.5457 11.5674C22.536 11.5651 22.5262 11.5628 22.5162 11.5606L22.5324 11.5643C22.5237 11.5623 22.5149 11.5603 22.506 11.5584L22.5162 11.5606C22.5072 11.5586 22.498 11.5567 22.4886 11.5548L22.506 11.5584C22.4978 11.5566 22.4895 11.5549 22.4811 11.5533L22.4886 11.5548C22.4616 11.5493 22.4333 11.5443 22.4035 11.5397C22.398 11.5388 22.3924 11.538 22.3867 11.5372L22.4035 11.5397C22.3942 11.5383 22.3847 11.5369 22.3751 11.5355L22.3867 11.5372C22.3607 11.5334 22.3336 11.5299 22.3051 11.5268C22.2955 11.5257 22.2856 11.5247 22.2756 11.5237C22.2617 11.5223 22.2476 11.5209 22.2331 11.5197C22.2153 11.5181 22.1969 11.5167 22.1781 11.5153C22.1724 11.5149 22.1667 11.5145 22.161 11.5141L22.1781 11.5153C22.1644 11.5143 22.1504 11.5134 22.1361 11.5125L22.161 11.5141C22.1481 11.5132 22.1351 11.5124 22.1217 11.5116L22.1361 11.5125C22.1241 11.5117 22.1118 11.511 22.0993 11.5104L22.1217 11.5116C22.0908 11.5098 22.0587 11.5082 22.0251 11.5068C22.0238 11.5068 22.0224 11.5067 22.021 11.5067L22.0251 11.5068C22.0121 11.5063 21.9989 11.5058 21.9855 11.5053L22.021 11.5067C21.9721 11.5047 21.9202 11.5032 21.8649 11.5021C21.8404 11.5016 21.8152 11.5012 21.7894 11.5009L21.6836 11.5001ZM13 17.9773C13.4142 17.9773 13.75 18.3131 13.75 18.7273C13.75 19.1314 13.4304 19.4608 13.0302 19.4767L13 19.4773H10.5455C10.1312 19.4773 9.79545 19.1415 9.79545 18.7273C9.79545 18.3232 10.1151 17.9937 10.5153 17.9779L10.5455 17.9773H13ZM20.5682 17.9773C20.9824 17.9773 21.3182 18.3131 21.3182 18.7273C21.3182 19.1314 20.9986 19.4608 20.5983 19.4767L20.5682 19.4773H18.7955C18.3812 19.4773 18.0455 19.1415 18.0455 18.7273C18.0455 18.3232 18.3651 17.9937 18.7653 17.9779L18.7955 17.9773H20.5682ZM13 15.5227C13.4142 15.5227 13.75 15.8585 13.75 16.2727C13.75 16.6768 13.4304 17.0063 13.0302 17.0221L13 17.0227H10.5455C10.1312 17.0227 9.79545 16.6869 9.79545 16.2727C9.79545 15.8686 10.1151 15.5392 10.5153 15.5233L10.5455 15.5227H13ZM21.25 15.5227C21.6642 15.5227 22 15.8585 22 16.2727C22 16.6768 21.6804 17.0063 21.2802 17.0221L21.25 17.0227H18.7955C18.3812 17.0227 18.0455 16.6869 18.0455 16.2727C18.0455 15.8686 18.3651 15.5392 18.7653 15.5233L18.7955 15.5227H21.25ZM13 13.0682C13.4142 13.0682 13.75 13.404 13.75 13.8182C13.75 14.2223 13.4304 14.5518 13.0302 14.5676L13 14.5682H10.5455C10.1312 14.5682 9.79545 14.2324 9.79545 13.8182C9.79545 13.4141 10.1151 13.0846 10.5153 13.0688L10.5455 13.0682H13ZM21.25 13.0682C21.6642 13.0682 22 13.404 22 13.8182C22 14.2223 21.6804 14.5518 21.2802 14.5676L21.25 14.5682H18.7955C18.3812 14.5682 18.0455 14.2324 18.0455 13.8182C18.0455 13.4141 18.3651 13.0846 18.7653 13.0688L18.7955 13.0682H21.25Z" fill="#537CFF"/>
</svg>
