<svg width="40" height="40" viewBox="0 0 40 40" fill="none" xmlns="http://www.w3.org/2000/svg">
    <path fill-rule="evenodd" clip-rule="evenodd" d="M16.4423 0H23.3463C28.8835 0 31.0805 0.613717 33.2353 1.76615C35.3902 2.91858 37.0814 4.60973 38.2338 6.76459L38.3214 6.93049C39.4029 9.00663 39.9846 11.1999 40 16.4422V23.3461C40 28.8832 39.3863 31.0802 38.2338 33.235C37.0814 35.3899 35.3902 37.081 33.2353 38.2335L33.0694 38.321C30.9933 39.4025 28.8 39.9842 23.5577 39.9996H16.6537C11.1165 39.9996 8.91954 39.3859 6.76466 38.2335C4.60977 37.081 2.91861 35.3899 1.76617 33.235L1.67858 33.0691C0.597074 30.993 0.0154219 28.7998 0 23.5574V16.6535C0 11.1164 0.613723 8.91945 1.76617 6.76459C2.91861 4.60973 4.60977 2.91858 6.76466 1.76615L6.93056 1.67856C9.00672 0.597068 11.2 0.0154217 16.4423 0Z" fill="#0218A7"/>
    <path d="M20.1655 8.92554C29.294 8.92554 36.6942 16.3257 36.6942 25.4543H3.63672C3.63672 16.417 10.8896 9.07371 19.8921 8.92775L20.1655 8.92554Z" fill="#0149FF"/>
    <path d="M31.6463 13.5636C34.7586 16.5693 36.6941 20.7858 36.6941 25.4543H20.1655L31.6463 13.5636Z" fill="#FF458B"/>
    <path d="M10.8144 24.4289V25.4543H6.54443V24.4289H10.8144ZM33.7864 24.4289V25.4543H29.5164V24.4289H33.7864ZM11.0582 15.0167L14.0742 18.0328L13.0346 19.0724L10.0185 16.0563L11.0582 15.0167ZM20.9 11.5426V15.8125H19.4308V11.5426H20.9Z" fill="white"/>
    <path d="M20.1653 22.8066C21.6276 22.8066 22.813 23.992 22.813 25.4543H17.5176C17.5176 23.992 18.703 22.8066 20.1653 22.8066Z" fill="#FFC600"/>
    <path d="M29.2704 14.9165L19.5044 24.7799H21.755L30.4069 16.0418L29.2704 14.9165Z" fill="#FFC600"/>
</svg>
