<svg width="25" height="24" viewBox="0 0 25 24" fill="none" xmlns="http://www.w3.org/2000/svg">
<path d="M11.6275 16.4385L11.5989 16.4109L6.51469 11.3268C6.1286 10.9407 6.1286 10.3147 6.51469 9.92861C6.89136 9.55194 7.49635 9.54276 7.88416 9.90105L7.91283 9.92861L11.3423 13.3582V2.18835C11.3423 1.64234 11.785 1.19971 12.331 1.19971C12.8637 1.19971 13.298 1.62101 13.3188 2.14858L13.3196 2.18835V13.2924L16.683 9.92861C17.0597 9.55194 17.6647 9.54276 18.0525 9.90105L18.0812 9.92861C18.4579 10.3053 18.467 10.9103 18.1087 11.2981L18.0812 11.3268L12.997 16.4109C12.6203 16.7876 12.0153 16.7968 11.6275 16.4385ZM23.3012 20.8529C23.3012 21.399 22.8585 21.8416 22.3125 21.8416H2.71949C2.17348 21.8416 1.73085 21.399 1.73085 20.8529C1.73085 20.3069 2.17348 19.8643 2.71949 19.8643H22.3125C22.8585 19.8643 23.3012 20.3069 23.3012 20.8529ZM2.68981 21.7665C2.1438 21.7665 1.70117 21.3239 1.70117 20.7779V16.8233C1.70117 16.2773 2.1438 15.8347 2.68981 15.8347C3.23582 15.8347 3.67845 16.2773 3.67845 16.8233V20.7779C3.67845 21.3239 3.23582 21.7665 2.68981 21.7665ZM22.2829 21.7665C21.7368 21.7665 21.2942 21.3239 21.2942 20.7779V16.8233C21.2942 16.2773 21.7368 15.8347 22.2829 15.8347C22.8289 15.8347 23.2715 16.2773 23.2715 16.8233V20.7779C23.2715 21.3239 22.8289 21.7665 22.2829 21.7665Z" fill="white"/>
</svg>
