<svg width="18" height="18" viewBox="0 0 18 18" fill="none" xmlns="http://www.w3.org/2000/svg">
<path fill-rule="evenodd" clip-rule="evenodd" d="M16.8429 1.15699C17.1857 1.49977 17.1857 2.05553 16.8429 2.39831L10.2412 8.99979L16.7865 15.5451C17.1293 15.8878 17.1293 16.4436 16.7865 16.7864C16.4437 17.1292 15.888 17.1292 15.5452 16.7864L8.99991 10.2411L2.39844 16.8428C2.05565 17.1856 1.49989 17.1856 1.15711 16.8428C0.814329 16.5 0.814329 15.9443 1.15711 15.6015L7.7587 8.99968L1.21353 2.45474C0.870753 2.11195 0.870753 1.5562 1.21353 1.21341C1.55632 0.870631 2.11208 0.870631 2.45486 1.21341L9.00002 7.75835L15.6016 1.15699C15.9444 0.814207 16.5002 0.814207 16.8429 1.15699Z" fill="white"/>
</svg>
