<svg width="40" height="40" viewBox="0 0 40 40" fill="none" xmlns="http://www.w3.org/2000/svg">
    <path fill-rule="evenodd" clip-rule="evenodd" d="M16.4423 0H23.3463C28.8835 0 31.0805 0.613722 33.2353 1.76616C35.3902 2.9186 37.0814 4.60976 38.2338 6.76464L38.3214 6.93054C39.4029 9.0067 39.9846 11.1999 40 16.4423V23.3463C40 28.8834 39.3863 31.0804 38.2338 33.2353C37.0814 35.3901 35.3902 37.0813 33.2353 38.2337L33.0694 38.3213C30.9933 39.4028 28.8 39.9845 23.5577 39.9999H16.6537C11.1165 39.9999 8.91954 39.3862 6.76466 38.2337C4.60977 37.0813 2.91861 35.3901 1.76617 33.2353L1.67858 33.0694C0.597074 30.9932 0.0154219 28.8 0 23.5576V16.6536C0 11.1165 0.613723 8.91952 1.76617 6.76464C2.91861 4.60976 4.60977 2.9186 6.76466 1.76616L6.93055 1.67858C9.00672 0.597072 11.2 0.0154218 16.4423 0Z" fill="#0218A7"/>
    <path fill-rule="evenodd" clip-rule="evenodd" d="M15.0143 30.6406C21.1472 30.6406 26.401 34.3892 28.591 39.7111C27.2939 39.8942 25.7013 39.9917 23.6294 39.9999L16.6537 40.0001C11.1165 40.0001 8.91953 39.3864 6.76464 38.2339C5.61182 37.6174 4.59172 36.8467 3.71582 35.9332C6.40599 32.7 10.4687 30.6406 15.0143 30.6406Z" fill="#FFC600"/>
    <path d="M15.0413 28.0748C18.9762 28.0748 22.1661 24.8983 22.1661 20.9798C22.1661 17.0613 18.9762 13.8848 15.0413 13.8848C11.1064 13.8848 7.9165 17.0613 7.9165 20.9798C7.9165 24.8983 11.1064 28.0748 15.0413 28.0748Z" fill="#FF458B"/>
    <path d="M24.9585 28.0748C28.8935 28.0748 32.0833 24.8983 32.0833 20.9798C32.0833 17.0613 28.8935 13.8848 24.9585 13.8848C21.0236 13.8848 17.8337 17.0613 17.8337 20.9798C17.8337 24.8983 21.0236 28.0748 24.9585 28.0748Z" fill="#FFC600"/>
    <path fill-rule="evenodd" clip-rule="evenodd" d="M24.9317 30.6406C29.4915 30.6406 33.5653 32.7128 36.2553 35.9631C35.386 36.8635 34.3757 37.6241 33.2354 38.2339L33.0695 38.3215C31.0028 39.3981 28.8201 39.9794 23.6292 39.9999L16.6537 40.0001C14.4152 40.0001 12.7225 39.8998 11.3579 39.7042C13.5498 34.3858 18.8016 30.6406 24.9317 30.6406Z" fill="#FF458B"/>
</svg>
