<svg width="41" height="41" viewBox="0 0 41 41" fill="none" xmlns="http://www.w3.org/2000/svg">
<g clip-path="url(#clip0_4964_1141)">
<path fill-rule="evenodd" clip-rule="evenodd" d="M17.2224 0.861694H24.1503C29.7066 0.861694 31.9111 1.47754 34.0734 2.63397C36.2358 3.7904 37.9328 5.48741 39.0892 7.64974L39.1771 7.81621C40.2623 9.89955 40.846 12.1004 40.8615 17.3609V24.2888C40.8615 29.8451 40.2456 32.0496 39.0892 34.212C37.9328 36.3743 36.2358 38.0713 34.0734 39.2277L33.907 39.3156C31.8236 40.4009 29.6228 40.9845 24.3623 41H17.4345C11.8782 41 9.67362 40.3842 7.5113 39.2277C5.34897 38.0713 3.65196 36.3743 2.49554 34.212L2.40765 34.0455C1.3224 31.9621 0.738742 29.7613 0.723267 24.5008V17.5729C0.723267 12.0166 1.33911 9.81207 2.49554 7.64974C3.65196 5.48741 5.34897 3.7904 7.5113 2.63397L7.67777 2.54608C9.7611 1.46083 11.9619 0.87717 17.2224 0.861694Z" fill="#00E366"/>
<path d="M9.88509 9.93787C9.17388 9.93787 8.49181 10.2204 7.98891 10.7233C7.48602 11.2262 7.20349 11.9083 7.20349 12.6195V17.9826C7.91469 17.9826 8.59677 18.2652 9.09966 18.7681C9.60256 19.271 9.88509 19.953 9.88509 20.6642C9.88509 21.3754 9.60256 22.0575 9.09966 22.5604C8.59677 23.0633 7.91469 23.3458 7.20349 23.3458V28.709C7.20349 29.4202 7.48602 30.1023 7.98891 30.6052C8.49181 31.1081 9.17388 31.3906 9.88509 31.3906H31.3378C32.049 31.3906 32.7311 31.1081 33.234 30.6052C33.7369 30.1023 34.0194 29.4202 34.0194 28.709V23.3458C33.3082 23.3458 32.6262 23.0633 32.1233 22.5604C31.6204 22.0575 31.3378 21.3754 31.3378 20.6642C31.3378 19.953 31.6204 19.271 32.1233 18.7681C32.6262 18.2652 33.3082 17.9826 34.0194 17.9826V12.6195C34.0194 11.9083 33.7369 11.2262 33.234 10.7233C32.7311 10.2204 32.049 9.93787 31.3378 9.93787H9.88509ZM25.3043 13.9603L27.3154 15.9715L15.9187 27.3682L13.9075 25.357L25.3043 13.9603ZM16.3343 14.0139C17.6483 14.0139 18.7075 15.0731 18.7075 16.3871C18.7075 17.0165 18.4575 17.6201 18.0124 18.0652C17.5674 18.5103 16.9637 18.7603 16.3343 18.7603C15.0203 18.7603 13.9611 17.7011 13.9611 16.3871C13.9611 15.7577 14.2111 15.1541 14.6562 14.709C15.1013 14.2639 15.7049 14.0139 16.3343 14.0139ZM24.8886 22.5682C26.2026 22.5682 27.2618 23.6274 27.2618 24.9414C27.2618 25.5708 27.0118 26.1744 26.5667 26.6195C26.1217 27.0646 25.518 27.3146 24.8886 27.3146C23.5746 27.3146 22.5154 26.2554 22.5154 24.9414C22.5154 24.312 22.7654 23.7083 23.2105 23.2633C23.6556 22.8182 24.2592 22.5682 24.8886 22.5682Z" fill="white"/>
</g>
<defs>
<clipPath id="clip0_4964_1141">
<rect width="40.1382" height="40.1383" fill="white" transform="translate(0.723267 0.861694)"/>
</clipPath>
</defs>
</svg>