<svg width="40" height="40" viewBox="0 0 40 40" fill="none" xmlns="http://www.w3.org/2000/svg">
<path fill-rule="evenodd" clip-rule="evenodd" d="M16.4423 0H23.3463C28.8835 0 31.0805 0.613723 33.2353 1.76617C35.3902 2.91861 37.0814 4.60977 38.2338 6.76466L38.3214 6.93056C39.4029 9.00672 39.9846 11.2 40 16.4423V23.3463C40 28.8835 39.3863 31.0805 38.2338 33.2353C37.0814 35.3902 35.3902 37.0814 33.2353 38.2338L33.0694 38.3214C30.9933 39.4029 28.8 39.9846 23.5577 40H16.6537C11.1165 40 8.91954 39.3863 6.76466 38.2338C4.60977 37.0814 2.91861 35.3902 1.76617 33.2353L1.67858 33.0694C0.597074 30.9933 0.0154219 28.8 0 23.5577V16.6537C0 11.1165 0.613723 8.91954 1.76617 6.76466C2.91861 4.60977 4.60977 2.91861 6.76466 1.76617L6.93055 1.67858C9.00672 0.597074 11.2 0.0154219 16.4423 0Z" fill="#0218A7"/>
<path fill-rule="evenodd" clip-rule="evenodd" d="M31.2125 30.6406C33.8621 30.6406 36.3477 31.3403 38.493 32.5643C38.3859 32.791 38.2729 33.0134 38.1542 33.2354C37.0017 35.3903 35.3106 37.0815 33.1557 38.2339L32.9898 38.3215C30.9231 39.3981 28.7404 39.9794 23.5498 39.9999L17.5205 40.0001C19.637 34.5254 24.9692 30.6406 31.2125 30.6406Z" fill="#00E366"/>
<path d="M31.2401 28.0743C34.4485 28.0743 37.0495 25.4841 37.0495 22.2891C37.0495 19.094 34.4485 16.5039 31.2401 16.5039C28.0316 16.5039 25.4307 19.094 25.4307 22.2891C25.4307 25.4841 28.0316 28.0743 31.2401 28.0743Z" fill="#0149FF"/>
<path fill-rule="evenodd" clip-rule="evenodd" d="M8.6541 30.6406C14.8974 30.6406 20.2296 34.5254 22.3461 40L16.5744 40.0001C11.0373 40.0001 8.8403 39.3863 6.68542 38.2339C4.53054 37.0814 2.83938 35.3903 1.68693 33.2354L1.59935 33.0695C1.5143 32.9062 1.43235 32.7422 1.35352 32.5761C3.50327 31.3447 5.99611 30.6406 8.6541 30.6406Z" fill="#0149FF"/>
<path d="M8.68049 28.0743C11.8889 28.0743 14.4899 25.4841 14.4899 22.2891C14.4899 19.094 11.8889 16.5039 8.68049 16.5039C5.47205 16.5039 2.87109 19.094 2.87109 22.2891C2.87109 25.4841 5.47205 28.0743 8.68049 28.0743Z" fill="#FF458B"/>
<path d="M20.0174 28.075C23.9523 28.075 27.1422 24.8984 27.1422 20.9799C27.1422 17.0614 23.9523 13.8848 20.0174 13.8848C16.0825 13.8848 12.8926 17.0614 12.8926 20.9799C12.8926 24.8984 16.0825 28.075 20.0174 28.075Z" fill="#FFC600"/>
<path fill-rule="evenodd" clip-rule="evenodd" d="M19.9725 30.6406C25.5731 30.6406 30.4404 33.7667 32.9111 38.3622L32.9895 38.3215C30.9229 39.398 28.7402 39.9793 23.5495 39.9998L16.5737 40.0001C11.316 40.0001 9.06986 39.4467 7.01172 38.4042C9.47493 33.7858 14.3549 30.6406 19.9725 30.6406Z" fill="#FFC600"/>
</svg>
