<svg width="65" height="65" viewBox="0 0 65 65" fill="none" xmlns="http://www.w3.org/2000/svg">
    <path fill-rule="evenodd" clip-rule="evenodd" d="M26.6619 0H37.857C46.8357 0 50.3981 0.995174 53.8924 2.8639C57.3866 4.73263 60.1289 7.47492 61.9976 10.9691L62.1396 11.2381C63.8933 14.6047 64.8365 18.1612 64.8615 26.6618V37.8569C64.8615 46.8356 63.8663 50.3981 61.9976 53.8923C60.1289 57.3865 57.3866 60.1288 53.8924 61.9975L53.6234 62.1396C50.2568 63.8933 46.7003 64.8364 38.1996 64.8614H27.0045C18.0258 64.8614 14.4634 63.8663 10.9691 61.9975C7.47492 60.1288 4.73264 57.3865 2.86391 53.8923L2.72188 53.6233C0.968178 50.2567 0.0250071 46.7003 0 38.1996V27.0045C0 18.0258 0.995175 14.4634 2.86391 10.9691C4.73264 7.47492 7.47492 4.73263 10.9691 2.8639L11.2382 2.72188C14.6047 0.968177 18.1612 0.0250071 26.6619 0Z" fill="#D8DEE3"/>
    <path d="M56.2849 32.1627C56.2849 19.1365 45.7251 8.57667 32.6989 8.57667C19.6726 8.57667 9.11279 19.1365 9.11279 32.1627C9.11279 45.1889 19.6726 55.7488 32.6989 55.7488C45.7251 55.7488 56.2849 45.1889 56.2849 32.1627Z" fill="#FF8A00"/>
    <path fill-rule="evenodd" clip-rule="evenodd" d="M50 32C50 22.6112 42.165 15 32.5 15C27.4021 15 34.7554 28.5751 31.557 31.9541C28.6915 34.9813 15 27.5634 15 32C15 41.3888 22.835 49 32.5 49C42.165 49 50 41.3888 50 32Z" fill="white"/>
    <path fill-rule="evenodd" clip-rule="evenodd" d="M12.7014 28.1818C13.0795 26.7708 14.53 25.9334 15.9411 26.3115L33.081 30.9041C34.4921 31.2822 35.3295 32.7326 34.9514 34.1437C34.5733 35.5548 33.1229 36.3922 31.7118 36.0141L14.5719 31.4214C13.1608 31.0433 12.3234 29.5929 12.7014 28.1818Z" fill="#091C45"/>
    <path fill-rule="evenodd" clip-rule="evenodd" d="M32.6436 11.8281C34.1045 11.8281 35.2888 13.0124 35.2888 14.4733L35.2888 32.2179C35.2888 33.6788 34.1045 34.8631 32.6436 34.8631C31.1827 34.8631 29.9984 33.6788 29.9984 32.2179L29.9984 14.4733C29.9984 13.0124 31.1827 11.8281 32.6436 11.8281Z" fill="#091C45"/>
</svg>
