<svg width="24" height="24" viewBox="0 0 24 24" fill="none" xmlns="http://www.w3.org/2000/svg">
<path d="M12.0007 16C12.5312 16 13.0399 16.2107 13.4149 16.5858C13.79 16.9609 14.0007 17.4696 14.0007 18C14.0007 18.5304 13.79 19.0391 13.4149 19.4142C13.0399 19.7893 12.5312 20 12.0007 20C11.4703 20 10.9616 19.7893 10.5865 19.4142C10.2114 19.0391 10.0007 18.5304 10.0007 18C10.0007 17.4696 10.2114 16.9609 10.5865 16.5858C10.9616 16.2107 11.4703 16 12.0007 16ZM12.0007 10C12.5312 10 13.0399 10.2107 13.4149 10.5858C13.79 10.9609 14.0007 11.4696 14.0007 12C14.0007 12.5304 13.79 13.0391 13.4149 13.4142C13.0399 13.7893 12.5312 14 12.0007 14C11.4703 14 10.9616 13.7893 10.5865 13.4142C10.2114 13.0391 10.0007 12.5304 10.0007 12C10.0007 11.4696 10.2114 10.9609 10.5865 10.5858C10.9616 10.2107 11.4703 10 12.0007 10ZM12.0007 4C12.5312 4 13.0399 4.21071 13.4149 4.58579C13.79 4.96086 14.0007 5.46957 14.0007 6C14.0007 6.53043 13.79 7.03914 13.4149 7.41421C13.0399 7.78929 12.5312 8 12.0007 8C11.4703 8 10.9616 7.78929 10.5865 7.41421C10.2114 7.03914 10.0007 6.53043 10.0007 6C10.0007 5.46957 10.2114 4.96086 10.5865 4.58579C10.9616 4.21071 11.4703 4 12.0007 4Z" fill="white"/>
</svg>
