<svg width="18" height="18" viewBox="0 0 18 18" fill="none" xmlns="http://www.w3.org/2000/svg">
<path d="M16.3549 7.54666C17.762 8.95376 17.7749 11.227 16.3778 12.624C15.8118 13.1901 15.1018 13.5247 14.3639 13.6289L14.1106 15.0638C14.092 16.1897 11.7878 17.1 8.94814 17.1C6.12547 17.1 3.83191 16.2006 3.78632 15.0841L3.78589 15.0638L1.84471 4.06597C1.82286 3.98819 1.80888 3.90946 1.8031 3.82992L1.80005 3.81221L1.80195 3.81231C1.80068 3.79028 1.80005 3.76818 1.80005 3.74602C1.80005 2.17422 5.00036 0.900024 8.94814 0.900024C12.8959 0.900024 16.0962 2.17422 16.0962 3.74602C16.0962 3.76818 16.0956 3.79028 16.0943 3.81231L16.0962 3.81221L16.0931 3.83111C16.0873 3.90975 16.0735 3.98759 16.052 4.06451L15.5749 6.76662L16.3549 7.54666ZM14.2962 5.63437C12.9868 6.22183 11.076 6.59202 8.94814 6.59202C6.82032 6.59202 4.90965 6.22185 3.6002 5.63443L5.00729 13.6077L5.23735 14.8286L5.25867 14.8452C5.37899 14.9354 5.56521 15.0371 5.80702 15.1351L5.85612 15.1546C6.63558 15.4594 7.74625 15.6439 8.94814 15.6439C10.157 15.6439 11.2733 15.4573 12.0528 15.1497C12.3338 15.0388 12.5432 14.9223 12.6661 14.8231L12.6761 14.8148L12.902 13.5348C12.3339 13.3787 11.7956 13.0812 11.3429 12.6429L11.3005 12.6011L8.37494 9.67559C8.09062 9.39127 8.09062 8.93029 8.37494 8.64597C8.65232 8.36859 9.09785 8.36182 9.38344 8.62568L9.40455 8.64597L12.3301 11.5715C12.5718 11.8132 12.8556 11.9861 13.157 12.0901L14.2962 5.63437ZM15.2661 8.51698L14.6409 12.0597C14.899 11.9575 15.1403 11.8024 15.3482 11.5944C16.1642 10.7784 16.1664 9.44942 15.355 8.60652L15.3253 8.57627L15.2661 8.51698ZM8.94814 2.35612C7.20131 2.35612 5.58131 2.62893 4.43229 3.08641C3.93857 3.28298 3.57123 3.49947 3.35982 3.69848C3.34635 3.71116 3.33405 3.72325 3.32289 3.73469L3.31227 3.74589L3.33148 3.76606L3.35982 3.79357C3.57123 3.99258 3.93857 4.20906 4.43229 4.40564C5.58131 4.86312 7.20131 5.13593 8.94814 5.13593C10.695 5.13593 12.315 4.86312 13.464 4.40564C13.9577 4.20906 14.325 3.99258 14.5365 3.79357C14.5499 3.78089 14.5622 3.7688 14.5734 3.75735L14.5841 3.74589L14.5648 3.72599L14.5365 3.69848C14.325 3.49947 13.9577 3.28298 13.464 3.08641C12.315 2.62893 10.695 2.35612 8.94814 2.35612Z" fill="#56606D"/>
</svg>
