<svg width="40" height="40" viewBox="0 0 40 40" fill="none" xmlns="http://www.w3.org/2000/svg">
    <path fill-rule="evenodd" clip-rule="evenodd" d="M16.4423 0H23.3462C28.8834 0 31.0803 0.613723 33.2352 1.76617C35.39 2.91861 37.0812 4.60977 38.2336 6.76466L38.3212 6.93055C39.4027 9.00672 39.9844 11.2 39.9998 16.4423V23.3463C39.9998 28.8835 39.3861 31.0805 38.2336 33.2353C37.0812 35.3902 35.39 37.0814 33.2352 38.2338L33.0693 38.3214C30.9931 39.4029 28.7999 39.9846 23.5575 40H16.6536C11.1164 40 8.91949 39.3863 6.76462 38.2338C4.60975 37.0814 2.9186 35.3902 1.76616 33.2353L1.67857 33.0694C0.597071 30.9933 0.0154218 28.8 0 23.5577V16.6537C0 11.1165 0.61372 8.91954 1.76616 6.76466C2.9186 4.60977 4.60975 2.91861 6.76462 1.76617L6.93052 1.67858C9.00667 0.597074 11.1999 0.0154219 16.4423 0Z" fill="#0218A7"/>
    <path d="M20.165 24.4628C24.3642 24.4628 27.7683 21.0587 27.7683 16.8595C27.7683 12.6604 24.3642 9.25635 20.165 9.25635C15.9659 9.25635 12.5618 12.6604 12.5618 16.8595C12.5618 21.0587 15.9659 24.4628 20.165 24.4628Z" fill="#FFC600"/>
    <path fill-rule="evenodd" clip-rule="evenodd" d="M19.9998 7.27271C25.5682 7.27271 30.0824 11.7128 30.0824 17.1899C30.0824 22.667 25.5682 27.107 19.9998 27.107C14.7669 27.107 10.4651 23.186 9.96558 18.1681C10.0421 16.4121 10.2088 15.0761 10.4611 13.9688C11.8204 10.0728 15.5776 7.27271 19.9998 7.27271ZM19.9998 10.2479C16.0635 10.2479 12.8923 13.367 12.8923 17.1899C12.8923 21.0127 16.0635 24.1319 19.9998 24.1319C23.936 24.1319 27.1072 21.0127 27.1072 17.1899C27.1072 13.367 23.936 10.2479 19.9998 10.2479Z" fill="#FF458B"/>
    <path d="M30.0826 17.1902H9.91748V32.3965H30.0826V17.1902Z" fill="#0149FF"/>
    <path fill-rule="evenodd" clip-rule="evenodd" d="M20.1653 21.1567C21.2608 21.1567 22.1488 21.9859 22.1488 23.0087C22.1488 23.7829 21.64 24.4462 20.9176 24.7229L20.9177 26.7766H19.413L19.413 24.7229C18.6906 24.4462 18.1819 23.7829 18.1819 23.0087C18.1819 21.9859 19.0699 21.1567 20.1653 21.1567Z" fill="#0218A7"/>
</svg>

