<svg width="32" height="32" viewBox="0 0 32 32" fill="none" xmlns="http://www.w3.org/2000/svg">
<rect width="32" height="32" rx="8" fill="#FF8A00" fill-opacity="0.1"/>
<rect x="0.5" y="0.5" width="31" height="31" rx="7.5" stroke="#FF8A00" stroke-opacity="0.2"/>
<path d="M16.9452 7C17.4186 7 17.8726 7.18807 18.2074 7.52283L22.9068 12.2221C23.2416 12.5569 23.4297 13.0109 23.4297 13.4844V22.1736C23.4297 23.7346 22.1642 25 20.6032 25H11.8264C10.2654 25 9 23.7346 9 22.1736V9.82655C9 8.26555 10.2654 7 11.8264 7H16.9452ZM16.2147 8.63635H11.8264C11.1816 8.63635 10.6565 9.14932 10.6369 9.78948L10.6364 9.82655V22.1736C10.6364 22.8184 11.1493 23.3435 11.7894 23.3631L11.8264 23.3636H20.6032C21.2481 23.3636 21.7732 22.8507 21.7927 22.2106L21.7933 22.1736V14.2148L17.033 14.2149C16.5922 14.2149 16.2327 13.8663 16.2155 13.4297L16.2148 13.3968L16.2147 8.63635ZM20.9491 12.5785L17.851 9.48056L17.8512 12.5786L20.9491 12.5785Z" fill="#FF8A00"/>
<path d="M12.4998 20.0545V19.5952L13.9435 17.6682H12.5058V17H14.9995V17.4594L13.5558 19.3864H14.9935V20.0545H12.4998Z" fill="#FF8A00"/>
<path d="M16.607 17V20.0545H15.7777V17H16.607Z" fill="#FF8A00"/>
<path d="M17.3908 20.0545V17H18.7093C18.936 17 19.1344 17.0447 19.3044 17.1342C19.4744 17.2237 19.6067 17.3495 19.7011 17.5116C19.7956 17.6737 19.8428 17.8631 19.8428 18.0798C19.8428 18.2986 19.7941 18.488 19.6967 18.6481C19.6002 18.8082 19.4645 18.9315 19.2895 19.018C19.1155 19.1045 18.9121 19.1477 18.6795 19.1477H17.892V18.5034H18.5124C18.6099 18.5034 18.6929 18.4865 18.7615 18.4527C18.8311 18.4179 18.8843 18.3687 18.9211 18.305C18.9589 18.2414 18.9778 18.1663 18.9778 18.0798C18.9778 17.9923 18.9589 17.9178 18.9211 17.8561C18.8843 17.7935 18.8311 17.7457 18.7615 17.7129C18.6929 17.6791 18.6099 17.6622 18.5124 17.6622H18.2201V20.0545H17.3908Z" fill="#FF8A00"/>
<rect x="12" y="8" width="1" height="1" fill="#FF8A00"/>
<rect x="12" y="12" width="1" height="1" fill="#FF8A00"/>
<rect x="13" y="9" width="1" height="1" fill="#FFA800"/>
<rect x="13" y="11" width="1" height="1" fill="#FFA800"/>
<rect x="13" y="13" width="1" height="1" fill="#FFA800"/>
<rect x="13" y="15" width="1" height="1" fill="#FFA800"/>
<rect x="12" y="10" width="1" height="1" fill="#FF8A00"/>
<rect x="12" y="14" width="1" height="1" fill="#FF8A00"/>
</svg>
