<svg width="18" height="18" viewBox="0 0 18 18" fill="none" xmlns="http://www.w3.org/2000/svg">
<path d="M7.09273 1.83862C7.2626 1.8704 7.41357 1.92317 7.56625 2.00414L7.61471 2.03057C7.74847 2.1058 7.88213 2.20149 8.19133 2.45447L10.3217 4.19751H13.4957C14.749 4.19751 15.2035 4.328 15.6617 4.57304C16.1198 4.81808 16.4794 5.17766 16.7245 5.63584L16.7507 5.68585C16.9788 6.12813 17.1 6.59407 17.1 7.80178V12.4918C17.1 13.9838 16.9446 14.5249 16.6529 15.0703C16.3612 15.6158 15.9331 16.0439 15.3877 16.3356L15.3331 16.3643L15.2793 16.3916C14.7756 16.6427 14.2223 16.7778 12.8818 16.7826H5.19079C3.69879 16.7826 3.15775 16.6273 2.6123 16.3356C2.06684 16.0439 1.63877 15.6158 1.34705 15.0703L1.31834 15.0158C1.04987 14.4969 0.905038 13.9532 0.899994 12.5656V4.91008C0.899994 4.15367 1.02189 3.65256 1.25157 3.21837C1.48126 2.78417 1.81872 2.44223 2.24985 2.20684C2.68097 1.97145 3.18043 1.84295 3.93678 1.83297L6.41469 1.80048L6.54096 1.79999C6.82689 1.80039 6.95392 1.81266 7.09273 1.83862ZM7.97397 7.07938C7.67373 7.30642 7.31046 7.43381 6.93504 7.44445L6.88378 7.44518H3.41896C3.04556 7.44518 2.6912 7.36369 2.37269 7.21752V12.5604L2.37419 12.7415L2.37599 12.8618C2.39189 13.7187 2.46698 14.0416 2.64573 14.3758C2.80018 14.6646 3.01803 14.8824 3.30683 15.0369L3.34877 15.0588L3.39368 15.081C3.71695 15.2357 4.07688 15.2995 4.95026 15.3087L5.19079 15.3099L12.9325 15.3096C13.9745 15.3045 14.3298 15.2312 14.6932 15.0369C14.982 14.8824 15.1998 14.6646 15.3543 14.3758L15.3762 14.3339L15.3983 14.2889C15.5531 13.9657 15.6168 13.6057 15.6261 12.7324L15.6273 12.4918V7.80178C15.6273 6.88146 15.5746 6.60856 15.4258 6.33038C15.318 6.12885 15.1687 5.97949 14.9671 5.87171L14.9323 5.85361C14.6709 5.72157 14.3902 5.67238 13.5524 5.6703L9.83731 5.67017L7.97397 7.07938ZM6.47489 3.27269L6.34265 3.27408L3.95621 3.30557L3.84915 3.30796C3.41773 3.32185 3.16585 3.38465 2.95559 3.49945C2.77811 3.59635 2.64794 3.72825 2.55338 3.907C2.4389 4.12343 2.3793 4.38262 2.37324 4.83186C2.37668 4.85579 2.37883 4.87987 2.37979 4.90425L2.38037 4.93387C2.38037 5.49643 2.82765 5.95453 3.38599 5.97194L3.41896 5.97245H6.88378C6.94754 5.97245 7.00978 5.95424 7.06329 5.92024L7.08566 5.90471L8.64293 4.72696L7.17963 3.52982C7.00245 3.38612 6.93952 3.34067 6.88962 3.31253L6.87625 3.30522C6.8551 3.29401 6.84547 3.29064 6.82193 3.28624L6.79088 3.28128L6.76967 3.27886C6.71675 3.27363 6.63713 3.27155 6.47489 3.27269Z" fill="#56606D"/>
</svg>
