<svg width="42" height="42" viewBox="0 0 42 42" fill="none" xmlns="http://www.w3.org/2000/svg">
<g clip-path="url(#clip0_809_1011)">
<path fill-rule="evenodd" clip-rule="evenodd" d="M17.2645 0H24.5137C30.3277 0 32.6345 0.644409 34.8971 1.85448C37.1597 3.06454 38.9355 4.84026 40.1455 7.10289L40.2375 7.27708C41.3731 9.45705 41.9838 11.76 42 17.2645V24.5137C42 30.3277 41.3556 32.6345 40.1455 34.8971C38.9355 37.1597 37.1597 38.9355 34.8971 40.1455L34.7229 40.2375C32.5429 41.3731 30.24 41.9838 24.7355 42H17.4863C11.6723 42 9.36552 41.3556 7.10289 40.1455C4.84026 38.9355 3.06454 37.1597 1.85448 34.8971L1.76251 34.7229C0.626927 32.5429 0.0161929 30.24 0 24.7355V17.4863C0 11.6723 0.644409 9.36552 1.85448 7.10289C3.06454 4.84026 4.84026 3.06454 7.10289 1.85448L7.27708 1.76251C9.45705 0.626927 11.76 0.0161929 17.2645 0Z" fill="#0218A7"/>
<path d="M21.1736 36.0992C29.6085 36.0992 36.4463 29.2613 36.4463 20.8264C36.4463 12.3915 29.6085 5.55371 21.1736 5.55371C12.7387 5.55371 5.90088 12.3915 5.90088 20.8264C5.90088 29.2613 12.7387 36.0992 21.1736 36.0992Z" fill="#0149FF"/>
<path fill-rule="evenodd" clip-rule="evenodd" d="M34.4031 28.4628C35.7026 26.2164 36.4463 23.6082 36.4463 20.8264C36.4463 18.0446 35.7026 15.4365 34.4031 13.1901H28.81C26.7012 13.1901 24.9918 14.8995 24.9918 17.0082C24.9918 19.117 26.7012 20.8264 28.81 20.8264H32.6282C30.5194 20.8264 28.81 22.5358 28.81 24.6446C28.81 26.7534 30.5194 28.4628 32.6282 28.4628H34.4031ZM6.11202 23.3719C6.59954 26.2776 7.90754 28.9053 9.78975 31.0082H14.81C16.9187 31.0082 18.6282 29.2988 18.6282 27.1901C18.6282 25.0813 16.9187 23.3719 14.81 23.3719H6.11202ZM5.90088 20.8264H10.9918C13.1005 20.8264 14.81 19.117 14.81 17.0082C14.81 14.8995 13.1005 13.1901 10.9918 13.1901H7.94413C6.64468 15.4365 5.90088 18.0446 5.90088 20.8264Z" fill="#00E567"/>
</g>
<defs>
<clipPath id="clip0_809_1011">
<rect width="42" height="42" fill="white"/>
</clipPath>
</defs>
</svg>
