<svg width="40" height="40" viewBox="0 0 40 40" fill="none" xmlns="http://www.w3.org/2000/svg">
	<path fill-rule="evenodd" clip-rule="evenodd" d="M16.4423 0H23.3463C28.8835 0 31.0805 0.613722 33.2353 1.76616C35.3902 2.91861 37.0814 4.60977 38.2338 6.76465L38.3214 6.93055C39.4029 9.0067 39.9846 11.2 40 16.4423V23.3463C40 28.8835 39.3863 31.0804 38.2338 33.2353C37.0814 35.3902 35.3902 37.0813 33.2353 38.2338L33.0694 38.3214C30.9933 39.4029 28.8 39.9845 23.5577 39.9999H16.6537C11.1165 39.9999 8.91954 39.3862 6.76466 38.2338C4.60977 37.0813 2.91861 35.3902 1.76617 33.2353L1.67858 33.0694C0.597074 30.9932 0.0154219 28.8 0 23.5576V16.6536C0 11.1165 0.613723 8.91953 1.76617 6.76465C2.91861 4.60977 4.60977 2.91861 6.76466 1.76616L6.93055 1.67858C9.00672 0.597073 11.2 0.0154218 16.4423 0Z" fill="#D8DEE3"/>
	<path fill-rule="evenodd" clip-rule="evenodd" d="M0.111086 13.1133L6.44892 16.7727V29.5423L0.0504854 25.8484C0.0193827 25.1545 0.00246402 24.3947 0 23.5571V16.6532C0 15.2862 0.037405 14.1227 0.111086 13.1133Z" fill="#FF458B"/>
	<path fill-rule="evenodd" clip-rule="evenodd" d="M6.4491 4.09766L17.508 10.4825L6.4491 16.8672L0.104614 13.2042C0.322552 10.1004 0.877608 8.43954 1.73786 6.81787L6.4491 4.09766Z" fill="#FFA3C5"/>
	<path fill-rule="evenodd" clip-rule="evenodd" d="M40.0001 16.4419V23.3459C40.0001 24.3675 39.9792 25.2753 39.9379 26.0902L34.1838 29.4118V16.6422L39.9048 13.3389C39.9646 14.2416 39.9966 15.2649 40.0001 16.4419Z" fill="#FF458B"/>
	<path fill-rule="evenodd" clip-rule="evenodd" d="M34.2791 3.9668L37.784 5.99021C37.942 6.24119 38.092 6.49934 38.2338 6.76451L38.3214 6.93041C39.1729 8.56503 39.7145 10.2722 39.9139 13.4831L34.2791 16.7364L23.2203 10.3516L34.2791 3.9668Z" fill="#FFA3C5"/>
	<path fill-rule="evenodd" clip-rule="evenodd" d="M34.2789 16.6426L34.2789 29.4122L23.2201 23.0274L23.2201 10.2578L34.2789 16.6426Z" fill="#DC0D5B"/>
	<path fill-rule="evenodd" clip-rule="evenodd" d="M6.35376 16.7735L6.35376 29.5431L17.4126 23.1583L17.4126 10.3887L6.35376 16.7735Z" fill="#DC0D5B"/>
	<path fill-rule="evenodd" clip-rule="evenodd" d="M20.2509 12.0664L31.3097 18.4512L20.2509 24.8359L9.19202 18.4512L20.2509 12.0664Z" fill="#87A9FF"/>
	<path fill-rule="evenodd" clip-rule="evenodd" d="M20.2506 24.7412L20.2506 37.5108L9.1919 31.126L9.19189 18.3564L20.2506 24.7412Z" fill="#0218A7"/>
	<path fill-rule="evenodd" clip-rule="evenodd" d="M20.1556 24.7412L20.1556 37.5108L31.2144 31.126L31.2144 18.3564L20.1556 24.7412Z" fill="#0149FF"/>
</svg>
