<svg width="40" height="40" viewBox="0 0 40 40" fill="none" xmlns="http://www.w3.org/2000/svg">
    <path fill-rule="evenodd" clip-rule="evenodd" d="M16.4423 0H23.3463C28.8835 0 31.0805 0.613722 33.2353 1.76616C35.3902 2.91861 37.0814 4.60977 38.2338 6.76465L38.3214 6.93055C39.4029 9.0067 39.9846 11.2 40 16.4423V23.3463C40 28.8835 39.3863 31.0804 38.2338 33.2353C37.0814 35.3902 35.3902 37.0813 33.2353 38.2338L33.0694 38.3214C30.9933 39.4029 28.8 39.9845 23.5577 39.9999H16.6537C11.1165 39.9999 8.91954 39.3862 6.76466 38.2338C4.60977 37.0813 2.91861 35.3902 1.76617 33.2353L1.67858 33.0694C0.597074 30.9932 0.0154219 28.8 0 23.5576V16.6536C0 11.1165 0.613723 8.91953 1.76617 6.76465C2.91861 4.60977 4.60977 2.91861 6.76466 1.76616L6.93055 1.67858C9.00672 0.597073 11.2 0.0154218 16.4423 0Z" fill="#00AC26"/>
    <path d="M20.1653 34.3802C28.1985 34.3802 34.7108 27.8679 34.7108 19.8347C34.7108 11.8014 28.1985 5.28918 20.1653 5.28918C12.132 5.28918 5.61981 11.8014 5.61981 19.8347C5.61981 27.8679 12.132 34.3802 20.1653 34.3802Z" fill="#00AC26"/>
    <path fill-rule="evenodd" clip-rule="evenodd" d="M11.1617 17.4246C11.978 16.6083 13.3016 16.6083 14.1179 17.4246L18.2377 21.544L26.0909 13.6915C26.9073 12.8752 28.2308 12.8752 29.0471 13.6915C29.8635 14.5077 29.8635 15.8312 29.0471 16.6474L19.7158 25.9779C18.8995 26.7942 17.5759 26.7942 16.7596 25.9779L11.1617 20.3805C10.3454 19.5643 10.3454 18.2409 11.1617 17.4246Z" fill="white"/>
</svg>
