<svg width="32" height="32" viewBox="0 0 32 32" fill="none" xmlns="http://www.w3.org/2000/svg">
<rect width="32" height="32" rx="8" fill="#00AC26" fill-opacity="0.1"/>
<rect x="0.5" y="0.5" width="31" height="31" rx="7.5" stroke="#00AC26" stroke-opacity="0.2"/>
<path d="M20.0916 9C19.6844 9 19.3524 9.32205 19.3365 9.72533L19.3359 9.75573L19.3359 21.9504H18.2673L18.2672 14.2901C18.2672 13.8829 17.9451 13.5509 17.5418 13.535L17.5115 13.5344H14.5267C14.1195 13.5344 13.7875 13.8564 13.7716 14.2597L13.771 14.2901L13.771 21.9504H12.6336V18.9618C12.6336 18.5546 12.3115 18.2227 11.9083 18.2067L11.8779 18.2061H8.89312C8.48592 18.2061 8.15395 18.5282 8.13799 18.9314L8.13739 18.9618L8.13744 21.9504H7.75573C7.33835 21.9504 7 22.2887 7 22.7061C7 23.1133 7.32205 23.4453 7.72533 23.4612L7.75573 23.4618H24.2443C24.6617 23.4618 25 23.1235 25 22.7061C25 22.2989 24.678 21.9669 24.2747 21.951L24.2443 21.9504H23.8321V9.75573C23.8321 9.34853 23.51 9.01655 23.1067 9.0006L23.0763 9H20.0916ZM9.64889 21.9504V19.7176H11.1221V21.9504H9.64889ZM15.2825 15.0458H16.7557L16.7559 21.9504H15.2825V15.0458ZM20.8474 10.5115H22.3206V21.9504H20.8474V10.5115Z" fill="#00AC26"/>
</svg>
