<svg width="32" height="32" viewBox="0 0 32 32" fill="none" xmlns="http://www.w3.org/2000/svg">
<rect width="32" height="32" rx="8" fill="#FFA800" fill-opacity="0.1"/>
<rect x="0.5" y="0.5" width="31" height="31" rx="7.5" stroke="#FFA800" stroke-opacity="0.2"/>
<path d="M14.0921 8.8388C14.262 8.87058 14.413 8.92335 14.5657 9.00432L14.6141 9.03075C14.7479 9.10599 14.8815 9.20167 15.1907 9.45465L17.3211 11.1977H20.4951C21.7484 11.1977 22.2029 11.3282 22.6611 11.5732C23.1193 11.8183 23.4788 12.1778 23.7239 12.636L23.7502 12.686C23.9782 13.1283 24.0994 13.5943 24.0994 14.802V19.492C24.0994 20.984 23.9441 21.5251 23.6523 22.0705C23.3606 22.616 22.9326 23.044 22.3871 23.3358L22.3325 23.3645L22.2787 23.3918C21.775 23.6428 21.2218 23.778 19.8812 23.7828H12.1902C10.6982 23.7828 10.1572 23.6275 9.61172 23.3358C9.06626 23.044 8.63819 22.616 8.34647 22.0705L8.31776 22.0159C8.04929 21.497 7.90446 20.9534 7.89941 19.5658V11.9103C7.89941 11.1539 8.02131 10.6527 8.25099 10.2185C8.48068 9.78435 8.81814 9.44241 9.24927 9.20702C9.68039 8.97163 10.1798 8.84313 10.9362 8.83315L13.4141 8.80067L13.5404 8.80017C13.8263 8.80057 13.9533 8.81284 14.0921 8.8388ZM13.4743 10.2729L13.3421 10.2743L10.9556 10.3058L10.8486 10.3081C10.4171 10.322 10.1653 10.3848 9.95501 10.4996C9.77753 10.5965 9.64736 10.7284 9.5528 10.9072C9.43831 11.1236 9.37872 11.3828 9.37266 11.832C9.3761 11.856 9.37825 11.8801 9.37921 11.9044L9.37979 11.9341C9.37979 12.4966 9.82707 12.9547 10.3854 12.9721L10.4184 12.9726H13.8832C13.947 12.9726 14.0092 12.9544 14.0627 12.9204L14.0851 12.9049L15.6423 11.7271L14.179 10.53C14.0019 10.3863 13.9389 10.3408 13.889 10.3127L13.8757 10.3054C13.8545 10.2942 13.8449 10.2908 13.8213 10.2864L13.7903 10.2815L13.7691 10.279C13.7162 10.2738 13.6365 10.2717 13.4743 10.2729Z" fill="#FFC600" fill-opacity="0.5"/>
<path d="M14.0921 8.8388C14.262 8.87058 14.413 8.92335 14.5657 9.00432L14.6141 9.03075C14.7479 9.10599 14.8815 9.20167 15.1907 9.45465L17.3211 11.1977H20.4951C21.7484 11.1977 22.2029 11.3282 22.6611 11.5732C23.1193 11.8183 23.4788 12.1778 23.7239 12.636L23.7502 12.686C23.9782 13.1283 24.0994 13.5943 24.0994 14.802V19.492C24.0994 20.984 23.9441 21.5251 23.6523 22.0705C23.3606 22.616 22.9326 23.044 22.3871 23.3358L22.3325 23.3645L22.2787 23.3918C21.775 23.6428 21.2218 23.778 19.8812 23.7828H12.1902C10.6982 23.7828 10.1572 23.6275 9.61172 23.3358C9.06626 23.044 8.63819 22.616 8.34647 22.0705L8.31776 22.0159C8.04929 21.497 7.90446 20.9534 7.89941 19.5658V11.9103C7.89941 11.1539 8.02131 10.6527 8.25099 10.2185C8.48068 9.78435 8.81814 9.44241 9.24927 9.20702C9.68039 8.97163 10.1798 8.84313 10.9362 8.83315L13.4141 8.80067L13.5404 8.80017C13.8263 8.80057 13.9533 8.81284 14.0921 8.8388ZM14.9734 14.0796C14.6731 14.3066 14.3099 14.434 13.9345 14.4446L13.8832 14.4454H10.4184C10.045 14.4454 9.69062 14.3639 9.3721 14.2177V19.5606L9.37361 19.7417L9.37541 19.8619C9.39131 20.7189 9.4664 21.0417 9.64514 21.376C9.7996 21.6648 10.0174 21.8826 10.3063 22.0371L10.3482 22.059L10.3931 22.0812C10.7164 22.2359 11.0763 22.2997 11.9497 22.3089L12.1902 22.3101L19.9319 22.3098C20.9739 22.3046 21.3292 22.2314 21.6926 22.0371C21.9814 21.8826 22.1992 21.6648 22.3537 21.376L22.3756 21.334L22.3978 21.2891C22.5525 20.9659 22.6163 20.6059 22.6255 19.7325L22.6267 19.492V14.802C22.6267 13.8816 22.574 13.6087 22.4252 13.3306C22.3174 13.129 22.1681 12.9797 21.9665 12.8719L21.9317 12.8538C21.6703 12.7218 21.3896 12.6726 20.5518 12.6705L16.8367 12.6704L14.9734 14.0796ZM13.4743 10.2729L13.3421 10.2743L10.9556 10.3058L10.8486 10.3081C10.4171 10.322 10.1653 10.3848 9.95501 10.4996C9.77753 10.5965 9.64736 10.7284 9.5528 10.9072C9.43831 11.1236 9.37872 11.3828 9.37266 11.832C9.3761 11.856 9.37825 11.8801 9.37921 11.9044L9.37979 11.9341C9.37979 12.4966 9.82707 12.9547 10.3854 12.9721L10.4184 12.9726H13.8832C13.947 12.9726 14.0092 12.9544 14.0627 12.9204L14.0851 12.9049L15.6423 11.7271L14.179 10.53C14.0019 10.3863 13.9389 10.3408 13.889 10.3127L13.8757 10.3054C13.8545 10.2942 13.8449 10.2908 13.8213 10.2864L13.7903 10.2815L13.7691 10.279C13.7162 10.2738 13.6365 10.2717 13.4743 10.2729Z" fill="#FFA800"/>
</svg>
