<svg width="167" height="123" viewBox="0 0 167 123" fill="none" xmlns="http://www.w3.org/2000/svg">
    <mask id="path-1-inside-1" fill="white">
        <path fill-rule="evenodd" clip-rule="evenodd" d="M167 116.954C167 120.268 164.314 122.954 161 122.954L6 122.954C2.68629 122.954 9.41428e-06 120.268 9.15286e-06 116.954L1.26404e-06 16.9541C1.00262e-06 13.6404 2.68631 10.9541 6.00002 10.9541L119.304 10.9543C120.013 10.9543 120.669 10.5788 121.028 9.9674L126.304 0.987351C127.077 -0.328508 128.98 -0.328509 129.753 0.987349L135.029 9.96742C135.388 10.5788 136.044 10.9543 136.753 10.9543L161 10.9544C164.314 10.9544 167 13.6406 167 16.9544L167 116.954Z"/>
    </mask>
    <path fill-rule="evenodd" clip-rule="evenodd" d="M167 116.954C167 120.268 164.314 122.954 161 122.954L6 122.954C2.68629 122.954 9.41428e-06 120.268 9.15286e-06 116.954L1.26404e-06 16.9541C1.00262e-06 13.6404 2.68631 10.9541 6.00002 10.9541L119.304 10.9543C120.013 10.9543 120.669 10.5788 121.028 9.9674L126.304 0.987351C127.077 -0.328508 128.98 -0.328509 129.753 0.987349L135.029 9.96742C135.388 10.5788 136.044 10.9543 136.753 10.9543L161 10.9544C164.314 10.9544 167 13.6406 167 16.9544L167 116.954Z" fill="white"/>
    <path d="M161 122.954L161 121.954L161 122.954ZM167 116.954L168 116.954V116.954L167 116.954ZM6 122.954L6 123.954L6 122.954ZM9.15286e-06 116.954L1.00001 116.954L9.15286e-06 116.954ZM1.26404e-06 16.9541L-0.999999 16.9541L1.26404e-06 16.9541ZM6.00002 10.9541L6.00002 9.95412L6.00002 9.95412L6.00002 10.9541ZM161 10.9544L161 9.95436L161 9.95436L161 10.9544ZM167 16.9544L166 16.9544L166 16.9544L167 16.9544ZM135.029 9.96742L134.167 10.474L135.029 9.96742ZM126.304 0.987351L125.442 0.480798L126.304 0.987351ZM129.753 0.987349L130.615 0.480796L129.753 0.987349ZM119.304 10.9543L119.304 9.95429L119.304 10.9543ZM121.028 9.9674L120.166 9.46084L121.028 9.9674ZM161 123.954C164.866 123.954 168 120.82 168 116.954L166 116.954C166 119.716 163.761 121.954 161 121.954L161 123.954ZM6 123.954L161 123.954L161 121.954L6 121.954L6 123.954ZM-0.999991 116.954C-0.999991 120.82 2.13401 123.954 6 123.954L6 121.954C3.23858 121.954 1.00001 119.715 1.00001 116.954L-0.999991 116.954ZM-0.999999 16.9541L-0.999991 116.954L1.00001 116.954L1 16.9541L-0.999999 16.9541ZM6.00002 9.95412C2.13402 9.95412 -0.999999 13.0881 -0.999999 16.9541L1 16.9541C1 14.1927 3.23859 11.9541 6.00002 11.9541L6.00002 9.95412ZM119.304 9.95429L6.00002 9.95412L6.00002 11.9541L119.304 11.9543L119.304 9.95429ZM121.89 10.474L127.166 1.4939L125.442 0.480798L120.166 9.46084L121.89 10.474ZM128.891 1.4939L134.167 10.474L135.891 9.46087L130.615 0.480796L128.891 1.4939ZM161 9.95436L136.753 9.95432L136.753 11.9543L161 11.9544L161 9.95436ZM168 16.9544C168 13.0884 164.866 9.95436 161 9.95436L161 11.9544C163.761 11.9544 166 14.1929 166 16.9544L168 16.9544ZM168 116.954L168 16.9544L166 16.9544L166 116.954L168 116.954ZM134.167 10.474C134.705 11.3911 135.689 11.9543 136.753 11.9543L136.753 9.95432C136.399 9.95432 136.071 9.76657 135.891 9.46087L134.167 10.474ZM127.166 1.4939C127.553 0.835973 128.504 0.835974 128.891 1.4939L130.615 0.480796C129.455 -1.49299 126.601 -1.49299 125.442 0.480798L127.166 1.4939ZM119.304 11.9543C120.367 11.9543 121.352 11.3911 121.89 10.474L120.166 9.46084C119.986 9.76655 119.658 9.95429 119.304 9.95429L119.304 11.9543Z" fill="#C1C1C1" fill-opacity="0.3" mask="url(#path-1-inside-1)"/>
</svg>