<svg width="207" height="163" viewBox="0 0 207 163" fill="none" xmlns="http://www.w3.org/2000/svg">
    <g filter="url(#filter0_d)">
        <mask id="path-1-inside-1" fill="white">
            <path fill-rule="evenodd" clip-rule="evenodd" d="M187 132.954C187 136.268 184.314 138.954 181 138.954L26 138.954C22.6863 138.954 20 136.268 20 132.954L20 32.9541C20 29.6404 22.6863 26.9541 26 26.9541L139.304 26.9543C140.013 26.9543 140.669 26.5788 141.028 25.9674L146.304 16.9874C147.077 15.6715 148.98 15.6715 149.753 16.9874L155.029 25.9674C155.388 26.5788 156.044 26.9543 156.753 26.9543L181 26.9543C184.314 26.9544 187 29.6406 187 32.9543L187 132.954Z"/>
        </mask>
        <path fill-rule="evenodd" clip-rule="evenodd" d="M187 132.954C187 136.268 184.314 138.954 181 138.954L26 138.954C22.6863 138.954 20 136.268 20 132.954L20 32.9541C20 29.6404 22.6863 26.9541 26 26.9541L139.304 26.9543C140.013 26.9543 140.669 26.5788 141.028 25.9674L146.304 16.9874C147.077 15.6715 148.98 15.6715 149.753 16.9874L155.029 25.9674C155.388 26.5788 156.044 26.9543 156.753 26.9543L181 26.9543C184.314 26.9544 187 29.6406 187 32.9543L187 132.954Z" fill="white"/>
        <path d="M181 138.954L181 137.954L181 138.954ZM187 132.954L188 132.954L187 132.954ZM26 138.954L26 139.954L26 138.954ZM20 132.954L21 132.954L20 132.954ZM20 32.9541L19 32.9541L20 32.9541ZM26 26.9541L26 27.9541H26L26 26.9541ZM181 26.9543L181 25.9543L181 26.9543ZM187 32.9543L186 32.9543L186 32.9544L187 32.9543ZM155.029 25.9674L155.891 25.4609L155.029 25.9674ZM156.753 26.9543L156.753 27.9543L156.753 26.9543ZM146.304 16.9874L145.442 16.4808L146.304 16.9874ZM149.753 16.9874L150.615 16.4808L149.753 16.9874ZM139.304 26.9543L139.304 25.9543L139.304 26.9543ZM141.028 25.9674L140.166 25.4608L141.028 25.9674ZM181 139.954C184.866 139.954 188 136.82 188 132.954L186 132.954C186 135.716 183.761 137.954 181 137.954L181 139.954ZM26 139.954L181 139.954L181 137.954L26 137.954L26 139.954ZM19 132.954C19 136.82 22.134 139.954 26 139.954L26 137.954C23.2386 137.954 21 135.715 21 132.954L19 132.954ZM19 32.9541L19 132.954L21 132.954L21 32.9541L19 32.9541ZM26 25.9541C22.134 25.9541 19 29.0881 19 32.9541L21 32.9541C21 30.1927 23.2386 27.9541 26 27.9541L26 25.9541ZM139.304 25.9543L26 25.9541L26 27.9541L139.304 27.9543L139.304 25.9543ZM141.89 26.4739L147.166 17.4939L145.442 16.4808L140.166 25.4608L141.89 26.4739ZM148.891 17.4939L154.166 26.474L155.891 25.4609L150.615 16.4808L148.891 17.4939ZM181 25.9543L156.753 25.9543L156.753 27.9543L181 27.9543L181 25.9543ZM188 32.9543C188 29.0884 184.866 25.9544 181 25.9543L181 27.9543C183.761 27.9544 186 30.1929 186 32.9543L188 32.9543ZM188 132.954L188 32.9543L186 32.9544L186 132.954L188 132.954ZM154.166 26.474C154.705 27.3911 155.689 27.9543 156.753 27.9543L156.753 25.9543C156.399 25.9543 156.071 25.7666 155.891 25.4609L154.166 26.474ZM147.166 17.4939C147.553 16.836 148.504 16.836 148.891 17.4939L150.615 16.4808C149.455 14.507 146.601 14.507 145.442 16.4808L147.166 17.4939ZM139.304 27.9543C140.367 27.9543 141.352 27.3911 141.89 26.4739L140.166 25.4608C139.986 25.7665 139.658 25.9543 139.304 25.9543L139.304 27.9543Z" fill="#C1C1C1" fill-opacity="0.3" mask="url(#path-1-inside-1)"/>
    </g>
    <defs>
        <filter id="filter0_d" x="0" y="0" width="207" height="162.954" filterUnits="userSpaceOnUse" color-interpolation-filters="sRGB">
            <feFlood flood-opacity="0" result="BackgroundImageFix"/>
            <feColorMatrix in="SourceAlpha" type="matrix" values="0 0 0 0 0 0 0 0 0 0 0 0 0 0 0 0 0 0 127 0"/>
            <feOffset dy="4"/>
            <feGaussianBlur stdDeviation="10"/>
            <feColorMatrix type="matrix" values="0 0 0 0 0.798211 0 0 0 0 0.816085 0 0 0 0 0.838428 0 0 0 0.25 0"/>
            <feBlend mode="normal" in2="BackgroundImageFix" result="effect1_dropShadow"/>
            <feBlend mode="normal" in="SourceGraphic" in2="effect1_dropShadow" result="shape"/>
        </filter>
    </defs>
</svg>