<svg width="16" height="16" viewBox="0 0 16 16" fill="none" xmlns="http://www.w3.org/2000/svg">
    <path d="M8.00005 15.2C4.0236 15.2 0.800049 11.9765 0.800049 8.00005C0.800049 4.0236 4.0236 0.800049 8.00005 0.800049C11.9765 0.800049 15.2 4.0236 15.2 8.00005C15.2 11.9765 11.9765 15.2 8.00005 15.2ZM8.00005 13.88C11.2475 13.88 13.88 11.2475 13.88 8.00005C13.88 4.75261 11.2475 2.12005 8.00005 2.12005C4.75261 2.12005 2.12005 4.75261 2.12005 8.00005C2.12005 11.2475 4.75261 13.88 8.00005 13.88ZM7.40005 10.4597V8.34325C7.40005 7.97874 7.69554 7.68325 8.06005 7.68325C8.41567 7.68325 8.70559 7.9645 8.71952 8.3167L8.72005 8.34325V10.4158C8.72005 10.784 8.42805 11.0858 8.06005 11.0981C7.70747 11.1098 7.41213 10.8335 7.4004 10.4809C7.40017 10.4738 7.40005 10.4668 7.40005 10.4597ZM7.40005 5.53968V5.46325C7.40005 5.09874 7.69554 4.80325 8.06005 4.80325C8.41567 4.80325 8.70559 5.0845 8.71952 5.4367L8.72005 5.46325V5.49576C8.72005 5.86397 8.42805 6.16584 8.06005 6.17809C7.70747 6.18982 7.41213 5.91351 7.4004 5.56092C7.40017 5.55385 7.40005 5.54677 7.40005 5.53968Z" fill="#56606D"/>
</svg>
