<svg width="22" height="22" viewBox="0 0 22 22" fill="none" xmlns="http://www.w3.org/2000/svg">
<path d="M18.0565 1.96903C18.1425 2.03306 18.2123 2.11631 18.2603 2.21212C18.3084 2.30794 18.3334 2.41367 18.3333 2.52086V14.8959C18.3334 14.92 18.3321 14.9442 18.3297 14.9683C18.3649 15.692 18.1542 16.4064 17.7317 16.995C17.3093 17.5837 16.7 18.0121 16.0031 18.2103C15.3061 18.4086 14.5626 18.3651 13.8935 18.087C13.2245 17.8089 12.6693 17.3124 12.3183 16.6785C11.9673 16.0446 11.8413 15.3106 11.9606 14.5959C12.08 13.8812 12.4378 13.228 12.9757 12.7425C13.5137 12.2571 14.2001 11.9681 14.9232 11.9225C15.6464 11.8769 16.3637 12.0774 16.9583 12.4914V7.11153L9.16666 9.44903V16.7292C9.1667 16.7534 9.16547 16.7776 9.16299 16.8016C9.19826 17.5253 8.98752 18.2397 8.56506 18.8284C8.1426 19.4171 7.53332 19.8454 6.83639 20.0437C6.13947 20.242 5.39595 20.1985 4.72688 19.9203C4.05781 19.6422 3.50259 19.1458 3.15162 18.5118C2.80065 17.8779 2.67459 17.1439 2.79397 16.4292C2.91335 15.7145 3.27113 15.0613 3.80907 14.5759C4.34701 14.0905 5.03343 13.8014 5.75658 13.7558C6.47972 13.7102 7.19701 13.9108 7.79166 14.3248V5.27086C7.7917 5.12312 7.83933 4.97933 7.9275 4.86078C8.01567 4.74224 8.13968 4.65524 8.28116 4.6127L17.4478 1.8627C17.5505 1.8317 17.6591 1.82517 17.7648 1.84363C17.8705 1.8621 17.9704 1.90504 18.0565 1.96903ZM9.16666 8.01353L16.9583 5.67603V3.44486L9.16666 5.78236V8.01353ZM5.95832 15.125C5.47209 15.125 5.00578 15.3182 4.66196 15.662C4.31814 16.0058 4.12499 16.4721 4.12499 16.9584C4.12499 17.4446 4.31814 17.9109 4.66196 18.2547C5.00578 18.5985 5.47209 18.7917 5.95832 18.7917C6.44455 18.7917 6.91087 18.5985 7.25469 18.2547C7.5985 17.9109 7.79166 17.4446 7.79166 16.9584C7.79166 16.4721 7.5985 16.0058 7.25469 15.662C6.91087 15.3182 6.44455 15.125 5.95832 15.125ZM13.2917 15.125C13.2917 15.6113 13.4848 16.0776 13.8286 16.4214C14.1724 16.7652 14.6388 16.9584 15.125 16.9584C15.6112 16.9584 16.0775 16.7652 16.4214 16.4214C16.7652 16.0776 16.9583 15.6113 16.9583 15.125C16.9583 14.6388 16.7652 14.1725 16.4214 13.8287C16.0775 13.4848 15.6112 13.2917 15.125 13.2917C14.6388 13.2917 14.1724 13.4848 13.8286 13.8287C13.4848 14.1725 13.2917 14.6388 13.2917 15.125Z" fill="#FF8A00"/>
</svg>
