<svg width="16" height="18" viewBox="0 0 16 18" fill="none" xmlns="http://www.w3.org/2000/svg">
    <path fill-rule="evenodd" clip-rule="evenodd" d="M15.42 4.55488L14.3732 16.0185L14.3704 16.0186C14.2668 17.1183 11.3267 18 7.7149 18C4.10314 18 1.16304 17.1183 1.05939 16.0186L1.05656 16.0185L0.00976562 4.55488C0.0472251 4.58465 0.0858874 4.61398 0.125716 4.64285C0.584003 4.97514 1.21629 5.26217 1.9919 5.50003C3.49783 5.96186 5.5026 6.22504 7.63856 6.23117L7.7149 6.23128C9.8794 6.23128 11.914 5.96736 13.4379 5.50003C14.2135 5.26217 14.8458 4.97514 15.3041 4.64285C15.3439 4.61398 15.3826 4.58466 15.42 4.55488ZM7.7149 0C11.7162 0 14.9599 0.994665 14.9599 2.22165C14.9599 3.44863 11.7162 4.44329 7.7149 4.44329C3.71361 4.44329 0.469924 3.44863 0.469924 2.22165C0.469924 0.994665 3.71361 0 7.7149 0Z" fill="#768394"/>
</svg>
