<svg width="22" height="20" viewBox="0 0 22 20" fill="none" xmlns="http://www.w3.org/2000/svg">
    <path fill-rule="evenodd" clip-rule="evenodd" d="M11.9414 6.37625C11.9801 6.08967 12 5.79716 12 5.5C12 4.27554 11.6614 3.13015 11.0728 2.15236C11.8914 2.054 12.7826 2 13.7149 2C17.7162 2 20.9599 2.99466 20.9599 4.22165C20.9599 5.44863 17.7162 6.44329 13.7149 6.44329C13.1031 6.44329 12.509 6.42003 11.9414 6.37625ZM6.5 11.9236C8.71728 11.5812 10.5646 10.1182 11.4453 8.13147C12.1494 8.19493 12.8858 8.22901 13.6386 8.23117L13.7149 8.23128C15.8794 8.23128 17.914 7.96736 19.4379 7.50003C20.2135 7.26217 20.8458 6.97514 21.3041 6.64285C21.3439 6.61398 21.3826 6.58466 21.42 6.55488L20.3732 18.0185L20.3704 18.0186C20.2668 19.1183 17.3267 20 13.7149 20C10.1031 20 7.16303 19.1183 7.05939 18.0186L7.05656 18.0185L6.5 11.9236Z" fill="white"/>
    <circle cx="5.5" cy="5.5" r="5.5" fill="white"/>
    <path d="M7.60876 5.69568H3.39124M5.5 3.58691V7.80444" stroke="#0068DC" stroke-linecap="round" stroke-linejoin="round"/>
</svg>
