<svg viewBox="0 0 267 80" fill="none" xmlns="http://www.w3.org/2000/svg">
    <path fill-rule="evenodd" clip-rule="evenodd" d="M192 38.8574H206V52.8574H192V38.8574Z" fill="#00E567"/>
    <path fill-rule="evenodd" clip-rule="evenodd" d="M92 0H102V10H92V0Z" fill="#FF458B"/>
    <path fill-rule="evenodd" clip-rule="evenodd" d="M209.143 18.2861H215.143V24.2861H209.143V18.2861Z" fill="#FF458B"/>
    <path fill-rule="evenodd" clip-rule="evenodd" d="M46.8574 18.5713H52.8574V24.5713H46.8574V18.5713Z" fill="#00E567"/>
    <path fill-rule="evenodd" clip-rule="evenodd" d="M261 10H267V16H261V10Z" fill="#0149FF"/>
    <path fill-rule="evenodd" clip-rule="evenodd" d="M0 51H6V57H0V51Z" fill="#0149FF"/>
    <path fill-rule="evenodd" clip-rule="evenodd" d="M239.857 33.1426H245.857V39.1426H239.857V33.1426Z" fill="#FFC600"/>
    <path fill-rule="evenodd" clip-rule="evenodd" d="M63.1426 47.8574H81.1426V65.8574H63.1426V47.8574Z" fill="#FFC600"/>
    <path fill-rule="evenodd" clip-rule="evenodd" d="M164.285 8H178.285V22H164.285V8Z" fill="#0149FF"/>
    <path fill-rule="evenodd" clip-rule="evenodd" d="M161.578 24.585H104L112.637 73.151H112.655C113.114 76.9613 121.952 80.0004 132.789 80.0004C143.626 80.0004 152.464 76.9613 152.923 73.151H152.941L161.578 24.585Z" fill="#0149FF"/>
    <ellipse cx="132.789" cy="24.2736" rx="28.789" ry="10.2736" fill="#00127F"/>
    <path fill-rule="evenodd" clip-rule="evenodd" d="M134 34.5382C133.598 34.5442 133.195 34.5472 132.789 34.5472C126.524 34.5472 120.726 33.833 116 32.6203V24.4287H134V34.5382Z" fill="#00E567"/>
    <path fill-rule="evenodd" clip-rule="evenodd" d="M127.143 3.85742H141.143V17.8574H127.143V3.85742Z" fill="#FFC600"/>
    <circle cx="165.713" cy="34.2857" r="18.2857" fill="#D9E0EE"/>
    <path d="M165.842 25C169.495 25 172.463 27.9314 172.522 31.5699L172.523 31.6804L172.523 33.1021C172.849 33.3342 173.113 33.6345 173.306 33.9955L173.347 34.0757C173.563 34.5047 173.68 34.9704 173.685 36.1098V39.3616C173.685 40.6268 173.553 41.0855 173.306 41.5481C173.058 42.0106 172.695 42.3736 172.233 42.6209L172.153 42.6626C171.724 42.8785 171.258 42.9952 170.118 42.9999L161.638 43C160.373 43 159.914 42.8683 159.452 42.6209C158.989 42.3736 158.626 42.0106 158.379 41.5481L158.351 41.4936C158.126 41.0572 158.005 40.596 158 39.4337V36.1819C158 34.9168 158.132 34.458 158.379 33.9955C158.572 33.6345 158.836 33.3342 159.162 33.1021L159.162 31.6804C159.162 27.9909 162.153 25 165.842 25ZM170.046 34.1867L161.573 34.1869L161.406 34.1882C160.684 34.1973 160.46 34.2472 160.227 34.3716C160.051 34.4658 159.922 34.5943 159.828 34.7704L159.802 34.8216C159.696 35.039 159.652 35.2848 159.644 35.9555L159.643 36.1819L159.643 39.427L159.645 39.5938C159.654 40.3165 159.704 40.5405 159.828 40.7731C159.922 40.9493 160.051 41.0777 160.227 41.172L160.278 41.1981C160.495 41.3035 160.741 41.3481 161.412 41.3557L161.638 41.3568L170.163 41.3566C170.974 41.3524 171.214 41.3023 171.458 41.172C171.634 41.0777 171.762 40.9493 171.857 40.7731L171.883 40.722C171.988 40.5046 172.033 40.2587 172.04 39.588L172.041 39.3616L172.041 36.065C172.037 35.2542 171.987 35.0141 171.857 34.7704C171.762 34.5943 171.634 34.4658 171.458 34.3716L171.407 34.3455C171.189 34.2401 170.943 34.1954 170.273 34.1879L170.046 34.1867ZM165.992 35.9793C166.734 35.9793 167.336 36.5812 167.336 37.3237C167.336 37.7567 167.131 38.1419 166.813 38.3878L166.813 38.8921C166.813 39.3459 166.445 39.7137 165.992 39.7137C165.538 39.7137 165.17 39.3459 165.17 38.8921L165.17 38.3879C164.852 38.1421 164.647 37.7568 164.647 37.3237C164.647 36.5812 165.249 35.9793 165.992 35.9793ZM165.842 26.6432C163.088 26.6432 160.85 28.8535 160.806 31.5971L160.805 31.6804L160.805 32.5697C161.021 32.5537 161.271 32.5449 161.566 32.5437L170.046 32.5436C170.373 32.5436 170.646 32.5524 170.88 32.5697L170.88 31.6804C170.88 28.8984 168.624 26.6432 165.842 26.6432Z" fill="#00127F"/>
</svg>
