<svg width="17" height="18" viewBox="0 0 17 18" fill="none" xmlns="http://www.w3.org/2000/svg">
<path d="M15.3549 7.54665C16.762 8.95376 16.7748 11.227 15.3778 12.624C14.8117 13.1901 14.1018 13.5247 13.3639 13.6289L13.1106 15.0638C13.092 16.1897 10.7878 17.1 7.94808 17.1C5.12541 17.1 2.83185 16.2006 2.78626 15.0841L2.78583 15.0638L0.844654 4.06597C0.822799 3.98819 0.808818 3.90946 0.803034 3.82992L0.799988 3.81221L0.801889 3.81231C0.800624 3.79028 0.799988 3.76818 0.799988 3.74602C0.799988 2.17422 4.0003 0.900024 7.94808 0.900024C11.8959 0.900024 15.0962 2.17422 15.0962 3.74602C15.0962 3.76818 15.0955 3.79028 15.0943 3.81231L15.0962 3.81221L15.093 3.83111C15.0872 3.90975 15.0734 3.98759 15.0519 4.06451L14.5749 6.76662L15.3549 7.54665ZM13.2961 5.63437C11.9867 6.22183 10.076 6.59202 7.94808 6.59202C5.82026 6.59202 3.90959 6.22185 2.60014 5.63443L4.00723 13.6077L4.23729 14.8286L4.25861 14.8452C4.37893 14.9354 4.56514 15.0371 4.80696 15.1351L4.85606 15.1546C5.63551 15.4594 6.74619 15.6439 7.94808 15.6439C9.15691 15.6439 10.2733 15.4573 11.0527 15.1497C11.3337 15.0388 11.5431 14.9223 11.6661 14.8231L11.6761 14.8148L11.9019 13.5348C11.3338 13.3787 10.7955 13.0812 10.3429 12.6429L10.3004 12.6011L7.37488 9.67558C7.09056 9.39126 7.09056 8.93029 7.37488 8.64597C7.65226 8.36859 8.09779 8.36182 8.38338 8.62568L8.40449 8.64597L11.33 11.5715C11.5717 11.8132 11.8555 11.9861 12.1569 12.0901L13.2961 5.63437ZM14.2661 8.51698L13.6408 12.0597C13.8989 11.9575 14.1402 11.8024 14.3482 11.5944C15.1641 10.7784 15.1664 9.44942 14.3549 8.60652L14.3253 8.57627L14.2661 8.51698ZM7.94808 2.35612C6.20125 2.35612 4.58125 2.62893 3.43223 3.08641C2.93851 3.28298 2.57117 3.49947 2.35976 3.69848C2.34629 3.71116 2.33399 3.72325 2.32283 3.73469L2.31221 3.74589L2.33142 3.76606L2.35976 3.79357C2.57117 3.99258 2.93851 4.20906 3.43223 4.40564C4.58125 4.86312 6.20125 5.13593 7.94808 5.13593C9.6949 5.13593 11.3149 4.86312 12.4639 4.40564C12.9576 4.20906 13.325 3.99258 13.5364 3.79357C13.5499 3.78089 13.5622 3.7688 13.5733 3.75735L13.5841 3.74589L13.5647 3.72599L13.5364 3.69848C13.325 3.49947 12.9576 3.28298 12.4639 3.08641C11.3149 2.62893 9.6949 2.35612 7.94808 2.35612Z" fill="#0149FF"/>
</svg>
