<svg width="18" height="18" viewBox="0 0 18 18" fill="none" xmlns="http://www.w3.org/2000/svg">
<path d="M7.09215 1.8388C7.26202 1.87058 7.41299 1.92335 7.56566 2.00432L7.61412 2.03075C7.74789 2.10599 7.88155 2.20167 8.19074 2.45465L10.3211 4.19769H13.4951C14.7484 4.19769 15.2029 4.32818 15.6611 4.57322C16.1193 4.81826 16.4788 5.17784 16.7239 5.63603L16.7502 5.68603C16.9782 6.12832 17.0994 6.59425 17.0994 7.80196V12.492C17.0994 13.984 16.9441 14.5251 16.6523 15.0705C16.3606 15.616 15.9326 16.044 15.3871 16.3358L15.3325 16.3645L15.2787 16.3918C14.775 16.6428 14.2218 16.778 12.8812 16.7828H5.19021C3.69821 16.7828 3.15717 16.6275 2.61172 16.3358C2.06626 16.044 1.63819 15.616 1.34647 15.0705L1.31776 15.0159C1.04929 14.497 0.904458 13.9534 0.899414 12.5658V4.91027C0.899414 4.15385 1.02131 3.65274 1.25099 3.21855C1.48068 2.78435 1.81814 2.44241 2.24927 2.20702C2.68039 1.97163 3.17985 1.84313 3.9362 1.83315L6.41411 1.80067L6.54037 1.80017C6.8263 1.80057 6.95334 1.81284 7.09215 1.8388ZM6.4743 3.27288L6.34207 3.27427L3.95563 3.30575L3.84857 3.30815C3.41715 3.32204 3.16527 3.38483 2.95501 3.49963C2.77753 3.59654 2.64736 3.72844 2.5528 3.90718C2.43831 4.12362 2.37872 4.38281 2.37266 4.83204C2.3761 4.85597 2.37825 4.88005 2.37921 4.90444L2.37979 4.93405C2.37979 5.49662 2.82707 5.95471 3.38541 5.97212L3.41838 5.97264H6.88319C6.94696 5.97264 7.0092 5.95443 7.06271 5.92043L7.08508 5.9049L8.64234 4.72714L7.17904 3.53001C7.00186 3.3863 6.93894 3.34085 6.88903 3.31271L6.87567 3.30541C6.85452 3.29419 6.84488 3.29082 6.82135 3.28642L6.7903 3.28147L6.76909 3.27904C6.71617 3.27382 6.63655 3.27173 6.4743 3.27288Z" fill="#FFC600"/>
<path d="M7.09215 1.8388C7.26202 1.87058 7.41299 1.92335 7.56566 2.00432L7.61412 2.03075C7.74789 2.10599 7.88155 2.20167 8.19074 2.45465L10.3211 4.19769H13.4951C14.7484 4.19769 15.2029 4.32818 15.6611 4.57322C16.1193 4.81826 16.4788 5.17784 16.7239 5.63603L16.7502 5.68603C16.9782 6.12832 17.0994 6.59425 17.0994 7.80196V12.492C17.0994 13.984 16.9441 14.5251 16.6523 15.0705C16.3606 15.616 15.9326 16.044 15.3871 16.3358L15.3325 16.3645L15.2787 16.3918C14.775 16.6428 14.2218 16.778 12.8812 16.7828H5.19021C3.69821 16.7828 3.15717 16.6275 2.61172 16.3358C2.06626 16.044 1.63819 15.616 1.34647 15.0705L1.31776 15.0159C1.04929 14.497 0.904458 13.9534 0.899414 12.5658V4.91027C0.899414 4.15385 1.02131 3.65274 1.25099 3.21855C1.48068 2.78435 1.81814 2.44241 2.24927 2.20702C2.68039 1.97163 3.17985 1.84313 3.9362 1.83315L6.41411 1.80067L6.54037 1.80017C6.8263 1.80057 6.95334 1.81284 7.09215 1.8388ZM7.97338 7.07956C7.67315 7.30661 7.30988 7.43399 6.93446 7.44464L6.88319 7.44536H3.41838C3.04498 7.44536 2.69062 7.36387 2.3721 7.2177V12.5606L2.37361 12.7417L2.37541 12.8619C2.39131 13.7189 2.4664 14.0417 2.64514 14.376C2.7996 14.6648 3.01745 14.8826 3.30625 15.0371L3.34819 15.059L3.3931 15.0812C3.71637 15.2359 4.0763 15.2997 4.94968 15.3089L5.19021 15.3101L12.9319 15.3098C13.9739 15.3046 14.3292 15.2314 14.6926 15.0371C14.9814 14.8826 15.1992 14.6648 15.3537 14.376L15.3756 14.334L15.3978 14.2891C15.5525 13.9659 15.6163 13.6059 15.6255 12.7325L15.6267 12.492V7.80196C15.6267 6.88165 15.574 6.60875 15.4252 6.33056C15.3174 6.12903 15.1681 5.97967 14.9665 5.87189L14.9317 5.85379C14.6703 5.72175 14.3896 5.67256 13.5518 5.67049L9.83672 5.67035L7.97338 7.07956Z" fill="white"/>
<path d="M7.09215 1.8388C7.26202 1.87058 7.41299 1.92335 7.56566 2.00432L7.61412 2.03075C7.74789 2.10599 7.88155 2.20167 8.19074 2.45465L10.3211 4.19769H13.4951C14.7484 4.19769 15.2029 4.32818 15.6611 4.57322C16.1193 4.81826 16.4788 5.17784 16.7239 5.63603L16.7502 5.68603C16.9782 6.12832 17.0994 6.59425 17.0994 7.80196V12.492C17.0994 13.984 16.9441 14.5251 16.6523 15.0705C16.3606 15.616 15.9326 16.044 15.3871 16.3358L15.3325 16.3645L15.2787 16.3918C14.775 16.6428 14.2218 16.778 12.8812 16.7828H5.19021C3.69821 16.7828 3.15717 16.6275 2.61172 16.3358C2.06626 16.044 1.63819 15.616 1.34647 15.0705L1.31776 15.0159C1.04929 14.497 0.904458 13.9534 0.899414 12.5658V4.91027C0.899414 4.15385 1.02131 3.65274 1.25099 3.21855C1.48068 2.78435 1.81814 2.44241 2.24927 2.20702C2.68039 1.97163 3.17985 1.84313 3.9362 1.83315L6.41411 1.80067L6.54037 1.80017C6.8263 1.80057 6.95334 1.81284 7.09215 1.8388ZM7.97338 7.07956C7.67315 7.30661 7.30988 7.43399 6.93446 7.44464L6.88319 7.44536H3.41838C3.04498 7.44536 2.69062 7.36387 2.3721 7.2177V12.5606L2.37361 12.7417L2.37541 12.8619C2.39131 13.7189 2.4664 14.0417 2.64514 14.376C2.7996 14.6648 3.01745 14.8826 3.30625 15.0371L3.34819 15.059L3.3931 15.0812C3.71637 15.2359 4.0763 15.2997 4.94968 15.3089L5.19021 15.3101L12.9319 15.3098C13.9739 15.3046 14.3292 15.2314 14.6926 15.0371C14.9814 14.8826 15.1992 14.6648 15.3537 14.376L15.3756 14.334L15.3978 14.2891C15.5525 13.9659 15.6163 13.6059 15.6255 12.7325L15.6267 12.492V7.80196C15.6267 6.88165 15.574 6.60875 15.4252 6.33056C15.3174 6.12903 15.1681 5.97967 14.9665 5.87189L14.9317 5.85379C14.6703 5.72175 14.3896 5.67256 13.5518 5.67049L9.83672 5.67035L7.97338 7.07956ZM6.4743 3.27288L6.34207 3.27427L3.95563 3.30575L3.84857 3.30815C3.41715 3.32204 3.16527 3.38483 2.95501 3.49963C2.77753 3.59654 2.64736 3.72844 2.5528 3.90718C2.43831 4.12362 2.37872 4.38281 2.37266 4.83204C2.3761 4.85597 2.37825 4.88005 2.37921 4.90444L2.37979 4.93405C2.37979 5.49662 2.82707 5.95471 3.38541 5.97212L3.41838 5.97264H6.88319C6.94696 5.97264 7.0092 5.95443 7.06271 5.92043L7.08508 5.9049L8.64234 4.72714L7.17904 3.53001C7.00186 3.3863 6.93894 3.34085 6.88903 3.31271L6.87567 3.30541C6.85452 3.29419 6.84488 3.29082 6.82135 3.28642L6.7903 3.28147L6.76909 3.27904C6.71617 3.27382 6.63655 3.27173 6.4743 3.27288Z" fill="#FFA800"/>
</svg>
