<svg width="17" height="19" viewBox="0 0 17 19" fill="none" xmlns="http://www.w3.org/2000/svg">
    <path class="bucket-delete-path" d="M11.1921 2.84172H15.3004C15.5351 2.84172 15.7254 3.032 15.7254 3.26672C15.7254 3.50144 15.5351 3.69172 15.3004 3.69172H14.5594L13.4991 16.9458C13.4579 17.4612 13.0276 17.8584 12.5106 17.8584H4.4902C3.97319 17.8584 3.54292 17.4612 3.50169 16.9458L2.44137 3.69172H1.70039C1.46567 3.69172 1.27539 3.50144 1.27539 3.26672C1.27539 3.032 1.46567 2.84172 1.70039 2.84172H5.80872V1.99172C5.80872 1.51928 6.20447 1.14172 6.68706 1.14172H10.3137C10.7963 1.14172 11.1921 1.51928 11.1921 1.99172V2.84172ZM3.29408 3.69172L4.34899 16.878C4.35488 16.9516 4.41634 17.0084 4.4902 17.0084H12.5106C12.5844 17.0084 12.6459 16.9516 12.6518 16.878L13.7067 3.69172H3.29408ZM10.3421 2.84172V1.99172C10.3421 1.99828 10.3345 1.99172 10.3137 1.99172H6.68706C6.66631 1.99172 6.65872 1.99828 6.65872 1.99172V2.84172H10.3421Z" fill="#768394" stroke="#768394"/>
</svg>
