<svg width="4" height="16" viewBox="0 0 4 16" fill="none" xmlns="http://www.w3.org/2000/svg">
    <path d="M3.2 1.6C3.2 2.48366 2.48366 3.2 1.6 3.2C0.716344 3.2 0 2.48366 0 1.6C0 0.716344 0.716344 0 1.6 0C2.48366 0 3.2 0.716344 3.2 1.6Z" fill="#7C8794"/>
    <path d="M3.2 8C3.2 8.88366 2.48366 9.6 1.6 9.6C0.716344 9.6 0 8.88366 0 8C0 7.11634 0.716344 6.4 1.6 6.4C2.48366 6.4 3.2 7.11634 3.2 8Z" fill="#7C8794"/>
    <path d="M1.6 16C2.48366 16 3.2 15.2837 3.2 14.4C3.2 13.5163 2.48366 12.8 1.6 12.8C0.716344 12.8 0 13.5163 0 14.4C0 15.2837 0.716344 16 1.6 16Z" fill="#7C8794"/>
</svg>
