<svg width="18" height="17" viewBox="0 0 18 17" fill="none" xmlns="http://www.w3.org/2000/svg">
<path d="M8.34516 12.3275L8.32366 12.3069L4.51053 8.49373C4.22096 8.20416 4.22096 7.73468 4.51053 7.44512C4.79303 7.16262 5.24678 7.15572 5.53763 7.42445L5.55914 7.44512L8.13126 10.0173V1.63992C8.13126 1.23041 8.46323 0.898437 8.87274 0.898438C9.27226 0.898438 9.59798 1.21441 9.61363 1.6101L9.61422 1.63992V9.96795L12.1368 7.44512C12.4193 7.16262 12.873 7.15572 13.1639 7.42445L13.1854 7.44512C13.4679 7.72762 13.4748 8.18137 13.2061 8.47223L13.1854 8.49373L9.37227 12.3069C9.08976 12.5894 8.63602 12.5963 8.34516 12.3275ZM17.1004 15.6384C17.1004 16.0479 16.7684 16.3798 16.3589 16.3798H1.66413C1.25462 16.3798 0.92265 16.0479 0.92265 15.6384C0.92265 15.2289 1.25462 14.8969 1.66413 14.8969H16.3589C16.7684 14.8969 17.1004 15.2289 17.1004 15.6384ZM1.64187 16.3236C1.23236 16.3236 0.900391 15.9916 0.900391 15.5821V12.6162C0.900391 12.2067 1.23236 11.8747 1.64187 11.8747C2.05138 11.8747 2.38335 12.2067 2.38335 12.6162V15.5821C2.38335 15.9916 2.05138 16.3236 1.64187 16.3236ZM16.3367 16.3236C15.9271 16.3236 15.5952 15.9916 15.5952 15.5821V12.6162C15.5952 12.2067 15.9271 11.8747 16.3367 11.8747C16.7462 11.8747 17.0781 12.2067 17.0781 12.6162V15.5821C17.0781 15.9916 16.7462 16.3236 16.3367 16.3236Z" fill="#56606D"/>
</svg>
