<svg width="387" height="116" viewBox="0 0 387 116" fill="none" xmlns="http://www.w3.org/2000/svg">
<path fill-rule="evenodd" clip-rule="evenodd" d="M278.292 56.321H298.584V76.6132H278.292V56.321Z" fill="#00E567"/>
<path fill-rule="evenodd" clip-rule="evenodd" d="M133.348 0H147.842V14.4944H133.348V0Z" fill="#FF458B"/>
<path fill-rule="evenodd" clip-rule="evenodd" d="M303.139 26.5039H311.836V35.2005H303.139V26.5039Z" fill="#FF458B"/>
<path fill-rule="evenodd" clip-rule="evenodd" d="M67.9165 26.9182H76.6131V35.6148H67.9165V26.9182Z" fill="#00E567"/>
<path fill-rule="evenodd" clip-rule="evenodd" d="M378.303 14.4943H387V23.1909H378.303V14.4943Z" fill="#0149FF"/>
<path fill-rule="evenodd" clip-rule="evenodd" d="M-0.000488281 73.9214H8.69614V82.618H-0.000488281V73.9214Z" fill="#0149FF"/>
<path fill-rule="evenodd" clip-rule="evenodd" d="M347.658 48.0385H356.355V56.7351H347.658V48.0385Z" fill="#FFC600"/>
<path fill-rule="evenodd" clip-rule="evenodd" d="M91.521 69.3661H117.611V95.456H91.521V69.3661Z" fill="#FFC600"/>
<path fill-rule="evenodd" clip-rule="evenodd" d="M238.122 11.5955H258.414V31.8876H238.122V11.5955Z" fill="#0149FF"/>
<path fill-rule="evenodd" clip-rule="evenodd" d="M234.197 35.6346H150.741L163.26 106.028H163.287C163.952 111.551 176.763 115.955 192.47 115.955C208.176 115.955 220.987 111.551 221.652 106.028H221.679L234.197 35.6346Z" fill="#0149FF"/>
<ellipse cx="192.469" cy="35.1832" rx="41.7278" ry="14.8909" fill="#00127F"/>
<path fill-rule="evenodd" clip-rule="evenodd" d="M194.224 50.0616C193.642 50.0702 193.057 50.0745 192.469 50.0745C183.388 50.0745 174.984 49.0393 168.135 47.2816V35.4081H194.224V50.0616Z" fill="#00E567"/>
<path fill-rule="evenodd" clip-rule="evenodd" d="M184.285 5.59094H204.577V25.8831H184.285V5.59094Z" fill="#FFC600"/>
</svg>
