<svg width="90" height="74" viewBox="0 0 90 74" fill="none" xmlns="http://www.w3.org/2000/svg">
    <path d="M66.4673 19.3047H52.5569V33.2151H66.4673V19.3047Z" fill="#FF458B"/>
    <path d="M89.9105 0H76V13.9105H89.9105V0Z" fill="#0149FF"/>
    <path d="M89.9105 40H76V53.9105H89.9105V40Z" fill="#00E366"/>
    <path d="M13.9105 33H0V46.9105H13.9105V33Z" fill="#FFC600"/>
    <path fill-rule="evenodd" clip-rule="evenodd" d="M27.3857 15.5441L32.7569 4.82617H46.7847V42.7724H27.3857V15.5441Z" fill="#FFC600"/>
    <path d="M46.832 0.0473633V10.5512C37.3917 10.5512 29.717 18.1462 29.5645 27.5782L29.5622 27.8646V37.5241C29.5622 46.9927 37.1425 54.6824 46.5464 54.8352L46.832 54.8375V65.3414C31.6442 65.3414 19.3073 53.1328 19.0621 37.9841L19.0583 37.5241V27.8646C19.0583 12.6574 31.2433 0.296783 46.3726 0.0510907L46.832 0.0473633Z" fill="#FF458B"/>
    <path d="M72.3345 26.6855H19.0583V73.9054H72.3345V26.6855Z" fill="#0149FF"/>
    <path fill-rule="evenodd" clip-rule="evenodd" d="M46.5481 42.2993C49.5532 42.2993 51.9893 44.7354 51.9893 47.7405C51.9893 50.2375 50.3072 52.3417 48.0143 52.9818L48.0148 58.0077H45.0814L45.0809 52.9815C42.7885 52.3411 41.1069 50.2372 41.1069 47.7405C41.1069 44.7354 43.543 42.2993 46.5481 42.2993Z" fill="#001898"/>
</svg>
