<svg width="16" height="17" viewBox="0 0 16 17" fill="none" xmlns="http://www.w3.org/2000/svg">
    <path d="M8.0174 8.74399C8.37302 8.74399 8.66294 9.02524 8.67688 9.37744L8.6774 9.40399V15.0398C8.6774 15.4043 8.38191 15.6998 8.0174 15.6998C7.66178 15.6998 7.37185 15.4186 7.35792 15.0663L7.3574 15.0398V9.40399C7.3574 9.03948 7.65289 8.74399 8.0174 8.74399ZM8.0174 6.21168C9.7314 6.21168 11.1241 7.58726 11.1518 9.29466L11.1522 9.3465V13.3062C11.1522 13.6707 10.8567 13.9662 10.4922 13.9662C10.1366 13.9662 9.84667 13.6849 9.83274 13.3327L9.83221 13.3062V9.3465C9.83221 8.3442 9.01969 7.53168 8.0174 7.53168C7.02779 7.53168 6.22319 8.32376 6.20298 9.30853L6.20259 9.3465V13.3062C6.20259 13.6707 5.90709 13.9662 5.54259 13.9662C5.18697 13.9662 4.89704 13.6849 4.88311 13.3327L4.88259 13.3062V9.3465C4.88259 7.61519 6.28609 6.21168 8.0174 6.21168ZM8.0174 3.73969C11.0082 3.73969 13.4384 6.13999 13.4867 9.1193L13.4875 9.20976V12.4165C13.4875 12.781 13.192 13.0765 12.8275 13.0765C12.4718 13.0765 12.1819 12.7952 12.168 12.443L12.1675 12.4165V9.20976C12.1675 6.91774 10.3094 5.05969 8.0174 5.05969C5.7483 5.05969 3.90454 6.88076 3.86789 9.14113L3.86734 9.20976V12.4165C3.86734 12.781 3.57184 13.0765 3.20734 13.0765C2.85172 13.0765 2.56179 12.7952 2.54786 12.443L2.54734 12.4165V9.20976C2.54734 6.18872 4.99637 3.73969 8.0174 3.73969ZM8.0174 1.2998C11.1986 1.2998 13.9498 3.05599 15.1723 5.8803C15.3171 6.21482 15.1633 6.60337 14.8287 6.74817C14.4942 6.89296 14.1057 6.73915 13.9609 6.40464C12.9502 4.06966 10.6789 2.6198 8.0174 2.6198C5.35667 2.6198 3.08401 4.06917 2.06496 6.40627C1.91927 6.74039 1.5303 6.89315 1.19618 6.74746C0.86205 6.60177 0.709292 6.2128 0.854983 5.87867C2.08643 3.05446 4.83779 1.2998 8.0174 1.2998Z" fill="#56606D"/>
</svg>
