<svg width="20" height="20" viewBox="0 0 20 20" fill="none" xmlns="http://www.w3.org/2000/svg">
<path d="M14.0916 3C13.6844 3 13.3524 3.32205 13.3365 3.72533L13.3359 3.75573L13.3359 15.9504H12.2673L12.2672 8.29008C12.2672 7.88288 11.9451 7.5509 11.5418 7.53495L11.5115 7.53435H8.52671C8.11951 7.53435 7.78753 7.8564 7.77158 8.25968L7.77098 8.29008L7.77102 15.9504H6.63359V12.9618C6.63359 12.5546 6.31154 12.2227 5.90826 12.2067L5.87786 12.2061H2.89312C2.48592 12.2061 2.15395 12.5282 2.13799 12.9314L2.13739 12.9618L2.13744 15.9504H1.75573C1.33835 15.9504 1 16.2887 1 16.7061C1 17.1133 1.32205 17.4453 1.72533 17.4612L1.75573 17.4618H18.2443C18.6617 17.4618 19 17.1235 19 16.7061C19 16.2989 18.678 15.9669 18.2747 15.951L18.2443 15.9504H17.8321V3.75573C17.8321 3.34853 17.51 3.01655 17.1067 3.0006L17.0763 3H14.0916ZM3.64889 15.9504V13.7176H5.12214V15.9504H3.64889ZM9.28247 9.0458H10.7557L10.7559 15.9504H9.28247V9.0458ZM14.8474 4.51145H16.3206V15.9504H14.8474V4.51145Z" fill="#00AC26"/>
</svg>
