<svg width="16" height="16" viewBox="0 0 16 16" fill="none" xmlns="http://www.w3.org/2000/svg">
    <path d="M4.302 15.0119L1.31054 15.1989C1.04555 15.2154 0.817303 15.014 0.800741 14.749C0.799493 14.7291 0.799493 14.709 0.800741 14.6891L0.987706 11.6976C0.995013 11.5807 1.04475 11.4705 1.12757 11.3877L4.96813 7.547L4.95363 7.49862C4.43544 5.7291 4.88296 3.78823 6.18759 2.42043L6.23044 2.37603L6.27485 2.33108C8.31655 0.289379 11.6268 0.289379 13.6685 2.33108C15.7102 4.37278 15.7102 7.68304 13.6685 9.72474C12.3113 11.0819 10.3515 11.5653 8.55862 11.0625L8.50084 11.0459L8.4525 11.0315L4.61195 14.872C4.52912 14.9548 4.4189 15.0046 4.302 15.0119ZM2.1797 13.82L3.90208 13.7123L8.11875 9.49554L8.52311 9.65669C9.96195 10.2301 11.6194 9.90415 12.7337 8.78991C14.2591 7.2645 14.2591 4.79132 12.7337 3.26591C11.2083 1.7405 8.73509 1.7405 7.20968 3.26591C6.10813 4.36746 5.77699 5.99996 6.32366 7.42725L6.34286 7.47638L6.50399 7.88072L2.28738 12.0976L2.1797 13.82ZM9.58727 6.41233C10.1036 6.92862 10.9406 6.92862 11.4569 6.41233C11.9732 5.89603 11.9732 5.05896 11.4569 4.54266C10.9406 4.02637 10.1036 4.02637 9.58727 4.54266C9.07097 5.05896 9.07097 5.89603 9.58727 6.41233Z" fill="#003DC1"/>
</svg>
