<svg width="267" height="80" viewBox="0 0 267 80" fill="none" xmlns="http://www.w3.org/2000/svg">
    <path fill-rule="evenodd" clip-rule="evenodd" d="M192 38.8569H206V52.8569H192V38.8569Z" fill="#00E567"/>
    <path fill-rule="evenodd" clip-rule="evenodd" d="M92 0H102V10H92V0Z" fill="#FF458B"/>
    <path fill-rule="evenodd" clip-rule="evenodd" d="M209.143 18.2856H215.143V24.2856H209.143V18.2856Z" fill="#FF458B"/>
    <path fill-rule="evenodd" clip-rule="evenodd" d="M46.8574 18.5713H52.8574V24.5713H46.8574V18.5713Z" fill="#00E567"/>
    <path fill-rule="evenodd" clip-rule="evenodd" d="M261 10H267V16H261V10Z" fill="#0149FF"/>
    <path fill-rule="evenodd" clip-rule="evenodd" d="M0 51H6V57H0V51Z" fill="#0149FF"/>
    <path fill-rule="evenodd" clip-rule="evenodd" d="M239.857 33.1431H245.857V39.1431H239.857V33.1431Z" fill="#FFC600"/>
    <path fill-rule="evenodd" clip-rule="evenodd" d="M63.1426 47.8569H81.1426V65.8569H63.1426V47.8569Z" fill="#FFC600"/>
    <path fill-rule="evenodd" clip-rule="evenodd" d="M164.286 8H178.286V22H164.286V8Z" fill="#0149FF"/>
    <path fill-rule="evenodd" clip-rule="evenodd" d="M161.578 24.5845H104L112.637 73.1505H112.655C113.114 76.9606 121.953 79.9996 132.789 79.9996C143.625 79.9996 152.464 76.9606 152.923 73.1505H152.941L161.578 24.5845Z" fill="#0149FF"/>
    <ellipse cx="132.789" cy="24.2736" rx="28.789" ry="10.2736" fill="#00127F"/>
    <path fill-rule="evenodd" clip-rule="evenodd" d="M134 34.5379C133.598 34.5438 133.195 34.5468 132.789 34.5468C126.524 34.5468 120.726 33.8326 116 32.6199V24.4282H134V34.5379Z" fill="#00E567"/>
    <path fill-rule="evenodd" clip-rule="evenodd" d="M127.143 3.85693H141.143V17.8569H127.143V3.85693Z" fill="#FFC600"/>
</svg>
