<svg width="32" height="32" viewBox="0 0 32 32" fill="none" xmlns="http://www.w3.org/2000/svg">
    <path d="M15.9999 1.59961C23.9528 1.59961 30.3999 8.04671 30.3999 15.9996C30.3999 23.9525 23.9528 30.3996 15.9999 30.3996C8.04705 30.3996 1.59998 23.9525 1.59998 15.9996C1.59998 8.04671 8.04705 1.59961 15.9999 1.59961ZM15.9999 4.23961C9.50508 4.23961 4.23997 9.50474 4.23997 15.9996C4.23997 22.4945 9.50508 27.7596 15.9999 27.7596C22.4948 27.7596 27.7599 22.4945 27.7599 15.9996C27.7599 9.50474 22.4948 4.23961 15.9999 4.23961ZM17.1999 9.40034V16.9932C17.1999 17.7222 16.6089 18.3132 15.8799 18.3132C15.1687 18.3132 14.5888 17.7507 14.561 17.0463L14.5599 16.9932V9.48818C14.5599 8.75176 15.1439 8.14802 15.8799 8.12353C16.5851 8.10007 17.1758 8.65269 17.1992 9.35786C17.1997 9.37201 17.1999 9.38618 17.1999 9.40034ZM17.1999 22.1203V22.2732C17.1999 23.0022 16.6089 23.5932 15.8799 23.5932C15.1687 23.5932 14.5888 23.0307 14.561 22.3263L14.5599 22.2732V22.2082C14.5599 21.4718 15.1439 20.868 15.8799 20.8435C16.5851 20.8201 17.1758 21.3727 17.1992 22.0779C17.1997 22.092 17.1999 22.1062 17.1999 22.1203Z" fill="#FF8A00"/>
</svg>
