<svg width="20" height="20" viewBox="0 0 20 20" fill="none" xmlns="http://www.w3.org/2000/svg">
<path d="M10.9452 1C11.4186 1 11.8726 1.18807 12.2074 1.52283L16.9068 6.22209C17.2416 6.55686 17.4297 7.01092 17.4297 7.48437V16.1736C17.4297 17.7346 16.1642 19 14.6032 19H5.82643C4.26543 19 3 17.7346 3 16.1736V3.82655C3 2.26555 4.26543 1 5.82643 1H10.9452ZM10.2147 2.63635H5.82643C5.18161 2.63635 4.6565 3.14932 4.63692 3.78948L4.63635 3.82655V16.1736C4.63635 16.8184 5.14925 17.3435 5.78936 17.3631L5.82643 17.3636H14.6032C15.2481 17.3636 15.7732 16.8507 15.7927 16.2106L15.7933 16.1736V8.21483L11.033 8.21495C10.5922 8.21495 10.2327 7.86629 10.2155 7.42968L10.2148 7.39677L10.2147 2.63635ZM14.9491 6.57848L11.851 3.48056L11.8512 6.57859L14.9491 6.57848Z" fill="#FF458B"/>
<path d="M6 14V11H7.32107C7.54822 11 7.74698 11.0439 7.91734 11.1318C8.0877 11.2197 8.22021 11.3433 8.31486 11.5024C8.4095 11.6616 8.45683 11.8477 8.45683 12.0605C8.45683 12.2754 8.40801 12.4614 8.31037 12.6187C8.21373 12.7759 8.07774 12.897 7.9024 12.9819C7.72805 13.0669 7.52431 13.1094 7.29118 13.1094H6.50212V12.4766H7.1238C7.22144 12.4766 7.30463 12.46 7.37337 12.4268C7.44311 12.3926 7.49641 12.3442 7.53327 12.2817C7.57113 12.2192 7.59006 12.1455 7.59006 12.0605C7.59006 11.9746 7.57113 11.9014 7.53327 11.8408C7.49641 11.7793 7.44311 11.7324 7.37337 11.7002C7.30463 11.667 7.22144 11.6504 7.1238 11.6504H6.8309V14H6Z" fill="#FF458B"/>
<path d="M9.93929 14H8.76169V11H9.92733C10.2422 11 10.5141 11.0601 10.7433 11.1802C10.9734 11.2993 11.1508 11.4712 11.2753 11.6958C11.4008 11.9194 11.4636 12.1875 11.4636 12.5C11.4636 12.8125 11.4013 13.0811 11.2768 13.3057C11.1523 13.5293 10.9759 13.7012 10.7478 13.8213C10.5196 13.9404 10.2501 14 9.93929 14ZM9.59258 13.3086H9.9094C10.0608 13.3086 10.1899 13.2847 10.2965 13.2368C10.4041 13.189 10.4857 13.1064 10.5415 12.9893C10.5983 12.8721 10.6267 12.709 10.6267 12.5C10.6267 12.291 10.5978 12.1279 10.54 12.0107C10.4833 11.8936 10.3996 11.811 10.289 11.7632C10.1794 11.7153 10.0449 11.6914 9.88549 11.6914H9.59258V13.3086Z" fill="#FF458B"/>
<path d="M11.848 14V11H14V11.6563H12.6789V12.1719H13.8685V12.8281H12.6789V14H11.848Z" fill="#FF458B"/>
</svg>
