<svg width="20" height="20" viewBox="0 0 20 20" fill="none" xmlns="http://www.w3.org/2000/svg">
<path d="M11.7533 1L12.0235 1.00105C14.34 1.01951 15.2206 1.28039 16.1081 1.75504C17.0293 2.24771 17.7523 2.97068 18.245 3.89189L18.2806 3.95931C18.7443 4.84725 18.9936 5.76478 19 8.15406V11.7533C19 14.0455 18.7829 15.0087 18.3728 15.8574C18.3441 15.9599 18.2948 16.0579 18.2251 16.145L18.245 16.1081C17.7523 17.0293 17.0293 17.7523 16.1081 18.245L16.0407 18.2806C15.1526 18.7444 14.2349 18.9937 11.8448 19H8.24668C5.72685 19 4.8131 18.7376 3.89189 18.245C2.97068 17.7523 2.24771 17.0293 1.75504 16.1081L1.7194 16.0407C1.2556 15.1526 1.00628 14.2349 1 11.8448V8.24668C1 5.72685 1.26237 4.8131 1.75504 3.89189C2.24771 2.97068 2.97068 2.24771 3.89189 1.75504L3.95931 1.7194C4.84725 1.25567 5.76478 1.00636 8.15406 1H11.7533ZM4.83817 9.36792L2.63621 10.8954L2.63636 11.8406L2.63807 12.1028C2.65498 13.8298 2.798 14.5566 3.14866 15.2423L3.16607 15.276L3.198 15.3364C3.53816 15.9724 4.02755 16.4618 4.6636 16.802L4.73217 16.838C5.45231 17.2086 6.18667 17.3506 7.98272 17.3628L8.24663 17.3636H11.8406L12.1028 17.3619C12.1338 17.3616 12.1646 17.3613 12.195 17.3609L4.83817 9.36792ZM13.1338 12.3973L11.2838 13.9546L14.2649 17.1937C14.6482 17.1133 14.949 17.0013 15.2423 16.8513L15.276 16.8339L15.3364 16.802C15.8252 16.5406 16.2274 16.191 16.5418 15.7545L13.1338 12.3973ZM11.8429 2.63636H8.24668C6.29709 2.63636 5.51035 2.7717 4.79035 3.13215L4.72405 3.16607L4.6636 3.198C4.02755 3.53816 3.53816 4.02755 3.198 4.6636L3.16201 4.73217C2.79141 5.45231 2.64937 6.18667 2.63723 7.98272L2.63636 8.24663L2.63621 8.90379L4.49123 7.617C4.81674 7.39118 5.2554 7.43177 5.53397 7.70854L5.5596 7.73518L6.70348 8.97812C7.20934 6.75256 9.19184 5.09091 11.562 5.09091C14.3153 5.09091 16.5455 7.33321 16.5455 10.097C16.5455 11.0388 16.2854 11.9441 15.8021 12.7285L17.2207 14.1265C17.3138 13.6162 17.3564 12.9644 17.3628 12.0172L17.3636 11.7533V8.24668C17.3636 6.29709 17.2283 5.51035 16.8678 4.79035L16.8339 4.72405L16.802 4.6636C16.4618 4.02755 15.9724 3.53816 15.3364 3.198L15.2678 3.16201C14.5248 2.77964 13.7667 2.64058 11.8429 2.63636ZM11.562 6.72727C9.71442 6.72727 8.21488 8.23497 8.21488 10.097C8.21488 10.2921 8.23125 10.4846 8.26351 10.6734L10.1745 12.7494L12.6503 10.6653C12.9636 10.4015 13.4217 10.4111 13.7236 10.6822L13.7514 10.7084L14.5903 11.5347C14.7988 11.0907 14.9091 10.6027 14.9091 10.097C14.9091 8.23497 13.4095 6.72727 11.562 6.72727Z" fill="#7B61FF"/>
</svg>
