<svg width="16" height="16" viewBox="0 0 16 16" fill="none" xmlns="http://www.w3.org/2000/svg">
    <path fill-rule="evenodd" clip-rule="evenodd" d="M1.94197 6.12992L0.818932 6.32043C0.340972 6.40065 -0.00663567 6.81176 4.95911e-05 7.29641V8.70355C4.95911e-05 9.18819 0.347657 9.5993 0.825617 9.67952L1.94866 9.86669C2.0623 10.241 2.21605 10.6054 2.39988 10.9563L1.73808 11.8855C1.45732 12.2799 1.50412 12.818 1.84504 13.1589L2.84107 14.155C3.02824 14.3421 3.27558 14.4457 3.53963 14.4457C3.74685 14.4457 3.94739 14.3822 4.11451 14.2619L5.04035 13.6001C5.38796 13.784 5.75228 13.9344 6.12997 14.0513L6.32048 15.1744C6.4007 15.6523 6.81181 16 7.29646 16H8.70694C9.19158 16 9.60269 15.6523 9.68291 15.1744L9.87009 14.0513C10.2344 13.9377 10.5887 13.794 10.9263 13.6168L11.8655 14.2853C12.0326 14.4056 12.2298 14.4691 12.437 14.4691C12.7011 14.4691 12.9484 14.3655 13.1356 14.1784L14.1316 13.1823C14.4759 12.8414 14.5193 12.3033 14.2386 11.9089L13.5801 10.9931C13.7673 10.6455 13.921 10.2811 14.038 9.9068L15.1744 9.71294C15.6524 9.63273 16 9.22161 16 8.73697V7.32983C16 6.84519 15.6524 6.43407 15.1744 6.35386L14.0648 6.16668C13.9511 5.789 13.8041 5.42468 13.6202 5.07373L14.2887 4.13452C14.5695 3.74012 14.5227 3.202 14.1817 2.86107L13.1824 1.86505C12.9985 1.67787 12.7479 1.57426 12.4838 1.57426C12.2766 1.57426 12.0761 1.63776 11.9089 1.75809L10.9898 2.41988C10.6422 2.23271 10.2779 2.07896 9.90351 1.96197L9.70965 0.825567C9.62943 0.347607 9.21832 0 8.73368 0H7.32654C6.84189 0 6.43078 0.347607 6.35056 0.825567L6.16339 1.93524C5.77233 2.05222 5.39464 2.20931 5.03367 2.39983L4.10449 1.73804C3.93737 1.61771 3.74017 1.5542 3.53294 1.5542C3.26889 1.5542 3.02156 1.65782 2.83439 1.84499L1.83836 2.84102C1.49409 3.18194 1.45064 3.72006 1.7314 4.11446L2.39319 5.0403C2.20936 5.38791 2.05895 5.75223 1.94197 6.12992ZM8.01168 5.34784C9.46998 5.34784 10.6522 6.53002 10.6522 7.98832C10.6522 9.44661 9.46998 10.6288 8.01168 10.6288C6.55339 10.6288 5.37121 9.44661 5.37121 7.98832C5.37121 6.53002 6.55339 5.34784 8.01168 5.34784Z" fill="#768394"/>
</svg>
