<svg width="18" height="18" viewBox="0 0 18 18" fill="none" xmlns="http://www.w3.org/2000/svg">
    <path d="M0.900391 10.2752L0.900949 10.0503C0.912716 8.17775 1.11196 7.2088 1.63425 6.22342C1.88613 5.7482 2.20039 5.32285 2.57261 4.95385C2.85829 4.67065 3.31946 4.67265 3.60266 4.95833C3.88586 5.24401 3.88385 5.70517 3.59817 5.98837C3.33121 6.25302 3.10485 6.5594 2.92134 6.90562C2.5143 7.67358 2.36188 8.43402 2.35721 10.149L2.3571 10.2731L2.35804 10.4358C2.37167 11.9802 2.5165 12.7235 2.87237 13.4281L2.92134 13.5226C3.27753 14.1946 3.79552 14.7173 4.46057 15.0762L4.534 15.115C5.26865 15.4953 6.02462 15.639 7.66597 15.6436L10.2838 15.6437L10.5231 15.6419C11.9723 15.6243 12.6934 15.4824 13.3669 15.1438L13.439 15.1068L13.4965 15.0762C14.1615 14.7173 14.6795 14.1946 15.0357 13.5226C15.4428 12.7546 15.5952 11.9942 15.5998 10.2793L15.6 10.1551L15.599 9.99246C15.5854 8.44797 15.4406 7.70471 15.0847 7.00012L15.0357 6.90562C14.8781 6.60821 14.6888 6.3402 14.4694 6.10281C14.1963 5.80742 14.2145 5.3466 14.5099 5.07356C14.8053 4.80051 15.2661 4.81863 15.5391 5.11403C15.8227 5.42088 16.069 5.76284 16.2772 6.13935L16.3246 6.22685L16.3586 6.29191C16.8377 7.21986 17.0321 8.15937 17.0546 9.88377L17.0567 10.153L17.0561 10.378C17.0443 12.2505 16.8451 13.2194 16.3228 14.2048C15.8449 15.1065 15.145 15.8237 14.2572 16.3202L14.1848 16.36L14.1203 16.3943L14.0265 16.4426C13.1186 16.8999 12.1741 17.0827 10.4654 17.0993L10.2859 17.1004H7.74878L7.56629 17.0998C5.70967 17.0877 4.74711 16.886 3.76879 16.3581C2.87423 15.8754 2.16337 15.1692 1.67181 14.2743L1.63244 14.2014L1.59841 14.1363C1.09498 13.1612 0.905921 12.1733 0.900391 10.2752ZM5.6622 3.94408L5.6825 3.92295L8.49173 1.11372C8.76924 0.836218 9.21495 0.82945 9.50066 1.09342L9.52179 1.11372L12.331 3.92295C12.6155 4.20739 12.6155 4.66856 12.331 4.953C12.0535 5.23051 11.6078 5.23728 11.3221 4.97331L11.301 4.953L9.71078 3.36277V11.5919C9.71078 11.9941 9.38468 12.3202 8.98242 12.3202C8.58998 12.3202 8.27002 12.0098 8.25465 11.6212L8.25407 11.5919V3.41124L6.71255 4.953C6.43505 5.23051 5.98933 5.23728 5.70363 4.97331L5.6825 4.953C5.405 4.6755 5.39823 4.22978 5.6622 3.94408Z" fill="#56606D"/>
</svg>
