<svg width="40" height="40" viewBox="0 0 40 40" fill="none" xmlns="http://www.w3.org/2000/svg">
    <path d="M5.35119 6.92862C5.11284 5.9759 5.9759 5.11284 6.92862 5.35119L12.2567 6.68412C12.8864 6.84168 13.5359 6.51073 13.7787 5.90863L15.832 0.814678C16.1992 -0.0961837 17.4047 -0.287119 18.0354 0.465701L21.5624 4.67581C21.9793 5.17344 22.6993 5.28748 23.2495 4.94302L27.9049 2.02887C28.7373 1.50779 29.8248 2.06191 29.8926 3.04165L30.2713 8.52081C30.3161 9.16845 30.8316 9.6839 31.4792 9.72867L36.9584 10.1074C37.9381 10.1752 38.4922 11.2627 37.9711 12.0951L35.057 16.7505C34.7125 17.3007 34.8266 18.0207 35.3242 18.4376L39.5343 21.9646C40.2871 22.5953 40.0962 23.8008 39.1853 24.168L34.0914 26.2213C33.4893 26.4641 33.1583 27.1136 33.3159 27.7433L34.6488 33.0714C34.8872 34.0241 34.0241 34.8872 33.0714 34.6488L27.7433 33.3159C27.1136 33.1583 26.4641 33.4893 26.2213 34.0914L24.168 39.1853C23.8008 40.0962 22.5953 40.2871 21.9646 39.5343L18.4376 35.3242C18.0207 34.8266 17.3007 34.7125 16.7505 35.057L12.0951 37.9711C11.2627 38.4922 10.1752 37.9381 10.1074 36.9584L9.72867 31.4792C9.68391 30.8316 9.16845 30.3161 8.52081 30.2713L3.04165 29.8926C2.06191 29.8248 1.50779 28.7373 2.02888 27.9049L4.94302 23.2495C5.28748 22.6993 5.17344 21.9793 4.67581 21.5624L0.4657 18.0354C-0.287119 17.4047 -0.0961822 16.1992 0.814679 15.832L5.90863 13.7787C6.51073 13.5359 6.84168 12.8864 6.68412 12.2567L5.35119 6.92862Z" fill="#FFEA9F"/>
    <mask id="mask0_17699_429" style="mask-type:alpha" maskUnits="userSpaceOnUse" x="7" y="7" width="26" height="26">
        <ellipse cx="19.7987" cy="19.7982" rx="12.6708" ry="12.6708" fill="#FFC700"/>
    </mask>
    <g mask="url(#mask0_17699_429)">
        <ellipse cx="19.7987" cy="19.7982" rx="12.6708" ry="12.6708" fill="#FFC700"/>
    </g>
    <path d="M3.74219 18.978C3.74219 17.0283 5.3228 15.4478 7.27255 15.4478H32.0779C34.0277 15.4478 35.6083 17.0283 35.6083 18.978V20.3252C35.6083 24.4557 32.2599 27.804 28.1295 27.804C23.9991 27.804 20.6507 24.4557 20.6507 20.3252V20.0001C20.6507 19.4613 20.214 19.0246 19.6752 19.0246C19.1365 19.0246 18.6997 19.4613 18.6997 20.0001V20.3252C18.6997 24.4557 15.3514 27.804 11.221 27.804C7.09056 27.804 3.74219 24.4557 3.74219 20.3252V18.978Z" fill="#FF598B"/>
    <path d="M5.69336 18.5017C5.69336 17.8926 6.18707 17.3989 6.79609 17.3989H15.6462C16.2552 17.3989 16.7489 17.8926 16.7489 18.5017V20.3254C16.7489 23.3783 14.2741 25.8532 11.2212 25.8532C8.16824 25.8532 5.69336 23.3783 5.69336 20.3254V18.5017Z" fill="black"/>
    <path d="M22.6016 18.5017C22.6016 17.8926 23.0953 17.3989 23.7043 17.3989H32.5544C33.1634 17.3989 33.6571 17.8926 33.6571 18.5017V20.3254C33.6571 23.3783 31.1823 25.8532 28.1294 25.8532C25.0764 25.8532 22.6016 23.3783 22.6016 20.3254V18.5017Z" fill="black"/>
</svg>
