<svg width="20" height="20" viewBox="0 0 20 20" fill="none" xmlns="http://www.w3.org/2000/svg">
<path d="M11.7533 1L12.0235 1.00105C14.34 1.01951 15.2206 1.28039 16.1081 1.75504C17.0293 2.24771 17.7523 2.97068 18.245 3.89189L18.2806 3.95931C18.7443 4.84725 18.9936 5.76478 19 8.15406V11.7533C19 14.2731 18.7376 15.1869 18.245 16.1081C17.7523 17.0293 17.0293 17.7523 16.1081 18.245L16.0407 18.2806C15.1526 18.7444 14.2349 18.9937 11.8448 19H8.24668C5.72685 19 4.8131 18.7376 3.89189 18.245C2.97068 17.7523 2.24771 17.0293 1.75504 16.1081L1.7194 16.0407C1.2556 15.1526 1.00628 14.2349 1 11.8448V8.24668C1 5.72685 1.26237 4.8131 1.75504 3.89189C2.24771 2.97068 2.97068 2.24771 3.89189 1.75504L3.95931 1.7194C4.84725 1.25567 5.76478 1.00636 8.15406 1H11.7533ZM11.8429 2.63636H8.24668C6.29709 2.63636 5.51035 2.7717 4.79035 3.13215L4.72405 3.16607L4.6636 3.198C4.02755 3.53816 3.53816 4.02755 3.198 4.6636L3.16201 4.73217C2.79141 5.45231 2.64937 6.18667 2.63723 7.98272L2.63636 8.24663V11.8406L2.63807 12.1028C2.65498 13.8298 2.798 14.5566 3.14866 15.2423L3.16607 15.276L3.198 15.3364C3.53816 15.9724 4.02755 16.4618 4.6636 16.802L4.73217 16.838C5.45231 17.2086 6.18667 17.3506 7.98272 17.3628L8.24663 17.3636H11.8406L12.1028 17.3619C13.8298 17.345 14.5566 17.202 15.2423 16.8513L15.276 16.8339L15.3364 16.802C15.9724 16.4618 16.4618 15.9724 16.802 15.3364L16.838 15.2678C17.2086 14.5477 17.3506 13.8133 17.3628 12.0172L17.3636 11.7533V8.24668C17.3636 6.29709 17.2283 5.51035 16.8678 4.79035L16.8339 4.72405L16.802 4.6636C16.4618 4.02755 15.9724 3.53816 15.3364 3.198L15.2678 3.16201C14.5248 2.77964 13.7667 2.64058 11.8429 2.63636ZM7.02479 6.28099C7.02479 5.62521 7.75767 5.23591 8.30104 5.60306L13.8052 9.32206C14.2853 9.64649 14.2853 10.3535 13.8052 10.6779L8.30104 14.3969C7.75767 14.7641 7.02479 14.3748 7.02479 13.719V6.28099ZM8.66116 7.82126V12.1786L11.8855 10L8.66116 7.82126Z" fill="#FF1313"/>
</svg>
