<svg width="18" height="18" viewBox="0 0 18 18" fill="none" xmlns="http://www.w3.org/2000/svg">
    <rect x="18" y="18" width="18" height="18" rx="9" transform="rotate(-180 18 18)" fill="#A9B5C1"/>
    <path fill-rule="evenodd" clip-rule="evenodd" d="M8.99707 4.66675C8.44478 4.66675 7.99707 5.11446 7.99707 5.66675L7.99707 9.00008C7.99707 9.55237 8.44478 10.0001 8.99707 10.0001C9.54935 10.0001 9.99707 9.55237 9.99707 9.00008L9.99707 5.66675C9.99707 5.11446 9.54935 4.66675 8.99707 4.66675ZM9.00098 11C8.31062 11 7.75098 11.5596 7.75098 12.25C7.75098 12.9404 8.31062 13.5 9.00098 13.5C9.69133 13.5 10.251 12.9404 10.251 12.25C10.251 11.5596 9.69133 11 9.00098 11Z" fill="white"/>
</svg>
