<svg width="20" height="20" viewBox="0 0 20 20" fill="none" xmlns="http://www.w3.org/2000/svg">
<path d="M10.9452 1C11.4186 1 11.8726 1.18807 12.2074 1.52283L16.9068 6.22209C17.2416 6.55686 17.4297 7.01092 17.4297 7.48437V16.1736C17.4297 17.7346 16.1642 19 14.6032 19H5.82643C4.26543 19 3 17.7346 3 16.1736V3.82655C3 2.26555 4.26543 1 5.82643 1H10.9452ZM10.2147 2.63635H5.82643C5.18161 2.63635 4.6565 3.14932 4.63692 3.78948L4.63635 3.82655V16.1736C4.63635 16.8184 5.14925 17.3435 5.78936 17.3631L5.82643 17.3636H14.6032C15.2481 17.3636 15.7732 16.8507 15.7927 16.2106L15.7933 16.1736V8.21483L11.033 8.21495C10.5922 8.21495 10.2327 7.86629 10.2155 7.42968L10.2148 7.39677L10.2147 2.63635ZM14.9491 6.57848L11.851 3.48056L11.8512 6.57859L14.9491 6.57848Z" fill="#FF8A00"/>
<path d="M6.49979 14.0545V13.5952L7.94354 11.6682H6.50575V11H8.9995V11.4594L7.55575 13.3864H8.99354V14.0545H6.49979Z" fill="#FF8A00"/>
<path d="M10.607 11V14.0545H9.77772V11H10.607Z" fill="#FF8A00"/>
<path d="M11.3908 14.0545V11H12.7093C12.936 11 13.1344 11.0447 13.3044 11.1342C13.4744 11.2237 13.6067 11.3495 13.7011 11.5116C13.7956 11.6737 13.8428 11.8631 13.8428 12.0798C13.8428 12.2986 13.7941 12.488 13.6967 12.6481C13.6002 12.8082 13.4645 12.9315 13.2895 13.018C13.1155 13.1045 12.9121 13.1477 12.6795 13.1477H11.892V12.5034H12.5124C12.6099 12.5034 12.6929 12.4865 12.7615 12.4527C12.8311 12.4179 12.8843 12.3687 12.9211 12.305C12.9589 12.2414 12.9778 12.1663 12.9778 12.0798C12.9778 11.9923 12.9589 11.9178 12.9211 11.8561C12.8843 11.7935 12.8311 11.7457 12.7615 11.7129C12.6929 11.6791 12.6099 11.6622 12.5124 11.6622H12.2201V14.0545H11.3908Z" fill="#FF8A00"/>
<rect x="6" y="2" width="1" height="1" fill="#FF8A00"/>
<rect x="6" y="6" width="1" height="1" fill="#FF8A00"/>
<rect x="7" y="3" width="1" height="1" fill="#FFA800"/>
<rect x="7" y="5" width="1" height="1" fill="#FFA800"/>
<rect x="7" y="7" width="1" height="1" fill="#FFA800"/>
<rect x="7" y="9" width="1" height="1" fill="#FFA800"/>
<rect x="6" y="4" width="1" height="1" fill="#FF8A00"/>
<rect x="6" y="8" width="1" height="1" fill="#FF8A00"/>
</svg>
