<svg width="18" height="18" viewBox="0 0 18 18" fill="none" xmlns="http://www.w3.org/2000/svg">
    <path d="M4.83987 16.8885L1.47448 17.0988C1.17636 17.1175 0.919588 16.8909 0.900956 16.5928C0.899551 16.5703 0.899551 16.5478 0.900956 16.5253L1.11129 13.1599C1.11951 13.0284 1.17546 12.9044 1.26864 12.8112L5.58927 8.4905L5.57296 8.43607C4.98999 6.44536 5.49345 4.26189 6.96116 2.7231L7.00936 2.67316L7.05933 2.62259C9.35625 0.325673 13.0803 0.325673 15.3772 2.62259C17.6741 4.9195 17.6741 8.64354 15.3772 10.9405C13.8503 12.4673 11.6456 13.0111 9.62856 12.4454L9.56357 12.4268L9.50918 12.4106L5.18856 16.7311C5.09538 16.8243 4.97139 16.8803 4.83987 16.8885ZM2.45229 15.5476L4.38997 15.4264L9.13372 10.6826L9.58862 10.8639C11.2073 11.509 13.072 11.1423 14.3255 9.88877C16.0416 8.17269 16.0416 5.39036 14.3255 3.67427C12.6094 1.95819 9.8271 1.95819 8.11101 3.67427C6.87177 4.91351 6.49924 6.75008 7.11424 8.35578L7.13584 8.41105L7.31711 8.86593L2.57342 13.6099L2.45229 15.5476ZM10.7858 7.21399C11.3666 7.79482 12.3083 7.79482 12.8892 7.21399C13.47 6.63316 13.47 5.69145 12.8892 5.11062C12.3083 4.52979 11.3666 4.52979 10.7858 5.11062C10.205 5.69145 10.205 6.63316 10.7858 7.21399Z" fill="#56606D"/>
</svg>
