<svg width="18" height="18" viewBox="0 0 18 18" fill="none" xmlns="http://www.w3.org/2000/svg">
    <path d="M4.83996 16.8885L1.47457 17.0988C1.17645 17.1175 0.919679 16.8909 0.901047 16.5928C0.899643 16.5703 0.899643 16.5478 0.901047 16.5253L1.11138 13.1599C1.1196 13.0284 1.17556 12.9044 1.26873 12.8112L5.58936 8.4905L5.57305 8.43607C4.99009 6.44536 5.49354 4.26189 6.96125 2.7231L7.00946 2.67316L7.05942 2.62259C9.35634 0.325673 13.0804 0.325673 15.3773 2.62259C17.6742 4.9195 17.6742 8.64354 15.3773 10.9405C13.8504 12.4673 11.6456 13.011 9.62866 12.4454L9.56366 12.4268L9.50927 12.4106L5.18865 16.7311C5.09547 16.8243 4.97148 16.8803 4.83996 16.8885ZM2.45238 15.5476L4.39006 15.4264L9.13381 10.6826L9.58871 10.8639C11.2074 11.509 13.0721 11.1423 14.3256 9.88877C16.0417 8.17269 16.0417 5.39036 14.3256 3.67427C12.6095 1.95819 9.82719 1.95819 8.11111 3.67427C6.87187 4.91351 6.49933 6.75008 7.11433 8.35578L7.13593 8.41105L7.3172 8.86593L2.57351 13.6099L2.45238 15.5476ZM10.7859 7.21399C11.3667 7.79482 12.3084 7.79482 12.8893 7.21399C13.4701 6.63316 13.4701 5.69145 12.8893 5.11062C12.3084 4.52979 11.3667 4.52979 10.7859 5.11062C10.2051 5.69145 10.2051 6.63316 10.7859 7.21399Z" fill="#56606D"/>
</svg>
