<svg width="18" height="18" viewBox="0 0 18 18" fill="none" xmlns="http://www.w3.org/2000/svg">
    <path d="M9.06951 1.3501C11.7078 1.3501 13.8466 3.48887 13.8466 6.12719C13.8466 7.71029 13.0765 9.11354 11.8905 9.98277C14.2698 10.8566 16.1437 12.779 16.9536 15.1907C16.9786 15.2652 17.0026 15.3401 17.0256 15.4155L17.0593 15.529C17.2169 16.0739 16.9029 16.6435 16.3579 16.8011C16.2651 16.8279 16.1691 16.8415 16.0725 16.8415H1.91866C1.35607 16.8415 0.899994 16.3854 0.899994 15.8228C0.899994 15.7435 0.909264 15.6645 0.927579 15.5874L0.939652 15.5414C0.972763 15.4262 1.00827 15.312 1.04612 15.199C1.86492 12.7524 3.77827 10.8083 6.20389 9.94947C5.04325 9.07822 4.29242 7.69039 4.29242 6.12719C4.29242 3.48887 6.43119 1.3501 9.06951 1.3501ZM9.00126 10.9725C6.16795 10.9725 3.66508 12.7019 2.62223 15.2641L2.59178 15.3401H15.4107L15.4102 15.3389C14.3965 12.7625 11.9143 11.0093 9.09055 10.9731L9.00126 10.9725ZM9.06951 2.85147C7.26038 2.85147 5.79379 4.31806 5.79379 6.12719C5.79379 7.93631 7.26038 9.4029 9.06951 9.4029C10.8786 9.4029 12.3452 7.93631 12.3452 6.12719C12.3452 4.31806 10.8786 2.85147 9.06951 2.85147Z" fill="#56606D"/>
</svg>
