<svg width="18" height="18" viewBox="0 0 18 18" fill="none" xmlns="http://www.w3.org/2000/svg">
    <path d="M9.0699 1.3501C11.7082 1.3501 13.847 3.48887 13.847 6.12718C13.847 7.71029 13.0769 9.11354 11.8909 9.98277C14.2702 10.8566 16.1441 12.779 16.954 15.1907C16.979 15.2652 17.003 15.3401 17.026 15.4155L17.0597 15.529C17.2173 16.0739 16.9033 16.6435 16.3583 16.8011C16.2655 16.8279 16.1695 16.8415 16.0729 16.8415H1.91906C1.35646 16.8415 0.900391 16.3854 0.900391 15.8228C0.900391 15.7435 0.909661 15.6645 0.927976 15.5874L0.940048 15.5414C0.97316 15.4262 1.00867 15.312 1.04651 15.199C1.86532 12.7524 3.77866 10.8083 6.20429 9.94947C5.04365 9.07822 4.29282 7.69038 4.29282 6.12718C4.29282 3.48887 6.43159 1.3501 9.0699 1.3501ZM9.00166 10.9725C6.16834 10.9725 3.66547 12.7019 2.62263 15.2641L2.59217 15.3401H15.4111L15.4106 15.3389C14.3969 12.7625 11.9147 11.0093 9.09094 10.9731L9.00166 10.9725ZM9.0699 2.85147C7.26077 2.85147 5.79419 4.31806 5.79419 6.12718C5.79419 7.93631 7.26077 9.4029 9.0699 9.4029C10.879 9.4029 12.3456 7.93631 12.3456 6.12718C12.3456 4.31806 10.879 2.85147 9.0699 2.85147Z" fill="#56606D"/>
</svg>
