<svg class="svg" width="19" height="19" viewBox="0 0 19 19" fill="none" xmlns="http://www.w3.org/2000/svg">
    <path class="navigation-svg-path" opacity="0.8" fill-rule="evenodd" clip-rule="evenodd" d="M19 0L18.8777 3.30167L17.3804 3.33154L17.3114 4.86798L15.548 5.164L15.5552 6.62419L14.0737 6.63827L13.8958 8.28354L12.3349 9.84422L13.2397 13.2214C13.3996 13.8182 13.229 14.4549 12.7921 14.8918L9.19044 18.4934C8.75356 18.9303 8.1168 19.1009 7.52001 18.941L2.60009 17.6227C2.00331 17.4628 1.53716 16.9967 1.37725 16.3999L0.0589658 11.48C-0.100943 10.8832 0.0696777 10.2464 0.506556 9.80956L4.10819 6.20793C4.54507 5.77105 5.18183 5.60043 5.77862 5.76034L9.15552 6.66484L15.6983 0.122284L19 0ZM6.52703 12.473C5.78414 11.7301 4.57967 11.7301 3.83678 12.473C3.09389 13.2159 3.09389 14.4203 3.83678 15.1632C4.57967 15.9061 5.78414 15.9061 6.52703 15.1632C7.26992 14.4203 7.26992 13.2159 6.52703 12.473Z" fill="#768394"/>
</svg>