<svg width="18" height="18" viewBox="0 0 18 18" fill="none" xmlns="http://www.w3.org/2000/svg">
    <path d="M14.6972 2.7002L14.8103 2.70076C15.5609 2.70845 15.8499 2.79479 16.1411 2.95055C16.4466 3.11391 16.6863 3.35363 16.8496 3.65909L16.8719 3.70174C17.0209 3.99388 17.1 4.30638 17.1 5.10304V12.213C17.1 13.0486 17.013 13.3516 16.8496 13.657C16.6863 13.9625 16.4466 14.2022 16.1411 14.3655L16.0985 14.3878C15.8063 14.5368 15.4938 14.6159 14.6972 14.6159H3.30285L3.18967 14.6153C2.43914 14.6076 2.15014 14.5213 1.85889 14.3655C1.55344 14.2022 1.31371 13.9625 1.15036 13.657L1.12806 13.6143C0.979092 13.3222 0.900002 13.0097 0.900002 12.213V5.10304L0.900565 4.98986C0.908259 4.23933 0.994595 3.95033 1.15036 3.65909C1.31371 3.35363 1.55344 3.11391 1.85889 2.95055L1.90155 2.92825C2.19368 2.77929 2.50619 2.7002 3.30285 2.7002H14.6972ZM15.6273 8.72499H2.37286L2.37292 12.299C2.3751 12.7642 2.39619 12.8637 2.44903 12.9625C2.47513 13.0113 2.50462 13.0408 2.55343 13.0669L2.57985 13.0801C2.66665 13.1205 2.77737 13.1386 3.13852 13.1424L3.30285 13.1432L14.7831 13.143C15.2483 13.1408 15.3478 13.1197 15.4466 13.0669C15.4954 13.0408 15.5249 13.0113 15.551 12.9625L15.5642 12.9361C15.6102 12.8373 15.6273 12.7075 15.6273 12.213V8.72499ZM3.25889 4.17297C2.75756 4.17408 2.65514 4.19482 2.55343 4.24922C2.50462 4.27532 2.47513 4.30482 2.44903 4.35362L2.43577 4.38004C2.3954 4.46684 2.3773 4.57756 2.3735 4.93871L2.37273 5.10304V6.31507H15.6273V5.05909C15.6261 4.55776 15.6054 4.45533 15.551 4.35362C15.5249 4.30482 15.4954 4.27532 15.4466 4.24922L15.4202 4.23597C15.3274 4.19281 15.2072 4.1751 14.7831 4.17311L3.25889 4.17297Z" fill="#56606D"/>
</svg>
