<svg width="18" height="18" viewBox="0 0 18 18" fill="none" xmlns="http://www.w3.org/2000/svg">
    <path d="M14.6971 2.69995L14.8102 2.70051C15.5608 2.70821 15.8498 2.79454 16.141 2.95031C16.4465 3.11366 16.6862 3.35339 16.8496 3.65884L16.8718 3.7015C17.0208 3.99363 17.0999 4.30614 17.0999 5.1028V12.2128C17.0999 13.0483 17.0129 13.3513 16.8496 13.6568C16.6862 13.9622 16.4465 14.2019 16.141 14.3653L16.0984 14.3876C15.8062 14.5366 15.4937 14.6157 14.6971 14.6157H3.30275L3.18957 14.6151C2.43904 14.6074 2.15004 14.5211 1.85879 14.3653C1.55334 14.2019 1.31362 13.9622 1.15026 13.6568L1.12796 13.6141C0.978993 13.322 0.899902 13.0095 0.899902 12.2128V5.1028L0.900466 4.98962C0.90816 4.23909 0.994496 3.95009 1.15026 3.65884C1.31362 3.35339 1.55334 3.11366 1.85879 2.95031L1.90145 2.92801C2.19358 2.77904 2.50609 2.69995 3.30275 2.69995H14.6971ZM15.6272 8.72474H2.37276L2.37282 12.2988C2.375 12.7639 2.39609 12.8634 2.44893 12.9622C2.47503 13.011 2.50452 13.0405 2.55333 13.0666L2.57975 13.0799C2.66655 13.1203 2.77727 13.1384 3.13842 13.1422L3.30275 13.1429L14.783 13.1427C15.2482 13.1406 15.3477 13.1195 15.4465 13.0666C15.4953 13.0405 15.5248 13.011 15.5509 12.9622L15.5641 12.9358C15.6101 12.837 15.6272 12.7073 15.6272 12.2128V8.72474ZM3.25879 4.17273C2.75746 4.17384 2.65504 4.19458 2.55333 4.24898C2.50452 4.27508 2.47503 4.30457 2.44893 4.35338L2.43567 4.3798C2.3953 4.4666 2.3772 4.57732 2.3734 4.93847L2.37263 5.1028V6.31483H15.6272V5.05884C15.626 4.55751 15.6053 4.45509 15.5509 4.35338C15.5248 4.30457 15.4953 4.27508 15.4465 4.24898L15.4201 4.23572C15.3273 4.19256 15.2071 4.17486 14.783 4.17287L3.25879 4.17273Z" fill="#56606D"/>
</svg>
