<svg width="16" height="16" viewBox="0 0 16 16" fill="none" xmlns="http://www.w3.org/2000/svg">
    <path d="M13.0642 2.3999L13.1648 2.4004C13.8319 2.40724 14.0888 2.48399 14.3477 2.62244C14.6192 2.76765 14.8323 2.98073 14.9775 3.25225L14.9973 3.29017C15.1297 3.54984 15.2 3.82762 15.2 4.53577V10.8558C15.2 11.5985 15.1227 11.8678 14.9775 12.1393C14.8323 12.4108 14.6192 12.6239 14.3477 12.7691L14.3098 12.7889C14.0501 12.9213 13.7723 12.9916 13.0642 12.9916H2.93591L2.83531 12.9911C2.16817 12.9843 1.91128 12.9076 1.6524 12.7691C1.38088 12.6239 1.16779 12.4108 1.02259 12.1393L1.00277 12.1014C0.870352 11.8417 0.800049 11.5639 0.800049 10.8558V4.53577L0.80055 4.43516C0.807389 3.76802 0.884132 3.51114 1.02259 3.25225C1.16779 2.98073 1.38088 2.76765 1.6524 2.62244L1.69031 2.60262C1.94999 2.47021 2.22777 2.3999 2.93591 2.3999H13.0642ZM13.891 7.75527H2.10926L2.10931 10.9322C2.11125 11.3457 2.12999 11.4341 2.17696 11.5219C2.20016 11.5653 2.22638 11.5915 2.26976 11.6147L2.29325 11.6265C2.3704 11.6624 2.46882 11.6785 2.78984 11.6819L2.93591 11.6825L13.1406 11.6824C13.5541 11.6804 13.6425 11.6617 13.7303 11.6147C13.7737 11.5915 13.7999 11.5653 13.8231 11.5219L13.8349 11.4984C13.8758 11.4106 13.891 11.2953 13.891 10.8558V7.75527ZM2.89684 3.70904C2.45121 3.71002 2.36017 3.72846 2.26976 3.77681C2.22638 3.80001 2.20016 3.82623 2.17696 3.86961L2.16518 3.8931C2.12929 3.97025 2.1132 4.06867 2.10983 4.3897L2.10914 4.53577V5.61312H13.891V4.49669C13.8899 4.05107 13.8715 3.96002 13.8231 3.86961C13.7999 3.82623 13.7737 3.80001 13.7303 3.77681L13.7069 3.76503C13.6244 3.72667 13.5176 3.71093 13.1406 3.70916L2.89684 3.70904Z" fill="#56606D"/>
</svg>
