<svg width="18" height="18" viewBox="0 0 18 18" fill="none" xmlns="http://www.w3.org/2000/svg">
    <path d="M16.3547 7.54653C17.7618 8.95364 17.7747 11.2268 16.3776 12.6239C15.8115 13.19 15.1016 13.5246 14.3637 13.6287L14.1104 15.0637C14.0918 16.1895 11.7876 17.0999 8.94789 17.0999C6.12523 17.0999 3.83167 16.2004 3.78608 15.084L3.78565 15.0637L1.84447 4.06585C1.82262 3.98807 1.80863 3.90934 1.80285 3.8298L1.7998 3.81209L1.80171 3.81219C1.80044 3.79015 1.7998 3.76806 1.7998 3.7459C1.7998 2.1741 5.00011 0.899902 8.94789 0.899902C12.8957 0.899902 16.096 2.1741 16.096 3.7459C16.096 3.76806 16.0953 3.79015 16.0941 3.81219L16.096 3.81209L16.0928 3.83099C16.087 3.90963 16.0732 3.98747 16.0517 4.06439L15.5747 6.7665L16.3547 7.54653ZM14.296 5.63425C12.9865 6.22171 11.0758 6.5919 8.94789 6.5919C6.82008 6.5919 4.90941 6.22173 3.59996 5.63431L5.00705 13.6076L5.23711 14.8285L5.25842 14.845C5.37874 14.9353 5.56496 15.037 5.80678 15.135L5.85588 15.1545C6.63533 15.4593 7.746 15.6438 8.94789 15.6438C10.1567 15.6438 11.2731 15.4572 12.0526 15.1495C12.3335 15.0387 12.543 14.9222 12.6659 14.823L12.6759 14.8147L12.9017 13.5347C12.3336 13.3786 11.7953 13.0811 11.3427 12.6428L11.3002 12.601L8.37469 9.67546C8.09038 9.39114 8.09038 8.93017 8.37469 8.64585C8.65208 8.36847 9.09761 8.3617 9.38319 8.62555L9.40431 8.64585L12.3298 11.5714C12.5715 11.8131 12.8553 11.9859 13.1567 12.09L14.296 5.63425ZM15.2659 8.51685L14.6406 12.0596C14.8987 11.9574 15.14 11.8023 15.348 11.5943C16.1639 10.7783 16.1662 9.4493 15.3548 8.6064L15.3251 8.57615L15.2659 8.51685ZM8.94789 2.35599C7.20107 2.35599 5.58107 2.62881 4.43205 3.08629C3.93833 3.28286 3.57099 3.49935 3.35958 3.69836C3.34611 3.71104 3.33381 3.72312 3.32265 3.73457L3.31202 3.74577L3.33123 3.76594L3.35958 3.79345C3.57099 3.99246 3.93833 4.20894 4.43205 4.40552C5.58107 4.863 7.20107 5.13581 8.94789 5.13581C10.6947 5.13581 12.3147 4.863 13.4637 4.40552C13.9575 4.20894 14.3248 3.99246 14.5362 3.79345C14.5497 3.78077 14.562 3.76868 14.5731 3.75723L14.5839 3.74577L14.5646 3.72587L14.5362 3.69836C14.3248 3.49935 13.9575 3.28286 13.4637 3.08629C12.3147 2.62881 10.6947 2.35599 8.94789 2.35599Z" fill="#56606D"/>
</svg>
