<svg width="18" height="18" viewBox="0 0 18 18" fill="none" xmlns="http://www.w3.org/2000/svg">
    <path d="M16.3549 7.54666C17.762 8.95376 17.7748 11.227 16.3778 12.624C15.8117 13.1901 15.1018 13.5247 14.3639 13.6289L14.1106 15.0638C14.092 16.1897 11.7878 17.1 8.94808 17.1C6.12541 17.1 3.83185 16.2006 3.78626 15.0841L3.78583 15.0638L1.84465 4.06597C1.8228 3.98819 1.80882 3.90946 1.80303 3.82992L1.79999 3.81221L1.80189 3.81231C1.80062 3.79028 1.79999 3.76818 1.79999 3.74602C1.79999 2.17422 5.0003 0.900024 8.94808 0.900024C12.8959 0.900024 16.0962 2.17422 16.0962 3.74602C16.0962 3.76818 16.0955 3.79028 16.0943 3.81231L16.0962 3.81221L16.093 3.83111C16.0872 3.90975 16.0734 3.98759 16.0519 4.06451L15.5749 6.76662L16.3549 7.54666ZM14.2961 5.63437C12.9867 6.22183 11.076 6.59202 8.94808 6.59202C6.82026 6.59202 4.90959 6.22185 3.60014 5.63443L5.00723 13.6077L5.23729 14.8286L5.25861 14.8452C5.37892 14.9354 5.56514 15.0371 5.80696 15.1351L5.85606 15.1546C6.63551 15.4594 7.74619 15.6439 8.94808 15.6439C10.1569 15.6439 11.2733 15.4573 12.0527 15.1497C12.3337 15.0388 12.5431 14.9223 12.6661 14.8231L12.6761 14.8148L12.9019 13.5348C12.3338 13.3787 11.7955 13.0812 11.3429 12.6429L11.3004 12.6011L8.37488 9.67559C8.09056 9.39127 8.09056 8.93029 8.37488 8.64597C8.65226 8.36859 9.09779 8.36182 9.38338 8.62568L9.40449 8.64597L12.33 11.5715C12.5717 11.8132 12.8555 11.9861 13.1569 12.0901L14.2961 5.63437ZM15.2661 8.51698L14.6408 12.0597C14.8989 11.9575 15.1402 11.8024 15.3482 11.5944C16.1641 10.7784 16.1664 9.44942 15.3549 8.60652L15.3253 8.57627L15.2661 8.51698ZM8.94808 2.35612C7.20125 2.35612 5.58125 2.62893 4.43223 3.08641C3.93851 3.28298 3.57117 3.49947 3.35976 3.69848C3.34629 3.71116 3.33399 3.72325 3.32283 3.73469L3.31221 3.74589L3.33142 3.76606L3.35976 3.79357C3.57117 3.99258 3.93851 4.20906 4.43223 4.40564C5.58125 4.86312 7.20125 5.13593 8.94808 5.13593C10.6949 5.13593 12.3149 4.86312 13.4639 4.40564C13.9576 4.20906 14.325 3.99258 14.5364 3.79357C14.5499 3.78089 14.5622 3.7688 14.5733 3.75735L14.5841 3.74589L14.5647 3.72599L14.5364 3.69848C14.325 3.49947 13.9576 3.28298 13.4639 3.08641C12.3149 2.62893 10.6949 2.35612 8.94808 2.35612Z" fill="#56606D"/>
</svg>
