<svg width="16" height="16" viewBox="0 0 16 16" fill="none" xmlns="http://www.w3.org/2000/svg">
    <path d="M7.9998 0.800049C11.9763 0.800049 15.1998 4.0236 15.1998 8.00005C15.1998 11.9765 11.9763 15.2 7.9998 15.2C4.02335 15.2 0.799805 11.9765 0.799805 8.00005C0.799805 4.0236 4.02335 0.800049 7.9998 0.800049ZM7.9998 2.12005C4.75237 2.12005 2.1198 4.75261 2.1198 8.00005C2.1198 11.2475 4.75237 13.88 7.9998 13.88C11.2472 13.88 13.8798 11.2475 13.8798 8.00005C13.8798 4.75261 11.2472 2.12005 7.9998 2.12005ZM8.59945 5.51917L8.59972 5.52979L8.59968 7.37845H10.3939C10.7621 7.37845 11.064 7.67044 11.0762 8.03845C11.088 8.39103 10.8117 8.68636 10.4591 8.6981L10.4485 8.69836L8.59968 8.69845L8.5998 10.5368C8.5998 10.9014 8.30431 11.1968 7.9398 11.1968C7.58419 11.1968 7.29426 10.9156 7.28033 10.5634L7.2798 10.5368L7.27968 8.69845H5.4414C5.0769 8.69845 4.7814 8.40296 4.7814 8.03845C4.7814 7.68283 5.06266 7.3929 5.41486 7.37897L5.4414 7.37845H7.27968L7.2798 5.58433C7.2798 5.21613 7.5718 4.91425 7.9398 4.90201C8.29239 4.89028 8.58772 5.16659 8.59945 5.51917Z" fill="#56606D"/>
</svg>
