<svg width="40" height="40" viewBox="0 0 40 40" fill="none" xmlns="http://www.w3.org/2000/svg">
    <path fill-rule="evenodd" clip-rule="evenodd" d="M16.4423 0H23.3463C28.8835 0 31.0805 0.613723 33.2353 1.76617C35.3902 2.91861 37.0814 4.60977 38.2338 6.76466L38.3214 6.93055C39.4029 9.00672 39.9846 11.2 40 16.4423V23.3463C40 28.8835 39.3863 31.0805 38.2338 33.2353C37.0814 35.3902 35.3902 37.0814 33.2353 38.2338L33.0694 38.3214C30.9933 39.4029 28.8 39.9846 23.5577 40H16.6537C11.1165 40 8.91954 39.3863 6.76466 38.2338C4.60977 37.0814 2.91861 35.3902 1.76617 33.2353L1.67858 33.0694C0.597074 30.9933 0.0154219 28.8 0 23.5577V16.6537C0 11.1165 0.613723 8.91954 1.76617 6.76466C2.91861 4.60977 4.60977 2.91861 6.76466 1.76617L6.93055 1.67858C9.00672 0.597074 11.2 0.0154219 16.4423 0Z" fill="#EBEEF1"/>
    <ellipse cx="20.2297" cy="20.2083" rx="12.7703" ry="13.125" fill="#0149FF"/>
    <ellipse cx="10.7432" cy="31.125" rx="4.74324" ry="4.875" fill="#FFC600"/>
    <ellipse cx="30.8513" cy="7.20833" rx="2.14865" ry="2.20833" fill="#00E075"/>
    <path d="M16.2603 16.8333C17.5392 16.8333 18.6523 17.5667 19.2227 18.6448H26.0447L27.6486 20.1269L25.4031 21.9384L24.4407 20.9503L23.4783 21.9384L22.5159 20.9503L21.5535 21.9384H19.2227C18.6523 23.0165 17.5392 23.7499 16.2603 23.7499C14.4 23.7499 12.8919 22.2016 12.8919 20.2916C12.8919 18.3816 14.4 16.8333 16.2603 16.8333ZM15.1375 19.3035C14.606 19.3035 14.1751 19.7459 14.1751 20.2916C14.1751 20.8373 14.606 21.2797 15.1375 21.2797C15.669 21.2797 16.0999 20.8373 16.0999 20.2916C16.0999 19.7459 15.669 19.3035 15.1375 19.3035Z" fill="#F3F5F8"/>
</svg>
