<svg width="40" height="40" viewBox="0 0 40 40" fill="none" xmlns="http://www.w3.org/2000/svg">
    <path fill-rule="evenodd" clip-rule="evenodd" d="M16.4423 0H23.3463C28.8835 0 31.0805 0.613723 33.2353 1.76617C35.3902 2.91861 37.0814 4.60977 38.2338 6.76466L38.3214 6.93055C39.4029 9.00672 39.9846 11.2 40 16.4423V23.3463C40 28.8835 39.3863 31.0805 38.2338 33.2353C37.0814 35.3902 35.3902 37.0814 33.2353 38.2338L33.0694 38.3214C30.9933 39.4029 28.8 39.9846 23.5577 40H16.6537C11.1165 40 8.91954 39.3863 6.76466 38.2338C4.60977 37.0814 2.91861 35.3902 1.76617 33.2353L1.67858 33.0694C0.597074 30.9933 0.0154219 28.8 0 23.5577V16.6537C0 11.1165 0.613723 8.91954 1.76617 6.76466C2.91861 4.60977 4.60977 2.91861 6.76466 1.76617L6.93055 1.67858C9.00672 0.597074 11.2 0.0154219 16.4423 0Z" fill="#EBEEF1"/>
    <rect x="4" y="8" width="31.6484" height="24" rx="4" fill="white"/>
    <rect x="4" y="8" width="31.6484" height="24" rx="4" fill="white"/>
    <path d="M20 8H32C34.2091 8 36 9.79086 36 12V28C36 30.2091 34.2091 32 32 32H20V8Z" fill="white"/>
    <path d="M20 8H32C34.2091 8 36 9.79086 36 12V28C36 30.2091 34.2091 32 32 32H20V8Z" fill="#376FFF"/>
    <rect x="22.7255" y="21.2954" width="10.084" height="1.55139" rx="0.775695" fill="white"/>
    <rect x="22.7255" y="21.2954" width="10.084" height="1.55139" rx="0.775695" fill="white"/>
    <rect x="22.7255" y="17.4165" width="8.53264" height="1.55139" rx="0.775695" fill="white"/>
    <rect x="22.7255" y="17.4165" width="8.53264" height="1.55139" rx="0.775695" fill="white"/>
    <rect x="22.7251" y="13.5378" width="4.65417" height="1.55139" rx="0.775695" fill="white"/>
    <rect x="22.7251" y="13.5378" width="4.65417" height="1.55139" rx="0.775695" fill="white"/>
    <rect x="22.7255" y="25.1733" width="8.53264" height="1.55139" rx="0.775695" fill="white"/>
    <rect x="22.7255" y="25.1733" width="8.53264" height="1.55139" rx="0.775695" fill="white"/>
    <rect x="7.25098" y="21.2954" width="10.084" height="1.55139" rx="0.775695" fill="white"/>
    <rect x="7.25098" y="21.2954" width="10.084" height="1.55139" rx="0.775695" fill="#376FFF"/>
    <rect x="7.25098" y="17.4165" width="8.53264" height="1.55139" rx="0.775695" fill="white"/>
    <rect x="7.25098" y="17.4165" width="8.53264" height="1.55139" rx="0.775695" fill="#376FFF"/>
    <rect x="7.25134" y="13.5378" width="4.65417" height="1.55139" rx="0.775695" fill="white"/>
    <rect x="7.25134" y="13.5378" width="4.65417" height="1.55139" rx="0.775695" fill="#376FFF"/>
    <rect x="7.25098" y="25.1733" width="8.53264" height="1.55139" rx="0.775695" fill="white"/>
    <rect x="7.25098" y="25.1733" width="8.53264" height="1.55139" rx="0.775695" fill="#376FFF"/>
</svg>
