<svg width="19" height="24" viewBox="0 0 19 24" fill="none" xmlns="http://www.w3.org/2000/svg">
                    <path class="navigation-svg-path" d="M17.975 5.74811C17.9448 5.71786 17.9448 5.68878 17.9157 5.65853L17.8854 5.62828L17.8261 5.56895C17.7959 5.53871 17.7668 5.50962 17.7365 5.47937L13.0017 0.744565C12.9715 0.714318 12.9424 0.685233 12.9121 0.654985C12.9121 0.656149 12.8819 0.625901 12.8528 0.625901L12.8226 0.595654C12.7923 0.565407 12.7632 0.565407 12.733 0.536321C12.2862 0.179171 11.7209 0 11.1543 0H3.35157C1.92178 0 0.760742 1.16104 0.760742 2.59083V20.7277C0.760742 22.1575 1.92178 23.3186 3.35157 23.3186H15.9195C17.3493 23.3186 18.5103 22.1575 18.5103 20.7277L18.5115 7.32683C18.5115 6.76144 18.3032 6.19486 17.9751 5.74812L17.975 5.74811ZM16.2183 20.6986C16.2183 20.8475 16.0997 20.9964 15.9205 20.9964H3.35143C3.20252 20.9964 3.05361 20.8777 3.05361 20.6986V2.59177C3.05361 2.44286 3.17227 2.29395 3.35143 2.29395H10.1117V5.77819C10.1117 7.20799 11.2728 8.36902 12.7026 8.36902H16.1868L16.188 20.6983L16.2183 20.6986Z" fill="#354049"/>
                    <path class="navigation-svg-path" d="M7.46108 12.5629C7.46108 13.3151 7.25209 13.88 6.85591 14.2795C6.46064 14.679 5.8791 14.8912 5.15762 14.8912H3.73828V10.4238H5.27393C5.97178 10.4238 6.52969 10.6121 6.90224 10.9648C7.27571 11.3405 7.46106 11.8814 7.46106 12.5629L7.46108 12.5629ZM6.22893 12.6107C6.22893 12.2111 6.15897 11.9053 5.99632 11.694C5.83367 11.4828 5.60105 11.3882 5.27483 11.3882L4.92591 11.3873V13.8801H5.18216C5.55472 13.8801 5.81004 13.7625 5.97268 13.5513C6.13533 13.3391 6.22893 13.0571 6.22893 12.6108V12.6107Z" fill="#354049"/>
                    <path class="navigation-svg-path" d="M11.9283 12.6459C11.9283 13.3788 11.7339 13.9292 11.3696 14.3185C11.0054 14.7077 10.4231 14.8912 9.69462 14.8912C8.96618 14.8912 8.40752 14.7077 8.0433 14.3185C7.65441 13.9292 7.46094 13.3788 7.46094 12.6459C7.46094 11.9129 7.65538 11.3626 8.0433 10.9966C8.43219 10.6073 8.98988 10.4238 9.71832 10.4238C10.4468 10.4238 11.0054 10.6073 11.3933 10.9966C11.7338 11.3626 11.9283 11.9129 11.9283 12.6459H11.9283ZM8.74794 12.6459C8.74794 13.4933 9.06379 13.9059 9.67082 13.9059C9.98667 13.9059 10.2295 13.8146 10.3746 13.6079C10.5207 13.4021 10.5927 13.0808 10.5927 12.6459C10.5927 12.211 10.5197 11.8897 10.3499 11.6839C10.1802 11.478 9.96104 11.3635 9.66986 11.3635C9.06283 11.3859 8.74793 11.7984 8.74793 12.6459L8.74794 12.6459Z" fill="#354049"/>
                    <path class="navigation-svg-path" d="M14.173 11.3808C13.8773 11.3808 13.6307 11.4948 13.4583 11.7227C13.2859 11.9506 13.2117 12.2693 13.2117 12.6575C13.2117 13.4783 13.5565 13.911 14.2472 13.911C14.4446 13.911 14.6662 13.8878 14.8386 13.8424C15.036 13.797 15.2335 13.7285 15.43 13.6599V14.6401C15.0351 14.7995 14.592 14.8912 14.0988 14.8912C13.3841 14.8912 12.8409 14.7087 12.471 14.3214C12.1011 13.9333 11.9287 13.3635 11.9287 12.6566C11.9287 12.2008 12.027 11.8135 12.2003 11.4717C12.3728 11.1298 12.6444 10.8787 12.9892 10.6971C13.334 10.5146 13.729 10.4238 14.1971 10.4238C14.6902 10.4238 15.1834 10.5146 15.6515 10.7203L15.2566 11.6319C15.0842 11.5634 14.9118 11.4948 14.7384 11.4494C14.5669 11.4031 14.3695 11.3809 14.173 11.3809L14.173 11.3808Z" fill="#354049"/>
                </svg>
