<svg width="40" height="40" viewBox="0 0 40 40" fill="none" xmlns="http://www.w3.org/2000/svg">
    <path fill-rule="evenodd" clip-rule="evenodd" d="M16.4423 0H23.3463C28.8835 0 31.0805 0.613722 33.2353 1.76616C35.3902 2.91861 37.0814 4.60977 38.2338 6.76465L38.3214 6.93055C39.4029 9.0067 39.9846 11.2 40 16.4423V23.3463C40 28.8835 39.3863 31.0804 38.2338 33.2353C37.0814 35.3902 35.3902 37.0813 33.2353 38.2338L33.0694 38.3214C30.9933 39.4029 28.8 39.9845 23.5577 39.9999H16.6537C11.1165 39.9999 8.91954 39.3862 6.76466 38.2338C4.60977 37.0813 2.91861 35.3902 1.76617 33.2353L1.67858 33.0694C0.597074 30.9932 0.0154219 28.8 0 23.5576V16.6536C0 11.1165 0.613723 8.91953 1.76617 6.76465C2.91861 4.60977 4.60977 2.91861 6.76466 1.76616L6.93055 1.67858C9.00672 0.597073 11.2 0.0154218 16.4423 0Z" fill="#EBEEF1"/>
    <path fill-rule="evenodd" clip-rule="evenodd" d="M31.2127 30.6406C33.8623 30.6406 36.3479 31.3403 38.4932 32.5643C38.3861 32.791 38.2731 33.0134 38.1544 33.2354C37.0019 35.3903 35.3108 37.0815 33.1559 38.2339L32.99 38.3215C30.9233 39.3981 28.7406 39.9794 23.5499 39.9999L17.5207 40C19.6372 34.5254 24.9694 30.6406 31.2127 30.6406Z" fill="#00E366"/>
    <path d="M31.2396 28.0745C34.4481 28.0745 37.0491 25.4844 37.0491 22.2893C37.0491 19.0943 34.4481 16.5042 31.2396 16.5042C28.0312 16.5042 25.4302 19.0943 25.4302 22.2893C25.4302 25.4844 28.0312 28.0745 31.2396 28.0745Z" fill="#0149FF"/>
    <path fill-rule="evenodd" clip-rule="evenodd" d="M8.65385 30.6406C14.8972 30.6406 20.2293 34.5254 22.3458 40L16.5742 40C11.037 40 8.84006 39.3863 6.68518 38.2339C4.5303 37.0814 2.83913 35.3903 1.68669 33.2354L1.5991 33.0695C1.51406 32.9062 1.4321 32.7422 1.35327 32.5761C3.50303 31.3447 5.99587 30.6406 8.65385 30.6406Z" fill="#0149FF"/>
    <path d="M8.68086 28.0745C11.8893 28.0745 14.4903 25.4844 14.4903 22.2893C14.4903 19.0943 11.8893 16.5042 8.68086 16.5042C5.47242 16.5042 2.87146 19.0943 2.87146 22.2893C2.87146 25.4844 5.47242 28.0745 8.68086 28.0745Z" fill="#FF458B"/>
    <path d="M20.0174 28.0745C23.9523 28.0745 27.1422 24.8979 27.1422 20.9794C27.1422 17.0609 23.9523 13.8843 20.0174 13.8843C16.0825 13.8843 12.8926 17.0609 12.8926 20.9794C12.8926 24.8979 16.0825 28.0745 20.0174 28.0745Z" fill="#FFC600"/>
    <path fill-rule="evenodd" clip-rule="evenodd" d="M19.973 30.6406C25.5735 30.6406 30.4409 33.7667 32.9115 38.3622L32.9899 38.3215C30.9233 39.398 28.7406 39.9793 23.5499 39.9998L16.5742 40C11.3164 40 9.07029 39.4467 7.01215 38.4042C9.47535 33.7858 14.3553 30.6406 19.973 30.6406Z" fill="#FFC600"/>
</svg>
