<svg width="16" height="16" viewBox="0 0 16 16" fill="none" xmlns="http://www.w3.org/2000/svg">
    <path d="M6.88329 0.800049L7.08379 0.800546C8.75276 0.811034 9.61637 0.988623 10.4946 1.45413C10.9182 1.67863 11.2973 1.95873 11.6262 2.29049C11.8786 2.54511 11.8768 2.95615 11.6222 3.20856C11.3676 3.46098 10.9565 3.45919 10.7041 3.20457C10.4683 2.96663 10.1952 2.76487 9.88659 2.60131C9.20212 2.23852 8.52434 2.10267 6.99581 2.09851L6.88518 2.09841L6.7402 2.09925C5.3636 2.11139 4.70114 2.24047 4.07314 2.55766L3.98891 2.60131C3.38994 2.91878 2.92411 3.38046 2.60424 3.97322L2.56964 4.03867C2.23068 4.69345 2.10262 5.36725 2.09851 6.83018L2.09841 9.1634L2.09999 9.37668C2.11572 10.6684 2.2422 11.3111 2.54394 11.9114L2.57694 11.9756L2.60424 12.0269C2.92411 12.6196 3.38994 13.0813 3.98891 13.3988C4.67339 13.7616 5.35117 13.8974 6.87969 13.9016L6.99033 13.9017L7.13531 13.9008C8.5119 13.8887 9.17437 13.7596 9.80237 13.4424L9.88659 13.3988C10.1517 13.2583 10.3906 13.0896 10.6021 12.894C10.8654 12.6507 11.2761 12.6668 11.5195 12.9301C11.7629 13.1934 11.7467 13.6041 11.4834 13.8475C11.2099 14.1003 10.9051 14.3198 10.5696 14.5054L10.4916 14.5476L10.4336 14.5779C9.60651 15.0049 8.76913 15.1782 7.23219 15.1982L6.99222 15.2L6.79172 15.1996C5.12275 15.1891 4.25914 15.0115 3.38087 14.546C2.57722 14.12 1.93794 13.4962 1.49542 12.7049L1.45998 12.6404L1.42935 12.5829L1.38631 12.4992C0.978761 11.6901 0.815816 10.8483 0.801052 9.32533L0.800049 9.16533V6.90399L0.800568 6.74133C0.811343 5.08653 0.991093 4.22861 1.46163 3.35664C1.89188 2.55933 2.52133 1.92573 3.31889 1.48761L3.38393 1.45252L3.44192 1.42219C4.31105 0.973485 5.19156 0.804978 6.88329 0.800049ZM12.5262 5.04422L12.545 5.06232L15.0489 7.56617C15.2962 7.81351 15.3023 8.21078 15.067 8.46543L15.0489 8.48425L12.545 10.9881C12.2915 11.2416 11.8805 11.2416 11.627 10.9881C11.3796 10.7408 11.3736 10.3435 11.6089 10.0889L11.627 10.07L13.0443 8.6527H5.70976C5.35123 8.6527 5.06058 8.36206 5.06058 8.00352C5.06058 7.65374 5.33723 7.36856 5.68365 7.35486L5.70976 7.35434H13.0011L11.627 5.9804C11.3796 5.73306 11.3736 5.3358 11.6089 5.08115L11.627 5.06232C11.8743 4.81498 12.2716 4.80895 12.5262 5.04422Z" fill="#56606D"/>
</svg>
