<svg width="16" height="16" viewBox="0 0 16 16" fill="none" xmlns="http://www.w3.org/2000/svg">
    <path d="M9.24777 0.800049C9.90503 0.800049 10.4378 1.33284 10.4378 1.9901L10.4378 2.18417C10.4378 2.62551 10.7956 2.98329 11.2369 2.9833C11.3772 2.98331 11.515 2.94638 11.6365 2.87625L11.8046 2.7792C12.3738 2.45058 13.1016 2.64561 13.4303 3.21481L14.8584 5.68835C15.1812 6.24756 14.9987 6.9599 14.4524 7.29636L14.4227 7.31401L14.2547 7.41102C13.8915 7.62073 13.767 8.0852 13.9767 8.44845C14.0434 8.56391 14.1392 8.65978 14.2547 8.72644L14.3633 8.78913C14.9325 9.11776 15.1275 9.8456 14.7989 10.4148L13.4303 12.7853C13.1074 13.3445 12.3992 13.5426 11.8347 13.2377L11.8046 13.2209L11.6365 13.1238C11.2543 12.9031 10.7656 13.0341 10.5449 13.4163C10.4747 13.5378 10.4378 13.6756 10.4378 13.8159L10.4378 14.01C10.4379 14.6561 9.92297 15.182 9.28111 15.1996L9.24777 15.2H6.39157C5.73432 15.2 5.2015 14.6672 5.20146 14.01L5.20145 13.919C5.20144 13.5105 4.8703 13.1793 4.46183 13.1794C4.332 13.1794 4.20446 13.2135 4.09203 13.2785L4.01326 13.3239C3.45406 13.6468 2.74172 13.4643 2.40525 12.918L2.38759 12.8884L0.959492 10.4148C0.630894 9.8456 0.825905 9.11777 1.39508 8.7891L1.56321 8.69202C1.94541 8.47134 2.07635 7.98262 1.85567 7.60042C1.78553 7.47894 1.68465 7.37806 1.56316 7.30793L1.39512 7.21092C0.835856 6.88813 0.637769 6.17995 0.942603 5.61541L0.959492 5.58529L2.32809 3.21481C2.65673 2.64561 3.38456 2.45059 3.95378 2.7792L4.06228 2.84184C4.42552 3.05156 4.88999 2.92709 5.09971 2.56385C5.16636 2.44841 5.20145 2.31745 5.20145 2.18415L5.20146 1.99013C5.2015 1.33288 5.73432 0.800049 6.39157 0.800049H9.24777ZM6.51063 2.10902L6.51054 2.18418C6.51054 2.54726 6.41496 2.90394 6.23342 3.21839C5.66902 4.19598 4.42714 4.53859 3.44319 3.99557L3.40237 3.97233L2.15279 6.13662L2.21765 6.17419C2.52213 6.34997 2.77756 6.59894 2.961 6.89818L2.98936 6.94584C3.5647 7.9423 3.23411 9.21322 2.2531 9.80487L2.21779 9.82571L2.15279 9.86324L3.462 12.1309L3.48698 12.1171C3.76948 11.9642 4.08399 11.88 4.40507 11.8711L4.46179 11.8703C5.56725 11.8702 6.46823 12.7458 6.5091 13.8412L6.51039 13.891H9.12881L9.12873 13.8159C9.12872 13.4643 9.21664 13.1186 9.3841 12.8101L9.4112 12.7617C9.98655 11.7652 11.2525 11.4161 12.2554 11.97L12.2911 11.9901L12.3561 12.0275L13.6057 9.86324L13.6001 9.86015C13.3014 9.68766 13.0508 9.44336 12.8708 9.14973L12.843 9.10296C12.2786 8.12536 12.6029 6.87857 13.5651 6.29799L13.6002 6.2773L13.6652 6.2398L12.3561 3.97233L12.291 4.00996C11.9865 4.18574 11.6432 4.28244 11.2923 4.29167L11.2369 4.2924C10.0856 4.29237 9.14994 3.36956 9.12908 2.22313L9.12873 2.18396L9.12881 2.10914L6.51063 2.10902ZM7.92147 4.72732C9.72895 4.72732 11.1942 6.19257 11.1942 8.00005C11.1942 9.80753 9.72895 11.2728 7.92147 11.2728C6.114 11.2728 4.64875 9.80753 4.64875 8.00005C4.64875 6.19257 6.114 4.72732 7.92147 4.72732ZM7.92147 6.03641C6.83699 6.03641 5.95784 6.91556 5.95784 8.00005C5.95784 9.08453 6.83699 9.96369 7.92147 9.96369C9.00596 9.96369 9.88511 9.08453 9.88511 8.00005C9.88511 6.91556 9.00596 6.03641 7.92147 6.03641Z" fill="#56606D"/>
</svg>
