<svg width="40" height="40" viewBox="0 0 40 40" fill="none" xmlns="http://www.w3.org/2000/svg">
    <path fill-rule="evenodd" clip-rule="evenodd" d="M16.4423 0H23.3463C28.8835 0 31.0805 0.613723 33.2353 1.76617C35.3902 2.91861 37.0814 4.60977 38.2338 6.76466L38.3214 6.93055C39.4029 9.00672 39.9846 11.2 40 16.4423V23.3463C40 28.8835 39.3863 31.0805 38.2338 33.2353C37.0814 35.3902 35.3902 37.0814 33.2353 38.2338L33.0694 38.3214C30.9933 39.4029 28.8 39.9846 23.5577 40H16.6537C11.1165 40 8.91954 39.3863 6.76466 38.2338C4.60977 37.0814 2.91861 35.3902 1.76617 33.2353L1.67858 33.0694C0.597074 30.9933 0.0154219 28.8 0 23.5577V16.6537C0 11.1165 0.613723 8.91954 1.76617 6.76466C2.91861 4.60977 4.60977 2.91861 6.76466 1.76617L6.93055 1.67858C9.00672 0.597074 11.2 0.0154219 16.4423 0Z" fill="#EBEEF1"/>
    <circle cx="20.3618" cy="20.3618" r="7.36176" transform="rotate(-45 20.3618 20.3618)" fill="white"/>
    <path fill-rule="evenodd" clip-rule="evenodd" d="M25.5673 25.5673C28.4423 22.6924 28.4423 18.0312 25.5673 15.1562C22.6924 12.2813 18.0312 12.2813 15.1562 15.1562C12.2813 18.0312 12.2813 22.6924 15.1562 25.5673C18.0312 28.4423 22.6924 28.4423 25.5673 25.5673ZM20.3617 16.2081C20.7146 16.2081 21.0006 16.4942 21.0006 16.8471V19.7226H23.8761C24.229 19.7226 24.5151 20.0087 24.5151 20.3616C24.5151 20.7145 24.229 21.0006 23.8761 21.0006H21.0006V23.876C21.0006 24.2289 20.7146 24.515 20.3617 24.515C20.0087 24.515 19.7227 24.2289 19.7227 23.876V21.0006H16.8472C16.4943 21.0006 16.2082 20.7145 16.2082 20.3616C16.2082 20.0087 16.4943 19.7226 16.8472 19.7226H19.7227V16.8471C19.7227 16.4942 20.0087 16.2081 20.3617 16.2081Z" fill="#0149FF"/>
</svg>
