<svg width="37" height="30" viewBox="0 0 50 30" fill="none" xmlns="http://www.w3.org/2000/svg">
    <path d="M6.07346 5.00025C6.07346 2.23883 8.31204 0.000244141 11.0735 0.000244141H38.3799C41.1414 0.000244141 43.3799 2.23882 43.3799 5.00024V26.4618H6.07346V5.00025Z" fill="#376FFF"/>
    <path d="M0 26.0281C0 27.7052 1.35952 29.0647 3.03658 29.0647H46.4162C48.0933 29.0647 49.4528 27.7052 49.4528 26.0281H0Z" fill="#0218A7"/>
    <path fill-rule="evenodd" clip-rule="evenodd" d="M29.9326 19.5676C32.8075 16.6926 32.8075 12.0314 29.9326 9.15645C27.0576 6.28151 22.3964 6.28151 19.5214 9.15645C16.6465 12.0314 16.6465 16.6926 19.5214 19.5676C22.3964 22.4425 27.0576 22.4425 29.9326 19.5676ZM24.7269 10.2084C25.0798 10.2084 25.3659 10.4945 25.3659 10.8474V13.7228H28.2413C28.5942 13.7228 28.8803 14.0089 28.8803 14.3618C28.8803 14.7147 28.5942 15.0008 28.2413 15.0008H25.3659V17.8762C25.3659 18.2291 25.0798 18.5152 24.7269 18.5152C24.374 18.5152 24.0879 18.2291 24.0879 17.8762V15.0008H21.2124C20.8595 15.0008 20.5735 14.7147 20.5735 14.3618C20.5735 14.0089 20.8595 13.7228 21.2124 13.7228H24.0879V10.8474C24.0879 10.4945 24.374 10.2084 24.7269 10.2084Z" fill="white"/>
</svg>
