<svg width="16" height="16" viewBox="0 0 16 16" fill="none" xmlns="http://www.w3.org/2000/svg">
    <path d="M7.87383 0.799805C10.7959 0.799805 13.1702 3.14491 13.2174 6.05572L13.2181 6.14409L13.2182 7.28151C13.4792 7.46716 13.69 7.70744 13.8444 7.99622L13.8777 8.06035C14.0505 8.40357 14.1438 8.7761 14.1477 9.68768V12.2891C14.1477 13.3012 14.0423 13.6682 13.8444 14.0382C13.6465 14.4083 13.3562 14.6987 12.9861 14.8965L12.922 14.9299C12.5788 15.1026 12.2063 15.196 11.2947 15.1997L4.51068 15.1998C3.49856 15.1998 3.13155 15.0944 2.76153 14.8965C2.39152 14.6987 2.10113 14.4083 1.90324 14.0382L1.88038 13.9947C1.70092 13.6456 1.6039 13.2766 1.59998 12.3468V9.74536C1.59998 8.73325 1.70536 8.36623 1.90324 7.99622C2.05768 7.70744 2.26847 7.46716 2.52947 7.28151L2.52955 6.14409C2.52955 3.19252 4.92226 0.799805 7.87383 0.799805ZM11.237 8.14918L4.45839 8.14929L4.32492 8.15037C3.74681 8.15762 3.56759 8.19755 3.38146 8.29709C3.24053 8.37246 3.13778 8.47521 3.06241 8.61614L3.04151 8.65706C2.95717 8.83098 2.92147 9.02767 2.91544 9.5642L2.9145 9.7453L2.9146 12.3414L2.91568 12.4749C2.92294 13.053 2.96287 13.2322 3.06241 13.4183C3.13778 13.5593 3.24053 13.662 3.38146 13.7374L3.42238 13.7583C3.5963 13.8426 3.79298 13.8783 4.32956 13.8843L4.51068 13.8853L11.3305 13.885C11.9792 13.8817 12.1712 13.8416 12.3662 13.7374C12.5071 13.662 12.6099 13.5593 12.6853 13.4183L12.7062 13.3774C12.7905 13.2035 12.8262 13.0068 12.8322 12.4702L12.8332 12.2891L12.8329 9.65184C12.8296 9.00318 12.7895 8.81111 12.6853 8.61614C12.6099 8.47521 12.5071 8.37246 12.3662 8.29709L12.3253 8.2762C12.1514 8.19185 11.9547 8.15616 11.4181 8.15012L11.237 8.14918ZM7.99334 9.58321C8.58733 9.58321 9.06886 10.0647 9.06886 10.6587C9.06886 11.0052 8.90505 11.3134 8.65067 11.5101L8.6506 11.9135C8.6506 12.2765 8.35633 12.5708 7.99334 12.5708C7.63034 12.5708 7.33608 12.2765 7.33608 11.9135L7.33612 11.5101C7.08167 11.3134 6.91782 11.0052 6.91782 10.6587C6.91782 10.0647 7.39934 9.58321 7.99334 9.58321ZM7.87383 2.11433C5.67051 2.11433 3.88019 3.88261 3.84461 6.07746L3.84407 6.14409L3.84399 6.85556C4.0167 6.84273 4.21675 6.83574 4.453 6.83478L11.237 6.83466C11.4986 6.83466 11.7172 6.8417 11.9038 6.85556L11.9036 6.14409C11.9036 3.91852 10.0994 2.11433 7.87383 2.11433Z" fill="#56606D"/>
</svg>
