<svg width="16" height="16" viewBox="0 0 16 16" fill="none" xmlns="http://www.w3.org/2000/svg">
    <path d="M7.67391 12.7993L7.73785 12.8L13.216 12.8C14.7537 12.8 16 11.5527 16 10.0143C16 8.49509 14.7836 7.2566 13.2674 7.22896L13.2219 7.22852L12.6499 7.22859L12.6356 7.04923C12.4471 4.70378 10.4837 2.8896 8.12577 2.8896C6.27206 2.8896 4.6122 4.01898 3.92544 5.73093L3.90468 5.78367L3.85493 5.91241L3.44156 5.91234C1.54071 5.91234 0 7.45433 0 9.3562C0 11.2369 1.5078 12.7691 3.38484 12.7996L3.43622 12.8L7.63231 12.7999L7.67391 12.7993ZM7.59768 11.4866H3.44154L3.40082 11.4863C2.24606 11.4675 1.31343 10.5198 1.31343 9.3562C1.31343 8.17947 2.26634 7.22577 3.44154 7.22577L4.75625 7.2258L5.12855 6.26036L5.14608 6.21583C5.63197 5.00466 6.81012 4.20303 8.12577 4.20303C9.79872 4.20303 11.1927 5.49104 11.3264 7.15443L11.4378 8.54185L13.2159 8.54192L13.2495 8.54226C14.0438 8.55676 14.6866 9.21122 14.6866 10.0143C14.6866 10.8275 14.028 11.4866 13.216 11.4866L7.74514 11.4866L7.68721 11.4858L7.66104 11.4858L7.59768 11.4866Z" fill="#56606D"/>
</svg>
