<svg width="18" height="18" viewBox="0 0 18 18" fill="none" xmlns="http://www.w3.org/2000/svg">
    <path d="M9.00002 2.70001C13.4735 2.70001 17.1 6.29653 17.1 10.7331C17.1 12.3942 16.5916 13.9375 15.7208 15.2184H2.27928C1.4084 13.9375 0.900024 12.3942 0.900024 10.7331C0.900024 6.29653 4.52652 2.70001 9.00002 2.70001ZM9.00002 4.17274C5.33716 4.17274 2.37275 7.11265 2.37275 10.7331C2.37275 11.765 2.61299 12.7594 3.06487 13.6561L3.11099 13.7456H14.8891L14.8922 13.7399C15.3588 12.8463 15.6133 11.8526 15.6267 10.8193L15.6273 10.7331C15.6273 7.11265 12.6629 4.17274 9.00002 4.17274ZM11.7822 8.02529C12.0679 8.29859 12.0856 8.74677 11.8281 9.04152L11.8053 9.0664L9.53215 11.4429C9.25104 11.7368 8.78492 11.7471 8.49103 11.466C8.20531 11.1927 8.18758 10.7445 8.44515 10.4498L8.4679 10.4249L10.7411 8.04842C11.0222 7.75454 11.4883 7.74418 11.7822 8.02529Z" fill="#56606D"/>
</svg>
