<svg width="17" height="16" viewBox="0 0 17 16" fill="none" xmlns="http://www.w3.org/2000/svg">
    <path d="M8.95639 0.869391L8.9817 0.883239L14.7099 4.19135C14.9014 4.30195 15.0042 4.48933 15.0184 4.6824L15.0196 4.70478L15.0201 4.72974V11.2863C15.0201 11.4991 14.9111 11.6965 14.7325 11.81L14.7088 11.8243L8.9806 15.1175C8.79663 15.2232 8.57203 15.2274 8.38493 15.1301L8.35966 15.1162L2.68707 11.823C2.50373 11.7166 2.38796 11.5243 2.37863 11.3138L2.37793 11.2863L2.37814 4.71807L2.37793 4.6991C2.37906 4.49418 2.48173 4.29502 2.66548 4.17829L2.68791 4.16468L8.36055 0.883452C8.53556 0.782217 8.74769 0.773137 8.92937 0.856235L8.95639 0.869391ZM13.7788 5.80398L9.29188 8.39516V13.5066L13.7788 10.9271V5.80398ZM3.61933 5.80917V10.9289L8.05057 13.5013V8.39335L3.61933 5.80917ZM8.67145 2.1375L4.21121 4.71739L8.6728 7.31928L13.1583 4.72879L8.67145 2.1375Z" fill="#56606D"/>
</svg>
