<svg width="18" height="18" viewBox="0 0 18 18" fill="none" xmlns="http://www.w3.org/2000/svg">
    <path d="M9.20081 0.977913L9.22929 0.993492L15.6735 4.71511C15.8889 4.83955 16.0046 5.05035 16.0206 5.26755L16.022 5.29272L16.0225 5.3208V12.6969C16.0225 12.9364 15.8998 13.1584 15.6989 13.2861L15.6723 13.3022L9.22806 17.007C9.02108 17.126 8.76841 17.1306 8.55793 17.0212L8.52949 17.0055L2.14783 13.3007C1.94158 13.181 1.81134 12.9647 1.80084 12.7279L1.80005 12.6969L1.80028 5.30767L1.80005 5.28634C1.80132 5.0558 1.91682 4.83175 2.12354 4.70042L2.14878 4.68511L8.53049 0.993731C8.72739 0.879842 8.96603 0.869627 9.17042 0.963112L9.20081 0.977913ZM14.626 6.52933L9.57824 9.4444V15.1948L14.626 12.2928V6.52933ZM3.19662 6.53517V12.2948L8.18177 15.1888V9.44237L3.19662 6.53517ZM8.88026 2.40454L3.86249 5.30691L8.88178 8.23404L13.928 5.31973L8.88026 2.40454Z" fill="#56606D"/>
</svg>
