<svg width="18" height="18" viewBox="0 0 18 18" fill="none" xmlns="http://www.w3.org/2000/svg">
    <path d="M9.00333 12.5639C9.40025 12.5639 9.72385 12.8778 9.7394 13.2709L9.73998 13.3005V16.3634C9.73998 16.7702 9.41017 17.1 9.00333 17.1C8.60642 17.1 8.28282 16.7861 8.26727 16.393L8.26668 16.3634V13.3005C8.26668 12.8937 8.59649 12.5639 9.00333 12.5639ZM12.5826 11.5386L12.607 11.5619L14.7308 13.6857C15.0185 13.9733 15.0185 14.4398 14.7308 14.7275C14.4511 15.0071 14.0025 15.0149 13.7134 14.7508L13.689 14.7275L11.5652 12.6037C11.2776 12.316 11.2776 11.8496 11.5652 11.5619C11.8367 11.2904 12.2673 11.2751 12.5567 11.516L12.5826 11.5386ZM6.48427 11.4847C6.76322 11.7652 6.7698 12.2138 6.50489 12.5022L6.48152 12.5265L4.29043 14.702C4.00199 14.989 3.53557 14.9877 3.24865 14.6993C2.96971 14.4189 2.96312 13.9702 3.22804 13.6818L3.25141 13.6575L5.44249 11.482C5.73093 11.1951 6.19735 11.1963 6.48427 11.4847ZM4.70546 8.26333C5.1123 8.26333 5.44211 8.59314 5.44211 8.99998C5.44211 9.3969 5.1282 9.7205 4.73509 9.73605L4.70546 9.73663H1.63668C1.22983 9.73663 0.900024 9.40682 0.900024 8.99998C0.900024 8.60306 1.21394 8.27946 1.60705 8.26391L1.63668 8.26333H4.70546ZM16.3669 8.26333C16.7737 8.26333 17.1035 8.59314 17.1035 8.99998C17.1035 9.3969 16.7896 9.7205 16.3965 9.73605L16.3669 9.73663H13.4221C13.0153 9.73663 12.6855 9.40682 12.6855 8.99998C12.6855 8.60306 12.9994 8.27946 13.3925 8.26391L13.4221 8.26333H16.3669ZM4.28857 3.2445L4.31295 3.26781L6.444 5.39886C6.73168 5.68654 6.73168 6.15296 6.444 6.44064C6.16431 6.72033 5.71567 6.7281 5.42659 6.46395L5.40222 6.44064L3.27116 4.30959C2.98348 4.02191 2.98348 3.55549 3.27116 3.26781C3.54263 2.99635 3.97325 2.98105 4.26265 3.2219L4.28857 3.2445ZM14.7337 3.27487C15.0126 3.5553 15.0192 4.00395 14.7543 4.29233L14.7309 4.31665L12.6583 6.37432C12.3699 6.66124 11.9034 6.66001 11.6165 6.37157C11.3376 6.09114 11.331 5.64248 11.5959 5.35411L11.6193 5.32979L13.6919 3.27211C13.9803 2.9852 14.4467 2.98643 14.7337 3.27487ZM9.00333 0.900024C9.40025 0.900024 9.72385 1.21394 9.7394 1.60705L9.73998 1.63668V4.58293C9.73998 4.98977 9.41017 5.31958 9.00333 5.31958C8.60642 5.31958 8.28282 5.00566 8.26727 4.61256L8.26668 4.58293V1.63668C8.26668 1.22983 8.59649 0.900024 9.00333 0.900024Z" fill="#56606D"/>
</svg>
