<svg width="18" height="18" viewBox="0 0 18 18" fill="none" xmlns="http://www.w3.org/2000/svg">
    <path d="M9.00321 12.5637C9.40013 12.5637 9.72373 12.8777 9.73928 13.2708L9.73986 13.3004V16.3633C9.73986 16.7701 9.41005 17.0999 9.00321 17.0999C8.60629 17.0999 8.28269 16.786 8.26715 16.3929L8.26656 16.3633V13.3004C8.26656 12.8936 8.59637 12.5637 9.00321 12.5637ZM12.5825 11.5385L12.6069 11.5618L14.7307 13.6855C15.0184 13.9732 15.0184 14.4396 14.7307 14.7273C14.451 15.007 14.0024 15.0148 13.7133 14.7506L13.6889 14.7273L11.5651 12.6035C11.2774 12.3159 11.2774 11.8494 11.5651 11.5618C11.8366 11.2903 12.2672 11.275 12.5566 11.5159L12.5825 11.5385ZM6.48415 11.4846C6.7631 11.765 6.76968 12.2137 6.50477 12.5021L6.4814 12.5264L4.29031 14.7019C4.00187 14.9888 3.53545 14.9876 3.24853 14.6992C2.96958 14.4187 2.963 13.9701 3.22792 13.6817L3.25129 13.6574L5.44237 11.4819C5.73081 11.1949 6.19723 11.1962 6.48415 11.4846ZM4.70534 8.26321C5.11218 8.26321 5.44199 8.59302 5.44199 8.99986C5.44199 9.39678 5.12808 9.72038 4.73497 9.73592L4.70534 9.73651H1.63655C1.22971 9.73651 0.899902 9.4067 0.899902 8.99986C0.899902 8.60294 1.21382 8.27934 1.60693 8.26379L1.63655 8.26321H4.70534ZM16.3668 8.26321C16.7736 8.26321 17.1034 8.59302 17.1034 8.99986C17.1034 9.39678 16.7895 9.72038 16.3964 9.73592L16.3668 9.73651H13.422C13.0152 9.73651 12.6854 9.4067 12.6854 8.99986C12.6854 8.60294 12.9993 8.27934 13.3924 8.26379L13.422 8.26321H16.3668ZM4.28844 3.24438L4.31282 3.26769L6.44387 5.39874C6.73155 5.68642 6.73155 6.15284 6.44387 6.44052C6.16419 6.72021 5.71555 6.72798 5.42647 6.46383L5.40209 6.44052L3.27104 4.30947C2.98336 4.02179 2.98336 3.55537 3.27104 3.26769C3.54251 2.99623 3.97313 2.98092 4.26253 3.22178L4.28844 3.24438ZM14.7335 3.27475C15.0125 3.55517 15.0191 4.00383 14.7542 4.29221L14.7308 4.31652L12.6582 6.3742C12.3697 6.66112 11.9033 6.65989 11.6164 6.37145C11.3374 6.09102 11.3309 5.64236 11.5958 5.35399L11.6191 5.32967L13.6918 3.27199C13.9802 2.98507 14.4466 2.98631 14.7335 3.27475ZM9.00321 0.899902C9.40013 0.899902 9.72373 1.21382 9.73928 1.60693L9.73986 1.63655V4.58281C9.73986 4.98965 9.41005 5.31946 9.00321 5.31946C8.60629 5.31946 8.28269 5.00554 8.26715 4.61244L8.26656 4.58281V1.63655C8.26656 1.22971 8.59637 0.899902 9.00321 0.899902Z" fill="#56606D"/>
</svg>
