<svg width="18" height="18" viewBox="0 0 18 18" fill="none" xmlns="http://www.w3.org/2000/svg">
    <path d="M14.1279 3.60026C14.9368 3.60439 15.3607 3.69002 15.8015 3.92576C16.2191 4.14911 16.5509 4.4809 16.7742 4.89854C17.016 5.35063 17.0999 5.78498 17.0999 6.63504V11.919C17.0956 12.7279 17.01 13.1518 16.7742 13.5926C16.5509 14.0102 16.2191 14.342 15.8015 14.5653C15.372 14.795 14.9585 14.8822 14.1894 14.8904L14.065 14.891H3.93484C3.08478 14.891 2.65044 14.8071 2.19834 14.5653C1.78071 14.342 1.44891 14.0102 1.22556 13.5926C0.995867 13.1631 0.908685 12.7496 0.900541 11.9805L0.899902 11.8561V6.63504C0.899902 5.78498 0.983778 5.35063 1.22556 4.89854C1.44891 4.4809 1.78071 4.14911 2.19834 3.92576C2.65044 3.68397 3.08478 3.6001 3.93484 3.6001L14.1279 3.60026ZM8.26354 4.9501L3.88469 4.95019C3.31057 4.9523 3.08417 4.99178 2.8723 5.09696L2.835 5.1162C2.65263 5.21374 2.51354 5.35283 2.41601 5.53519C2.29312 5.76498 2.2499 5.98878 2.2499 6.63504V11.9062C2.25211 12.4813 2.29171 12.7075 2.39726 12.9196L2.41601 12.9559C2.51354 13.1383 2.65263 13.2774 2.835 13.3749C3.06478 13.4978 3.28858 13.541 3.93484 13.541H8.26354V4.9501ZM14.1151 4.95019L9.61354 4.9501V13.5409L14.1151 13.5409C14.6727 13.5389 14.9023 13.5016 15.1092 13.4031L15.1285 13.3936L15.1648 13.3749C15.3472 13.2774 15.4863 13.1383 15.5838 12.9559C15.7067 12.7261 15.7499 12.5023 15.7499 11.8561L15.7498 6.58489C15.7477 6.01077 15.7082 5.78436 15.603 5.5725L15.5838 5.53519C15.4863 5.35283 15.3472 5.21374 15.1648 5.1162L15.145 5.10579L15.1285 5.09746C15.1111 5.08877 15.0935 5.08053 15.0757 5.07272C15.074 5.07197 15.0722 5.07119 15.0704 5.07041L15.0757 5.07272C15.0708 5.07061 15.066 5.06853 15.0611 5.06647L15.0704 5.07041C15.0624 5.067 15.0545 5.06367 15.0464 5.06042L15.0611 5.06647C15.0541 5.06353 15.0471 5.06064 15.0399 5.05782L15.0464 5.06042C15.0422 5.05871 15.0379 5.05702 15.0337 5.05536L15.0399 5.05782C15.0266 5.05252 15.013 5.04745 14.9991 5.04259C14.9968 5.04178 14.9944 5.04097 14.9921 5.04016L14.9991 5.04259C14.9908 5.03968 14.9823 5.03684 14.9738 5.03409C14.9475 5.02561 14.9201 5.01786 14.891 5.0108C14.887 5.00983 14.8831 5.00888 14.879 5.00795L14.891 5.0108C14.8823 5.00869 14.8735 5.00664 14.8645 5.00465L14.879 5.00795C14.8712 5.00613 14.8633 5.00436 14.8553 5.00263L14.8645 5.00465C14.8564 5.00284 14.8481 5.00109 14.8397 4.99938L14.8553 5.00263C14.8479 5.00106 14.8405 4.99953 14.8329 4.99803L14.8397 4.99938C14.8153 4.99445 14.7899 4.98994 14.7631 4.98582C14.7581 4.98506 14.7531 4.9843 14.748 4.98357L14.7631 4.98582C14.7547 4.98453 14.7461 4.98328 14.7375 4.98207L14.748 4.98357C14.7246 4.98016 14.7001 4.97704 14.6745 4.9742C14.6658 4.97324 14.6569 4.9723 14.6479 4.97139C14.6354 4.97013 14.6227 4.96894 14.6097 4.96781C14.5936 4.96641 14.5771 4.9651 14.5602 4.96388C14.5551 4.96351 14.55 4.96315 14.5448 4.9628L14.5602 4.96388C14.5478 4.96299 14.5353 4.96214 14.5224 4.96134L14.5448 4.9628C14.5332 4.96201 14.5214 4.96127 14.5095 4.96056L14.5224 4.96134C14.5116 4.96067 14.5005 4.96002 14.4893 4.95941L14.5095 4.96056C14.4817 4.95892 14.4527 4.95748 14.4225 4.95625C14.4213 4.9562 14.4201 4.95615 14.4188 4.9561L14.4225 4.95625C14.4108 4.95577 14.3989 4.95532 14.3869 4.9549L14.4188 4.9561C14.3748 4.95432 14.3281 4.95297 14.2783 4.95199C14.2562 4.95156 14.2336 4.95121 14.2103 4.95092L14.1151 4.95019ZM6.2999 10.7796C6.67269 10.7796 6.9749 11.0819 6.9749 11.4546C6.9749 11.8183 6.68726 12.1149 6.32705 12.1291L6.2999 12.1296H4.09081C3.71802 12.1296 3.41581 11.8274 3.41581 11.4546C3.41581 11.0909 3.70346 10.7944 4.06366 10.7802L4.09081 10.7796H6.2999ZM13.1113 10.7796C13.4841 10.7796 13.7863 11.0819 13.7863 11.4546C13.7863 11.8183 13.4986 12.1149 13.1384 12.1291L13.1113 12.1296H11.5158C11.143 12.1296 10.8408 11.8274 10.8408 11.4546C10.8408 11.0909 11.1285 10.7944 11.4887 10.7802L11.5158 10.7796H13.1113ZM6.2999 8.57055C6.67269 8.57055 6.9749 8.87276 6.9749 9.24555C6.9749 9.60925 6.68726 9.90577 6.32705 9.92002L6.2999 9.92055H4.09081C3.71802 9.92055 3.41581 9.61834 3.41581 9.24555C3.41581 8.88185 3.70346 8.58534 4.06366 8.57109L4.09081 8.57055H6.2999ZM13.7249 8.57055C14.0977 8.57055 14.3999 8.87276 14.3999 9.24555C14.3999 9.60925 14.1123 9.90577 13.7521 9.92002L13.7249 9.92055H11.5158C11.143 9.92055 10.8408 9.61834 10.8408 9.24555C10.8408 8.88185 11.1285 8.58534 11.4887 8.57109L11.5158 8.57055H13.7249ZM6.2999 6.36146C6.67269 6.36146 6.9749 6.66367 6.9749 7.03646C6.9749 7.40016 6.68726 7.69668 6.32705 7.71093L6.2999 7.71146H4.09081C3.71802 7.71146 3.41581 7.40925 3.41581 7.03646C3.41581 6.67276 3.70346 6.37625 4.06366 6.362L4.09081 6.36146H6.2999ZM13.7249 6.36146C14.0977 6.36146 14.3999 6.66367 14.3999 7.03646C14.3999 7.40016 14.1123 7.69668 13.7521 7.71093L13.7249 7.71146H11.5158C11.143 7.71146 10.8408 7.40925 10.8408 7.03646C10.8408 6.67276 11.1285 6.37625 11.4887 6.362L11.5158 6.36146H13.7249Z" fill="#56606D"/>
</svg>
