<svg width="18" height="18" viewBox="0 0 18 18" fill="none" xmlns="http://www.w3.org/2000/svg">
    <path d="M14.1281 3.60013C14.9369 3.60427 15.3608 3.6899 15.8016 3.92564C16.2192 4.14899 16.551 4.48078 16.7744 4.89841C17.0161 5.35051 17.1 5.78485 17.1 6.63492V11.9189C17.0957 12.7277 17.0101 13.1517 16.7744 13.5924C16.551 14.0101 16.2192 14.3419 15.8016 14.5652C15.3721 14.7949 14.9586 14.8821 14.1895 14.8902L14.0651 14.8909H3.93496C3.0849 14.8909 2.65056 14.807 2.19846 14.5652C1.78083 14.3419 1.44904 14.0101 1.22568 13.5924C0.995989 13.163 0.908807 12.7495 0.900663 11.9804L0.900024 11.8559V6.63492C0.900024 5.78485 0.9839 5.35051 1.22568 4.89841C1.44904 4.48078 1.78083 4.14899 2.19846 3.92564C2.65056 3.68385 3.0849 3.59998 3.93496 3.59998L14.1281 3.60013ZM8.26366 4.94998L3.88481 4.95007C3.31069 4.95218 3.08429 4.99165 2.87243 5.09683L2.83512 5.11608C2.65275 5.21361 2.51366 5.3527 2.41613 5.53507C2.29324 5.76486 2.25002 5.98866 2.25002 6.63492V11.9061C2.25223 12.4811 2.29183 12.7073 2.39739 12.9195L2.41613 12.9558C2.51366 13.1382 2.65275 13.2772 2.83512 13.3748C3.0649 13.4977 3.2887 13.5409 3.93496 13.5409H8.26366V4.94998ZM14.1152 4.95007L9.61366 4.94998V13.5408L14.1152 13.5408C14.6728 13.5387 14.9024 13.5014 15.1093 13.4029L15.1286 13.3935L15.1649 13.3748C15.3473 13.2772 15.4864 13.1382 15.5839 12.9558C15.7068 12.726 15.75 12.5022 15.75 11.8559L15.7499 6.58476C15.7478 6.01064 15.7083 5.78424 15.6032 5.57238L15.5839 5.53507C15.4864 5.3527 15.3473 5.21361 15.1649 5.11608L15.1451 5.10567L15.1286 5.09734C15.1112 5.08865 15.0936 5.08041 15.0758 5.0726C15.0741 5.07185 15.0723 5.07107 15.0705 5.07029L15.0758 5.0726C15.071 5.07049 15.0661 5.0684 15.0612 5.06635L15.0705 5.07029C15.0626 5.06688 15.0546 5.06355 15.0466 5.0603L15.0612 5.06635C15.0542 5.0634 15.0472 5.06052 15.0401 5.0577L15.0466 5.0603C15.0423 5.05859 15.0381 5.0569 15.0338 5.05524L15.0401 5.0577C15.0267 5.0524 15.0131 5.04733 14.9992 5.04247C14.9969 5.04166 14.9945 5.04084 14.9922 5.04004L14.9992 5.04247C14.9909 5.03956 14.9825 5.03672 14.9739 5.03396C14.9476 5.02549 14.9202 5.01774 14.8912 5.01068C14.8872 5.00971 14.8832 5.00876 14.8792 5.00782L14.8912 5.01068C14.8825 5.00857 14.8736 5.00652 14.8646 5.00453L14.8792 5.00782C14.8714 5.006 14.8634 5.00423 14.8554 5.00251L14.8646 5.00453C14.8565 5.00272 14.8482 5.00096 14.8398 4.99926L14.8554 5.00251C14.848 5.00094 14.8406 4.99941 14.8331 4.99791L14.8398 4.99926C14.8155 4.99433 14.79 4.98982 14.7632 4.9857C14.7582 4.98493 14.7532 4.98418 14.7481 4.98344L14.7632 4.9857C14.7548 4.98441 14.7463 4.98316 14.7376 4.98194L14.7481 4.98344C14.7247 4.98004 14.7002 4.97692 14.6746 4.97408C14.6659 4.97311 14.6571 4.97217 14.648 4.97127C14.6356 4.97001 14.6228 4.96882 14.6099 4.96769C14.5938 4.96629 14.5773 4.96498 14.5603 4.96375C14.5552 4.96339 14.5501 4.96303 14.5449 4.96268L14.5603 4.96375C14.548 4.96286 14.5354 4.96202 14.5225 4.96122L14.5449 4.96268C14.5333 4.96189 14.5216 4.96114 14.5096 4.96044L14.5225 4.96122C14.5117 4.96055 14.5006 4.9599 14.4894 4.95929L14.5096 4.96044C14.4818 4.9588 14.4528 4.95736 14.4226 4.95612C14.4215 4.95608 14.4202 4.95603 14.4189 4.95598L14.4226 4.95612C14.4109 4.95565 14.3991 4.9552 14.387 4.95478L14.4189 4.95598C14.3749 4.9542 14.3282 4.95284 14.2784 4.95187C14.2564 4.95144 14.2337 4.95108 14.2105 4.9508L14.1152 4.95007ZM6.30002 10.7795C6.67282 10.7795 6.97502 11.0817 6.97502 11.4545C6.97502 11.8182 6.68738 12.1147 6.32717 12.129L6.30002 12.1295H4.09093C3.71814 12.1295 3.41593 11.8273 3.41593 11.4545C3.41593 11.0908 3.70358 10.7943 4.06379 10.7801L4.09093 10.7795H6.30002ZM13.1114 10.7795C13.4842 10.7795 13.7864 11.0817 13.7864 11.4545C13.7864 11.8182 13.4987 12.1147 13.1385 12.129L13.1114 12.1295H11.5159C11.1431 12.1295 10.8409 11.8273 10.8409 11.4545C10.8409 11.0908 11.1286 10.7943 11.4888 10.7801L11.5159 10.7795H13.1114ZM6.30002 8.57043C6.67282 8.57043 6.97502 8.87264 6.97502 9.24543C6.97502 9.60913 6.68738 9.90565 6.32717 9.91989L6.30002 9.92043H4.09093C3.71814 9.92043 3.41593 9.61822 3.41593 9.24543C3.41593 8.88173 3.70358 8.58521 4.06379 8.57097L4.09093 8.57043H6.30002ZM13.725 8.57043C14.0978 8.57043 14.4 8.87264 14.4 9.24543C14.4 9.60913 14.1124 9.90565 13.7522 9.91989L13.725 9.92043H11.5159C11.1431 9.92043 10.8409 9.61822 10.8409 9.24543C10.8409 8.88173 11.1286 8.58521 11.4888 8.57097L11.5159 8.57043H13.725ZM6.30002 6.36134C6.67282 6.36134 6.97502 6.66355 6.97502 7.03634C6.97502 7.40004 6.68738 7.69656 6.32717 7.7108L6.30002 7.71134H4.09093C3.71814 7.71134 3.41593 7.40913 3.41593 7.03634C3.41593 6.67264 3.70358 6.37612 4.06379 6.36188L4.09093 6.36134H6.30002ZM13.725 6.36134C14.0978 6.36134 14.4 6.66355 14.4 7.03634C14.4 7.40004 14.1124 7.69656 13.7522 7.7108L13.725 7.71134H11.5159C11.1431 7.71134 10.8409 7.40913 10.8409 7.03634C10.8409 6.67264 11.1286 6.37612 11.4888 6.36188L11.5159 6.36134H13.725Z" fill="#56606D"/>
</svg>
