<svg width="16" height="16" viewBox="0 0 16 16" fill="none" xmlns="http://www.w3.org/2000/svg">
    <path d="M8.00005 0.800049C10.3223 0.800049 12.3877 1.89942 13.7043 3.60609C13.444 3.4991 13.1589 3.44005 12.86 3.44005C12.4812 3.44005 12.1246 3.53493 11.8126 3.70222C11.8508 3.67571 11.89 3.65043 11.9301 3.62641C10.8887 2.68989 9.51092 2.12005 8.00005 2.12005C6.69775 2.12005 5.49433 2.54342 4.51992 3.26004L5.90005 3.26005C7.25867 3.26005 8.36005 4.36143 8.36005 5.72005C8.36005 7.06481 7.28103 8.15754 5.94156 8.17971L5.90005 8.18005H4.82005C4.48868 8.18005 4.22005 8.44868 4.22005 8.78005C4.22005 9.1027 4.47473 9.36587 4.79402 9.37949L4.82005 9.38005H5.03005C6.1932 9.38005 7.13859 10.3124 7.15969 11.4705L7.16005 11.54C7.16005 12.407 6.64933 13.1546 5.91236 13.4985C6.56109 13.7451 7.26481 13.88 8.00005 13.88C8.68174 13.88 9.33634 13.764 9.94518 13.5507C9.08192 13.1688 8.47961 12.3048 8.47961 11.3C8.47961 9.95529 9.55863 8.86255 10.8981 8.84039L10.9396 8.84005H13.2196C13.551 8.84005 13.8196 8.57142 13.8196 8.24005C13.8196 8.04402 13.7256 7.86995 13.5802 7.76046C14.2606 7.52741 14.7918 6.97293 14.9928 6.27823C15.1282 6.8299 15.2 7.40659 15.2 8.00005C15.2 11.9765 11.9765 15.2 8.00005 15.2C4.0236 15.2 0.800049 11.9765 0.800049 8.00005C0.800049 4.0236 4.0236 0.800049 8.00005 0.800049ZM13.4774 10.1429L13.4458 10.1469C13.3838 10.1541 13.321 10.1585 13.2574 10.1597L13.2196 10.16H10.9396C10.31 10.16 9.79961 10.6704 9.79961 11.3C9.79961 11.9188 10.2926 12.4224 10.9072 12.4396L10.9396 12.44L11.8551 12.4401C12.5665 11.8219 13.1279 11.0355 13.4774 10.1429ZM5.90005 4.58005L3.21639 4.58005C2.52626 5.54364 2.12005 6.72441 2.12005 8.00005C2.12005 9.74009 2.87587 11.3036 4.07712 12.3802L5.00005 12.38C5.4543 12.38 5.82434 12.0195 5.83956 11.5689L5.84005 11.54V11.51C5.84005 11.0722 5.49267 10.7155 5.05849 10.7005L5.03005 10.7H4.82005C3.75966 10.7 2.90005 9.84044 2.90005 8.78005C2.90005 7.73229 3.73932 6.88054 4.78226 6.86041L4.82005 6.86005H5.90005C6.52965 6.86005 7.04005 6.34965 7.04005 5.72005C7.04005 5.1013 6.5471 4.59768 5.93251 4.5805L5.90005 4.58005ZM12.8187 4.34081C13.5477 4.34081 14.1387 4.93179 14.1387 5.66081C14.1387 6.38983 13.5477 6.98081 12.8187 6.98081C12.0897 6.98081 11.4987 6.38983 11.4987 5.66081C11.4987 4.93179 12.0897 4.34081 12.8187 4.34081Z" fill="#56606D"/>
</svg>
