<svg width="16" height="16" viewBox="0 0 16 16" fill="none" xmlns="http://www.w3.org/2000/svg">
    <path d="M9.24801 0.800049C9.90528 0.800049 10.4381 1.33284 10.4381 1.9901L10.4381 2.18417C10.4381 2.62551 10.7958 2.98329 11.2372 2.9833C11.3774 2.98331 11.5152 2.94638 11.6367 2.87625L11.8048 2.7792C12.374 2.45058 13.1019 2.64561 13.4305 3.21481L14.8586 5.68835C15.1815 6.24756 14.9989 6.9599 14.4526 7.29636L14.423 7.31401L14.2549 7.41102C13.8917 7.62073 13.7672 8.0852 13.9769 8.44845C14.0436 8.56391 14.1395 8.65978 14.2549 8.72644L14.3635 8.78913C14.9327 9.11776 15.1277 9.8456 14.7991 10.4148L13.4305 12.7853C13.1077 13.3445 12.3995 13.5426 11.8349 13.2377L11.8048 13.2209L11.6367 13.1238C11.2545 12.9031 10.7658 13.0341 10.5451 13.4163C10.475 13.5378 10.4381 13.6756 10.4381 13.8159L10.4381 14.01C10.4381 14.6561 9.92321 15.182 9.28135 15.1996L9.24801 15.2H6.39181C5.73456 15.2 5.20175 14.6672 5.2017 14.01L5.2017 13.919C5.20169 13.5105 4.87054 13.1793 4.46207 13.1794C4.33224 13.1794 4.2047 13.2135 4.09227 13.2785L4.01351 13.3239C3.4543 13.6468 2.74196 13.4643 2.40549 12.918L2.38784 12.8884L0.959736 10.4148C0.631138 9.8456 0.826149 9.11777 1.39532 8.7891L1.56346 8.69202C1.94565 8.47134 2.07659 7.98262 1.85592 7.60042C1.78578 7.47894 1.68489 7.37806 1.56341 7.30793L1.39536 7.21092C0.8361 6.88813 0.638013 6.17995 0.942847 5.61541L0.959736 5.58529L2.32833 3.21481C2.65697 2.64561 3.38481 2.45059 3.95402 2.7792L4.06252 2.84184C4.42576 3.05156 4.89024 2.92709 5.09995 2.56385C5.1666 2.44841 5.20169 2.31745 5.2017 2.18415L5.2017 1.99013C5.20175 1.33288 5.73456 0.800049 6.39181 0.800049H9.24801ZM6.51088 2.10902L6.51079 2.18418C6.51078 2.54726 6.4152 2.90394 6.23367 3.21839C5.66926 4.19598 4.42738 4.53859 3.44344 3.99557L3.40262 3.97233L2.15303 6.13662L2.2179 6.17419C2.52238 6.34997 2.77781 6.59894 2.96124 6.89818L2.98961 6.94584C3.56495 7.9423 3.23435 9.21322 2.25335 9.80487L2.21803 9.82571L2.15303 9.86324L3.46224 12.1309L3.48722 12.1171C3.76973 11.9642 4.08424 11.88 4.40531 11.8711L4.46204 11.8703C5.56749 11.8702 6.46848 12.7458 6.50934 13.8412L6.51064 13.891H9.12906L9.12897 13.8159C9.12896 13.4643 9.21689 13.1186 9.38435 12.8101L9.41145 12.7617C9.98679 11.7652 11.2528 11.4161 12.2556 11.97L12.2913 11.9901L12.3563 12.0275L13.6059 9.86324L13.6004 9.86015C13.3016 9.68766 13.051 9.44336 12.871 9.14973L12.8432 9.10296C12.2788 8.12536 12.6031 6.87857 13.5654 6.29799L13.6004 6.2773L13.6654 6.2398L12.3563 3.97233L12.2913 4.00996C11.9868 4.18574 11.6435 4.28244 11.2926 4.29167L11.2371 4.2924C10.0859 4.29237 9.15018 3.36956 9.12933 2.22313L9.12897 2.18396L9.12906 2.10914L6.51088 2.10902ZM7.92172 4.72732C9.7292 4.72732 11.1944 6.19257 11.1944 8.00005C11.1944 9.80753 9.7292 11.2728 7.92172 11.2728C6.11424 11.2728 4.64899 9.80753 4.64899 8.00005C4.64899 6.19257 6.11424 4.72732 7.92172 4.72732ZM7.92172 6.03641C6.83723 6.03641 5.95808 6.91556 5.95808 8.00005C5.95808 9.08453 6.83723 9.96369 7.92172 9.96369C9.00621 9.96369 9.88536 9.08453 9.88536 8.00005C9.88536 6.91556 9.00621 6.03641 7.92172 6.03641Z" fill="#56606D"/>
</svg>
