<svg width="40" height="40" viewBox="0 0 40 40" fill="none" xmlns="http://www.w3.org/2000/svg">
    <path fill-rule="evenodd" clip-rule="evenodd" d="M16.4423 0H23.3463C28.8835 0 31.0805 0.613723 33.2353 1.76617C35.3902 2.91861 37.0814 4.60977 38.2338 6.76466L38.3214 6.93056C39.4029 9.00672 39.9846 11.2 40 16.4423V23.3463C40 28.8835 39.3863 31.0805 38.2338 33.2353C37.0814 35.3902 35.3902 37.0814 33.2353 38.2338L33.0694 38.3214C30.9933 39.4029 28.8 39.9846 23.5577 40H16.6537C11.1165 40 8.91954 39.3863 6.76466 38.2338C4.60977 37.0814 2.91861 35.3902 1.76617 33.2353L1.67858 33.0694C0.597074 30.9933 0.0154219 28.8 0 23.5577V16.6537C0 11.1165 0.613723 8.91954 1.76617 6.76466C2.91861 4.60977 4.60977 2.91861 6.76466 1.76617L6.93056 1.67858C9.00672 0.597074 11.2 0.0154219 16.4423 0Z" fill="#EBEEF1"/>
    <path fill-rule="evenodd" clip-rule="evenodd" d="M22.6674 7.93408C24.0241 7.93408 25.124 9.02393 25.124 10.3683V16.1384H17.6633C16.3201 16.1384 15.2287 17.2065 15.207 18.5324L15.2067 18.5726L15.2066 20.6462H9.29783L5.28931 24.1323V10.3683C5.28931 9.02393 6.38916 7.93408 7.7459 7.93408H22.6674Z" fill="white"/>
    <path fill-rule="evenodd" clip-rule="evenodd" d="M35.0411 32.0661L31.0327 28.58H17.6635C16.3067 28.58 15.2069 27.4901 15.2069 26.1457V18.3019C15.2069 16.9575 16.3067 15.8677 17.6635 15.8677H32.5845C33.9412 15.8677 35.0411 16.9575 35.0411 18.3019V32.0661Z" fill="#0149FF"/>
</svg>
