<svg width="32" height="25" viewBox="0 0 32 25" fill="none" xmlns="http://www.w3.org/2000/svg">
    <path fill-rule="evenodd" clip-rule="evenodd" d="M18.48 0.000244141C19.5845 0.000244141 20.48 0.895676 20.48 2.00025V10.8002C20.48 11.9048 19.5845 12.8002 18.48 12.8002H3.29094L-0.000488281 15.3602V10.8802H0.00155258C0.000509262 10.8537 -1.90735e-05 10.827 -1.90735e-05 10.8002V2.00024C-1.90735e-05 0.895675 0.895414 0.000244141 1.99998 0.000244141H18.48Z" fill="#003DC1"/>
    <path fill-rule="evenodd" clip-rule="evenodd" d="M13.52 8.96021C12.4155 8.96021 11.52 9.85564 11.52 10.9602V19.7602C11.52 20.8648 12.4155 21.7602 13.52 21.7602H28.709L32.0005 24.3202V19.8402H31.9984C31.9995 19.8137 32 19.787 32 19.7602V10.9602C32 9.85564 31.1046 8.96021 30 8.96021H13.52Z" fill="#567BF7"/>
</svg>
