<svg width="24" height="24" viewBox="0 0 24 24" fill="none" xmlns="http://www.w3.org/2000/svg">
                    <path class="navigation-svg-path" d="M18.8333 3.56068H7.0359C5.11538 3.56068 3.56068 5.11538 3.56068 7.0359V16.7299L1.91453 18.1932V6.85299C1.91453 4.1094 4.1094 2.00598 6.85299 2.00598H16.1812C16.7299 2.00598 17.1872 2.18889 17.6444 2.46325C17.8274 2.64615 18.1932 2.5547 18.3761 2.37179C18.559 2.18889 18.4675 1.82308 18.2846 1.64017C17.6444 1.18291 17.0043 1 16.2727 1H6.94444C3.65214 1 1 3.65214 1 6.85299V19.2906C1 19.4735 1.09145 19.6564 1.27436 19.7479C1.45726 19.8393 1.64017 19.7479 1.82308 19.6564L3.56068 18.1017V21.8513C3.56068 22.0342 3.65214 22.2171 3.83504 22.3085C3.9265 22.3085 3.9265 22.3085 4.01795 22.3085C4.1094 22.3085 4.29231 22.3085 4.38376 22.2171L7.31026 19.565C7.40171 19.4735 7.49316 19.3821 7.58462 19.3821C7.76752 19.2906 7.85897 19.1077 7.85897 19.1077C7.85897 19.1077 8.04188 19.1077 8.22479 19.1077C8.31624 19.1077 8.40769 19.1077 8.5906 19.1077H18.7419C20.6624 19.1077 22.2171 17.553 22.2171 15.6325V7.0359C22.2171 5.11538 20.7538 3.56068 18.8333 3.56068ZM17.7359 14.0778C17.2786 14.9009 16.6385 15.2667 16.1812 14.9923L15.541 14.7179C15.2667 14.9009 14.9923 15.0838 14.6265 15.2667L14.535 16.0897C14.535 16.6385 13.8949 16.9128 12.9803 16.9128C12.0658 16.9128 11.4256 16.547 11.4256 16.0897L11.3342 15.2667C10.9684 15.1752 10.694 14.9923 10.4197 14.7179L9.68803 15.0838C9.50513 15.1752 9.13932 15.2667 8.7735 14.9009C8.5906 14.7179 8.31624 14.4436 8.22479 14.1692C7.76752 13.3462 7.67607 12.6145 8.13333 12.3402L8.7735 11.8829C8.7735 11.7 8.7735 11.5171 8.7735 11.3342C8.7735 11.1513 8.7735 10.9684 8.7735 10.7855L8.13333 10.3282C7.67607 10.0538 7.76752 9.32222 8.22479 8.49915C8.40769 8.22479 8.5906 7.95043 8.7735 7.76752C9.23077 7.40171 9.50513 7.49316 9.68803 7.58462L10.4197 7.95043C10.694 7.76752 10.9684 7.58462 11.3342 7.40171L11.4256 6.57863C11.4256 6.02991 12.0658 5.75556 12.9803 5.75556C13.9863 5.75556 14.535 6.12137 14.535 6.57863L14.6265 7.40171C14.9923 7.58462 15.2667 7.67607 15.541 7.95043L16.2727 7.58462C16.7299 7.31026 17.2786 7.67607 17.8274 8.49915C18.0103 8.7735 18.1017 9.13932 18.1932 9.41368C18.2846 9.96239 18.1017 10.2368 17.9188 10.3282L17.2786 10.7855C17.2786 10.9684 17.2786 11.1513 17.2786 11.3342C17.2786 11.5171 17.2786 11.7 17.2786 11.8829L17.9188 12.3402C18.2846 12.6145 18.2846 13.2547 17.7359 14.0778Z" fill="#354049"/>
                    <path class="navigation-svg-path" d="M12.8893 13.2551C13.9499 13.2551 14.8098 12.3952 14.8098 11.3346C14.8098 10.2739 13.9499 9.41406 12.8893 9.41406C11.8286 9.41406 10.9688 10.2739 10.9688 11.3346C10.9688 12.3952 11.8286 13.2551 12.8893 13.2551Z" fill="#354049"/>
                </svg>
