<svg class="svg" width="21" height="18" viewBox="0 0 21 18" fill="none" xmlns="http://www.w3.org/2000/svg">
    <path class="navigation-svg-path" opacity="0.8" fill-rule="evenodd" clip-rule="evenodd" d="M14.8165 0C17.7839 0 20.1895 2.40557 20.1895 5.373C20.1895 7.40389 19.0627 9.17161 17.4002 10.0851C19.4392 11.0968 20.8407 13.2 20.8407 15.6305V17.91H8.46655V15.6305C8.46655 13.13 9.94989 10.976 12.0846 10.0004C10.5035 9.06519 9.44345 7.34289 9.44345 5.373C9.44345 2.40557 11.849 0 14.8165 0ZM6.34991 0C7.36246 0 8.3096 0.280088 9.11806 0.767013C8.09966 2.02549 7.48964 3.62801 7.48964 5.373L7.49091 5.51065C7.51986 7.06803 8.03908 8.53529 8.92906 9.73552L8.97519 9.79612L8.94777 9.82267C7.42471 11.3194 6.51273 13.3922 6.51273 15.6305V17.91H0V15.6305C0 13.13 1.48335 10.976 3.61809 10.0004C2.037 9.06519 0.976909 7.34289 0.976909 5.373C0.976909 2.40557 3.38248 0 6.34991 0Z" fill="#768394"/>
</svg>