<svg width="18" height="18" viewBox="0 0 18 18" fill="none" xmlns="http://www.w3.org/2000/svg">
    <path d="M8.9999 0.900391C13.4734 0.900391 17.0999 4.52688 17.0999 9.00039C17.0999 13.4739 13.4734 17.1004 8.9999 17.1004C4.5264 17.1004 0.899902 13.4739 0.899902 9.00039C0.899902 4.52688 4.5264 0.900391 8.9999 0.900391ZM8.9999 2.38539C5.34654 2.38539 2.3849 5.34703 2.3849 9.00039C2.3849 12.6538 5.34654 15.6154 8.9999 15.6154C12.6533 15.6154 15.6149 12.6538 15.6149 9.00039C15.6149 5.34703 12.6533 2.38539 8.9999 2.38539ZM9.4607 4.84557L9.48224 4.86627L12.346 7.73005C12.636 8.02002 12.636 8.49014 12.346 8.78011C12.0631 9.063 11.6088 9.0699 11.3175 8.80081L11.296 8.78011L9.6749 7.15899V12.8479C9.6749 13.258 9.34247 13.5904 8.9324 13.5904C8.53233 13.5904 8.20616 13.274 8.19049 12.8778L8.1899 12.8479V7.2084L6.61846 8.78011C6.33556 9.063 5.88119 9.0699 5.58994 8.80081L5.5684 8.78011C5.28551 8.49722 5.27861 8.04284 5.5477 7.75159L5.5684 7.73005L8.43218 4.86627C8.71508 4.58338 9.16945 4.57648 9.4607 4.84557Z" fill="#56606D"/>
</svg>
