<svg width="37" height="30" viewBox="0 0 37 30" fill="none" xmlns="http://www.w3.org/2000/svg">
    <g clip-path="url(#uploadInWeb)">
        <path fill-rule="evenodd" clip-rule="evenodd" d="M8.98732 0.00952148H28.1754C31.3197 0.00952148 32.4599 0.333375 33.6094 0.941503C34.7589 1.54963 35.6611 2.44204 36.2759 3.57914L36.3124 3.64737C36.9036 4.76215 37.218 5.90634 37.218 8.95449V21.0646L37.2176 21.2488C37.2048 24.22 36.8783 25.3255 36.2759 26.4399C35.6611 27.577 34.7589 28.4694 33.6094 29.0775C32.4714 29.6796 31.3425 30.003 28.2691 30.0095H9.08105C5.93673 30.0095 4.79653 29.6857 3.64702 29.0775C2.4975 28.4694 1.59536 27.577 0.980593 26.4399L0.944052 26.3717C0.358895 25.2683 0.0448844 24.136 0.0384388 21.1573V8.95449C0.0384388 5.84413 0.365827 4.71624 0.980593 3.57914C1.59536 2.44204 2.4975 1.54963 3.64702 0.941503C4.78504 0.339456 5.91393 0.016027 8.98732 0.00952148Z" fill="#EAEFF2"/>
        <mask id="uploadInWebMask" style="mask-type:alpha" maskUnits="userSpaceOnUse" x="0" y="9" width="38" height="22">
            <path d="M0.0384388 9.53101H37.218V21.0644L37.2176 21.2487C37.2048 24.2199 36.8783 25.3254 36.2759 26.4398C35.6611 27.5769 34.7589 28.4693 33.6094 29.0774C32.4714 29.6795 31.3425 30.0029 28.2691 30.0094H9.08105C5.93673 30.0094 4.79653 29.6855 3.64702 29.0774C2.4975 28.4693 1.59536 27.5769 0.980593 26.4398L0.944052 26.3715C0.358895 25.2681 0.0448844 24.1359 0.0384388 21.1571V9.53101Z" fill="white"/>
        </mask>
        <g mask="url(#uploadInWebMask)">
            <path d="M0.0384388 9.53101H37.218V21.0644L37.2176 21.2487C37.2048 24.2199 36.8783 25.3254 36.2759 26.4398C35.6611 27.5769 34.7589 28.4693 33.6094 29.0774C32.4714 29.6795 31.3425 30.0029 28.2691 30.0094H9.08105C5.93673 30.0094 4.79653 29.6855 3.64702 29.0774C2.4975 28.4693 1.59536 27.5769 0.980593 26.4398L0.944052 26.3715C0.358895 25.2681 0.0448844 24.1359 0.0384388 21.1571V9.53101Z" fill="#D1D9DF"/>
            <path fill-rule="evenodd" clip-rule="evenodd" d="M10.0081 9.53101V30.0094H9.08104C5.93673 30.0094 4.79653 29.6856 3.64702 29.0774C2.4975 28.4693 1.59536 27.5769 0.980593 26.4398L0.944052 26.3716C0.358895 25.2682 0.0448844 24.1359 0.0384388 21.1572V9.53101H10.0081Z" fill="#0149FF"/>
            <path fill-rule="evenodd" clip-rule="evenodd" d="M14.2922 12.0693H32.4699C33.2533 12.0693 33.8883 12.6975 33.8883 13.4725V14.5912C33.8883 15.3661 33.2533 15.9943 32.4699 15.9943H14.2922C13.5088 15.9943 12.8738 15.3661 12.8738 14.5912V13.4725C12.8738 12.6975 13.5088 12.0693 14.2922 12.0693Z" fill="white"/>
            <path fill-rule="evenodd" clip-rule="evenodd" d="M14.2922 17.5933H32.4699C33.2533 17.5933 33.8883 18.2215 33.8883 18.9964V20.1151C33.8883 20.89 33.2533 21.5182 32.4699 21.5182H14.2922C13.5088 21.5182 12.8738 20.89 12.8738 20.1151V18.9964C12.8738 18.2215 13.5088 17.5933 14.2922 17.5933Z" fill="white"/>
            <path fill-rule="evenodd" clip-rule="evenodd" d="M14.2922 23.1174H32.4699C33.2533 23.1174 33.8883 23.7456 33.8883 24.5205V25.6393C33.8883 26.4142 33.2533 27.0424 32.4699 27.0424H14.2922C13.5088 27.0424 12.8738 26.4142 12.8738 25.6393V24.5205C12.8738 23.7456 13.5088 23.1174 14.2922 23.1174Z" fill="white"/>
            <path opacity="0.199481" fill-rule="evenodd" clip-rule="evenodd" d="M2.97656 12.0693H7.04657C7.82995 12.0693 8.46501 12.6975 8.46501 13.4725V13.5009C8.46501 14.2758 7.82995 14.904 7.04657 14.904H2.97656C2.20152 14.904 1.57166 14.2891 1.55835 13.5256L1.55813 13.4725C1.55813 12.6975 2.19319 12.0693 2.97656 12.0693Z" fill="white"/>
            <path opacity="0.199481" fill-rule="evenodd" clip-rule="evenodd" d="M2.97656 16.7212H7.04657C7.82995 16.7212 8.46501 17.3494 8.46501 18.1243V18.1527C8.46501 18.9277 7.82995 19.5559 7.04657 19.5559H2.97656C2.20152 19.5559 1.57166 18.941 1.55835 18.1774L1.55813 18.1243C1.55813 17.3494 2.19319 16.7212 2.97656 16.7212Z" fill="white"/>
            <path opacity="0.199481" fill-rule="evenodd" clip-rule="evenodd" d="M2.97656 21.3728H7.04657C7.82995 21.3728 8.46501 22.001 8.46501 22.7759V22.8044C8.46501 23.5793 7.82995 24.2075 7.04657 24.2075H2.97656C2.20152 24.2075 1.57166 23.5926 1.55835 22.829L1.55813 22.7759C1.55813 22.001 2.19319 21.3728 2.97656 21.3728Z" fill="white"/>
        </g>
        <path d="M5.61816 6.85977C6.60241 6.85977 7.4003 6.07049 7.4003 5.09688C7.4003 4.12326 6.60241 3.33398 5.61816 3.33398C4.63392 3.33398 3.83603 4.12326 3.83603 5.09688C3.83603 6.07049 4.63392 6.85977 5.61816 6.85977Z" fill="#FF458B"/>
        <path d="M10.9646 6.85977C11.9488 6.85977 12.7467 6.07049 12.7467 5.09688C12.7467 4.12326 11.9488 3.33398 10.9646 3.33398C9.98031 3.33398 9.18243 4.12326 9.18243 5.09688C9.18243 6.07049 9.98031 6.85977 10.9646 6.85977Z" fill="#FFC600"/>
        <path d="M16.311 6.85977C17.2952 6.85977 18.0931 6.07049 18.0931 5.09688C18.0931 4.12326 17.2952 3.33398 16.311 3.33398C15.3267 3.33398 14.5288 4.12326 14.5288 5.09688C14.5288 6.07049 15.3267 6.85977 16.311 6.85977Z" fill="#00E567"/>
    </g>
    <defs>
        <clipPath id="uploadInWeb">
            <rect width="37" height="30" fill="white" transform="translate(0 0.000244141)"/>
        </clipPath>
    </defs>
</svg>
