<svg width="40" height="40" viewBox="0 0 40 40" fill="none" xmlns="http://www.w3.org/2000/svg">
    <path fill-rule="evenodd" clip-rule="evenodd" d="M16.4423 0H23.3463C28.8835 0 31.0805 0.613723 33.2353 1.76617C35.3902 2.91861 37.0814 4.60977 38.2338 6.76466L38.3214 6.93055C39.4029 9.00672 39.9846 11.2 40 16.4423V23.3463C40 28.8835 39.3863 31.0805 38.2338 33.2353C37.0814 35.3902 35.3902 37.0814 33.2353 38.2338L33.0694 38.3214C30.9933 39.4029 28.8 39.9846 23.5577 40H16.6537C11.1165 40 8.91954 39.3863 6.76466 38.2338C4.60977 37.0814 2.91861 35.3902 1.76617 33.2353L1.67858 33.0694C0.597074 30.9933 0.0154219 28.8 0 23.5577V16.6537C0 11.1165 0.613723 8.91954 1.76617 6.76466C2.91861 4.60977 4.60977 2.91861 6.76466 1.76617L6.93055 1.67858C9.00672 0.597074 11.2 0.0154219 16.4423 0Z" fill="#C8D3DE"/>
    <path fill-rule="evenodd" clip-rule="evenodd" d="M16.4703 0H23.3661C28.8967 0 31.0911 0.613723 33.2434 1.76617C35.3957 2.91861 37.0849 4.60977 38.236 6.76466L38.3235 6.93055C39.4037 9.00672 39.9846 11.2 40 16.4423V23.3463C40 28.8835 39.387 31.0805 38.236 33.2353C37.0849 35.3902 35.3957 37.0814 33.2434 38.2338L33.0777 38.3214C31.004 39.4029 28.8134 39.9846 23.5772 40H16.6814C11.1508 40 8.95643 39.3863 6.80411 38.2338C4.65178 37.0814 2.96262 35.3902 1.81154 33.2353L1.72406 33.0694C0.643836 30.9933 0.0628737 28.8 0.0474701 23.5577V16.6537C0.0474701 11.1165 0.660465 8.91954 1.81154 6.76466C2.96262 4.60977 4.65178 2.91861 6.80411 1.76617L6.96981 1.67858C9.04351 0.597074 11.2342 0.0154219 16.4703 0Z" fill="#EBEEF1"/>
    <path fill-rule="evenodd" clip-rule="evenodd" d="M20.7192 8L27.0794 14.3603V29.4287H12V8L20.7192 8Z" fill="#0149FF"/>
    <path d="M18.4817 14.6135H15.8361C15.4709 14.6135 15.1748 14.9096 15.1748 15.2749C15.1748 15.6402 15.4709 15.9363 15.8361 15.9363H18.4817C18.8469 15.9363 19.143 15.6402 19.143 15.2749C19.143 14.9096 18.8469 14.6135 18.4817 14.6135Z" fill="white"/>
    <path d="M23.2436 17.7883H15.8361C15.4709 17.7883 15.1748 18.0844 15.1748 18.4497C15.1748 18.815 15.4709 19.1111 15.8361 19.1111H23.2436C23.6089 19.1111 23.905 18.815 23.905 18.4497C23.905 18.0844 23.6089 17.7883 23.2436 17.7883Z" fill="white"/>
    <path d="M23.2436 20.9629H15.8361C15.4709 20.9629 15.1748 21.259 15.1748 21.6243C15.1748 21.9895 15.4709 22.2856 15.8361 22.2856H23.2436C23.6089 22.2856 23.905 21.9895 23.905 21.6243C23.905 21.259 23.6089 20.9629 23.2436 20.9629Z" fill="white"/>
    <path d="M23.2436 24.1375H15.8361C15.4709 24.1375 15.1748 24.4336 15.1748 24.7988C15.1748 25.1641 15.4709 25.4602 15.8361 25.4602H23.2436C23.6089 25.4602 23.905 25.1641 23.905 24.7988C23.905 24.4336 23.6089 24.1375 23.2436 24.1375Z" fill="white"/>
    <path fill-rule="evenodd" clip-rule="evenodd" d="M20.7196 14.3601V7.99986L27.0798 14.3601L20.7196 14.3601Z" fill="#00127F"/>
    <circle cx="26.8149" cy="28.8149" r="5.8149" fill="white"/>
    <path d="M27.3584 25.7685L27.3752 25.7846L29.6025 28.012C29.8281 28.2375 29.8281 28.6032 29.6025 28.8287C29.3825 29.0487 29.0291 29.0541 28.8026 28.8448L28.7858 28.8287L27.525 27.5679V31.9926C27.525 32.3115 27.2664 32.5701 26.9475 32.5701C26.6363 32.5701 26.3827 32.324 26.3705 32.0158L26.37 31.9926V27.6063L25.1478 28.8287C24.9277 29.0487 24.5743 29.0541 24.3478 28.8448L24.3311 28.8287C24.111 28.6087 24.1057 28.2553 24.315 28.0288L24.3311 28.012L26.5584 25.7846C26.7785 25.5646 27.1319 25.5592 27.3584 25.7685Z" fill="#0218A7"/>
</svg>
