<svg width="37" height="30" viewBox="0 0 37 30" fill="none" xmlns="http://www.w3.org/2000/svg">
    <g clip-path="url(#uploadInCLI)">
        <path fill-rule="evenodd" clip-rule="evenodd" d="M8.91116 0.00585938H27.9689C31.0919 0.00585938 32.2243 0.326511 33.366 0.928627C34.5077 1.53074 35.4037 2.41432 36.0143 3.54018L36.0506 3.60774C36.6378 4.7115 36.9501 5.84438 36.9501 8.86239V20.8527L36.9497 21.0352C36.937 23.977 36.6127 25.0716 36.0143 26.1749C35.4037 27.3008 34.5077 28.1844 33.366 28.7865C32.2357 29.3826 31.1145 29.7028 28.062 29.7093H9.00425C5.88129 29.7093 4.74884 29.3886 3.60713 28.7865C2.46543 28.1844 1.56941 27.3008 0.958819 26.1749L0.922526 26.1074C0.341343 25.0149 0.0294655 23.8939 0.0230637 20.9445V8.86239C0.0230637 5.78278 0.348228 4.66604 0.958819 3.54018C1.56941 2.41432 2.46543 1.53074 3.60713 0.928627C4.73742 0.332532 5.85864 0.0123005 8.91116 0.00585938Z" fill="#0218A7"/>
        <path d="M5.56489 6.78853C6.54245 6.78853 7.33492 6.00706 7.33492 5.04307C7.33492 4.07908 6.54245 3.29761 5.56489 3.29761C4.58733 3.29761 3.79486 4.07908 3.79486 5.04307C3.79486 6.00706 4.58733 6.78853 5.56489 6.78853Z" fill="#FF458B"/>
        <path d="M10.875 6.78853C11.8525 6.78853 12.645 6.00706 12.645 5.04307C12.645 4.07908 11.8525 3.29761 10.875 3.29761C9.89741 3.29761 9.10494 4.07908 9.10494 5.04307C9.10494 6.00706 9.89741 6.78853 10.875 6.78853Z" fill="#FFC600"/>
        <path d="M16.1851 6.78853C17.1626 6.78853 17.9551 6.00706 17.9551 5.04307C17.9551 4.07908 17.1626 3.29761 16.1851 3.29761C15.2075 3.29761 14.415 4.07908 14.415 5.04307C14.415 6.00706 15.2075 6.78853 16.1851 6.78853Z" fill="#00E567"/>
        <path fill-rule="evenodd" clip-rule="evenodd" d="M5.20366 9.1875H19.56C20.3298 9.1875 20.9553 9.79632 20.9686 10.5523L20.9688 10.5767C20.9688 11.344 20.338 11.966 19.56 11.966H5.20366C4.43388 11.966 3.8083 11.3572 3.79507 10.6012L3.79486 10.5767C3.79486 9.80949 4.4256 9.1875 5.20366 9.1875Z" fill="#276CFF"/>
        <path fill-rule="evenodd" clip-rule="evenodd" d="M12.2477 14.0168H15.5349C16.3046 14.0168 16.9302 14.6257 16.9434 15.3817L16.9437 15.4061C16.9437 16.1733 16.3129 16.7953 15.5349 16.7953H12.2477C11.4779 16.7953 10.8523 16.1865 10.8391 15.4305L10.8389 15.4061C10.8389 14.6388 11.4696 14.0168 12.2477 14.0168Z" fill="#FF458B"/>
        <path fill-rule="evenodd" clip-rule="evenodd" d="M20.7675 14.0168H24.0547C24.8245 14.0168 25.4501 14.6257 25.4633 15.3817L25.4635 15.4061C25.4635 16.1733 24.8328 16.7953 24.0547 16.7953H20.7675C19.9978 16.7953 19.3722 16.1865 19.3589 15.4305L19.3587 15.4061C19.3587 14.6388 19.9895 14.0168 20.7675 14.0168Z" fill="#00E567"/>
        <path fill-rule="evenodd" clip-rule="evenodd" d="M29.2874 14.0168H32.5746C33.3444 14.0168 33.97 14.6257 33.9832 15.3817L33.9834 15.4061C33.9834 16.1733 33.3527 16.7953 32.5746 16.7953H29.2874C28.5176 16.7953 27.892 16.1865 27.8788 15.4305L27.8786 15.4061C27.8786 14.6388 28.5093 14.0168 29.2874 14.0168Z" fill="#00E567"/>
        <path fill-rule="evenodd" clip-rule="evenodd" d="M24.7256 9.1875H28.4824C29.2521 9.1875 29.8777 9.79632 29.891 10.5523L29.8912 10.5767C29.8912 11.344 29.2604 11.966 28.4824 11.966H24.7256C23.9558 11.966 23.3302 11.3572 23.317 10.6012L23.3168 10.5767C23.3168 9.80949 23.9475 9.1875 24.7256 9.1875Z" fill="#276CFF"/>
        <path fill-rule="evenodd" clip-rule="evenodd" d="M16.474 18.8459H24.0547C24.8245 18.8459 25.4501 19.4548 25.4633 20.2108L25.4635 20.2352C25.4635 21.0025 24.8328 21.6244 24.0547 21.6244H16.474C15.7043 21.6244 15.0787 21.0156 15.0655 20.2596L15.0652 20.2352C15.0652 19.4679 15.696 18.8459 16.474 18.8459Z" fill="#276CFF"/>
        <path fill-rule="evenodd" clip-rule="evenodd" d="M16.474 23.6753H19.56C20.3298 23.6753 20.9553 24.2841 20.9686 25.0401L20.9688 25.0645C20.9688 25.8318 20.338 26.4538 19.56 26.4538H16.474C15.7043 26.4538 15.0787 25.845 15.0655 25.089L15.0652 25.0645C15.0652 24.2973 15.696 23.6753 16.474 23.6753Z" fill="#276CFF"/>
        <path fill-rule="evenodd" clip-rule="evenodd" d="M24.7256 23.6753H28.4824C29.2521 23.6753 29.8777 24.2841 29.891 25.0401L29.8912 25.0645C29.8912 25.8318 29.2604 26.4538 28.4824 26.4538H24.7256C23.9558 26.4538 23.3302 25.845 23.317 25.089L23.3168 25.0645C23.3168 24.2973 23.9475 23.6753 24.7256 23.6753Z" fill="#FF458B"/>
    </g>
    <defs>
        <clipPath id="uploadInCLI">
            <rect width="37" height="30" fill="white" transform="translate(0 0.000244141)"/>
        </clipPath>
    </defs>
</svg>
