<svg width="18" height="18" viewBox="0 0 18 18" fill="none" xmlns="http://www.w3.org/2000/svg">
    <path d="M11.706 3.6001C13.56 3.6001 15.0629 5.10304 15.0629 6.95702C15.0629 7.90706 14.6654 8.79098 13.9894 9.41791L13.9419 9.46089L13.975 9.47528C15.2884 10.0528 16.3478 11.105 16.9302 12.4335L16.9594 12.5013L16.9873 12.5684L17.0261 12.6652C17.0749 12.7965 17.0999 12.9355 17.0999 13.0757C17.0999 13.7015 16.6112 14.2155 15.9889 14.2518L15.9555 14.2533L15.9218 14.2538H7.46736C7.31149 14.2538 7.15705 14.224 7.01235 14.1661C6.38496 13.9148 6.08009 13.2025 6.33177 12.5741C6.89889 11.1808 7.98433 10.076 9.34077 9.4777L9.4077 9.44869L9.44125 9.4346L9.40493 9.40114C9.29824 9.30069 9.19818 9.19336 9.10543 9.07988L9.05066 9.01106L9.03417 8.98914L9.0049 9.02734C8.68761 9.43187 8.28058 9.76016 7.81582 9.98374L7.75487 10.0123L7.70102 10.0362L7.64881 10.0628C7.31336 10.2281 6.94881 10.3266 6.57429 10.3526L6.50396 10.3567L6.43734 10.3589L6.37503 10.3596L6.31812 10.3592L6.26293 10.3596C4.61058 10.3797 3.12361 11.3274 2.39647 12.7825L2.37142 12.8334L2.34737 12.8837L4.47011 12.8837C4.82977 12.8837 5.12469 13.1609 5.15295 13.5133L5.15462 13.5412L5.15517 13.5688C5.15517 13.9379 4.86324 14.2388 4.49766 14.2533L4.47011 14.2538H2.12363C1.44778 14.2538 0.899902 13.706 0.899902 13.0301C0.899902 12.909 0.917894 12.7886 0.954094 12.6704L0.970724 12.62L0.98803 12.5741C1.55513 11.1808 2.64051 10.076 3.9969 9.47776L4.06383 9.44874L4.0972 9.43473L4.09132 9.42933C3.43537 8.82705 3.03867 7.98468 3.00735 7.07377L3.00583 7.01427L3.00535 6.95702C3.00535 5.10304 4.50829 3.6001 6.36227 3.6001C7.40659 3.6001 8.36889 4.08088 8.9975 4.87709L9.03417 4.9244L9.03625 4.92166C9.64136 4.12824 10.5729 3.63614 11.5924 3.602L11.6491 3.60057L11.706 3.6001ZM11.6607 10.3592L11.6067 10.3596C9.93605 10.38 8.43442 11.3485 7.71632 12.831L7.69118 12.8837H15.63L15.6286 12.8804C14.9368 11.4063 13.4748 10.426 11.8323 10.3625L11.7749 10.3607L11.7188 10.3596L11.6607 10.3592ZM11.706 4.9702C10.6087 4.9702 9.7192 5.85973 9.7192 6.95702C9.7192 8.05431 10.6087 8.94384 11.706 8.94384C12.8033 8.94384 13.6928 8.05431 13.6928 6.95702C13.6928 5.85973 12.8033 4.9702 11.706 4.9702ZM6.36227 4.9702C5.26498 4.9702 4.37545 5.85973 4.37545 6.95702C4.37545 8.05431 5.26498 8.94384 6.36227 8.94384C7.45956 8.94384 8.34909 8.05431 8.34909 6.95702C8.34909 5.85973 7.45956 4.9702 6.36227 4.9702Z" fill="#56606D"/>
</svg>
