<svg width="18" height="18" viewBox="0 0 18 18" fill="none" xmlns="http://www.w3.org/2000/svg">
    <path d="M11.7061 3.59998C13.5601 3.59998 15.0631 5.10292 15.0631 6.9569C15.0631 7.90694 14.6655 8.79086 13.9895 9.41778L13.942 9.46077L13.9751 9.47516C15.2886 10.0527 16.3479 11.1049 16.9303 12.4334L16.9595 12.5011L16.9875 12.5683L17.0262 12.6651C17.075 12.7964 17.1 12.9354 17.1 13.0756C17.1 13.7014 16.6113 14.2154 15.9891 14.2517L15.9556 14.2532L15.9219 14.2537H7.46748C7.31161 14.2537 7.15717 14.2239 7.01247 14.166C6.38509 13.9147 6.08021 13.2024 6.3319 12.574C6.89901 11.1806 7.98445 10.0758 9.3409 9.47758L9.40782 9.44857L9.44138 9.43448L9.40505 9.40101C9.29836 9.30057 9.1983 9.19324 9.10555 9.07976L9.05079 9.01094L9.03429 8.98902L9.00503 9.02722C8.68773 9.43175 8.2807 9.76003 7.81594 9.98362L7.75499 10.0122L7.70114 10.0361L7.64893 10.0627C7.31348 10.228 6.94893 10.3264 6.57441 10.3525L6.50408 10.3566L6.43746 10.3588L6.37516 10.3595L6.31825 10.3591L6.26305 10.3594C4.6107 10.3796 3.12374 11.3273 2.39659 12.7824L2.37154 12.8333L2.34749 12.8835L4.47023 12.8836C4.82989 12.8836 5.12481 13.1608 5.15307 13.5131L5.15475 13.5411L5.15529 13.5687C5.15529 13.9378 4.86336 14.2387 4.49778 14.2532L4.47023 14.2537H2.12375C1.44791 14.2537 0.900024 13.7058 0.900024 13.03C0.900024 12.9088 0.918016 12.7885 0.954216 12.6703L0.970846 12.6198L0.988153 12.574C1.55525 11.1807 2.64063 10.0759 3.99703 9.47763L4.06395 9.44862L4.09732 9.4346L4.09145 9.42921C3.43549 8.82693 3.03879 7.98456 3.00747 7.07365L3.00595 7.01415L3.00547 6.9569C3.00547 5.10292 4.50841 3.59998 6.36239 3.59998C7.40671 3.59998 8.36901 4.08075 8.99762 4.87697L9.03429 4.92428L9.03637 4.92154C9.64148 4.12812 10.573 3.63601 11.5925 3.60188L11.6492 3.60045L11.7061 3.59998ZM11.6608 10.359L11.6068 10.3594C9.93617 10.3798 8.43454 11.3484 7.71644 12.8309L7.6913 12.8835H15.6301L15.6287 12.8802C14.9369 11.4062 13.475 10.4259 11.8324 10.3624L11.775 10.3606L11.7189 10.3595L11.6608 10.359ZM11.7061 4.97008C10.6088 4.97008 9.71932 5.85961 9.71932 6.9569C9.71932 8.05419 10.6088 8.94372 11.7061 8.94372C12.8034 8.94372 13.693 8.05419 13.693 6.9569C13.693 5.85961 12.8034 4.97008 11.7061 4.97008ZM6.36239 4.97008C5.2651 4.97008 4.37557 5.85961 4.37557 6.9569C4.37557 8.05419 5.2651 8.94372 6.36239 8.94372C7.45968 8.94372 8.34921 8.05419 8.34921 6.9569C8.34921 5.85961 7.45968 4.97008 6.36239 4.97008Z" fill="#56606D"/>
</svg>
