<svg width="24" height="24" viewBox="0 0 24 24" fill="none" xmlns="http://www.w3.org/2000/svg">
    <path fill-rule="evenodd" clip-rule="evenodd" d="M22.4572 1.54298C22.9142 2.00002 22.9142 2.74103 22.4572 3.19808L13.6549 12L22.3819 20.7271C22.839 21.1841 22.839 21.9251 22.3819 22.3822C21.9249 22.8392 21.1839 22.8392 20.7268 22.3822L11.9998 13.6551L3.19783 22.4574C2.74079 22.9145 1.99978 22.9145 1.54273 22.4574C1.08569 22.0004 1.08569 21.2594 1.54273 20.8023L10.3449 11.9999L1.61797 3.27331C1.16092 2.81627 1.16092 2.07525 1.61797 1.61821C2.07501 1.16117 2.81602 1.16117 3.27306 1.61821L11.9999 10.3448L20.8021 1.54298C21.2591 1.08593 22.0001 1.08593 22.4572 1.54298Z" fill="white"/>
</svg>
