<svg width="18" height="18" viewBox="0 0 18 18" fill="none" xmlns="http://www.w3.org/2000/svg">
    <path d="M16.3983 4.34764C16.7858 4.34764 17.0999 4.66175 17.0999 5.04922C17.0999 5.42724 16.8009 5.73543 16.4265 5.75024L16.3983 5.75079H14.9509L13.8664 14.6073C13.7098 15.8868 12.6232 16.8484 11.3342 16.8484H6.77044C5.49114 16.8484 4.40965 15.9009 4.24142 14.6327L3.06318 5.75079H1.60148C1.21401 5.75079 0.899902 5.43669 0.899902 5.04922C0.899902 4.6712 1.19887 4.36301 1.57326 4.3482L1.60148 4.34764H16.3983ZM13.5373 5.75079H4.4787L5.63238 14.4482C5.7066 15.0077 6.17583 15.4285 6.73668 15.4448L6.77044 15.4453H11.3342C11.9029 15.4453 12.384 15.0294 12.4691 14.4705L12.4737 14.4368L13.5373 5.75079ZM7.94254 8.23983L7.9471 8.26816L7.95046 8.29618L8.39703 12.7618C8.43558 13.1474 8.15429 13.4912 7.76874 13.5298C7.3926 13.5674 7.05619 13.3005 7.0042 12.9295L7.00084 12.9015L6.55427 8.4358C6.51572 8.05025 6.79701 7.70645 7.18256 7.6679C7.54906 7.63125 7.87783 7.88362 7.94254 8.23983ZM11.0723 7.66817C11.4485 7.70578 11.7254 8.03394 11.7029 8.40794L11.7006 8.43607L11.2544 12.8984C11.2158 13.2839 10.872 13.5652 10.4865 13.5267C10.1103 13.4891 9.83343 13.1609 9.85595 12.7869L9.8582 12.7588L10.3044 8.29645C10.343 7.91091 10.6868 7.62962 11.0723 7.66817ZM11.296 1.35001C11.6834 1.35001 11.9975 1.66411 11.9975 2.05158C11.9975 2.4296 11.6986 2.73779 11.3242 2.7526L11.296 2.75316H6.70384C6.31637 2.75316 6.00226 2.43905 6.00226 2.05158C6.00226 1.67356 6.30123 1.36537 6.67562 1.35056L6.70384 1.35001H11.296Z" fill="#56606D"/>
</svg>
