<svg width="18" height="18" viewBox="0 0 18 18" fill="none" xmlns="http://www.w3.org/2000/svg">
    <path d="M11.9572 14.786C12.5963 14.786 13.1144 14.2679 13.1144 13.6288C13.1144 12.9898 12.5963 12.4717 11.9572 12.4717C11.3181 12.4717 10.8 12.9898 10.8 13.6288C10.8 14.2679 11.3181 14.786 11.9572 14.786Z" fill="#56606D"/>
    <path d="M16.4566 13.3271C16.0991 12.4163 15.4822 11.6305 14.6823 11.067C13.8825 10.5035 12.9349 10.1872 11.957 10.1571C10.979 10.1872 10.0314 10.5035 9.2316 11.067C8.43177 11.6305 7.81488 12.4163 7.45739 13.3271L7.32837 13.6285L7.45739 13.93C7.81488 14.8407 8.43177 15.6265 9.2316 16.19C10.0314 16.7535 10.979 17.0699 11.957 17.1C12.9349 17.0699 13.8825 16.7535 14.6823 16.19C15.4822 15.6265 16.0991 14.8407 16.4566 13.93L16.5856 13.6285L16.4566 13.3271ZM11.957 15.9428C11.4992 15.9428 11.0518 15.8071 10.6712 15.5528C10.2906 15.2985 9.994 14.9371 9.81884 14.5142C9.64367 14.0913 9.59784 13.626 9.68714 13.177C9.77644 12.7281 9.99685 12.3157 10.3205 11.9921C10.6442 11.6684 11.0565 11.448 11.5055 11.3587C11.9544 11.2694 12.4197 11.3152 12.8426 11.4904C13.2655 11.6656 13.6269 11.9622 13.8812 12.3428C14.1355 12.7234 14.2713 13.1708 14.2713 13.6285C14.2705 14.2421 14.0264 14.8303 13.5926 15.2641C13.1587 15.698 12.5705 15.9421 11.957 15.9428Z" fill="#56606D"/>
    <path d="M6.1714 15.9431H3.8571V2.05734H8.4857V5.52879C8.48662 5.83541 8.60883 6.1292 8.82564 6.34601C9.04245 6.56282 9.33624 6.68503 9.64285 6.68594H13.1143V9.00025H14.2715V5.52879C14.2735 5.45275 14.259 5.37718 14.2291 5.30726C14.1991 5.23735 14.1544 5.17475 14.0979 5.12379L10.0479 1.07376C9.99692 1.01726 9.93433 0.972484 9.86441 0.942518C9.79449 0.912551 9.7189 0.89811 9.64285 0.900191H3.8571C3.55049 0.901106 3.25669 1.02331 3.03988 1.24012C2.82307 1.45693 2.70087 1.75073 2.69995 2.05734V15.9431C2.70087 16.2498 2.82307 16.5436 3.03988 16.7604C3.25669 16.9772 3.55049 17.0994 3.8571 17.1003H6.1714V15.9431ZM9.64285 2.28877L12.8829 5.52879H9.64285V2.28877Z" fill="#56606D"/>
</svg>
