<svg width="18" height="18" viewBox="0 0 18 18" fill="none" xmlns="http://www.w3.org/2000/svg">
    <path d="M8.34467 12.3291L8.32317 12.3084L4.51004 8.49529C4.22047 8.20572 4.22047 7.73624 4.51004 7.44668C4.79254 7.16417 5.24629 7.15728 5.53715 7.426L5.55865 7.44668L8.13077 10.0188V1.64147C8.13077 1.23197 8.46274 0.899994 8.87225 0.899994C9.27177 0.899994 9.59749 1.21597 9.61314 1.61165L9.61373 1.64147V9.96951L12.1363 7.44668C12.4188 7.16417 12.8725 7.15728 13.1634 7.426L13.1849 7.44668C13.4674 7.72918 13.4743 8.18293 13.2056 8.47378L13.1849 8.49529L9.37178 12.3084C9.08928 12.5909 8.63553 12.5978 8.34467 12.3291ZM17.0999 15.6399C17.0999 16.0494 16.7679 16.3814 16.3584 16.3814H1.66364C1.25413 16.3814 0.922161 16.0494 0.922161 15.6399C0.922161 15.2304 1.25413 14.8984 1.66364 14.8984H16.3584C16.7679 14.8984 17.0999 15.2304 17.0999 15.6399ZM1.64138 16.3251C1.23187 16.3251 0.899902 15.9932 0.899902 15.5836V12.6177C0.899902 12.2082 1.23187 11.8762 1.64138 11.8762C2.05089 11.8762 2.38286 12.2082 2.38286 12.6177V15.5836C2.38286 15.9932 2.05089 16.3251 1.64138 16.3251ZM16.3362 16.3251C15.9267 16.3251 15.5947 15.9932 15.5947 15.5836V12.6177C15.5947 12.2082 15.9267 11.8762 16.3362 11.8762C16.7457 11.8762 17.0776 12.2082 17.0776 12.6177V15.5836C17.0776 15.9932 16.7457 16.3251 16.3362 16.3251Z" fill="#56606D"/>
</svg>
