<svg width="18" height="18" viewBox="0 0 18 18" fill="none" xmlns="http://www.w3.org/2000/svg">
    <path d="M0.899902 10.2748L0.90046 10.0499C0.912227 8.17735 1.11148 7.2084 1.63376 6.22302C1.88564 5.7478 2.1999 5.32245 2.57213 4.95345C2.8578 4.67025 3.31897 4.67226 3.60217 4.95793C3.88537 5.24361 3.88336 5.70477 3.59769 5.98797C3.33072 6.25262 3.10436 6.55901 2.92085 6.90522C2.51381 7.67318 2.36139 8.43362 2.35673 10.1486L2.35661 10.2727L2.35756 10.4354C2.37118 11.9799 2.51601 12.7231 2.87188 13.4277L2.92085 13.5222C3.27705 14.1942 3.79503 14.7169 4.46009 15.0758L4.53351 15.1146C5.26816 15.4949 6.02413 15.6386 7.66549 15.6432L10.2833 15.6433L10.5226 15.6415C11.9718 15.6239 12.6929 15.482 13.3665 15.1434L13.4385 15.1064L13.496 15.0758C14.161 14.7169 14.679 14.1942 15.0352 13.5222C15.4423 12.7542 15.5947 11.9938 15.5993 10.2789L15.5995 10.1547L15.5985 9.99206C15.5849 8.44757 15.4401 7.70431 15.0842 6.99972L15.0352 6.90522C14.8776 6.60781 14.6883 6.3398 14.4689 6.10242C14.1959 5.80702 14.214 5.34621 14.5094 5.07316C14.8048 4.80012 15.2656 4.81823 15.5386 5.11363C15.8223 5.42048 16.0685 5.76244 16.2767 6.13895L16.3241 6.22645L16.3582 6.29151C16.8372 7.21947 17.0316 8.15897 17.0541 9.88337L17.0562 10.1526L17.0556 10.3776C17.0438 12.2501 16.8446 13.219 16.3223 14.2044C15.8444 15.1061 15.1445 15.8233 14.2567 16.3198L14.1843 16.3596L14.1198 16.3939L14.026 16.4422C13.1181 16.8995 12.1737 17.0823 10.465 17.0989L10.2854 17.1H7.7483L7.5658 17.0994C5.70918 17.0873 4.74662 16.8856 3.7683 16.3577C2.87375 15.875 2.16288 15.1688 1.67133 14.2739L1.63195 14.201L1.59792 14.1359C1.09449 13.1608 0.905433 12.1729 0.899902 10.2748ZM5.66171 3.94368L5.68201 3.92256L8.49125 1.11332C8.76875 0.835821 9.21447 0.829053 9.50018 1.09302L9.5213 1.11332L12.3305 3.92256C12.615 4.207 12.615 4.66817 12.3305 4.95261C12.053 5.23011 11.6073 5.23688 11.3216 4.97291L11.3005 4.95261L9.71029 3.36237V11.5915C9.71029 11.9937 9.3842 12.3198 8.98194 12.3198C8.58949 12.3198 8.26953 12.0094 8.25416 11.6208L8.25358 11.5915V3.41084L6.71207 4.95261C6.43456 5.23011 5.98885 5.23688 5.70314 4.97291L5.68201 4.95261C5.40451 4.6751 5.39774 4.22939 5.66171 3.94368Z" fill="#56606D"/>
</svg>
