<?xml version="1.0" encoding="UTF-8" standalone="no"?><svg xmlns="http://www.w3.org/2000/svg" xmlns:xlink="http://www.w3.org/1999/xlink" contentStyleType="text/css" height="162px" preserveAspectRatio="none" style="width:119px;height:162px;background:#FFFFFF;" version="1.1" viewBox="0 0 119 162" width="119px" zoomAndPan="magnify"><defs/><g><!--MD5=[e99e64f544e03e74d5532d92e9db740c]
cluster Destination--><g id="cluster_Destination"><path d="M8.5,6.294 L88.5,6.294 A3.75,3.75 0 0 1 91,8.794 L98,29.0939 L109.5,29.0939 A2.5,2.5 0 0 1 112,31.5939 L112,152.794 A2.5,2.5 0 0 1 109.5,155.294 L8.5,155.294 A2.5,2.5 0 0 1 6,152.794 L6,8.794 A2.5,2.5 0 0 1 8.5,6.294 " fill="none" style="stroke:#000000;stroke-width:1.5;"/><line style="stroke:#000000;stroke-width:1.5;" x1="6" x2="98" y1="29.0939" y2="29.0939"/><text fill="#000000" font-family="sans-serif" font-size="14" font-weight="bold" lengthAdjust="spacing" textLength="79" x="10" y="21.2999">Destination</text></g><!--MD5=[aa7f586532e18719e6cefa70fc650583]
class Object--><g id="elem_Object"><rect codeLine="30" fill="#F1F1F1" height="98.3998" id="Object" rx="2.5" ry="2.5" style="stroke:#181818;stroke-width:0.5;" width="75" x="21.5" y="41.294"/><ellipse cx="37.4" cy="57.294" fill="#ADD1B2" rx="11" ry="11" style="stroke:#181818;stroke-width:1.0;"/><path d="M32.4,58.4502 C32.4,60.9502 34.5406,62.7627 37.4625,62.7627 C38.6969,62.7627 39.8688,62.4659 40.6188,61.9502 C41.2281,61.5284 41.5563,61.1065 41.5563,60.7002 C41.5563,60.2315 41.1344,59.8252 40.6344,59.8252 C40.4,59.8252 40.1813,59.9034 39.9781,60.1065 C39.5406,60.544 39.5406,60.544 39.3688,60.6377 C38.9156,60.8721 38.275,61.0127 37.5094,61.0127 C35.5094,61.0127 34.2281,59.9971 34.2281,58.419 L34.2281,57.3721 C34.2281,55.669 35.4469,54.4659 37.15,54.4659 C37.7281,54.4659 38.3063,54.6065 38.775,54.8565 C39.2438,55.1221 39.4156,55.3096 39.4781,55.669 C39.6031,56.3409 39.8531,56.5909 40.3844,56.5909 C40.6656,56.5909 40.9469,56.4502 41.1344,56.2315 C41.2594,56.0596 41.3063,55.8877 41.3063,55.4502 L41.3063,54.0909 C41.3063,53.669 41.2906,53.5284 41.1656,53.3565 C40.9938,53.1065 40.7125,52.9502 40.3844,52.9502 C40.0719,52.9502 39.8688,53.0596 39.65,53.3252 C38.4781,52.8252 38.0406,52.7159 37.0875,52.7159 C34.4156,52.7159 32.4,54.7315 32.4,57.3565 L32.4,58.4502 Z " fill="#000000"/><text fill="#000000" font-family="sans-serif" font-size="14" lengthAdjust="spacing" textLength="41" x="51.6" y="61.9">Object</text><line style="stroke:#181818;stroke-width:0.5;" x1="22.5" x2="95.5" y1="73.294" y2="73.294"/><text fill="#000000" font-family="sans-serif" font-size="14" lengthAdjust="spacing" textLength="63" x="27.5" y="90.2999">PENDING</text><text fill="#000000" font-family="sans-serif" font-size="14" lengthAdjust="spacing" textLength="22" x="27.5" y="107.0999">key</text><text fill="#000000" font-family="sans-serif" font-size="14" lengthAdjust="spacing" textLength="52" x="27.5" y="123.8998">??? MiB</text><line style="stroke:#181818;stroke-width:0.5;" x1="22.5" x2="95.5" y1="131.6938" y2="131.6938"/></g><!--MD5=[bdbc92162828467eb79ac7cd201f9876]
@startuml
package Destination {
    class Object {
        PENDING
        key
        ??? MiB
    }
}
@enduml

PlantUML version 1.2022.7(Mon Aug 22 19:01:30 CEST 2022)
(GPL source distribution)
Java Runtime: OpenJDK Runtime Environment
JVM: OpenJDK 64-Bit Server VM
Default Encoding: UTF-8
Language: en
Country: US
--></g></svg>