<?xml version="1.0" encoding="UTF-8" standalone="no"?><svg xmlns="http://www.w3.org/2000/svg" xmlns:xlink="http://www.w3.org/1999/xlink" contentStyleType="text/css" height="355px" preserveAspectRatio="none" style="width:406px;height:355px;background:#FFFFFF;" version="1.1" viewBox="0 0 406 355" width="406px" zoomAndPan="magnify"><defs/><g><!--MD5=[2091a99d56b6fc6048501ca10accaca1]
cluster Original--><g id="cluster_Original"><path d="M8.5,6.294 L63.5,6.294 A3.75,3.75 0 0 1 66,8.794 L73,29.0939 L396.5,29.0939 A2.5,2.5 0 0 1 399,31.5939 L399,345.794 A2.5,2.5 0 0 1 396.5,348.294 L8.5,348.294 A2.5,2.5 0 0 1 6,345.794 L6,8.794 A2.5,2.5 0 0 1 8.5,6.294 " fill="none" style="stroke:#000000;stroke-width:1.5;"/><line style="stroke:#000000;stroke-width:1.5;" x1="6" x2="73" y1="29.0939" y2="29.0939"/><text fill="#000000" font-family="sans-serif" font-size="14" font-weight="bold" lengthAdjust="spacing" textLength="54" x="10" y="21.2999">Original</text></g><!--MD5=[e37146ac15805e55994d64fd1e8da51f]
cluster Part1--><g id="cluster_Part1"><path d="M117.5,49.294 L153.5,49.294 A3.75,3.75 0 0 1 156,51.794 L163,72.0939 L372.5,72.0939 A2.5,2.5 0 0 1 375,74.5939 L375,321.794 A2.5,2.5 0 0 1 372.5,324.294 L117.5,324.294 A2.5,2.5 0 0 1 115,321.794 L115,51.794 A2.5,2.5 0 0 1 117.5,49.294 " fill="none" style="stroke:#000000;stroke-width:1.5;"/><line style="stroke:#000000;stroke-width:1.5;" x1="115" x2="163" y1="72.0939" y2="72.0939"/><text fill="#000000" font-family="sans-serif" font-size="14" font-weight="bold" lengthAdjust="spacing" textLength="35" x="119" y="64.2999">Part1</text></g><!--MD5=[767ca0b6417354f0c2e4ab66caef88a6]
class Original.Object--><g id="elem_Original.Object"><rect codeLine="2" fill="#F1F1F1" height="81.5999" id="Original.Object" rx="2.5" ry="2.5" style="stroke:#181818;stroke-width:0.5;" width="73" x="22.5" y="84.294"/><ellipse cx="37.5" cy="100.294" fill="#ADD1B2" rx="11" ry="11" style="stroke:#181818;stroke-width:1.0;"/><path d="M32.5,101.4502 C32.5,103.9502 34.6406,105.7627 37.5625,105.7627 C38.7969,105.7627 39.9688,105.4659 40.7188,104.9502 C41.3281,104.5284 41.6563,104.1065 41.6563,103.7002 C41.6563,103.2315 41.2344,102.8252 40.7344,102.8252 C40.5,102.8252 40.2813,102.9034 40.0781,103.1065 C39.6406,103.544 39.6406,103.544 39.4688,103.6377 C39.0156,103.8721 38.375,104.0127 37.6094,104.0127 C35.6094,104.0127 34.3281,102.9971 34.3281,101.419 L34.3281,100.3721 C34.3281,98.669 35.5469,97.4659 37.25,97.4659 C37.8281,97.4659 38.4063,97.6065 38.875,97.8565 C39.3438,98.1221 39.5156,98.3096 39.5781,98.669 C39.7031,99.3409 39.9531,99.5909 40.4844,99.5909 C40.7656,99.5909 41.0469,99.4502 41.2344,99.2315 C41.3594,99.0596 41.4063,98.8877 41.4063,98.4502 L41.4063,97.0909 C41.4063,96.669 41.3906,96.5284 41.2656,96.3565 C41.0938,96.1065 40.8125,95.9502 40.4844,95.9502 C40.1719,95.9502 39.9688,96.0596 39.75,96.3252 C38.5781,95.8252 38.1406,95.7159 37.1875,95.7159 C34.5156,95.7159 32.5,97.7315 32.5,100.3565 L32.5,101.4502 Z " fill="#000000"/><text fill="#000000" font-family="sans-serif" font-size="14" lengthAdjust="spacing" textLength="41" x="51.5" y="104.9">Object</text><line style="stroke:#181818;stroke-width:0.5;" x1="23.5" x2="94.5" y1="116.294" y2="116.294"/><text fill="#000000" font-family="sans-serif" font-size="14" lengthAdjust="spacing" textLength="22" x="28.5" y="133.2999">key</text><text fill="#000000" font-family="sans-serif" font-size="14" lengthAdjust="spacing" textLength="52" x="28.5" y="150.0999">256 MiB</text><line style="stroke:#181818;stroke-width:0.5;" x1="23.5" x2="94.5" y1="157.8938" y2="157.8938"/></g><!--MD5=[7510921fd2f081a0783c42a54e541879]
class Original.Part1.Segment1--><g id="elem_Original.Part1.Segment1"><rect codeLine="8" fill="#F1F1F1" height="81.5999" id="Original.Part1.Segment1" rx="2.5" ry="2.5" style="stroke:#181818;stroke-width:0.5;" width="97" x="130.5" y="84.294"/><ellipse cx="145.5" cy="100.294" fill="#ADD1B2" rx="11" ry="11" style="stroke:#181818;stroke-width:1.0;"/><path d="M140.5,101.4502 C140.5,103.9502 142.6406,105.7627 145.5625,105.7627 C146.7969,105.7627 147.9688,105.4659 148.7188,104.9502 C149.3281,104.5284 149.6563,104.1065 149.6563,103.7002 C149.6563,103.2315 149.2344,102.8252 148.7344,102.8252 C148.5,102.8252 148.2813,102.9034 148.0781,103.1065 C147.6406,103.544 147.6406,103.544 147.4688,103.6377 C147.0156,103.8721 146.375,104.0127 145.6094,104.0127 C143.6094,104.0127 142.3281,102.9971 142.3281,101.419 L142.3281,100.3721 C142.3281,98.669 143.5469,97.4659 145.25,97.4659 C145.8281,97.4659 146.4063,97.6065 146.875,97.8565 C147.3438,98.1221 147.5156,98.3096 147.5781,98.669 C147.7031,99.3409 147.9531,99.5909 148.4844,99.5909 C148.7656,99.5909 149.0469,99.4502 149.2344,99.2315 C149.3594,99.0596 149.4063,98.8877 149.4063,98.4502 L149.4063,97.0909 C149.4063,96.669 149.3906,96.5284 149.2656,96.3565 C149.0938,96.1065 148.8125,95.9502 148.4844,95.9502 C148.1719,95.9502 147.9688,96.0596 147.75,96.3252 C146.5781,95.8252 146.1406,95.7159 145.1875,95.7159 C142.5156,95.7159 140.5,97.7315 140.5,100.3565 L140.5,101.4502 Z " fill="#000000"/><text fill="#000000" font-family="sans-serif" font-size="14" lengthAdjust="spacing" textLength="65" x="159.5" y="104.9">Segment1</text><line style="stroke:#181818;stroke-width:0.5;" x1="131.5" x2="226.5" y1="116.294" y2="116.294"/><text fill="#000000" font-family="sans-serif" font-size="14" lengthAdjust="spacing" textLength="44" x="136.5" y="133.2999">64 MiB</text><text fill="#000000" font-family="sans-serif" font-size="14" lengthAdjust="spacing" textLength="61" x="136.5" y="150.0999">56 pieces</text><line style="stroke:#181818;stroke-width:0.5;" x1="131.5" x2="226.5" y1="157.8938" y2="157.8938"/></g><!--MD5=[f3010e98423157c58b7a8b4d1ae636f7]
class Original.Part1.Segment2--><g id="elem_Original.Part1.Segment2"><rect codeLine="12" fill="#F1F1F1" height="81.5999" id="Original.Part1.Segment2" rx="2.5" ry="2.5" style="stroke:#181818;stroke-width:0.5;" width="97" x="262.5" y="84.294"/><ellipse cx="277.5" cy="100.294" fill="#ADD1B2" rx="11" ry="11" style="stroke:#181818;stroke-width:1.0;"/><path d="M272.5,101.4502 C272.5,103.9502 274.6406,105.7627 277.5625,105.7627 C278.7969,105.7627 279.9688,105.4659 280.7188,104.9502 C281.3281,104.5284 281.6563,104.1065 281.6563,103.7002 C281.6563,103.2315 281.2344,102.8252 280.7344,102.8252 C280.5,102.8252 280.2813,102.9034 280.0781,103.1065 C279.6406,103.544 279.6406,103.544 279.4688,103.6377 C279.0156,103.8721 278.375,104.0127 277.6094,104.0127 C275.6094,104.0127 274.3281,102.9971 274.3281,101.419 L274.3281,100.3721 C274.3281,98.669 275.5469,97.4659 277.25,97.4659 C277.8281,97.4659 278.4063,97.6065 278.875,97.8565 C279.3438,98.1221 279.5156,98.3096 279.5781,98.669 C279.7031,99.3409 279.9531,99.5909 280.4844,99.5909 C280.7656,99.5909 281.0469,99.4502 281.2344,99.2315 C281.3594,99.0596 281.4063,98.8877 281.4063,98.4502 L281.4063,97.0909 C281.4063,96.669 281.3906,96.5284 281.2656,96.3565 C281.0938,96.1065 280.8125,95.9502 280.4844,95.9502 C280.1719,95.9502 279.9688,96.0596 279.75,96.3252 C278.5781,95.8252 278.1406,95.7159 277.1875,95.7159 C274.5156,95.7159 272.5,97.7315 272.5,100.3565 L272.5,101.4502 Z " fill="#000000"/><text fill="#000000" font-family="sans-serif" font-size="14" lengthAdjust="spacing" textLength="65" x="291.5" y="104.9">Segment2</text><line style="stroke:#181818;stroke-width:0.5;" x1="263.5" x2="358.5" y1="116.294" y2="116.294"/><text fill="#000000" font-family="sans-serif" font-size="14" lengthAdjust="spacing" textLength="44" x="268.5" y="133.2999">64 MiB</text><text fill="#000000" font-family="sans-serif" font-size="14" lengthAdjust="spacing" textLength="61" x="268.5" y="150.0999">56 pieces</text><line style="stroke:#181818;stroke-width:0.5;" x1="263.5" x2="358.5" y1="157.8938" y2="157.8938"/></g><!--MD5=[56e086a98ce6943da3fa88f0dfbc3e1d]
class Original.Part1.Segment3--><g id="elem_Original.Part1.Segment3"><rect codeLine="16" fill="#F1F1F1" height="81.5999" id="Original.Part1.Segment3" rx="2.5" ry="2.5" style="stroke:#181818;stroke-width:0.5;" width="97" x="130.5" y="226.294"/><ellipse cx="145.5" cy="242.294" fill="#ADD1B2" rx="11" ry="11" style="stroke:#181818;stroke-width:1.0;"/><path d="M140.5,243.4502 C140.5,245.9502 142.6406,247.7627 145.5625,247.7627 C146.7969,247.7627 147.9688,247.4659 148.7188,246.9502 C149.3281,246.5284 149.6563,246.1065 149.6563,245.7002 C149.6563,245.2315 149.2344,244.8252 148.7344,244.8252 C148.5,244.8252 148.2813,244.9034 148.0781,245.1065 C147.6406,245.544 147.6406,245.544 147.4688,245.6377 C147.0156,245.8721 146.375,246.0127 145.6094,246.0127 C143.6094,246.0127 142.3281,244.9971 142.3281,243.419 L142.3281,242.3721 C142.3281,240.669 143.5469,239.4659 145.25,239.4659 C145.8281,239.4659 146.4063,239.6065 146.875,239.8565 C147.3438,240.1221 147.5156,240.3096 147.5781,240.669 C147.7031,241.3409 147.9531,241.5909 148.4844,241.5909 C148.7656,241.5909 149.0469,241.4502 149.2344,241.2315 C149.3594,241.0596 149.4063,240.8877 149.4063,240.4502 L149.4063,239.0909 C149.4063,238.669 149.3906,238.5284 149.2656,238.3565 C149.0938,238.1065 148.8125,237.9502 148.4844,237.9502 C148.1719,237.9502 147.9688,238.0596 147.75,238.3252 C146.5781,237.8252 146.1406,237.7159 145.1875,237.7159 C142.5156,237.7159 140.5,239.7315 140.5,242.3565 L140.5,243.4502 Z " fill="#000000"/><text fill="#000000" font-family="sans-serif" font-size="14" lengthAdjust="spacing" textLength="65" x="159.5" y="246.9">Segment3</text><line style="stroke:#181818;stroke-width:0.5;" x1="131.5" x2="226.5" y1="258.294" y2="258.294"/><text fill="#000000" font-family="sans-serif" font-size="14" lengthAdjust="spacing" textLength="44" x="136.5" y="275.2999">64 MiB</text><text fill="#000000" font-family="sans-serif" font-size="14" lengthAdjust="spacing" textLength="61" x="136.5" y="292.0999">56 pieces</text><line style="stroke:#181818;stroke-width:0.5;" x1="131.5" x2="226.5" y1="299.8938" y2="299.8938"/></g><!--MD5=[8a8bf79654d0eafcaf07e47d812a1192]
class Original.Part1.Segment4--><g id="elem_Original.Part1.Segment4"><rect codeLine="20" fill="#F1F1F1" height="81.5999" id="Original.Part1.Segment4" rx="2.5" ry="2.5" style="stroke:#181818;stroke-width:0.5;" width="97" x="262.5" y="226.294"/><ellipse cx="277.5" cy="242.294" fill="#ADD1B2" rx="11" ry="11" style="stroke:#181818;stroke-width:1.0;"/><path d="M272.5,243.4502 C272.5,245.9502 274.6406,247.7627 277.5625,247.7627 C278.7969,247.7627 279.9688,247.4659 280.7188,246.9502 C281.3281,246.5284 281.6563,246.1065 281.6563,245.7002 C281.6563,245.2315 281.2344,244.8252 280.7344,244.8252 C280.5,244.8252 280.2813,244.9034 280.0781,245.1065 C279.6406,245.544 279.6406,245.544 279.4688,245.6377 C279.0156,245.8721 278.375,246.0127 277.6094,246.0127 C275.6094,246.0127 274.3281,244.9971 274.3281,243.419 L274.3281,242.3721 C274.3281,240.669 275.5469,239.4659 277.25,239.4659 C277.8281,239.4659 278.4063,239.6065 278.875,239.8565 C279.3438,240.1221 279.5156,240.3096 279.5781,240.669 C279.7031,241.3409 279.9531,241.5909 280.4844,241.5909 C280.7656,241.5909 281.0469,241.4502 281.2344,241.2315 C281.3594,241.0596 281.4063,240.8877 281.4063,240.4502 L281.4063,239.0909 C281.4063,238.669 281.3906,238.5284 281.2656,238.3565 C281.0938,238.1065 280.8125,237.9502 280.4844,237.9502 C280.1719,237.9502 279.9688,238.0596 279.75,238.3252 C278.5781,237.8252 278.1406,237.7159 277.1875,237.7159 C274.5156,237.7159 272.5,239.7315 272.5,242.3565 L272.5,243.4502 Z " fill="#000000"/><text fill="#000000" font-family="sans-serif" font-size="14" lengthAdjust="spacing" textLength="65" x="291.5" y="246.9">Segment4</text><line style="stroke:#181818;stroke-width:0.5;" x1="263.5" x2="358.5" y1="258.294" y2="258.294"/><text fill="#000000" font-family="sans-serif" font-size="14" lengthAdjust="spacing" textLength="44" x="268.5" y="275.2999">64 MiB</text><text fill="#000000" font-family="sans-serif" font-size="14" lengthAdjust="spacing" textLength="61" x="268.5" y="292.0999">56 pieces</text><line style="stroke:#181818;stroke-width:0.5;" x1="263.5" x2="358.5" y1="299.8938" y2="299.8938"/></g><!--MD5=[307d2af527a82531d38bc8ae47b081b2]
@startuml
package Original {
    class Original.Object {
        key
        256 MiB
    }
    
    package Part1 {
        class Original.Part1.Segment1 {
            64 MiB
            56 pieces
        }
        class Original.Part1.Segment2 {
            64 MiB
            56 pieces
        }
        class Original.Part1.Segment3 {
            64 MiB
            56 pieces
        }
        class Original.Part1.Segment4 {
            64 MiB
            56 pieces
        }
    }
}
@enduml

PlantUML version 1.2022.7(Mon Aug 22 19:01:30 CEST 2022)
(GPL source distribution)
Java Runtime: OpenJDK Runtime Environment
JVM: OpenJDK 64-Bit Server VM
Default Encoding: UTF-8
Language: en
Country: US
--></g></svg>