<?xml version="1.0" encoding="UTF-8" standalone="no"?><svg xmlns="http://www.w3.org/2000/svg" xmlns:xlink="http://www.w3.org/1999/xlink" contentStyleType="text/css" height="363px" preserveAspectRatio="none" style="width:600px;height:363px;background:#FFFFFF;" version="1.1" viewBox="0 0 600 363" width="600px" zoomAndPan="magnify"><defs/><g><!--MD5=[e99e64f544e03e74d5532d92e9db740c]
cluster Destination--><g id="cluster_Destination"><path d="M8.5,6.294 L88.5,6.294 A3.75,3.75 0 0 1 91,8.794 L98,29.0939 L590.5,29.0939 A2.5,2.5 0 0 1 593,31.5939 L593,353.794 A2.5,2.5 0 0 1 590.5,356.294 L8.5,356.294 A2.5,2.5 0 0 1 6,353.794 L6,8.794 A2.5,2.5 0 0 1 8.5,6.294 " fill="none" style="stroke:#000000;stroke-width:1.5;"/><line style="stroke:#000000;stroke-width:1.5;" x1="6" x2="98" y1="29.0939" y2="29.0939"/><text fill="#000000" font-family="sans-serif" font-size="14" font-weight="bold" lengthAdjust="spacing" textLength="79" x="10" y="21.2999">Destination</text></g><!--MD5=[8729272c8dbef0dd5f62fba128b8720d]
cluster Segments.Part1--><g id="cluster_Segments.Part1"><path d="M311.5,49.294 L419.5,49.294 A3.75,3.75 0 0 1 422,51.794 L429,72.0939 L566.5,72.0939 A2.5,2.5 0 0 1 569,74.5939 L569,329.794 A2.5,2.5 0 0 1 566.5,332.294 L311.5,332.294 A2.5,2.5 0 0 1 309,329.794 L309,51.794 A2.5,2.5 0 0 1 311.5,49.294 " fill="none" style="stroke:#000000;stroke-width:1.5;"/><line style="stroke:#000000;stroke-width:1.5;" x1="309" x2="429" y1="72.0939" y2="72.0939"/><text fill="#000000" font-family="sans-serif" font-size="14" font-weight="bold" lengthAdjust="spacing" textLength="107" x="313" y="64.2999">Segments.Part1</text></g><!--MD5=[aa7f586532e18719e6cefa70fc650583]
class Object--><g id="elem_Object"><rect codeLine="112" fill="#F1F1F1" height="98.3998" id="Object" rx="2.5" ry="2.5" style="stroke:#181818;stroke-width:0.5;" width="98" x="191" y="76.294"/><ellipse cx="217.25" cy="92.294" fill="#ADD1B2" rx="11" ry="11" style="stroke:#181818;stroke-width:1.0;"/><path d="M212.25,93.4502 C212.25,95.9502 214.3906,97.7627 217.3125,97.7627 C218.5469,97.7627 219.7188,97.4659 220.4688,96.9502 C221.0781,96.5284 221.4063,96.1065 221.4063,95.7002 C221.4063,95.2315 220.9844,94.8252 220.4844,94.8252 C220.25,94.8252 220.0313,94.9034 219.8281,95.1065 C219.3906,95.544 219.3906,95.544 219.2188,95.6377 C218.7656,95.8721 218.125,96.0127 217.3594,96.0127 C215.3594,96.0127 214.0781,94.9971 214.0781,93.419 L214.0781,92.3721 C214.0781,90.669 215.2969,89.4659 217,89.4659 C217.5781,89.4659 218.1563,89.6065 218.625,89.8565 C219.0938,90.1221 219.2656,90.3096 219.3281,90.669 C219.4531,91.3409 219.7031,91.5909 220.2344,91.5909 C220.5156,91.5909 220.7969,91.4502 220.9844,91.2315 C221.1094,91.0596 221.1563,90.8877 221.1563,90.4502 L221.1563,89.0909 C221.1563,88.669 221.1406,88.5284 221.0156,88.3565 C220.8438,88.1065 220.5625,87.9502 220.2344,87.9502 C219.9219,87.9502 219.7188,88.0596 219.5,88.3252 C218.3281,87.8252 217.8906,87.7159 216.9375,87.7159 C214.2656,87.7159 212.25,89.7315 212.25,92.3565 L212.25,93.4502 Z " fill="#000000"/><text fill="#000000" font-family="sans-serif" font-size="14" lengthAdjust="spacing" textLength="41" x="233.75" y="96.9">Object</text><line style="stroke:#181818;stroke-width:0.5;" x1="192" x2="288" y1="108.294" y2="108.294"/><text fill="#000000" font-family="sans-serif" font-size="14" lengthAdjust="spacing" textLength="86" x="197" y="125.2999">COMMITTED</text><text fill="#000000" font-family="sans-serif" font-size="14" lengthAdjust="spacing" textLength="22" x="197" y="142.0999">key</text><text fill="#000000" font-family="sans-serif" font-size="14" lengthAdjust="spacing" textLength="52" x="197" y="158.8998">256 MiB</text><line style="stroke:#181818;stroke-width:0.5;" x1="192" x2="288" y1="166.6938" y2="166.6938"/></g><!--MD5=[6ad779f986f08eda59f5d9c1ddce10be]
class SegmentCopies--><g id="elem_SegmentCopies"><rect codeLine="118" fill="#F1F1F1" height="81.5999" id="SegmentCopies" rx="2.5" ry="2.5" style="stroke:#181818;stroke-width:0.5;" width="133" x="22.5" y="84.294"/><ellipse cx="37.5" cy="100.294" fill="#ADD1B2" rx="11" ry="11" style="stroke:#181818;stroke-width:1.0;"/><path d="M32.5,101.4502 C32.5,103.9502 34.6406,105.7627 37.5625,105.7627 C38.7969,105.7627 39.9688,105.4659 40.7188,104.9502 C41.3281,104.5284 41.6563,104.1065 41.6563,103.7002 C41.6563,103.2315 41.2344,102.8252 40.7344,102.8252 C40.5,102.8252 40.2813,102.9034 40.0781,103.1065 C39.6406,103.544 39.6406,103.544 39.4688,103.6377 C39.0156,103.8721 38.375,104.0127 37.6094,104.0127 C35.6094,104.0127 34.3281,102.9971 34.3281,101.419 L34.3281,100.3721 C34.3281,98.669 35.5469,97.4659 37.25,97.4659 C37.8281,97.4659 38.4063,97.6065 38.875,97.8565 C39.3438,98.1221 39.5156,98.3096 39.5781,98.669 C39.7031,99.3409 39.9531,99.5909 40.4844,99.5909 C40.7656,99.5909 41.0469,99.4502 41.2344,99.2315 C41.3594,99.0596 41.4063,98.8877 41.4063,98.4502 L41.4063,97.0909 C41.4063,96.669 41.3906,96.5284 41.2656,96.3565 C41.0938,96.1065 40.8125,95.9502 40.4844,95.9502 C40.1719,95.9502 39.9688,96.0596 39.75,96.3252 C38.5781,95.8252 38.1406,95.7159 37.1875,95.7159 C34.5156,95.7159 32.5,97.7315 32.5,100.3565 L32.5,101.4502 Z " fill="#000000"/><text fill="#000000" font-family="sans-serif" font-size="14" lengthAdjust="spacing" textLength="101" x="51.5" y="104.9">SegmentCopies</text><line style="stroke:#181818;stroke-width:0.5;" x1="23.5" x2="154.5" y1="116.294" y2="116.294"/><text fill="#000000" font-family="sans-serif" font-size="14" lengthAdjust="spacing" textLength="58" x="28.5" y="133.2999">streamID</text><text fill="#000000" font-family="sans-serif" font-size="14" lengthAdjust="spacing" textLength="115" x="28.5" y="150.0999">ancestorStreamID</text><line style="stroke:#181818;stroke-width:0.5;" x1="23.5" x2="154.5" y1="157.8938" y2="157.8938"/></g><!--MD5=[e8c087ca6c91ad88f30ff6f96718cc79]
class Segment1--><g id="elem_Segment1"><rect codeLine="124" fill="#F1F1F1" height="81.5999" id="Segment1" rx="2.5" ry="2.5" style="stroke:#181818;stroke-width:0.5;" width="97" x="324.5" y="84.294"/><ellipse cx="339.5" cy="100.294" fill="#ADD1B2" rx="11" ry="11" style="stroke:#181818;stroke-width:1.0;"/><path d="M334.5,101.4502 C334.5,103.9502 336.6406,105.7627 339.5625,105.7627 C340.7969,105.7627 341.9688,105.4659 342.7188,104.9502 C343.3281,104.5284 343.6563,104.1065 343.6563,103.7002 C343.6563,103.2315 343.2344,102.8252 342.7344,102.8252 C342.5,102.8252 342.2813,102.9034 342.0781,103.1065 C341.6406,103.544 341.6406,103.544 341.4688,103.6377 C341.0156,103.8721 340.375,104.0127 339.6094,104.0127 C337.6094,104.0127 336.3281,102.9971 336.3281,101.419 L336.3281,100.3721 C336.3281,98.669 337.5469,97.4659 339.25,97.4659 C339.8281,97.4659 340.4063,97.6065 340.875,97.8565 C341.3438,98.1221 341.5156,98.3096 341.5781,98.669 C341.7031,99.3409 341.9531,99.5909 342.4844,99.5909 C342.7656,99.5909 343.0469,99.4502 343.2344,99.2315 C343.3594,99.0596 343.4063,98.8877 343.4063,98.4502 L343.4063,97.0909 C343.4063,96.669 343.3906,96.5284 343.2656,96.3565 C343.0938,96.1065 342.8125,95.9502 342.4844,95.9502 C342.1719,95.9502 341.9688,96.0596 341.75,96.3252 C340.5781,95.8252 340.1406,95.7159 339.1875,95.7159 C336.5156,95.7159 334.5,97.7315 334.5,100.3565 L334.5,101.4502 Z " fill="#000000"/><text fill="#000000" font-family="sans-serif" font-size="14" lengthAdjust="spacing" textLength="65" x="353.5" y="104.9">Segment1</text><line style="stroke:#181818;stroke-width:0.5;" x1="325.5" x2="420.5" y1="116.294" y2="116.294"/><text fill="#000000" font-family="sans-serif" font-size="14" lengthAdjust="spacing" textLength="44" x="330.5" y="133.2999">64 MiB</text><text fill="#000000" font-family="sans-serif" font-size="14" lengthAdjust="spacing" textLength="53" x="330.5" y="150.0999">0 pieces</text><line style="stroke:#181818;stroke-width:0.5;" x1="325.5" x2="420.5" y1="157.8938" y2="157.8938"/></g><!--MD5=[0c5e25f2d8585a3891e00bf8523de367]
class Segment2--><g id="elem_Segment2"><rect codeLine="128" fill="#F1F1F1" height="81.5999" id="Segment2" rx="2.5" ry="2.5" style="stroke:#181818;stroke-width:0.5;" width="97" x="456.5" y="84.294"/><ellipse cx="471.5" cy="100.294" fill="#ADD1B2" rx="11" ry="11" style="stroke:#181818;stroke-width:1.0;"/><path d="M466.5,101.4502 C466.5,103.9502 468.6406,105.7627 471.5625,105.7627 C472.7969,105.7627 473.9688,105.4659 474.7188,104.9502 C475.3281,104.5284 475.6563,104.1065 475.6563,103.7002 C475.6563,103.2315 475.2344,102.8252 474.7344,102.8252 C474.5,102.8252 474.2813,102.9034 474.0781,103.1065 C473.6406,103.544 473.6406,103.544 473.4688,103.6377 C473.0156,103.8721 472.375,104.0127 471.6094,104.0127 C469.6094,104.0127 468.3281,102.9971 468.3281,101.419 L468.3281,100.3721 C468.3281,98.669 469.5469,97.4659 471.25,97.4659 C471.8281,97.4659 472.4063,97.6065 472.875,97.8565 C473.3438,98.1221 473.5156,98.3096 473.5781,98.669 C473.7031,99.3409 473.9531,99.5909 474.4844,99.5909 C474.7656,99.5909 475.0469,99.4502 475.2344,99.2315 C475.3594,99.0596 475.4063,98.8877 475.4063,98.4502 L475.4063,97.0909 C475.4063,96.669 475.3906,96.5284 475.2656,96.3565 C475.0938,96.1065 474.8125,95.9502 474.4844,95.9502 C474.1719,95.9502 473.9688,96.0596 473.75,96.3252 C472.5781,95.8252 472.1406,95.7159 471.1875,95.7159 C468.5156,95.7159 466.5,97.7315 466.5,100.3565 L466.5,101.4502 Z " fill="#000000"/><text fill="#000000" font-family="sans-serif" font-size="14" lengthAdjust="spacing" textLength="65" x="485.5" y="104.9">Segment2</text><line style="stroke:#181818;stroke-width:0.5;" x1="457.5" x2="552.5" y1="116.294" y2="116.294"/><text fill="#000000" font-family="sans-serif" font-size="14" lengthAdjust="spacing" textLength="44" x="462.5" y="133.2999">64 MiB</text><text fill="#000000" font-family="sans-serif" font-size="14" lengthAdjust="spacing" textLength="53" x="462.5" y="150.0999">0 pieces</text><line style="stroke:#181818;stroke-width:0.5;" x1="457.5" x2="552.5" y1="157.8938" y2="157.8938"/></g><!--MD5=[6709f8a889f97bff46691ea82439f452]
class Segment3--><g id="elem_Segment3"><rect codeLine="132" fill="#F1F1F1" height="81.5999" id="Segment3" rx="2.5" ry="2.5" style="stroke:#181818;stroke-width:0.5;" width="97" x="324.5" y="234.294"/><ellipse cx="339.5" cy="250.294" fill="#ADD1B2" rx="11" ry="11" style="stroke:#181818;stroke-width:1.0;"/><path d="M334.5,251.4502 C334.5,253.9502 336.6406,255.7627 339.5625,255.7627 C340.7969,255.7627 341.9688,255.4659 342.7188,254.9502 C343.3281,254.5284 343.6563,254.1065 343.6563,253.7002 C343.6563,253.2315 343.2344,252.8252 342.7344,252.8252 C342.5,252.8252 342.2813,252.9034 342.0781,253.1065 C341.6406,253.544 341.6406,253.544 341.4688,253.6377 C341.0156,253.8721 340.375,254.0127 339.6094,254.0127 C337.6094,254.0127 336.3281,252.9971 336.3281,251.419 L336.3281,250.3721 C336.3281,248.669 337.5469,247.4659 339.25,247.4659 C339.8281,247.4659 340.4063,247.6065 340.875,247.8565 C341.3438,248.1221 341.5156,248.3096 341.5781,248.669 C341.7031,249.3409 341.9531,249.5909 342.4844,249.5909 C342.7656,249.5909 343.0469,249.4502 343.2344,249.2315 C343.3594,249.0596 343.4063,248.8877 343.4063,248.4502 L343.4063,247.0909 C343.4063,246.669 343.3906,246.5284 343.2656,246.3565 C343.0938,246.1065 342.8125,245.9502 342.4844,245.9502 C342.1719,245.9502 341.9688,246.0596 341.75,246.3252 C340.5781,245.8252 340.1406,245.7159 339.1875,245.7159 C336.5156,245.7159 334.5,247.7315 334.5,250.3565 L334.5,251.4502 Z " fill="#000000"/><text fill="#000000" font-family="sans-serif" font-size="14" lengthAdjust="spacing" textLength="65" x="353.5" y="254.9">Segment3</text><line style="stroke:#181818;stroke-width:0.5;" x1="325.5" x2="420.5" y1="266.294" y2="266.294"/><text fill="#000000" font-family="sans-serif" font-size="14" lengthAdjust="spacing" textLength="44" x="330.5" y="283.2999">64 MiB</text><text fill="#000000" font-family="sans-serif" font-size="14" lengthAdjust="spacing" textLength="53" x="330.5" y="300.0999">0 pieces</text><line style="stroke:#181818;stroke-width:0.5;" x1="325.5" x2="420.5" y1="307.8938" y2="307.8938"/></g><!--MD5=[71b18ec3900e68539b655371ac057fe5]
class Segment4--><g id="elem_Segment4"><rect codeLine="136" fill="#F1F1F1" height="81.5999" id="Segment4" rx="2.5" ry="2.5" style="stroke:#181818;stroke-width:0.5;" width="97" x="456.5" y="234.294"/><ellipse cx="471.5" cy="250.294" fill="#ADD1B2" rx="11" ry="11" style="stroke:#181818;stroke-width:1.0;"/><path d="M466.5,251.4502 C466.5,253.9502 468.6406,255.7627 471.5625,255.7627 C472.7969,255.7627 473.9688,255.4659 474.7188,254.9502 C475.3281,254.5284 475.6563,254.1065 475.6563,253.7002 C475.6563,253.2315 475.2344,252.8252 474.7344,252.8252 C474.5,252.8252 474.2813,252.9034 474.0781,253.1065 C473.6406,253.544 473.6406,253.544 473.4688,253.6377 C473.0156,253.8721 472.375,254.0127 471.6094,254.0127 C469.6094,254.0127 468.3281,252.9971 468.3281,251.419 L468.3281,250.3721 C468.3281,248.669 469.5469,247.4659 471.25,247.4659 C471.8281,247.4659 472.4063,247.6065 472.875,247.8565 C473.3438,248.1221 473.5156,248.3096 473.5781,248.669 C473.7031,249.3409 473.9531,249.5909 474.4844,249.5909 C474.7656,249.5909 475.0469,249.4502 475.2344,249.2315 C475.3594,249.0596 475.4063,248.8877 475.4063,248.4502 L475.4063,247.0909 C475.4063,246.669 475.3906,246.5284 475.2656,246.3565 C475.0938,246.1065 474.8125,245.9502 474.4844,245.9502 C474.1719,245.9502 473.9688,246.0596 473.75,246.3252 C472.5781,245.8252 472.1406,245.7159 471.1875,245.7159 C468.5156,245.7159 466.5,247.7315 466.5,250.3565 L466.5,251.4502 Z " fill="#000000"/><text fill="#000000" font-family="sans-serif" font-size="14" lengthAdjust="spacing" textLength="65" x="485.5" y="254.9">Segment4</text><line style="stroke:#181818;stroke-width:0.5;" x1="457.5" x2="552.5" y1="266.294" y2="266.294"/><text fill="#000000" font-family="sans-serif" font-size="14" lengthAdjust="spacing" textLength="44" x="462.5" y="283.2999">64 MiB</text><text fill="#000000" font-family="sans-serif" font-size="14" lengthAdjust="spacing" textLength="53" x="462.5" y="300.0999">0 pieces</text><line style="stroke:#181818;stroke-width:0.5;" x1="457.5" x2="552.5" y1="307.8938" y2="307.8938"/></g><!--MD5=[f3d6350694750b9cd130d27d4c72db17]
@startuml
package Destination {
    class Object {
        COMMITTED
        key
        256 MiB
    }

    class SegmentCopies {
        streamID
        ancestorStreamID
    }

    package Segments.Part1 {
        class Segment1 {
            64 MiB
            0 pieces
        }
        class Segment2 {
            64 MiB
            0 pieces
        }
        class Segment3 {
            64 MiB
            0 pieces
        }
        class Segment4 {
            64 MiB
            0 pieces
        }
    }
}
@enduml

PlantUML version 1.2022.7(Mon Aug 22 19:01:30 CEST 2022)
(GPL source distribution)
Java Runtime: OpenJDK Runtime Environment
JVM: OpenJDK 64-Bit Server VM
Default Encoding: UTF-8
Language: en
Country: US
--></g></svg>