<svg width="40" height="40" viewBox="0 0 40 40" fill="none" xmlns="http://www.w3.org/2000/svg">
<path fill-rule="evenodd" clip-rule="evenodd" d="M16.4423 0H23.3463C28.8835 0 31.0805 0.613723 33.2353 1.76617C35.3902 2.91861 37.0814 4.60977 38.2338 6.76466L38.3214 6.93055C39.4029 9.00672 39.9846 11.2 40 16.4423V23.3463C40 28.8835 39.3863 31.0805 38.2338 33.2353C37.0814 35.3902 35.3902 37.0814 33.2353 38.2338L33.0694 38.3214C30.9933 39.4029 28.8 39.9846 23.5577 40H16.6537C11.1165 40 8.91954 39.3863 6.76466 38.2338C4.60977 37.0814 2.91861 35.3902 1.76617 33.2353L1.67858 33.0694C0.597074 30.9933 0.0154219 28.8 0 23.5577V16.6537C0 11.1165 0.613723 8.91954 1.76617 6.76466C2.91861 4.60977 4.60977 2.91861 6.76466 1.76617L6.93055 1.67858C9.00672 0.597074 11.2 0.0154219 16.4423 0Z" fill="#EBEEF1"/>
<path d="M29.8065 18.0621C31.6826 19.9383 31.6998 22.9692 29.837 24.8319C29.0822 25.5867 28.1357 26.0329 27.1518 26.1717L26.8141 28.085C26.7893 29.5861 23.717 30.7999 19.9307 30.7999C16.1672 30.7999 13.1091 29.6007 13.0483 28.1121L13.0478 28.085L10.4595 13.4212C10.4304 13.3175 10.4117 13.2125 10.404 13.1065L10.4 13.0829L10.4025 13.083C10.4008 13.0536 10.4 13.0242 10.4 12.9946C10.4 10.8989 14.667 9.19995 19.9307 9.19995C25.1945 9.19995 29.4615 10.8989 29.4615 12.9946C29.4615 13.0242 29.4607 13.0536 29.459 13.083L29.4615 13.0829L29.4574 13.1081C29.4496 13.2129 29.4312 13.3167 29.4025 13.4193L28.7665 17.0221L29.8065 18.0621ZM27.0615 15.5124C25.3156 16.2957 22.7679 16.7893 19.9307 16.7893C17.0937 16.7893 14.5461 16.2957 12.8002 15.5125L14.6763 26.1436L14.983 27.7714L15.0115 27.7935C15.1719 27.9138 15.4202 28.0494 15.7426 28.18L15.8081 28.2061C16.8473 28.6125 18.3282 28.8585 19.9307 28.8585C21.5425 28.8585 23.031 28.6096 24.0703 28.1995C24.4449 28.0516 24.7242 27.8963 24.8881 27.764L24.9014 27.753L25.2025 26.0464C24.4451 25.8382 23.7273 25.4415 23.1238 24.8571L23.0672 24.8014L19.1665 20.9007C18.7874 20.5216 18.7874 19.907 19.1665 19.5279C19.5363 19.158 20.1304 19.149 20.5112 19.5008L20.5393 19.5279L24.44 23.4286C24.7623 23.7508 25.1407 23.9813 25.5425 24.1201L27.0615 15.5124ZM28.3547 19.3559L27.5211 24.0796C27.8652 23.9432 28.1869 23.7364 28.4642 23.4591C29.5522 22.3712 29.5552 20.5991 28.4732 19.4753L28.4337 19.4349L28.3547 19.3559ZM19.9307 11.1414C17.6016 11.1414 15.4416 11.5052 13.9096 12.1151C13.2513 12.3772 12.7615 12.6659 12.4797 12.9312C12.4617 12.9481 12.4453 12.9642 12.4304 12.9795L12.4163 12.9944L12.4419 13.0213L12.4797 13.058C12.7615 13.3234 13.2513 13.612 13.9096 13.8741C15.4416 14.4841 17.6016 14.8478 19.9307 14.8478C22.2599 14.8478 24.4199 14.4841 25.9519 13.8741C26.6102 13.612 27.1 13.3234 27.3818 13.058C27.3998 13.0411 27.4162 13.025 27.4311 13.0097L27.4454 12.9944L27.4196 12.9679L27.3818 12.9312C27.1 12.6659 26.6102 12.3772 25.9519 12.1151C24.4199 11.5052 22.2599 11.1414 19.9307 11.1414Z" fill="#0149FF"/>
</svg>
