<svg width="112" height="113" viewBox="0 0 112 113" fill="none" xmlns="http://www.w3.org/2000/svg">
    <path d="M46.04 1H65.3698C80.7857 1 86.7521 2.72263 92.5841 5.86948C98.4422 9.0304 103.035 13.6635 106.17 19.5763C106.17 19.577 106.171 19.5778 106.171 19.5785L106.411 20.0376C106.412 20.0383 106.412 20.0389 106.412 20.0396C109.339 25.7076 110.957 31.7258 111 46.4499C111 46.4508 111 46.4516 111 46.4525L111 65.9534C111 81.5098 109.292 87.5337 106.171 93.4215C103.037 99.3345 98.4442 103.968 92.5865 107.129C92.5857 107.13 92.5849 107.13 92.5841 107.131L92.1292 107.373C92.1285 107.373 92.1278 107.374 92.1271 107.374C86.5129 110.324 80.5522 111.957 65.9611 112C65.9602 112 65.9594 112 65.9585 112L46.6303 112C31.2143 112 25.2479 110.277 19.4159 107.131C13.5578 103.97 8.96468 99.3365 5.82993 93.4236C5.82956 93.4229 5.82919 93.4222 5.82881 93.4215L5.58858 92.9624C5.58822 92.9617 5.58786 92.961 5.58751 92.9603C2.66136 87.2922 1.04304 81.2739 1 66.5489V47.0466C1 31.4902 2.70786 25.4663 5.82881 19.5785C8.96317 13.6654 13.5558 9.03204 19.4135 5.87075C19.4143 5.87033 19.4151 5.8699 19.4159 5.86948L19.8708 5.62718C19.8716 5.62674 19.8725 5.6263 19.8733 5.62586C25.4875 2.67566 31.4484 1.04342 46.04 1Z" fill="white" stroke="#EBEEF1" stroke-width="2"/>
    <path d="M30.833 39.3889L56.4997 44.5222L82.1663 39.3889L73.6108 84.3056L67.1941 86.4445L56.4997 88.1556L45.8052 86.4445L39.3886 84.3056L30.833 39.3889Z" fill="#D7E8FF"/>
    <path d="M87.9628 50.2829C93.9821 56.3022 94.0371 66.0264 88.0608 72.0028C85.6392 74.4243 82.6022 75.8557 79.4458 76.3012L78.3622 82.4397C78.2826 87.2558 68.4258 91.1501 56.2781 91.1501C44.2034 91.1501 34.392 87.3024 34.197 82.5264L34.1952 82.4397L25.8913 35.3933C25.7978 35.0606 25.738 34.7238 25.7132 34.3835L25.7002 34.3078L25.7083 34.3082C25.7029 34.214 25.7002 34.1194 25.7002 34.0246C25.7002 27.3008 39.3904 21.8501 56.2781 21.8501C73.1659 21.8501 86.8561 27.3008 86.8561 34.0246C86.8561 34.1194 86.8534 34.214 86.8479 34.3082L86.8561 34.3078L86.8427 34.3886C86.8179 34.725 86.7588 35.058 86.6668 35.3871L84.6262 46.9461L87.9628 50.2829ZM79.156 42.1026C73.5544 44.6156 65.3808 46.1992 56.2781 46.1992C47.1758 46.1992 39.0024 44.6157 33.4009 42.1028L39.4201 76.2109L40.4042 81.4335L40.4954 81.5043C41.0101 81.8902 41.8067 82.3253 42.8411 82.7445L43.0512 82.8282C46.3855 84.132 51.1367 84.9213 56.2781 84.9213C61.4492 84.9213 66.2248 84.1228 69.5592 82.8069C70.7611 82.3326 71.657 81.8343 72.1829 81.4098L72.2257 81.3746L73.1918 75.8991C70.7615 75.2311 68.4587 73.9585 66.5226 72.0836L66.3409 71.9048L53.8261 59.39C52.6099 58.1737 52.6099 56.2018 53.8261 54.9855C55.0127 53.799 56.9186 53.77 58.1403 54.8987L58.2306 54.9855L70.7454 67.5003C71.7792 68.5342 72.9934 69.2737 74.2826 69.7188L79.156 42.1026ZM83.3051 54.4337L80.6304 69.5889C81.7344 69.1515 82.7666 68.488 83.6563 67.5983C87.1468 64.1078 87.1564 58.4225 83.6853 54.8168L83.5583 54.6874L83.3051 54.4337ZM56.2781 28.0789C48.8056 28.0789 41.8756 29.246 36.9604 31.203C34.8483 32.0439 33.2769 32.9699 32.3726 33.8213C32.3149 33.8755 32.2623 33.9272 32.2146 33.9762L32.1691 34.0241L32.2513 34.1104L32.3726 34.228C33.2769 35.0794 34.8483 36.0054 36.9604 36.8463C41.8756 38.8033 48.8056 39.9704 56.2781 39.9704C63.7507 39.9704 70.6807 38.8033 75.5959 36.8463C77.708 36.0054 79.2793 35.0794 80.1837 34.228C80.2413 34.1738 80.2939 34.1221 80.3417 34.0731L80.3877 34.0241L80.305 33.9389L80.1837 33.8213C79.2793 32.9699 77.708 32.0439 75.5959 31.203C70.6807 29.246 63.7507 28.0789 56.2781 28.0789Z" fill="#0149FF"/>
</svg>
