<svg width="18" height="19" viewBox="0 0 18 19" fill="none" xmlns="http://www.w3.org/2000/svg">
    <path d="M16.7748 7.66038C18.3965 9.28209 18.4113 11.902 16.8012 13.5121C16.1488 14.1646 15.3306 14.5502 14.4801 14.6702L14.1882 16.3241C14.1668 17.6216 11.5111 18.6708 8.23832 18.6708C4.98514 18.6708 2.34176 17.6342 2.28922 16.3474L2.28873 16.3241L0.0514784 3.64881C0.0262905 3.55917 0.0101765 3.46844 0.00351078 3.37676L0 3.35635L0.00219073 3.35647C0.000732884 3.33107 0 3.30561 0 3.28007C0 1.46854 3.68842 0 8.23832 0C12.7882 0 16.4766 1.46854 16.4766 3.28007C16.4766 3.30561 16.4759 3.33107 16.4744 3.35647L16.4766 3.35635L16.473 3.37813C16.4663 3.46877 16.4504 3.55849 16.4256 3.64714L15.8759 6.76137L16.7748 7.66038ZM14.4021 5.45644C12.8929 6.13349 10.6908 6.56014 8.23832 6.56014C5.78596 6.56014 3.58388 6.13352 2.07471 5.4565L3.69641 14.6459L3.96156 16.053L3.98613 16.0721C4.1248 16.176 4.33942 16.2933 4.61812 16.4062L4.67471 16.4287C5.57304 16.78 6.85312 16.9927 8.23832 16.9927C9.63152 16.9927 10.9181 16.7775 11.8165 16.423C12.1403 16.2952 12.3817 16.161 12.5234 16.0466L12.5349 16.0371L12.7952 14.5619C12.1404 14.3819 11.52 14.0391 10.9984 13.5339L10.9494 13.4858L7.5777 10.114C7.25001 9.78633 7.25001 9.25505 7.5777 8.92736C7.89739 8.60767 8.41087 8.59987 8.74001 8.90397L8.76435 8.92736L12.1361 12.2991C12.4146 12.5776 12.7417 12.7769 13.0891 12.8968L14.4021 5.45644ZM15.5199 8.77869L14.7993 12.8618C15.0968 12.744 15.3749 12.5652 15.6146 12.3255C16.555 11.3851 16.5576 9.85336 15.6224 8.8819L15.5882 8.84703L15.5199 8.77869ZM8.23832 1.67818C6.22507 1.67818 4.35798 1.9926 3.03372 2.51985C2.46469 2.74641 2.04133 2.99591 1.79767 3.22528C1.78214 3.23989 1.76797 3.25382 1.75511 3.26701L1.74286 3.27992L1.765 3.30316L1.79767 3.33487C2.04133 3.56423 2.46469 3.81374 3.03372 4.04029C4.35798 4.56755 6.22507 4.88197 8.23832 4.88197C10.2516 4.88197 12.1187 4.56755 13.4429 4.04029C14.0119 3.81374 14.4353 3.56423 14.679 3.33487C14.6945 3.32025 14.7087 3.30632 14.7215 3.29313L14.7339 3.27992L14.7116 3.25698L14.679 3.22528C14.4353 2.99591 14.0119 2.74641 13.4429 2.51985C12.1187 1.9926 10.2516 1.67818 8.23832 1.67818Z" fill="#091C45"/>
</svg>
