<svg width="112" height="113" viewBox="0 0 112 113" fill="none" xmlns="http://www.w3.org/2000/svg">
    <path fill-rule="evenodd" clip-rule="evenodd" d="M46.0385 0H65.3698C80.8738 0 87.0253 1.73377 93.059 4.98942C99.0926 8.24507 103.828 13.0226 107.055 19.1102L107.3 19.5788C110.328 25.444 111.957 31.6399 112 46.4496V65.9534C112 81.5959 110.282 87.8023 107.055 93.8898C103.828 99.9774 99.0926 104.755 93.059 108.011L92.5944 108.258C86.7812 111.313 80.6401 112.956 65.9615 113H46.6303C31.1262 113 24.9747 111.266 18.941 108.011C12.9074 104.755 8.17211 99.9774 4.94527 93.8898L4.70003 93.4212C1.67181 87.556 0.0431812 81.3601 0 66.5504V47.0466C0 31.4041 1.71842 25.1977 4.94527 19.1102C8.17211 13.0226 12.9074 8.24507 18.941 4.98942L19.4056 4.74199C25.2188 1.68673 31.3599 0.0435667 46.0385 0Z" fill="#EBEEF1"/>
    <path d="M56.4626 69.1075C68.2203 69.1075 77.7519 59.491 77.7519 47.6285C77.7519 35.7659 68.2203 26.1494 56.4626 26.1494C44.7049 26.1494 35.1733 35.7659 35.1733 47.6285C35.1733 59.491 44.7049 69.1075 56.4626 69.1075Z" fill="#FFC600"/>
    <path fill-rule="evenodd" clip-rule="evenodd" d="M55.9999 20.5449C71.5917 20.5449 84.2314 33.0881 84.2314 48.5609C84.2314 64.0337 71.5917 76.5769 55.9999 76.5769C41.3478 76.5769 29.3027 65.5001 27.9041 51.3245C28.1184 46.3636 28.585 42.5895 29.2916 39.4614C33.0977 28.4553 43.6179 20.5449 55.9999 20.5449ZM55.9999 28.9497C44.9784 28.9497 36.099 37.7613 36.099 48.5609C36.099 59.3605 44.9784 68.1721 55.9999 68.1721C67.0214 68.1721 75.9008 59.3605 75.9008 48.5609C75.9008 37.7613 67.0214 28.9497 55.9999 28.9497Z" fill="#FF458B"/>
    <path d="M84.2313 48.5625H27.7688V91.5204H84.2313V48.5625Z" fill="#0149FF"/>
    <path fill-rule="evenodd" clip-rule="evenodd" d="M56.4626 59.7686C59.5298 59.7686 62.0163 62.111 62.0163 65.0005C62.0163 67.1876 60.5917 69.0613 58.5691 69.8429L58.5692 75.6447H54.356L54.3561 69.8429C52.3335 69.0613 50.9089 67.1876 50.9089 65.0005C50.9089 62.111 53.3954 59.7686 56.4626 59.7686Z" fill="#0218A7"/>
</svg>
