<svg width="346" height="345" viewBox="0 0 346 345" fill="none" xmlns="http://www.w3.org/2000/svg">
<g clip-path="url(#clip0)">
<path d="M165.9 284.9C244.4 284.9 308 221.1 308 142.4C308 63.7 244.4 0 165.9 0C87.3998 0 23.7998 63.8 23.7998 142.5C23.7998 221.2 87.3998 284.9 165.9 284.9Z" fill="#E8EAF2"/>
<path d="M110.6 64.4004C110.2 64.4004 109.9 64.4004 109.6 64.4004C109 64.4004 108.4 64.1004 108.1 63.6004C100.9 50.4004 86.7 41.4004 70.4 41.4004C55.7 41.4004 42.7 48.8004 35 60.0004C34.6 60.6004 33.9 60.8004 33.3 60.7004C31.4 60.3004 29.4 60.1004 27.3 60.1004C12.2 60.0004 0 72.1004 0 87.1004C0 88.0004 0.7 88.7004 1.6 88.7004H131.8C132.7 88.7004 133.4 88.0004 133.4 87.1004C133.4 74.6004 123.2 64.4004 110.6 64.4004Z" fill="#B0B6C9"/>
<path d="M34.9002 281.8C43.2002 279.8 48.3002 271.2 46.3002 262.6C44.3002 254 35.8002 248.7 27.5002 250.6C19.2002 252.5 14.0002 261.3 16.1002 269.8C18.0002 278.5 26.5002 283.8 34.9002 281.8Z" fill="#8F96AD"/>
<path d="M32.8004 273C36.5004 272.1 38.9004 268.4 38.0004 264.6C37.1004 260.9 33.4004 258.5 29.6004 259.4C25.9004 260.3 23.5004 264 24.4004 267.8C25.2004 271.7 29.0004 273.9 32.8004 273Z" fill="#F5F6FA"/>
<path d="M225.6 256.7C219.5 249.2 202.8 234 202.8 234L197.3 235.8C197.3 235.8 208.6 263.8 213.8 265.7C219 267.6 224.3 263.9 226.1 260.2C226.6 259.1 226.4 257.7 225.6 256.7Z" fill="#363840"/>
<path d="M119.7 211.1L134.8 212C134.8 212 184.3 163.8 215 160.5C215 160.5 234.4 188.8 209 237.8C206.9 241.8 201.8 243.3 198.2 240.6C197.1 239.8 196.4 238.8 196 237.6C197.7 221.4 179.1 211.2 166.3 221.2C159.6 226.5 153.8 231 151.6 233C144.2 239.3 109.6 233.1 119.7 211.1Z" fill="#8F96AD"/>
<path d="M252.4 334.8C246.3 327.3 229.6 312.1 229.6 312.1L224.1 313.9C224.1 313.9 235.4 341.9 240.6 343.8C245.8 345.7 251.1 342 252.9 338.3C253.5 337.2 253.3 335.8 252.4 334.8Z" fill="#363840"/>
<path d="M119.5 222.1L190.1 227.3C190.1 227.3 228.3 263.2 232.4 314.5C232.4 314.5 233.4 318.3 226 318.5C196.8 268.1 158.6 257.1 135 255.8C117.4 254.8 100.9 246.9 89.3999 233.6C88.7999 232.8 88.3999 232.4 88.3999 232.4L119.5 222.1Z" fill="#B0B6C9"/>
<path d="M124.8 165.3C124.8 165.3 130 203.9 166.3 221.3L179.6 220.6L182.4 225.8L151.3 224.8C151.3 224.8 125.4 212.6 113.1 183.1C112.7 182.1 106 165.6 124.8 165.3Z" fill="#8F96AD"/>
<path d="M125.3 221.8C125.3 221.8 118.1 197.8 117.7 174.8C117.7 174.8 124.4 169.8 128.5 167.7C129.8 167 130.4 165.4 129.8 164.1C127.3 157.9 111.2 133.2 109.9 132.7C102.9 130.5 74.3998 114.7 51.8998 141.6C42.2998 153.2 50.4998 191.2 88.3998 232.4L91.8998 236.6L125.3 221.8Z" fill="#F5F6FA"/>
<path d="M94.5997 178.5C94.5997 178.5 116.8 208.4 147.3 214.5C147.3 214.5 155.7 207.8 161.4 210.7C167.1 213.7 174.5 225.6 174.5 225.6L135.1 223.1C135.1 223.1 97.8997 219.4 80.6997 195.7C82.6997 187.9 87.4997 183.5 94.5997 178.5Z" fill="#B0B6C9"/>
<path d="M84.7999 111.1L78.3999 128.3C78.0999 129.1 78.3999 130 78.9999 130.5C81.3999 132.4 87.7999 136.3 97.0999 133.5C98.1999 133.2 98.8999 132.3 99.0999 131.2L101.3 116L84.7999 111.1Z" fill="#8F96AD"/>
<path d="M116.4 98.7998C116.4 98.7998 112.7 116.8 105.3 122C97.9999 127.1 84.5999 122.1 80.8999 108.1L91.4999 85.2998L116.4 98.7998Z" fill="#B0B6C9"/>
<path d="M89.5999 100.3C90.0999 100.5 90.6999 100.2 90.7999 99.6998C91.1999 97.9998 92.8999 90.1998 99.3999 94.1998C105.9 98.1998 115.6 103.6 122 97.5998C142.5 78.1998 110 80.0998 101.3 75.3998C98.8999 74.0998 87.0999 68.4998 81.9999 78.1998C81.6999 78.7998 73.9999 97.2998 80.6999 109.4C80.9999 110 81.8999 109.8 82.1999 109.2L86.6999 100.1C86.8999 99.6998 87.3999 99.4998 87.7999 99.6998L89.5999 100.3Z" fill="#363840"/>
<path d="M89.6 102.2C89.6 102.2 87.8 92.2995 84 95.2995C80.2 98.1995 84.3 105.5 88.4 107L89.6 102.2Z" fill="#B0B6C9"/>
<path d="M172.4 227.7L193.8 169.8C194.7 167.4 196.9 165.9 199.4 165.8L223.4 165.7C225.8 165.7 227.5 168.2 226.5 170.4L203.2 225.5C202.4 227.3 200.7 228.5 198.8 228.5L175.1 229.6L172.4 227.7Z" fill="#363840"/>
<path d="M204.898 198.448C206.387 195.864 206.43 193.098 204.994 192.271C203.559 191.444 201.188 192.869 199.699 195.453C198.21 198.037 198.167 200.802 199.603 201.629C201.039 202.457 203.409 201.032 204.898 198.448Z" fill="#F7F7FF"/>
<path d="M175.2 229.799H175.1L125.1 224.099C123.9 223.999 123 222.799 123.1 221.599C123.2 220.399 124.4 219.499 125.6 219.599L175.6 225.299C176.8 225.399 177.7 226.599 177.6 227.799C177.4 228.999 176.4 229.799 175.2 229.799Z" fill="#363840"/>
<path d="M117.7 175.4C117.4 175.4 117.2 175.1 117.2 174.8C117.9 164.3 114.7 150.2 114.7 150.1C114.6 149.8 114.8 149.5 115.1 149.5C115.4 149.4 115.7 149.6 115.7 149.9C115.7 150 118.9 164.3 118.2 174.9C118.2 175.2 118 175.4 117.7 175.4Z" fill="#0F002D"/>
<path d="M94.5995 179.1C94.3995 179.1 94.2995 179 94.1995 178.9C94.0995 178.8 83.9995 164.1 80.7995 154.3C80.6995 154 80.8995 153.7 81.0995 153.6C81.3995 153.5 81.6995 153.7 81.7995 153.9C84.8995 163.6 94.8995 178.1 94.9995 178.2C95.1995 178.4 95.0995 178.8 94.8995 178.9C94.7995 179.1 94.6995 179.1 94.5995 179.1Z" fill="#0F002D"/>
<path d="M77.7996 199.499L77.3996 199.299C61.8996 191.499 53.2996 171.899 53.1996 171.699C53.0996 171.399 53.1996 171.099 53.4996 170.999C53.7996 170.899 54.0996 170.999 54.1996 171.299C54.2996 171.499 62.5996 190.399 77.4996 198.199L79.1996 196.099C79.3996 195.899 79.6996 195.799 79.8996 195.999C80.0996 196.199 80.1996 196.499 79.9996 196.699L77.7996 199.499Z" fill="#0F002D"/>
<path d="M255.2 109.2C277.4 100.3 304.5 97.0996 304.5 97.0996C326 133.5 337.7 180.5 337.7 180.5C322.1 191.7 299.8 191.8 299.8 191.8C290.7 176.6 259.8 136 259.8 136C248.3 138.8 238.1 139.1 229.1 137.8C232.3 129.1 231.7 119.7 231 114.3C239.8 113.7 248.3 111.9 255.2 109.2Z" fill="#F5F6FA"/>
<path d="M176.5 101.499C177.7 97.9994 180.9 98.1994 180.9 98.1994C189.5 110.899 211.1 115.499 230.9 114.299C231.6 119.699 232.1 128.999 229 137.799C193.3 132.399 176.5 101.499 176.5 101.499Z" fill="#B0B6C9"/>
<path d="M177.3 102C177.3 102.8 180.4 102.9 180.9 99.2996C180.4 97.7996 178.9 91.3996 177.6 90.4996C170.7 85.9996 158.8 81.5996 158.8 81.5996C157.9 83.5996 159.7 84.5996 159.7 84.5996L165.7 87.3996C165.4 89.3996 164.9 91.1996 165.1 93.2996C165.3 94.8996 166.1 96.3996 167.4 97.4996C168.7 98.5996 170.4 99.8996 171.9 100.9C174.7 102.9 177.3 102 177.3 102Z" fill="#8F96AD"/>
<path d="M168.7 89.6992L173.9 91.4992L176.4 94.2992L174.4 99.4992C174.4 99.4992 170.7 93.3992 169.3 92.2992C167.8 91.1992 168 90.3992 168.7 89.6992Z" fill="#8F96AD"/>
<path d="M270.9 82.4004L285.9 100.3C286.1 100.6 286.2 101 285.9 101.3C284.4 103.1 278.6 108.9 268.1 106.8C267 106.6 266.1 105.9 265.5 104.9L256.4 88.0004L270.9 82.4004Z" fill="#8F96AD"/>
<path d="M248.1 69.2002C248.1 69.2002 245.9 86.9002 249.2 92.5002C252.5 98.1002 262 93.9002 268.6 85.9002L268.4 67.7002L248.1 69.2002Z" fill="#B0B6C9"/>
<path d="M265.3 78.2001C264.9 78.2001 264.6 77.8001 264.7 77.4001C265 76.2001 265.4 73.8001 265.1 72.0001C265.1 72.0001 266.2 70.6001 260.7 71.3001C255.3 72.0001 249.4 72.8001 246.2 69.2001C243.1 65.6001 243.7 57.2001 247.6 54.9001C255.1 50.5001 278.9 61.2001 279 65.2001C279.1 69.3001 276.8 75.8001 276.7 76.0001C276.1 77.6001 273.2 84.3001 268.4 86.9001C268 87.1001 267.5 86.8001 267.4 86.3001L267.2 79.0001C267.2 78.7001 266.9 78.4001 266.6 78.4001L265.3 78.2001Z" fill="#363840"/>
<path d="M264.7 79.5005C264.7 79.5005 268.8 73.6005 270.4 76.6005C272 79.7005 267.2 83.2005 264 83.0005L264.7 79.5005Z" fill="#B0B6C9"/>
<path d="M304.2 122L293.6 111.1L304.5 97.0996C304.5 97.0996 330.8 103.3 341.1 120C337.3 121.8 330.5 125.6 324.8 131.8C320 123.9 304.2 122 304.2 122Z" fill="#F5F6FA"/>
<path d="M293.7 149.4C293.7 149.4 322.2 153.7 325.8 139.3C326.5 136.3 326 133.8 324.8 131.8C330.5 125.6 337.3 121.8 341.1 120C344.2 125 345.9 131 344.9 138.1C340.7 168.8 292.8 156.4 292.8 156.4L293.7 149.4Z" fill="#8F96AD"/>
<path d="M295.7 155.5C295.7 155.5 294.7 147.5 293 145.2C291.3 142.9 288.6 140.1 284.2 142.6C279.8 145.1 275.1 149.2 275.1 149.2C275.1 149.2 276.7 152.5 279.8 150L278.3 152.5C278.3 152.5 279.7 155.1 282.1 152.5L280.9 155.5C280.9 155.5 283 157.2 284.7 155C286.3 152.7 289.8 158.7 295.7 155.5Z" fill="#B0B6C9"/>
<path d="M157.9 39.8H153C150.5 39.8 148.4 37.8 148.4 35.4C148.4 33 150.5 31 153 31H157.9C160.4 31 162.5 33 162.5 35.4C162.5 37.8 160.4 39.8 157.9 39.8Z" fill="white"/>
<path d="M137.1 22.0998H92.2001C89.7001 22.0998 87.6001 20.0998 87.6001 17.6998C87.6001 15.2998 89.7001 13.2998 92.2001 13.2998H137.1C139.6 13.2998 141.7 15.2998 141.7 17.6998C141.7 20.0998 139.6 22.0998 137.1 22.0998Z" fill="#F5F6FA"/>
<path d="M184.4 22.0998H177.4C174.8 22.0998 172.7 20.0998 172.7 17.6998C172.7 15.2998 174.8 13.2998 177.4 13.2998H184.4C187 13.2998 189.1 15.2998 189.1 17.6998C189.1 20.0998 187 22.0998 184.4 22.0998Z" fill="#363840"/>
<path fill-rule="evenodd" clip-rule="evenodd" d="M259.9 208.7C263.5 208.7 266.5 205.7 266.5 202.1C266.5 198.5 263.5 195.5 259.9 195.5C256.3 195.5 253.3 198.5 253.3 202.1C253.2 205.7 256.2 208.7 259.9 208.7Z" fill="#A5A9B5"/>
</g>
<defs>
<clipPath id="clip0">
<rect width="345.2" height="344.4" fill="white"/>
</clipPath>
</defs>
</svg>
