<svg width="102" height="72" viewBox="0 0 102 72" fill="none" xmlns="http://www.w3.org/2000/svg">
<rect x="12" y="0.5" width="79" height="71" rx="11.5" fill="url(#paint0_linear)" stroke="#C7C7C7"/>
<path d="M1.76891 47.3241C0.567212 48.004 0.144216 49.5294 0.824126 50.7311C1.50404 51.9328 3.02938 52.3558 4.23109 51.6759L1.76891 47.3241ZM100.226 23.1789C101.429 22.502 101.856 20.9777 101.179 19.7743C100.502 18.571 98.9777 18.1442 97.7743 18.8211L100.226 23.1789ZM53.6852 38.9234L52.0539 40.8178L53.6852 38.9234ZM65.113 40.0614L63.8874 37.8825L65.113 40.0614ZM4.23109 51.6759L36.1104 33.6389L33.6483 29.2871L1.76891 47.3241L4.23109 51.6759ZM44.6976 34.4832L52.0539 40.8178L55.3165 37.0289L47.9602 30.6944L44.6976 34.4832ZM66.3387 42.2404L100.226 23.1789L97.7743 18.8211L63.8874 37.8825L66.3387 42.2404ZM52.0539 40.8178C56.0414 44.2515 61.7523 44.8202 66.3387 42.2404L63.8874 37.8825C61.1356 39.4304 57.709 39.0891 55.3165 37.0289L52.0539 40.8178ZM36.1104 33.6389C38.8644 32.0807 42.2999 32.4185 44.6976 34.4832L47.9602 30.6944C43.9641 27.2532 38.2381 26.6902 33.6483 29.2871L36.1104 33.6389Z" fill="url(#paint1_linear)"/>
<defs>
<linearGradient id="paint0_linear" x1="51.5" y1="0" x2="51.5" y2="72" gradientUnits="userSpaceOnUse">
<stop stop-color="#ECECEC"/>
<stop offset="1" stop-color="#F2F2F2" stop-opacity="0"/>
</linearGradient>
<linearGradient id="paint1_linear" x1="99" y1="18" x2="1.49999" y2="47" gradientUnits="userSpaceOnUse">
<stop stop-color="#2683FF"/>
<stop offset="0.447514" stop-color="#2E8BD5"/>
<stop offset="1" stop-color="#495DE3"/>
</linearGradient>
</defs>
</svg>
