<svg width="321" height="312" viewBox="0 0 321 312" fill="none" xmlns="http://www.w3.org/2000/svg">
    <g clip-path="url(#clip0)">
        <path d="M167.6 295.1C246.1 295.1 309.7 231.3 309.7 152.6C309.7 73.9 246.1 10.1 167.6 10.1C89.1 10.1 25.5 73.9 25.5 152.6C25.5 231.3 89.1 295.1 167.6 295.1Z" fill="#2683FF"/>
        <path d="M209.3 200.2H119.7C117.3 200.2 115.4 198.3 115.4 195.9C115.4 193.5 117.3 191.6 119.7 191.6H209.3C211.7 191.6 213.6 193.5 213.6 195.9C213.6 198.3 211.7 200.2 209.3 200.2Z" fill="#6CB9FF"/>
        <path d="M201.9 161.2L128.8 162.4L130.9 180.2H199.8L201.9 161.2Z" fill="white"/>
        <path d="M171.1 204.1H160.6V307.5H171.1V204.1Z" fill="#6CB9FF"/>
        <path d="M170.5 268.6H161.3C159.4 268.6 157.8 267.1 157.8 265.1V254.6C157.8 252.7 159.3 251.1 161.3 251.1H170.5C172.4 251.1 174 252.6 174 254.6V265.1C173.9 267.1 172.4 268.6 170.5 268.6Z" fill="#6CB9FF"/>
        <path d="M49.2 311.4H39.5L65.8 167.1H75.5L49.2 311.4Z" fill="#6CB9FF"/>
        <path d="M287.9 311.4H297.6L271.3 167.1H261.6L287.9 311.4Z" fill="#6CB9FF"/>
        <path d="M293.5 167.7H44.5C41.6 167.7 39.2 165.3 39.2 162.4C39.2 159.5 41.6 157.1 44.5 157.1H293.5C296.4 157.1 298.8 159.5 298.8 162.4C298.8 165.3 296.4 167.7 293.5 167.7Z" fill="#6CB9FF"/>
        <path d="M153.2 121.7C132.7 123 97.1 132.8 95.7 147.5C94.5 159.8 104.1 156.8 114.2 157.3C124.3 157.8 181.7 157.2 181.7 157.2L153.2 121.7Z" fill="white"/>
        <path d="M182.5 121.2C203 122.5 246.2 133 246.7 147.9C247.1 158.3 237.1 157.9 224.5 157.4C214.4 157 172.2 157.1 172.2 157.1L182.5 121.2Z" fill="white"/>
        <path d="M100.5 154.7C96.5 151.7 96.6 146.3 100.1 142.7C103.2 139.5 109 137.8 115 138.3C127.8 139.5 162.7 150.1 162.7 150.1L181.8 157.2C181.8 157.2 141.5 156.7 124.5 156.9C114.7 157 105.1 158.2 100.5 154.7Z" fill="#DEDEFC"/>
        <path d="M242.4 154.7C246.4 151.7 246.3 146.3 242.8 142.7C239.7 139.5 233.9 137.8 227.9 138.3C215.1 139.5 176.3 150.6 176.3 150.6L165.5 157C165.5 157 201.5 156.7 218.4 156.9C228.2 157 237.7 158.2 242.4 154.7Z" fill="#DEDEFC"/>
        <path d="M171.759 113.612C170.965 113.104 170.033 112.933 169.1 112.8C159.4 110.9 149 117 147.5 126.7C146.6 132.5 146.3 140.6 149 144.5C152.1 149.1 157.5 151.2 162.8 153.2C169.4 155.7 178.7 156.3 183.6 154.4C188.7 152.4 185.7 142.5 190 136.7C193.4 132.2 191 124.9 186.6 122.8C184.3 121.7 184.8 118.2 182.9 115.9C180.8 113.4 175.7 112.3 171.9 113.7C171.851 113.671 171.804 113.641 171.759 113.612Z" fill="#0F002D"/>
        <path d="M279.1 152.6H214.9L221 115.4C221.4 113.1 223.3 111.4 225.7 111.4H282.1C284.1 111.4 285.6 113.2 285.3 115.1L279.1 152.6Z" fill="#0F002D"/>
        <path d="M280.2 152.6H216L222.1 115.4C222.5 113.1 224.4 111.4 226.8 111.4H283.2C285.2 111.4 286.7 113.2 286.4 115.1L280.2 152.6Z" fill="#0F002D"/>
        <path d="M199.3 157.4H280.2V152.6H203.9C201.4 152.6 199.3 154.7 199.3 157.2V157.4Z" fill="#0F002D"/>
        <path d="M253.7 138.3C256.793 138.3 259.3 135.793 259.3 132.7C259.3 129.607 256.793 127.1 253.7 127.1C250.607 127.1 248.1 129.607 248.1 132.7C248.1 135.793 250.607 138.3 253.7 138.3Z" fill="white"/>
        <path d="M192.5 204.1H138.3C131.1 204.1 136.1 201.9 136.1 195.6L134.8 180.2H195.5L194.3 195.1C194.3 201.4 199.7 204.1 192.5 204.1Z" fill="#0F002D"/>
        <path d="M141.2 297.5H154L164.2 180.2H130.9L141.2 297.5Z" fill="#0F002D"/>
        <path d="M176.7 297.5H189.5L199.8 180.2H166.4L176.7 297.5Z" fill="#0F002D"/>
        <path d="M193.5 300.8H137.6C135.1 300.8 133.1 302.8 133.1 305.3C133.1 307.8 135.1 309.8 137.6 309.8H193.5C196 309.8 198 307.8 198 305.3C198 302.8 196 300.8 193.5 300.8Z" fill="#6CB9FF"/>
        <path fill-rule="evenodd" clip-rule="evenodd" d="M23.4 98.5C21.5 98.5 20.1 97 20.1 95.1C21 69.3 31.9 46 49 28.9C66.1 11.8 89.4 0.900025 115.2 2.50735e-05C117.1 -0.0999749 118.6 1.40003 118.6 3.30002V32.6C118.6 34.4 117.2 35.8 115.4 35.9C99.4 36.7 85 43.6 74.3 54.2C63.7 64.9 56.8 79.3 56 95.3C55.9 97.1 54.5 98.5 52.7 98.5H23.4Z" fill="#DEDEFC"/>
        <path d="M117.1 30.7C123.507 30.7 128.7 25.5065 128.7 19.1C128.7 12.6935 123.507 7.5 117.1 7.5C110.693 7.5 105.5 12.6935 105.5 19.1C105.5 25.5065 110.693 30.7 117.1 30.7Z" fill="#499FFC"/>
        <path d="M169.4 93.9C172.382 93.9 174.8 91.4824 174.8 88.5C174.8 85.5177 172.382 83.1 169.4 83.1C166.418 83.1 164 85.5177 164 88.5C164 91.4824 166.418 93.9 169.4 93.9Z" fill="#6CB9FF"/>
        <path d="M15.5 282C24 282 31 274.8 31 266C31 257.2 24 250 15.5 250C6.99996 250 -4.0366e-05 257.2 -4.0366e-05 266C-0.10004 274.9 6.89996 282 15.5 282Z" fill="#499FFC"/>
        <path d="M15.5 273C19.3 273 22.5 269.9 22.5 266C22.5 262.2 19.4 259 15.5 259C11.7 259 8.5 262.1 8.5 266C8.5 269.9 11.6 273 15.5 273Z" fill="white"/>
        <path d="M278.4 93.9H303.3C305.8 93.9 307.9 91.9 307.9 89.5C307.9 87.1 305.8 85.1 303.3 85.1H278.4C275.9 85.1 273.8 87.1 273.8 89.5C273.8 91.9 275.8 93.9 278.4 93.9Z" fill="white"/>
        <path d="M278.5 76.3H285.5C288.1 76.3 290.2 74.1 290.2 71.3C290.2 68.5 288.1 66.3 285.5 66.3H278.5C275.9 66.3 273.8 68.5 273.8 71.3C273.8 74.1 275.8 76.3 278.5 76.3Z" fill="white"/>
        <path d="M250.2 75.7H257.2C259.8 75.7 261.9 73.7 261.9 71.3C261.9 68.9 259.8 66.9 257.2 66.9H250.2C247.6 66.9 245.5 68.9 245.5 71.3C245.4 73.7 247.5 75.7 250.2 75.7Z" fill="#0F002D"/>
        <path fill-rule="evenodd" clip-rule="evenodd" d="M217 231.5C220.6 231.5 223.6 228.5 223.6 224.9C223.6 221.3 220.6 218.3 217 218.3C213.4 218.3 210.4 221.3 210.4 224.9C210.4 228.5 213.4 231.5 217 231.5Z" fill="#2683FF"/>
        <path fill-rule="evenodd" clip-rule="evenodd" d="M26.1 142.1C29.7 142.1 32.7 139.1 32.7 135.5C32.7 131.9 29.7 128.9 26.1 128.9C22.5 128.9 19.5 131.9 19.5 135.5C19.5 139.1 22.5 142.1 26.1 142.1Z" fill="white"/>
        <path fill-rule="evenodd" clip-rule="evenodd" d="M45.1 142.1C48.7 142.1 51.7 139.1 51.7 135.5C51.7 131.9 48.7 128.9 45.1 128.9C41.5 128.9 38.5 131.9 38.5 135.5C38.5 139.1 41.5 142.1 45.1 142.1Z" fill="white"/>
        <path fill-rule="evenodd" clip-rule="evenodd" d="M64.1 142.1C67.7 142.1 70.7 139.1 70.7 135.5C70.7 131.9 67.7 128.9 64.1 128.9C60.5 128.9 57.5 131.9 57.5 135.5C57.5 139.1 60.5 142.1 64.1 142.1Z" fill="white"/>
        <path d="M290.9 211.7C290.4 211.7 290 211.7 289.6 211.8C288.8 211.9 288 211.4 287.7 210.7C278.3 193.6 260.1 182 239.1 182C220.1 182 203.3 191.5 193.4 206C192.9 206.7 192 207 191.2 206.9C188.7 206.4 186.1 206.1 183.5 206.1C164 206.2 148.2 221.8 148.2 241.2C148.2 241.2 148.2 241.2 148.2 241.3C148.2 242.4 149.1 243.3 150.3 243.3H318.4C319.5 243.3 320.5 242.4 320.5 241.3V241.2C320.3 224.9 307.1 211.7 290.9 211.7Z" fill="#DEDEFC"/>
        <path fill-rule="evenodd" clip-rule="evenodd" d="M169.4 77C167 77 165 75.1 164.8 72.7L162.9 47C162.7 44.3 164.8 42.1 167.5 42.1H171.3C174 42.1 176.1 44.4 175.9 47L174 72.7C173.8 75.1 171.8 77 169.4 77Z" fill="#6CB9FF"/>
    </g>
    <defs>
        <clipPath id="clip0">
            <rect width="320.3" height="311.4" fill="white"/>
        </clipPath>
    </defs>
</svg>
