<svg width="402" height="323" viewBox="0 0 402 323" fill="none" xmlns="http://www.w3.org/2000/svg">
<g clip-path="url(#clip0)">
<path d="M167.6 295.1C246.1 295.1 309.7 231.3 309.7 152.6C309.7 73.8996 246.1 10.0996 167.6 10.0996C89.1 10.0996 25.5 73.8996 25.5 152.6C25.5 231.3 89.1 295.1 167.6 295.1Z" fill="#2683FF"/>
<path d="M107 144C107 107.819 129.556 83 169 83C208.444 83 231 107.819 231 144C231 180.181 208.444 205 169 205C129.556 205 107 180.181 107 144ZM196.09 144C196.09 121.365 187.135 109.13 168.887 109.13C150.638 109.13 141.684 121.365 141.684 144C141.684 166.635 150.638 178.87 168.887 178.87C187.135 178.87 196.09 166.635 196.09 144Z" fill="#499FFC"/>
<path fill-rule="evenodd" clip-rule="evenodd" d="M23.4001 98.5008C21.5001 98.5008 20.1001 97.0008 20.1001 95.1008C21.0001 69.3008 31.9001 46.0008 49.0001 28.9008C66.1001 11.8008 89.4001 0.900819 115.2 0.000818531C117.1 -0.0991815 118.6 1.40082 118.6 3.30082V32.6008C118.6 34.4008 117.2 35.8008 115.4 35.9008C99.4001 36.7008 85.0001 43.6008 74.3001 54.2008C63.7001 64.9008 56.8001 79.3008 56.0001 95.3008C55.9001 97.1008 54.5001 98.5008 52.7001 98.5008H23.4001Z" fill="#DEDEFC"/>
<path d="M117.1 30.7C123.507 30.7 128.7 25.5065 128.7 19.1C128.7 12.6935 123.507 7.5 117.1 7.5C110.693 7.5 105.5 12.6935 105.5 19.1C105.5 25.5065 110.693 30.7 117.1 30.7Z" fill="#499FFC"/>
<path d="M278.4 93.9016H303.3C305.8 93.9016 307.9 91.9016 307.9 89.5016C307.9 87.1016 305.8 85.1016 303.3 85.1016H278.4C275.9 85.1016 273.8 87.1016 273.8 89.5016C273.8 91.9016 275.8 93.9016 278.4 93.9016Z" fill="white"/>
<path d="M278.5 76.3008H285.5C288.1 76.3008 290.2 74.1008 290.2 71.3008C290.2 68.5008 288.1 66.3008 285.5 66.3008H278.5C275.9 66.3008 273.8 68.5008 273.8 71.3008C273.8 74.1008 275.8 76.3008 278.5 76.3008Z" fill="white"/>
<path d="M250.2 75.7004H257.2C259.8 75.7004 261.9 73.7004 261.9 71.3004C261.9 68.9004 259.8 66.9004 257.2 66.9004H250.2C247.6 66.9004 245.5 68.9004 245.5 71.3004C245.4 73.7004 247.5 75.7004 250.2 75.7004Z" fill="#0F002D"/>
<path fill-rule="evenodd" clip-rule="evenodd" d="M217 231.501C220.6 231.501 223.6 228.501 223.6 224.901C223.6 221.301 220.6 218.301 217 218.301C213.4 218.301 210.4 221.301 210.4 224.901C210.4 228.501 213.4 231.501 217 231.501Z" fill="#2683FF"/>
<path fill-rule="evenodd" clip-rule="evenodd" d="M123.7 256.001C127.3 256.001 130.3 253.001 130.3 249.401C130.3 245.801 127.3 242.801 123.7 242.801C120.1 242.801 117.1 245.801 117.1 249.401C117.1 253.101 120 256.001 123.7 256.001Z" fill="white"/>
<path fill-rule="evenodd" clip-rule="evenodd" d="M142.7 256.001C146.3 256.001 149.3 253.001 149.3 249.401C149.3 245.801 146.3 242.801 142.7 242.801C139.1 242.801 136.1 245.801 136.1 249.401C136 253.101 139 256.001 142.7 256.001Z" fill="white"/>
<path fill-rule="evenodd" clip-rule="evenodd" d="M161.6 256.001C165.2 256.001 168.2 253.001 168.2 249.401C168.2 245.801 165.2 242.801 161.6 242.801C158 242.801 155 245.801 155 249.401C155 253.101 158 256.001 161.6 256.001Z" fill="white"/>
<path d="M192 115.199C191.8 114.999 191.7 114.799 191.5 114.599C167.2 85.2991 121 114.599 137.2 149.099C138.6 151.999 139.8 154.499 140.9 156.399C157.5 185.699 188.7 238.099 188.7 238.099L241.8 208.099C241.7 208.099 207.7 134.399 192 115.199Z" fill="#F5F6FA"/>
<path d="M300.421 274.813C316.74 236.202 300.772 192.561 264.755 177.339C228.739 162.117 186.313 181.077 169.994 219.688C153.675 258.299 169.643 301.94 205.66 317.162C241.676 332.384 284.103 313.424 300.421 274.813Z" fill="#F5F6FA"/>
<path d="M186.569 151.937C193.205 148.191 195.548 139.773 191.802 133.136C188.055 126.5 179.637 124.157 173 127.903C166.364 131.65 164.021 140.068 167.767 146.705C171.514 153.341 179.932 155.684 186.569 151.937Z" fill="#0F002D"/>
<path d="M149.1 143.299L136.6 174.299C135.4 177.299 139.3 179.799 141.5 177.299L162.9 153.699C162.9 153.699 160.6 143.299 149.1 143.299Z" fill="#FCCB67"/>
<path d="M365.6 211.499C365 211.499 364.5 211.499 364 211.599C363.1 211.699 362.1 211.199 361.7 210.299C350.4 189.699 328.4 175.699 303.1 175.699C280.2 175.699 260 187.199 248 204.599C247.4 205.499 246.4 205.899 245.3 205.699C242.3 205.099 239.2 204.699 236 204.699C212.5 204.799 193.5 223.599 193.5 246.999C193.5 246.999 193.5 246.999 193.5 247.099C193.5 248.499 194.6 249.599 196 249.599H398.5C399.9 249.599 401 248.499 401 247.099V246.999C401.1 227.399 385.2 211.499 365.6 211.499Z" fill="#DEDEFC"/>
<path d="M178.9 144.299C180.723 144.299 182.2 142.822 182.2 140.999C182.2 139.177 180.723 137.699 178.9 137.699C177.078 137.699 175.6 139.177 175.6 140.999C175.6 142.822 177.078 144.299 178.9 144.299Z" fill="white"/>
<path d="M15.5001 282C24.0001 282 31.0001 274.8 31.0001 266C31.0001 257.2 24.0001 250 15.5001 250C7.00008 250 8.17043e-05 257.2 8.17043e-05 266C-0.0999183 274.9 6.90008 282 15.5001 282Z" fill="#499FFC"/>
<path d="M15.5 273C19.3 273 22.5 269.9 22.5 266C22.5 262.2 19.4 259 15.5 259C11.7 259 8.5 262.1 8.5 266C8.5 269.9 11.6 273 15.5 273Z" fill="white"/>
</g>
<defs>
<clipPath id="clip0">
<rect width="401.1" height="322.4" fill="white"/>
</clipPath>
</defs>
</svg>
