<svg width="402" height="323" viewBox="0 0 402 323" fill="none" xmlns="http://www.w3.org/2000/svg">
    <g clip-path="url(#clip0)">
        <path d="M167.6 295.1C246.1 295.1 309.7 231.3 309.7 152.6C309.7 73.9 246.1 10.1 167.6 10.1C89.1 10.1 25.5 73.9 25.5 152.6C25.5 231.3 89.1 295.1 167.6 295.1Z" fill="#2683FF"/>
        <path d="M107 144.001C107 107.82 129.556 83.0008 169 83.0008C208.444 83.0008 231 107.82 231 144.001C231 180.181 208.444 205.001 169 205.001C129.556 205.001 107 180.181 107 144.001ZM196.09 144.001C196.09 121.366 187.135 109.131 168.887 109.131C150.638 109.131 141.684 121.366 141.684 144.001C141.684 166.635 150.638 178.87 168.887 178.87C187.135 178.87 196.09 166.635 196.09 144.001Z" fill="#499FFC"/>
        <path fill-rule="evenodd" clip-rule="evenodd" d="M23.4 98.5C21.5 98.5 20.1 97 20.1 95.1C21 69.3 31.9 46 49 28.9C66.1 11.8 89.4 0.900025 115.2 2.50735e-05C117.1 -0.0999749 118.6 1.40003 118.6 3.30002V32.6C118.6 34.4 117.2 35.8 115.4 35.9C99.4 36.7 85 43.6 74.3 54.2C63.7 64.9 56.8 79.3 56 95.3C55.9 97.1 54.5 98.5 52.7 98.5H23.4Z" fill="#DEDEFC"/>
        <path d="M117.1 30.7C123.507 30.7 128.7 25.5065 128.7 19.1C128.7 12.6935 123.507 7.5 117.1 7.5C110.693 7.5 105.5 12.6935 105.5 19.1C105.5 25.5065 110.693 30.7 117.1 30.7Z" fill="#499FFC"/>
        <path d="M278.4 93.9H303.3C305.8 93.9 307.9 91.9 307.9 89.5C307.9 87.1 305.8 85.1 303.3 85.1H278.4C275.9 85.1 273.8 87.1 273.8 89.5C273.8 91.9 275.8 93.9 278.4 93.9Z" fill="white"/>
        <path d="M278.5 76.3H285.5C288.1 76.3 290.2 74.1 290.2 71.3C290.2 68.5 288.1 66.3 285.5 66.3H278.5C275.9 66.3 273.8 68.5 273.8 71.3C273.8 74.1 275.8 76.3 278.5 76.3Z" fill="white"/>
        <path d="M250.2 75.7H257.2C259.8 75.7 261.9 73.7 261.9 71.3C261.9 68.9 259.8 66.9 257.2 66.9H250.2C247.6 66.9 245.5 68.9 245.5 71.3C245.4 73.7 247.5 75.7 250.2 75.7Z" fill="#0F002D"/>
        <path fill-rule="evenodd" clip-rule="evenodd" d="M217 231.5C220.6 231.5 223.6 228.5 223.6 224.9C223.6 221.3 220.6 218.3 217 218.3C213.4 218.3 210.4 221.3 210.4 224.9C210.4 228.5 213.4 231.5 217 231.5Z" fill="#2683FF"/>
        <path fill-rule="evenodd" clip-rule="evenodd" d="M123.7 256C127.3 256 130.3 253 130.3 249.4C130.3 245.8 127.3 242.8 123.7 242.8C120.1 242.8 117.1 245.8 117.1 249.4C117.1 253.1 120 256 123.7 256Z" fill="white"/>
        <path fill-rule="evenodd" clip-rule="evenodd" d="M142.7 256C146.3 256 149.3 253 149.3 249.4C149.3 245.8 146.3 242.8 142.7 242.8C139.1 242.8 136.1 245.8 136.1 249.4C136 253.1 139 256 142.7 256Z" fill="white"/>
        <path fill-rule="evenodd" clip-rule="evenodd" d="M161.6 256C165.2 256 168.2 253 168.2 249.4C168.2 245.8 165.2 242.8 161.6 242.8C158 242.8 155 245.8 155 249.4C155 253.1 158 256 161.6 256Z" fill="white"/>
        <path d="M192 115.2C191.8 115 191.7 114.8 191.5 114.6C167.2 85.3 121 114.6 137.2 149.1C138.6 152 139.8 154.5 140.9 156.4C157.5 185.7 188.7 238.1 188.7 238.1L241.8 208.1C241.7 208.1 207.7 134.4 192 115.2Z" fill="#F5F6FA"/>
        <path d="M300.422 274.814C316.741 236.203 300.772 192.562 264.756 177.34C228.739 162.117 186.313 181.078 169.994 219.689C153.675 258.3 169.643 301.94 205.66 317.163C241.677 332.385 284.103 313.425 300.422 274.814Z" fill="#F5F6FA"/>
        <path d="M186.569 151.938C193.206 148.191 195.548 139.774 191.802 133.137C188.055 126.5 179.637 124.157 173.001 127.904C166.364 131.651 164.021 140.068 167.768 146.705C171.514 153.342 179.932 155.685 186.569 151.938Z" fill="#0F002D"/>
        <path d="M149.1 143.3L136.6 174.3C135.4 177.3 139.3 179.8 141.5 177.3L162.9 153.7C162.9 153.7 160.6 143.3 149.1 143.3Z" fill="#FCCB67"/>
        <path d="M365.6 211.5C365 211.5 364.5 211.5 364 211.6C363.1 211.7 362.1 211.2 361.7 210.3C350.4 189.7 328.4 175.7 303.1 175.7C280.2 175.7 260 187.2 248 204.6C247.4 205.5 246.4 205.9 245.3 205.7C242.3 205.1 239.2 204.7 236 204.7C212.5 204.8 193.5 223.6 193.5 247C193.5 247 193.5 247 193.5 247.1C193.5 248.5 194.6 249.6 196 249.6H398.5C399.9 249.6 401 248.5 401 247.1V247C401.1 227.4 385.2 211.5 365.6 211.5Z" fill="#DEDEFC"/>
        <path d="M178.9 144.3C180.723 144.3 182.2 142.823 182.2 141C182.2 139.177 180.723 137.7 178.9 137.7C177.077 137.7 175.6 139.177 175.6 141C175.6 142.823 177.077 144.3 178.9 144.3Z" fill="white"/>
        <path d="M15.5 282C24 282 31 274.8 31 266C31 257.2 24 250 15.5 250C6.99999 250 -9.84839e-06 257.2 -9.84839e-06 266C-0.10001 274.9 6.89999 282 15.5 282Z" fill="#499FFC"/>
        <path d="M15.5 273C19.3 273 22.5 269.9 22.5 266C22.5 262.2 19.4 259 15.5 259C11.7 259 8.5 262.1 8.5 266C8.5 269.9 11.6 273 15.5 273Z" fill="white"/>
    </g>
    <defs>
        <clipPath id="clip0">
            <rect width="401.1" height="322.4" fill="white"/>
        </clipPath>
    </defs>
</svg>
