<svg width="303" height="169" fill="none" xmlns="http://www.w3.org/2000/svg"><g opacity=".6" fill="#93A1AF" clip-path="url(#a)"><path d="M227.06 19.73c0 1.03-.83 1.87-1.85 1.87a1.86 1.86 0 0 1 0-3.73c1.02 0 1.85.83 1.85 1.86Zm0 4.47c0 1.03-.83 1.86-1.85 1.86a1.86 1.86 0 0 1 0-3.73c1.02 0 1.85.84 1.85 1.87Zm0 4.47c0 1.03-.83 1.87-1.85 1.87a1.86 1.86 0 0 1-1.86-1.87 1.86 1.86 0 1 1 3.71 0Zm0 4.46c0 1.03-.83 1.87-1.85 1.87a1.86 1.86 0 0 1 0-3.73c1.02 0 1.85.83 1.85 1.86Zm0 4.47c0 1.03-.83 1.87-1.85 1.87a1.86 1.86 0 0 1-1.86-1.87c0-1.03.83-1.87 1.86-1.87 1.02 0 1.85.84 1.85 1.87Zm0 4.47c0 1.03-.83 1.86-1.85 1.86a1.86 1.86 0 0 1 0-3.73c1.02 0 1.85.83 1.85 1.87Zm0 4.46c0 1.04-.83 1.87-1.85 1.87a1.86 1.86 0 0 1 0-3.73c1.02 0 1.85.83 1.85 1.86Zm0-31.26c0 1.03-.83 1.86-1.85 1.86a1.86 1.86 0 0 1 0-3.73c1.02 0 1.85.84 1.85 1.87Zm0-4.47c0 1.03-.83 1.87-1.85 1.87a1.86 1.86 0 0 1-1.86-1.87 1.86 1.86 0 1 1 3.71 0Zm0 49.14c0 1.02-.83 1.86-1.85 1.86a1.86 1.86 0 0 1 0-3.73c1.02 0 1.85.83 1.85 1.87Zm0 4.46c0 1.03-.83 1.87-1.85 1.87a1.86 1.86 0 0 1 0-3.73c1.02 0 1.85.83 1.85 1.86Zm0 4.46c0 1.03-.83 1.87-1.85 1.87a1.86 1.86 0 0 1 0-3.73c1.02 0 1.85.84 1.85 1.86Zm0 4.47c0 1.03-.83 1.87-1.85 1.87a1.86 1.86 0 0 1-1.86-1.87 1.86 1.86 0 1 1 3.71 0Zm0 4.47c0 1.03-.83 1.87-1.85 1.87a1.86 1.86 0 0 1-1.86-1.87c0-1.03.83-1.87 1.86-1.87 1.02 0 1.85.84 1.85 1.87Zm0 4.47c0 1.03-.83 1.86-1.85 1.86a1.86 1.86 0 0 1 0-3.73c1.02 0 1.85.84 1.85 1.87Zm0 4.46c0 1.03-.83 1.87-1.85 1.87a1.86 1.86 0 0 1 0-3.73c1.02 0 1.85.83 1.85 1.86Zm0-31.26c0 1.03-.83 1.86-1.85 1.86a1.86 1.86 0 0 1-1.86-1.86 1.86 1.86 0 1 1 3.71 0Zm0-4.47c0 1.03-.83 1.87-1.85 1.87a1.86 1.86 0 0 1 0-3.74c1.02 0 1.85.84 1.85 1.87Zm0 53.6c0 1.03-.83 1.87-1.85 1.87a1.86 1.86 0 0 1 0-3.73c1.02 0 1.85.83 1.85 1.86Zm0 4.47c0 1.03-.83 1.87-1.85 1.87a1.86 1.86 0 0 1-1.86-1.87 1.86 1.86 0 1 1 3.71 0Zm0-13.4c0 1.03-.83 1.86-1.85 1.86a1.86 1.86 0 0 1 0-3.73c1.02 0 1.85.84 1.85 1.87Zm0-4.47c0 1.03-.83 1.87-1.85 1.87a1.86 1.86 0 0 1-1.86-1.87 1.86 1.86 0 1 1 3.71 0Zm4.47-71.47c0 1.03-.84 1.87-1.86 1.87a1.86 1.86 0 0 1 0-3.73c1.02 0 1.86.83 1.86 1.86Zm0 4.47c0 1.03-.84 1.86-1.86 1.86a1.86 1.86 0 0 1 0-3.73c1.02 0 1.86.84 1.86 1.87Zm0 4.47c0 1.03-.84 1.87-1.86 1.87a1.86 1.86 0 0 1-1.85-1.87c0-1.03.83-1.87 1.85-1.87s1.86.84 1.86 1.87Zm0 4.46c0 1.03-.84 1.87-1.86 1.87a1.86 1.86 0 0 1 0-3.73c1.02 0 1.86.83 1.86 1.86Zm0 4.47c0 1.03-.84 1.87-1.86 1.87a1.86 1.86 0 0 1-1.85-1.87c0-1.03.83-1.87 1.85-1.87s1.86.84 1.86 1.87Zm0 4.47c0 1.03-.84 1.86-1.86 1.86a1.86 1.86 0 0 1 0-3.73c1.02 0 1.86.83 1.86 1.87Zm0 4.46c0 1.04-.84 1.87-1.86 1.87a1.86 1.86 0 0 1 0-3.73c1.02 0 1.86.83 1.86 1.86Zm0-31.26c0 1.03-.84 1.86-1.86 1.86a1.86 1.86 0 0 1 0-3.73c1.02 0 1.86.84 1.86 1.87Zm0 44.67c0 1.02-.84 1.86-1.86 1.86a1.86 1.86 0 0 1 0-3.73c1.02 0 1.86.83 1.86 1.87Zm0 4.46c0 1.03-.84 1.87-1.86 1.87a1.86 1.86 0 0 1 0-3.73c1.02 0 1.86.83 1.86 1.86Zm0 4.46c0 1.03-.84 1.87-1.86 1.87a1.86 1.86 0 0 1 0-3.73c1.02 0 1.86.84 1.86 1.86Zm0 4.47c0 1.03-.84 1.87-1.86 1.87a1.86 1.86 0 0 1-1.85-1.87 1.85 1.85 0 1 1 3.71 0Zm0 4.47c0 1.03-.84 1.87-1.86 1.87a1.86 1.86 0 0 1-1.85-1.87c0-1.03.83-1.87 1.85-1.87s1.86.84 1.86 1.87Zm0 4.47a1.86 1.86 0 1 1-3.71 0c0-1.03.83-1.87 1.85-1.87s1.86.84 1.86 1.87Zm0 4.46c0 1.03-.84 1.87-1.86 1.87a1.86 1.86 0 0 1 0-3.73c1.02 0 1.86.83 1.86 1.86Zm0-31.26a1.86 1.86 0 1 1-3.71 0c0-1.03.83-1.87 1.85-1.87s1.86.84 1.86 1.87Zm0-4.47c0 1.03-.84 1.87-1.86 1.87a1.86 1.86 0 0 1 0-3.74c1.02 0 1.86.84 1.86 1.87Zm0 49.14c0 1.02-.84 1.86-1.86 1.86a1.86 1.86 0 0 1 0-3.73c1.02 0 1.86.83 1.86 1.87Zm0 8.93c0 1.03-.84 1.87-1.86 1.87a1.86 1.86 0 0 1-1.85-1.87c0-1.03.83-1.87 1.85-1.87s1.86.84 1.86 1.87Zm0 4.46c0 1.03-.84 1.87-1.86 1.87a1.86 1.86 0 0 1 0-3.73c1.02 0 1.86.83 1.86 1.86Zm0-17.86c0 1.03-.84 1.86-1.86 1.86a1.86 1.86 0 0 1 0-3.73c1.02 0 1.86.84 1.86 1.87Zm-1.86-2.6c1.03 0 1.86-.84 1.86-1.87a1.86 1.86 0 1 0-3.71 0c0 1.03.83 1.87 1.85 1.87ZM236 19.73a1.86 1.86 0 1 1-3.71 0 1.86 1.86 0 1 1 3.7 0Zm0 4.47a1.86 1.86 0 1 1-3.71 0 1.86 1.86 0 1 1 3.7 0Zm0 4.47a1.86 1.86 0 1 1-3.71 0 1.86 1.86 0 1 1 3.7 0Zm0 4.46a1.86 1.86 0 1 1-3.71 0 1.86 1.86 0 1 1 3.7 0Zm0 4.47a1.86 1.86 0 1 1-3.71 0 1.86 1.86 0 1 1 3.7 0Zm0 4.47a1.86 1.86 0 1 1-3.71 0 1.86 1.86 0 1 1 3.7 0Zm0 4.46a1.86 1.86 0 1 1-3.71 0 1.86 1.86 0 1 1 3.7 0Zm0 13.41a1.86 1.86 0 1 1-3.71 0 1.86 1.86 0 1 1 3.7 0Zm0 4.46a1.86 1.86 0 1 1-3.71 0 1.86 1.86 0 1 1 3.7 0Zm0 4.46a1.86 1.86 0 1 1-3.71 0 1.86 1.86 0 1 1 3.7 0Zm0 4.47a1.86 1.86 0 1 1-3.71 0 1.86 1.86 0 1 1 3.7 0Zm0 4.47a1.86 1.86 0 1 1-3.71 0 1.86 1.86 0 1 1 3.7 0Zm0 4.47a1.86 1.86 0 1 1-3.71 0c0-1.03.82-1.87 1.85-1.87 1.02 0 1.85.84 1.85 1.87Zm0 4.46a1.86 1.86 0 1 1-3.71 0 1.86 1.86 0 1 1 3.7 0Zm0-31.26a1.86 1.86 0 1 1-3.71 0 1.86 1.86 0 1 1 3.7 0Zm0-4.47a1.86 1.86 0 1 1-3.71 0 1.86 1.86 0 1 1 3.7 0Zm0 58.07a1.86 1.86 0 1 1-3.71 0 1.86 1.86 0 1 1 3.7 0Zm0 4.46c0 1.03-.84 1.87-1.86 1.87a1.86 1.86 0 0 1-1.86-1.87 1.86 1.86 0 1 1 3.71 0Zm0-17.86a1.86 1.86 0 1 1-3.71 0 1.86 1.86 0 1 1 3.7 0Zm4.46-75.94a1.86 1.86 0 1 1-3.71 0 1.86 1.86 0 1 1 3.7 0Zm0 4.47a1.86 1.86 0 1 1-3.71 0 1.86 1.86 0 1 1 3.7 0Zm0 4.47a1.86 1.86 0 1 1-3.71 0 1.86 1.86 0 1 1 3.7 0Zm0 4.46a1.86 1.86 0 1 1-3.71 0 1.86 1.86 0 1 1 3.7 0Zm0 4.47a1.86 1.86 0 1 1-3.71 0 1.86 1.86 0 1 1 3.7 0Zm0 4.47a1.86 1.86 0 1 1-3.71 0 1.86 1.86 0 1 1 3.7 0Zm0 4.46a1.86 1.86 0 1 1-3.71 0 1.86 1.86 0 1 1 3.7 0Zm0 13.41a1.86 1.86 0 1 1-3.71 0 1.86 1.86 0 1 1 3.7 0Zm0 4.46a1.86 1.86 0 1 1-3.71 0 1.86 1.86 0 1 1 3.7 0Zm0 4.46a1.86 1.86 0 1 1-3.71 0 1.86 1.86 0 1 1 3.7 0Zm0 4.47a1.86 1.86 0 1 1-3.71 0 1.86 1.86 0 1 1 3.7 0Zm0 4.47a1.86 1.86 0 1 1-3.71 0 1.86 1.86 0 1 1 3.7 0Zm0 4.47a1.86 1.86 0 1 1-3.71 0c0-1.03.83-1.87 1.85-1.87 1.03 0 1.86.84 1.86 1.87Zm0 4.46a1.86 1.86 0 1 1-3.71 0 1.86 1.86 0 1 1 3.7 0Zm0-31.26a1.86 1.86 0 1 1-3.71 0 1.86 1.86 0 1 1 3.7 0Zm0-4.47a1.86 1.86 0 1 1-3.71 0 1.86 1.86 0 1 1 3.7 0Zm0 53.6a1.86 1.86 0 1 1-3.71 0 1.86 1.86 0 1 1 3.7 0Zm0 4.47a1.86 1.86 0 1 1-3.71 0 1.86 1.86 0 1 1 3.7 0Zm0 8.93a1.86 1.86 0 1 1-3.71 0 1.86 1.86 0 1 1 3.7 0Zm0 22.34a1.86 1.86 0 1 1-3.71 0 1.86 1.86 0 1 1 3.7 0Zm0-4.47a1.86 1.86 0 1 1-3.71 0 1.86 1.86 0 1 1 3.7 0Zm0-4.47a1.86 1.86 0 1 1-3.71 0 1.86 1.86 0 1 1 3.7 0Zm4.47-107.2c0 1.03-.84 1.86-1.86 1.86a1.86 1.86 0 0 1 0-3.73c1.03 0 1.86.84 1.86 1.87Zm0 4.47a1.86 1.86 0 1 1-3.71 0 1.86 1.86 0 1 1 3.7 0Zm0 4.46c0 1.03-.84 1.87-1.86 1.87a1.86 1.86 0 0 1 0-3.73c1.03 0 1.86.83 1.86 1.86Zm0 4.47a1.86 1.86 0 1 1-3.71 0 1.86 1.86 0 1 1 3.7 0Zm0 4.47c0 1.03-.84 1.86-1.86 1.86a1.86 1.86 0 0 1 0-3.73c1.03 0 1.86.83 1.86 1.87Zm0 4.46c0 1.04-.84 1.87-1.86 1.87a1.86 1.86 0 0 1 0-3.73c1.03 0 1.86.83 1.86 1.86Zm0 13.41c0 1.02-.84 1.86-1.86 1.86a1.86 1.86 0 0 1 0-3.73c1.03 0 1.86.83 1.86 1.87Zm0 4.46c0 1.03-.84 1.87-1.86 1.87a1.86 1.86 0 0 1 0-3.73c1.03 0 1.86.83 1.86 1.86Zm0 4.46c0 1.03-.84 1.87-1.86 1.87a1.86 1.86 0 0 1 0-3.73c1.03 0 1.86.84 1.86 1.86Zm0 4.47a1.86 1.86 0 1 1-3.71 0 1.86 1.86 0 1 1 3.7 0Zm0 4.47a1.86 1.86 0 1 1-3.71 0 1.86 1.86 0 1 1 3.7 0Zm0 4.47a1.86 1.86 0 1 1-3.71 0c0-1.03.83-1.87 1.85-1.87 1.03 0 1.86.84 1.86 1.87Zm0 4.46c0 1.03-.84 1.87-1.86 1.87a1.86 1.86 0 0 1 0-3.73c1.03 0 1.86.83 1.86 1.86Zm0-31.26a1.86 1.86 0 1 1-3.71 0 1.86 1.86 0 1 1 3.7 0Zm0-4.47c0 1.03-.84 1.87-1.86 1.87a1.86 1.86 0 0 1 0-3.74c1.03 0 1.86.84 1.86 1.87Zm0 49.14c0 1.02-.84 1.86-1.86 1.86a1.86 1.86 0 0 1 0-3.73c1.03 0 1.86.83 1.86 1.87Zm0 8.93c0 1.03-.84 1.87-1.86 1.87a1.86 1.86 0 0 1-1.85-1.87 1.86 1.86 0 1 1 3.7 0Zm0 4.46c0 1.03-.84 1.87-1.86 1.87a1.86 1.86 0 0 1 0-3.73c1.03 0 1.86.83 1.86 1.86Zm0 13.4c0 1.04-.84 1.87-1.86 1.87a1.86 1.86 0 0 1 0-3.73c1.03 0 1.86.83 1.86 1.86Zm0-31.26c0 1.03-.84 1.86-1.86 1.86a1.86 1.86 0 0 1 0-3.73c1.03 0 1.86.84 1.86 1.87Zm0-4.47a1.86 1.86 0 1 1-3.71 0 1.86 1.86 0 1 1 3.7 0Zm0 49.14c0 1.02-.84 1.86-1.86 1.86a1.86 1.86 0 0 1 0-3.73c1.03 0 1.86.83 1.86 1.87Zm0-4.47c0 1.03-.84 1.86-1.86 1.86a1.86 1.86 0 0 1 0-3.73c1.03 0 1.86.84 1.86 1.87Zm0-4.47a1.86 1.86 0 1 1-3.71 0 1.86 1.86 0 1 1 3.7 0Zm4.47-107.2c0 1.03-.84 1.86-1.86 1.86a1.86 1.86 0 0 1 0-3.73c1.03 0 1.86.84 1.86 1.87Zm0 4.47c0 1.03-.84 1.87-1.86 1.87a1.86 1.86 0 0 1-1.86-1.87 1.86 1.86 0 1 1 3.72 0Zm0 4.46c0 1.03-.84 1.87-1.86 1.87a1.86 1.86 0 0 1 0-3.73c1.03 0 1.86.83 1.86 1.86Zm0 4.47c0 1.03-.84 1.87-1.86 1.87a1.86 1.86 0 0 1-1.86-1.87 1.86 1.86 0 1 1 3.72 0Zm0 4.47c0 1.03-.84 1.86-1.86 1.86a1.86 1.86 0 0 1 0-3.73c1.03 0 1.86.83 1.86 1.87Zm0 4.46c0 1.04-.84 1.87-1.86 1.87a1.86 1.86 0 0 1 0-3.73c1.03 0 1.86.83 1.86 1.86Zm0 13.41c0 1.02-.84 1.86-1.86 1.86a1.86 1.86 0 0 1 0-3.73c1.03 0 1.86.83 1.86 1.87Zm0 4.46c0 1.03-.84 1.87-1.86 1.87a1.86 1.86 0 0 1 0-3.73c1.03 0 1.86.83 1.86 1.86Zm0 4.46c0 1.03-.84 1.87-1.86 1.87a1.86 1.86 0 0 1 0-3.73c1.03 0 1.86.84 1.86 1.86Zm0 4.47c0 1.03-.84 1.87-1.86 1.87a1.86 1.86 0 0 1-1.86-1.87 1.86 1.86 0 1 1 3.72 0Zm0-17.86a1.86 1.86 0 1 1-3.71 0 1.86 1.86 0 1 1 3.7 0Zm0-4.47c0 1.03-.84 1.87-1.86 1.87a1.86 1.86 0 0 1 0-3.74c1.03 0 1.86.84 1.86 1.87Zm0 49.14c0 1.02-.84 1.86-1.86 1.86a1.86 1.86 0 0 1 0-3.73c1.03 0 1.86.83 1.86 1.87Zm0 4.46c0 1.03-.84 1.87-1.86 1.87a1.86 1.86 0 0 1 0-3.73c1.03 0 1.86.83 1.86 1.86Zm0 4.47c0 1.03-.84 1.87-1.86 1.87a1.86 1.86 0 0 1-1.86-1.87 1.86 1.86 0 1 1 3.72 0Zm0 13.4c0 1.03-.84 1.86-1.86 1.86a1.86 1.86 0 0 1 0-3.73c1.03 0 1.86.84 1.86 1.87Zm0 4.46c0 1.04-.84 1.87-1.86 1.87a1.86 1.86 0 0 1 0-3.73c1.03 0 1.86.83 1.86 1.86Zm0-31.26c0 1.03-.84 1.86-1.86 1.86a1.86 1.86 0 0 1 0-3.73c1.03 0 1.86.84 1.86 1.87Zm0 44.67c0 1.02-.84 1.86-1.86 1.86a1.86 1.86 0 0 1 0-3.73c1.03 0 1.86.83 1.86 1.87Zm0-4.47c0 1.03-.84 1.86-1.86 1.86a1.86 1.86 0 0 1 0-3.73c1.03 0 1.86.84 1.86 1.87Zm0-4.47c0 1.03-.84 1.87-1.86 1.87a1.86 1.86 0 0 1-1.86-1.87 1.86 1.86 0 1 1 3.72 0Zm4.46-102.73a1.86 1.86 0 1 1-3.71 0 1.86 1.86 0 1 1 3.71 0Zm0 4.46a1.86 1.86 0 1 1-3.71 0 1.86 1.86 0 1 1 3.71 0Zm0 4.47a1.86 1.86 0 1 1-3.71 0 1.86 1.86 0 1 1 3.71 0Zm0 4.47a1.86 1.86 0 1 1-3.71 0 1.86 1.86 0 1 1 3.71 0Zm0 4.46a1.86 1.86 0 1 1-3.71 0 1.86 1.86 0 1 1 3.71 0Zm0 13.41a1.86 1.86 0 1 1-3.71 0 1.86 1.86 0 1 1 3.71 0Zm0 4.46a1.86 1.86 0 1 1-3.71 0 1.86 1.86 0 1 1 3.71 0Zm0 8.93a1.86 1.86 0 1 1-3.71 0 1.86 1.86 0 1 1 3.71 0Zm0 4.47a1.86 1.86 0 1 1-3.71 0 1.86 1.86 0 1 1 3.71 0Zm0-22.33a1.86 1.86 0 1 1-3.71 0 1.86 1.86 0 1 1 3.71 0Zm0-4.47a1.86 1.86 0 1 1-3.71 0 1.86 1.86 0 1 1 3.71 0Zm0 58.07a1.86 1.86 0 1 1-3.71 0 1.86 1.86 0 1 1 3.71 0Zm0 8.93a1.86 1.86 0 1 1-3.71 0 1.86 1.86 0 1 1 3.71 0Zm0 4.47a1.86 1.86 0 1 1-3.71 0 1.86 1.86 0 1 1 3.71 0Zm0 4.46a1.86 1.86 0 1 1-3.71 0 1.86 1.86 0 1 1 3.71 0Zm0 13.41a1.86 1.86 0 1 1-3.71 0 1.86 1.86 0 1 1 3.71 0Zm0-4.47a1.86 1.86 0 1 1-3.71 0 1.86 1.86 0 1 1 3.71 0Zm0-4.47a1.86 1.86 0 1 1-3.71 0 1.86 1.86 0 1 1 3.71 0Zm4.47-111.67c0 1.03-.83 1.87-1.86 1.87a1.86 1.86 0 0 1 0-3.73c1.03 0 1.86.83 1.86 1.86Zm0 8.94a1.86 1.86 0 1 1-3.71 0 1.86 1.86 0 1 1 3.71 0Zm0 4.46c0 1.03-.83 1.87-1.86 1.87a1.86 1.86 0 0 1 0-3.73c1.03 0 1.86.83 1.86 1.86Zm0 4.47a1.86 1.86 0 1 1-3.71 0 1.86 1.86 0 1 1 3.71 0Zm0 4.47c0 1.03-.83 1.86-1.86 1.86a1.86 1.86 0 0 1 0-3.73c1.03 0 1.86.83 1.86 1.87Zm0 4.46c0 1.04-.83 1.87-1.86 1.87a1.86 1.86 0 0 1 0-3.73c1.03 0 1.86.83 1.86 1.86Zm0 13.41c0 1.02-.83 1.86-1.86 1.86a1.86 1.86 0 0 1 0-3.73c1.03 0 1.86.83 1.86 1.87Zm0 4.46c0 1.03-.83 1.87-1.86 1.87a1.86 1.86 0 0 1 0-3.73c1.03 0 1.86.83 1.86 1.86Zm0 8.93a1.86 1.86 0 1 1-3.71 0 1.86 1.86 0 1 1 3.71 0Zm0-17.86a1.86 1.86 0 1 1-3.71 0 1.86 1.86 0 1 1 3.71 0Zm0-4.47c0 1.03-.83 1.87-1.86 1.87a1.86 1.86 0 0 1 0-3.74c1.03 0 1.86.84 1.86 1.87Zm0 58.07a1.86 1.86 0 1 1-3.71 0 1.86 1.86 0 1 1 3.71 0Zm0 4.46c0 1.03-.83 1.87-1.86 1.87a1.86 1.86 0 0 1 0-3.73c1.03 0 1.86.83 1.86 1.86Zm0 8.94c0 1.03-.83 1.86-1.86 1.86a1.86 1.86 0 0 1 0-3.73c1.03 0 1.86.84 1.86 1.87Zm0 4.46c0 1.04-.83 1.87-1.86 1.87a1.86 1.86 0 0 1 0-3.73c1.03 0 1.86.83 1.86 1.86Zm0 13.41c0 1.02-.83 1.86-1.86 1.86a1.86 1.86 0 0 1 0-3.73c1.03 0 1.86.83 1.86 1.87Zm0-4.47c0 1.03-.83 1.86-1.86 1.86a1.86 1.86 0 0 1 0-3.73c1.03 0 1.86.84 1.86 1.87Zm0-4.47a1.86 1.86 0 1 1-3.71 0 1.86 1.86 0 1 1 3.71 0Zm4.47-111.67c0 1.03-.84 1.87-1.86 1.87a1.86 1.86 0 0 1-1.86-1.87 1.86 1.86 0 1 1 3.72 0Zm0 4.47a1.86 1.86 0 1 1-3.71 0 1.86 1.86 0 1 1 3.7 0Zm0 4.47a1.86 1.86 0 1 1-3.71 0 1.86 1.86 0 1 1 3.7 0Zm0 4.46c0 1.03-.84 1.87-1.86 1.87a1.86 1.86 0 0 1-1.86-1.87 1.86 1.86 0 1 1 3.72 0Zm0 4.47a1.86 1.86 0 1 1-3.71 0 1.86 1.86 0 1 1 3.7 0Zm0 4.47a1.86 1.86 0 1 1-3.71 0 1.86 1.86 0 1 1 3.7 0Zm0 4.46a1.86 1.86 0 1 1-3.71 0 1.86 1.86 0 1 1 3.7 0Zm0 13.41a1.86 1.86 0 1 1-3.71 0 1.86 1.86 0 1 1 3.7 0Zm0 4.46c0 1.03-.84 1.87-1.86 1.87a1.86 1.86 0 0 1-1.86-1.87 1.86 1.86 0 1 1 3.72 0Zm0 4.46c0 1.03-.84 1.87-1.86 1.87a1.86 1.86 0 0 1-1.86-1.87 1.86 1.86 0 1 1 3.72 0Zm0 4.47a1.86 1.86 0 1 1-3.71 0 1.86 1.86 0 1 1 3.7 0Zm0-17.86a1.86 1.86 0 1 1-3.71 0 1.86 1.86 0 1 1 3.7 0Zm0-4.47c0 1.03-.84 1.87-1.86 1.87a1.86 1.86 0 0 1-1.86-1.87 1.86 1.86 0 1 1 3.72 0Zm0 62.53c0 1.03-.84 1.87-1.86 1.87a1.86 1.86 0 0 1-1.86-1.87 1.86 1.86 0 1 1 3.72 0Zm0 4.47c0 1.03-.84 1.87-1.86 1.87a1.86 1.86 0 0 1-1.86-1.87 1.86 1.86 0 1 1 3.72 0Zm0 4.47a1.86 1.86 0 1 1-3.71 0 1.86 1.86 0 1 1 3.7 0Zm0 4.46a1.86 1.86 0 1 1-3.71 0 1.86 1.86 0 1 1 3.7 0Zm0 13.41a1.86 1.86 0 1 1-3.71 0 1.86 1.86 0 1 1 3.7 0Zm0 4.46a1.86 1.86 0 1 1-3.71 0 1.86 1.86 0 1 1 3.7 0Zm0-8.93a1.86 1.86 0 1 1-3.71 0 1.86 1.86 0 1 1 3.7 0Zm0-4.47a1.86 1.86 0 1 1-3.71 0 1.86 1.86 0 1 1 3.7 0Zm4.46-111.67c0 1.03-.83 1.87-1.85 1.87a1.86 1.86 0 0 1-1.86-1.87 1.86 1.86 0 1 1 3.71 0Zm0 8.94c0 1.03-.83 1.87-1.85 1.87a1.86 1.86 0 0 1-1.86-1.87 1.86 1.86 0 1 1 3.71 0Zm0 4.46c0 1.03-.83 1.87-1.85 1.87a1.86 1.86 0 0 1-1.86-1.87 1.86 1.86 0 1 1 3.71 0Zm0 4.47c0 1.03-.83 1.87-1.85 1.87a1.86 1.86 0 0 1-1.86-1.87c0-1.03.83-1.87 1.86-1.87 1.02 0 1.85.84 1.85 1.87Zm0 4.47c0 1.03-.83 1.86-1.85 1.86a1.86 1.86 0 0 1-1.86-1.86 1.86 1.86 0 1 1 3.71 0Zm0 4.46c0 1.04-.83 1.87-1.85 1.87a1.86 1.86 0 0 1-1.86-1.87 1.86 1.86 0 1 1 3.71 0Zm0 17.87c0 1.03-.83 1.87-1.85 1.87a1.86 1.86 0 0 1-1.86-1.87 1.86 1.86 0 1 1 3.71 0Zm0 49.13c0 1.03-.83 1.87-1.85 1.87a1.86 1.86 0 0 1-1.86-1.87 1.86 1.86 0 1 1 3.71 0Zm0 4.47c0 1.03-.83 1.87-1.85 1.87a1.86 1.86 0 0 1-1.86-1.87c0-1.03.83-1.87 1.86-1.87 1.02 0 1.85.84 1.85 1.87Zm0 8.93c0 1.04-.83 1.87-1.85 1.87a1.86 1.86 0 0 1-1.86-1.87 1.86 1.86 0 1 1 3.71 0Zm0 13.41c0 1.02-.83 1.86-1.85 1.86a1.86 1.86 0 0 1-1.86-1.86 1.86 1.86 0 1 1 3.71 0Zm0 4.46c0 1.03-.83 1.86-1.85 1.86a1.86 1.86 0 0 1-1.86-1.86 1.86 1.86 0 1 1 3.71 0Zm0 8.93c0 1.03-.83 1.87-1.85 1.87a1.86 1.86 0 0 1-1.86-1.87 1.86 1.86 0 1 1 3.71 0Zm0-17.86c0 1.03-.83 1.86-1.85 1.86a1.86 1.86 0 0 1-1.86-1.86 1.86 1.86 0 1 1 3.71 0Zm0-4.47c0 1.03-.83 1.87-1.85 1.87a1.86 1.86 0 0 1-1.86-1.87 1.86 1.86 0 1 1 3.71 0Zm4.47-102.73a1.86 1.86 0 1 1-3.71 0 1.86 1.86 0 1 1 3.71 0Zm0 4.46a1.86 1.86 0 1 1-3.71 0 1.85 1.85 0 1 1 3.71 0Zm0 4.47a1.86 1.86 0 1 1-3.71 0c0-1.03.83-1.87 1.85-1.87 1.03 0 1.86.84 1.86 1.87Zm0 4.47a1.86 1.86 0 1 1-3.71 0 1.86 1.86 0 1 1 3.71 0Zm0 71.46a1.86 1.86 0 1 1-3.71 0 1.85 1.85 0 1 1 3.71 0Zm0 26.81a1.86 1.86 0 1 1-3.71 0 1.86 1.86 0 1 1 3.71 0Zm0 4.46a1.86 1.86 0 1 1-3.71 0 1.86 1.86 0 1 1 3.71 0Zm0-8.93a1.86 1.86 0 1 1-3.71 0c0-1.03.83-1.87 1.85-1.87 1.03 0 1.86.84 1.86 1.87Zm0-4.47a1.86 1.86 0 1 1-3.71 0c0-1.03.83-1.87 1.85-1.87 1.03 0 1.86.84 1.86 1.87Zm4.47-102.73a1.86 1.86 0 1 1-3.71 0c0-1.03.83-1.87 1.85-1.87 1.03 0 1.86.84 1.86 1.87Zm0 4.46a1.86 1.86 0 1 1-3.71 0 1.85 1.85 0 1 1 3.71 0Zm0 4.47a1.86 1.86 0 1 1-3.71 0c0-1.03.83-1.87 1.85-1.87 1.03 0 1.86.84 1.86 1.87Zm0 4.47a1.86 1.86 0 1 1-3.71 0 1.86 1.86 0 1 1 3.71 0Zm0 4.46a1.86 1.86 0 1 1-3.71 0 1.85 1.85 0 1 1 3.71 0Zm0 13.41c0 1.02-.83 1.86-1.86 1.86a1.86 1.86 0 0 1 0-3.73c1.03 0 1.86.83 1.86 1.87Zm0-4.47a1.86 1.86 0 1 1-3.71 0c0-1.03.83-1.87 1.85-1.87 1.03 0 1.86.84 1.86 1.87Zm0-4.47c0 1.03-.83 1.87-1.86 1.87a1.86 1.86 0 0 1 0-3.74c1.03 0 1.86.84 1.86 1.87Zm0 62.53c0 1.03-.83 1.87-1.86 1.87a1.86 1.86 0 0 1 0-3.73c1.03 0 1.86.83 1.86 1.86Zm4.46-80.4a1.86 1.86 0 1 1-3.7 0 1.85 1.85 0 1 1 3.7 0Zm0 4.47a1.86 1.86 0 1 1-3.7 0c0-1.03.83-1.87 1.85-1.87s1.85.84 1.85 1.87Zm0 4.47a1.86 1.86 0 1 1-3.7 0c0-1.04.83-1.87 1.85-1.87s1.85.83 1.85 1.87Zm0 4.46a1.86 1.86 0 1 1-3.7 0 1.85 1.85 0 1 1 3.7 0Zm0 4.47c0 1.03-.83 1.87-1.85 1.87a1.86 1.86 0 0 1 0-3.74c1.02 0 1.85.84 1.85 1.87Zm0 67a1.86 1.86 0 1 1-3.7 0c0-1.03.83-1.87 1.85-1.87s1.85.84 1.85 1.87Zm4.47-89.33a1.86 1.86 0 1 1-3.71 0 1.86 1.86 0 1 1 3.71 0Zm0 4.46a1.86 1.86 0 1 1-3.71 0 1.85 1.85 0 1 1 3.71 0Zm0 4.47a1.86 1.86 0 1 1-3.71 0c0-1.03.83-1.87 1.85-1.87 1.03 0 1.86.84 1.86 1.87Zm0 4.47a1.86 1.86 0 1 1-3.71 0 1.86 1.86 0 1 1 3.71 0Zm0 111.66a1.86 1.86 0 1 1-3.71 0 1.85 1.85 0 1 1 3.71 0Zm4.47-125.06a1.86 1.86 0 1 1-3.71 0c0-1.03.83-1.87 1.85-1.87 1.03 0 1.86.84 1.86 1.87Zm0 4.46a1.86 1.86 0 1 1-3.71 0 1.85 1.85 0 1 1 3.71 0Zm0 4.47a1.86 1.86 0 1 1-3.71 0c0-1.03.83-1.87 1.85-1.87 1.03 0 1.86.84 1.86 1.87Zm0 4.47a1.86 1.86 0 1 1-3.71 0 1.86 1.86 0 1 1 3.71 0Zm0 102.73a1.86 1.86 0 1 1-3.71 0 1.86 1.86 0 1 1 3.71 0Zm0 4.46a1.86 1.86 0 1 1-3.71 0 1.85 1.85 0 1 1 3.71 0Zm4.46-120.59c0 1.03-.82 1.87-1.85 1.87a1.86 1.86 0 0 1-1.86-1.87 1.86 1.86 0 1 1 3.71 0Zm0 4.46a1.86 1.86 0 1 1-3.7 0 1.85 1.85 0 1 1 3.71 0Zm0 4.47a1.86 1.86 0 1 1-3.7 0c0-1.03.83-1.87 1.85-1.87 1.03 0 1.86.84 1.86 1.87Zm0 107.2a1.86 1.86 0 1 1-3.7 0 1.86 1.86 0 1 1 3.71 0Zm4.47-111.67a1.86 1.86 0 1 1-3.71 0 1.86 1.86 0 1 1 3.71 0Zm0 4.47a1.86 1.86 0 1 1-3.71 0 1.86 1.86 0 1 1 3.71 0Zm4.47 0a1.86 1.86 0 1 1-3.71 0c0-1.03.83-1.87 1.85-1.87 1.03 0 1.86.84 1.86 1.87Zm0 4.47a1.86 1.86 0 1 1-3.71 0 1.86 1.86 0 1 1 3.71 0ZM146.65 59.94c0 1.02-.83 1.86-1.85 1.86a1.86 1.86 0 0 1-1.86-1.86 1.86 1.86 0 1 1 3.71 0Zm0 4.46a1.86 1.86 0 1 1-3.7 0 1.85 1.85 0 1 1 3.7 0Zm0 4.46c0 1.03-.83 1.87-1.85 1.87a1.86 1.86 0 0 1-1.86-1.87 1.86 1.86 0 1 1 3.71 0Zm0 4.47a1.86 1.86 0 1 1-3.7 0 1.85 1.85 0 1 1 3.7 0Zm0 4.47a1.86 1.86 0 1 1-3.7 0c0-1.03.82-1.87 1.85-1.87 1.02 0 1.85.84 1.85 1.87Zm0 4.47a1.86 1.86 0 1 1-3.7 0c0-1.03.82-1.87 1.85-1.87 1.02 0 1.85.84 1.85 1.87Zm0 4.46c0 1.03-.83 1.87-1.85 1.87a1.86 1.86 0 0 1-1.86-1.87 1.86 1.86 0 1 1 3.71 0Zm0-31.26a1.86 1.86 0 1 1-3.7 0c0-1.03.82-1.87 1.85-1.87 1.02 0 1.85.84 1.85 1.87Zm0 44.67c0 1.02-.83 1.86-1.85 1.86a1.86 1.86 0 0 1-1.86-1.86 1.86 1.86 0 1 1 3.71 0Zm0 4.46c0 1.03-.83 1.87-1.85 1.87a1.86 1.86 0 0 1-1.86-1.87 1.86 1.86 0 1 1 3.71 0Zm0-8.93c0 1.03-.83 1.86-1.85 1.86a1.86 1.86 0 0 1-1.86-1.86 1.86 1.86 0 1 1 3.71 0Zm0-4.47a1.86 1.86 0 1 1-3.7 0c0-1.03.82-1.87 1.85-1.87 1.02 0 1.85.84 1.85 1.87Zm4.47-49.13c0 1.03-.83 1.86-1.85 1.86a1.86 1.86 0 0 1-1.86-1.86 1.86 1.86 0 1 1 3.71 0Zm0 4.46c0 1.04-.83 1.87-1.85 1.87a1.86 1.86 0 0 1-1.86-1.87 1.86 1.86 0 1 1 3.71 0Zm0 13.41c0 1.02-.83 1.86-1.85 1.86a1.86 1.86 0 0 1-1.86-1.86 1.86 1.86 0 1 1 3.71 0Zm0 4.46c0 1.03-.83 1.87-1.85 1.87a1.86 1.86 0 0 1-1.86-1.87 1.86 1.86 0 1 1 3.71 0Zm0 8.93c0 1.03-.83 1.87-1.85 1.87a1.86 1.86 0 0 1-1.86-1.87 1.86 1.86 0 1 1 3.71 0Zm0 4.47c0 1.03-.83 1.87-1.85 1.87a1.86 1.86 0 0 1-1.86-1.87c0-1.03.83-1.87 1.86-1.87 1.02 0 1.85.84 1.85 1.87Zm0 4.47c0 1.03-.83 1.86-1.85 1.86a1.86 1.86 0 0 1 0-3.73c1.02 0 1.85.84 1.85 1.87Zm0 4.46c0 1.03-.83 1.87-1.85 1.87a1.86 1.86 0 0 1-1.86-1.87 1.86 1.86 0 1 1 3.71 0Zm0-31.26c0 1.03-.83 1.86-1.85 1.86a1.86 1.86 0 0 1-1.86-1.86 1.86 1.86 0 1 1 3.71 0Zm0 44.67c0 1.02-.83 1.86-1.85 1.86a1.86 1.86 0 0 1-1.86-1.86 1.86 1.86 0 1 1 3.71 0Zm0 4.46c0 1.03-.83 1.87-1.85 1.87a1.86 1.86 0 0 1-1.86-1.87 1.86 1.86 0 1 1 3.71 0Zm0 4.47c0 1.03-.83 1.87-1.85 1.87a1.86 1.86 0 0 1-1.86-1.87 1.86 1.86 0 1 1 3.71 0Zm0-13.4c0 1.03-.83 1.86-1.85 1.86a1.86 1.86 0 0 1-1.86-1.86 1.86 1.86 0 1 1 3.71 0Zm0-4.47c0 1.03-.83 1.87-1.85 1.87a1.86 1.86 0 0 1-1.86-1.87 1.86 1.86 0 1 1 3.71 0Zm4.47-58.07a1.86 1.86 0 1 1-3.71 0 1.85 1.85 0 1 1 3.71 0Zm0 4.47a1.86 1.86 0 1 1-3.71 0c0-1.03.83-1.87 1.85-1.87 1.03 0 1.86.84 1.86 1.87Zm0 4.47a1.86 1.86 0 1 1-3.71 0 1.86 1.86 0 1 1 3.71 0Zm0 4.46a1.86 1.86 0 1 1-3.71 0 1.85 1.85 0 1 1 3.71 0Zm0-31.26a1.86 1.86 0 1 1-3.71 0c0-1.03.83-1.87 1.85-1.87 1.03 0 1.86.84 1.86 1.87Zm0-4.47a1.86 1.86 0 1 1-3.71 0c0-1.03.83-1.87 1.85-1.87 1.03 0 1.86.84 1.86 1.87Zm0 49.14a1.86 1.86 0 1 1-3.71 0 1.86 1.86 0 1 1 3.71 0Zm0 4.46a1.86 1.86 0 1 1-3.71 0 1.85 1.85 0 1 1 3.71 0Zm0 4.46a1.86 1.86 0 1 1-3.71 0 1.85 1.85 0 1 1 3.71 0Zm0 8.94a1.86 1.86 0 1 1-3.71 0c0-1.03.83-1.87 1.85-1.87 1.03 0 1.86.84 1.86 1.87Zm0 4.47a1.86 1.86 0 1 1-3.71 0c0-1.03.83-1.87 1.85-1.87 1.03 0 1.86.84 1.86 1.87Zm0 4.46a1.86 1.86 0 1 1-3.71 0 1.85 1.85 0 1 1 3.71 0Zm0-31.26a1.86 1.86 0 1 1-3.71 0c0-1.03.83-1.87 1.85-1.87 1.03 0 1.86.84 1.86 1.87Zm0-4.47a1.86 1.86 0 1 1-3.71 0c0-1.03.83-1.87 1.85-1.87 1.03 0 1.86.84 1.86 1.87Zm0 49.14a1.86 1.86 0 1 1-3.71 0 1.86 1.86 0 1 1 3.71 0Zm0 4.46a1.86 1.86 0 1 1-3.71 0 1.85 1.85 0 1 1 3.71 0Zm0 4.47a1.86 1.86 0 1 1-3.71 0 1.85 1.85 0 1 1 3.71 0Zm0 4.46a1.86 1.86 0 1 1-3.71 0 1.85 1.85 0 1 1 3.71 0Zm0 4.47a1.86 1.86 0 1 1-3.71 0c0-1.03.83-1.87 1.85-1.87 1.03 0 1.86.84 1.86 1.87Zm0 4.47a1.86 1.86 0 1 1-3.71 0 1.86 1.86 0 1 1 3.71 0Zm0 4.46a1.86 1.86 0 1 1-3.71 0 1.85 1.85 0 1 1 3.71 0Zm0-31.26a1.86 1.86 0 1 1-3.71 0c0-1.03.83-1.87 1.85-1.87 1.03 0 1.86.84 1.86 1.87Zm0-4.47a1.86 1.86 0 1 1-3.71 0c0-1.03.83-1.87 1.85-1.87 1.03 0 1.86.84 1.86 1.87Zm0 40.2a1.86 1.86 0 1 1-3.71 0c0-1.03.83-1.87 1.85-1.87 1.03 0 1.86.84 1.86 1.87Zm4.46-102.73c0 1.03-.83 1.87-1.85 1.87a1.86 1.86 0 0 1-1.86-1.87 1.86 1.86 0 1 1 3.71 0Zm0 4.46c0 1.03-.83 1.87-1.85 1.87a1.86 1.86 0 0 1-1.86-1.87 1.86 1.86 0 1 1 3.71 0Zm0 4.47c0 1.03-.83 1.87-1.85 1.87a1.86 1.86 0 0 1-1.86-1.87 1.86 1.86 0 1 1 3.71 0Zm0-22.33c0 1.03-.83 1.86-1.85 1.86a1.86 1.86 0 0 1-1.86-1.86 1.86 1.86 0 1 1 3.71 0Zm0-4.47c0 1.03-.83 1.87-1.85 1.87a1.86 1.86 0 0 1-1.86-1.87 1.86 1.86 0 1 1 3.71 0Zm0 49.14c0 1.02-.83 1.86-1.85 1.86a1.86 1.86 0 0 1-1.86-1.86 1.86 1.86 0 1 1 3.71 0Zm0 4.46c0 1.03-.83 1.87-1.85 1.87a1.86 1.86 0 0 1-1.86-1.87 1.86 1.86 0 1 1 3.71 0Zm0 4.46c0 1.03-.83 1.87-1.85 1.87a1.86 1.86 0 0 1-1.86-1.87 1.86 1.86 0 1 1 3.71 0Zm0 8.94c0 1.03-.83 1.87-1.85 1.87a1.86 1.86 0 0 1-1.86-1.87 1.86 1.86 0 1 1 3.71 0Zm0 4.47c0 1.03-.83 1.86-1.85 1.86a1.86 1.86 0 0 1 0-3.73c1.02 0 1.85.84 1.85 1.87Zm0 4.46c0 1.03-.83 1.87-1.85 1.87a1.86 1.86 0 0 1-1.86-1.87 1.86 1.86 0 1 1 3.71 0Zm0-31.26c0 1.03-.83 1.86-1.85 1.86a1.86 1.86 0 0 1-1.86-1.86 1.86 1.86 0 1 1 3.71 0Zm0-4.47c0 1.03-.83 1.87-1.85 1.87a1.86 1.86 0 0 1-1.86-1.87 1.86 1.86 0 1 1 3.71 0Zm0 49.14c0 1.02-.83 1.86-1.85 1.86a1.86 1.86 0 0 1-1.86-1.86 1.86 1.86 0 1 1 3.71 0Zm0 4.46c0 1.03-.83 1.87-1.85 1.87a1.86 1.86 0 0 1-1.86-1.87 1.86 1.86 0 1 1 3.71 0Zm0 4.47c0 1.03-.83 1.87-1.85 1.87a1.86 1.86 0 0 1-1.86-1.87 1.86 1.86 0 1 1 3.71 0Zm0 4.46c0 1.03-.83 1.87-1.85 1.87a1.86 1.86 0 0 1-1.86-1.87 1.86 1.86 0 1 1 3.71 0Zm0 4.47c0 1.03-.83 1.87-1.85 1.87a1.86 1.86 0 0 1-1.86-1.87 1.86 1.86 0 1 1 3.71 0Zm0 4.47c0 1.03-.83 1.86-1.85 1.86a1.86 1.86 0 0 1-1.86-1.86 1.86 1.86 0 1 1 3.71 0Zm0 4.46c0 1.04-.83 1.87-1.85 1.87a1.86 1.86 0 0 1-1.86-1.87 1.86 1.86 0 1 1 3.71 0Zm0-31.26c0 1.03-.83 1.86-1.85 1.86a1.86 1.86 0 0 1-1.86-1.86 1.86 1.86 0 1 1 3.71 0Zm0-4.47c0 1.03-.83 1.87-1.85 1.87a1.86 1.86 0 0 1-1.86-1.87 1.86 1.86 0 1 1 3.71 0Zm0 49.14c0 1.02-.83 1.86-1.85 1.86a1.86 1.86 0 0 1-1.86-1.86 1.86 1.86 0 1 1 3.71 0Zm0-4.47c0 1.03-.83 1.86-1.85 1.86a1.86 1.86 0 0 1-1.86-1.86 1.86 1.86 0 1 1 3.71 0Zm0-4.47c0 1.03-.83 1.87-1.85 1.87a1.86 1.86 0 0 1-1.86-1.87 1.86 1.86 0 1 1 3.71 0Zm4.47-102.73c0 1.03-.83 1.87-1.85 1.87a1.86 1.86 0 0 1-1.86-1.87 1.86 1.86 0 1 1 3.71 0Zm0 4.46c0 1.03-.83 1.87-1.85 1.87a1.86 1.86 0 0 1-1.86-1.87 1.86 1.86 0 1 1 3.71 0Zm0 4.47c0 1.03-.83 1.87-1.85 1.87a1.86 1.86 0 0 1-1.86-1.87 1.86 1.86 0 1 1 3.71 0Zm0 4.47c0 1.03-.83 1.86-1.85 1.86a1.86 1.86 0 0 1-1.86-1.86 1.86 1.86 0 1 1 3.71 0Zm0 4.46c0 1.04-.83 1.87-1.85 1.87a1.86 1.86 0 0 1-1.86-1.87 1.86 1.86 0 1 1 3.71 0Zm0-31.26c0 1.03-.83 1.86-1.85 1.86a1.86 1.86 0 0 1-1.86-1.86 1.86 1.86 0 1 1 3.71 0Zm0-4.47c0 1.03-.83 1.87-1.85 1.87a1.86 1.86 0 0 1-1.86-1.87 1.86 1.86 0 1 1 3.71 0Zm0 49.14c0 1.02-.83 1.86-1.85 1.86a1.86 1.86 0 0 1-1.86-1.86 1.86 1.86 0 1 1 3.71 0Zm0 4.46c0 1.03-.83 1.87-1.85 1.87a1.86 1.86 0 0 1-1.86-1.87 1.86 1.86 0 1 1 3.71 0Zm0 4.46c0 1.03-.83 1.87-1.85 1.87a1.86 1.86 0 0 1-1.86-1.87 1.86 1.86 0 1 1 3.71 0Zm0 8.94c0 1.03-.83 1.87-1.85 1.87a1.86 1.86 0 0 1-1.86-1.87 1.86 1.86 0 1 1 3.71 0Zm0 4.47c0 1.03-.83 1.86-1.85 1.86a1.86 1.86 0 0 1-1.86-1.86c0-1.03.83-1.87 1.86-1.87 1.02 0 1.85.84 1.85 1.87Zm0 4.46c0 1.03-.83 1.87-1.85 1.87a1.86 1.86 0 0 1-1.86-1.87 1.86 1.86 0 1 1 3.71 0Zm0-31.26c0 1.03-.83 1.86-1.85 1.86a1.86 1.86 0 0 1-1.86-1.86 1.86 1.86 0 1 1 3.71 0Zm0-4.47c0 1.03-.83 1.87-1.85 1.87A1.86 1.86 0 0 1 160.8 51a1.86 1.86 0 1 1 3.71 0Zm0 49.14c0 1.02-.83 1.86-1.85 1.86a1.86 1.86 0 0 1-1.86-1.86 1.86 1.86 0 1 1 3.71 0Zm0 4.46c0 1.03-.83 1.87-1.85 1.87a1.86 1.86 0 0 1-1.86-1.87 1.86 1.86 0 1 1 3.71 0Zm0 4.47c0 1.03-.83 1.87-1.85 1.87a1.86 1.86 0 0 1-1.86-1.87 1.86 1.86 0 1 1 3.71 0Zm0 4.46c0 1.03-.83 1.87-1.85 1.87a1.86 1.86 0 0 1-1.86-1.87 1.86 1.86 0 1 1 3.71 0Zm0 4.47c0 1.03-.83 1.87-1.85 1.87a1.86 1.86 0 0 1-1.86-1.87 1.86 1.86 0 1 1 3.71 0Zm0 4.47c0 1.03-.83 1.86-1.85 1.86a1.86 1.86 0 0 1-1.86-1.86 1.86 1.86 0 1 1 3.71 0Zm0 4.46c0 1.04-.83 1.87-1.85 1.87a1.86 1.86 0 0 1-1.86-1.87 1.86 1.86 0 1 1 3.71 0Zm0-31.26c0 1.03-.83 1.86-1.85 1.86a1.86 1.86 0 0 1-1.86-1.86 1.86 1.86 0 1 1 3.71 0Zm0-4.47c0 1.03-.83 1.87-1.85 1.87a1.86 1.86 0 0 1-1.86-1.87 1.86 1.86 0 1 1 3.71 0Zm0 49.14c0 1.02-.83 1.86-1.85 1.86a1.86 1.86 0 0 1-1.86-1.86 1.86 1.86 0 1 1 3.71 0Zm0-4.47c0 1.03-.83 1.86-1.85 1.86a1.86 1.86 0 0 1-1.86-1.86 1.86 1.86 0 1 1 3.71 0Zm0-4.47c0 1.03-.83 1.87-1.85 1.87a1.86 1.86 0 0 1-1.86-1.87 1.86 1.86 0 1 1 3.71 0Zm4.47-102.73a1.86 1.86 0 1 1-3.71 0 1.86 1.86 0 1 1 3.71 0Zm0 4.46a1.86 1.86 0 1 1-3.71 0 1.86 1.86 0 1 1 3.71 0Zm0 4.47a1.86 1.86 0 1 1-3.71 0 1.86 1.86 0 1 1 3.71 0Zm0 4.47a1.86 1.86 0 1 1-3.71 0 1.86 1.86 0 1 1 3.71 0Zm0 4.46a1.86 1.86 0 1 1-3.71 0 1.86 1.86 0 1 1 3.71 0Zm0-31.26a1.86 1.86 0 1 1-3.71 0 1.86 1.86 0 1 1 3.71 0Zm0-4.47a1.86 1.86 0 1 1-3.71 0 1.86 1.86 0 1 1 3.71 0Zm0 49.14a1.86 1.86 0 1 1-3.71 0 1.86 1.86 0 1 1 3.71 0Zm0 8.92a1.86 1.86 0 1 1-3.71 0 1.86 1.86 0 1 1 3.71 0Zm0 8.94a1.86 1.86 0 1 1-3.71 0 1.86 1.86 0 1 1 3.71 0Zm0 4.47a1.86 1.86 0 1 1-3.71 0c0-1.03.83-1.87 1.85-1.87 1.03 0 1.86.84 1.86 1.87Zm0 4.46a1.86 1.86 0 1 1-3.71 0 1.86 1.86 0 1 1 3.71 0Zm0-31.26a1.86 1.86 0 1 1-3.71 0 1.86 1.86 0 1 1 3.71 0Zm0-4.47a1.86 1.86 0 1 1-3.71 0 1.86 1.86 0 1 1 3.71 0Zm0 49.14a1.86 1.86 0 1 1-3.71 0 1.86 1.86 0 1 1 3.71 0Zm0 4.46a1.86 1.86 0 1 1-3.71 0 1.86 1.86 0 1 1 3.71 0Zm0 4.47a1.86 1.86 0 1 1-3.71 0 1.86 1.86 0 1 1 3.71 0Zm0 4.46a1.86 1.86 0 1 1-3.71 0 1.86 1.86 0 1 1 3.71 0Zm0 4.47a1.86 1.86 0 1 1-3.71 0 1.86 1.86 0 1 1 3.71 0Zm0 4.47a1.86 1.86 0 1 1-3.71 0 1.86 1.86 0 1 1 3.71 0Zm0 4.46a1.86 1.86 0 1 1-3.71 0 1.86 1.86 0 1 1 3.71 0Zm0-31.26a1.86 1.86 0 1 1-3.71 0 1.86 1.86 0 1 1 3.71 0Zm-1.86-2.6c1.03 0 1.86-.84 1.86-1.87a1.86 1.86 0 1 0-3.71 0c0 1.03.83 1.87 1.85 1.87Zm1.86 42.8a1.86 1.86 0 1 1-3.71 0 1.86 1.86 0 1 1 3.71 0Zm0-4.47a1.86 1.86 0 1 1-3.71 0 1.86 1.86 0 1 1 3.71 0Zm4.47-98.27c0 1.03-.84 1.87-1.86 1.87a1.86 1.86 0 0 1 0-3.73c1.02 0 1.86.83 1.86 1.86Zm0 4.47a1.86 1.86 0 1 1-3.71 0c0-1.03.83-1.87 1.85-1.87s1.86.84 1.86 1.87Zm0 4.47c0 1.03-.84 1.86-1.86 1.86a1.86 1.86 0 0 1 0-3.73c1.02 0 1.86.83 1.86 1.87Zm0 4.46c0 1.04-.84 1.87-1.86 1.87a1.86 1.86 0 0 1 0-3.73c1.02 0 1.86.83 1.86 1.86Zm0 13.41c0 1.02-.84 1.86-1.86 1.86a1.86 1.86 0 0 1 0-3.73c1.02 0 1.86.83 1.86 1.87Zm0 8.92c0 1.03-.84 1.87-1.86 1.87a1.86 1.86 0 0 1 0-3.73c1.02 0 1.86.84 1.86 1.86Zm0 4.47a1.86 1.86 0 1 1-3.71 0 1.85 1.85 0 1 1 3.71 0Zm0 4.47a1.86 1.86 0 1 1-3.71 0c0-1.03.83-1.87 1.85-1.87s1.86.84 1.86 1.87Zm0 4.47a1.86 1.86 0 1 1-3.71 0c0-1.03.83-1.87 1.85-1.87s1.86.84 1.86 1.87Zm0 4.46c0 1.03-.84 1.87-1.86 1.87a1.86 1.86 0 0 1 0-3.73c1.02 0 1.86.83 1.86 1.86Zm0-31.26a1.86 1.86 0 1 1-3.71 0c0-1.03.83-1.87 1.85-1.87s1.86.84 1.86 1.87Zm0-4.47c0 1.03-.84 1.87-1.86 1.87a1.86 1.86 0 0 1 0-3.74c1.02 0 1.86.84 1.86 1.87Zm0 49.14c0 1.02-.84 1.86-1.86 1.86a1.86 1.86 0 0 1 0-3.73c1.02 0 1.86.83 1.86 1.87Zm0 4.46c0 1.03-.84 1.87-1.86 1.87a1.86 1.86 0 0 1 0-3.73c1.02 0 1.86.83 1.86 1.86Zm0 4.47c0 1.03-.84 1.87-1.86 1.87a1.86 1.86 0 0 1-1.86-1.87 1.86 1.86 0 1 1 3.71 0Zm0 4.46c0 1.03-.84 1.87-1.86 1.87a1.86 1.86 0 0 1 0-3.73c1.02 0 1.86.83 1.86 1.86Zm0 4.47c0 1.03-.84 1.87-1.86 1.87a1.86 1.86 0 0 1 0-3.74c1.02 0 1.86.84 1.86 1.87Zm0 4.47c0 1.03-.84 1.86-1.86 1.86a1.86 1.86 0 0 1 0-3.73c1.02 0 1.86.84 1.86 1.87Zm0 4.46c0 1.04-.84 1.87-1.86 1.87a1.86 1.86 0 0 1 0-3.73c1.02 0 1.86.83 1.86 1.86Zm0-31.26c0 1.03-.84 1.86-1.86 1.86a1.86 1.86 0 0 1 0-3.73c1.02 0 1.86.84 1.86 1.87Zm-1.86-2.6c1.03 0 1.86-.84 1.86-1.87a1.86 1.86 0 1 0-3.71 0c0 1.03.82 1.87 1.85 1.87Zm1.86 38.33a1.86 1.86 0 1 1-3.71 0c0-1.03.83-1.87 1.85-1.87s1.86.84 1.86 1.87Zm4.46-98.27c0 1.03-.83 1.87-1.85 1.87a1.86 1.86 0 0 1 0-3.73c1.02 0 1.85.83 1.85 1.86Zm0 4.47c0 1.03-.83 1.87-1.85 1.87a1.86 1.86 0 0 1-1.86-1.87 1.86 1.86 0 1 1 3.71 0Zm0 4.47c0 1.03-.83 1.86-1.85 1.86a1.86 1.86 0 0 1 0-3.73c1.02 0 1.85.83 1.85 1.87Zm0 4.46c0 1.04-.83 1.87-1.85 1.87a1.86 1.86 0 0 1 0-3.73c1.02 0 1.85.83 1.85 1.86Zm0 13.41c0 1.02-.83 1.86-1.85 1.86a1.86 1.86 0 0 1 0-3.73c1.02 0 1.85.83 1.85 1.87Zm0 4.46c0 1.03-.83 1.87-1.85 1.87a1.86 1.86 0 0 1 0-3.73c1.02 0 1.85.83 1.85 1.86Zm0 4.46c0 1.03-.83 1.87-1.85 1.87a1.86 1.86 0 0 1 0-3.73c1.02 0 1.85.84 1.85 1.86Zm0 4.47c0 1.03-.83 1.87-1.85 1.87a1.86 1.86 0 0 1-1.86-1.87 1.86 1.86 0 1 1 3.71 0Zm0 4.47c0 1.03-.83 1.87-1.85 1.87a1.86 1.86 0 0 1-1.86-1.87 1.86 1.86 0 1 1 3.71 0Zm0 4.47c0 1.03-.83 1.86-1.85 1.86a1.86 1.86 0 0 1-1.86-1.86c0-1.03.83-1.87 1.85-1.87 1.03 0 1.86.84 1.86 1.87Zm0 4.46c0 1.03-.83 1.87-1.85 1.87a1.86 1.86 0 0 1 0-3.73c1.02 0 1.85.83 1.85 1.86Zm0-31.26c0 1.03-.83 1.86-1.85 1.86a1.86 1.86 0 0 1-1.86-1.86 1.86 1.86 0 1 1 3.71 0Zm0-4.47c0 1.03-.83 1.87-1.85 1.87a1.86 1.86 0 0 1 0-3.74c1.02 0 1.85.84 1.85 1.87Zm0 49.14c0 1.02-.83 1.86-1.85 1.86a1.86 1.86 0 0 1 0-3.73c1.02 0 1.85.83 1.85 1.87Zm0 4.46c0 1.03-.83 1.87-1.85 1.87a1.86 1.86 0 0 1 0-3.73c1.02 0 1.85.83 1.85 1.86Zm0 4.47c0 1.03-.83 1.87-1.85 1.87a1.86 1.86 0 0 1-1.86-1.87 1.86 1.86 0 1 1 3.71 0Zm0 4.46c0 1.03-.83 1.87-1.85 1.87a1.86 1.86 0 0 1 0-3.73c1.02 0 1.85.83 1.85 1.86Zm0 4.47c0 1.03-.83 1.87-1.85 1.87a1.86 1.86 0 0 1 0-3.74c1.02 0 1.85.84 1.85 1.87Zm0 4.47c0 1.03-.83 1.86-1.85 1.86a1.86 1.86 0 0 1 0-3.73c1.02 0 1.85.84 1.85 1.87Zm0-26.8c0 1.03-.83 1.86-1.85 1.86a1.86 1.86 0 0 1 0-3.73c1.02 0 1.85.84 1.85 1.87Zm0-4.47c0 1.03-.83 1.87-1.85 1.87a1.86 1.86 0 0 1-1.86-1.87 1.86 1.86 0 1 1 3.71 0Zm4.48-53.6a1.86 1.86 0 1 1-3.71 0 1.86 1.86 0 1 1 3.7 0Zm0 4.47a1.86 1.86 0 1 1-3.71 0 1.86 1.86 0 1 1 3.7 0Zm0 4.46a1.86 1.86 0 1 1-3.71 0 1.86 1.86 0 1 1 3.7 0Zm0 13.41a1.86 1.86 0 1 1-3.71 0 1.86 1.86 0 1 1 3.7 0Zm0 4.46a1.86 1.86 0 1 1-3.71 0 1.86 1.86 0 1 1 3.7 0Zm0 4.46a1.86 1.86 0 1 1-3.71 0 1.86 1.86 0 1 1 3.7 0Zm0 4.47a1.86 1.86 0 1 1-3.71 0 1.86 1.86 0 1 1 3.7 0Zm0 4.47a1.86 1.86 0 1 1-3.71 0 1.86 1.86 0 1 1 3.7 0Zm0 4.47a1.86 1.86 0 1 1-3.71 0 1.85 1.85 0 1 1 3.7 0Zm0 4.46a1.86 1.86 0 1 1-3.71 0 1.86 1.86 0 1 1 3.7 0Zm0-31.26a1.86 1.86 0 1 1-3.71 0 1.86 1.86 0 1 1 3.7 0Zm0-4.47a1.86 1.86 0 1 1-3.71 0 1.86 1.86 0 1 1 3.7 0Zm0 49.14a1.86 1.86 0 1 1-3.71 0 1.86 1.86 0 1 1 3.7 0Zm0 4.46a1.86 1.86 0 1 1-3.71 0 1.86 1.86 0 1 1 3.7 0Zm0 17.87a1.86 1.86 0 1 1-3.71 0 1.86 1.86 0 1 1 3.7 0Zm0 4.46a1.86 1.86 0 1 1-3.71 0 1.86 1.86 0 1 1 3.7 0Zm0-31.26a1.86 1.86 0 1 1-3.71 0 1.86 1.86 0 1 1 3.7 0Zm0-4.47a1.86 1.86 0 1 1-3.71 0 1.86 1.86 0 1 1 3.7 0Zm0 40.2a1.86 1.86 0 1 1-3.71 0 1.86 1.86 0 1 1 3.7 0Zm4.46-98.27a1.86 1.86 0 1 1-3.71 0 1.86 1.86 0 1 1 3.7 0Zm0 4.47a1.86 1.86 0 1 1-3.71 0 1.86 1.86 0 1 1 3.7 0Zm0 4.47a1.86 1.86 0 1 1-3.71 0 1.86 1.86 0 1 1 3.7 0Zm0 4.46a1.86 1.86 0 1 1-3.71 0 1.86 1.86 0 1 1 3.7 0Zm0-35.73a1.86 1.86 0 1 1-3.71 0 1.86 1.86 0 1 1 3.7 0Zm0 49.14a1.86 1.86 0 1 1-3.71 0 1.86 1.86 0 1 1 3.7 0Zm0 13.39a1.86 1.86 0 1 1-3.71 0 1.86 1.86 0 1 1 3.7 0Zm0 4.47a1.86 1.86 0 1 1-3.71 0 1.86 1.86 0 1 1 3.7 0Zm0 4.47a1.86 1.86 0 1 1-3.71 0 1.86 1.86 0 1 1 3.71 0Zm0 4.46a1.86 1.86 0 1 1-3.71 0 1.86 1.86 0 1 1 3.7 0Zm0-31.26a1.86 1.86 0 1 1-3.71 0 1.86 1.86 0 1 1 3.7 0Zm0-4.47a1.86 1.86 0 1 1-3.71 0 1.86 1.86 0 1 1 3.7 0Zm0 49.14a1.86 1.86 0 1 1-3.71 0 1.86 1.86 0 1 1 3.7 0Zm0-8.94a1.86 1.86 0 1 1-3.71 0 1.86 1.86 0 1 1 3.7 0Zm4.46-71.47c0 1.03-.83 1.87-1.85 1.87a1.86 1.86 0 0 1-1.86-1.87 1.86 1.86 0 1 1 3.71 0Zm0 4.47c0 1.03-.83 1.86-1.85 1.86a1.86 1.86 0 0 1-1.86-1.86 1.86 1.86 0 1 1 3.71 0Zm0 8.93c0 1.03-.83 1.87-1.85 1.87a1.86 1.86 0 0 1-1.86-1.87 1.86 1.86 0 1 1 3.71 0Zm0 4.47c0 1.03-.83 1.87-1.85 1.87a1.86 1.86 0 0 1-1.86-1.87 1.86 1.86 0 1 1 3.71 0Zm0 4.47c0 1.03-.83 1.86-1.85 1.86a1.86 1.86 0 0 1-1.86-1.86 1.86 1.86 0 1 1 3.71 0Zm0 4.46c0 1.04-.83 1.87-1.85 1.87a1.86 1.86 0 0 1-1.86-1.87 1.86 1.86 0 1 1 3.71 0Zm0-35.73c0 1.03-.83 1.87-1.85 1.87a1.86 1.86 0 0 1-1.86-1.87 1.86 1.86 0 1 1 3.71 0Zm0 49.14c0 1.02-.83 1.86-1.85 1.86a1.86 1.86 0 0 1-1.86-1.86 1.86 1.86 0 1 1 3.71 0Zm0 4.46c0 1.03-.83 1.87-1.85 1.87a1.86 1.86 0 0 1-1.86-1.87 1.86 1.86 0 1 1 3.71 0Zm0 4.46c0 1.03-.83 1.87-1.85 1.87a1.86 1.86 0 0 1-1.86-1.87 1.86 1.86 0 1 1 3.71 0Zm0 4.47c0 1.03-.83 1.87-1.85 1.87a1.86 1.86 0 0 1-1.86-1.87 1.86 1.86 0 1 1 3.71 0Zm0 4.47c0 1.03-.83 1.87-1.85 1.87a1.86 1.86 0 0 1-1.86-1.87 1.86 1.86 0 1 1 3.71 0Zm0 4.47c0 1.03-.83 1.86-1.85 1.86a1.86 1.86 0 0 1-1.86-1.86 1.86 1.86 0 1 1 3.71 0Zm0 4.46c0 1.03-.83 1.87-1.85 1.87a1.86 1.86 0 0 1-1.86-1.87 1.86 1.86 0 1 1 3.71 0Zm0-31.26c0 1.03-.83 1.86-1.85 1.86a1.86 1.86 0 0 1-1.86-1.86 1.86 1.86 0 1 1 3.71 0Zm0-4.47c0 1.03-.83 1.87-1.85 1.87A1.86 1.86 0 0 1 187.6 51a1.86 1.86 0 1 1 3.71 0Zm0 40.2c0 1.03-.83 1.87-1.85 1.87a1.86 1.86 0 0 1-1.86-1.87 1.86 1.86 0 1 1 3.71 0Zm4.48-71.47c0 1.03-.84 1.87-1.86 1.87a1.86 1.86 0 0 1 0-3.73c1.02 0 1.85.83 1.85 1.86Zm0 8.94a1.86 1.86 0 1 1-3.71 0 1.86 1.86 0 1 1 3.7 0Zm0 4.46c0 1.03-.84 1.87-1.86 1.87a1.86 1.86 0 0 1 0-3.73c1.02 0 1.85.83 1.85 1.86Zm0 4.47a1.86 1.86 0 1 1-3.71 0 1.86 1.86 0 1 1 3.7 0Zm0 4.47c0 1.03-.84 1.86-1.86 1.86a1.86 1.86 0 0 1 0-3.73c1.02 0 1.85.83 1.85 1.87Zm0 4.46c0 1.04-.84 1.87-1.86 1.87a1.86 1.86 0 0 1 0-3.73c1.02 0 1.85.83 1.85 1.86Zm0-35.73a1.86 1.86 0 1 1-3.71 0 1.86 1.86 0 1 1 3.7 0Zm0 49.14c0 1.02-.84 1.86-1.86 1.86a1.86 1.86 0 0 1 0-3.73c1.02 0 1.85.83 1.85 1.87Zm0 4.46c0 1.03-.84 1.87-1.86 1.87a1.86 1.86 0 0 1 0-3.73c1.02 0 1.85.83 1.85 1.86Zm0 4.46c0 1.03-.84 1.87-1.86 1.87a1.86 1.86 0 0 1 0-3.73c1.02 0 1.85.84 1.85 1.86Zm0 4.47a1.86 1.86 0 1 1-3.71 0 1.86 1.86 0 1 1 3.7 0Zm0 4.47a1.86 1.86 0 1 1-3.71 0 1.86 1.86 0 1 1 3.7 0Zm0 4.47a1.86 1.86 0 1 1-3.71 0c0-1.03.82-1.87 1.85-1.87 1.02 0 1.85.84 1.85 1.87Zm0-26.8a1.86 1.86 0 1 1-3.71 0 1.86 1.86 0 1 1 3.7 0Zm0-4.47c0 1.03-.84 1.87-1.86 1.87a1.86 1.86 0 0 1 0-3.74c1.02 0 1.85.84 1.85 1.87Zm4.46-31.27c0 1.03-.83 1.87-1.86 1.87a1.86 1.86 0 0 1 0-3.73c1.03 0 1.86.83 1.86 1.86Zm0 8.94a1.86 1.86 0 1 1-3.71 0 1.86 1.86 0 1 1 3.7 0Zm0 4.46c0 1.03-.83 1.87-1.86 1.87a1.86 1.86 0 0 1 0-3.73c1.03 0 1.86.83 1.86 1.86Zm0 4.47a1.86 1.86 0 1 1-3.71 0 1.86 1.86 0 1 1 3.7 0Zm0 4.47c0 1.03-.83 1.86-1.86 1.86a1.86 1.86 0 0 1 0-3.73c1.03 0 1.86.83 1.86 1.87Zm0 4.46c0 1.04-.83 1.87-1.86 1.87a1.86 1.86 0 0 1 0-3.73c1.03 0 1.86.83 1.86 1.86Zm0 13.41c0 1.02-.83 1.86-1.86 1.86a1.86 1.86 0 0 1 0-3.73c1.03 0 1.86.83 1.86 1.87Zm0 4.46c0 1.03-.83 1.87-1.86 1.87a1.86 1.86 0 0 1 0-3.73c1.03 0 1.86.83 1.86 1.86Zm0 4.46c0 1.03-.83 1.87-1.86 1.87a1.86 1.86 0 0 1 0-3.73c1.03 0 1.86.84 1.86 1.86Zm0 4.47a1.86 1.86 0 1 1-3.71 0 1.86 1.86 0 1 1 3.7 0Zm0 4.47a1.86 1.86 0 1 1-3.71 0 1.86 1.86 0 1 1 3.7 0Zm0 4.47a1.86 1.86 0 1 1-3.71 0c0-1.03.83-1.87 1.85-1.87 1.03 0 1.86.84 1.86 1.87Zm0-26.8a1.86 1.86 0 1 1-3.71 0 1.86 1.86 0 1 1 3.7 0Zm0-4.47c0 1.03-.83 1.87-1.86 1.87a1.86 1.86 0 0 1 0-3.74c1.03 0 1.86.84 1.86 1.87Zm4.46-26.8a1.86 1.86 0 1 1-3.7 0 1.86 1.86 0 1 1 3.7 0Zm0 4.47c0 1.03-.82 1.87-1.85 1.87a1.86 1.86 0 0 1-1.86-1.87 1.86 1.86 0 1 1 3.71 0Zm0 4.46a1.86 1.86 0 1 1-3.7 0 1.86 1.86 0 1 1 3.7 0Zm0 4.47a1.86 1.86 0 1 1-3.7 0 1.86 1.86 0 1 1 3.7 0Zm0 4.47a1.86 1.86 0 1 1-3.7 0 1.86 1.86 0 1 1 3.7 0Zm0 4.46a1.86 1.86 0 1 1-3.7 0 1.86 1.86 0 1 1 3.7 0Zm0 13.41c0 1.02-.82 1.86-1.85 1.86a1.86 1.86 0 0 1-1.86-1.86 1.86 1.86 0 1 1 3.71 0Zm0 4.46a1.86 1.86 0 1 1-3.7 0 1.86 1.86 0 1 1 3.7 0Zm0 4.46c0 1.03-.82 1.87-1.85 1.87a1.86 1.86 0 0 1-1.86-1.87 1.86 1.86 0 1 1 3.71 0Zm0 4.47a1.86 1.86 0 1 1-3.7 0 1.86 1.86 0 1 1 3.7 0Zm0 4.47a1.86 1.86 0 1 1-3.7 0 1.86 1.86 0 1 1 3.7 0Zm0 4.47a1.86 1.86 0 1 1-3.7 0c0-1.03.82-1.87 1.85-1.87 1.03 0 1.85.84 1.85 1.87Zm0 4.46c0 1.03-.82 1.87-1.85 1.87a1.86 1.86 0 0 1-1.86-1.87 1.86 1.86 0 1 1 3.71 0Zm0-31.26a1.86 1.86 0 1 1-3.7 0 1.86 1.86 0 1 1 3.7 0Zm0-4.47c0 1.03-.82 1.87-1.85 1.87A1.86 1.86 0 0 1 201 51a1.86 1.86 0 1 1 3.71 0Zm0 40.2a1.86 1.86 0 1 1-3.7 0 1.86 1.86 0 1 1 3.7 0Zm4.48-67a1.86 1.86 0 1 1-3.72 0 1.86 1.86 0 1 1 3.71 0Zm0 4.47a1.86 1.86 0 1 1-3.71 0 1.86 1.86 0 1 1 3.7 0Zm0 4.46a1.86 1.86 0 1 1-3.72 0 1.86 1.86 0 1 1 3.71 0Zm0 4.47a1.86 1.86 0 1 1-3.72 0 1.86 1.86 0 1 1 3.71 0Zm0 4.47a1.86 1.86 0 1 1-3.72 0 1.86 1.86 0 1 1 3.71 0Zm0 4.46a1.86 1.86 0 1 1-3.72 0 1.86 1.86 0 1 1 3.71 0Zm0 13.41c0 1.02-.84 1.86-1.86 1.86a1.86 1.86 0 0 1 0-3.73c1.02 0 1.85.83 1.85 1.87Zm0 4.46a1.86 1.86 0 1 1-3.72 0 1.86 1.86 0 1 1 3.71 0Zm0 4.46c0 1.03-.84 1.87-1.86 1.87a1.86 1.86 0 0 1 0-3.73c1.02 0 1.85.84 1.85 1.86Zm0 4.47a1.86 1.86 0 1 1-3.72 0 1.86 1.86 0 1 1 3.71 0Zm0 4.47a1.86 1.86 0 1 1-3.72 0 1.86 1.86 0 1 1 3.71 0Zm0 4.47a1.86 1.86 0 1 1-3.72 0 1.86 1.86 0 1 1 3.71 0Zm0 4.46c0 1.03-.84 1.87-1.86 1.87a1.86 1.86 0 0 1 0-3.73c1.02 0 1.85.83 1.85 1.86Zm0-31.26a1.86 1.86 0 1 1-3.72 0 1.86 1.86 0 1 1 3.71 0Zm0-4.47c0 1.03-.84 1.87-1.86 1.87a1.86 1.86 0 0 1 0-3.74c1.02 0 1.85.84 1.85 1.87Zm0 49.14c0 1.02-.84 1.86-1.86 1.86a1.86 1.86 0 0 1 0-3.73c1.02 0 1.85.83 1.85 1.87Zm0-4.47c0 1.03-.84 1.86-1.86 1.86a1.86 1.86 0 0 1 0-3.73c1.02 0 1.85.84 1.85 1.87Zm0-4.47a1.86 1.86 0 1 1-3.72 0 1.86 1.86 0 1 1 3.71 0Zm4.46-67a1.86 1.86 0 1 1-3.71 0 1.86 1.86 0 1 1 3.71 0Zm0 4.47a1.86 1.86 0 1 1-3.71 0 1.86 1.86 0 1 1 3.71 0Zm0 4.46a1.86 1.86 0 1 1-3.71 0 1.86 1.86 0 1 1 3.71 0Zm0 4.47a1.86 1.86 0 1 1-3.71 0 1.86 1.86 0 1 1 3.71 0Zm0 4.47a1.86 1.86 0 1 1-3.71 0 1.86 1.86 0 1 1 3.71 0Zm0 4.46a1.86 1.86 0 1 1-3.71 0 1.86 1.86 0 1 1 3.71 0Zm0 13.41a1.86 1.86 0 1 1-3.71 0 1.86 1.86 0 1 1 3.71 0Zm0 4.46a1.86 1.86 0 1 1-3.71 0 1.86 1.86 0 1 1 3.71 0Zm0 4.46a1.86 1.86 0 1 1-3.71 0 1.86 1.86 0 1 1 3.71 0Zm0 4.47a1.86 1.86 0 1 1-3.71 0 1.86 1.86 0 1 1 3.71 0Zm0 4.47a1.86 1.86 0 1 1-3.71 0 1.86 1.86 0 1 1 3.71 0Zm0 4.47a1.86 1.86 0 1 1-3.71 0c0-1.03.83-1.87 1.85-1.87 1.03 0 1.86.84 1.86 1.87Zm0 4.46a1.86 1.86 0 1 1-3.71 0 1.86 1.86 0 1 1 3.71 0Zm0-31.26a1.86 1.86 0 1 1-3.71 0 1.86 1.86 0 1 1 3.71 0Zm0-4.47a1.86 1.86 0 1 1-3.71 0 1.86 1.86 0 1 1 3.71 0Zm0 53.6a1.86 1.86 0 1 1-3.71 0 1.86 1.86 0 1 1 3.71 0Zm0-13.4a1.86 1.86 0 1 1-3.71 0 1.86 1.86 0 1 1 3.71 0Zm4.47-71.47a1.86 1.86 0 1 1-3.71 0 1.86 1.86 0 1 1 3.7 0Zm0 4.47a1.86 1.86 0 1 1-3.72 0 1.86 1.86 0 1 1 3.72 0Zm0 4.47a1.86 1.86 0 1 1-3.71 0 1.86 1.86 0 1 1 3.7 0Zm0 4.46a1.86 1.86 0 1 1-3.72 0 1.86 1.86 0 1 1 3.72 0Zm0 4.47a1.86 1.86 0 1 1-3.72 0 1.86 1.86 0 1 1 3.72 0Zm0 4.47a1.86 1.86 0 1 1-3.72 0 1.86 1.86 0 1 1 3.72 0Zm0 4.46a1.86 1.86 0 1 1-3.72 0 1.86 1.86 0 1 1 3.72 0Zm0 13.41a1.86 1.86 0 1 1-3.71 0 1.86 1.86 0 1 1 3.7 0Zm0 4.46a1.86 1.86 0 1 1-3.72 0 1.86 1.86 0 1 1 3.72 0Zm0 4.46a1.86 1.86 0 1 1-3.71 0 1.86 1.86 0 1 1 3.7 0Zm0 4.47a1.86 1.86 0 1 1-3.72 0 1.86 1.86 0 1 1 3.72 0Zm0 4.47a1.86 1.86 0 1 1-3.72 0 1.86 1.86 0 1 1 3.72 0Zm0 4.47a1.86 1.86 0 1 1-3.72 0 1.86 1.86 0 1 1 3.71 0Zm0 4.46a1.86 1.86 0 1 1-3.71 0 1.86 1.86 0 1 1 3.7 0Zm0-31.26a1.86 1.86 0 1 1-3.72 0 1.86 1.86 0 1 1 3.72 0Zm0-4.47a1.86 1.86 0 1 1-3.71 0 1.86 1.86 0 1 1 3.7 0Zm4.47-31.27a1.86 1.86 0 1 1-3.71 0 1.85 1.85 0 1 1 3.7 0Zm0 4.47a1.86 1.86 0 1 1-3.72 0c0-1.03.83-1.87 1.86-1.87 1.02 0 1.85.84 1.85 1.87Zm0 4.47a1.86 1.86 0 1 1-3.71 0 1.86 1.86 0 1 1 3.71 0Zm0 4.46a1.86 1.86 0 1 1-3.72 0 1.86 1.86 0 1 1 3.71 0Zm0 4.47a1.86 1.86 0 1 1-3.72 0 1.86 1.86 0 1 1 3.71 0Zm0 4.47a1.86 1.86 0 1 1-3.72 0 1.86 1.86 0 1 1 3.71 0Zm0 4.46a1.86 1.86 0 1 1-3.72 0 1.86 1.86 0 1 1 3.71 0Zm0-35.73a1.86 1.86 0 1 1-3.71 0c0-1.03.82-1.87 1.85-1.87 1.02 0 1.85.84 1.85 1.87Zm0 49.14a1.86 1.86 0 1 1-3.71 0 1.85 1.85 0 1 1 3.7 0Zm0 4.46a1.86 1.86 0 1 1-3.72 0 1.86 1.86 0 1 1 3.71 0Zm0 4.46a1.86 1.86 0 1 1-3.71 0 1.85 1.85 0 1 1 3.7 0Zm0 4.47a1.86 1.86 0 1 1-3.72 0 1.86 1.86 0 1 1 3.71 0Zm0 4.47a1.86 1.86 0 1 1-3.72 0 1.86 1.86 0 1 1 3.71 0Zm0 4.47a1.86 1.86 0 1 1-3.72 0 1.86 1.86 0 1 1 3.71 0Zm0 4.46a1.86 1.86 0 1 1-3.71 0 1.85 1.85 0 1 1 3.7 0Zm0-31.26a1.86 1.86 0 1 1-3.72 0 1.86 1.86 0 1 1 3.71 0Zm0-4.47a1.86 1.86 0 1 1-3.71 0c0-1.03.82-1.87 1.85-1.87 1.02 0 1.85.84 1.85 1.87Zm0 40.2a1.86 1.86 0 1 1-3.72 0 1.86 1.86 0 1 1 3.71 0ZM66.25 19.73a1.86 1.86 0 1 1-3.71 0 1.86 1.86 0 1 1 3.7 0Zm0 8.94a1.86 1.86 0 1 1-3.71 0 1.86 1.86 0 1 1 3.7 0Zm0 4.46a1.86 1.86 0 1 1-3.71 0 1.86 1.86 0 1 1 3.7 0Zm0 4.47a1.86 1.86 0 1 1-3.71 0 1.86 1.86 0 1 1 3.7 0Zm0 4.47a1.86 1.86 0 1 1-3.71 0 1.86 1.86 0 1 1 3.7 0Zm0 4.46a1.86 1.86 0 1 1-3.71 0 1.86 1.86 0 1 1 3.7 0Zm0-35.73a1.86 1.86 0 1 1-3.71 0 1.86 1.86 0 1 1 3.7 0Zm0 49.14a1.86 1.86 0 1 1-3.71 0 1.86 1.86 0 1 1 3.7 0Zm0 4.46a1.86 1.86 0 1 1-3.71 0 1.86 1.86 0 1 1 3.7 0Zm0 4.46a1.86 1.86 0 1 1-3.71 0 1.86 1.86 0 1 1 3.7 0Zm0 4.47a1.86 1.86 0 1 1-3.71 0 1.86 1.86 0 1 1 3.7 0Zm0 4.47a1.86 1.86 0 1 1-3.71 0 1.86 1.86 0 1 1 3.7 0Zm0-22.33a1.86 1.86 0 1 1-3.71 0 1.86 1.86 0 1 1 3.7 0Zm0-4.47a1.86 1.86 0 1 1-3.71 0 1.86 1.86 0 1 1 3.7 0Zm0 40.2a1.86 1.86 0 1 1-3.71 0 1.86 1.86 0 1 1 3.7 0Zm4.47-71.47a1.86 1.86 0 1 1-3.71 0 1.86 1.86 0 1 1 3.7 0Zm0 4.47a1.86 1.86 0 1 1-3.71 0 1.86 1.86 0 1 1 3.7 0Zm0 4.47a1.86 1.86 0 1 1-3.71 0 1.86 1.86 0 1 1 3.7 0Zm0 4.46a1.86 1.86 0 1 1-3.71 0 1.86 1.86 0 1 1 3.7 0Zm0 4.47a1.86 1.86 0 1 1-3.71 0 1.86 1.86 0 1 1 3.7 0Zm0-22.33a1.86 1.86 0 1 1-3.71 0 1.86 1.86 0 1 1 3.7 0Zm0-4.47a1.86 1.86 0 1 1-3.71 0 1.86 1.86 0 1 1 3.7 0Zm0 49.14a1.86 1.86 0 1 1-3.71 0 1.86 1.86 0 1 1 3.7 0Zm0 4.46a1.86 1.86 0 1 1-3.71 0 1.86 1.86 0 1 1 3.7 0Zm0 4.46a1.86 1.86 0 1 1-3.71 0 1.86 1.86 0 1 1 3.7 0Zm0 4.47a1.86 1.86 0 1 1-3.71 0 1.86 1.86 0 1 1 3.7 0Zm0 4.47a1.86 1.86 0 1 1-3.71 0 1.86 1.86 0 1 1 3.7 0Zm0 8.93a1.86 1.86 0 1 1-3.71 0 1.86 1.86 0 1 1 3.7 0Zm0-31.26a1.86 1.86 0 1 1-3.71 0 1.86 1.86 0 1 1 3.7 0Zm0-4.47A1.86 1.86 0 1 1 67 51a1.86 1.86 0 1 1 3.7 0Zm0 49.14a1.86 1.86 0 1 1-3.71 0 1.86 1.86 0 1 1 3.7 0Zm0-4.47a1.86 1.86 0 1 1-3.71 0 1.86 1.86 0 1 1 3.7 0Zm0-4.47a1.86 1.86 0 1 1-3.71 0 1.86 1.86 0 1 1 3.7 0Zm4.46-71.47c0 1.03-.83 1.87-1.85 1.87a1.86 1.86 0 0 1-1.86-1.87 1.86 1.86 0 1 1 3.71 0Zm0 4.47a1.86 1.86 0 1 1-3.7 0 1.86 1.86 0 1 1 3.7 0Zm0 4.47c0 1.03-.83 1.87-1.85 1.87a1.86 1.86 0 0 1-1.86-1.87 1.86 1.86 0 1 1 3.71 0Zm0 4.46a1.86 1.86 0 1 1-3.7 0 1.86 1.86 0 1 1 3.7 0Zm0 4.47a1.86 1.86 0 1 1-3.7 0 1.86 1.86 0 1 1 3.7 0Zm0-22.33a1.86 1.86 0 1 1-3.7 0 1.86 1.86 0 1 1 3.7 0Zm0-4.47c0 1.03-.83 1.87-1.85 1.87a1.86 1.86 0 0 1-1.86-1.87 1.86 1.86 0 1 1 3.71 0Zm0-4.47a1.86 1.86 0 1 1-3.7 0 1.86 1.86 0 1 1 3.7 0Zm0 53.61c0 1.02-.83 1.86-1.85 1.86a1.86 1.86 0 0 1-1.86-1.86 1.86 1.86 0 1 1 3.71 0Zm0 4.46a1.86 1.86 0 1 1-3.7 0 1.86 1.86 0 1 1 3.7 0Zm0 4.46c0 1.03-.83 1.87-1.85 1.87a1.86 1.86 0 0 1-1.86-1.87 1.86 1.86 0 1 1 3.71 0Zm0 4.47a1.86 1.86 0 1 1-3.7 0 1.86 1.86 0 1 1 3.7 0Zm0 4.47a1.86 1.86 0 1 1-3.7 0 1.86 1.86 0 1 1 3.7 0Zm0 4.47a1.86 1.86 0 1 1-3.7 0c0-1.03.82-1.87 1.85-1.87 1.02 0 1.85.84 1.85 1.87Zm0 4.46c0 1.03-.83 1.87-1.85 1.87a1.86 1.86 0 0 1-1.86-1.87 1.86 1.86 0 1 1 3.71 0Zm0-31.26a1.86 1.86 0 1 1-3.7 0 1.86 1.86 0 1 1 3.7 0Zm0-4.47c0 1.03-.83 1.87-1.85 1.87A1.86 1.86 0 0 1 71.47 51a1.86 1.86 0 1 1 3.71 0Zm0 49.14c0 1.02-.83 1.86-1.85 1.86a1.86 1.86 0 0 1-1.86-1.86 1.86 1.86 0 1 1 3.71 0Zm0 4.46c0 1.03-.83 1.87-1.85 1.87a1.86 1.86 0 0 1-1.86-1.87 1.86 1.86 0 1 1 3.71 0Zm0 4.47a1.86 1.86 0 1 1-3.7 0 1.86 1.86 0 1 1 3.7 0Zm0 4.46c0 1.03-.83 1.87-1.85 1.87a1.86 1.86 0 0 1-1.86-1.87 1.86 1.86 0 1 1 3.71 0Zm0-17.86c0 1.03-.83 1.86-1.85 1.86a1.86 1.86 0 0 1-1.86-1.86 1.86 1.86 0 1 1 3.71 0Zm4.47-71.47a1.86 1.86 0 1 1-3.71 0 1.86 1.86 0 1 1 3.71 0Zm0 4.47a1.86 1.86 0 1 1-3.71 0 1.86 1.86 0 1 1 3.71 0Zm0 8.93a1.86 1.86 0 1 1-3.71 0 1.86 1.86 0 1 1 3.71 0Zm0 4.47a1.86 1.86 0 1 1-3.71 0 1.86 1.86 0 1 1 3.71 0Zm0 4.46a1.86 1.86 0 1 1-3.71 0 1.86 1.86 0 1 1 3.71 0Zm0-35.73a1.86 1.86 0 1 1-3.71 0 1.86 1.86 0 1 1 3.71 0Zm0-4.47a1.86 1.86 0 1 1-3.71 0 1.86 1.86 0 1 1 3.71 0Zm0 53.61a1.86 1.86 0 1 1-3.71 0 1.86 1.86 0 1 1 3.71 0Zm0 4.46a1.86 1.86 0 1 1-3.71 0 1.86 1.86 0 1 1 3.71 0Zm0 4.46a1.86 1.86 0 1 1-3.71 0 1.86 1.86 0 1 1 3.71 0Zm0 4.47a1.86 1.86 0 1 1-3.71 0 1.86 1.86 0 1 1 3.71 0Zm0-17.86a1.86 1.86 0 1 1-3.71 0 1.86 1.86 0 1 1 3.71 0Zm0-4.47a1.86 1.86 0 1 1-3.71 0 1.86 1.86 0 1 1 3.71 0Zm0 49.14a1.86 1.86 0 1 1-3.71 0 1.86 1.86 0 1 1 3.71 0Zm0 4.46a1.86 1.86 0 1 1-3.71 0 1.86 1.86 0 1 1 3.71 0Zm0 4.47a1.86 1.86 0 1 1-3.71 0 1.86 1.86 0 1 1 3.71 0Zm0 4.46a1.86 1.86 0 1 1-3.71 0 1.86 1.86 0 1 1 3.71 0Zm0 4.47a1.86 1.86 0 1 1-3.71 0 1.86 1.86 0 1 1 3.71 0Zm0 4.47a1.86 1.86 0 1 1-3.71 0 1.86 1.86 0 1 1 3.71 0Zm4.47-93.8a1.86 1.86 0 1 1-3.71 0 1.86 1.86 0 1 1 3.71 0Zm0 4.46a1.86 1.86 0 1 1-3.72 0 1.86 1.86 0 1 1 3.71 0Zm0 4.47a1.86 1.86 0 1 1-3.72 0 1.86 1.86 0 1 1 3.71 0Zm0 4.47a1.86 1.86 0 1 1-3.72 0 1.86 1.86 0 1 1 3.71 0Zm0 4.46a1.86 1.86 0 1 1-3.72 0 1.86 1.86 0 1 1 3.71 0Zm0-35.73a1.86 1.86 0 1 1-3.71 0c0-1.03.83-1.87 1.85-1.87 1.03 0 1.86.84 1.86 1.87Zm0-4.47a1.86 1.86 0 1 1-3.72 0 1.86 1.86 0 1 1 3.71 0Zm0 53.61a1.86 1.86 0 1 1-3.71 0 1.86 1.86 0 1 1 3.71 0Zm0 4.46a1.86 1.86 0 1 1-3.72 0 1.86 1.86 0 1 1 3.71 0Zm0 4.46a1.86 1.86 0 1 1-3.71 0 1.85 1.85 0 1 1 3.71 0Zm0-13.39a1.86 1.86 0 1 1-3.72 0 1.86 1.86 0 1 1 3.71 0Zm0-4.47a1.86 1.86 0 1 1-3.71 0c0-1.03.83-1.87 1.85-1.87 1.03 0 1.86.84 1.86 1.87Zm0 49.14a1.86 1.86 0 1 1-3.71 0 1.86 1.86 0 1 1 3.71 0Zm0 4.46a1.86 1.86 0 1 1-3.71 0 1.85 1.85 0 1 1 3.71 0Zm0 4.47a1.86 1.86 0 1 1-3.72 0 1.86 1.86 0 1 1 3.71 0Zm0 4.46a1.86 1.86 0 1 1-3.71 0 1.85 1.85 0 1 1 3.71 0Zm0 4.47a1.86 1.86 0 1 1-3.72 0 1.86 1.86 0 1 1 3.71 0Zm0 4.47a1.86 1.86 0 1 1-3.71 0 1.86 1.86 0 1 1 3.71 0Zm0 4.46a1.86 1.86 0 1 1-3.72 0 1.86 1.86 0 1 1 3.71 0Zm0-35.73a1.86 1.86 0 1 1-3.72 0 1.86 1.86 0 1 1 3.71 0Zm0 49.14a1.86 1.86 0 1 1-3.71 0 1.86 1.86 0 1 1 3.71 0Zm0 4.46a1.86 1.86 0 1 1-3.72 0c0-1.04.84-1.87 1.86-1.87 1.03 0 1.86.84 1.86 1.87Zm0 4.46a1.86 1.86 0 1 1-3.72 0 1.86 1.86 0 1 1 3.71 0Zm0 4.47a1.86 1.86 0 1 1-3.72 0 1.86 1.86 0 1 1 3.71 0Zm0 4.47a1.86 1.86 0 1 1-3.72 0 1.86 1.86 0 1 1 3.71 0Zm0 4.47a1.86 1.86 0 1 1-3.72 0 1.86 1.86 0 1 1 3.71 0Zm0-26.8a1.86 1.86 0 1 1-3.72 0 1.86 1.86 0 1 1 3.71 0Zm0-4.47a1.86 1.86 0 1 1-3.72 0 1.86 1.86 0 1 1 3.71 0Zm4.47-111.67a1.86 1.86 0 1 1-3.71 0 1.85 1.85 0 1 1 3.71 0Zm0 13.4a1.86 1.86 0 1 1-3.71 0 1.85 1.85 0 1 1 3.71 0Zm0 4.47a1.86 1.86 0 1 1-3.71 0c0-1.03.83-1.87 1.85-1.87s1.86.84 1.86 1.87Zm0 4.47a1.86 1.86 0 1 1-3.71 0 1.86 1.86 0 1 1 3.71 0Zm0 4.46a1.86 1.86 0 1 1-3.71 0 1.85 1.85 0 1 1 3.71 0Zm0-31.26a1.86 1.86 0 1 1-3.71 0c0-1.03.83-1.87 1.85-1.87s1.86.84 1.86 1.87Zm0-4.47a1.86 1.86 0 1 1-3.71 0c0-1.03.83-1.87 1.85-1.87s1.86.84 1.86 1.87Zm0-4.47a1.86 1.86 0 1 1-3.71 0 1.85 1.85 0 1 1 3.71 0Zm0 53.61a1.86 1.86 0 1 1-3.71 0 1.86 1.86 0 1 1 3.71 0Zm0 4.46a1.86 1.86 0 1 1-3.71 0 1.85 1.85 0 1 1 3.71 0Zm0-8.93a1.86 1.86 0 1 1-3.71 0c0-1.03.83-1.87 1.85-1.87s1.86.84 1.86 1.87Zm0-4.47a1.86 1.86 0 1 1-3.71 0c0-1.03.83-1.87 1.85-1.87s1.86.84 1.86 1.87Zm0 49.14a1.86 1.86 0 1 1-3.71 0 1.86 1.86 0 1 1 3.71 0Zm0 4.46c0 1.03-.84 1.87-1.86 1.87a1.86 1.86 0 0 1-1.86-1.87 1.86 1.86 0 1 1 3.71 0Zm0 4.47a1.86 1.86 0 1 1-3.71 0c0-1.03.83-1.87 1.85-1.87s1.86.84 1.86 1.87Zm0 4.46c0 1.03-.84 1.87-1.86 1.87a1.86 1.86 0 0 1-1.86-1.87 1.86 1.86 0 0 1 3.72 0Zm0 4.47c0 1.03-.84 1.87-1.86 1.87a1.86 1.86 0 0 1-1.86-1.87c0-1.03.84-1.87 1.86-1.87s1.86.84 1.86 1.87Zm0 4.47a1.86 1.86 0 1 1-3.71 0 1.86 1.86 0 1 1 3.71 0Zm0 4.46a1.86 1.86 0 1 1-3.71 0 1.85 1.85 0 1 1 3.71 0Zm0 13.41a1.86 1.86 0 1 1-3.71 0 1.86 1.86 0 1 1 3.71 0Zm0 4.46a1.86 1.86 0 1 1-3.71 0c0-1.03.83-1.87 1.85-1.87s1.86.84 1.86 1.87Zm0 4.46a1.86 1.86 0 1 1-3.71 0 1.85 1.85 0 1 1 3.71 0Zm0 4.47c0 1.03-.84 1.87-1.86 1.87a1.86 1.86 0 0 1-1.86-1.87 1.86 1.86 0 0 1 3.72 0Zm0 4.47a1.86 1.86 0 1 1-3.71 0c0-1.03.83-1.87 1.85-1.87s1.86.84 1.86 1.87Zm0 4.47a1.86 1.86 0 1 1-3.71 0 1.86 1.86 0 1 1 3.71 0Zm0 4.46a1.86 1.86 0 1 1-3.71 0 1.85 1.85 0 1 1 3.71 0Zm0-31.26a1.86 1.86 0 1 1-3.71 0c0-1.03.83-1.87 1.85-1.87s1.86.84 1.86 1.87Zm0-4.47a1.86 1.86 0 1 1-3.71 0c0-1.03.83-1.87 1.85-1.87s1.86.84 1.86 1.87Zm4.46-111.67c0 1.03-.83 1.87-1.85 1.87a1.86 1.86 0 0 1-1.86-1.87 1.86 1.86 0 1 1 3.71 0Zm0-4.46c0 1.03-.83 1.86-1.85 1.86a1.86 1.86 0 0 1-1.86-1.86 1.86 1.86 0 1 1 3.71 0Zm0-4.47c0 1.03-.83 1.87-1.85 1.87a1.86 1.86 0 0 1-1.86-1.87 1.86 1.86 0 1 1 3.71 0Zm0 49.14c0 1.02-.83 1.86-1.85 1.86a1.86 1.86 0 0 1-1.86-1.86 1.86 1.86 0 1 1 3.71 0Zm0 4.46c0 1.03-.83 1.87-1.85 1.87a1.86 1.86 0 0 1-1.86-1.87 1.86 1.86 0 1 1 3.71 0Zm0-8.93c0 1.03-.83 1.86-1.85 1.86a1.86 1.86 0 0 1-1.86-1.86 1.86 1.86 0 1 1 3.71 0Zm0-4.47c0 1.03-.83 1.87-1.85 1.87A1.86 1.86 0 0 1 89.34 51a1.86 1.86 0 1 1 3.71 0Zm0 49.14c0 1.02-.83 1.86-1.85 1.86a1.86 1.86 0 0 1-1.86-1.86 1.86 1.86 0 1 1 3.71 0Zm0 4.46c0 1.03-.83 1.87-1.85 1.87a1.86 1.86 0 0 1-1.86-1.87 1.86 1.86 0 1 1 3.71 0Zm0 4.47c0 1.03-.83 1.87-1.85 1.87a1.86 1.86 0 0 1-1.86-1.87 1.86 1.86 0 1 1 3.71 0Zm0 4.46c0 1.03-.83 1.87-1.85 1.87a1.86 1.86 0 0 1-1.86-1.87 1.86 1.86 0 1 1 3.71 0Zm0 4.47c0 1.03-.83 1.87-1.85 1.87a1.86 1.86 0 0 1-1.86-1.87c0-1.03.83-1.87 1.86-1.87 1.02 0 1.85.84 1.85 1.87Zm0 4.47c0 1.03-.83 1.86-1.85 1.86a1.86 1.86 0 0 1-1.86-1.86 1.86 1.86 0 1 1 3.71 0Zm0 4.46c0 1.04-.83 1.87-1.85 1.87a1.86 1.86 0 0 1-1.86-1.87 1.86 1.86 0 1 1 3.71 0Zm0 13.41c0 1.02-.83 1.86-1.85 1.86a1.86 1.86 0 0 1-1.86-1.86 1.86 1.86 0 1 1 3.71 0Zm0 4.46c0 1.03-.83 1.86-1.85 1.86a1.86 1.86 0 0 1-1.86-1.86 1.86 1.86 0 1 1 3.71 0Zm0 17.87c0 1.03-.83 1.86-1.85 1.86a1.86 1.86 0 0 1-1.86-1.86 1.86 1.86 0 1 1 3.71 0Zm0-26.8c0 1.03-.83 1.86-1.85 1.86a1.86 1.86 0 0 1-1.86-1.86 1.86 1.86 0 1 1 3.71 0Zm0-4.47c0 1.03-.83 1.87-1.85 1.87a1.86 1.86 0 0 1-1.86-1.87 1.86 1.86 0 1 1 3.71 0Zm4.47-111.67a1.86 1.86 0 1 1-3.71 0 1.85 1.85 0 1 1 3.71 0Zm0 4.47a1.86 1.86 0 1 1-3.71 0c0-1.03.83-1.87 1.85-1.87 1.03 0 1.86.84 1.86 1.87Zm0 4.47a1.86 1.86 0 1 1-3.71 0 1.86 1.86 0 1 1 3.71 0Zm0-13.4a1.86 1.86 0 1 1-3.71 0c0-1.03.83-1.87 1.85-1.87 1.03 0 1.86.84 1.86 1.87Zm0-4.47a1.86 1.86 0 1 1-3.71 0c0-1.03.83-1.87 1.85-1.87 1.03 0 1.86.84 1.86 1.87Zm0-4.47a1.86 1.86 0 1 1-3.71 0 1.85 1.85 0 1 1 3.71 0Zm0 53.61a1.86 1.86 0 1 1-3.71 0 1.86 1.86 0 1 1 3.71 0Zm0-4.47a1.86 1.86 0 1 1-3.71 0c0-1.03.83-1.87 1.85-1.87 1.03 0 1.86.84 1.86 1.87Zm0 44.67a1.86 1.86 0 1 1-3.71 0 1.86 1.86 0 1 1 3.71 0Zm0 4.46a1.86 1.86 0 1 1-3.71 0 1.85 1.85 0 1 1 3.71 0Zm0 4.47a1.86 1.86 0 1 1-3.71 0 1.86 1.86 0 1 1 3.71 0Zm0 4.46a1.86 1.86 0 1 1-3.71 0 1.85 1.85 0 1 1 3.71 0Zm0 4.47a1.86 1.86 0 1 1-3.71 0c0-1.03.83-1.87 1.85-1.87 1.03 0 1.86.84 1.86 1.87Zm0 4.47a1.86 1.86 0 1 1-3.71 0 1.86 1.86 0 1 1 3.71 0Zm0 4.46a1.86 1.86 0 1 1-3.71 0 1.85 1.85 0 1 1 3.71 0Zm0 13.41a1.86 1.86 0 1 1-3.71 0 1.86 1.86 0 1 1 3.71 0Zm0-4.47a1.86 1.86 0 1 1-3.71 0c0-1.03.83-1.87 1.85-1.87 1.03 0 1.86.84 1.86 1.87Zm0-4.47a1.86 1.86 0 1 1-3.71 0c0-1.03.83-1.87 1.85-1.87 1.03 0 1.86.84 1.86 1.87Zm4.47-111.67a1.86 1.86 0 1 1-3.71 0 1.86 1.86 0 1 1 3.7 0Zm0 4.47a1.86 1.86 0 1 1-3.71 0 1.86 1.86 0 1 1 3.7 0Zm0 4.47a1.86 1.86 0 1 1-3.71 0 1.86 1.86 0 1 1 3.7 0Zm0 4.46a1.86 1.86 0 1 1-3.71 0 1.86 1.86 0 1 1 3.7 0Zm0 4.47a1.86 1.86 0 1 1-3.71 0 1.86 1.86 0 1 1 3.7 0Zm0 4.47a1.86 1.86 0 1 1-3.71 0 1.86 1.86 0 1 1 3.7 0Zm0-26.8a1.86 1.86 0 1 1-3.71 0 1.86 1.86 0 1 1 3.7 0Zm0-4.47a1.86 1.86 0 1 1-3.71 0 1.86 1.86 0 1 1 3.7 0Zm0-4.47a1.86 1.86 0 1 1-3.71 0 1.86 1.86 0 1 1 3.7 0Zm0 98.27a1.86 1.86 0 1 1-3.71 0 1.86 1.86 0 1 1 3.7 0Zm0 4.47a1.86 1.86 0 1 1-3.71 0 1.86 1.86 0 1 1 3.7 0Zm0 4.46a1.86 1.86 0 1 1-3.71 0 1.86 1.86 0 1 1 3.7 0Zm0 4.47a1.86 1.86 0 1 1-3.71 0 1.86 1.86 0 1 1 3.7 0Zm0 4.47a1.86 1.86 0 1 1-3.71 0 1.86 1.86 0 1 1 3.7 0Zm0 4.46a1.86 1.86 0 1 1-3.71 0 1.86 1.86 0 1 1 3.7 0Zm0 8.94a1.86 1.86 0 1 1-3.71 0 1.86 1.86 0 1 1 3.7 0Zm0-4.47a1.86 1.86 0 1 1-3.71 0 1.86 1.86 0 1 1 3.7 0Zm4.46-111.67c0 1.03-.83 1.87-1.85 1.87a1.86 1.86 0 0 1-1.86-1.87 1.86 1.86 0 1 1 3.71 0Zm0 4.47c0 1.03-.83 1.86-1.85 1.86a1.86 1.86 0 0 1-1.86-1.86c0-1.03.83-1.87 1.86-1.87 1.02 0 1.85.84 1.85 1.87Zm0 4.47c0 1.03-.83 1.87-1.85 1.87a1.86 1.86 0 0 1-1.86-1.87 1.86 1.86 0 1 1 3.71 0Zm0 4.46c0 1.03-.83 1.87-1.85 1.87a1.86 1.86 0 0 1-1.86-1.87 1.86 1.86 0 1 1 3.71 0Zm0 4.47c0 1.03-.83 1.87-1.85 1.87a1.86 1.86 0 0 1-1.86-1.87c0-1.03.83-1.87 1.86-1.87 1.02 0 1.85.84 1.85 1.87Zm0 4.47c0 1.03-.83 1.86-1.85 1.86a1.86 1.86 0 0 1-1.86-1.86 1.86 1.86 0 1 1 3.71 0Zm0 4.46c0 1.04-.83 1.87-1.85 1.87a1.86 1.86 0 0 1-1.86-1.87 1.86 1.86 0 1 1 3.71 0Zm0-31.26c0 1.03-.83 1.86-1.85 1.86a1.86 1.86 0 0 1-1.86-1.86 1.86 1.86 0 1 1 3.71 0Zm0-4.47c0 1.03-.83 1.87-1.85 1.87a1.86 1.86 0 0 1-1.86-1.87 1.86 1.86 0 1 1 3.71 0Zm0-4.47c0 1.04-.83 1.87-1.85 1.87a1.86 1.86 0 0 1-1.86-1.87 1.86 1.86 0 1 1 3.71 0Zm0 102.74c0 1.03-.83 1.87-1.85 1.87a1.86 1.86 0 0 1-1.86-1.87 1.86 1.86 0 1 1 3.71 0Zm0 4.46c0 1.03-.83 1.87-1.85 1.87a1.86 1.86 0 0 1-1.86-1.87 1.86 1.86 0 1 1 3.71 0Zm0 4.47c0 1.03-.83 1.87-1.85 1.87a1.86 1.86 0 0 1-1.86-1.87c0-1.03.83-1.87 1.86-1.87 1.02 0 1.85.84 1.85 1.87Zm0 4.47c0 1.03-.83 1.86-1.85 1.86a1.86 1.86 0 0 1-1.86-1.86 1.86 1.86 0 1 1 3.71 0Zm0 4.46c0 1.04-.83 1.87-1.85 1.87a1.86 1.86 0 0 1-1.86-1.87 1.86 1.86 0 1 1 3.71 0Zm0 4.47c0 1.03-.83 1.87-1.85 1.87a1.86 1.86 0 0 1-1.86-1.87 1.86 1.86 0 1 1 3.71 0Zm4.47-111.67a1.86 1.86 0 1 1-3.71 0 1.86 1.86 0 1 1 3.7 0Zm0 4.47a1.86 1.86 0 1 1-3.71 0 1.86 1.86 0 1 1 3.7 0Zm0 4.47a1.86 1.86 0 1 1-3.71 0 1.86 1.86 0 1 1 3.7 0Zm0 4.46a1.86 1.86 0 1 1-3.71 0 1.86 1.86 0 1 1 3.7 0Zm0 4.47a1.86 1.86 0 1 1-3.71 0 1.86 1.86 0 1 1 3.7 0Zm0-22.33a1.86 1.86 0 1 1-3.71 0 1.86 1.86 0 1 1 3.7 0Zm0-4.47a1.86 1.86 0 1 1-3.71 0 1.86 1.86 0 1 1 3.7 0Zm0-4.47a1.86 1.86 0 1 1-3.71 0 1.86 1.86 0 1 1 3.7 0Zm0-4.46a1.86 1.86 0 1 1-3.71 0 1.86 1.86 0 1 1 3.7 0Zm0 111.66c0 1.03-.84 1.87-1.86 1.87a1.86 1.86 0 0 1-1.85-1.87 1.86 1.86 0 1 1 3.7 0Zm0 4.47c0 1.03-.84 1.87-1.86 1.87a1.86 1.86 0 0 1-1.85-1.87 1.86 1.86 0 1 1 3.7 0Zm0 4.47a1.86 1.86 0 1 1-3.71 0 1.86 1.86 0 1 1 3.7 0Zm0 4.46a1.86 1.86 0 1 1-3.71 0 1.86 1.86 0 1 1 3.7 0Zm0 4.47a1.86 1.86 0 1 1-3.71 0 1.86 1.86 0 1 1 3.7 0Zm4.46-111.67c0 1.03-.83 1.87-1.85 1.87a1.86 1.86 0 0 1-1.86-1.87 1.86 1.86 0 1 1 3.71 0Zm0 4.47c0 1.03-.83 1.86-1.85 1.86a1.86 1.86 0 0 1-1.86-1.86 1.86 1.86 0 1 1 3.71 0Zm0 4.47c0 1.03-.83 1.87-1.85 1.87a1.86 1.86 0 0 1-1.86-1.87 1.86 1.86 0 1 1 3.71 0Zm0 4.46c0 1.03-.83 1.87-1.85 1.87a1.86 1.86 0 0 1-1.86-1.87 1.86 1.86 0 1 1 3.71 0Zm0-17.86c0 1.03-.83 1.86-1.85 1.86a1.86 1.86 0 0 1-1.86-1.86 1.86 1.86 0 1 1 3.71 0Zm0-4.47c0 1.03-.83 1.87-1.85 1.87a1.86 1.86 0 0 1-1.86-1.87 1.86 1.86 0 1 1 3.71 0Zm0-4.47c0 1.04-.83 1.87-1.85 1.87a1.86 1.86 0 0 1-1.86-1.87 1.86 1.86 0 1 1 3.71 0Zm0-4.46c0 1.03-.83 1.86-1.85 1.86a1.86 1.86 0 0 1-1.86-1.86 1.86 1.86 0 1 1 3.71 0Zm0 111.66c0 1.03-.83 1.87-1.85 1.87a1.86 1.86 0 0 1-1.86-1.87 1.86 1.86 0 1 1 3.71 0Zm0 4.47c0 1.03-.83 1.87-1.85 1.87a1.86 1.86 0 0 1-1.86-1.87 1.86 1.86 0 1 1 3.71 0Zm0 4.47c0 1.03-.83 1.86-1.85 1.86a1.86 1.86 0 0 1-1.86-1.86 1.86 1.86 0 1 1 3.71 0Zm4.47-102.74c0 1.03-.83 1.87-1.85 1.87a1.86 1.86 0 0 1-1.86-1.87 1.86 1.86 0 1 1 3.71 0Zm0 4.47c0 1.03-.83 1.86-1.85 1.86a1.86 1.86 0 0 1-1.86-1.86 1.86 1.86 0 1 1 3.71 0Zm0 4.47c0 1.03-.83 1.87-1.85 1.87a1.86 1.86 0 0 1-1.86-1.87 1.86 1.86 0 1 1 3.71 0Zm0 4.46c0 1.03-.83 1.87-1.85 1.87a1.86 1.86 0 0 1-1.86-1.87 1.86 1.86 0 1 1 3.71 0Zm0-17.86c0 1.03-.83 1.86-1.85 1.86a1.86 1.86 0 0 1-1.86-1.86 1.86 1.86 0 1 1 3.71 0Zm0-4.47c0 1.03-.83 1.87-1.85 1.87a1.86 1.86 0 0 1-1.86-1.87 1.86 1.86 0 1 1 3.71 0Zm0-4.47c0 1.04-.83 1.87-1.85 1.87a1.86 1.86 0 0 1-1.86-1.87 1.86 1.86 0 1 1 3.71 0Zm0-4.46c0 1.03-.83 1.86-1.85 1.86a1.86 1.86 0 0 1-1.86-1.86 1.86 1.86 0 1 1 3.71 0Zm4.47 17.86a1.86 1.86 0 1 1-3.71 0 1.86 1.86 0 1 1 3.71 0Zm0 4.47a1.86 1.86 0 1 1-3.71 0 1.86 1.86 0 1 1 3.71 0Zm0 4.47a1.86 1.86 0 1 1-3.71 0 1.86 1.86 0 1 1 3.71 0Zm0 8.93a1.86 1.86 0 1 1-3.71 0 1.86 1.86 0 1 1 3.71 0Zm0-22.33a1.86 1.86 0 1 1-3.71 0 1.86 1.86 0 1 1 3.71 0Zm0-4.47a1.86 1.86 0 1 1-3.71 0 1.86 1.86 0 1 1 3.71 0Zm0-4.47a1.86 1.86 0 1 1-3.71 0 1.86 1.86 0 1 1 3.71 0Zm0-4.46a1.86 1.86 0 1 1-3.71 0 1.86 1.86 0 1 1 3.71 0ZM3.71 28.67c0 1.03-.83 1.87-1.85 1.87A1.86 1.86 0 0 1 0 28.67a1.86 1.86 0 1 1 3.71 0Zm0 13.4c0 1.03-.83 1.86-1.85 1.86A1.86 1.86 0 0 1 0 42.07a1.86 1.86 0 1 1 3.71 0Zm0 13.4c0 1.03-.83 1.86-1.85 1.86A1.86 1.86 0 0 1 0 55.47a1.86 1.86 0 1 1 3.71 0Zm4.47-26.8c0 1.03-.83 1.87-1.85 1.87a1.86 1.86 0 0 1-1.86-1.87 1.86 1.86 0 1 1 3.71 0Zm0 4.46c0 1.03-.83 1.87-1.85 1.87a1.86 1.86 0 0 1-1.86-1.87 1.86 1.86 0 1 1 3.71 0Zm0 4.47c0 1.03-.83 1.87-1.85 1.87a1.86 1.86 0 0 1-1.86-1.87 1.86 1.86 0 1 1 3.71 0Zm0 4.47c0 1.03-.83 1.86-1.85 1.86a1.86 1.86 0 0 1-1.86-1.86 1.86 1.86 0 1 1 3.71 0Zm0 4.46c0 1.04-.83 1.87-1.85 1.87a1.86 1.86 0 0 1-1.86-1.87 1.86 1.86 0 1 1 3.71 0Zm0 4.47c0 1.03-.83 1.87-1.85 1.87A1.86 1.86 0 0 1 4.47 51a1.86 1.86 0 1 1 3.71 0Zm4.47-22.33a1.86 1.86 0 1 1-3.71 0 1.86 1.86 0 1 1 3.7 0Zm0 4.46a1.86 1.86 0 1 1-3.71 0 1.86 1.86 0 1 1 3.7 0Zm0 4.47a1.86 1.86 0 1 1-3.71 0 1.86 1.86 0 1 1 3.7 0Zm0 4.47a1.86 1.86 0 1 1-3.71 0 1.86 1.86 0 1 1 3.7 0Zm0 4.46a1.86 1.86 0 1 1-3.71 0 1.86 1.86 0 1 1 3.7 0Zm0 40.2a1.86 1.86 0 1 1-3.71 0 1.86 1.86 0 1 1 3.7 0Zm4.46-58.06c0 1.03-.83 1.87-1.85 1.87a1.86 1.86 0 0 1-1.86-1.87 1.86 1.86 0 1 1 3.71 0Zm0 4.46a1.86 1.86 0 1 1-3.7 0 1.86 1.86 0 1 1 3.7 0Zm0 4.47a1.86 1.86 0 1 1-3.7 0 1.86 1.86 0 1 1 3.7 0Zm0 4.47a1.86 1.86 0 1 1-3.7 0 1.86 1.86 0 1 1 3.7 0Zm0 4.46a1.86 1.86 0 1 1-3.7 0 1.86 1.86 0 1 1 3.7 0Zm4.47-17.86a1.86 1.86 0 1 1-3.71 0 1.86 1.86 0 1 1 3.71 0Zm0 4.46a1.86 1.86 0 1 1-3.71 0 1.85 1.85 0 1 1 3.71 0Zm0 4.47a1.86 1.86 0 1 1-3.71 0c0-1.03.83-1.87 1.85-1.87 1.03 0 1.86.84 1.86 1.87Zm0 4.47a1.86 1.86 0 1 1-3.71 0 1.86 1.86 0 1 1 3.71 0Zm0 4.46a1.86 1.86 0 1 1-3.71 0 1.85 1.85 0 1 1 3.71 0Zm4.47-17.86a1.86 1.86 0 1 1-3.71 0 1.86 1.86 0 1 1 3.7 0Zm0 4.46a1.86 1.86 0 1 1-3.71 0 1.86 1.86 0 1 1 3.7 0Zm0 4.47a1.86 1.86 0 1 1-3.71 0 1.86 1.86 0 1 1 3.7 0Zm0 4.47a1.86 1.86 0 1 1-3.71 0 1.86 1.86 0 1 1 3.7 0Zm4.46-13.4c0 1.03-.83 1.87-1.85 1.87a1.86 1.86 0 0 1-1.86-1.87 1.86 1.86 0 1 1 3.71 0Zm0 4.46c0 1.03-.83 1.87-1.85 1.87a1.86 1.86 0 0 1-1.86-1.87 1.85 1.85 0 1 1 3.71 0Zm0 4.47c0 1.03-.83 1.87-1.85 1.87a1.86 1.86 0 0 1-1.86-1.87c0-1.03.84-1.87 1.86-1.87s1.85.84 1.85 1.87Zm0 4.47c0 1.03-.83 1.86-1.85 1.86a1.86 1.86 0 0 1-1.86-1.86 1.86 1.86 0 1 1 3.71 0Zm0 4.46c0 1.04-.83 1.87-1.85 1.87a1.86 1.86 0 0 1-1.86-1.87 1.86 1.86 0 1 1 3.71 0Zm0 4.47c0 1.03-.83 1.87-1.85 1.87A1.86 1.86 0 0 1 26.8 51a1.86 1.86 0 1 1 3.71 0Zm4.47-22.33a1.86 1.86 0 1 1-3.71 0 1.86 1.86 0 1 1 3.71 0Zm0 4.46a1.86 1.86 0 1 1-3.71 0 1.85 1.85 0 1 1 3.71 0Zm0 4.47a1.86 1.86 0 1 1-3.71 0c0-1.03.83-1.87 1.85-1.87 1.03 0 1.86.84 1.86 1.87Zm0 4.47a1.86 1.86 0 1 1-3.71 0 1.86 1.86 0 1 1 3.71 0Zm0 4.46a1.86 1.86 0 1 1-3.71 0 1.85 1.85 0 1 1 3.71 0Zm0 8.94a1.86 1.86 0 1 1-3.71 0c0-1.03.83-1.87 1.85-1.87 1.03 0 1.86.84 1.86 1.87Zm0-4.47a1.86 1.86 0 1 1-3.71 0c0-1.03.83-1.87 1.85-1.87 1.03 0 1.86.84 1.86 1.87Zm4.47-26.8a1.86 1.86 0 1 1-3.72 0c0-1.03.84-1.87 1.86-1.87 1.03 0 1.86.84 1.86 1.87Zm0 4.47a1.86 1.86 0 1 1-3.71 0 1.86 1.86 0 1 1 3.71 0Zm0 4.46a1.86 1.86 0 1 1-3.72 0 1.86 1.86 0 1 1 3.71 0Zm0 4.47a1.86 1.86 0 1 1-3.72 0 1.86 1.86 0 1 1 3.71 0Zm0 4.47a1.86 1.86 0 1 1-3.72 0 1.86 1.86 0 1 1 3.71 0Zm0 4.46a1.86 1.86 0 1 1-3.72 0 1.86 1.86 0 1 1 3.71 0Zm0 13.41a1.86 1.86 0 1 1-3.71 0 1.86 1.86 0 1 1 3.71 0Zm0 4.46a1.86 1.86 0 1 1-3.72 0 1.86 1.86 0 1 1 3.71 0Zm0 4.46a1.86 1.86 0 1 1-3.71 0 1.85 1.85 0 1 1 3.71 0Zm0-13.39a1.86 1.86 0 1 1-3.72 0 1.86 1.86 0 1 1 3.71 0Zm0-4.47a1.86 1.86 0 1 1-3.71 0c0-1.03.83-1.87 1.85-1.87 1.03 0 1.86.84 1.86 1.87Zm4.47-31.27a1.86 1.86 0 1 1-3.71 0 1.85 1.85 0 1 1 3.71 0Zm0 4.47a1.86 1.86 0 1 1-3.71 0c0-1.03.83-1.87 1.85-1.87s1.86.84 1.86 1.87Zm0 4.47a1.86 1.86 0 1 1-3.71 0c0-1.03.83-1.87 1.85-1.87s1.86.84 1.86 1.87Zm0 4.46a1.86 1.86 0 1 1-3.71 0 1.85 1.85 0 1 1 3.71 0Zm0 4.47a1.86 1.86 0 1 1-3.71 0c0-1.03.83-1.87 1.85-1.87s1.86.84 1.86 1.87Zm0 4.47a1.86 1.86 0 1 1-3.71 0 1.86 1.86 0 1 1 3.71 0Zm0 4.46a1.86 1.86 0 1 1-3.71 0 1.85 1.85 0 1 1 3.71 0Zm0 13.41a1.86 1.86 0 1 1-3.71 0 1.86 1.86 0 1 1 3.71 0Zm0 4.46a1.86 1.86 0 1 1-3.71 0 1.85 1.85 0 1 1 3.71 0Zm0 4.46a1.86 1.86 0 1 1-3.71 0 1.85 1.85 0 1 1 3.71 0Zm0 4.47a1.86 1.86 0 1 1-3.71 0 1.85 1.85 0 1 1 3.71 0Zm0-17.86a1.86 1.86 0 1 1-3.71 0c0-1.03.83-1.87 1.85-1.87s1.86.84 1.86 1.87Zm0-4.47a1.86 1.86 0 1 1-3.71 0c0-1.03.83-1.87 1.85-1.87s1.86.84 1.86 1.87Zm4.46-31.27c0 1.03-.83 1.87-1.85 1.87a1.86 1.86 0 0 1-1.86-1.87 1.86 1.86 0 1 1 3.71 0Zm0 4.47c0 1.03-.83 1.86-1.85 1.86a1.86 1.86 0 0 1-1.86-1.86 1.86 1.86 0 1 1 3.71 0Zm0 4.47c0 1.03-.83 1.87-1.85 1.87a1.86 1.86 0 0 1-1.86-1.87 1.86 1.86 0 1 1 3.71 0Zm0 4.46c0 1.03-.83 1.87-1.85 1.87a1.86 1.86 0 0 1-1.86-1.87 1.86 1.86 0 1 1 3.71 0Zm0 4.47c0 1.03-.83 1.87-1.85 1.87a1.86 1.86 0 0 1-1.86-1.87 1.86 1.86 0 1 1 3.71 0Zm0 4.47c0 1.03-.83 1.86-1.85 1.86a1.86 1.86 0 0 1-1.86-1.86 1.86 1.86 0 1 1 3.71 0Zm0 4.46c0 1.04-.83 1.87-1.85 1.87a1.86 1.86 0 0 1-1.86-1.87 1.86 1.86 0 1 1 3.71 0Zm0-31.26c0 1.03-.83 1.86-1.85 1.86a1.86 1.86 0 0 1-1.86-1.86 1.86 1.86 0 1 1 3.71 0Zm0 44.67c0 1.02-.83 1.86-1.85 1.86a1.86 1.86 0 0 1-1.86-1.86 1.86 1.86 0 1 1 3.71 0Zm0 4.46c0 1.03-.83 1.87-1.85 1.87a1.86 1.86 0 0 1-1.86-1.87 1.86 1.86 0 1 1 3.71 0Zm0 4.46c0 1.03-.83 1.87-1.85 1.87a1.86 1.86 0 0 1-1.86-1.87 1.86 1.86 0 1 1 3.71 0Zm0 4.47c0 1.03-.83 1.87-1.85 1.87a1.86 1.86 0 0 1-1.86-1.87 1.86 1.86 0 1 1 3.71 0Zm0 4.47c0 1.03-.83 1.87-1.85 1.87a1.86 1.86 0 0 1-1.86-1.87 1.86 1.86 0 1 1 3.71 0Zm0 4.47c0 1.03-.83 1.86-1.85 1.86a1.86 1.86 0 0 1-1.86-1.86c0-1.03.83-1.87 1.86-1.87 1.02 0 1.85.84 1.85 1.87Zm0-26.8c0 1.03-.83 1.86-1.85 1.86a1.86 1.86 0 0 1-1.86-1.86 1.86 1.86 0 1 1 3.71 0Zm0-4.47c0 1.03-.83 1.87-1.85 1.87A1.86 1.86 0 0 1 44.67 51a1.86 1.86 0 1 1 3.71 0Zm4.47-26.8a1.86 1.86 0 1 1-3.71 0 1.86 1.86 0 1 1 3.7 0Zm0 4.47a1.86 1.86 0 1 1-3.71 0 1.86 1.86 0 1 1 3.7 0Zm0 4.46a1.86 1.86 0 1 1-3.71 0 1.86 1.86 0 1 1 3.7 0Zm0 4.47a1.86 1.86 0 1 1-3.71 0 1.86 1.86 0 1 1 3.7 0Zm0 4.47a1.86 1.86 0 1 1-3.71 0 1.86 1.86 0 1 1 3.7 0Zm0 4.46a1.86 1.86 0 1 1-3.71 0 1.86 1.86 0 1 1 3.7 0Zm0-31.26a1.86 1.86 0 1 1-3.71 0 1.86 1.86 0 1 1 3.7 0Zm0 44.67a1.86 1.86 0 1 1-3.71 0 1.86 1.86 0 1 1 3.7 0Zm0 4.46a1.86 1.86 0 1 1-3.71 0 1.86 1.86 0 1 1 3.7 0Zm0 4.46a1.86 1.86 0 1 1-3.71 0 1.86 1.86 0 1 1 3.7 0Zm0 4.47a1.86 1.86 0 1 1-3.71 0 1.86 1.86 0 1 1 3.7 0Zm0 4.47a1.86 1.86 0 1 1-3.71 0 1.86 1.86 0 1 1 3.7 0Zm0 4.47a1.86 1.86 0 1 1-3.71 0 1.86 1.86 0 1 1 3.71 0Zm0-26.8a1.86 1.86 0 1 1-3.71 0 1.86 1.86 0 1 1 3.7 0Zm0-4.47a1.86 1.86 0 1 1-3.71 0 1.86 1.86 0 1 1 3.7 0Zm4.47-22.33a1.86 1.86 0 1 1-3.71 0 1.86 1.86 0 1 1 3.7 0Zm0 4.46a1.86 1.86 0 1 1-3.71 0 1.86 1.86 0 1 1 3.7 0Zm0 4.47a1.86 1.86 0 1 1-3.71 0 1.86 1.86 0 1 1 3.7 0Zm0 4.47a1.86 1.86 0 1 1-3.71 0 1.86 1.86 0 1 1 3.7 0Zm0 4.46a1.86 1.86 0 1 1-3.71 0 1.86 1.86 0 1 1 3.7 0Zm0-31.26a1.86 1.86 0 1 1-3.71 0 1.86 1.86 0 1 1 3.7 0Zm0 44.67a1.86 1.86 0 1 1-3.71 0 1.86 1.86 0 1 1 3.7 0Zm0 4.46a1.86 1.86 0 1 1-3.71 0 1.86 1.86 0 1 1 3.7 0Zm0 4.46a1.86 1.86 0 1 1-3.71 0 1.86 1.86 0 1 1 3.7 0Zm0 4.47a1.86 1.86 0 1 1-3.71 0 1.86 1.86 0 1 1 3.7 0Zm0 4.47a1.86 1.86 0 1 1-3.71 0 1.86 1.86 0 1 1 3.7 0Zm0 4.47a1.86 1.86 0 1 1-3.71 0 1.86 1.86 0 1 1 3.71 0Zm0 4.46a1.86 1.86 0 1 1-3.71 0 1.86 1.86 0 1 1 3.7 0Zm0-31.26a1.86 1.86 0 1 1-3.71 0 1.86 1.86 0 1 1 3.7 0Zm0-4.47a1.86 1.86 0 1 1-3.71 0 1.86 1.86 0 1 1 3.7 0Zm0 40.2a1.86 1.86 0 1 1-3.71 0 1.86 1.86 0 1 1 3.7 0Zm4.46-71.47c0 1.03-.83 1.87-1.85 1.87a1.86 1.86 0 0 1-1.86-1.87 1.86 1.86 0 1 1 3.71 0Zm0 4.47a1.86 1.86 0 1 1-3.7 0 1.86 1.86 0 1 1 3.7 0Zm0 4.47c0 1.03-.83 1.87-1.85 1.87a1.86 1.86 0 0 1-1.86-1.87 1.86 1.86 0 1 1 3.71 0Zm0 4.46a1.86 1.86 0 1 1-3.7 0 1.86 1.86 0 1 1 3.7 0Zm0 4.47a1.86 1.86 0 1 1-3.7 0 1.86 1.86 0 1 1 3.7 0Zm0 4.47a1.86 1.86 0 1 1-3.7 0 1.86 1.86 0 1 1 3.7 0Zm0 4.46a1.86 1.86 0 1 1-3.7 0 1.86 1.86 0 1 1 3.7 0Zm0 13.41c0 1.02-.83 1.86-1.85 1.86a1.86 1.86 0 0 1-1.86-1.86 1.86 1.86 0 1 1 3.71 0Zm0 4.46a1.86 1.86 0 1 1-3.7 0 1.86 1.86 0 1 1 3.7 0Zm0 4.46c0 1.03-.83 1.87-1.85 1.87a1.86 1.86 0 0 1-1.86-1.87 1.86 1.86 0 1 1 3.71 0Zm0 4.47a1.86 1.86 0 1 1-3.7 0 1.86 1.86 0 1 1 3.7 0Zm0 4.47a1.86 1.86 0 1 1-3.7 0 1.86 1.86 0 1 1 3.7 0Zm0 4.47a1.86 1.86 0 1 1-3.7 0c0-1.03.82-1.87 1.85-1.87 1.02 0 1.85.84 1.85 1.87Zm0 4.46c0 1.03-.83 1.87-1.85 1.87a1.86 1.86 0 0 1-1.86-1.87 1.86 1.86 0 1 1 3.71 0Zm0-31.26a1.86 1.86 0 1 1-3.7 0 1.86 1.86 0 1 1 3.7 0Zm0-4.47c0 1.03-.83 1.87-1.85 1.87A1.86 1.86 0 0 1 58.07 51a1.86 1.86 0 1 1 3.71 0Zm0 40.2a1.86 1.86 0 1 1-3.7 0 1.86 1.86 0 1 1 3.7 0Zm67-71.47c0 1.03-.82 1.87-1.85 1.87a1.86 1.86 0 0 1-1.86-1.87 1.86 1.86 0 1 1 3.72 0Zm0 4.47a1.86 1.86 0 1 1-3.7 0 1.86 1.86 0 1 1 3.7 0Zm0 13.4a1.86 1.86 0 1 1-3.7 0 1.86 1.86 0 1 1 3.7 0Zm0-22.33a1.86 1.86 0 1 1-3.7 0 1.86 1.86 0 1 1 3.7 0Zm0-4.47c0 1.03-.82 1.87-1.85 1.87a1.86 1.86 0 0 1-1.86-1.87 1.86 1.86 0 1 1 3.72 0Zm0-4.47a1.86 1.86 0 1 1-3.7 0 1.86 1.86 0 1 1 3.7 0Zm0 80.4c0 1.03-.82 1.87-1.85 1.87a1.86 1.86 0 0 1-1.86-1.87 1.86 1.86 0 1 1 3.72 0Zm0 8.94c0 1.03-.82 1.86-1.85 1.86a1.86 1.86 0 0 1-1.86-1.86 1.86 1.86 0 1 1 3.72 0Zm0-4.47a1.86 1.86 0 1 1-3.7 0 1.86 1.86 0 1 1 3.7 0Zm4.47-84.87a1.86 1.86 0 1 1-3.71 0 1.86 1.86 0 1 1 3.71 0Zm0 75.94a1.86 1.86 0 1 1-3.71 0 1.86 1.86 0 1 1 3.71 0Zm0 4.46c0 1.03-.83 1.87-1.85 1.87a1.86 1.86 0 0 1-1.86-1.87 1.86 1.86 0 1 1 3.71 0Zm0 13.41c0 1.02-.83 1.86-1.85 1.86a1.86 1.86 0 0 1-1.86-1.86 1.86 1.86 0 1 1 3.71 0Zm0-4.47c0 1.03-.83 1.86-1.85 1.86a1.86 1.86 0 0 1-1.86-1.86 1.86 1.86 0 1 1 3.71 0Zm0-4.47a1.86 1.86 0 1 1-3.71 0 1.86 1.86 0 1 1 3.71 0Zm4.47-22.34c0 1.03-.83 1.87-1.85 1.87a1.86 1.86 0 0 1-1.86-1.87 1.86 1.86 0 1 1 3.71 0Zm0 4.47a1.86 1.86 0 1 1-3.71 0 1.86 1.86 0 1 1 3.71 0Zm0 4.47a1.86 1.86 0 1 1-3.71 0 1.86 1.86 0 1 1 3.71 0Zm0 4.47a1.86 1.86 0 1 1-3.71 0c0-1.03.83-1.87 1.86-1.87 1.02 0 1.85.84 1.85 1.87Zm0 4.46c0 1.03-.83 1.87-1.85 1.87a1.86 1.86 0 0 1-1.86-1.87 1.86 1.86 0 1 1 3.71 0Zm0-31.26a1.86 1.86 0 1 1-3.71 0 1.86 1.86 0 1 1 3.71 0Zm0-4.47c0 1.03-.83 1.87-1.85 1.87A1.86 1.86 0 0 1 134 51a1.86 1.86 0 1 1 3.71 0Zm0 49.14c0 1.02-.83 1.86-1.85 1.86a1.86 1.86 0 0 1-1.86-1.86 1.86 1.86 0 1 1 3.71 0Zm0 4.46c0 1.03-.83 1.87-1.85 1.87a1.86 1.86 0 0 1-1.86-1.87 1.86 1.86 0 1 1 3.71 0Zm0-8.93c0 1.03-.83 1.86-1.85 1.86a1.86 1.86 0 0 1-1.86-1.86 1.86 1.86 0 1 1 3.71 0Zm0-4.47a1.86 1.86 0 1 1-3.71 0 1.86 1.86 0 1 1 3.71 0Zm4.47-44.67a1.86 1.86 0 1 1-3.71 0 1.86 1.86 0 1 1 3.7 0Zm0 13.41a1.86 1.86 0 1 1-3.71 0 1.86 1.86 0 1 1 3.7 0Zm0 4.46a1.86 1.86 0 1 1-3.71 0 1.86 1.86 0 1 1 3.7 0Zm0 4.46a1.86 1.86 0 1 1-3.71 0 1.86 1.86 0 1 1 3.7 0Zm0 4.47a1.86 1.86 0 1 1-3.71 0 1.86 1.86 0 1 1 3.7 0Zm0 4.47a1.86 1.86 0 1 1-3.71 0 1.86 1.86 0 1 1 3.7 0Zm0 4.47a1.86 1.86 0 1 1-3.71 0 1.86 1.86 0 1 1 3.71 0Zm0 4.46a1.86 1.86 0 1 1-3.71 0 1.86 1.86 0 1 1 3.7 0Zm0-31.26a1.86 1.86 0 1 1-3.71 0 1.86 1.86 0 1 1 3.7 0Zm0-4.47a1.86 1.86 0 1 1-3.71 0 1.86 1.86 0 1 1 3.7 0Zm0 49.14a1.86 1.86 0 1 1-3.71 0 1.86 1.86 0 1 1 3.7 0Zm0 4.46a1.86 1.86 0 1 1-3.71 0 1.86 1.86 0 1 1 3.7 0Zm0-8.93a1.86 1.86 0 1 1-3.71 0 1.86 1.86 0 1 1 3.7 0Zm0-4.47a1.86 1.86 0 1 1-3.71 0 1.86 1.86 0 1 1 3.7 0Z"/></g><defs><clipPath id="a"><path fill="#fff" d="M0 0h303v169H0z"/></clipPath></defs></svg>