<svg width="219" height="42" viewBox="0 0 219 42" fill="none" xmlns="http://www.w3.org/2000/svg">
<path d="M150.329 5.54016C150.424 5.54016 150.502 5.6125 150.511 5.70499L150.511 5.72256V36.3451C150.511 36.4459 150.43 36.5275 150.329 36.5275C150.234 36.5275 150.157 36.4552 150.148 36.3627L150.147 36.3451V5.72256C150.147 5.62182 150.229 5.54016 150.329 5.54016Z" fill="#56606D"/>
<path d="M166.614 30.6469C172.604 30.6469 176.017 26.9 176.026 20.6325C176.026 14.4331 172.662 10.7153 166.964 10.7153H160.781V30.6469H166.614ZM166.507 29.0119H162.599V12.3504H166.857C171.69 12.3504 174.257 15.4744 174.266 20.6325C174.266 25.8392 171.641 29.0119 166.507 29.0119ZM188.132 30.9194C192.371 30.9194 195.366 28.0776 196.017 24.4183H194.189C193.635 27.1531 191.253 29.2066 188.132 29.2066C184.359 29.2066 181.287 26.2188 181.287 20.6811C181.287 15.163 184.359 12.1557 188.132 12.1557C191.253 12.1557 193.635 14.2189 194.189 16.944H196.017C195.366 13.2749 192.371 10.4428 188.132 10.4428C183.105 10.4428 179.527 14.4428 179.527 20.6811C179.527 26.9195 183.105 30.9194 188.132 30.9194ZM206.236 30.9876C210.553 30.9876 213.139 28.5448 213.139 25.3526C213.139 22.0437 210.261 20.7201 207.733 20.0096L205.633 19.4062C203.698 18.8612 201.666 17.8783 201.666 15.7761C201.666 13.635 203.582 12.0681 206.362 12.0681C208.997 12.0681 210.884 13.4793 211.107 15.6982H212.867C212.731 12.6715 210.116 10.4331 206.411 10.4331C202.736 10.4331 199.906 12.6423 199.906 15.854C199.906 18.4135 201.715 20.0194 204.836 20.9439L207.218 21.6446C209.688 22.3648 211.38 23.2894 211.38 25.3234C211.38 27.7175 209.211 29.3234 206.236 29.3234C203.552 29.3234 201.452 28.029 201.258 25.664H199.391C199.605 28.8173 202.172 30.9876 206.236 30.9876Z" fill="#56606D"/>
<path d="M19.4549 38.6729C17.8095 38.6729 16.4703 37.3601 16.4259 35.7238L7.89955 30.7967C7.45614 31.0371 6.97781 31.1554 6.50413 31.1622L6.45727 31.1625C5.41125 31.1613 4.39433 30.6174 3.8337 29.6455C3.01097 28.2191 3.47722 26.4019 4.87067 25.5453L4.87067 15.6908C3.47722 14.8342 3.01097 13.017 3.8337 11.5907C4.38596 10.6332 5.381 10.0912 6.41046 10.074L6.45727 10.0736C6.94622 10.0731 7.44152 10.1911 7.89955 10.4394L16.4259 5.51221C16.4699 3.89262 17.7824 2.58998 19.4048 2.56366L19.4549 2.56325C21.1004 2.56325 22.4395 3.87597 22.484 5.51219L31.0101 10.4395C31.4536 10.199 31.932 10.0807 32.4058 10.0739L32.4526 10.0736C33.4986 10.0748 34.5156 10.6187 35.0762 11.5907C35.8989 13.017 35.4327 14.8342 34.0392 15.6908V25.5453C35.4327 26.4019 35.8989 28.2191 35.0762 29.6455C34.5239 30.6029 33.5289 31.1449 32.4994 31.1621L32.4526 31.1625C31.9637 31.163 31.4684 31.045 31.0104 30.7968L22.484 35.7239C22.44 37.3435 21.1275 38.6461 19.5051 38.6724L19.4549 38.6729ZM19.4549 7.04058L19.4942 7.04006C19.4975 7.03997 19.5008 7.03987 19.504 7.03976L19.4942 7.04005C19.5073 7.0397 19.5204 7.03918 19.5334 7.03848L19.504 7.03976C19.5183 7.03928 19.5326 7.0386 19.5468 7.0377L19.5334 7.03848C19.5467 7.03776 19.56 7.03687 19.5732 7.0358L19.5468 7.0377C19.5598 7.03688 19.5728 7.03589 19.5857 7.03473L19.5732 7.0358C19.5849 7.03484 19.5966 7.03375 19.6082 7.03252L19.5857 7.03473C19.5999 7.03345 19.6141 7.03197 19.6282 7.03028L19.6082 7.03252C19.6214 7.03113 19.6345 7.02956 19.6476 7.02781L19.6282 7.03028C19.6402 7.02884 19.6521 7.02726 19.664 7.02554L19.6476 7.02781C19.6623 7.02584 19.6771 7.02364 19.6917 7.02122L19.664 7.02554C19.676 7.02379 19.688 7.0219 19.6999 7.01986L19.6917 7.02122C19.7042 7.01916 19.7166 7.01694 19.729 7.01456L19.6999 7.01986C19.713 7.01761 19.7261 7.01518 19.7391 7.01258L19.729 7.01456C19.7449 7.0115 19.7607 7.00817 19.7765 7.00459L19.7391 7.01258C19.7691 7.00658 19.7988 6.99965 19.8281 6.99183C19.8355 6.98988 19.8428 6.98785 19.8502 6.98576L19.8281 6.99183C19.8402 6.98859 19.8522 6.98521 19.8642 6.98167L19.8502 6.98576C19.8609 6.98271 19.8716 6.97954 19.8823 6.97624L19.8642 6.98167C20.4618 6.80509 20.8979 6.25166 20.8979 5.59628C20.8979 4.79861 20.2519 4.15198 19.4549 4.15198C18.658 4.15198 18.012 4.79861 18.012 5.59628C18.012 6.24453 18.4387 6.79303 19.0262 6.97577C19.0336 6.97809 19.041 6.98033 19.0484 6.9825L19.0262 6.97577C19.0372 6.97919 19.0483 6.98248 19.0594 6.98564L19.0484 6.9825C19.0602 6.98596 19.0721 6.98927 19.084 6.99243L19.0594 6.98564C19.0722 6.98928 19.085 6.99274 19.0979 6.99604L19.084 6.99243C19.1123 6.99994 19.141 7.0066 19.1699 7.01239C19.1744 7.01331 19.179 7.01421 19.1836 7.01509L19.1699 7.01239C19.1833 7.01508 19.1968 7.01758 19.2103 7.01989L19.1836 7.01509C19.1947 7.0172 19.2059 7.01919 19.2171 7.02105L19.2103 7.01989C19.2224 7.02196 19.2345 7.02387 19.2467 7.02563L19.2171 7.02105C19.2319 7.02352 19.2469 7.02576 19.2619 7.02777L19.2467 7.02563C19.2583 7.02732 19.27 7.02886 19.2816 7.03026L19.2619 7.02777C19.2751 7.02954 19.2884 7.03113 19.3017 7.03254L19.2816 7.03026C19.2958 7.03195 19.31 7.03344 19.3242 7.03472L19.3017 7.03254C19.3134 7.03376 19.325 7.03485 19.3367 7.0358L19.3242 7.03472C19.3371 7.03589 19.3501 7.03688 19.3631 7.0377L19.3367 7.0358C19.3499 7.03687 19.3632 7.03777 19.3765 7.03848L19.3631 7.0377C19.3773 7.03859 19.3915 7.03928 19.4058 7.03976L19.3765 7.03848C19.4024 7.03988 19.4286 7.04058 19.4549 7.04058ZM24.1456 16.9529L29.5135 13.8509C29.5097 13.8358 29.506 13.8207 29.5024 13.8055C29.5013 13.8009 29.5002 13.7962 29.4991 13.7914C29.4967 13.781 29.4943 13.7707 29.4921 13.7603C29.4904 13.7528 29.4887 13.7452 29.4871 13.7375C29.4852 13.7287 29.4834 13.7198 29.4816 13.7109C29.4797 13.7015 29.4778 13.6921 29.476 13.6828C29.4708 13.6559 29.466 13.6289 29.4615 13.6019C29.4604 13.595 29.4593 13.5881 29.4582 13.5813C29.4478 13.5153 29.4396 13.4492 29.4336 13.3831C29.4329 13.3756 29.4323 13.3682 29.4317 13.3608C29.4294 13.3328 29.4274 13.3048 29.4259 13.2769C29.4257 13.2745 29.4256 13.2721 29.4255 13.2697L29.4259 13.2769C29.4251 13.2624 29.4244 13.248 29.4238 13.2336C29.4234 13.2249 29.4231 13.2161 29.4228 13.2074C29.4225 13.1977 29.4223 13.1881 29.4221 13.1786C29.4219 13.1713 29.4218 13.1639 29.4216 13.1566C29.4215 13.1493 29.4214 13.1421 29.4214 13.1348C29.4213 13.1282 29.4213 13.1215 29.4213 13.1149L29.4214 13.1348C29.4201 12.9732 29.4317 12.8123 29.4558 12.6535C29.4598 12.6271 29.4641 12.6007 29.4688 12.5744C29.4709 12.5629 29.473 12.5515 29.4752 12.5401C29.4798 12.5158 29.4847 12.4916 29.4899 12.4675C29.4918 12.4588 29.4937 12.4501 29.4957 12.4414C29.4971 12.4351 29.4985 12.4289 29.5 12.4226C29.5013 12.4168 29.5027 12.4109 29.5041 12.4051C29.5067 12.3939 29.5095 12.3828 29.5122 12.3717C29.5205 12.3386 29.5293 12.3056 29.5387 12.2728C29.5454 12.2492 29.5525 12.2257 29.5598 12.2023C29.5622 12.1944 29.5647 12.1865 29.5673 12.1786C29.5693 12.1721 29.5715 12.1656 29.5736 12.1592C29.576 12.1516 29.5786 12.1441 29.5811 12.1366C29.5845 12.1263 29.588 12.1162 29.5916 12.106C29.5933 12.101 29.5951 12.096 29.5968 12.0911C29.6004 12.0811 29.6039 12.0712 29.6075 12.0614C29.6083 12.0593 29.6091 12.0571 29.6099 12.055C29.6146 12.0422 29.6193 12.0296 29.6242 12.017C29.6356 11.9873 29.6474 11.9579 29.6597 11.9286C29.6696 11.9052 29.6797 11.8819 29.6901 11.8587C29.6937 11.8509 29.6972 11.8431 29.7008 11.8352C29.7032 11.8302 29.7055 11.8252 29.7078 11.8202C29.7127 11.8096 29.7178 11.7991 29.7228 11.7885C29.7264 11.7811 29.7299 11.7738 29.7335 11.7666C29.7368 11.7599 29.7401 11.7533 29.7434 11.7466C29.7477 11.738 29.7521 11.7293 29.7565 11.7207C29.7592 11.7154 29.762 11.71 29.7648 11.7046C29.7694 11.6957 29.7741 11.6869 29.7788 11.6781C29.7814 11.6731 29.7841 11.6682 29.7867 11.6632C29.7999 11.6388 29.8134 11.6145 29.8273 11.5905L22.0796 7.11303C22.0781 7.11569 22.0765 7.11834 22.075 7.12099C22.0607 7.14558 22.0461 7.1699 22.0311 7.19401C22.0286 7.19811 22.026 7.2022 22.0234 7.20629C22.0178 7.21536 22.012 7.22443 22.0062 7.23347C22.0024 7.23935 21.9987 7.24514 21.9949 7.25092C21.9902 7.25813 21.9854 7.2654 21.9806 7.27265C21.9763 7.27924 21.9719 7.28576 21.9675 7.29226C21.9646 7.29651 21.9617 7.30077 21.9588 7.30503C21.9119 7.37381 21.8622 7.44053 21.8099 7.50507C21.7947 7.52389 21.7792 7.54257 21.7635 7.56105C21.7489 7.57822 21.7341 7.59523 21.7191 7.61207C21.712 7.62007 21.7049 7.62801 21.6977 7.63592C21.6937 7.64032 21.6896 7.64474 21.6856 7.64915C21.6814 7.65368 21.6773 7.65817 21.6731 7.66265C21.6558 7.68126 21.6382 7.69966 21.6205 7.71785C21.5646 7.77493 21.5065 7.82986 21.4463 7.88244L21.4409 7.88713C21.4215 7.90399 21.4019 7.9206 21.3821 7.93697C21.3789 7.93962 21.3757 7.94222 21.3726 7.94482C21.3652 7.95087 21.3577 7.95693 21.3502 7.96297C21.3434 7.96839 21.3367 7.97378 21.3299 7.97914C21.3262 7.98208 21.3224 7.985 21.3187 7.98792C21.2942 8.00705 21.2695 8.02579 21.2445 8.04416C21.2429 8.0453 21.2415 8.04636 21.24 8.04742C21.2325 8.05294 21.2248 8.05848 21.2171 8.06398C21.1989 8.07708 21.1805 8.08996 21.1619 8.10264L21.1542 8.10791C21.1022 8.14323 21.049 8.17697 20.9948 8.20907C20.9895 8.2122 20.9842 8.21531 20.9789 8.2184C20.9568 8.23127 20.9346 8.24387 20.9122 8.25619C20.9032 8.26116 20.8942 8.26606 20.8851 8.27092C20.8798 8.27378 20.8744 8.27663 20.8691 8.27946C20.8629 8.28272 20.8567 8.28597 20.8505 8.2892C20.8399 8.29472 20.8293 8.30016 20.8187 8.30554C20.8144 8.3077 20.81 8.30988 20.8057 8.31205C20.7812 8.32428 20.7566 8.33616 20.7318 8.34771C20.7261 8.35037 20.7203 8.35303 20.7145 8.35567C20.6891 8.36733 20.6635 8.37862 20.6377 8.38956C20.6123 8.40035 20.5867 8.41081 20.561 8.42093C20.5374 8.4302 20.5136 8.43919 20.4896 8.44789C20.4839 8.44997 20.4782 8.45203 20.4725 8.45407C20.4614 8.45802 20.4502 8.46193 20.439 8.46578C20.4363 8.46673 20.4336 8.46766 20.4309 8.46858C20.4186 8.47276 20.4062 8.47687 20.3938 8.48091C20.3892 8.48243 20.3845 8.48393 20.3799 8.48543C20.3674 8.48942 20.3549 8.49334 20.3424 8.49718C20.3395 8.49805 20.3367 8.49891 20.3338 8.49977C20.3235 8.50292 20.313 8.50601 20.3026 8.50905C20.2936 8.51166 20.2847 8.51422 20.2757 8.51674C20.2734 8.51737 20.2712 8.518 20.269 8.51862L20.2691 14.3597C21.9269 14.5649 23.3506 15.5536 24.1456 16.9529ZM15.0403 17.0761C15.782 15.6818 17.1233 14.6941 18.6818 14.4065L18.6818 8.5297C18.6644 8.52511 18.647 8.52036 18.6296 8.51546C18.622 8.51329 18.6143 8.5111 18.6067 8.50888C18.5482 8.49184 18.4904 8.47307 18.4334 8.45263C18.4283 8.45082 18.4233 8.449 18.4182 8.44715C18.407 8.44308 18.3959 8.43896 18.3849 8.43477C18.381 8.4333 18.377 8.4318 18.3731 8.4303C18.3625 8.42626 18.352 8.42216 18.3415 8.41801C18.3362 8.41589 18.3308 8.41375 18.3254 8.41159C18.3134 8.40676 18.3015 8.40186 18.2895 8.39688C18.2862 8.39549 18.2829 8.39408 18.2795 8.39267C18.2529 8.38146 18.2266 8.3699 18.2004 8.35798C18.1933 8.35472 18.1862 8.35145 18.1791 8.34816C18.1581 8.33839 18.1372 8.32836 18.1164 8.3181C18.1035 8.31172 18.0906 8.30527 18.0778 8.29872C18.0702 8.29484 18.0626 8.29089 18.055 8.2869C18.0518 8.28522 18.0486 8.28357 18.0455 8.28191C18.0334 8.27557 18.0214 8.26913 18.0094 8.26262C18.0051 8.26028 18.0008 8.25793 17.9965 8.25556C17.9892 8.25152 17.9819 8.24747 17.9746 8.24339C17.9515 8.23041 17.9286 8.21714 17.9059 8.20358C17.9009 8.20063 17.896 8.19769 17.8911 8.19474C17.8817 8.18904 17.8723 8.18326 17.8629 8.17744C17.857 8.17382 17.8512 8.17017 17.8453 8.1665C17.8396 8.16286 17.8337 8.15917 17.8279 8.15546C17.8212 8.15116 17.8145 8.14688 17.8079 8.14258C17.7866 8.12874 17.7654 8.11461 17.7445 8.10023C17.7371 8.09519 17.7298 8.09011 17.7224 8.085C17.685 8.05881 17.6482 8.03182 17.612 8.00402C17.605 7.99867 17.598 7.99325 17.591 7.9878L17.5854 7.98339C17.556 7.9603 17.5271 7.93668 17.4986 7.91254C17.4915 7.90657 17.4845 7.90059 17.4776 7.89458C17.4703 7.88832 17.4631 7.88203 17.4559 7.87571C17.451 7.87139 17.446 7.86702 17.4411 7.86263C17.4371 7.85905 17.4332 7.8555 17.4292 7.85194C17.372 7.8005 17.3169 7.74691 17.2638 7.6913C17.259 7.68623 17.2541 7.68109 17.2493 7.67595C17.2274 7.65272 17.2059 7.62917 17.1848 7.60528L17.1835 7.60377C17.1463 7.56167 17.1103 7.51853 17.0755 7.4744C17.0702 7.46778 17.065 7.46113 17.0598 7.45444C17.0551 7.44825 17.0503 7.44205 17.0455 7.43583C17.0405 7.4293 17.0356 7.42273 17.0306 7.41615C17.027 7.41125 17.0233 7.40638 17.0197 7.4015C17.0132 7.39281 17.0068 7.38402 17.0004 7.37518C16.9965 7.36978 16.9926 7.3644 16.9888 7.359C16.9837 7.35199 16.9788 7.34497 16.9738 7.33794C16.9696 7.33188 16.9654 7.32575 16.9611 7.31961C16.9555 7.31154 16.95 7.3035 16.9445 7.29542C16.9407 7.28977 16.9369 7.28409 16.9331 7.2784C16.9006 7.22976 16.8696 7.18015 16.8399 7.12959L16.8303 7.11303L9.08256 11.5904C9.09893 11.6188 9.11452 11.647 9.12964 11.6753C9.13484 11.685 9.13999 11.6948 9.14507 11.7046C9.1489 11.7119 9.15267 11.7193 9.15641 11.7266C9.15862 11.731 9.16081 11.7353 9.16299 11.7396C9.17642 11.7663 9.18946 11.7932 9.2021 11.8202C9.20444 11.8252 9.20675 11.8302 9.20905 11.8352C9.2135 11.8449 9.21789 11.8546 9.22224 11.8643C9.22428 11.8688 9.2263 11.8734 9.22831 11.8779C9.23277 11.888 9.23717 11.8981 9.24152 11.9083C9.25972 11.9507 9.27693 11.9935 9.29316 12.0366C9.3087 12.0779 9.32334 12.1195 9.33707 12.1615C9.33876 12.1666 9.34046 12.1719 9.34214 12.1771C9.36258 12.2407 9.38091 12.3048 9.39713 12.3695C9.39898 12.3769 9.4008 12.3843 9.40259 12.3917C9.40869 12.4168 9.41448 12.4421 9.41994 12.4674C9.42127 12.4735 9.42257 12.4796 9.42385 12.4858C9.42632 12.4975 9.42873 12.5094 9.43106 12.5212C9.43214 12.5267 9.4332 12.5322 9.43425 12.5376C9.44262 12.5813 9.45003 12.6252 9.45647 12.6692C9.45877 12.6849 9.46094 12.7006 9.46299 12.7163C9.46572 12.7372 9.46824 12.7582 9.47054 12.7792C9.47536 12.8232 9.47923 12.8674 9.48213 12.9117C9.4827 12.9205 9.48323 12.9292 9.48373 12.938C9.48411 12.9447 9.48448 12.9515 9.48482 12.9583C9.48624 12.9868 9.48727 13.0154 9.48789 13.044C9.48855 13.0743 9.48876 13.1046 9.48851 13.1349C9.48845 13.1421 9.48836 13.1494 9.48825 13.1567C9.48816 13.1621 9.48807 13.1675 9.48796 13.1728C9.48736 13.2018 9.48633 13.231 9.48489 13.2601C9.48438 13.2704 9.48381 13.2807 9.48319 13.2911C9.48277 13.2982 9.48232 13.3052 9.48185 13.3123C9.48147 13.318 9.48107 13.3237 9.48065 13.3294C9.47822 13.3629 9.47523 13.3963 9.47169 13.4297C9.47163 13.4302 9.47157 13.4307 9.47152 13.4313L9.47169 13.4297C9.46437 13.4985 9.45467 13.5673 9.44255 13.6358C9.44138 13.6425 9.44018 13.6491 9.43896 13.6558C9.43741 13.6642 9.43582 13.6727 9.43419 13.6811C9.42935 13.7063 9.42418 13.7314 9.41868 13.7565C9.4141 13.7774 9.40929 13.7983 9.40424 13.8192L15.0403 17.0761ZM33.1734 14.358C33.8636 13.9591 34.1001 13.0758 33.7016 12.385C33.3031 11.6942 32.4207 11.4575 31.7305 11.8564C31.1865 12.1707 30.9244 12.7862 31.0329 13.371C31.0339 13.3767 31.035 13.3824 31.0361 13.3881L31.0329 13.371C31.0349 13.3818 31.0371 13.3927 31.0393 13.4035L31.0361 13.3881C31.0389 13.402 31.0419 13.4159 31.045 13.4297L31.0393 13.4035C31.0424 13.4181 31.0457 13.4326 31.0492 13.4471L31.045 13.4297C31.0477 13.4411 31.0504 13.4525 31.0533 13.4639L31.0492 13.4471C31.0522 13.4595 31.0554 13.4719 31.0587 13.4843L31.0533 13.4639C31.0568 13.4774 31.0604 13.4909 31.0643 13.5043L31.0587 13.4843C31.0618 13.4958 31.0651 13.5073 31.0685 13.5187L31.0643 13.5043C31.0765 13.5468 31.0907 13.5889 31.1069 13.6305C31.1091 13.6363 31.1115 13.6422 31.1138 13.648L31.1069 13.6305C31.112 13.6436 31.1173 13.6567 31.1229 13.6698L31.1138 13.648C31.1187 13.66 31.1237 13.6719 31.1289 13.6838L31.1229 13.6698C31.1275 13.6808 31.1323 13.6917 31.1373 13.7026L31.1289 13.6838C31.135 13.6979 31.1415 13.712 31.1481 13.726L31.1373 13.7026C31.1426 13.7143 31.148 13.7259 31.1537 13.7375L31.1481 13.726C31.1536 13.7375 31.1592 13.749 31.165 13.7604L31.1537 13.7375C31.1605 13.7516 31.1676 13.7657 31.175 13.7796L31.165 13.7604C31.1734 13.7769 31.182 13.7932 31.1911 13.8094L31.2023 13.8293C31.2221 13.8636 31.2431 13.8968 31.2653 13.9289C31.2684 13.9335 31.2716 13.9381 31.2748 13.9426L31.2653 13.9289C31.2807 13.9513 31.2968 13.9732 31.3133 13.9946C31.3163 13.9984 31.3191 14.0021 31.322 14.0057L31.3133 13.9946C31.3201 14.0033 31.3269 14.0119 31.3339 14.0204L31.322 14.0057C31.3314 14.0175 31.3409 14.0292 31.3505 14.0406L31.3339 14.0204C31.3417 14.0301 31.3496 14.0396 31.3577 14.049L31.3505 14.0406C31.3578 14.0492 31.3651 14.0577 31.3726 14.0661L31.3577 14.049C31.377 14.0716 31.397 14.0935 31.4176 14.1147C31.4324 14.1299 31.4476 14.1449 31.463 14.1594C31.4773 14.1729 31.4918 14.1861 31.5066 14.1989C31.5146 14.2058 31.5226 14.2126 31.5307 14.2193L31.5066 14.1989C31.5161 14.2072 31.5257 14.2153 31.5354 14.2233L31.5307 14.2193C31.982 14.5938 32.636 14.6685 33.1734 14.358ZM7.45816 14.1487L7.46979 14.1374C7.48452 14.1228 7.49895 14.108 7.51309 14.0928C7.51507 14.0907 7.51698 14.0886 7.51887 14.0865L7.51309 14.0928C7.52197 14.0832 7.53072 14.0736 7.53935 14.0638L7.51887 14.0865C7.5283 14.0763 7.53759 14.0659 7.54675 14.0553L7.53935 14.0638C7.54832 14.0536 7.55716 14.0433 7.56586 14.0328L7.54675 14.0553C7.55458 14.0463 7.56231 14.0371 7.56995 14.0279L7.56586 14.0328C7.57322 14.024 7.58049 14.015 7.58765 14.006L7.56995 14.0279C7.58002 14.0157 7.58992 14.0033 7.59963 13.9906L7.58765 14.006C7.5958 13.9957 7.60382 13.9853 7.61171 13.9747L7.59963 13.9906C7.60693 13.9812 7.61413 13.9716 7.62122 13.9619L7.61171 13.9747C7.61937 13.9645 7.6269 13.9541 7.6343 13.9437L7.62122 13.9619C7.62927 13.9509 7.63719 13.9397 7.64496 13.9284L7.6343 13.9437C7.66029 13.907 7.68474 13.8689 7.70755 13.8293C7.71136 13.8227 7.71511 13.8161 7.71881 13.8094L7.70755 13.8293C7.7245 13.7999 7.74031 13.7702 7.75498 13.7401C7.75857 13.7328 7.76209 13.7254 7.76555 13.718L7.75498 13.7401C7.75915 13.7316 7.76322 13.723 7.76721 13.7145L7.76555 13.718C7.77121 13.7059 7.7767 13.6937 7.78201 13.6815C7.78358 13.6779 7.78513 13.6743 7.78666 13.6707L7.78201 13.6815C7.80524 13.628 7.82506 13.5735 7.84148 13.5184C7.8425 13.515 7.8435 13.5116 7.84448 13.5082L7.84148 13.5184C7.8452 13.5059 7.84874 13.4934 7.8521 13.4809L7.84448 13.5082C7.84834 13.4948 7.852 13.4815 7.85546 13.4681L7.8521 13.4809C7.8553 13.469 7.85835 13.4571 7.86123 13.4451L7.85546 13.4681C7.86241 13.4412 7.86854 13.4142 7.87389 13.3872C7.87469 13.3834 7.87542 13.3797 7.87613 13.376L7.87389 13.3872C7.99032 12.7975 7.72841 12.1736 7.17939 11.8564C6.48924 11.4575 5.60675 11.6942 5.20829 12.385C4.80983 13.0758 5.04629 13.9591 5.73644 14.358C6.30609 14.6872 7.00678 14.5834 7.45816 14.1487ZM8.57065 25.9536L12.0081 23.9671C11.4236 23.2468 11.0733 22.3285 11.0733 21.3283C11.0733 19.823 11.8666 18.5032 13.0576 17.7649L8.64043 15.2122C8.62253 15.2309 8.60442 15.2492 8.5861 15.2673C8.55442 15.2986 8.52216 15.3291 8.48931 15.3588C8.35602 15.4793 8.21329 15.5867 8.06314 15.6804C8.00467 15.7168 7.94508 15.7512 7.88449 15.7835L7.88263 15.7845C7.85511 15.7991 7.82738 15.8134 7.79945 15.8271C7.75928 15.8469 7.71874 15.8658 7.67785 15.8838C7.6641 15.8898 7.65033 15.8957 7.63652 15.9016C7.60522 15.9148 7.57368 15.9274 7.54194 15.9396C7.52156 15.9474 7.50117 15.9549 7.48071 15.9623C7.44238 15.976 7.40377 15.989 7.36493 16.0012C7.34122 16.0086 7.31745 16.0157 7.29359 16.0226C7.25163 16.0346 7.2094 16.0458 7.16695 16.056C7.14172 16.0621 7.11637 16.0679 7.09095 16.0733C7.06662 16.0785 7.04221 16.0834 7.01773 16.088C7.01277 16.089 7.00787 16.0899 7.00297 16.0908C6.98451 16.0942 6.96596 16.0974 6.94738 16.1005C6.9228 16.1045 6.89822 16.1082 6.8736 16.1117C6.87095 16.112 6.86836 16.1124 6.86576 16.1127C6.86065 16.1134 6.85547 16.1141 6.85029 16.1148C6.8215 16.1186 6.79269 16.122 6.76382 16.1249C6.73593 16.1278 6.70807 16.1302 6.68017 16.1323C6.67368 16.1328 6.66719 16.1333 6.66069 16.1337C6.63237 16.1356 6.60399 16.1372 6.57558 16.1383C6.5698 16.1385 6.56404 16.1387 6.55829 16.1389C6.54066 16.1395 6.52302 16.14 6.50538 16.1403L6.45856 16.1407L6.45791 16.1407L6.45791 25.0954H6.45856C6.55226 25.0955 6.64573 25.1 6.73866 25.1087C6.75526 25.1103 6.77183 25.112 6.78837 25.1138C6.82626 25.118 6.86408 25.1229 6.90178 25.1285C6.92811 25.1324 6.95435 25.1367 6.98053 25.1413C7.01556 25.1474 7.05045 25.1542 7.0852 25.1616C7.11311 25.1675 7.14087 25.1738 7.16853 25.1805L7.21858 25.193C7.31223 25.2173 7.40472 25.2461 7.4957 25.2793C7.51679 25.2869 7.53771 25.2948 7.55854 25.3029C7.60199 25.3199 7.6447 25.3376 7.687 25.3564C7.69422 25.3596 7.7015 25.3628 7.70877 25.3661C7.7262 25.374 7.74349 25.382 7.7607 25.3902C7.79335 25.4057 7.82575 25.4219 7.85788 25.4386C7.94755 25.4852 8.03508 25.5364 8.12008 25.5921C8.14155 25.6062 8.16285 25.6206 8.18399 25.6352C8.19262 25.6412 8.20124 25.6472 8.20984 25.6533C8.23653 25.6722 8.26293 25.6915 8.28903 25.7113C8.3872 25.7858 8.48129 25.8666 8.57065 25.9536ZM30.363 25.9311L30.3791 25.9155C30.4315 25.8663 30.4855 25.8191 30.5409 25.7741C30.6388 25.6945 30.7411 25.6216 30.8471 25.5555L30.8487 25.5545C30.8718 25.5401 30.8951 25.5261 30.9186 25.5123C30.924 25.5091 30.9296 25.5059 30.9352 25.5026L30.9186 25.5123C30.9639 25.4858 31.0098 25.4605 31.0563 25.4364C31.1226 25.402 31.1901 25.3701 31.2586 25.3408C31.3613 25.2969 31.4663 25.2586 31.5731 25.2263C31.5804 25.224 31.5878 25.2218 31.5951 25.2197C31.6189 25.2127 31.6429 25.2059 31.667 25.1994C31.7063 25.1889 31.7457 25.1791 31.7854 25.1702C31.7947 25.1681 31.804 25.166 31.8134 25.164C31.84 25.1582 31.8668 25.1528 31.8936 25.1478C31.8959 25.1474 31.8983 25.1469 31.9006 25.1465C31.914 25.144 31.9274 25.1416 31.9409 25.1393L31.9006 25.1465C31.9211 25.1427 31.9417 25.1391 31.9623 25.1357C31.9895 25.1312 32.0168 25.1271 32.0441 25.1234C32.0731 25.1194 32.1022 25.1158 32.1313 25.1127C32.1364 25.1122 32.1414 25.1116 32.1465 25.1111C32.1738 25.1083 32.201 25.1059 32.2284 25.1039C32.2353 25.1034 32.2422 25.1029 32.2491 25.1024C32.2763 25.1005 32.3034 25.0991 32.3306 25.0979C32.3376 25.0977 32.3447 25.0974 32.3518 25.0972C32.355 25.097 32.3581 25.0969 32.3612 25.0968C32.3914 25.0959 32.4216 25.0954 32.4519 25.0954L32.4454 25.0956L32.4513 25.0954L32.4519 25.0954V16.1407H32.4513C32.3955 16.1406 32.3398 16.139 32.2843 16.1359C32.2611 16.1346 32.238 16.133 32.2149 16.1312C32.1838 16.1287 32.1526 16.1258 32.1216 16.1223C32.0891 16.1187 32.0568 16.1146 32.0245 16.11C32.0026 16.1069 31.9808 16.1035 31.9591 16.0999C31.9328 16.0955 31.9066 16.0908 31.8804 16.0858C31.8554 16.081 31.8304 16.0758 31.8055 16.0704C31.7341 16.0548 31.6633 16.0366 31.5932 16.0159C31.5118 15.9918 31.4317 15.9644 31.3529 15.9338C31.3245 15.9227 31.2963 15.9113 31.2683 15.8994C31.2594 15.8956 31.2504 15.8918 31.2415 15.8879C31.2041 15.8716 31.167 15.8546 31.1303 15.8368C31.1111 15.8275 31.092 15.818 31.073 15.8084C31.014 15.7782 30.9558 15.7461 30.8987 15.712C30.8813 15.7017 30.8641 15.6912 30.8469 15.6804L30.8036 15.6529C30.7891 15.6436 30.7747 15.6341 30.7604 15.6245C30.5931 15.512 30.436 15.3821 30.2921 15.2355L24.8237 18.3955C26.5648 18.6144 27.9159 20.0878 27.9449 21.883L27.9454 21.9421C27.9454 22.7576 27.6726 23.5094 27.2133 24.1109L30.363 25.9311ZM19.2683 23.928H24.3741C25.4699 23.928 26.3582 23.0389 26.3582 21.9421C26.3582 20.8453 25.4699 19.9562 24.3741 19.9562L23.281 19.9561L23.2223 19.2255C23.0723 17.3591 21.5097 15.909 19.6267 15.909C18.1225 15.909 16.7924 16.839 16.2598 18.2202L16.0638 18.7285L15.2579 18.7285C13.8234 18.7285 12.6606 19.8925 12.6606 21.3283C12.6606 22.7641 13.8234 23.928 15.2579 23.928H19.1372C19.1549 23.928 19.1721 23.9278 19.1889 23.9275L19.206 23.9271L19.2456 23.9279L19.2683 23.928ZM16.8303 34.123L16.839 34.1082C16.8515 34.0867 16.8644 34.0654 16.8775 34.0442C16.8815 34.0377 16.8856 34.0312 16.8896 34.0247C16.8933 34.019 16.8969 34.0132 16.9006 34.0074C16.9052 34.0003 16.9097 33.9933 16.9142 33.9863C16.9532 33.9264 16.9942 33.868 17.0373 33.8111C17.0584 33.7832 17.0799 33.7557 17.102 33.7285C17.1376 33.6847 17.1743 33.6419 17.2122 33.6002C17.2157 33.5963 17.2192 33.5925 17.2227 33.5887C17.2297 33.5811 17.2367 33.5735 17.2439 33.5659C17.2476 33.5618 17.2514 33.5579 17.2551 33.5539C17.2624 33.5463 17.2697 33.5386 17.2771 33.531C17.342 33.4638 17.4099 33.3997 17.4807 33.3388C17.5125 33.3114 17.5449 33.2847 17.5779 33.2586C17.5822 33.2552 17.5867 33.2517 17.5911 33.2482C17.5989 33.2421 17.6068 33.236 17.6147 33.23C17.6217 33.2246 17.6288 33.2192 17.6359 33.2138C17.6406 33.2103 17.6453 33.2068 17.65 33.2033C17.6709 33.1878 17.6919 33.1726 17.7131 33.1576C17.7189 33.1536 17.7247 33.1495 17.7305 33.1455C17.7508 33.1314 17.7714 33.1175 17.7921 33.1039C17.8011 33.0979 17.8102 33.092 17.8193 33.0862C17.8449 33.0697 17.8708 33.0536 17.897 33.0378C17.9028 33.0343 17.9087 33.0309 17.9145 33.0274C17.9361 33.0146 17.9578 33.0021 17.9797 32.9899C17.9857 32.9865 17.9917 32.9832 17.9977 32.9799C18.0052 32.9758 18.0126 32.9717 18.0201 32.9677C18.0436 32.955 18.0673 32.9427 18.0912 32.9306C18.095 32.9287 18.0988 32.9268 18.1025 32.9249C18.1117 32.9203 18.1208 32.9158 18.13 32.9113C18.1366 32.9081 18.1433 32.9049 18.15 32.9017C18.1722 32.8911 18.1945 32.8807 18.217 32.8706C18.2393 32.8606 18.2617 32.8509 18.2842 32.8414C18.3103 32.8305 18.3365 32.8199 18.3629 32.8097C18.3924 32.7983 18.4222 32.7873 18.4522 32.7768C18.4563 32.7753 18.4604 32.7739 18.4645 32.7725C18.4899 32.7637 18.5156 32.7552 18.5413 32.7471C18.5473 32.7452 18.5532 32.7434 18.559 32.7415C18.5673 32.739 18.5757 32.7364 18.5841 32.7339C18.5917 32.7316 18.5992 32.7294 18.6068 32.7272C18.6158 32.7246 18.6249 32.722 18.6341 32.7194C18.6383 32.7182 18.6424 32.7171 18.6466 32.7159C18.6545 32.7137 18.6624 32.7116 18.6704 32.7094L18.6819 32.7065V25.5168L15.2579 25.5167C14.5594 25.5167 13.9008 25.3454 13.3219 25.0425L9.37935 27.3209C9.38727 27.3495 9.39475 27.3782 9.40179 27.4069C9.40801 27.4322 9.41389 27.4576 9.41944 27.4831C9.42463 27.5069 9.42951 27.5307 9.43409 27.5545C9.43584 27.5635 9.43754 27.5726 9.4392 27.5816C9.44085 27.5906 9.44247 27.5997 9.44405 27.6088C9.45539 27.6741 9.46454 27.7395 9.47153 27.805C9.47281 27.8169 9.47401 27.8288 9.47514 27.8408C9.47722 27.8627 9.47905 27.8846 9.48064 27.9065C9.48118 27.914 9.4817 27.9214 9.48218 27.9289C9.48284 27.939 9.48345 27.9491 9.48401 27.9592C9.4844 27.9662 9.48475 27.9731 9.48509 27.9801C9.48647 28.0086 9.48744 28.0372 9.48801 28.0658C9.48818 28.0741 9.48831 28.0825 9.48841 28.0909C9.48848 28.0972 9.48853 28.1036 9.48857 28.11L9.48841 28.0909C9.48886 28.1298 9.48856 28.1686 9.48752 28.2075C9.48686 28.2319 9.48591 28.2563 9.48467 28.2807C9.4843 28.288 9.4839 28.2953 9.48348 28.3025C9.48306 28.3098 9.4826 28.3171 9.48213 28.3244C9.47823 28.3839 9.47258 28.4433 9.46521 28.5024C9.46309 28.5195 9.46081 28.5365 9.4584 28.5535C9.45702 28.5632 9.4556 28.573 9.45412 28.5827L9.4584 28.5535C9.45141 28.6028 9.44322 28.6518 9.43383 28.7006C9.43276 28.7062 9.43168 28.7118 9.43058 28.7173C9.4216 28.7627 9.41159 28.8078 9.40057 28.8527C9.39285 28.8841 9.38462 28.9155 9.3759 28.9467C9.37424 28.9526 9.37256 28.9585 9.37087 28.9644C9.36967 28.9686 9.36844 28.9729 9.3672 28.9772L9.37087 28.9644C9.3613 28.9979 9.35116 29.0311 9.34046 29.0642C9.33896 29.0689 9.33745 29.0735 9.33593 29.0781C9.33262 29.0882 9.32926 29.0982 9.32585 29.1083C9.3244 29.1125 9.32294 29.1168 9.32147 29.121C9.31195 29.1486 9.30203 29.176 9.29171 29.2034C9.27341 29.2518 9.25387 29.2998 9.23311 29.3473C9.21803 29.3818 9.20228 29.416 9.1859 29.45C9.18194 29.4582 9.17791 29.4665 9.17384 29.4747C9.17059 29.4813 9.16734 29.4878 9.16406 29.4944C9.15988 29.5027 9.15563 29.511 9.15134 29.5194C9.14866 29.5246 9.14598 29.5298 9.14327 29.535C9.13862 29.5439 9.13394 29.5528 9.1292 29.5616C9.11425 29.5896 9.09879 29.6175 9.0829 29.6451L9.08256 29.6457L16.8303 34.123ZM22.0796 34.123L29.8273 29.6457C29.8147 29.6238 29.8023 29.6016 29.7902 29.5794C29.787 29.5734 29.7838 29.5675 29.7806 29.5615C29.776 29.5528 29.7713 29.5439 29.7666 29.535C29.7639 29.5298 29.7612 29.5246 29.7586 29.5194C29.7537 29.51 29.7489 29.5005 29.7442 29.491C29.7418 29.4862 29.7394 29.4814 29.737 29.4766C29.7323 29.4671 29.7277 29.4576 29.7231 29.4481C29.7196 29.4409 29.7161 29.4335 29.7126 29.4262C29.7112 29.4232 29.7098 29.4202 29.7085 29.4173L29.7126 29.4262C29.706 29.4121 29.6995 29.398 29.693 29.3838C29.6824 29.3604 29.6721 29.3368 29.6621 29.3131L29.6609 29.3103C29.6346 29.248 29.6105 29.1849 29.5884 29.121C29.5869 29.1168 29.5855 29.1125 29.584 29.1082C29.5806 29.0982 29.5773 29.0882 29.574 29.0781C29.5724 29.0735 29.5709 29.0689 29.5694 29.0642C29.5664 29.0548 29.5634 29.0454 29.5604 29.0359C29.553 29.0122 29.5458 28.9883 29.539 28.9644C29.5373 28.9585 29.5357 28.9526 29.534 28.9467C29.5253 28.9155 29.517 28.8841 29.5093 28.8527C29.5023 28.8242 29.4957 28.7955 29.4895 28.7668C29.4881 28.7601 29.4867 28.7533 29.4852 28.7465C29.4797 28.7199 29.4745 28.6933 29.4697 28.6666C29.4659 28.6453 29.4622 28.6239 29.4588 28.6025L29.4577 28.595C29.4339 28.4423 29.4216 28.2876 29.4213 28.1323C29.4213 28.1249 29.4213 28.1175 29.4213 28.1101C29.4214 28.1036 29.4214 28.0972 29.4215 28.0908L29.4213 28.1101C29.4214 28.0953 29.4216 28.0806 29.4219 28.0658C29.4221 28.054 29.4224 28.0421 29.4228 28.0303C29.423 28.0228 29.4233 28.0153 29.4236 28.0078C29.424 27.9985 29.4244 27.9893 29.4248 27.98C29.4251 27.9741 29.4254 27.9681 29.4257 27.9621C29.4271 27.936 29.4289 27.9099 29.431 27.8838C29.4318 27.8742 29.4326 27.8646 29.4334 27.855C29.4394 27.7883 29.4477 27.7215 29.4582 27.6549C29.459 27.6499 29.4598 27.645 29.4606 27.64C29.4655 27.6101 29.4708 27.5801 29.4766 27.5502C29.4777 27.5449 29.4787 27.5395 29.4798 27.5342C29.4821 27.5226 29.4845 27.511 29.4869 27.4994C29.4881 27.494 29.4893 27.4885 29.4904 27.4831C29.4923 27.4746 29.4942 27.466 29.4961 27.4575C29.4983 27.448 29.5005 27.4384 29.5028 27.4288C29.5095 27.4004 29.5167 27.3721 29.5243 27.3439C29.5274 27.3321 29.5307 27.3202 29.534 27.3084C29.5358 27.3021 29.5376 27.2959 29.5394 27.2897L25.8891 25.1801C25.4292 25.3961 24.9157 25.5167 24.3741 25.5167L20.2691 25.5168L20.2691 32.7175C20.2841 32.7217 20.299 32.726 20.3138 32.7303C20.3183 32.7317 20.3228 32.733 20.3273 32.7343C20.3379 32.7375 20.3485 32.7408 20.3591 32.7441C20.3644 32.7458 20.3698 32.7475 20.3752 32.7492C20.3849 32.7523 20.3945 32.7554 20.4041 32.7586C20.4097 32.7604 20.4153 32.7623 20.4209 32.7641C20.4472 32.773 20.4733 32.7822 20.4992 32.7917C20.5036 32.7933 20.508 32.795 20.5125 32.7966C20.5212 32.7999 20.5298 32.8031 20.5384 32.8064C20.5615 32.8153 20.5845 32.8244 20.6073 32.8338C20.6416 32.848 20.6756 32.8627 20.7093 32.878C20.7277 32.8864 20.7459 32.8949 20.764 32.9036C20.7701 32.9066 20.7763 32.9096 20.7824 32.9126C20.8202 32.931 20.8574 32.9502 20.8942 32.9701C20.9037 32.9752 20.9131 32.9804 20.9226 32.9856C20.9268 32.988 20.9311 32.9904 20.9354 32.9928C20.9433 32.9972 20.9511 33.0017 20.9589 33.0062C20.9671 33.0108 20.9751 33.0155 20.9832 33.0202C20.9888 33.0235 20.9945 33.0268 21.0001 33.0302C21.0098 33.0359 21.0193 33.0417 21.0288 33.0475C21.0318 33.0493 21.0347 33.0511 21.0376 33.0529C21.0489 33.0598 21.0601 33.0668 21.0714 33.0739C21.0753 33.0764 21.0792 33.0789 21.0832 33.0814C21.0903 33.086 21.0974 33.0906 21.1045 33.0952C21.1116 33.0998 21.1187 33.1045 21.1258 33.1092C21.1324 33.1135 21.1389 33.1178 21.1453 33.1222C21.1519 33.1266 21.1585 33.1311 21.1651 33.1356C21.1741 33.1418 21.1831 33.1481 21.1921 33.1544C21.2174 33.1721 21.2423 33.1902 21.267 33.2086C21.2854 33.2224 21.3037 33.2364 21.3218 33.2506C21.3279 33.2554 21.334 33.2602 21.3401 33.265C21.3848 33.3007 21.4286 33.3376 21.4712 33.3756C21.4763 33.3801 21.4814 33.3847 21.4864 33.3893C21.496 33.398 21.5055 33.4066 21.5148 33.4154C21.518 33.4183 21.5212 33.4213 21.5244 33.4243C21.5285 33.4281 21.5326 33.432 21.5367 33.4358C21.5448 33.4435 21.5529 33.4513 21.561 33.4591C21.5652 33.4632 21.5693 33.4672 21.5734 33.4712C21.5784 33.476 21.5834 33.481 21.5883 33.4859L21.5976 33.4951C21.6003 33.4978 21.6029 33.5005 21.6055 33.5031C21.6234 33.5212 21.6411 33.5394 21.6586 33.558L21.6624 33.562C21.6766 33.5772 21.6907 33.5925 21.7047 33.6079C21.7163 33.6208 21.7278 33.6337 21.7392 33.6468C21.7558 33.6659 21.7721 33.6851 21.7883 33.7046C21.7926 33.7098 21.797 33.7151 21.8013 33.7204C21.8076 33.7281 21.8139 33.7359 21.8201 33.7437C21.8355 33.7628 21.8506 33.7821 21.8654 33.8016C21.87 33.8077 21.8746 33.8138 21.8792 33.8199C21.8832 33.8251 21.8871 33.8304 21.891 33.8357C21.8973 33.8442 21.9035 33.8527 21.9097 33.8612C21.9131 33.8659 21.9164 33.8705 21.9197 33.8751C21.9261 33.884 21.9324 33.8929 21.9387 33.9019C21.9418 33.9063 21.9448 33.9107 21.9479 33.9151C21.9534 33.9231 21.9589 33.9312 21.9644 33.9393C21.9685 33.9453 21.9725 33.9513 21.9765 33.9573C22.0068 34.0026 22.0358 34.0488 22.0637 34.0958L22.0796 34.123ZM7.17939 29.3797C7.72445 29.0648 7.98653 28.4476 7.87635 27.8617C7.87562 27.8574 7.8748 27.8532 7.87396 27.8489L7.87635 27.8617C7.87191 27.8381 7.86686 27.8145 7.86119 27.791C7.8367 27.6894 7.8009 27.5896 7.75369 27.4934C7.75148 27.4888 7.7492 27.4843 7.7469 27.4797L7.75369 27.4934C7.74866 27.4831 7.7435 27.4729 7.73821 27.4627L7.7469 27.4797C7.7404 27.4668 7.73369 27.4539 7.72676 27.4412L7.70755 27.4068C7.68788 27.3727 7.66699 27.3396 7.64496 27.3077C7.64167 27.3029 7.63836 27.2981 7.63502 27.2934L7.64496 27.3077C7.6378 27.2973 7.63051 27.287 7.62311 27.2768L7.63502 27.2934C7.62728 27.2825 7.61942 27.2717 7.61143 27.261L7.62311 27.2768C7.61454 27.2651 7.60582 27.2534 7.59694 27.242L7.61143 27.261C7.60452 27.2518 7.59752 27.2426 7.59043 27.2336L7.59694 27.242C7.58862 27.2313 7.58016 27.2207 7.57157 27.2102L7.59043 27.2336C7.58244 27.2235 7.57434 27.2135 7.56613 27.2036L7.57157 27.2102C7.55645 27.1918 7.54091 27.1738 7.52499 27.1563C7.07833 26.6644 6.33504 26.5322 5.73644 26.8781C5.04629 27.277 4.80983 28.1603 5.20829 28.8511C5.60675 29.5419 6.48924 29.7786 7.17939 29.3797ZM33.7016 28.8511C34.1001 28.1603 33.8636 27.277 33.1734 26.8781C32.6264 26.562 31.9586 26.6451 31.5067 27.0372C31.4973 27.0453 31.488 27.0535 31.4788 27.0619L31.4517 27.0874C31.4368 27.1018 31.4221 27.1166 31.4077 27.1317C31.4042 27.1354 31.4008 27.139 31.3974 27.1427L31.4077 27.1317C31.4001 27.1397 31.3926 27.1478 31.3851 27.156L31.3974 27.1427C31.3891 27.1516 31.3809 27.1606 31.3728 27.1698L31.3851 27.156C31.3765 27.1655 31.3679 27.1752 31.3595 27.185L31.3728 27.1698C31.3642 27.1795 31.3557 27.1894 31.3473 27.1994L31.3595 27.185C31.3511 27.1947 31.3429 27.2046 31.3347 27.2146L31.3473 27.1994C31.3215 27.2302 31.2968 27.2623 31.2734 27.2955C31.2707 27.2993 31.268 27.3032 31.2653 27.3072L31.2734 27.2955C31.2482 27.3312 31.2245 27.3684 31.2023 27.4068C31.1957 27.4183 31.1893 27.4298 31.183 27.4414C31.1806 27.4458 31.1783 27.4502 31.1759 27.4546L31.183 27.4414C31.176 27.4543 31.1693 27.4672 31.1627 27.4802L31.1759 27.4546C31.1694 27.4669 31.1632 27.4792 31.1571 27.4916L31.1627 27.4802C31.1573 27.4911 31.1519 27.502 31.1468 27.513L31.1571 27.4916C31.1507 27.5046 31.1445 27.5176 31.1385 27.5306L31.1468 27.513C31.1342 27.5397 31.1224 27.5666 31.1115 27.5938C31.11 27.5977 31.1084 27.6016 31.1069 27.6055L31.1115 27.5938C31.0905 27.6464 31.0727 27.6999 31.0581 27.754C31.0563 27.7607 31.0546 27.7673 31.0529 27.774L31.0581 27.754C31.0548 27.7662 31.0517 27.7785 31.0487 27.7908L31.0529 27.774C31.0499 27.7859 31.047 27.7978 31.0443 27.8097L31.0487 27.7908C31.0453 27.8047 31.0422 27.8187 31.0393 27.8326L31.0443 27.8097C31.0414 27.8225 31.0387 27.8353 31.0362 27.8481L31.0393 27.8326C31.0369 27.8439 31.0347 27.8551 31.0326 27.8663L31.0362 27.8481C30.9193 28.438 31.1812 29.0623 31.7305 29.3797C32.4207 29.7786 33.3031 29.5419 33.7016 28.8511ZM19.4549 37.0841C20.2519 37.0841 20.8979 36.4375 20.8979 35.6398C20.8979 35.0292 20.5193 34.507 19.9842 34.2958C19.9803 34.2941 19.9763 34.2926 19.9724 34.291L19.9842 34.2958C19.9743 34.2919 19.9644 34.2881 19.9544 34.2844L19.9724 34.291C19.9607 34.2866 19.9489 34.2822 19.9371 34.278L19.9544 34.2844C19.9433 34.2803 19.9321 34.2763 19.9208 34.2724L19.9371 34.278C19.9253 34.2739 19.9134 34.2698 19.9014 34.2659L19.9208 34.2724C19.9083 34.2682 19.8958 34.2641 19.8831 34.2602L19.9014 34.2659C19.8891 34.2619 19.8766 34.2581 19.8642 34.2544L19.8831 34.2602C19.8722 34.2568 19.8612 34.2535 19.8502 34.2504L19.8642 34.2544C19.8522 34.2509 19.8401 34.2475 19.8281 34.2443L19.8502 34.2504C19.8371 34.2467 19.824 34.2431 19.8108 34.2398L19.8281 34.2443C19.7987 34.2364 19.7691 34.2295 19.7392 34.2235C19.7328 34.2223 19.7265 34.221 19.7202 34.2199L19.7392 34.2235C19.7278 34.2213 19.7163 34.2191 19.7048 34.2171L19.7202 34.2199C19.7072 34.2175 19.6942 34.2152 19.6811 34.2132L19.7048 34.2171C19.691 34.2147 19.6771 34.2125 19.6632 34.2105L19.6811 34.2132C19.6719 34.2117 19.6627 34.2104 19.6535 34.2091L19.6632 34.2105C19.6489 34.2084 19.6345 34.2065 19.6201 34.2049L19.6535 34.2091C19.6408 34.2073 19.6281 34.2058 19.6153 34.2043L19.6201 34.2049C19.608 34.2035 19.5958 34.2023 19.5836 34.2012L19.6153 34.2043C19.6016 34.2028 19.5878 34.2015 19.5739 34.2004L19.5836 34.2012C19.57 34.2 19.5564 34.199 19.5428 34.1982L19.5739 34.2004C19.5607 34.1993 19.5475 34.1984 19.5343 34.1977L19.5428 34.1982C19.5299 34.1974 19.517 34.1968 19.5041 34.1963L19.5343 34.1977C19.508 34.1962 19.4816 34.1955 19.4549 34.1955L19.4157 34.196C19.4124 34.1961 19.4091 34.1962 19.4059 34.1963L19.4157 34.196C19.4023 34.1964 19.3889 34.1969 19.3756 34.1977L19.4059 34.1963C19.3929 34.1968 19.38 34.1974 19.3671 34.1982L19.3756 34.1977C19.3624 34.1984 19.3492 34.1993 19.336 34.2004L19.3671 34.1982C19.3534 34.199 19.3398 34.2 19.3263 34.2012L19.336 34.2004C19.3221 34.2015 19.3083 34.2028 19.2945 34.2044L19.3263 34.2012C19.3141 34.2023 19.3019 34.2035 19.2898 34.2049L19.2945 34.2044C19.2816 34.2058 19.2687 34.2074 19.2558 34.2092L19.2898 34.2049C19.2758 34.2065 19.2618 34.2083 19.2478 34.2103L19.2558 34.2092C19.2463 34.2105 19.2369 34.2119 19.2275 34.2134L19.2478 34.2103C19.2335 34.2124 19.2192 34.2146 19.2049 34.2171L19.2275 34.2134C19.2161 34.2152 19.2046 34.2171 19.1933 34.2192L19.2049 34.2171C19.1932 34.2192 19.1815 34.2214 19.1698 34.2237L19.1933 34.2192C19.1611 34.2251 19.1293 34.2321 19.0979 34.2401C19.0933 34.2412 19.0887 34.2425 19.084 34.2437L19.0979 34.2401C19.085 34.2433 19.0722 34.2468 19.0594 34.2504L19.084 34.2437C19.0721 34.2468 19.0603 34.2502 19.0485 34.2536L19.0594 34.2504C19.0479 34.2537 19.0364 34.2571 19.025 34.2607L19.0485 34.2536C19.0353 34.2575 19.0223 34.2615 19.0093 34.2657L19.025 34.2607C19.013 34.2644 19.001 34.2683 18.9892 34.2723L19.0093 34.2657C18.997 34.2697 18.9848 34.2738 18.9727 34.2781L18.9892 34.2723C18.9779 34.2762 18.9667 34.2802 18.9555 34.2843L18.9727 34.2781C18.9608 34.2824 18.9489 34.2868 18.937 34.2913L18.9555 34.2843C18.9459 34.2878 18.9364 34.2915 18.9268 34.2952L18.937 34.2913C18.396 34.4997 18.012 35.0249 18.012 35.6398C18.012 36.4375 18.658 37.0841 19.4549 37.0841Z" fill="#376FFF"/>
<path fill-rule="evenodd" clip-rule="evenodd" d="M92.0131 10.2915C98.1786 10.2915 102.603 14.8851 102.603 20.5629V20.62C102.603 26.2978 98.1215 30.9484 91.956 30.9484C85.7905 30.9484 81.3662 26.3548 81.3662 20.6771V20.62C81.3662 14.9422 85.8475 10.2915 92.0131 10.2915ZM52.9256 10.3581C55.8305 10.3581 58.3082 11.2703 60.3303 12.8951L58.0519 16.2017C56.2861 14.976 54.5489 14.2348 52.8686 14.2348C51.1883 14.2348 50.3055 15.0045 50.3055 15.9736V16.0306C50.3055 17.3419 51.1598 17.7694 54.6059 18.6531C58.65 19.7078 60.9284 21.1616 60.9284 24.6392V24.6962C60.9284 28.6585 57.9096 30.8818 53.6091 30.8818C50.5902 30.8818 47.543 29.8271 45.1506 27.6892L47.7423 24.5821C49.5365 26.0645 51.4162 27.0052 53.6945 27.0052C55.4887 27.0052 56.571 26.2925 56.571 25.1238V25.0668C56.571 23.9551 55.8875 23.385 52.5554 22.5298C48.5397 21.5036 45.9481 20.392 45.9481 16.4297V16.3727C45.9481 12.7526 48.853 10.3581 52.9256 10.3581ZM139.351 10.6247V23.6919C139.351 28.5422 136.504 30.8818 132.29 30.8818C129.187 30.8818 127.137 29.5123 125.77 27.8861L128.532 24.8047C129.671 26.06 130.781 26.8019 132.176 26.8019C133.828 26.8019 134.853 25.8033 134.853 23.4922V15.0892L128.3 15.0893V10.6247H139.351ZM79.5687 10.6247V14.6799H73.5055V30.6153H69.1218V14.6799H63.0587V10.6247H79.5687ZM115.451 10.6247C120.153 10.6247 122.975 13.1092 122.975 17.2215V17.2786C122.975 20.5057 121.236 22.5334 118.7 23.4757L123.573 30.6153H118.443L114.168 24.2183H110.72V30.6153H106.331V10.6247H115.451ZM91.956 14.3562C88.4153 14.3562 85.9597 17.1465 85.9597 20.563V20.62C85.9597 24.0365 88.4724 26.8837 92.0131 26.8837C95.5537 26.8837 98.0093 24.0934 98.0093 20.6769V20.62C98.0093 17.2034 95.4967 14.3562 91.956 14.3562ZM115.074 14.6228H110.725V20.3534H115.159C117.291 20.3534 118.514 19.213 118.514 17.5309V17.4739C118.514 15.5921 117.206 14.6228 115.074 14.6228Z" fill="#091C45"/>
</svg>
