<svg width="55" height="54" viewBox="0 0 55 54" fill="none" xmlns="http://www.w3.org/2000/svg">
<rect width="55" height="54" fill="#E5E5E5"/>
<g clip-path="url(#clip0_11080_68109)">
<rect width="1440" height="1247" transform="translate(-892 -250)" fill="#FAFAFB"/>
<g filter="url(#filter0_d_11080_68109)">
<rect x="-24" y="-24" width="524" height="208" rx="10" fill="white"/>
<rect width="54.3028" height="54" rx="20" fill="#FFA800" fill-opacity="0.1"/>
<path d="M31.7726 15C29.9695 15 28.3354 15.336 27.0583 15.969C25.7822 16.602 24.7333 17.633 24.7333 19V23C24.7333 23.129 24.7766 23.254 24.7967 23.375C23.7901 23.1206 22.7551 22.9946 21.7165 23C19.9134 23 18.2793 23.336 17.0022 23.969C15.7261 24.602 14.6772 25.633 14.6772 27V35C14.6772 36.367 15.7261 37.398 17.0032 38.031C18.2793 38.664 19.9134 39 21.7165 39C23.5196 39 25.1537 38.664 26.4308 38.031C27.7059 37.398 28.7557 36.367 28.7557 35V34.594C29.7395 34.8585 30.7535 34.9949 31.7726 35C33.5756 35 35.2097 34.664 36.4869 34.031C37.762 33.398 38.8118 32.367 38.8118 31V19C38.8118 17.633 37.763 16.602 36.4859 15.969C35.2107 15.336 33.5766 15 31.7726 15ZM31.7726 17C33.3041 17 34.6677 17.328 35.5748 17.781C36.4828 18.234 36.8006 18.711 36.8006 19C36.8006 19.29 36.4828 19.766 35.5748 20.219C34.6687 20.672 33.3041 21 31.7726 21C30.241 21 28.8774 20.672 27.9704 20.219C27.0623 19.766 26.7445 19.289 26.7445 19C26.7445 18.71 27.0623 18.234 27.9704 17.781C28.8764 17.328 30.241 17 31.7726 17ZM26.7445 21.844C26.8501 21.902 26.9487 21.977 27.0593 22.031C28.3354 22.664 29.9695 23 31.7726 23C33.5756 23 35.2097 22.664 36.4869 22.031C36.5965 21.977 36.695 21.902 36.8006 21.844V23C36.8006 23.29 36.4828 23.766 35.5748 24.219C34.6677 24.672 33.3041 25 31.7726 25C30.241 25 28.8774 24.672 27.9704 24.219C27.0623 23.766 26.7445 23.289 26.7445 23V21.844ZM21.7165 25C23.248 25 24.6116 25.328 25.5187 25.781C26.4268 26.234 26.7445 26.711 26.7445 27C26.7445 27.29 26.4268 27.766 25.5187 28.219C24.6116 28.672 23.248 29 21.7165 29C20.185 29 18.8214 28.672 17.9143 28.219C17.0062 27.766 16.6885 27.289 16.6885 27C16.6885 26.71 17.0062 26.234 17.9143 25.781C18.8203 25.328 20.185 25 21.7165 25ZM36.8006 25.844V27C36.8006 27.29 36.4828 27.766 35.5748 28.219C34.6677 28.672 33.3041 29 31.7726 29C30.7482 29.0055 29.7296 28.8472 28.7557 28.531V27C28.7557 26.871 28.7125 26.746 28.6924 26.625C29.6276 26.867 30.6644 27 31.7726 27C33.5756 27 35.2097 26.664 36.4869 26.031C36.5965 25.977 36.695 25.902 36.8006 25.844ZM16.6885 29.844C16.794 29.902 16.8926 29.977 17.0032 30.031C18.2793 30.664 19.9134 31 21.7165 31C23.5196 31 25.1537 30.664 26.4308 30.031C26.5404 29.977 26.6389 29.902 26.7445 29.844V31C26.7445 31.29 26.4268 31.766 25.5187 32.219C24.6116 32.672 23.248 33 21.7165 33C20.185 33 18.8214 32.672 17.9143 32.219C17.0062 31.766 16.6885 31.289 16.6885 31V29.844ZM36.8006 29.844V31C36.8006 31.29 36.4828 31.766 35.5748 32.219C34.6677 32.672 33.3041 33 31.7726 33C30.6292 33 29.5964 32.84 28.7557 32.562V30.625C29.6789 30.867 30.6845 31 31.7726 31C33.5756 31 35.2097 30.664 36.4869 30.031C36.5965 29.977 36.695 29.902 36.8006 29.844ZM16.6885 33.844C16.794 33.902 16.8926 33.977 17.0032 34.031C18.2793 34.664 19.9134 35 21.7165 35C23.5196 35 25.1537 34.664 26.4308 34.031C26.5404 33.977 26.6389 33.902 26.7445 33.844V35C26.7445 35.29 26.4268 35.766 25.5187 36.219C24.6116 36.672 23.248 37 21.7165 37C20.185 37 18.8214 36.672 17.9143 36.219C17.0062 35.766 16.6885 35.289 16.6885 35V33.844Z" fill="#FFA800"/>
</g>
</g>
<defs>
<filter id="filter0_d_11080_68109" x="-44" y="-44" width="564" height="248" filterUnits="userSpaceOnUse" color-interpolation-filters="sRGB">
<feFlood flood-opacity="0" result="BackgroundImageFix"/>
<feColorMatrix in="SourceAlpha" type="matrix" values="0 0 0 0 0 0 0 0 0 0 0 0 0 0 0 0 0 0 127 0" result="hardAlpha"/>
<feOffset/>
<feGaussianBlur stdDeviation="10"/>
<feColorMatrix type="matrix" values="0 0 0 0 0 0 0 0 0 0 0 0 0 0 0 0 0 0 0.04 0"/>
<feBlend mode="normal" in2="BackgroundImageFix" result="effect1_dropShadow_11080_68109"/>
<feBlend mode="normal" in="SourceGraphic" in2="effect1_dropShadow_11080_68109" result="shape"/>
</filter>
<clipPath id="clip0_11080_68109">
<rect width="1440" height="1247" fill="white" transform="translate(-892 -250)"/>
</clipPath>
</defs>
</svg>
