<svg width="16" height="15" viewBox="0 0 16 15" fill="none" xmlns="http://www.w3.org/2000/svg">
<rect width="16" height="15" fill="#E5E5E5"/>
<g clip-path="url(#clip0_11080_68109)">
<rect width="1440" height="1134" transform="translate(-1289 -182)" fill="#FAFAFB"/>
<g filter="url(#filter0_d_11080_68109)">
<path d="M-16 -4C-16 -8.41828 -12.4183 -12 -8 -12H94C98.4183 -12 102 -8.41828 102 -4V20C102 24.4183 98.4183 28 94 28H-8C-12.4183 28 -16 24.4183 -16 20V-4Z" fill="white"/>
<path d="M11.6298 0.799805C11.9825 0.799805 12.27 1.07873 12.2838 1.42802L12.2843 1.45435L12.2845 1.95023C12.7134 2.03323 13.0125 2.15631 13.3127 2.31689C13.9139 2.63842 14.3858 3.11025 14.7073 3.71147L14.7349 3.76376L14.7754 3.84369C15.0529 4.40549 15.2 5.02927 15.2 6.55354V10.1856C15.2 11.8301 15.0288 12.4265 14.7073 13.0277C14.3858 13.6289 13.9139 14.1007 13.3127 14.4223L13.2604 14.4499L13.1805 14.4904C12.6187 14.7679 11.9949 14.915 10.4706 14.915H5.52946C3.88494 14.915 3.2886 14.7438 2.68739 14.4223C2.08618 14.1007 1.61434 13.6289 1.29281 13.0277L1.26441 12.9738L1.22393 12.8939C0.951218 12.3413 0.804672 11.728 0.800049 10.2565V6.55354C0.800049 4.90902 0.971278 4.31268 1.29281 3.71147C1.61434 3.11025 2.08618 2.63842 2.68739 2.31689L2.74127 2.28848C3.03759 2.13461 3.34035 2.01732 3.77524 1.9391L3.77526 1.45435C3.77526 1.09285 4.06831 0.799805 4.4298 0.799805C4.78248 0.799805 5.07001 1.07873 5.08383 1.42802L5.08435 1.45435L5.08426 1.82875L5.22929 1.82609C5.30335 1.82503 5.37975 1.82437 5.45862 1.82413H10.4706C10.6511 1.82413 10.8189 1.82619 10.9755 1.83028L10.9753 1.45435C10.9753 1.09285 11.2683 0.799805 11.6298 0.799805ZM13.8908 7.06047H2.10902L2.10914 10.2524L2.10992 10.3771C2.11922 11.5359 2.20912 11.9652 2.44718 12.4103C2.64671 12.7834 2.93167 13.0684 3.30475 13.2679L3.35151 13.2924L3.39925 13.3162C3.81404 13.518 4.26422 13.5974 5.34045 13.6053L5.52946 13.6059H10.4706C11.7724 13.6059 12.2277 13.518 12.6953 13.2679C13.0684 13.0684 13.3534 12.7834 13.5529 12.4103L13.5774 12.3636L13.6012 12.3158C13.803 11.901 13.8824 11.4509 13.8903 10.3746L13.891 10.1856L13.8908 7.06047ZM10.4707 3.13322H5.46264L5.33794 3.134C5.2492 3.13471 5.16474 3.1359 5.08422 3.13759L5.08435 3.97903C5.08435 4.34052 4.7913 4.63357 4.4298 4.63357C4.07712 4.63357 3.78959 4.35464 3.77578 4.00535L3.77526 3.97903L3.77526 3.27922C3.60148 3.32828 3.454 3.39144 3.30475 3.47126C2.93167 3.67078 2.64671 3.95575 2.44718 4.32883L2.42271 4.37559C2.2487 4.71564 2.15908 5.06428 2.12533 5.75134H13.8748C13.8395 5.03277 13.7431 4.68437 13.5529 4.32883C13.3534 3.95575 13.0684 3.67078 12.6953 3.47126L12.6486 3.44679C12.5326 3.38741 12.4155 3.33787 12.2844 3.29701L12.2843 3.97903C12.2843 4.34052 11.9913 4.63357 11.6298 4.63357C11.2771 4.63357 10.9896 4.35464 10.9758 4.00535L10.9753 3.97903L10.9754 3.13872C10.8765 3.1363 10.7715 3.13471 10.6597 3.13389L10.4707 3.13322Z" fill="#56606D"/>
<path d="M-8 -11H94V-13H-8V-11ZM101 -4V20H103V-4H101ZM94 27H-8V29H94V27ZM-15 20V-4H-17V20H-15ZM-8 27C-11.866 27 -15 23.866 -15 20H-17C-17 24.9706 -12.9706 29 -8 29V27ZM101 20C101 23.866 97.866 27 94 27V29C98.9706 29 103 24.9706 103 20H101ZM94 -11C97.866 -11 101 -7.86599 101 -4H103C103 -8.97056 98.9706 -13 94 -13V-11ZM-8 -13C-12.9706 -13 -17 -8.97056 -17 -4H-15C-15 -7.86599 -11.866 -11 -8 -11V-13Z" fill="#D8DEE3"/>
</g>
</g>
<defs>
<filter id="filter0_d_11080_68109" x="-19" y="-15" width="124" height="46" filterUnits="userSpaceOnUse" color-interpolation-filters="sRGB">
<feFlood flood-opacity="0" result="BackgroundImageFix"/>
<feColorMatrix in="SourceAlpha" type="matrix" values="0 0 0 0 0 0 0 0 0 0 0 0 0 0 0 0 0 0 127 0" result="hardAlpha"/>
<feOffset/>
<feGaussianBlur stdDeviation="1.5"/>
<feColorMatrix type="matrix" values="0 0 0 0 0 0 0 0 0 0 0 0 0 0 0 0 0 0 0.08 0"/>
<feBlend mode="normal" in2="BackgroundImageFix" result="effect1_dropShadow_11080_68109"/>
<feBlend mode="normal" in="SourceGraphic" in2="effect1_dropShadow_11080_68109" result="shape"/>
</filter>
<clipPath id="clip0_11080_68109">
<rect width="1440" height="1134" fill="white" transform="translate(-1289 -182)"/>
</clipPath>
</defs>
</svg>
