<svg width="64" height="50" viewBox="0 0 61 47" fill="none" xmlns="http://www.w3.org/2000/svg">
    <path fill-rule="evenodd" clip-rule="evenodd" d="M36.8378 12.7027C36.8378 19.0167 41.9563 24.1351 48.2703 24.1351V41.9189C48.2703 44.0236 46.5641 45.7297 44.4594 45.7297H5.08107C2.97642 45.7297 1.27026 44.0236 1.27026 41.9189V16.5135C1.27026 14.4089 2.97642 12.7027 5.08107 12.7027H36.8378Z" stroke="#2683FF" stroke-width="2"/>
    <path fill-rule="evenodd" clip-rule="evenodd" d="M48.2703 24.1352V27.946H1.27026V20.3243L39.7496 20.3251C41.8429 22.6636 44.8847 24.1352 48.2703 24.1352Z" fill="#2683FF"/>
    <path d="M48.2703 24.1351C54.5842 24.1351 59.7027 19.0167 59.7027 12.7027C59.7027 6.38875 54.5842 1.27028 48.2703 1.27028C41.9563 1.27028 36.8378 6.38875 36.8378 12.7027C36.8378 19.0167 41.9563 24.1351 48.2703 24.1351Z" stroke="#2683FF" stroke-width="2"/>
    <path d="M48.2703 5.71622V19.5737M41.3415 12.645H55.199H41.3415Z" stroke="#2683FF" stroke-width="2" stroke-linecap="round" stroke-linejoin="round"/>
</svg>
