<svg width="26" height="17" viewBox="0 0 26 17" fill="none" xmlns="http://www.w3.org/2000/svg">
<path fill-rule="evenodd" clip-rule="evenodd" d="M25.005 2.08375V5.33444C23.8198 5.89514 23 7.10183 23 8.5C23 9.89817 23.8198 11.1049 25.005 11.6656V14.5863C25.005 15.6281 25.005 16.1491 24.7445 16.4095C24.4841 16.67 23.9631 16.67 22.9213 16.67H2.08375C1.04188 16.67 0.520938 16.67 0.260469 16.4095C0 16.1491 0 15.6281 0 14.5863V11.6632C1.18247 11.1015 2 9.8962 2 8.5C2 7.1038 1.18247 5.89855 0 5.33682V2.08375C0 1.04188 0 0.520938 0.260469 0.260469C0.520938 0 1.04188 0 2.08375 0H22.9213C23.9631 0 24.4841 0 24.7445 0.260469C25.005 0.520938 25.005 1.04188 25.005 2.08375ZM6 4H19V13H6V4ZM4 2H6H19H21V4V13V15H19H6H4V13V4V2Z" fill="#CCCCCC"/>
</svg>
