<svg width="64" height="46.125" fill="none" version="1.1" viewBox="0 0 64 46.125" xmlns="http://www.w3.org/2000/svg">
 <path d="m1.625 12c-0.89746231 0-1.625 0.727537-1.625 1.625v9.355469c1.9597256 1.311781 3.25 3.546706 3.25 6.082031s-1.2902744 4.770169-3.25 6.082031v9.355469c0 0.897487 0.72753769 1.625 1.625 1.625h48.75c0.897487 0 1.625-0.727513 1.625-1.625v-8.884766c-2.407762-1.196569-4.0625-3.681603-4.0625-6.552734 0-1.560052 0.491789-3.004181 1.324219-4.191406a12 12 0 0 1-6.199219-2.882813v20.886719h-34.9375v-27.625h31.115234a12 12 0 0 1-0.240234-2.25 12 12 0 0 1 0.07227-1zm9.75 6.5v21.125h28.4375v-21.125z" fill="#2683ff" stroke-width=".8125"/>
 <circle cx="51" cy="13" r="12" fill="none" stroke="#2683ff" stroke-width="2"/>
 <path d="m44 13h14m-7-7v14" fill="none" stroke="#2683ff" stroke-linecap="round" stroke-width="2"/>
</svg>
