<svg width="20" height="20" viewBox="0 0 20 20" fill="none" xmlns="http://www.w3.org/2000/svg">
    <path class="date-picker-svg-path" d="M16.3213 2.28026H14.8009V1.50058C14.8009 1.10058 14.4806 0.760742 14.0611 0.760742C13.6611 0.760742 13.3213 1.08106 13.3213 1.50058V2.28026H6.66106V1.50058C6.66106 1.10058 6.34074 0.760742 5.92122 0.760742C5.5009 0.760742 5.2009 1.10058 5.2009 1.50058V2.28026H3.68058C1.92042 2.28026 0.500977 3.70058 0.500977 5.45986V16.0599C0.500977 17.82 1.9213 19.2395 3.68058 19.2395H16.3204C18.0805 19.2395 19.5 17.8191 19.5 16.0599V5.45986C19.5008 3.70048 18.0804 2.28026 16.321 2.28026H16.3213ZM3.68066 3.74042H5.20098V4.5201C5.20098 4.9201 5.5213 5.25994 5.94082 5.25994C6.36114 5.25994 6.68066 4.93962 6.68066 4.5201V3.74042H13.3603V4.5201C13.3603 4.9201 13.6806 5.25994 14.1001 5.25994C14.5001 5.25994 14.8399 4.93962 14.8399 4.5201V3.74042H16.3603C17.3001 3.74042 18.0806 4.50058 18.0806 5.46074V7.06074H1.96098V5.46074C1.96098 4.5209 2.74066 3.74042 3.68052 3.74042H3.68066ZM9.62126 14.2006H10.4009C11.0213 14.2006 11.5213 14.7006 11.5213 15.3209C11.5213 15.9413 11.0213 16.4413 10.4009 16.4413H9.62126C9.00094 16.4413 8.50094 15.9413 8.50094 15.3209C8.50094 14.7006 9.00094 14.2006 9.62126 14.2006ZM8.50094 10.8404C8.50094 10.2201 9.00094 9.7201 9.62126 9.7201L10.4009 9.72088C11.0213 9.72088 11.5213 10.2209 11.5213 10.8412C11.5213 11.4615 11.0213 11.9615 10.4009 11.9615H9.62126C9.00094 11.9607 8.50094 11.4607 8.50094 10.8404V10.8404ZM14.8407 14.2006H15.6204C16.2407 14.2006 16.7407 14.7006 16.7407 15.3209C16.7407 15.9413 16.2407 16.4413 15.6204 16.4413H14.8407C14.2204 16.4413 13.7204 15.9413 13.7204 15.3209C13.7212 14.7006 14.2212 14.2006 14.8407 14.2006ZM13.7212 10.8404C13.7212 10.2201 14.2212 9.7201 14.8415 9.7201H15.6212C16.2415 9.7201 16.7415 10.2201 16.7415 10.8404C16.7415 11.4607 16.2415 11.9607 15.6212 11.9607H14.8415C14.2212 11.9607 13.7212 11.4607 13.7212 10.8404ZM6.2806 10.8404C6.2806 11.4607 5.7806 11.9607 5.16028 11.9607H4.3806C3.76028 11.9607 3.26028 11.4607 3.26028 10.8404C3.26028 10.2201 3.76028 9.7201 4.3806 9.7201H5.16028C5.7806 9.72088 6.2806 10.2209 6.2806 10.8404ZM4.3806 14.2006H5.16028C5.7806 14.2006 6.2806 14.7006 6.2806 15.3209C6.2806 15.9413 5.7806 16.4413 5.16028 16.4413H4.3806C3.76028 16.4413 3.26028 15.9413 3.26028 15.3209C3.26106 14.7006 3.76106 14.2006 4.3806 14.2006Z" fill="#2683FF"/>
</svg>
