<svg width="50" height="64" viewBox="0 0 50 64" fill="none" xmlns="http://www.w3.org/2000/svg">
    <path d="M0.727539 63.1155H49.2735V21.5049H0.727539V63.1155ZM26.613 24.7869H46.0469V40.6688H26.613V24.7869ZM26.613 43.9508H46.0469V59.8327H26.613V43.9508ZM3.95335 24.7869H23.3872V40.6688H3.95335V24.7869ZM3.95335 43.9508H23.3872V59.8327H3.95335V43.9508Z" fill="#2683FF"/>
    <path d="M7.98497 18.0622C9.54626 18.9328 11.0374 19.0723 12.4842 19.0723C12.8285 19.0723 37.1721 19.0723 37.5172 19.0723C38.9632 19.0723 40.4559 18.9328 42.0164 18.0622C46.3648 15.6384 47.9648 10.0663 45.5826 5.64214C44.4285 3.49896 42.5237 1.94081 40.218 1.25568C37.9124 0.571371 35.4826 0.839679 33.3769 2.01301C32.5963 2.44706 31.8648 3.0485 31.1414 3.85014C29.8446 5.28604 28.8076 7.12563 27.893 8.7486C27.5035 9.44029 27.135 10.0926 26.7793 10.6596L25.0003 13.4903L23.2229 10.6596C22.8672 10.0934 22.4995 9.44029 22.1092 8.7486C21.1938 7.12563 20.1575 5.28686 18.8608 3.85014C18.1374 3.0485 17.4059 2.44788 16.6261 2.01301C12.2761 -0.411604 6.8011 1.21711 4.41884 5.64132C2.03658 10.0663 3.63658 15.6384 7.98497 18.0622ZM29.4955 12.4278C29.893 11.7952 30.2801 11.1092 30.689 10.3831C31.5608 8.83722 32.4616 7.23804 33.5156 6.07209C33.9906 5.54614 34.4648 5.14901 34.9253 4.89301C36.2753 4.1406 37.835 3.96665 39.3124 4.40727C40.7906 4.84706 42.0132 5.84563 42.7527 7.21999C44.2801 10.0573 43.2543 13.6307 40.4656 15.1847C39.2906 15.8395 38.0842 15.8099 36.5632 15.7755C36.26 15.7689 35.9511 15.7615 35.6382 15.7591L27.435 15.7074L29.4955 12.4278ZM7.24787 7.21917C8.29545 5.27373 10.2745 4.17178 12.3156 4.17178C13.2511 4.17178 14.1995 4.40399 15.0769 4.89219C15.5366 5.14819 16.0108 5.5445 16.4858 6.07127C17.5398 7.23804 18.4406 8.8364 19.3124 10.3822C19.7221 11.1084 20.1084 11.7943 20.5059 12.427L22.5672 15.7074L14.364 15.7591C14.0503 15.7607 13.7422 15.7681 13.439 15.7755C11.9124 15.8099 10.7108 15.8395 9.53658 15.1847C6.74626 13.629 5.72045 10.0565 7.24787 7.21917Z" fill="#2683FF"/>
</svg>