<svg width="67" height="41" viewBox="0 0 67 41" fill="none" xmlns="http://www.w3.org/2000/svg">
<rect width="67" height="41" fill="#E5E5E5"/>
<rect width="1440" height="1024" transform="translate(-684 -359)" fill="black" fill-opacity="0.1"/>
<g filter="url(#filter0_d_11080_68109)">
<rect x="-166" y="-46" width="399" height="398" rx="10" fill="white"/>
<path d="M2.45602 3.07375C1.60874 1.7423 2.56517 0 4.14335 0H64.5C65.6046 0 66.5 0.89543 66.5 2V5.125V10.25V15.375V20.5V25.625V30.75V35.875V39C66.5 40.1046 65.6046 41 64.5 41H4.28775C2.68022 41 1.72956 39.1996 2.63614 37.8721L3.22971 37.0029C3.69424 36.3227 3.69424 35.4273 3.22971 34.7471L1.27029 31.8779C0.805758 31.1977 0.805758 30.3023 1.27029 29.6221L3.22971 26.7529C3.69424 26.0727 3.69424 25.1773 3.22971 24.4971L1.27029 21.6279C0.805758 20.9477 0.805758 20.0523 1.27029 19.3721L3.22971 16.5029C3.69424 15.8227 3.69424 14.9273 3.22971 14.2471L1.30031 11.4219C0.820971 10.72 0.837611 9.79181 1.3418 9.10756L3.18681 6.60361C3.6769 5.93849 3.70758 5.04048 3.26402 4.34346L2.45602 3.07375Z" fill="#00E366"/>
<path d="M4.22447 4.13026C4.17619 3.37413 4.57126 2.63854 5.2283 2.26122C5.32287 2.4904 5.57531 2.61901 5.82094 2.55252C5.94581 2.51872 6.08037 2.5 6.22385 2.5H7.22879C7.50493 2.5 7.72879 2.27614 7.72879 2H12.7584C12.7584 2.27614 12.9822 2.5 13.2584 2.5H15.2682C15.5444 2.5 15.7682 2.27614 15.7682 2H20.7978C20.7978 2.27614 21.0217 2.5 21.2978 2.5H23.3077C23.5838 2.5 23.8077 2.27614 23.8077 2H28.8373C28.8373 2.27614 29.0611 2.5 29.3373 2.5H31.3471C31.6233 2.5 31.8471 2.27614 31.8471 2H36.8767C36.8767 2.27614 37.1006 2.5 37.3767 2.5H39.3866C39.6627 2.5 39.8866 2.27614 39.8866 2H44.9162C44.9162 2.27614 45.14 2.5 45.4162 2.5H47.426C47.7022 2.5 47.926 2.27614 47.926 2H52.9556C52.9556 2.27614 53.1795 2.5 53.4556 2.5H55.4655C55.7416 2.5 55.9655 2.27614 55.9655 2H60.9951C60.9951 2.27614 61.2189 2.5 61.4951 2.5H62.5C62.6008 2.5 62.6988 2.50988 62.7933 2.52856C63.0433 2.57801 63.2866 2.43183 63.3647 2.1961C63.7746 2.39294 64.1071 2.72537 64.3039 3.13525C64.0682 3.21345 63.922 3.45674 63.9714 3.70671C63.9901 3.80117 64 3.89918 64 4V4.32812C64 4.60427 64.2239 4.82812 64.5 4.82812V5.79688C64.2239 5.79688 64 6.02073 64 6.29688V6.625V7.20312C64 7.47927 64.2239 7.70312 64.5 7.70312V10.1719C64.2239 10.1719 64 10.3957 64 10.6719V11.25V11.8281C64 12.1043 64.2239 12.3281 64.5 12.3281V14.7969C64.2239 14.7969 64 15.0207 64 15.2969V15.875V16.4531C64 16.7293 64.2239 16.9531 64.5 16.9531V19.4219C64.2239 19.4219 64 19.6457 64 19.9219V20.5V21.0781C64 21.3543 64.2239 21.5781 64.5 21.5781V24.0469C64.2239 24.0469 64 24.2707 64 24.5469V25.125V25.7031C64 25.9793 64.2239 26.2031 64.5 26.2031V28.6719C64.2239 28.6719 64 28.8957 64 29.1719V29.75V30.3281C64 30.6043 64.2239 30.8281 64.5 30.8281V33.2969C64.2239 33.2969 64 33.5207 64 33.7969V34.375V34.7031C64 34.9793 64.2239 35.2031 64.5 35.2031V36.1719C64.2239 36.1719 64 36.3957 64 36.6719V37C64 37.1008 63.9901 37.1988 63.9714 37.2933C63.922 37.5433 64.0682 37.7866 64.3039 37.8647C64.1071 38.2746 63.7746 38.6071 63.3647 38.8039C63.2866 38.5682 63.0433 38.422 62.7933 38.4714C62.6988 38.4901 62.6008 38.5 62.5 38.5H61.4978C61.2216 38.5 60.9978 38.7239 60.9978 39H55.9845C55.9845 38.7239 55.7606 38.5 55.4845 38.5H53.48C53.2039 38.5 52.98 38.7239 52.98 39H47.9667C47.9667 38.7239 47.7428 38.5 47.4667 38.5H45.4622C45.1861 38.5 44.9622 38.7239 44.9622 39H39.9489C39.9489 38.7239 39.7251 38.5 39.4489 38.5H37.4445C37.1683 38.5 36.9445 38.7239 36.9445 39H31.9312C31.9312 38.7239 31.7073 38.5 31.4312 38.5H29.4267C29.1506 38.5 28.9267 38.7239 28.9267 39H23.9134C23.9134 38.7239 23.6895 38.5 23.4134 38.5H21.409C21.1328 38.5 20.909 38.7239 20.909 39H15.8956C15.8956 38.7239 15.6718 38.5 15.3956 38.5H13.3912C13.1151 38.5 12.8912 38.7239 12.8912 39H7.87788C7.87788 38.7239 7.65402 38.5 7.37788 38.5H6.37566C6.22959 38.5 6.09296 38.4807 5.96649 38.446C5.72114 38.3786 5.46826 38.5062 5.37281 38.735C4.70234 38.3463 4.30883 37.5838 4.38052 36.8121C4.62228 36.8669 4.87283 36.7347 4.96006 36.4957C5.00503 36.3725 5.06846 36.2499 5.15309 36.1309L5.18041 36.0925C5.20887 36.0524 5.23059 36.0097 5.24581 35.9655C5.28256 35.9366 5.31583 35.902 5.34429 35.8619L5.37161 35.8235C5.44699 35.7175 5.51323 35.6069 5.57026 35.4929C5.6938 35.2459 5.59374 34.9455 5.34677 34.822C5.32778 34.8125 5.30848 34.8043 5.28896 34.7974C5.34902 34.5192 5.34902 34.2308 5.28896 33.9526C5.30848 33.9457 5.32778 33.9375 5.34677 33.928C5.59374 33.8045 5.6938 33.5041 5.57026 33.2571C5.51323 33.1431 5.44699 33.0325 5.37161 32.9265L5.16657 32.6381C5.00657 32.413 4.69442 32.3602 4.46935 32.5202L3.81853 31.6048C4.0436 31.4448 4.09635 31.1326 3.93635 30.9075L3.73131 30.6191C3.6859 30.5552 3.64614 30.4888 3.61197 30.4205C3.49793 30.1925 3.23322 30.0897 2.99891 30.1724C2.93886 29.8942 2.93886 29.6058 2.99891 29.3276C3.23322 29.4103 3.49793 29.3075 3.61197 29.0795C3.64614 29.0112 3.6859 28.9448 3.73131 28.8809L3.93635 28.5925C4.09635 28.3674 4.0436 28.0552 3.81853 27.8952L4.46935 26.9798C4.69442 27.1397 5.00657 27.087 5.16657 26.8619L5.37161 26.5735C5.44699 26.4675 5.51323 26.3569 5.57026 26.2429C5.6938 25.9959 5.59374 25.6955 5.34677 25.572C5.32778 25.5625 5.30848 25.5543 5.28896 25.5474C5.34902 25.2692 5.34902 24.9808 5.28896 24.7026C5.30848 24.6957 5.32778 24.6875 5.34677 24.678C5.59374 24.5545 5.6938 24.2541 5.57026 24.0071C5.51323 23.8931 5.44699 23.7825 5.37161 23.6765L5.16657 23.3881C5.00657 23.163 4.69442 23.1102 4.46935 23.2702L3.81853 22.3548C4.0436 22.1948 4.09635 21.8826 3.93635 21.6575L3.73131 21.3691C3.6859 21.3052 3.64614 21.2388 3.61197 21.1705C3.49793 20.9425 3.23322 20.8397 2.99891 20.9224C2.93886 20.6442 2.93886 20.3558 2.99891 20.0776C3.23322 20.1603 3.49793 20.0575 3.61197 19.8295C3.64614 19.7612 3.6859 19.6948 3.73131 19.6309L3.93635 19.3425C4.09635 19.1174 4.0436 18.8052 3.81853 18.6452L4.46935 17.7298C4.69442 17.8898 5.00657 17.837 5.16657 17.6119L5.37161 17.3235C5.44699 17.2175 5.51323 17.1069 5.57026 16.9929C5.6938 16.7459 5.59374 16.4455 5.34677 16.322C5.32778 16.3125 5.30848 16.3043 5.28897 16.2974C5.34902 16.0192 5.34902 15.7308 5.28897 15.4526C5.30848 15.4457 5.32778 15.4375 5.34677 15.428C5.59374 15.3045 5.6938 15.0041 5.57026 14.7571C5.51323 14.6431 5.44699 14.5325 5.37161 14.4265L5.17058 14.1437C5.01058 13.9186 4.69843 13.8659 4.47336 14.0259L3.8466 13.1442C4.07167 12.9842 4.12442 12.6721 3.96442 12.447L3.76339 12.1642C3.7166 12.0984 3.67582 12.0299 3.64099 11.9595C3.52798 11.731 3.26374 11.6271 3.02908 11.7087C2.96651 11.4122 2.97209 11.1048 3.04538 10.8108C3.27693 10.9009 3.54477 10.8066 3.66599 10.5824C3.70336 10.5132 3.74659 10.4463 3.79574 10.3822L3.9858 10.1344C4.15386 9.91532 4.11248 9.60145 3.89337 9.43339L4.42512 8.74011C4.64424 8.90817 4.9581 8.86679 5.12616 8.64768L5.31622 8.39989C5.39562 8.29637 5.466 8.18796 5.52725 8.07575C5.65957 7.83337 5.57035 7.52962 5.32797 7.3973C5.30934 7.38713 5.29034 7.37827 5.27109 7.37068C5.3415 7.09308 5.35155 6.80317 5.30051 6.52137C5.32024 6.51513 5.3398 6.5076 5.35909 6.49874C5.61004 6.38352 5.72007 6.08667 5.60484 5.83571C5.55149 5.71954 5.48879 5.60651 5.41674 5.49775L5.36131 5.41408C5.29888 5.31983 5.21001 5.25361 5.11101 5.21872C5.1175 5.11396 5.09119 5.00629 5.02876 4.91204L4.97333 4.82837C4.89409 4.70876 4.83539 4.58624 4.79461 4.46347C4.71439 4.22197 4.46777 4.08255 4.22447 4.13026Z" stroke="#B1FFEC" stroke-linecap="round" stroke-dasharray="2 6"/>
<path d="M33.5625 25.7273V24.8068C33.5625 24.0909 33.7159 23.429 34.0227 22.821C34.3352 22.2131 34.7869 21.7244 35.3778 21.3551C35.9688 20.9858 36.6903 20.8011 37.5426 20.8011C38.4119 20.8011 39.142 20.9858 39.733 21.3551C40.3295 21.7188 40.7784 22.2045 41.0795 22.8125C41.3864 23.4148 41.5398 24.0795 41.5398 24.8068V25.7273C41.5398 26.4432 41.3864 27.1051 41.0795 27.7131C40.7727 28.321 40.321 28.8097 39.7244 29.179C39.1278 29.5483 38.4006 29.733 37.5426 29.733C36.679 29.733 35.9517 29.5483 35.3608 29.179C34.7699 28.8097 34.321 28.321 34.0142 27.7131C33.7131 27.1051 33.5625 26.4432 33.5625 25.7273ZM36.2812 24.8068V25.7273C36.2812 26.0909 36.3693 26.4403 36.5455 26.7756C36.7273 27.1108 37.0597 27.2784 37.5426 27.2784C38.0369 27.2784 38.3693 27.1165 38.5398 26.7926C38.7102 26.4631 38.7955 26.108 38.7955 25.7273V24.8068C38.7955 24.4261 38.7131 24.0682 38.5483 23.733C38.3892 23.392 38.054 23.2216 37.5426 23.2216C37.0653 23.2216 36.7358 23.392 36.554 23.733C36.3722 24.0682 36.2812 24.4261 36.2812 24.8068ZM24.5114 15.7386V14.8182C24.5114 14.0909 24.6676 13.4261 24.9801 12.8239C25.2983 12.2159 25.7528 11.7301 26.3438 11.3665C26.9347 10.9972 27.6506 10.8125 28.4915 10.8125C29.3608 10.8125 30.0909 10.9972 30.6818 11.3665C31.2784 11.7301 31.7301 12.2159 32.0369 12.8239C32.3438 13.4261 32.4972 14.0909 32.4972 14.8182V15.7386C32.4972 16.4659 32.3409 17.1307 32.0284 17.733C31.7216 18.3352 31.2699 18.8153 30.6733 19.1733C30.0767 19.5312 29.3494 19.7102 28.4915 19.7102C27.6335 19.7102 26.9063 19.5284 26.3097 19.1648C25.7188 18.8011 25.2699 18.3182 24.9631 17.7159C24.6619 17.1136 24.5114 16.4545 24.5114 15.7386ZM27.2557 14.8182V15.7386C27.2557 16.1193 27.3438 16.4744 27.5199 16.804C27.7017 17.1278 28.0256 17.2898 28.4915 17.2898C28.9915 17.2898 29.3239 17.1278 29.4886 16.804C29.6591 16.4744 29.7443 16.1193 29.7443 15.7386V14.8182C29.7443 14.4375 29.6648 14.0795 29.5057 13.7443C29.3466 13.4034 29.0085 13.233 28.4915 13.233C28.0142 13.233 27.6875 13.4062 27.5114 13.7528C27.3409 14.0994 27.2557 14.4545 27.2557 14.8182ZM25.7983 29L37.7983 11.5455H40.125L28.125 29H25.7983Z" fill="#00AC26"/>
</g>
<defs>
<filter id="filter0_d_11080_68109" x="-186" y="-59" width="439" height="438" filterUnits="userSpaceOnUse" color-interpolation-filters="sRGB">
<feFlood flood-opacity="0" result="BackgroundImageFix"/>
<feColorMatrix in="SourceAlpha" type="matrix" values="0 0 0 0 0 0 0 0 0 0 0 0 0 0 0 0 0 0 127 0" result="hardAlpha"/>
<feOffset dy="7"/>
<feGaussianBlur stdDeviation="10"/>
<feColorMatrix type="matrix" values="0 0 0 0 0 0 0 0 0 0 0 0 0 0 0 0 0 0 0.15 0"/>
<feBlend mode="normal" in2="BackgroundImageFix" result="effect1_dropShadow_11080_68109"/>
<feBlend mode="normal" in="SourceGraphic" in2="effect1_dropShadow_11080_68109" result="shape"/>
</filter>
</defs>
</svg>
