<svg width="20" height="20" viewBox="0 0 20 20" fill="none" xmlns="http://www.w3.org/2000/svg">
    <path d="M10 8.33398V10.834C9.63365 10.8346 9.27773 10.956 8.98727 11.1792C8.69681 11.4025 8.488 11.7152 8.39313 12.0691C8.29827 12.4229 8.32263 12.7982 8.46245 13.1368C8.60228 13.4754 8.84978 13.7585 9.16667 13.9423V15.0007C9.16667 15.2217 9.25446 15.4336 9.41074 15.5899C9.56702 15.7462 9.77899 15.834 10 15.834V18.334H4.16667C3.72464 18.334 3.30072 18.1584 2.98816 17.8458C2.67559 17.5333 2.5 17.1093 2.5 16.6673V10.0007C2.5 9.08398 3.25 8.33398 4.16667 8.33398H10Z" fill="#3F3F3F"/>
    <path d="M9.9987 15.8337C10.2197 15.8337 10.4317 15.7459 10.588 15.5896C10.7442 15.4333 10.832 15.2213 10.832 15.0003V13.942C11.1489 13.7582 11.3964 13.4751 11.5362 13.1364C11.6761 12.7978 11.7004 12.4226 11.6056 12.0687C11.5107 11.7149 11.3019 11.4021 11.0114 11.1789C10.721 10.9556 10.365 10.8343 9.9987 10.8337V8.33366H12.4987V5.83366C12.4987 5.17062 12.2353 4.53473 11.7665 4.06589C11.2976 3.59705 10.6617 3.33366 9.9987 3.33366C9.33566 3.33366 8.69977 3.59705 8.23093 4.06589C7.76209 4.53473 7.4987 5.17062 7.4987 5.83366V8.33366H5.83203V5.83366C5.83203 4.72859 6.27102 3.66878 7.05242 2.88738C7.83382 2.10598 8.89363 1.66699 9.9987 1.66699C11.1038 1.66699 12.1636 2.10598 12.945 2.88738C13.7264 3.66878 14.1654 4.72859 14.1654 5.83366V8.33366H15.832C16.2741 8.33366 16.698 8.50925 17.0105 8.82181C17.3231 9.13438 17.4987 9.5583 17.4987 10.0003V16.667C17.4987 17.109 17.3231 17.5329 17.0105 17.8455C16.698 18.1581 16.2741 18.3337 15.832 18.3337H9.9987V15.8337Z" fill="#3F3F3F"/>
</svg>
