<svg width="16" height="18" viewBox="0 0 16 18" fill="none" xmlns="http://www.w3.org/2000/svg">
    <path d="M8 7.3335V9.8335C7.63365 9.83414 7.27773 9.95548 6.98727 10.1787C6.69681 10.402 6.488 10.7147 6.39313 11.0686C6.29827 11.4224 6.32263 11.7977 6.46245 12.1363C6.60228 12.4749 6.84978 12.758 7.16667 12.9418V14.0002C7.16667 14.2212 7.25446 14.4331 7.41074 14.5894C7.56702 14.7457 7.77899 14.8335 8 14.8335V17.3335H2.16667C1.72464 17.3335 1.30072 17.1579 0.988155 16.8453C0.675595 16.5328 0.5 16.1089 0.5 15.6668V9.00016C0.5 8.0835 1.25 7.3335 2.16667 7.3335H8Z" fill="#34BF89"/>
    <path d="M8.00016 14.8334C8.22118 14.8334 8.43314 14.7456 8.58942 14.5893C8.7457 14.4331 8.8335 14.2211 8.8335 14.0001V12.9417C9.15039 12.7579 9.39788 12.4748 9.53771 12.1362C9.67753 11.7976 9.7019 11.4223 9.60703 11.0685C9.51217 10.7146 9.30336 10.4019 9.0129 10.1787C8.72244 9.9554 8.36651 9.83406 8.00016 9.83341V7.33341H10.5002V4.83341C10.5002 4.17037 10.2368 3.53449 9.76793 3.06565C9.29909 2.59681 8.6632 2.33341 8.00016 2.33341C7.33712 2.33341 6.70124 2.59681 6.2324 3.06565C5.76355 3.53449 5.50016 4.17037 5.50016 4.83341V7.33341H3.8335V4.83341C3.8335 3.72835 4.27248 2.66854 5.05388 1.88714C5.83529 1.10573 6.89509 0.666748 8.00016 0.666748C9.10523 0.666748 10.165 1.10573 10.9464 1.88714C11.7278 2.66854 12.1668 3.72835 12.1668 4.83341V7.33341H13.8335C14.2755 7.33341 14.6994 7.50901 15.012 7.82157C15.3246 8.13413 15.5002 8.55805 15.5002 9.00008V15.6667C15.5002 16.1088 15.3246 16.5327 15.012 16.8453C14.6994 17.1578 14.2755 17.3334 13.8335 17.3334H8.00016V14.8334Z" fill="#34BF89"/>
</svg>
