<svg width="40" height="40" viewBox="0 0 40 40" fill="none" xmlns="http://www.w3.org/2000/svg">
    <path d="M37.0275 30.9607C36.5353 30.0514 36.04 29.1404 35.5463 28.2264C34.6275 26.531 33.7103 24.8357 32.7931 23.1404C31.6916 21.1091 30.5931 19.0748 29.4931 17.0436C28.4307 15.0826 27.3713 13.1248 26.3088 11.1656C25.5275 9.72492 24.7494 8.28276 23.9681 6.84076C23.7572 6.45014 23.5463 6.05952 23.3353 5.672C23.1166 5.26576 22.8853 4.87512 22.5541 4.54388C21.3979 3.3798 19.4791 3.15636 18.0885 4.03608C17.4916 4.41421 17.0604 4.95016 16.7291 5.5642C16.2213 6.50172 15.7135 7.4392 15.2057 8.37984C14.2807 10.0908 13.3541 11.8017 12.4291 13.5126C11.3151 15.5548 10.2104 17.6018 9.10102 19.6486C8.05102 21.5893 6.99946 23.5268 5.9479 25.469C5.17914 26.8909 4.40882 28.3097 3.63854 29.7314C3.43541 30.1064 3.2323 30.4814 3.02918 30.8564C2.7448 31.3846 2.52138 31.9189 2.45106 32.5283C2.25262 34.2502 3.45886 35.9471 5.12606 36.369C5.5667 36.4815 6.00106 36.4861 6.44638 36.4861H33.9464H33.9901C34.8964 36.4674 35.7558 36.1268 36.4198 35.5096C37.0604 34.9158 37.4354 34.1033 37.5417 33.2439C37.6432 32.4346 37.4089 31.6689 37.0276 30.9611L37.0275 30.9607ZM18.4367 13.9527C18.4367 13.0777 19.1523 12.4293 19.9992 12.3902C20.8429 12.3512 21.5617 13.1371 21.5617 13.9527V24.9559C21.5617 25.8309 20.846 26.4794 19.9992 26.5184C19.1554 26.5575 18.4367 25.7715 18.4367 24.9559V13.9527ZM19.9992 31.8403C19.1211 31.8403 18.4085 31.1294 18.4085 30.2497C18.4085 29.3716 19.1195 28.659 19.9992 28.659C20.8773 28.659 21.5898 29.37 21.5898 30.2497C21.5898 31.1278 20.8773 31.8403 19.9992 31.8403Z" fill="#F4D638"/>
</svg>