<svg width="40" height="40" viewBox="0 0 40 40" fill="none" xmlns="http://www.w3.org/2000/svg">
    <rect width="40" height="40" rx="10" fill="#EB5757"/>
    <path d="M20.5 22.75C21.7676 22.75 22.8047 21.645 22.8047 20.2944V10.4556C22.8047 10.3328 22.797 10.2019 22.7816 10.0791C22.6126 8.90857 21.6523 8 20.5 8C19.2324 8 18.1953 9.10502 18.1953 10.4556V20.2862C18.1953 21.645 19.2324 22.75 20.5 22.75Z" fill="#F5F5F9"/>
    <path d="M20.5 25.1465C18.7146 25.1465 17.2734 26.5877 17.2734 28.373C17.2734 30.1584 18.7146 31.5996 20.5 31.5996C22.2853 31.5996 23.7265 30.1584 23.7265 28.373C23.7337 26.5877 22.2925 25.1465 20.5 25.1465Z" fill="#F5F5F9"/>
</svg>