<svg width="15" height="10" viewBox="0 0 15 10" fill="none" xmlns="http://www.w3.org/2000/svg">
    <path d="M0.495399 5.75514C-0.165133 5.12956 -0.165133 4.1153 0.495399 3.48973C1.15593 2.86415 2.22687 2.86415 2.8874 3.48973L6.87406 7.26541C7.53459 7.89098 7.53459 8.90524 6.87406 9.53082C6.21353 10.1564 5.14259 10.1564 4.48206 9.53082L0.495399 5.75514Z" fill="#2683FF"/>
    <path d="M6.87406 9.53082C6.21353 10.1564 5.14259 10.1564 4.48206 9.53082C3.82153 8.90524 3.82153 7.89098 4.48206 7.26541L11.6581 0.469182C12.3186 -0.156394 13.3895 -0.156394 14.0501 0.469182C14.7106 1.09476 14.7106 2.10902 14.0501 2.73459L6.87406 9.53082Z" fill="#2683FF"/>
</svg>
