<svg width="22" height="22" viewBox="0 0 22 22" fill="none" xmlns="http://www.w3.org/2000/svg">
    <circle cx="11" cy="11" r="10.5" stroke="white"/>
    <path d="M5.17423 11.8324C4.63467 11.2929 4.63467 10.4181 5.17423 9.8785C5.7138 9.33894 6.5886 9.33894 7.12817 9.8785L10.3847 13.1351C10.9243 13.6746 10.9243 14.5494 10.3847 15.089C9.84516 15.6286 8.97036 15.6286 8.43079 15.089L5.17423 11.8324Z" fill="white"/>
    <path d="M10.3847 15.089C9.84516 15.6286 8.97036 15.6286 8.43079 15.089C7.89123 14.5494 7.89123 13.6746 8.43079 13.1351L14.2926 7.27325C14.8322 6.73369 15.707 6.73369 16.2465 7.27325C16.7861 7.81282 16.7861 8.68762 16.2465 9.22719L10.3847 15.089Z" fill="white"/>
</svg>
