<svg width="55" height="54" viewBox="0 0 55 54" fill="none" xmlns="http://www.w3.org/2000/svg">
<rect width="55" height="54" fill="#E5E5E5"/>
<g clip-path="url(#clip0_11080_68109)">
<rect width="1440" height="1247" transform="translate(-344 -250)" fill="#FAFAFB"/>
<g filter="url(#filter0_d_11080_68109)">
<rect x="-24" y="-24" width="524" height="208" rx="10" fill="white"/>
<rect width="54.3028" height="54" rx="20" transform="matrix(-1 0 0 1 54.3027 0)" fill="#003DC1" fill-opacity="0.1"/>
<path d="M32.2699 18C31.727 18 31.2843 18.4111 31.2631 18.9259L31.2623 18.9647L31.2623 34.5321H29.8375L29.8374 24.7532C29.8374 24.2333 29.408 23.8095 28.8702 23.7892L28.8297 23.7884H24.8501C24.3071 23.7884 23.8645 24.1995 23.8432 24.7144L23.8424 24.7532L23.8425 34.5321H22.3259V30.717C22.3259 30.1972 21.8965 29.7734 21.3588 29.753L21.3183 29.7522H17.3386C16.7957 29.7522 16.353 30.1634 16.3318 30.6782L16.331 30.717L16.331 34.5321H15.8221C15.2656 34.5321 14.8145 34.964 14.8145 35.4968C14.8145 36.0166 15.2438 36.4404 15.7816 36.4608L15.8221 36.4615H37.8068C38.3633 36.4615 38.8145 36.0296 38.8145 35.4968C38.8145 34.977 38.3851 34.5532 37.8473 34.5328L37.8068 34.5321H37.2572V18.9647C37.2572 18.4449 36.8278 18.0211 36.2901 18.0008L36.2496 18H32.2699ZM18.3463 34.5321V31.6817H20.3106V34.5321H18.3463ZM25.8578 25.7179H27.8221L27.8223 34.5321H25.8578V25.7179ZM33.2776 19.9295H35.2419V34.5321H33.2776V19.9295Z" fill="#003DC1"/>
</g>
</g>
<defs>
<filter id="filter0_d_11080_68109" x="-44" y="-44" width="564" height="248" filterUnits="userSpaceOnUse" color-interpolation-filters="sRGB">
<feFlood flood-opacity="0" result="BackgroundImageFix"/>
<feColorMatrix in="SourceAlpha" type="matrix" values="0 0 0 0 0 0 0 0 0 0 0 0 0 0 0 0 0 0 127 0" result="hardAlpha"/>
<feOffset/>
<feGaussianBlur stdDeviation="10"/>
<feColorMatrix type="matrix" values="0 0 0 0 0 0 0 0 0 0 0 0 0 0 0 0 0 0 0.04 0"/>
<feBlend mode="normal" in2="BackgroundImageFix" result="effect1_dropShadow_11080_68109"/>
<feBlend mode="normal" in="SourceGraphic" in2="effect1_dropShadow_11080_68109" result="shape"/>
</filter>
<clipPath id="clip0_11080_68109">
<rect width="1440" height="1247" fill="white" transform="translate(-344 -250)"/>
</clipPath>
</defs>
</svg>
