<svg width="16" height="14" viewBox="0 0 16 14" fill="none" xmlns="http://www.w3.org/2000/svg">
<path d="M14.5772 2.86476C14.9216 2.86476 15.2008 3.14397 15.2008 3.48838C15.2008 3.8244 14.935 4.09835 14.6022 4.11151L14.5772 4.11201H13.2906L12.3266 11.9845C12.1873 13.1218 11.2215 13.9766 10.0757 13.9766H6.01904C4.88188 13.9766 3.92055 13.1344 3.77102 12.0071L2.72369 4.11201H1.4244C1.07999 4.11201 0.800781 3.8328 0.800781 3.48838C0.800781 3.15237 1.06653 2.87842 1.39932 2.86526L1.4244 2.86476H14.5772ZM12.034 4.11201H3.98193L5.00743 11.8431C5.0734 12.3404 5.49049 12.7144 5.98903 12.7289L6.01904 12.7293H10.0757C10.5812 12.7293 11.0089 12.3596 11.0845 11.8628L11.0886 11.8329L12.034 4.11201ZM7.0609 6.32448L7.06495 6.34966L7.06794 6.37457L7.46489 10.3441C7.49916 10.6868 7.24913 10.9924 6.90642 11.0266C6.57207 11.0601 6.27304 10.8229 6.22683 10.4931L6.22384 10.4682L5.82689 6.49868C5.79262 6.15597 6.04266 5.85037 6.38536 5.8161C6.71114 5.78352 7.00339 6.00785 7.0609 6.32448ZM9.84295 5.81634C10.1773 5.84978 10.4234 6.14147 10.4034 6.47391L10.4014 6.49892L10.0048 10.4654C9.9705 10.8081 9.6649 11.0582 9.32219 11.0239C8.98784 10.9905 8.7417 10.6988 8.76171 10.3663L8.76372 10.3413L9.16037 6.37482C9.19464 6.03211 9.50024 5.78207 9.84295 5.81634ZM10.0417 0.200195C10.3861 0.200195 10.6653 0.4794 10.6653 0.823817C10.6653 1.15983 10.3996 1.43378 10.0668 1.44694L10.0417 1.44744H5.95984C5.61542 1.44744 5.33621 1.16823 5.33621 0.823817C5.33621 0.487801 5.60197 0.213854 5.93475 0.20069L5.95984 0.200195H10.0417Z" fill="#56606D"/>
</svg>
