<svg width="16" height="15" viewBox="0 0 16 15" fill="none" xmlns="http://www.w3.org/2000/svg">
<path d="M11.6305 0.799805C11.9832 0.799805 12.2707 1.07873 12.2846 1.42802L12.2851 1.45435L12.2852 1.95023C12.7142 2.03323 13.0132 2.15631 13.3134 2.31689C13.9147 2.63842 14.3865 3.11025 14.708 3.71147L14.7356 3.76376L14.7761 3.84369C15.0537 4.40549 15.2008 5.02927 15.2008 6.55354V10.1856C15.2008 11.8301 15.0296 12.4265 14.708 13.0277C14.3865 13.6289 13.9147 14.1007 13.3134 14.4223L13.2611 14.4499L13.1812 14.4904C12.6194 14.7679 11.9956 14.915 10.4714 14.915H5.5302C3.88567 14.915 3.28933 14.7438 2.68812 14.4223C2.08691 14.1007 1.61507 13.6289 1.29354 13.0277L1.26514 12.9738L1.22467 12.8939C0.951951 12.3413 0.805404 11.728 0.800781 10.2565V6.55354C0.800781 4.90902 0.97201 4.31268 1.29354 3.71147C1.61507 3.11025 2.08691 2.63842 2.68812 2.31689L2.742 2.28848C3.03832 2.13461 3.34109 2.01732 3.77597 1.9391L3.77599 1.45435C3.77599 1.09285 4.06904 0.799805 4.43053 0.799805C4.78321 0.799805 5.07074 1.07873 5.08456 1.42802L5.08508 1.45435L5.085 1.82875L5.23003 1.82609C5.30409 1.82503 5.38049 1.82437 5.45935 1.82413H10.4714C10.6518 1.82413 10.8196 1.82619 10.9762 1.83028L10.976 1.45435C10.976 1.09285 11.269 0.799805 11.6305 0.799805ZM13.8916 7.06047H2.10975L2.10987 10.2524L2.11066 10.3771C2.11995 11.5359 2.20985 11.9652 2.44792 12.4103C2.64744 12.7834 2.93241 13.0684 3.30549 13.2679L3.35224 13.2924L3.39998 13.3162C3.81477 13.518 4.26495 13.5974 5.34118 13.6053L5.5302 13.6059H10.4714C11.7731 13.6059 12.2284 13.518 12.6961 13.2679C13.0692 13.0684 13.3541 12.7834 13.5536 12.4103L13.5781 12.3636L13.602 12.3158C13.8038 11.901 13.8831 11.4509 13.891 10.3746L13.8917 10.1856L13.8916 7.06047ZM10.4714 3.13322H5.46337L5.33868 3.134C5.24994 3.13471 5.16547 3.1359 5.08495 3.13759L5.08508 3.97903C5.08508 4.34052 4.79203 4.63357 4.43053 4.63357C4.07785 4.63357 3.79032 4.35464 3.77651 4.00535L3.77599 3.97903L3.77599 3.27922C3.60221 3.32828 3.45474 3.39144 3.30549 3.47126C2.93241 3.67078 2.64744 3.95575 2.44792 4.32883L2.42344 4.37559C2.24943 4.71564 2.15981 5.06428 2.12606 5.75134H13.8755C13.8402 5.03277 13.7438 4.68437 13.5536 4.32883C13.3541 3.95575 13.0692 3.67078 12.6961 3.47126L12.6493 3.44679C12.5333 3.38741 12.4163 3.33787 12.2851 3.29701L12.2851 3.97903C12.2851 4.34052 11.992 4.63357 11.6305 4.63357C11.2779 4.63357 10.9903 4.35464 10.9765 4.00535L10.976 3.97903L10.9762 3.13872C10.8772 3.1363 10.7722 3.13471 10.6604 3.13389L10.4714 3.13322Z" fill="white"/>
</svg>
