<svg width="16" height="18" viewBox="0 0 16 18" fill="none" xmlns="http://www.w3.org/2000/svg">
    <path d="M7.94232 0C12.3287 0 15.8846 1.41577 15.8846 3.16222C15.8846 3.18684 15.8839 3.21139 15.8825 3.23587L15.8846 3.23576L15.8812 3.25676C15.8747 3.34414 15.8594 3.43063 15.8355 3.5161L13.6784 15.7376C13.6578 16.9885 11.0975 18 7.94232 18C4.80603 18 2.25762 17.0006 2.20697 15.7601L2.20649 15.7376L0.0496288 3.51771C0.0253459 3.43129 0.00981089 3.34382 0.00338464 3.25544L0 3.23576L0.00211202 3.23587C0.000706552 3.21139 0 3.18684 0 3.16222C0 1.41577 3.5559 0 7.94232 0ZM7.94232 6.32444C5.57808 6.32444 3.45511 5.91314 2.00017 5.26045L3.5636 14.1197L3.81923 15.4762L3.84291 15.4946C3.9766 15.5948 4.18351 15.7078 4.45219 15.8167L4.50675 15.8385C5.37281 16.1771 6.60689 16.3821 7.94232 16.3821C9.28547 16.3821 10.5259 16.1747 11.392 15.8329C11.7041 15.7097 11.9368 15.5803 12.0734 15.4701L12.0845 15.4609L13.8846 5.26039C12.4297 5.91312 10.3066 6.32444 7.94232 6.32444ZM7.94232 1.61788C6.0014 1.61788 4.2014 1.921 2.92472 2.42932C2.37614 2.64773 1.96798 2.88827 1.73308 3.10939C1.71811 3.12348 1.70445 3.13691 1.69205 3.14963L1.68024 3.16207L1.70159 3.18448L1.73308 3.21505C1.96798 3.43617 2.37614 3.67671 2.92472 3.89513C4.2014 4.40344 6.0014 4.70656 7.94232 4.70656C9.88324 4.70656 11.6832 4.40344 12.9599 3.89513C13.5085 3.67671 13.9167 3.43617 14.1516 3.21505C14.1665 3.20096 14.1802 3.18753 14.1926 3.17481L14.2045 3.16207L14.1831 3.13996L14.1516 3.10939C13.9167 2.88827 13.5085 2.64773 12.9599 2.42932C11.6832 1.921 9.88324 1.61788 7.94232 1.61788Z" fill="#2C353A"/>
</svg>
