<svg width="64" height="64" viewBox="0 0 64 64" fill="none" xmlns="http://www.w3.org/2000/svg">
<path class="icon-background" fill-rule="evenodd" clip-rule="evenodd" d="M26.3077 0H37.3541C46.2136 0 49.7287 0.981955 53.1765 2.82586C56.6243 4.66977 59.3302 7.37562 61.1741 10.8234L61.3143 11.0889C63.0447 14.4107 63.9753 17.9199 64 26.3077V37.3541C64 46.2135 63.018 49.7286 61.1741 53.1764C59.3302 56.6242 56.6243 59.3301 53.1765 61.174L52.9111 61.3142C49.5892 63.0446 46.08 63.9752 37.6923 63.9999H26.6459C17.7864 63.9999 14.2713 63.0179 10.8234 61.174C7.37564 59.3301 4.66978 56.6242 2.82587 53.1764L2.68573 52.911C0.955318 49.5892 0.024675 46.08 0 37.6922V26.6458C0 17.7864 0.981957 14.2712 2.82587 10.8234C4.66978 7.37562 7.37564 4.66977 10.8234 2.82586L11.0889 2.68572C14.4107 0.955316 17.9199 0.0246749 26.3077 0Z" fill="#FFB0B0"/>
<path opacity="0.232169" fill-rule="evenodd" clip-rule="evenodd" d="M39.934 0.0313162L39.9341 63.969C39.426 63.9821 38.8976 63.9911 38.3475 63.9961L38.347 0.00431824C38.8973 0.00919188 39.4258 0.0182022 39.934 0.0313162ZM25.1233 0.00996026L25.1234 63.9896C24.5726 63.9818 24.0444 63.9697 23.537 63.9533L23.5368 0.0463483C24.0442 0.0298937 24.5725 0.0177524 25.1233 0.00996026ZM53.1762 2.82588C53.7172 3.11522 54.24 3.42577 54.744 3.75709V60.2428C54.24 60.5742 53.7172 60.8847 53.1762 61.1741L53.1566 61.1845L53.1567 2.81544C53.1632 2.81891 53.1697 2.8224 53.1762 2.82588ZM10.5785 2.95909L10.5785 61.0401L10.538 61.0184C10.0039 60.7218 9.48817 60.4041 8.99121 60.0658V3.93411C9.50073 3.58724 10.03 3.26207 10.5785 2.95909Z" fill="white"/>
<path fill-rule="evenodd" clip-rule="evenodd" d="M61.1736 10.8235L61.3137 11.089C61.382 11.2201 61.449 11.3514 61.5148 11.4834C60.1995 19.8608 57.0963 27.8677 52.4059 34.9551L52.1323 35.3647L49.5261 39.2324C45.6598 44.9702 38.0895 46.8447 32.0018 43.605L31.8159 43.5042L29.5554 42.2561C25.7918 40.1781 21.1569 40.5597 17.7868 43.2064L17.6165 43.3429C13.2554 46.9134 7.81319 48.8943 2.18436 48.9664L1.86555 48.9685L1.11578 48.9689C0.857269 48.0364 0.642471 47.0047 0.472656 45.8182C0.529015 45.8083 0.586753 45.8016 0.645348 45.7982L0.73858 45.7955L1.86479 45.7949C6.77229 45.7949 11.5316 44.131 15.3677 41.0798L15.6062 40.8873C19.9317 37.3461 25.9533 36.7537 30.8789 39.3641L31.0893 39.4779L33.3498 40.726C37.973 43.2786 43.7658 41.9255 46.7852 37.6179L46.8944 37.459L49.5005 33.5913C54.4516 26.2437 57.5862 17.8291 58.6514 9.041C58.707 8.58288 58.9525 8.19414 59.2996 7.94415C59.9991 8.83618 60.6245 9.79697 61.1736 10.8235Z" fill="#D8DEE3"/>
<path class="icon-chart" fill-rule="evenodd" clip-rule="evenodd" d="M61.1739 10.8235L61.314 11.0889C63.0444 14.4108 63.975 17.92 63.9997 26.3078V37.3542C63.9997 46.2136 63.0178 49.7288 61.1739 53.1766C59.33 56.6244 56.6242 59.3302 53.1764 61.1741L52.911 61.3143C49.5891 63.0447 46.08 63.9753 37.6923 64H26.646C17.7866 64 14.2715 63.0181 10.8238 61.1741C7.376 59.3302 4.67016 56.6244 2.82627 53.1766L2.68614 52.9111C1.84339 51.2933 1.19034 49.631 0.739258 47.3824L1.86471 47.3818C7.24095 47.3818 12.4515 45.521 16.6114 42.1152C20.4965 38.9345 25.9269 38.4402 30.3225 40.8671L32.583 42.1152C37.9822 45.0963 44.764 43.4604 48.2105 38.3458L50.8167 34.4781C55.9143 26.9129 59.1329 18.258 60.227 9.23191C60.5641 9.74306 60.8799 10.2739 61.1739 10.8235Z" fill="#FF1313"/>
</svg>
