<svg width="20" height="21" viewBox="0 0 20 21" fill="none" xmlns="http://www.w3.org/2000/svg">
    <path d="M10 1.5C14.9706 1.5 19 5.52944 19 10.5C19 15.4706 14.9706 19.5 10 19.5C5.02944 19.5 1 15.4706 1 10.5C1 5.52944 5.02944 1.5 10 1.5ZM10 3.15C5.94071 3.15 2.65 6.44071 2.65 10.5C2.65 14.5593 5.94071 17.85 10 17.85C14.0593 17.85 17.35 14.5593 17.35 10.5C17.35 6.44071 14.0593 3.15 10 3.15ZM13.8388 8.00461C14.1531 8.31893 14.1608 8.82379 13.8618 9.14741L13.8388 9.17134L9.77957 13.2306C9.65841 13.3517 9.50962 13.429 9.35321 13.462C9.08427 13.5519 8.77588 13.4952 8.55428 13.2879L8.54466 13.2787L6.13418 10.8684C5.812 10.5462 5.812 10.0238 6.13418 9.70167C6.44851 9.38734 6.95336 9.37967 7.27698 9.67867L7.30091 9.70167L9.13808 11.5386L12.6721 8.00461C12.9943 7.68243 13.5166 7.68243 13.8388 8.00461Z" fill="black"/>
</svg>
