<svg width="20" height="21" viewBox="0 0 20 21" fill="none" xmlns="http://www.w3.org/2000/svg">
    <path d="M9.59239 16.4991L9.67232 16.5H16.52C18.4421 16.5 20 14.9408 20 13.0178C20 11.1188 18.4795 9.57069 16.5843 9.53614L16.5274 9.53559L15.8124 9.53567L15.7945 9.31148C15.5589 6.37966 13.1046 4.11194 10.1572 4.11194C7.84008 4.11194 5.76525 5.52367 4.9068 7.6636L4.88085 7.72953L4.81866 7.89045L4.30194 7.89037C1.92589 7.89037 0 9.81785 0 12.1952C0 14.546 1.88475 16.4614 4.23105 16.4994L4.29527 16.5L9.54038 16.4998L9.59239 16.4991ZM9.4971 14.8582H4.30193L4.25102 14.8578C2.80758 14.8343 1.64179 13.6496 1.64179 12.1952C1.64179 10.7243 2.83293 9.53216 4.30193 9.53216L5.94531 9.53219L6.41068 8.32539L6.4326 8.26973C7.03996 6.75576 8.51265 5.75373 10.1572 5.75373C12.2484 5.75373 13.9909 7.36374 14.158 9.44298L14.2973 11.1773L16.5199 11.1773L16.5619 11.1778C17.5547 11.1959 18.3582 12.014 18.3582 13.0178C18.3582 14.0344 17.5351 14.8582 16.52 14.8582L9.68142 14.8582L9.60902 14.8572L9.5763 14.8572L9.4971 14.8582Z" fill="black"/>
</svg>
