<svg width="312" height="312" viewBox="0 0 312 312" fill="none" xmlns="http://www.w3.org/2000/svg">
    <path d="M147.888 253.968C217.865 253.968 274.56 197.095 274.56 126.939C274.56 56.784 217.865 0 147.888 0C77.9107 0 21.2158 56.8731 21.2158 127.029C21.2158 197.184 77.9107 253.968 147.888 253.968Z" fill="#2683FF"/>
    <path d="M98.592 57.4081C98.2354 57.4081 97.968 57.4081 97.7006 57.4081C97.1657 57.4081 96.6309 57.1407 96.3634 56.695C89.9451 44.9281 77.2869 36.9053 62.7566 36.9053C49.6526 36.9053 38.064 43.5018 31.2 53.4858C30.8434 54.0207 30.2194 54.199 29.6846 54.1098C27.9909 53.7533 26.208 53.575 24.336 53.575C10.8754 53.4858 0 64.2721 0 77.6436C0 78.4458 0.624 79.0698 1.42629 79.0698H117.49C118.293 79.0698 118.917 78.4458 118.917 77.6436C118.917 66.5007 109.824 57.4081 98.592 57.4081Z" fill="#DEDEFC"/>
    <path d="M31.1112 251.205C38.51 249.422 43.0563 241.756 41.2735 234.09C39.4906 226.423 31.9135 221.699 24.5146 223.392C17.1157 225.086 12.4803 232.931 14.3523 240.508C16.046 248.263 23.6232 252.988 31.1112 251.205Z" fill="#499FFC"/>
    <path d="M29.239 243.361C32.5372 242.558 34.6767 239.26 33.8744 235.873C33.0721 232.574 29.7738 230.435 26.3864 231.237C23.0881 232.04 20.9487 235.338 21.751 238.725C22.4641 242.202 25.8515 244.163 29.239 243.361Z" fill="white"/>
    <path d="M201.105 228.829C195.668 222.143 180.781 208.594 180.781 208.594L175.878 210.198C175.878 210.198 185.951 235.158 190.587 236.852C195.222 238.546 199.947 235.247 201.551 231.949C201.997 230.969 201.819 229.721 201.105 228.829Z" fill="#0F002D"/>
    <path d="M106.703 188.181L120.164 188.983C120.164 188.983 164.289 146.016 191.656 143.074C191.656 143.074 208.95 168.302 186.308 211.982C184.436 215.547 179.889 216.885 176.68 214.478C175.7 213.765 175.076 212.873 174.719 211.803C176.234 197.362 159.654 188.27 148.244 197.184C142.271 201.909 137.101 205.92 135.14 207.703C128.543 213.319 97.6996 207.792 106.703 188.181Z" fill="#499FFC"/>
    <path d="M224.997 298.449C219.559 291.764 204.672 278.214 204.672 278.214L199.77 279.818C199.77 279.818 209.843 304.778 214.478 306.472C219.114 308.166 223.838 304.868 225.443 301.569C225.978 300.589 225.799 299.341 224.997 298.449Z" fill="#0F002D"/>
    <path d="M106.525 197.985L169.46 202.621C169.46 202.621 203.513 234.623 207.167 280.353C207.167 280.353 208.059 283.741 201.462 283.919C175.433 238.991 141.38 229.185 120.342 228.026C104.653 227.135 89.9446 220.093 79.6932 208.237C79.1583 207.524 78.8018 207.167 78.8018 207.167L106.525 197.985Z" fill="#6CB9FF"/>
    <path d="M111.249 147.353C111.249 147.353 115.885 181.762 148.244 197.273L160.1 196.649L162.596 201.284L134.872 200.393C134.872 200.393 111.784 189.517 100.82 163.22C100.463 162.329 94.4906 147.62 111.249 147.353Z" fill="#CECEEF"/>
    <path d="M111.696 197.718C111.696 197.718 105.277 176.324 104.921 155.821C104.921 155.821 110.893 151.364 114.548 149.492C115.707 148.868 116.242 147.442 115.707 146.283C113.478 140.756 99.1265 118.738 97.9676 118.292C91.7276 116.331 66.3219 102.246 46.2648 126.226C37.707 136.566 45.0168 170.44 78.8019 207.167L81.9219 210.911L111.696 197.718Z" fill="white"/>
    <path d="M84.3284 159.12C84.3284 159.12 104.118 185.774 131.307 191.212C131.307 191.212 138.795 185.239 143.876 187.824C148.957 190.498 155.554 201.106 155.554 201.106L120.431 198.878C120.431 198.878 87.2701 195.58 71.9375 174.453C73.7204 167.5 77.9992 163.577 84.3284 159.12Z" fill="#DEDEFC"/>
    <path d="M75.5923 99.0371L69.8871 114.37C69.6197 115.083 69.8871 115.885 70.422 116.331C72.5614 118.025 78.2666 121.501 86.5569 119.005C87.5374 118.738 88.1614 117.935 88.3397 116.955L90.3009 103.405L75.5923 99.0371Z" fill="#CECEEF"/>
    <path d="M103.762 88.0733C103.762 88.0733 100.464 104.119 93.8671 108.754C87.3596 113.301 75.4145 108.844 72.1162 96.3636L81.5654 76.0391L103.762 88.0733Z" fill="#DEDEFC"/>
    <path d="M79.8718 89.4099C80.3175 89.5882 80.8524 89.3208 80.9415 88.8751C81.2981 87.3596 82.8135 80.4065 88.6078 83.9722C94.4021 87.5379 103.049 92.3516 108.754 87.0031C127.028 69.7093 98.0569 71.4031 90.3015 67.2133C88.1621 66.0545 77.6432 61.0625 73.0969 69.7093C72.8295 70.2442 65.9655 86.7356 71.9381 97.5219C72.2055 98.0568 73.0078 97.8785 73.2752 97.3436L77.2867 89.2316C77.4649 88.8751 77.9107 88.6968 78.2672 88.8751L79.8718 89.4099Z" fill="#0F002D"/>
    <path d="M79.8718 91.1038C79.8718 91.1038 78.2673 82.2786 74.8798 84.9529C71.4924 87.5381 75.1473 94.0455 78.8021 95.3826L79.8718 91.1038Z" fill="#DEDEFC"/>
    <path d="M153.682 202.979L172.758 151.365C173.561 149.225 175.522 147.888 177.75 147.799L199.144 147.71C201.284 147.71 202.799 149.939 201.908 151.9L181.138 201.017C180.425 202.622 178.909 203.692 177.215 203.692L156.089 204.672L153.682 202.979Z" fill="#0F002D"/>
    <path d="M182.652 176.902C183.979 174.599 184.017 172.133 182.738 171.396C181.458 170.659 179.344 171.929 178.017 174.232C176.69 176.536 176.652 179.001 177.932 179.738C179.211 180.476 181.325 179.206 182.652 176.902Z" fill="#F7F7FF"/>
    <path d="M156.178 204.849H156.089L111.517 199.768C110.447 199.679 109.645 198.609 109.734 197.54C109.823 196.47 110.893 195.668 111.963 195.757L156.534 200.838C157.604 200.927 158.406 201.997 158.317 203.066C158.139 204.136 157.247 204.849 156.178 204.849Z" fill="#0F002D"/>
    <path d="M104.92 156.356C104.653 156.356 104.474 156.089 104.474 155.821C105.098 146.461 102.246 133.892 102.246 133.803C102.157 133.536 102.335 133.268 102.602 133.268C102.87 133.179 103.137 133.357 103.137 133.625C103.137 133.714 105.99 146.461 105.366 155.911C105.366 156.178 105.188 156.356 104.92 156.356Z" fill="#0F002D"/>
    <path d="M84.3284 159.655C84.1501 159.655 84.0609 159.565 83.9718 159.476C83.8826 159.387 74.8792 146.283 72.0266 137.547C71.9375 137.28 72.1158 137.012 72.2941 136.923C72.5615 136.834 72.8289 137.012 72.9181 137.191C75.6815 145.837 84.5958 158.763 84.6849 158.852C84.8632 159.031 84.7741 159.387 84.5958 159.476C84.5066 159.655 84.4175 159.655 84.3284 159.655Z" fill="#0F002D"/>
    <path d="M69.3532 177.84L68.9966 177.661C55.1795 170.708 47.5132 153.236 47.4241 153.058C47.3349 152.79 47.4241 152.523 47.6915 152.434C47.9589 152.345 48.2263 152.434 48.3155 152.701C48.4046 152.88 55.8035 169.728 69.0858 176.681L70.6012 174.809C70.7795 174.63 71.0469 174.541 71.2252 174.72C71.4035 174.898 71.4926 175.165 71.3143 175.344L69.3532 177.84Z" fill="#0F002D"/>
    <path d="M227.492 97.3439C247.282 89.4102 271.439 86.5576 271.439 86.5576C290.605 119.006 301.035 160.903 301.035 160.903C287.128 170.887 267.25 170.976 267.25 170.976C259.138 157.426 231.592 121.234 231.592 121.234C221.341 123.73 212.248 123.998 204.226 122.839C207.078 115.083 206.543 106.704 205.919 101.89C213.764 101.355 221.341 99.7508 227.492 97.3439Z" fill="white"/>
    <path d="M157.337 90.4797C158.407 87.3597 161.259 87.538 161.259 87.538C168.925 98.8592 188.18 102.96 205.831 101.89C206.455 106.704 206.9 114.994 204.137 122.839C172.313 118.025 157.337 90.4797 157.337 90.4797Z" fill="#DEDEFC"/>
    <path d="M158.05 90.9264C158.05 91.6395 160.813 91.7286 161.259 88.5195C160.813 87.1824 159.476 81.4772 158.317 80.6749C152.167 76.6635 141.559 72.7412 141.559 72.7412C140.756 74.5241 142.361 75.4155 142.361 75.4155L147.709 77.9115C147.442 79.6944 146.996 81.2989 147.175 83.1709C147.353 84.5972 148.066 85.9344 149.225 86.9149C150.384 87.8955 151.899 89.0544 153.236 89.9458C155.732 91.7286 158.05 90.9264 158.05 90.9264Z" fill="#DEDEFC"/>
    <path d="M150.384 79.9609L155.02 81.5655L157.248 84.0615L155.465 88.6969C155.465 88.6969 152.167 83.2592 150.919 82.2787C149.582 81.2981 149.76 80.5849 150.384 79.9609Z" fill="#DEDEFC"/>
    <path d="M241.487 73.4551L254.859 89.4117C255.037 89.6791 255.126 90.0357 254.859 90.3031C253.522 91.9077 248.351 97.0779 238.991 95.2059C238.011 95.0277 237.208 94.4037 236.674 93.5122L228.562 78.4471L241.487 73.4551Z" fill="#CECEEF"/>
    <path d="M221.164 61.6877C221.164 61.6877 219.203 77.466 222.144 82.458C225.086 87.45 233.555 83.706 239.438 76.5746L239.26 60.3506L221.164 61.6877Z" fill="#DEDEFC"/>
    <path d="M236.496 69.7105C236.139 69.7105 235.872 69.3539 235.961 68.9973C236.229 67.9276 236.585 65.7882 236.318 64.1836C236.318 64.1836 237.298 62.9356 232.395 63.5596C227.582 64.1836 222.322 64.8968 219.47 61.6876C216.706 58.4785 217.241 50.9905 220.718 48.9402C227.403 45.0179 248.619 54.5562 248.709 58.1219C248.798 61.7768 246.747 67.571 246.658 67.7493C246.123 69.1756 243.538 75.1482 239.259 77.4659C238.903 77.6442 238.457 77.3768 238.368 76.931L238.19 70.4236C238.19 70.1562 237.922 69.8888 237.655 69.8888L236.496 69.7105Z" fill="#0F002D"/>
    <path d="M235.961 70.8697C235.961 70.8697 239.616 65.6103 241.042 68.2846C242.468 71.048 238.189 74.168 235.337 73.9897L235.961 70.8697Z" fill="#DEDEFC"/>
    <path d="M271.172 108.754L261.723 99.0376L271.439 86.5576C271.439 86.5576 294.884 92.0845 304.066 106.971C300.678 108.576 294.616 111.963 289.535 117.49C285.256 110.448 271.172 108.754 271.172 108.754Z" fill="white"/>
    <path d="M261.812 133.18C261.812 133.18 287.218 137.013 290.427 124.176C291.051 121.502 290.605 119.273 289.535 117.491C294.617 111.964 300.678 108.576 304.066 106.972C306.829 111.429 308.345 116.777 307.453 123.107C303.709 150.473 261.01 139.42 261.01 139.42L261.812 133.18Z" fill="#CECEEF"/>
    <path d="M263.595 138.618C263.595 138.618 262.703 131.486 261.188 129.436C259.673 127.386 257.266 124.89 253.343 127.118C249.421 129.347 245.231 133.002 245.231 133.002C245.231 133.002 246.658 135.944 249.421 133.715L248.084 135.944C248.084 135.944 249.332 138.261 251.471 135.944L250.402 138.618C250.402 138.618 252.274 140.133 253.789 138.172C255.215 136.122 258.335 141.47 263.595 138.618Z" fill="#CECEEF"/>
    <path d="M140.756 35.4793H136.388C134.159 35.4793 132.287 33.6965 132.287 31.5571C132.287 29.4176 134.159 27.6348 136.388 27.6348H140.756C142.984 27.6348 144.856 29.4176 144.856 31.5571C144.856 33.6965 142.984 35.4793 140.756 35.4793Z" fill="white"/>
    <path d="M122.215 19.701H82.1894C79.9609 19.701 78.0889 17.9182 78.0889 15.7787C78.0889 13.6393 79.9609 11.8564 82.1894 11.8564H122.215C124.443 11.8564 126.315 13.6393 126.315 15.7787C126.315 17.9182 124.443 19.701 122.215 19.701Z" fill="white"/>
    <path d="M164.379 19.701H158.139C155.821 19.701 153.949 17.9182 153.949 15.7787C153.949 13.6393 155.821 11.8564 158.139 11.8564H164.379C166.697 11.8564 168.569 13.6393 168.569 15.7787C168.569 17.9182 166.697 19.701 164.379 19.701Z" fill="#0F002D"/>
    <path fill-rule="evenodd" clip-rule="evenodd" d="M231.682 186.041C234.892 186.041 237.566 183.367 237.566 180.158C237.566 176.949 234.892 174.274 231.682 174.274C228.473 174.274 225.799 176.949 225.799 180.158C225.71 183.367 228.384 186.041 231.682 186.041Z" fill="#6CB9FF"/>
</svg>
