<svg width="16" height="16" viewBox="0 0 16 16" fill="none" xmlns="http://www.w3.org/2000/svg">
    <path d="M11.6296 0.800049C11.9822 0.800049 12.2698 1.07898 12.2836 1.42827L12.2841 1.45459L12.2842 1.95047C12.7132 2.03347 13.0122 2.15656 13.3125 2.31713C13.9137 2.63866 14.3855 3.1105 14.707 3.71171L14.7346 3.764L14.7752 3.84393C15.0527 4.40574 15.1998 5.02952 15.1998 6.55378V10.1859C15.1998 11.8304 15.0286 12.4267 14.707 13.0279C14.3855 13.6292 13.9137 14.101 13.3125 14.4225L13.2602 14.4501L13.1802 14.4906C12.6184 14.7682 11.9947 14.9153 10.4704 14.9153H5.52922C3.8847 14.9153 3.28836 14.7441 2.68714 14.4225C2.08593 14.101 1.6141 13.6292 1.29257 13.0279L1.26416 12.9741L1.22369 12.8942C0.950974 12.3416 0.804428 11.7283 0.799805 10.2567V6.55378C0.799805 4.90926 0.971033 4.31292 1.29257 3.71171C1.6141 3.1105 2.08593 2.63866 2.68714 2.31713L2.74102 2.28873C3.03734 2.13485 3.34011 2.01756 3.775 1.93934L3.77501 1.45459C3.77501 1.0931 4.06806 0.800049 4.42956 0.800049C4.78224 0.800049 5.06977 1.07898 5.08358 1.42827L5.0841 1.45459L5.08402 1.82899L5.22905 1.82633C5.30311 1.82527 5.37951 1.82462 5.45838 1.82437H10.4704C10.6508 1.82437 10.8187 1.82643 10.9752 1.83053L10.975 1.45459C10.975 1.0931 11.2681 0.800049 11.6296 0.800049ZM13.8906 7.06072H2.10878L2.1089 10.2527L2.10968 10.3774C2.11897 11.5361 2.20887 11.9654 2.44694 12.4106C2.64646 12.7837 2.93143 13.0686 3.30451 13.2681L3.35127 13.2926L3.39901 13.3165C3.8138 13.5183 4.26397 13.5976 5.3402 13.6055L5.52922 13.6062H10.4704C11.7721 13.6062 12.2274 13.5183 12.6951 13.2681C13.0682 13.0686 13.3531 12.7837 13.5527 12.4106L13.5771 12.3638L13.601 12.3161C13.8028 11.9013 13.8821 11.4511 13.89 10.3749L13.8907 10.1859L13.8906 7.06072ZM10.4704 3.13346H5.4624L5.3377 3.13425C5.24896 3.13496 5.1645 3.13614 5.08398 3.13783L5.0841 3.97927C5.0841 4.34077 4.79105 4.63382 4.42956 4.63382C4.07688 4.63382 3.78935 4.35489 3.77553 4.0056L3.77501 3.97927L3.77501 3.27947C3.60123 3.32852 3.45376 3.39168 3.30451 3.4715C2.93143 3.67103 2.64646 3.956 2.44694 4.32907L2.42246 4.37583C2.24845 4.71588 2.15884 5.06452 2.12508 5.75158H13.8745C13.8392 5.03301 13.7428 4.68462 13.5527 4.32907C13.3531 3.956 13.0682 3.67103 12.6951 3.4715L12.6483 3.44703C12.5323 3.38766 12.4153 3.33811 12.2842 3.29725L12.2841 3.97927C12.2841 4.34077 11.9911 4.63382 11.6296 4.63382C11.2769 4.63382 10.9893 4.35489 10.9755 4.0056L10.975 3.97927L10.9752 3.13897C10.8762 3.13655 10.7712 3.13495 10.6594 3.13413L10.4704 3.13346Z" fill="#56606D"/>
</svg>
