<svg width="20" height="21" viewBox="0 0 20 21" fill="none" xmlns="http://www.w3.org/2000/svg">
    <path d="M15.5768 14.2261L15.5505 14.2535L10.5801 19.2238C10.2209 19.5831 9.64384 19.5918 9.27396 19.2501L9.24661 19.2238L4.27625 14.2535C3.90801 13.8852 3.90801 13.2882 4.27625 12.92C4.63551 12.5607 5.21254 12.5519 5.58242 12.8937L5.60976 12.92L8.9705 16.2804L8.97043 2.44293C8.97043 1.92217 9.3926 1.5 9.91337 1.5C10.4214 1.5 10.8356 1.90182 10.8556 2.40501L10.8563 2.44293L10.8564 16.2804L14.217 12.92C14.5762 12.5607 15.1533 12.5519 15.5231 12.8937L15.5505 12.92C15.9097 13.2792 15.9185 13.8562 15.5768 14.2261Z" fill="black"/>
</svg>
