<svg width="16" height="16" viewBox="0 0 16 16" fill="none" xmlns="http://www.w3.org/2000/svg">
    <path d="M8.00005 0.800049C11.9765 0.800049 15.2 4.0236 15.2 8.00005C15.2 11.9765 11.9765 15.2 8.00005 15.2C4.0236 15.2 0.800049 11.9765 0.800049 8.00005C0.800049 4.0236 4.0236 0.800049 8.00005 0.800049ZM8.00005 2.12005C4.75261 2.12005 2.12005 4.75261 2.12005 8.00005C2.12005 11.2475 4.75261 13.88 8.00005 13.88C11.2475 13.88 13.88 11.2475 13.88 8.00005C13.88 4.75261 11.2475 2.12005 8.00005 2.12005ZM8.5997 5.51917L8.59996 5.52979L8.59993 7.37845H10.3942C10.7624 7.37845 11.0642 7.67044 11.0765 8.03845C11.0882 8.39103 10.8119 8.68636 10.4593 8.6981L10.4487 8.69836L8.59993 8.69845L8.60005 10.5368C8.60005 10.9014 8.30456 11.1968 7.94005 11.1968C7.58443 11.1968 7.2945 10.9156 7.28057 10.5634L7.28005 10.5368L7.27993 8.69845H5.44165C5.07714 8.69845 4.78165 8.40296 4.78165 8.03845C4.78165 7.68283 5.0629 7.3929 5.4151 7.37897L5.44165 7.37845H7.27993L7.28005 5.58433C7.28005 5.21613 7.57204 4.91425 7.94005 4.90201C8.29263 4.89028 8.58796 5.16659 8.5997 5.51917Z" fill="#56606D"/>
</svg>
