<svg width="123" height="123" viewBox="0 0 123 123" fill="none" xmlns="http://www.w3.org/2000/svg">
    <circle cx="61.5" cy="61.5" r="59.5" fill="white" stroke="#34BF89" stroke-width="4"/>
    <path d="M28.9292 66.1529C25.9126 63.1363 25.9126 58.2453 28.9292 55.2287C31.9459 52.212 36.8368 52.212 39.8535 55.2287L58.0606 73.4358C61.0773 76.4524 61.0773 81.3434 58.0606 84.3601C55.044 87.3767 50.153 87.3767 47.1363 84.3601L28.9292 66.1529Z" fill="#34BF89"/>
    <path d="M58.0606 84.3601C55.044 87.3767 50.153 87.3767 47.1363 84.3601C44.1197 81.3434 44.1197 76.4524 47.1363 73.4358L79.9092 40.663C82.9258 37.6463 87.8168 37.6463 90.8334 40.663C93.8501 43.6796 93.8501 48.5706 90.8334 51.5872L58.0606 84.3601Z" fill="#34BF89"/>
</svg>
