<svg width="20" height="21" viewBox="0 0 20 21" fill="none" xmlns="http://www.w3.org/2000/svg">
    <path d="M10.075 1.5L10.1294 1.50046L10.1837 1.50184C10.5902 1.50998 10.9901 1.54507 11.3816 1.6054C11.0975 2.13505 10.9273 2.73272 10.903 3.36705L10.9001 3.36552V17.6345C12.4045 16.8547 13.75 14.0385 13.75 10.5C13.75 9.33108 13.6032 8.24098 13.3523 7.27708C13.8844 7.51649 14.4763 7.65 15.1 7.65L15.1274 7.64969C15.3042 8.54541 15.4 9.50381 15.4 10.5C15.4 12.91 14.8396 15.0987 13.9269 16.7142C15.9841 15.4114 17.35 13.1152 17.35 10.5C17.35 9.37692 17.0981 8.31267 16.6477 7.36067C17.1747 7.15563 17.6493 6.84863 18.0465 6.46456C18.6566 7.67817 19 9.04898 19 10.5C19 15.3601 15.1477 19.3204 10.33 19.4941L10.1837 19.4982C10.1475 19.4994 10.1113 19.5 10.075 19.5H10C5.02944 19.5 1 15.4706 1 10.5C1 5.52944 5.02944 1.5 10 1.5H10.075ZM9.25004 3.36544C7.74556 4.14516 6.4 6.96138 6.4 10.5C6.4 14.0386 7.74556 16.8548 9.25004 17.6346V3.36544ZM6.30412 4.14542L6.2252 4.19209C4.08343 5.47653 2.65 7.82087 2.65 10.5C2.65 13.2119 4.11869 15.5807 6.30405 16.8545C5.34374 15.2267 4.75 12.9805 4.75 10.5C4.75 8.01948 5.34374 5.77335 6.30412 4.14542ZM15.175 1.5C16.3348 1.5 17.275 2.40662 17.275 3.525C17.275 4.64338 16.3348 5.55 15.175 5.55C14.0152 5.55 13.075 4.64338 13.075 3.525C13.075 2.40662 14.0152 1.5 15.175 1.5Z" fill="black"/>
</svg>
