<svg width="18" height="13" viewBox="0 0 18 13" fill="none" xmlns="http://www.w3.org/2000/svg">
    <path d="M1.375 7.375C0.615609 6.61561 0.615609 5.38439 1.375 4.625C2.13439 3.86561 3.36561 3.86561 4.12501 4.625L8.70834 9.20834C9.46774 9.96773 9.46774 11.1989 8.70834 11.9583C7.94895 12.7177 6.71773 12.7177 5.95834 11.9583L1.375 7.375Z" fill="#34BF89"/>
    <path d="M8.70834 11.9583C7.94895 12.7177 6.71773 12.7177 5.95834 11.9583C5.19895 11.1989 5.19895 9.96773 5.95834 9.20834L14.2084 0.958327C14.9677 0.198935 16.199 0.198935 16.9584 0.958327C17.7177 1.71772 17.7177 2.94894 16.9584 3.70833L8.70834 11.9583Z" fill="#34BF89"/>
</svg>
