<svg width="2723" height="1410" xmlns="http://www.w3.org/2000/svg" xmlns:xlink="http://www.w3.org/1999/xlink"><defs><path id="a" d="M0 0h2723v1470H0z"/></defs><g fill="none" fill-rule="evenodd"><mask id="b" fill="#fff"><use xlink:href="#a"/></mask><g mask="url(#b)"><g transform="translate(-295 -86)"><path d="M687 399c0 6-4 10-9 10s-9-4-9-10c0-5 4-9 9-9s9 4 9 9Z" fill="#D8DEE3"/><circle fill="#D8DEE3" cx="566.7" cy="371.6" r="9.3"/><path d="M548 399c0 6-4 10-9 10s-9-4-9-10c0-5 4-9 9-9s9 4 9 9Zm0-27c0 5-4 9-9 9s-9-4-9-9c0-6 4-10 9-10s9 4 9 10Zm56-28c0 5-4 9-9 9-6 0-10-4-10-9s4-10 10-10c5 0 9 5 9 10Zm-28 0c0 5-4 9-9 9s-10-4-10-9 5-10 10-10 9 5 9 10Zm56 0c0 5-4 9-10 9-5 0-9-4-9-9s4-10 9-10c6 0 10 5 10 10Zm-84 0c0 5-4 9-9 9s-9-4-9-9 4-10 9-10 9 5 9 10Zm112 0c0 5-5 9-10 9s-9-4-9-9 4-10 9-10 10 5 10 10Zm-56-28c0 5-4 9-9 9-6 0-10-4-10-9s4-9 10-9c5 0 9 4 9 9Zm-28 0c0 5-4 9-9 9s-10-4-10-9 5-9 10-9 9 4 9 9Zm56 0c0 5-4 9-10 9-5 0-9-4-9-9s4-9 9-9c6 0 10 4 10 9Zm-84 0c0 5-4 9-9 9s-9-4-9-9 4-9 9-9 9 4 9 9Zm112 0c0 5-5 9-10 9s-9-4-9-9 4-9 9-9 10 4 10 9Zm-56-28c0 5-4 9-9 9-6 0-10-4-10-9s4-9 10-9c5 0 9 4 9 9Zm-28 0c0 5-4 9-9 9s-10-4-10-9 5-9 10-9 9 4 9 9Zm56 0c0 5-4 9-10 9-5 0-9-4-9-9s4-9 9-9c6 0 10 4 10 9Zm-84 0c0 5-4 9-9 9s-9-4-9-9 4-9 9-9 9 4 9 9Zm139 0c0 5-4 9-9 9s-9-4-9-9 4-9 9-9 9 4 9 9Zm-83-28c0 5-4 9-9 9-6 0-10-4-10-9s4-9 10-9c5 0 9 4 9 9Zm28 0c0 5-4 9-10 9-5 0-9-4-9-9s4-9 9-9c6 0 10 4 10 9Zm-84 0c0 5-4 9-9 9s-9-4-9-9 4-9 9-9 9 4 9 9Z" fill="#D8DEE3"/><circle fill="#D8DEE3" cx="678.1" cy="260.2" r="9.3"/><circle fill="#D8DEE3" cx="566.7" cy="232.3" r="9.3"/><path d="M548 232c0 5-4 10-9 10s-9-5-9-10 4-9 9-9 9 4 9 9Zm84 0c0 5-4 10-10 10-5 0-9-5-9-10s4-9 9-9c6 0 10 4 10 9Z" fill="#D8DEE3"/><circle fill="#D8DEE3" cx="678.1" cy="232.3" r="9.3"/><path d="M715 399c0 6-4 10-9 10s-9-4-9-10c0-5 4-9 9-9s9 4 9 9Zm0-55c0 5-4 9-9 9s-9-4-9-9 4-10 9-10 9 5 9 10Zm0-84c0 5-4 9-9 9s-9-4-9-9 4-9 9-9 9 4 9 9Zm0-28c0 5-4 10-9 10s-9-5-9-10 4-9 9-9 9 4 9 9Zm28 140c0 5-4 9-9 9s-9-4-9-9c0-6 4-10 9-10s9 4 9 10Zm0-28c0 5-4 9-9 9s-9-4-9-9 4-10 9-10 9 5 9 10Zm0-28c0 5-4 9-9 9s-9-4-9-9 4-9 9-9 9 4 9 9Zm0-28c0 5-4 9-9 9s-9-4-9-9 4-9 9-9 9 4 9 9Zm0-28c0 5-4 9-9 9s-9-4-9-9 4-9 9-9 9 4 9 9Zm0-28c0 5-4 10-9 10s-9-5-9-10 4-9 9-9 9 4 9 9Zm28 140c0 5-4 9-9 9s-10-4-10-9c0-6 5-10 10-10s9 4 9 10Zm0-28c0 5-4 9-9 9s-10-4-10-9 5-10 10-10 9 5 9 10Z" fill="#D8DEE3"/><path d="M771 316c0 5-4 9-9 9s-10-4-10-9 5-9 10-9 9 4 9 9Z" fill="#FF458B"/><path d="M771 288c0 5-4 9-9 9s-10-4-10-9 5-9 10-9 9 4 9 9Zm0-28c0 5-4 9-9 9s-10-4-10-9 5-9 10-9 9 4 9 9Zm-84 167c0 6-4 10-9 10s-9-4-9-10c0-5 4-9 9-9s9 4 9 9Zm-139 0c0 6-4 10-9 10s-9-4-9-10c0-5 4-9 9-9s9 4 9 9Zm167 0c0 6-4 10-9 10s-9-4-9-10c0-5 4-9 9-9s9 4 9 9Zm56 0c0 6-4 10-9 10s-10-4-10-10c0-5 5-9 10-9s9 4 9 9Zm-195 28c0 5-4 10-9 10s-10-5-10-10 5-9 10-9 9 4 9 9Zm111 0c0 5-4 10-9 10s-9-5-9-10 4-9 9-9 9 4 9 9Zm-139 0c0 5-4 10-9 10s-9-5-9-10 4-9 9-9 9 4 9 9Zm167 0c0 5-4 10-9 10s-9-5-9-10 4-9 9-9 9 4 9 9Zm28 0c0 5-4 10-9 10s-9-5-9-10 4-9 9-9 9 4 9 9Zm28 0c0 5-4 10-9 10s-10-5-10-10 5-9 10-9 9 4 9 9Zm-167 28c0 5-4 9-9 9-6 0-10-4-10-9s4-9 10-9c5 0 9 4 9 9Zm56 0c0 5-5 9-10 9s-9-4-9-9 4-9 9-9 10 4 10 9Zm-84 0c0 5-4 9-9 9s-10-4-10-9 5-9 10-9 9 4 9 9Zm111 0c0 5-4 9-9 9s-9-4-9-9 4-9 9-9 9 4 9 9Zm-139 0c0 5-4 9-9 9s-9-4-9-9 4-9 9-9 9 4 9 9Zm167 0c0 5-4 9-9 9s-9-4-9-9 4-9 9-9 9 4 9 9Zm28 0c0 5-4 9-9 9s-9-4-9-9 4-9 9-9 9 4 9 9Zm28 0c0 5-4 9-9 9s-10-4-10-9 5-9 10-9 9 4 9 9Zm-167 28c0 5-4 9-9 9-6 0-10-4-10-9s4-9 10-9c5 0 9 4 9 9Zm56 0c0 5-5 9-10 9s-9-4-9-9 4-9 9-9 10 4 10 9Zm-84 0c0 5-4 9-9 9s-10-4-10-9 5-9 10-9 9 4 9 9Zm111 0c0 5-4 9-9 9s-9-4-9-9 4-9 9-9 9 4 9 9Zm-139 0c0 5-4 9-9 9s-9-4-9-9 4-9 9-9 9 4 9 9Zm-28-112c0 6-4 10-9 10s-9-4-9-10c0-5 4-9 9-9s9 4 9 9Zm0-27c0 5-4 9-9 9s-9-4-9-9c0-6 4-10 9-10s9 4 9 10Z" fill="#D8DEE3"/><path d="M520 344c0 5-4 9-9 9s-9-4-9-9 4-10 9-10 9 5 9 10Z" fill="#276CFF"/><path d="M520 316c0 5-4 9-9 9s-9-4-9-9 4-9 9-9 9 4 9 9Zm0-28c0 5-4 9-9 9s-9-4-9-9 4-9 9-9 9 4 9 9Zm0-56c0 5-4 10-9 10s-9-5-9-10 4-9 9-9 9 4 9 9Zm0 195c0 6-4 10-9 10s-9-4-9-10c0-5 4-9 9-9s9 4 9 9Z" fill="#D8DEE3"/><path d="M520 455c0 5-4 10-9 10s-9-5-9-10 4-9 9-9 9 4 9 9Z" fill="#FF458B"/><path d="M520 483c0 5-4 9-9 9s-9-4-9-9 4-9 9-9 9 4 9 9Zm0 28c0 5-4 9-9 9s-9-4-9-9 4-9 9-9 9 4 9 9Zm-28-112c0 6-4 10-9 10s-9-4-9-10c0-5 4-9 9-9s9 4 9 9Zm0-27c0 5-4 9-9 9s-9-4-9-9c0-6 4-10 9-10s9 4 9 10Zm0-28c0 5-4 9-9 9s-9-4-9-9 4-10 9-10 9 5 9 10Zm0-28c0 5-4 9-9 9s-9-4-9-9 4-9 9-9 9 4 9 9Zm0-28c0 5-4 9-9 9s-9-4-9-9 4-9 9-9 9 4 9 9Zm0-28c0 5-4 9-9 9s-9-4-9-9 4-9 9-9 9 4 9 9Zm0-28c0 5-4 10-9 10s-9-5-9-10 4-9 9-9 9 4 9 9Zm0 195c0 6-4 10-9 10s-9-4-9-10c0-5 4-9 9-9s9 4 9 9Zm0 28c0 5-4 10-9 10s-9-5-9-10 4-9 9-9 9 4 9 9Zm0 28c0 5-4 9-9 9s-9-4-9-9 4-9 9-9 9 4 9 9Zm0 28c0 5-4 9-9 9s-9-4-9-9 4-9 9-9 9 4 9 9Zm-28-112c0 6-4 10-9 10s-9-4-9-10c0-5 4-9 9-9s9 4 9 9Zm0-27c0 5-4 9-9 9s-9-4-9-9c0-6 4-10 9-10s9 4 9 10Zm0-28c0 5-4 9-9 9s-9-4-9-9 4-10 9-10 9 5 9 10Zm0-28c0 5-4 9-9 9s-9-4-9-9 4-9 9-9 9 4 9 9Zm0-28c0 5-4 9-9 9s-9-4-9-9 4-9 9-9 9 4 9 9Zm0-28c0 5-4 9-9 9s-9-4-9-9 4-9 9-9 9 4 9 9Zm0-28c0 5-4 10-9 10s-9-5-9-10 4-9 9-9 9 4 9 9Zm0 195c0 6-4 10-9 10s-9-4-9-10c0-5 4-9 9-9s9 4 9 9Zm0 28c0 5-4 10-9 10s-9-5-9-10 4-9 9-9 9 4 9 9Zm0 28c0 5-4 9-9 9s-9-4-9-9 4-9 9-9 9 4 9 9Zm0 28c0 5-4 9-9 9s-9-4-9-9 4-9 9-9 9 4 9 9Z" fill="#D8DEE3"/><path d="M437 399c0 6-5 10-10 10s-9-4-9-10c0-5 4-9 9-9s10 4 10 9Z" fill="#FFC600"/><circle fill="#D8DEE3" cx="427.3" cy="371.6" r="9.3"/><path d="M437 344c0 5-5 9-10 9s-9-4-9-9 4-10 9-10 10 5 10 10Zm0-28c0 5-5 9-10 9s-9-4-9-9 4-9 9-9 10 4 10 9Zm0-28c0 5-5 9-10 9s-9-4-9-9 4-9 9-9 10 4 10 9Z" fill="#D8DEE3"/><circle fill="#D8DEE3" cx="427.3" cy="260.2" r="9.3"/><circle fill="#D8DEE3" cx="427.3" cy="232.3" r="9.3"/><path d="M437 427c0 6-5 10-10 10s-9-4-9-10c0-5 4-9 9-9s10 4 10 9Zm0 28c0 5-5 10-10 10s-9-5-9-10 4-9 9-9 10 4 10 9Zm0 28c0 5-5 9-10 9s-9-4-9-9 4-9 9-9 10 4 10 9Zm0 28c0 5-5 9-10 9s-9-4-9-9 4-9 9-9 10 4 10 9Zm-28-112c0 6-4 10-10 10-5 0-9-4-9-10 0-5 4-9 9-9 6 0 10 4 10 9Z" fill="#D8DEE3"/><circle fill="#D8DEE3" cx="399.5" cy="371.6" r="9.3"/><path d="M409 344c0 5-4 9-10 9-5 0-9-4-9-9s4-10 9-10c6 0 10 5 10 10Zm0-28c0 5-4 9-10 9-5 0-9-4-9-9s4-9 9-9c6 0 10 4 10 9Zm0-28c0 5-4 9-10 9-5 0-9-4-9-9s4-9 9-9c6 0 10 4 10 9Z" fill="#D8DEE3"/><circle fill="#D8DEE3" cx="399.5" cy="260.2" r="9.3"/><circle fill="#D8DEE3" cx="399.5" cy="232.3" r="9.3"/><path d="M409 427c0 6-4 10-10 10-5 0-9-4-9-10 0-5 4-9 9-9 6 0 10 4 10 9Zm0 28c0 5-4 10-10 10-5 0-9-5-9-10s4-9 9-9c6 0 10 4 10 9Z" fill="#D8DEE3"/><path d="M409 483c0 5-4 9-10 9-5 0-9-4-9-9s4-9 9-9c6 0 10 4 10 9Z" fill="#276CFF"/><path d="M409 511c0 5-4 9-10 9-5 0-9-4-9-9s4-9 9-9c6 0 10 4 10 9Zm-28-112c0 6-4 10-9 10-6 0-10-4-10-10 0-5 4-9 10-9 5 0 9 4 9 9Zm0-27c0 5-4 9-9 9-6 0-10-4-10-9 0-6 4-10 10-10 5 0 9 4 9 10Zm0-28c0 5-4 9-9 9-6 0-10-4-10-9s4-10 10-10c5 0 9 5 9 10Zm0-28c0 5-4 9-9 9-6 0-10-4-10-9s4-9 10-9c5 0 9 4 9 9Z" fill="#D8DEE3"/><path d="M381 288c0 5-4 9-9 9-6 0-10-4-10-9s4-9 10-9c5 0 9 4 9 9Z" fill="#FFC600"/><path d="M381 260c0 5-4 9-9 9-6 0-10-4-10-9s4-9 10-9c5 0 9 4 9 9Zm0-28c0 5-4 10-9 10-6 0-10-5-10-10s4-9 10-9c5 0 9 4 9 9Zm0 195c0 6-4 10-9 10-6 0-10-4-10-10 0-5 4-9 10-9 5 0 9 4 9 9Zm0 28c0 5-4 10-9 10-6 0-10-5-10-10s4-9 10-9c5 0 9 4 9 9Zm0 28c0 5-4 9-9 9-6 0-10-4-10-9s4-9 10-9c5 0 9 4 9 9Zm0 28c0 5-4 9-9 9-6 0-10-4-10-9s4-9 10-9c5 0 9 4 9 9Zm334 0c0 5-4 9-9 9s-9-4-9-9 4-9 9-9 9 4 9 9Z" fill="#D8DEE3"/><path d="M743 511c0 5-4 9-9 9s-9-4-9-9 4-9 9-9 9 4 9 9Z" fill="#00E567"/><path d="M771 511c0 5-4 9-9 9s-10-4-10-9 5-9 10-9 9 4 9 9Zm28 0c0 5-4 9-9 9-6 0-10-4-10-9s4-9 10-9c5 0 9 4 9 9Zm0-167c0 5-4 9-9 9-6 0-10-4-10-9s4-10 10-10c5 0 9 5 9 10Zm0-28c0 5-4 9-9 9-6 0-10-4-10-9s4-9 10-9c5 0 9 4 9 9Zm83 83c0 6-4 10-9 10s-9-4-9-10c0-5 4-9 9-9s9 4 9 9Zm0-27c0 5-4 9-9 9s-9-4-9-9c0-6 4-10 9-10s9 4 9 10Zm0-28c0 5-4 9-9 9s-9-4-9-9 4-10 9-10 9 5 9 10Zm0-28c0 5-4 9-9 9s-9-4-9-9 4-9 9-9 9 4 9 9Zm0-28c0 5-4 9-9 9s-9-4-9-9 4-9 9-9 9 4 9 9Zm0-28c0 5-4 9-9 9s-9-4-9-9 4-9 9-9 9 4 9 9Zm28 139c0 6-4 10-9 10s-9-4-9-10c0-5 4-9 9-9s9 4 9 9Zm0 28c0 6-4 10-9 10s-9-4-9-10c0-5 4-9 9-9s9 4 9 9Zm0-55c0 5-4 9-9 9s-9-4-9-9c0-6 4-10 9-10s9 4 9 10Zm0-28c0 5-4 9-9 9s-9-4-9-9 4-10 9-10 9 5 9 10Zm0-28c0 5-4 9-9 9s-9-4-9-9 4-9 9-9 9 4 9 9Zm0-28c0 5-4 9-9 9s-9-4-9-9 4-9 9-9 9 4 9 9Zm0-28c0 5-4 9-9 9s-9-4-9-9 4-9 9-9 9 4 9 9Zm0-28c0 5-4 10-9 10s-9-5-9-10 4-9 9-9 9 4 9 9Z" fill="#D8DEE3"/><circle fill="#D8DEE3" cx="928.9" cy="371.6" r="9.3"/><path d="M938 344c0 5-4 9-9 9s-9-4-9-9 4-10 9-10 9 5 9 10Zm0-28c0 5-4 9-9 9s-9-4-9-9 4-9 9-9 9 4 9 9Zm0-28c0 5-4 9-9 9s-9-4-9-9 4-9 9-9 9 4 9 9Z" fill="#D8DEE3"/><circle fill="#D8DEE3" cx="928.9" cy="260.2" r="9.3"/><circle fill="#D8DEE3" cx="928.9" cy="232.3" r="9.3"/><path d="M576 204c0 6-4 10-9 10s-10-4-10-10c0-5 5-9 10-9s9 4 9 9Zm-28 0c0 6-4 10-9 10s-9-4-9-10c0-5 4-9 9-9s9 4 9 9Zm84 0c0 6-4 10-10 10-5 0-9-4-9-10 0-5 4-9 9-9 6 0 10 4 10 9Zm55 0c0 6-4 10-9 10s-9-4-9-10c0-5 4-9 9-9s9 4 9 9Zm28 0c0 6-4 10-9 10s-9-4-9-10c0-5 4-9 9-9s9 4 9 9Zm28 0c0 6-4 10-9 10s-9-4-9-10c0-5 4-9 9-9s9 4 9 9Zm-223 0c0 6-4 10-9 10s-9-4-9-10c0-5 4-9 9-9s9 4 9 9Zm-28 0c0 6-4 10-9 10s-9-4-9-10c0-5 4-9 9-9s9 4 9 9Zm-83 0c0 6-4 10-10 10-5 0-9-4-9-10 0-5 4-9 9-9 6 0 10 4 10 9Zm-28 0c0 6-4 10-9 10-6 0-10-4-10-10 0-5 4-9 10-9 5 0 9 4 9 9Zm529 0c0 6-4 10-9 10s-9-4-9-10c0-5 4-9 9-9s9 4 9 9Zm28 0c0 6-4 10-9 10s-9-4-9-10c0-5 4-9 9-9s9 4 9 9Zm-362-27c0 5-4 9-9 9s-10-4-10-9c0-6 5-10 10-10s9 4 9 10Zm-28 0c0 5-4 9-9 9s-9-4-9-9c0-6 4-10 9-10s9 4 9 10Zm84 0c0 5-4 9-10 9-5 0-9-4-9-9 0-6 4-10 9-10 6 0 10 4 10 10Zm28 0c0 5-5 9-10 9s-9-4-9-9c0-6 4-10 9-10s10 4 10 10Zm55 0c0 5-4 9-9 9s-9-4-9-9c0-6 4-10 9-10s9 4 9 10Zm28 0c0 5-4 9-9 9s-9-4-9-9c0-6 4-10 9-10s9 4 9 10Zm-223 0c0 5-4 9-9 9s-9-4-9-9c0-6 4-10 9-10s9 4 9 10Zm-28 0c0 5-4 9-9 9s-9-4-9-9c0-6 4-10 9-10s9 4 9 10Zm-28 0c0 5-4 9-9 9s-9-4-9-9c0-6 4-10 9-10s9 4 9 10Zm418 0c0 5-4 9-9 9s-9-4-9-9c0-6 4-10 9-10s9 4 9 10Zm28 0c0 5-4 9-9 9s-9-4-9-9c0-6 4-10 9-10s9 4 9 10Zm28 0c0 5-4 9-9 9s-9-4-9-9c0-6 4-10 9-10s9 4 9 10Zm-251-28c0 5-4 9-9 9s-9-4-9-9 4-10 9-10 9 5 9 10Zm28 0c0 5-4 9-9 9s-9-4-9-9 4-10 9-10 9 5 9 10Zm28 0c0 5-4 9-9 9s-9-4-9-9 4-10 9-10 9 5 9 10Zm28 0c0 5-4 9-9 9s-10-4-10-9 5-10 10-10 9 5 9 10Zm-251 0c0 5-4 9-9 9s-9-4-9-9 4-10 9-10 9 5 9 10Zm-28 0c0 5-4 9-9 9s-9-4-9-9 4-10 9-10 9 5 9 10Zm335 0c0 5-4 9-10 9-5 0-9-4-9-9s4-10 9-10c6 0 10 5 10 10Zm28 0c0 5-5 9-10 9s-9-4-9-9 4-10 9-10 10 5 10 10Zm27 0c0 5-4 9-9 9s-9-4-9-9 4-10 9-10 9 5 9 10Zm28 0c0 5-4 9-9 9s-9-4-9-9 4-10 9-10 9 5 9 10Zm28 0c0 5-4 9-9 9s-9-4-9-9 4-10 9-10 9 5 9 10Zm-362-28c0 5-4 9-9 9s-10-4-10-9 5-9 10-9 9 4 9 9Zm28 0c0 5-4 9-9 9-6 0-10-4-10-9s4-9 10-9c5 0 9 4 9 9Zm56 0c0 5-5 9-10 9s-9-4-9-9 4-9 9-9 10 4 10 9Zm27 0c0 5-4 9-9 9s-9-4-9-9 4-9 9-9 9 4 9 9Zm28 0c0 5-4 9-9 9s-9-4-9-9 4-9 9-9 9 4 9 9Zm28 0c0 5-4 9-9 9s-9-4-9-9 4-9 9-9 9 4 9 9Zm28 0c0 5-4 9-9 9s-10-4-10-9 5-9 10-9 9 4 9 9Zm-279 0c0 5-4 9-9 9s-9-4-9-9 4-9 9-9 9 4 9 9Zm335 0c0 5-4 9-10 9-5 0-9-4-9-9s4-9 9-9c6 0 10 4 10 9Zm28 0c0 5-5 9-10 9s-9-4-9-9 4-9 9-9 10 4 10 9Zm27 0c0 5-4 9-9 9s-9-4-9-9 4-9 9-9 9 4 9 9Zm28 0c0 5-4 9-9 9s-9-4-9-9 4-9 9-9 9 4 9 9Zm28 0c0 5-4 9-9 9s-9-4-9-9 4-9 9-9 9 4 9 9Z" fill="#D8DEE3"/><circle fill="#D8DEE3" cx="566.7" cy="93" r="9.3"/><path d="M548 93c0 5-4 9-9 9s-9-4-9-9 4-9 9-9 9 4 9 9Zm56 0c0 5-4 9-9 9-6 0-10-4-10-9s4-9 10-9c5 0 9 4 9 9Zm139 0c0 5-4 9-9 9s-9-4-9-9 4-9 9-9 9 4 9 9Zm28 0c0 5-4 9-9 9s-10-4-10-9 5-9 10-9 9 4 9 9Zm28 0c0 5-4 9-9 9-6 0-10-4-10-9s4-9 10-9c5 0 9 4 9 9Zm83 0c0 5-4 9-9 9s-9-4-9-9 4-9 9-9 9 4 9 9Zm28 0c0 5-4 9-9 9s-9-4-9-9 4-9 9-9 9 4 9 9Z" fill="#D8DEE3"/><circle fill="#D8DEE3" cx="928.9" cy="93" r="9.3"/><path d="M966 344c0 5-4 9-9 9s-9-4-9-9 4-10 9-10 9 5 9 10Zm0-28c0 5-4 9-9 9s-9-4-9-9 4-9 9-9 9 4 9 9Zm0-28c0 5-4 9-9 9s-9-4-9-9 4-9 9-9 9 4 9 9Zm0-28c0 5-4 9-9 9s-9-4-9-9 4-9 9-9 9 4 9 9Zm0-28c0 5-4 10-9 10s-9-5-9-10 4-9 9-9 9 4 9 9Zm0-28c0 6-4 10-9 10s-9-4-9-10c0-5 4-9 9-9s9 4 9 9Zm0-27c0 5-4 9-9 9s-9-4-9-9c0-6 4-10 9-10s9 4 9 10Zm0-28c0 5-4 9-9 9s-9-4-9-9 4-10 9-10 9 5 9 10Zm0-28c0 5-4 9-9 9s-9-4-9-9 4-9 9-9 9 4 9 9Zm0-28c0 5-4 9-9 9s-9-4-9-9 4-9 9-9 9 4 9 9Zm28 251c0 5-4 9-9 9s-10-4-10-9 5-10 10-10 9 5 9 10Zm0-28c0 5-4 9-9 9s-10-4-10-9 5-9 10-9 9 4 9 9Zm0-28c0 5-4 9-9 9s-10-4-10-9 5-9 10-9 9 4 9 9Zm0-28c0 5-4 9-9 9s-10-4-10-9 5-9 10-9 9 4 9 9Zm0-28c0 5-4 10-9 10s-10-5-10-10 5-9 10-9 9 4 9 9Zm0-28c0 6-4 10-9 10s-10-4-10-10c0-5 5-9 10-9s9 4 9 9Zm0-27c0 5-4 9-9 9s-10-4-10-9c0-6 5-10 10-10s9 4 9 10Zm0-28c0 5-4 9-9 9s-10-4-10-9 5-10 10-10 9 5 9 10Zm0-28c0 5-4 9-9 9s-10-4-10-9 5-9 10-9 9 4 9 9Zm0-28c0 5-4 9-9 9s-10-4-10-9 5-9 10-9 9 4 9 9Zm28 223c0 5-4 9-9 9-6 0-10-4-10-9s4-9 10-9c5 0 9 4 9 9Zm0-28c0 5-4 9-9 9-6 0-10-4-10-9s4-9 10-9c5 0 9 4 9 9Zm0-28c0 5-4 9-9 9-6 0-10-4-10-9s4-9 10-9c5 0 9 4 9 9Zm0-28c0 5-4 10-9 10-6 0-10-5-10-10s4-9 10-9c5 0 9 4 9 9Zm0-28c0 6-4 10-9 10-6 0-10-4-10-10 0-5 4-9 10-9 5 0 9 4 9 9Zm0-27c0 5-4 9-9 9-6 0-10-4-10-9 0-6 4-10 10-10 5 0 9 4 9 10Zm0-28c0 5-4 9-9 9-6 0-10-4-10-9s4-10 10-10c5 0 9 5 9 10Zm0-28c0 5-4 9-9 9-6 0-10-4-10-9s4-9 10-9c5 0 9 4 9 9Zm0-28c0 5-4 9-9 9-6 0-10-4-10-9s4-9 10-9c5 0 9 4 9 9Zm28 223c0 5-4 9-10 9-5 0-9-4-9-9s4-9 9-9c6 0 10 4 10 9Zm0-28c0 5-4 9-10 9-5 0-9-4-9-9s4-9 9-9c6 0 10 4 10 9Zm0-28c0 5-4 9-10 9-5 0-9-4-9-9s4-9 9-9c6 0 10 4 10 9Zm0-28c0 5-4 10-10 10-5 0-9-5-9-10s4-9 9-9c6 0 10 4 10 9Zm0-28c0 6-4 10-10 10-5 0-9-4-9-10 0-5 4-9 9-9 6 0 10 4 10 9Zm0-27c0 5-4 9-10 9-5 0-9-4-9-9 0-6 4-10 9-10 6 0 10 4 10 10Zm0-28c0 5-4 9-10 9-5 0-9-4-9-9s4-10 9-10c6 0 10 5 10 10Zm0-28c0 5-4 9-10 9-5 0-9-4-9-9s4-9 9-9c6 0 10 4 10 9Zm0-28c0 5-4 9-10 9-5 0-9-4-9-9s4-9 9-9c6 0 10 4 10 9Zm28 306c0 6-5 10-10 10s-9-4-9-10c0-5 4-9 9-9s10 4 10 9Zm0-27c0 5-5 9-10 9s-9-4-9-9c0-6 4-10 9-10s10 4 10 10Zm0-56c0 5-5 9-10 9s-9-4-9-9 4-9 9-9 10 4 10 9Zm0-28c0 5-5 9-10 9s-9-4-9-9 4-9 9-9 10 4 10 9Zm0-56c0 5-5 10-10 10s-9-5-9-10 4-9 9-9 10 4 10 9Zm0-28c0 6-5 10-10 10s-9-4-9-10c0-5 4-9 9-9s10 4 10 9Zm0-27c0 5-5 9-10 9s-9-4-9-9c0-6 4-10 9-10s10 4 10 10Zm0-28c0 5-5 9-10 9s-9-4-9-9 4-10 9-10 10 5 10 10Zm0-28c0 5-5 9-10 9s-9-4-9-9 4-9 9-9 10 4 10 9Zm0-28c0 5-5 9-10 9s-9-4-9-9 4-9 9-9 10 4 10 9Zm27 279c0 5-4 9-9 9s-9-4-9-9c0-6 4-10 9-10s9 4 9 10Zm0-195c0 5-4 9-9 9s-9-4-9-9c0-6 4-10 9-10s9 4 9 10Zm0-56c0 5-4 9-9 9s-9-4-9-9 4-9 9-9 9 4 9 9Zm0-28c0 5-4 9-9 9s-9-4-9-9 4-9 9-9 9 4 9 9Zm28 0c0 5-4 9-9 9s-9-4-9-9 4-9 9-9 9 4 9 9ZM632 539c0 5-4 9-10 9-5 0-9-4-9-9s4-9 9-9c6 0 10 4 10 9Zm-28 0c0 5-4 9-9 9-6 0-10-4-10-9s4-9 10-9c5 0 9 4 9 9Zm56 0c0 5-5 9-10 9s-9-4-9-9 4-9 9-9 10 4 10 9Zm-84 0c0 5-4 9-9 9s-10-4-10-9 5-9 10-9 9 4 9 9Z" fill="#D8DEE3"/><path d="M687 539c0 5-4 9-9 9s-9-4-9-9 4-9 9-9 9 4 9 9Z" fill="#276CFF"/><path d="M548 539c0 5-4 9-9 9s-9-4-9-9 4-9 9-9 9 4 9 9Zm-28 0c0 5-4 9-9 9s-9-4-9-9 4-9 9-9 9 4 9 9Zm-28 0c0 5-4 9-9 9s-9-4-9-9 4-9 9-9 9 4 9 9Zm-28 0c0 5-4 9-9 9s-9-4-9-9 4-9 9-9 9 4 9 9Zm-27 0c0 5-5 9-10 9s-9-4-9-9 4-9 9-9 10 4 10 9Zm-28 0c0 5-4 9-10 9-5 0-9-4-9-9s4-9 9-9c6 0 10 4 10 9Zm-28 0c0 5-4 9-9 9-6 0-10-4-10-9s4-9 10-9c5 0 9 4 9 9Zm334 0c0 5-4 9-9 9s-9-4-9-9 4-9 9-9 9 4 9 9Zm28 0c0 5-4 9-9 9s-9-4-9-9 4-9 9-9 9 4 9 9Z" fill="#D8DEE3"/><path d="M771 539c0 5-4 9-9 9s-10-4-10-9 5-9 10-9 9 4 9 9Z" fill="#FFC600"/><path d="M799 539c0 5-4 9-9 9-6 0-10-4-10-9s4-9 10-9c5 0 9 4 9 9Z" fill="#00E567"/><path d="M632 567c0 5-4 9-10 9-5 0-9-4-9-9s4-10 9-10c6 0 10 5 10 10Zm-28 0c0 5-4 9-9 9-6 0-10-4-10-9s4-10 10-10c5 0 9 5 9 10Zm56 0c0 5-5 9-10 9s-9-4-9-9 4-10 9-10 10 5 10 10Z" fill="#D8DEE3"/><circle fill="#00E567" cx="566.7" cy="566.7" r="9.3"/><circle fill="#D8DEE3" cx="678.1" cy="566.7" r="9.3"/><path d="M548 567c0 5-4 9-9 9s-9-4-9-9 4-10 9-10 9 5 9 10Zm-28 0c0 5-4 9-9 9s-9-4-9-9 4-10 9-10 9 5 9 10Zm-28 0c0 5-4 9-9 9s-9-4-9-9 4-10 9-10 9 5 9 10Z" fill="#D8DEE3"/><path d="M464 567c0 5-4 9-9 9s-9-4-9-9 4-10 9-10 9 5 9 10Z" fill="#FFC600"/><circle fill="#D8DEE3" cx="427.3" cy="566.7" r="9.3"/><circle fill="#D8DEE3" cx="399.5" cy="566.7" r="9.3"/><path d="M381 567c0 5-4 9-9 9-6 0-10-4-10-9s4-10 10-10c5 0 9 5 9 10Z" fill="#FF458B"/><path d="M715 567c0 5-4 9-9 9s-9-4-9-9 4-10 9-10 9 5 9 10Z" fill="#276CFF"/><path d="M799 567c0 5-4 9-9 9-6 0-10-4-10-9s4-10 10-10c5 0 9 5 9 10Z" fill="#D8DEE3"/><path d="M632 595c0 5-4 9-10 9-5 0-9-4-9-9 0-6 4-10 9-10 6 0 10 5 10 10Z" fill="#276CFF"/><path d="M604 595c0 5-4 9-9 9-6 0-10-4-10-9 0-6 4-10 10-10 5 0 9 5 9 10Zm56 0c0 5-5 9-10 9s-9-4-9-9c0-6 4-10 9-10s10 5 10 10Zm-84 0c0 5-4 9-9 9s-10-4-10-9c0-6 5-10 10-10s9 5 9 10Z" fill="#D8DEE3"/><path d="M687 595c0 5-4 9-9 9s-9-4-9-9c0-6 4-10 9-10s9 5 9 10Z" fill="#FF458B"/><path d="M548 595c0 5-4 9-9 9s-9-4-9-9c0-6 4-10 9-10s9 5 9 10Zm-28 0c0 5-4 9-9 9s-9-4-9-9c0-6 4-10 9-10s9 5 9 10Zm-28 0c0 5-4 9-9 9s-9-4-9-9c0-6 4-10 9-10s9 5 9 10Zm-28 0c0 5-4 9-9 9s-9-4-9-9c0-6 4-10 9-10s9 5 9 10Zm-27 0c0 5-5 9-10 9s-9-4-9-9c0-6 4-10 9-10s10 5 10 10Zm-28 0c0 5-4 9-10 9-5 0-9-4-9-9 0-6 4-10 9-10 6 0 10 5 10 10Zm-28 0c0 5-4 9-9 9-6 0-10-4-10-9 0-6 4-10 10-10 5 0 9 5 9 10Zm334 0c0 5-4 9-9 9s-9-4-9-9c0-6 4-10 9-10s9 5 9 10Zm28 0c0 5-4 9-9 9s-9-4-9-9c0-6 4-10 9-10s9 5 9 10Zm-111 27c0 6-4 10-10 10-5 0-9-4-9-10 0-5 4-9 9-9 6 0 10 5 10 9Zm-28 0c0 6-4 10-9 10-6 0-10-4-10-10 0-5 4-9 10-9 5 0 9 5 9 9Zm56 0c0 6-5 10-10 10s-9-4-9-10c0-5 4-9 9-9s10 5 10 9Zm-84 0c0 6-4 10-9 10s-10-4-10-10c0-5 5-9 10-9s9 5 9 9Zm-28 0c0 6-4 10-9 10s-9-4-9-10c0-5 4-9 9-9s9 5 9 9Zm-28 0c0 6-4 10-9 10s-9-4-9-10c0-5 4-9 9-9s9 5 9 9Zm-28 0c0 6-4 10-9 10s-9-4-9-10c0-5 4-9 9-9s9 5 9 9Zm-28 0c0 6-4 10-9 10s-9-4-9-10c0-5 4-9 9-9s9 5 9 9Zm-27 0c0 6-5 10-10 10s-9-4-9-10c0-5 4-9 9-9s10 5 10 9Zm-28 0c0 6-4 10-10 10-5 0-9-4-9-10 0-5 4-9 9-9 6 0 10 5 10 9Zm-28 0c0 6-4 10-9 10-6 0-10-4-10-10 0-5 4-9 10-9 5 0 9 5 9 9Zm251 28c0 5-4 10-10 10-5 0-9-5-9-10s4-9 9-9c6 0 10 4 10 9Zm-28 0c0 5-4 10-9 10-6 0-10-5-10-10s4-9 10-9c5 0 9 4 9 9Zm-28 0c0 5-4 10-9 10s-10-5-10-10 5-9 10-9 9 4 9 9Zm-28 0c0 5-4 10-9 10s-9-5-9-10 4-9 9-9 9 4 9 9Zm-28 0c0 5-4 10-9 10s-9-5-9-10 4-9 9-9 9 4 9 9Zm-28 0c0 5-4 10-9 10s-9-5-9-10 4-9 9-9 9 4 9 9Zm-28 0c0 5-4 10-9 10s-9-5-9-10 4-9 9-9 9 4 9 9Z" fill="#D8DEE3"/><path d="M437 650c0 5-5 10-10 10s-9-5-9-10 4-9 9-9 10 4 10 9Z" fill="#FF458B"/><path d="M409 650c0 5-4 10-10 10-5 0-9-5-9-10s4-9 9-9c6 0 10 4 10 9Z" fill="#D8DEE3"/><path d="M381 650c0 5-4 10-9 10-6 0-10-5-10-10s4-9 10-9c5 0 9 4 9 9Z" fill="#00E567"/><path d="M632 679c0 5-4 9-10 9-5 0-9-4-9-9 0-6 4-10 9-10 6 0 10 4 10 10Zm-28 0c0 5-4 9-9 9-6 0-10-4-10-9 0-6 4-10 10-10 5 0 9 4 9 10Zm-28 0c0 5-4 9-9 9s-10-4-10-9c0-6 5-10 10-10s9 4 9 10Zm-28 0c0 5-4 9-9 9s-9-4-9-9c0-6 4-10 9-10s9 4 9 10Zm-28 0c0 5-4 9-9 9s-9-4-9-9c0-6 4-10 9-10s9 4 9 10Zm-28 0c0 5-4 9-9 9s-9-4-9-9c0-6 4-10 9-10s9 4 9 10Zm-28 0c0 5-4 9-9 9s-9-4-9-9c0-6 4-10 9-10s9 4 9 10Zm-27 0c0 5-5 9-10 9s-9-4-9-9c0-6 4-10 9-10s10 4 10 10Zm-28 0c0 5-4 9-10 9-5 0-9-4-9-9 0-6 4-10 9-10 6 0 10 4 10 10Zm-28 0c0 5-4 9-9 9-6 0-10-4-10-9 0-6 4-10 10-10 5 0 9 4 9 10Zm223 27c0 6-4 10-9 10-6 0-10-4-10-10 0-5 4-9 10-9 5 0 9 4 9 9Zm-28 0c0 6-4 10-9 10s-10-4-10-10c0-5 5-9 10-9s9 4 9 9Zm-28 0c0 6-4 10-9 10s-9-4-9-10c0-5 4-9 9-9s9 4 9 9Zm-28 0c0 6-4 10-9 10s-9-4-9-10c0-5 4-9 9-9s9 4 9 9Zm-28 0c0 6-4 10-9 10s-9-4-9-10c0-5 4-9 9-9s9 4 9 9Z" fill="#D8DEE3"/><path d="M464 706c0 6-4 10-9 10s-9-4-9-10c0-5 4-9 9-9s9 4 9 9Z" fill="#276CFF"/><path d="M437 706c0 6-5 10-10 10s-9-4-9-10c0-5 4-9 9-9s10 4 10 9Z" fill="#00E567"/><path d="M409 706c0 6-4 10-10 10-5 0-9-4-9-10 0-5 4-9 9-9 6 0 10 4 10 9Zm-28 0c0 6-4 10-9 10-6 0-10-4-10-10 0-5 4-9 10-9 5 0 9 4 9 9Zm195 28c0 5-4 10-9 10s-10-5-10-10 5-9 10-9 9 4 9 9Zm-28 0c0 5-4 10-9 10s-9-5-9-10 4-9 9-9 9 4 9 9Zm-28 0c0 5-4 10-9 10s-9-5-9-10 4-9 9-9 9 4 9 9Zm-28 0c0 5-4 10-9 10s-9-5-9-10 4-9 9-9 9 4 9 9Zm-28 0c0 5-4 10-9 10s-9-5-9-10 4-9 9-9 9 4 9 9Zm-27 0c0 5-5 10-10 10s-9-5-9-10 4-9 9-9 10 4 10 9Zm-28 0c0 5-4 10-10 10-5 0-9-5-9-10s4-9 9-9c6 0 10 4 10 9Zm-28 0c0 5-4 10-9 10-6 0-10-5-10-10s4-9 10-9c5 0 9 4 9 9Zm195 28c0 5-4 9-9 9s-10-4-10-9 5-9 10-9 9 4 9 9Zm-139 0c0 5-5 9-10 9s-9-4-9-9 4-9 9-9 10 4 10 9Z" fill="#D8DEE3"/><path d="M409 762c0 5-4 9-10 9-5 0-9-4-9-9s4-9 9-9c6 0 10 4 10 9Z" fill="#276CFF"/><path d="M381 762c0 5-4 9-9 9-6 0-10-4-10-9s4-9 10-9c5 0 9 4 9 9Zm-28-363c0 6-4 10-9 10s-10-4-10-10c0-5 5-9 10-9s9 4 9 9Z" fill="#D8DEE3"/><circle fill="#FF458B" cx="343.7" cy="371.6" r="9.3"/><path d="M353 344c0 5-4 9-9 9s-10-4-10-9 5-10 10-10 9 5 9 10Zm0-28c0 5-4 9-9 9s-10-4-10-9 5-9 10-9 9 4 9 9Zm0-28c0 5-4 9-9 9s-10-4-10-9 5-9 10-9 9 4 9 9Z" fill="#D8DEE3"/><circle fill="#D8DEE3" cx="343.7" cy="260.2" r="9.3"/><circle fill="#D8DEE3" cx="343.7" cy="232.3" r="9.3"/><path d="M353 427c0 6-4 10-9 10s-10-4-10-10c0-5 5-9 10-9s9 4 9 9Zm0 28c0 5-4 10-9 10s-10-5-10-10 5-9 10-9 9 4 9 9Zm0 28c0 5-4 9-9 9s-10-4-10-9 5-9 10-9 9 4 9 9Zm0 28c0 5-4 9-9 9s-10-4-10-9 5-9 10-9 9 4 9 9Zm0-307c0 6-4 10-9 10s-10-4-10-10c0-5 5-9 10-9s9 4 9 9Zm0 335c0 5-4 9-9 9s-10-4-10-9 5-9 10-9 9 4 9 9Z" fill="#D8DEE3"/><circle fill="#D8DEE3" cx="343.7" cy="566.7" r="9.3"/><path d="M353 595c0 5-4 9-9 9s-10-4-10-9c0-6 5-10 10-10s9 5 9 10Z" fill="#276CFF"/><path d="M353 622c0 6-4 10-9 10s-10-4-10-10c0-5 5-9 10-9s9 5 9 9Zm0 28c0 5-4 10-9 10s-10-5-10-10 5-9 10-9 9 4 9 9Zm0 29c0 5-4 9-9 9s-10-4-10-9c0-6 5-10 10-10s9 4 9 10Z" fill="#D8DEE3"/><path d="M353 706c0 6-4 10-9 10s-10-4-10-10c0-5 5-9 10-9s9 4 9 9Z" fill="#FF458B"/><path d="M353 734c0 5-4 10-9 10s-10-5-10-10 5-9 10-9 9 4 9 9Zm0 28c0 5-4 9-9 9s-10-4-10-9 5-9 10-9 9 4 9 9Zm-28-363c0 6-4 10-9 10s-9-4-9-10c0-5 4-9 9-9s9 4 9 9Z" fill="#D8DEE3"/><circle fill="#D8DEE3" cx="315.9" cy="371.6" r="9.3"/><path d="M325 344c0 5-4 9-9 9s-9-4-9-9 4-10 9-10 9 5 9 10Zm0-28c0 5-4 9-9 9s-9-4-9-9 4-9 9-9 9 4 9 9Zm0-28c0 5-4 9-9 9s-9-4-9-9 4-9 9-9 9 4 9 9Z" fill="#D8DEE3"/><circle fill="#D8DEE3" cx="315.9" cy="260.2" r="9.3"/><circle fill="#D8DEE3" cx="315.9" cy="232.3" r="9.3"/><path d="M325 427c0 6-4 10-9 10s-9-4-9-10c0-5 4-9 9-9s9 4 9 9Zm0 28c0 5-4 10-9 10s-9-5-9-10 4-9 9-9 9 4 9 9Z" fill="#D8DEE3"/><path d="M325 483c0 5-4 9-9 9s-9-4-9-9 4-9 9-9 9 4 9 9Z" fill="#00E567"/><path d="M325 511c0 5-4 9-9 9s-9-4-9-9 4-9 9-9 9 4 9 9Zm0-307c0 6-4 10-9 10s-9-4-9-10c0-5 4-9 9-9s9 4 9 9Zm0-27c0 5-4 9-9 9s-9-4-9-9c0-6 4-10 9-10s9 4 9 10Zm0 362c0 5-4 9-9 9s-9-4-9-9 4-9 9-9 9 4 9 9Z" fill="#D8DEE3"/><circle fill="#D8DEE3" cx="315.9" cy="566.7" r="9.3"/><path d="M325 595c0 5-4 9-9 9s-9-4-9-9c0-6 4-10 9-10s9 5 9 10Zm0 27c0 6-4 10-9 10s-9-4-9-10c0-5 4-9 9-9s9 5 9 9Z" fill="#D8DEE3"/><path d="M325 650c0 5-4 10-9 10s-9-5-9-10 4-9 9-9 9 4 9 9Z" fill="#276CFF"/><path d="M325 679c0 5-4 9-9 9s-9-4-9-9c0-6 4-10 9-10s9 4 9 10Zm0 27c0 6-4 10-9 10s-9-4-9-10c0-5 4-9 9-9s9 4 9 9Z" fill="#D8DEE3"/><path d="M325 734c0 5-4 10-9 10s-9-5-9-10 4-9 9-9 9 4 9 9Z" fill="#FFC600"/><path d="M325 762c0 5-4 9-9 9s-9-4-9-9 4-9 9-9 9 4 9 9Zm-28-363c0 6-4 10-9 10s-9-4-9-10c0-5 4-9 9-9s9 4 9 9Z" fill="#D8DEE3"/><circle fill="#D8DEE3" cx="288" cy="371.6" r="9.3"/><path d="M297 344c0 5-4 9-9 9s-9-4-9-9 4-10 9-10 9 5 9 10Zm0-28c0 5-4 9-9 9s-9-4-9-9 4-9 9-9 9 4 9 9Zm0-28c0 5-4 9-9 9s-9-4-9-9 4-9 9-9 9 4 9 9Z" fill="#D8DEE3"/><circle fill="#D8DEE3" cx="288" cy="260.2" r="9.3"/><circle fill="#D8DEE3" cx="288" cy="232.3" r="9.3"/><path d="M297 427c0 6-4 10-9 10s-9-4-9-10c0-5 4-9 9-9s9 4 9 9Zm0 28c0 5-4 10-9 10s-9-5-9-10 4-9 9-9 9 4 9 9Zm0 28c0 5-4 9-9 9s-9-4-9-9 4-9 9-9 9 4 9 9Zm0 28c0 5-4 9-9 9s-9-4-9-9 4-9 9-9 9 4 9 9Zm0-307c0 6-4 10-9 10s-9-4-9-10c0-5 4-9 9-9s9 4 9 9Zm0-27c0 5-4 9-9 9s-9-4-9-9c0-6 4-10 9-10s9 4 9 10Zm0-28c0 5-4 9-9 9s-9-4-9-9 4-10 9-10 9 5 9 10Zm0 390c0 5-4 9-9 9s-9-4-9-9 4-9 9-9 9 4 9 9Z" fill="#D8DEE3"/><circle fill="#D8DEE3" cx="288" cy="566.7" r="9.3"/><path d="M297 595c0 5-4 9-9 9s-9-4-9-9c0-6 4-10 9-10s9 5 9 10Zm0 27c0 6-4 10-9 10s-9-4-9-10c0-5 4-9 9-9s9 5 9 9Zm0 28c0 5-4 10-9 10s-9-5-9-10 4-9 9-9 9 4 9 9Zm0 29c0 5-4 9-9 9s-9-4-9-9c0-6 4-10 9-10s9 4 9 10Zm363 640c0 6-5 10-10 10s-9-4-9-10c0-5 4-9 9-9s10 4 10 9Z" fill="#D8DEE3"/><circle fill="#D8DEE3" cx="678.1" cy="1319.4" r="9.3"/><circle fill="#D8DEE3" cx="678.1" cy="1291.6" r="9.3"/><circle fill="#D8DEE3" cx="678.1" cy="1263.7" r="9.3"/><path d="M687 1236c0 5-4 9-9 9s-9-4-9-9 4-9 9-9 9 4 9 9Zm0-28c0 5-4 9-9 9s-9-4-9-9 4-9 9-9 9 4 9 9Zm0-28c0 5-4 9-9 9s-9-4-9-9 4-9 9-9 9 4 9 9Zm0-28c0 5-4 10-9 10s-9-5-9-10 4-9 9-9 9 4 9 9Zm28 167c0 6-4 10-9 10s-9-4-9-10c0-5 4-9 9-9s9 4 9 9Zm0-27c0 5-4 9-9 9s-9-4-9-9c0-6 4-10 9-10s9 4 9 10Zm0-28c0 5-4 9-9 9s-9-4-9-9 4-10 9-10 9 5 9 10Z" fill="#D8DEE3"/><path d="M743 1319c0 6-4 10-9 10s-9-4-9-10c0-5 4-9 9-9s9 4 9 9Z" fill="#FF458B"/><path d="M715 1236c0 5-4 9-9 9s-9-4-9-9 4-9 9-9 9 4 9 9Z" fill="#FFC600"/><path d="M715 1208c0 5-4 9-9 9s-9-4-9-9 4-9 9-9 9 4 9 9Zm0-28c0 5-4 9-9 9s-9-4-9-9 4-9 9-9 9 4 9 9Zm0-28c0 5-4 10-9 10s-9-5-9-10 4-9 9-9 9 4 9 9Zm28 140c0 5-4 9-9 9s-9-4-9-9c0-6 4-10 9-10s9 4 9 10Zm0-28c0 5-4 9-9 9s-9-4-9-9 4-10 9-10 9 5 9 10Zm0-28c0 5-4 9-9 9s-9-4-9-9 4-9 9-9 9 4 9 9Zm0-28c0 5-4 9-9 9s-9-4-9-9 4-9 9-9 9 4 9 9Zm0-28c0 5-4 9-9 9s-9-4-9-9 4-9 9-9 9 4 9 9Zm0-28c0 5-4 10-9 10s-9-5-9-10 4-9 9-9 9 4 9 9Zm28 167c0 6-4 10-9 10s-10-4-10-10c0-5 5-9 10-9s9 4 9 9Z" fill="#D8DEE3"/><path d="M771 1292c0 5-4 9-9 9s-10-4-10-9c0-6 5-10 10-10s9 4 9 10Z" fill="#00E567"/><path d="M771 1264c0 5-4 9-9 9s-10-4-10-9 5-10 10-10 9 5 9 10Zm0-28c0 5-4 9-9 9s-10-4-10-9 5-9 10-9 9 4 9 9Zm0-28c0 5-4 9-9 9s-10-4-10-9 5-9 10-9 9 4 9 9Zm0-28c0 5-4 9-9 9s-10-4-10-9 5-9 10-9 9 4 9 9Z" fill="#D8DEE3"/><path d="M771 1152c0 5-4 10-9 10s-10-5-10-10 5-9 10-9 9 4 9 9Z" fill="#00E567"/><path d="M660 1347c0 5-5 10-10 10s-9-5-9-10 4-9 9-9 10 4 10 9Z" fill="#D8DEE3"/><path d="M687 1347c0 5-4 10-9 10s-9-5-9-10 4-9 9-9 9 4 9 9Z" fill="#276CFF"/><path d="M715 1347c0 5-4 10-9 10s-9-5-9-10 4-9 9-9 9 4 9 9Zm28 0c0 5-4 10-9 10s-9-5-9-10 4-9 9-9 9 4 9 9Zm-56 28c0 5-4 9-9 9s-9-4-9-9 4-9 9-9 9 4 9 9Zm28 0c0 5-4 9-9 9s-9-4-9-9 4-9 9-9 9 4 9 9Zm-28 28c0 5-4 9-9 9s-9-4-9-9 4-9 9-9 9 4 9 9Zm28 0c0 5-4 9-9 9s-9-4-9-9 4-9 9-9 9 4 9 9Zm-28 28c0 5-4 9-9 9s-9-4-9-9 4-9 9-9 9 4 9 9Zm28 0c0 5-4 9-9 9s-9-4-9-9 4-9 9-9 9 4 9 9Zm84-167c0 5-4 9-9 9-6 0-10-4-10-9s4-10 10-10c5 0 9 5 9 10Zm0-28c0 5-4 9-9 9-6 0-10-4-10-9s4-9 10-9c5 0 9 4 9 9Zm0-28c0 5-4 9-9 9-6 0-10-4-10-9s4-9 10-9c5 0 9 4 9 9Zm0-28c0 5-4 9-9 9-6 0-10-4-10-9s4-9 10-9c5 0 9 4 9 9Zm0-28c0 5-4 10-9 10-6 0-10-5-10-10s4-9 10-9c5 0 9 4 9 9Zm28 84c0 5-4 9-10 9-5 0-9-4-9-9s4-9 9-9c6 0 10 4 10 9Zm0-28c0 5-4 9-10 9-5 0-9-4-9-9s4-9 9-9c6 0 10 4 10 9Zm0-28c0 5-4 9-10 9-5 0-9-4-9-9s4-9 9-9c6 0 10 4 10 9Zm0-28c0 5-4 10-10 10-5 0-9-5-9-10s4-9 9-9c6 0 10 4 10 9Zm28 28c0 5-5 9-10 9s-9-4-9-9 4-9 9-9 10 4 10 9Zm0-28c0 5-5 10-10 10s-9-5-9-10 4-9 9-9 10 4 10 9Zm27 0c0 5-4 10-9 10s-9-5-9-10 4-9 9-9 9 4 9 9Zm-222-28c0 6-5 10-10 10s-9-4-9-10c0-5 4-9 9-9s10 4 10 9Zm27 0c0 6-4 10-9 10s-9-4-9-10c0-5 4-9 9-9s9 4 9 9Z" fill="#D8DEE3"/><path d="M715 1124c0 6-4 10-9 10s-9-4-9-10c0-5 4-9 9-9s9 4 9 9Z" fill="#276CFF"/><path d="M743 1124c0 6-4 10-9 10s-9-4-9-10c0-5 4-9 9-9s9 4 9 9Zm28 0c0 6-4 10-9 10s-10-4-10-10c0-5 5-9 10-9s9 4 9 9Zm28 0c0 6-4 10-9 10-6 0-10-4-10-10 0-5 4-9 10-9 5 0 9 4 9 9Zm28 0c0 6-4 10-10 10-5 0-9-4-9-10 0-5 4-9 9-9 6 0 10 4 10 9Z" fill="#D8DEE3"/><path d="M855 1124c0 6-5 10-10 10s-9-4-9-10c0-5 4-9 9-9s10 4 10 9Z" fill="#FF458B"/><path d="M882 1124c0 6-4 10-9 10s-9-4-9-10c0-5 4-9 9-9s9 4 9 9Zm28 0c0 6-4 10-9 10s-9-4-9-10c0-5 4-9 9-9s9 4 9 9Zm-278-27c0 5-4 9-10 9-5 0-9-4-9-9 0-6 4-10 9-10 6 0 10 4 10 10Zm28 0c0 5-5 9-10 9s-9-4-9-9c0-6 4-10 9-10s10 4 10 10Zm27 0c0 5-4 9-9 9s-9-4-9-9c0-6 4-10 9-10s9 4 9 10Zm28 0c0 5-4 9-9 9s-9-4-9-9c0-6 4-10 9-10s9 4 9 10Zm28 0c0 5-4 9-9 9s-9-4-9-9c0-6 4-10 9-10s9 4 9 10Zm28 0c0 5-4 9-9 9s-10-4-10-9c0-6 5-10 10-10s9 4 9 10Zm28 0c0 5-4 9-9 9-6 0-10-4-10-9 0-6 4-10 10-10 5 0 9 4 9 10Zm28 0c0 5-4 9-10 9-5 0-9-4-9-9 0-6 4-10 9-10 6 0 10 4 10 10Zm28 0c0 5-5 9-10 9s-9-4-9-9c0-6 4-10 9-10s10 4 10 10Zm27 0c0 5-4 9-9 9s-9-4-9-9c0-6 4-10 9-10s9 4 9 10Z" fill="#D8DEE3"/><path d="M910 1097c0 5-4 9-9 9s-9-4-9-9c0-6 4-10 9-10s9 4 9 10Z" fill="#276CFF"/><path d="M604 1069c0 5-4 9-9 9-6 0-10-4-10-9 0-6 4-10 10-10 5 0 9 4 9 10Z" fill="#D8DEE3"/><path d="M632 1069c0 5-4 9-10 9-5 0-9-4-9-9 0-6 4-10 9-10 6 0 10 4 10 10Z" fill="#FF458B"/><path d="M660 1069c0 5-5 9-10 9s-9-4-9-9c0-6 4-10 9-10s10 4 10 10Z" fill="#D8DEE3"/><circle fill="#D8DEE3" cx="678.1" cy="1068.6" r="9.3"/><path d="M715 1069c0 5-4 9-9 9s-9-4-9-9c0-6 4-10 9-10s9 4 9 10Zm28 0c0 5-4 9-9 9s-9-4-9-9c0-6 4-10 9-10s9 4 9 10Zm28 0c0 5-4 9-9 9s-10-4-10-9c0-6 5-10 10-10s9 4 9 10Zm28 0c0 5-4 9-9 9-6 0-10-4-10-9 0-6 4-10 10-10 5 0 9 4 9 10Zm28 0c0 5-4 9-10 9-5 0-9-4-9-9 0-6 4-10 9-10 6 0 10 4 10 10Z" fill="#D8DEE3"/><path d="M855 1069c0 5-5 9-10 9s-9-4-9-9c0-6 4-10 9-10s10 4 10 10Z" fill="#00E567"/><path d="M882 1069c0 5-4 9-9 9s-9-4-9-9c0-6 4-10 9-10s9 4 9 10Zm28 0c0 5-4 9-9 9s-9-4-9-9c0-6 4-10 9-10s9 4 9 10Z" fill="#D8DEE3"/><circle fill="#D8DEE3" cx="928.9" cy="1068.6" r="9.3"/><path d="M576 1041c0 5-4 9-9 9s-10-4-10-9 5-10 10-10 9 5 9 10Zm28 0c0 5-4 9-9 9-6 0-10-4-10-9s4-10 10-10c5 0 9 5 9 10Zm28 0c0 5-4 9-10 9-5 0-9-4-9-9s4-10 9-10c6 0 10 5 10 10Zm28 0c0 5-5 9-10 9s-9-4-9-9 4-10 9-10 10 5 10 10Z" fill="#D8DEE3"/><path d="M687 1041c0 5-4 9-9 9s-9-4-9-9 4-10 9-10 9 5 9 10Z" fill="#FFC600"/><path d="M715 1041c0 5-4 9-9 9s-9-4-9-9 4-10 9-10 9 5 9 10Zm28 0c0 5-4 9-9 9s-9-4-9-9 4-10 9-10 9 5 9 10Zm28 0c0 5-4 9-9 9s-10-4-10-9 5-10 10-10 9 5 9 10Zm28 0c0 5-4 9-9 9-6 0-10-4-10-9s4-10 10-10c5 0 9 5 9 10Zm28 0c0 5-4 9-10 9-5 0-9-4-9-9s4-10 9-10c6 0 10 5 10 10Zm28 0c0 5-5 9-10 9s-9-4-9-9 4-10 9-10 10 5 10 10Z" fill="#D8DEE3"/><path d="M882 1041c0 5-4 9-9 9s-9-4-9-9 4-10 9-10 9 5 9 10Z" fill="#276CFF"/><path d="M910 1041c0 5-4 9-9 9s-9-4-9-9 4-10 9-10 9 5 9 10Z" fill="#D8DEE3"/><path d="M938 1041c0 5-4 9-9 9s-9-4-9-9 4-10 9-10 9 5 9 10Z" fill="#FFC600"/><path d="M604 1013c0 5-4 9-9 9-6 0-10-4-10-9s4-9 10-9c5 0 9 4 9 9Zm28 0c0 5-4 9-10 9-5 0-9-4-9-9s4-9 9-9c6 0 10 4 10 9Zm28 0c0 5-5 9-10 9s-9-4-9-9 4-9 9-9 10 4 10 9Zm27 0c0 5-4 9-9 9s-9-4-9-9 4-9 9-9 9 4 9 9Zm28 0c0 5-4 9-9 9s-9-4-9-9 4-9 9-9 9 4 9 9Zm28 0c0 5-4 9-9 9s-9-4-9-9 4-9 9-9 9 4 9 9Z" fill="#D8DEE3"/><path d="M771 1013c0 5-4 9-9 9s-10-4-10-9 5-9 10-9 9 4 9 9Z" fill="#FFC600"/><path d="M799 1013c0 5-4 9-9 9-6 0-10-4-10-9s4-9 10-9c5 0 9 4 9 9Zm28 0c0 5-4 9-10 9-5 0-9-4-9-9s4-9 9-9c6 0 10 4 10 9Zm28 0c0 5-5 9-10 9s-9-4-9-9 4-9 9-9 10 4 10 9Zm27 0c0 5-4 9-9 9s-9-4-9-9 4-9 9-9 9 4 9 9Zm28 0c0 5-4 9-9 9s-9-4-9-9 4-9 9-9 9 4 9 9Zm-306-28c0 5-4 9-9 9-6 0-10-4-10-9s4-9 10-9c5 0 9 4 9 9Z" fill="#D8DEE3"/><path d="M632 985c0 5-4 9-10 9-5 0-9-4-9-9s4-9 9-9c6 0 10 4 10 9Z" fill="#00E567"/><path d="M660 985c0 5-5 9-10 9s-9-4-9-9 4-9 9-9 10 4 10 9Z" fill="#D8DEE3"/><circle fill="#D8DEE3" cx="678.1" cy="985" r="9.3"/><path d="M715 985c0 5-4 9-9 9s-9-4-9-9 4-9 9-9 9 4 9 9Z" fill="#276CFF"/><path d="M743 985c0 5-4 9-9 9s-9-4-9-9 4-9 9-9 9 4 9 9Zm28 0c0 5-4 9-9 9s-10-4-10-9 5-9 10-9 9 4 9 9Zm28 0c0 5-4 9-9 9-6 0-10-4-10-9s4-9 10-9c5 0 9 4 9 9Z" fill="#D8DEE3"/><circle fill="#D8DEE3" cx="678.1" cy="1458.8" r="9.3"/><path d="M715 1459c0 5-4 9-9 9s-9-4-9-9 4-10 9-10 9 5 9 10Z" fill="#00E567"/><path d="M715 1487c0 5-4 9-9 9s-9-4-9-9c0-6 4-10 9-10s9 4 9 10Zm28 0c0 5-4 9-9 9s-9-4-9-9c0-6 4-10 9-10s9 4 9 10ZM604 957c0 5-4 9-9 9-6 0-10-4-10-9s4-9 10-9c5 0 9 4 9 9Zm28 0c0 5-4 9-10 9-5 0-9-4-9-9s4-9 9-9c6 0 10 4 10 9Zm28 0c0 5-5 9-10 9s-9-4-9-9 4-9 9-9 10 4 10 9Zm27 0c0 5-4 9-9 9s-9-4-9-9 4-9 9-9 9 4 9 9Z" fill="#D8DEE3"/><path d="M715 957c0 5-4 9-9 9s-9-4-9-9 4-9 9-9 9 4 9 9Z" fill="#00E567"/><path d="M743 957c0 5-4 9-9 9s-9-4-9-9 4-9 9-9 9 4 9 9Zm28 0c0 5-4 9-9 9s-10-4-10-9 5-9 10-9 9 4 9 9Z" fill="#D8DEE3"/><path d="M799 957c0 5-4 9-9 9-6 0-10-4-10-9s4-9 10-9c5 0 9 4 9 9Z" fill="#FF458B"/><circle fill="#D8DEE3" cx="566.7" cy="929.3" r="9.3"/><path d="M604 929c0 5-4 10-9 10-6 0-10-5-10-10s4-9 10-9c5 0 9 4 9 9Z" fill="#D8DEE3"/><path d="M632 929c0 5-4 10-10 10-5 0-9-5-9-10s4-9 9-9c6 0 10 4 10 9Z" fill="#276CFF"/><path d="M660 929c0 5-5 10-10 10s-9-5-9-10 4-9 9-9 10 4 10 9Z" fill="#D8DEE3"/><circle fill="#D8DEE3" cx="678.1" cy="929.3" r="9.3"/><path d="M715 929c0 5-4 10-9 10s-9-5-9-10 4-9 9-9 9 4 9 9Zm28 0c0 5-4 10-9 10s-9-5-9-10 4-9 9-9 9 4 9 9Zm-195-28c0 6-4 10-9 10s-9-4-9-10c0-5 4-9 9-9s9 4 9 9Zm84 0c0 6-4 10-10 10-5 0-9-4-9-10 0-5 4-9 9-9 6 0 10 4 10 9Zm28 0c0 6-5 10-10 10s-9-4-9-10c0-5 4-9 9-9s10 4 10 9Z" fill="#D8DEE3"/><circle fill="#FF458B" cx="678.1" cy="901.4" r="9.3"/><path d="M715 901c0 6-4 10-9 10s-9-4-9-10c0-5 4-9 9-9s9 4 9 9Zm-167-27c0 5-4 9-9 9s-9-4-9-9c0-6 4-10 9-10s9 4 9 10Z" fill="#D8DEE3"/><path d="M520 874c0 5-4 9-9 9s-9-4-9-9c0-6 4-10 9-10s9 4 9 10Z" fill="#276CFF"/><path d="M492 874c0 5-4 9-9 9s-9-4-9-9c0-6 4-10 9-10s9 4 9 10Zm168-28c0 5-5 9-10 9s-9-4-9-9 4-10 9-10 10 5 10 10Z" fill="#D8DEE3"/><circle fill="#D8DEE3" cx="678.1" cy="845.7" r="9.3"/><path d="M520 846c0 5-4 9-9 9s-9-4-9-9 4-10 9-10 9 5 9 10Zm-28 0c0 5-4 9-9 9s-9-4-9-9 4-10 9-10 9 5 9 10Z" fill="#D8DEE3"/><path d="M464 846c0 5-4 9-9 9s-9-4-9-9 4-10 9-10 9 5 9 10Z" fill="#FFC600"/><circle fill="#D8DEE3" cx="427.3" cy="845.7" r="9.3"/><path d="M604 818c0 5-4 9-9 9-6 0-10-4-10-9s4-9 10-9c5 0 9 4 9 9Zm28 0c0 5-4 9-10 9-5 0-9-4-9-9s4-9 9-9c6 0 10 4 10 9Zm-112 0c0 5-4 9-9 9s-9-4-9-9 4-9 9-9 9 4 9 9Z" fill="#D8DEE3"/><circle fill="#D8DEE3" cx="427.3" cy="817.8" r="9.3"/><circle fill="#D8DEE3" cx="399.5" cy="817.8" r="9.3"/><circle fill="#FF458B" cx="427.3" cy="789.6" r="9.3"/><circle fill="#D8DEE3" cx="399.5" cy="789.6" r="9.3"/><path d="M381 790c0 5-4 9-9 9-6 0-10-4-10-9 0-6 4-10 10-10 5 0 9 5 9 10Z" fill="#00E567"/><circle fill="#D8DEE3" cx="343.7" cy="789.6" r="9.3"/></g><path d="M1818 397c1 12-19 12-18 0 0-12 19-12 18 0Z" fill="#D8DEE3"/><path d="M1846 370c0 12-19 12-18 0 0-12 18-12 18 0Z" fill="#FF458B"/><path d="M1846 397c0 12-19 12-18 0 0-12 18-12 18 0Zm56-83c0 12-19 12-19 0s19-12 19 0Zm0 28c0 12-19 12-19 0s19-12 19 0Zm28-56c0 12-19 12-19 0s19-12 19 0Z" fill="#D8DEE3"/><path d="M1930 314c0 12-19 12-19 0s19-12 19 0Z" fill="#FF458B"/><path d="M1930 342c0 12-19 12-19 0s19-12 19 0Zm0 28c0 12-19 12-19 0s19-12 19 0Zm0 27c0 12-19 12-19 0s19-12 19 0Zm0-362c0 12-19 12-19 0s19-12 19 0Zm28 251c0 12-19 12-19 0s19-12 19 0Zm0 28c0 12-19 12-19 0s19-12 19 0Zm0 28c0 12-19 12-19 0s19-12 19 0Z" fill="#D8DEE3"/><path d="M1958 370c0 12-19 12-19 0s19-12 19 0Z" fill="#FFC600"/><path d="M1958 397c0 12-19 12-19 0s19-12 19 0Zm-112 28c0 12-19 12-18 0 0-12 18-12 18 0Zm28 0c0 12-19 12-19 0s19-12 19 0Zm28 0c0 12-19 12-19 0s19-12 19 0Zm28 0c0 12-19 12-19 0s19-12 19 0Z" fill="#D8DEE3"/><path d="M1958 425c0 12-19 12-19 0s19-12 19 0Z" fill="#00E567"/><path d="M1874 453c0 12-19 12-19 0s19-12 19 0Z" fill="#D8DEE3"/><path d="M1902 453c0 12-19 12-19 0s19-12 19 0Z" fill="#276CFF"/><path d="M1930 453c0 12-19 12-19 0s19-12 19 0Zm28 0c0 12-19 12-19 0s19-12 19 0Zm-84 28c0 12-19 12-19 0s19-12 19 0Zm28 0c0 12-19 12-19 0s19-12 19 0Zm28 0c0 12-19 12-19 0s19-12 19 0Z" fill="#D8DEE3"/><path d="M1958 481c0 12-19 12-19 0s19-12 19 0Z" fill="#276CFF"/><path d="M1818 509c1 12-19 12-18 0 0-12 19-12 18 0Z" fill="#FF458B"/><path d="M1846 509c0 12-19 12-18 0 0-12 18-12 18 0Z" fill="#D8DEE3"/><path d="M1874 509c0 12-19 12-19 0s19-12 19 0Z" fill="#00E567"/><path d="M1902 509c0 12-19 12-19 0s19-12 19 0Zm56 0c0 12-19 12-19 0s19-12 19 0Zm-140 28c1 12-19 12-18 0 0-12 19-12 18 0Z" fill="#D8DEE3"/><path d="M1846 537c0 12-19 12-18 0 0-12 18-12 18 0Z" fill="#276CFF"/><path d="M1874 537c0 12-19 12-19 0s19-12 19 0Zm56 0c0 12-19 12-19 0s19-12 19 0Zm-112 28c1 12-19 12-18 0 0-12 19-12 18 0Zm28 0c0 12-19 12-18 0 0-12 18-12 18 0Zm112 0c0 12-19 12-19 0s19-12 19 0Z" fill="#D8DEE3"/><path d="M1846 593c0 12-19 12-18 0a9 9 0 0 1 18 0Z" fill="#FF458B"/><path d="M1874 593c0 12-19 12-19 0 0-13 19-13 19 0Zm28 0c0 12-19 12-19 0 0-13 19-13 19 0Zm28 0c0 12-19 12-19 0 0-13 19-13 19 0Zm-140 28c1 12-19 12-18 0 0-13 19-13 18 0Zm28 0c1 12-19 12-18 0 0-13 19-13 18 0Zm28 0c0 12-19 12-18 0a9 9 0 0 1 18 0Zm28 0c0 12-19 12-19 0 0-13 19-13 19 0Zm28 0c0 12-19 12-19 0 0-13 19-13 19 0Zm28 0c0 12-19 12-19 0 0-13 19-13 19 0Zm28 0c0 12-19 12-19 0 0-13 19-13 19 0Zm-168 28c1 12-19 12-18 0 0-12 19-12 18 0Z" fill="#D8DEE3"/><path d="M1818 649c1 12-19 12-18 0 0-12 19-12 18 0Z" fill="#00E567"/><path d="M1846 649c0 12-19 12-18 0 0-12 18-12 18 0Zm28 0c0 12-19 12-19 0s19-12 19 0Z" fill="#D8DEE3"/><path d="M1902 649c0 12-19 12-19 0s19-13 19 0Z" fill="#276CFF"/><path d="M1930 649c0 12-19 12-19 0s19-12 19 0Zm28 0c0 12-19 12-19 0 0-13 19-12 19 0Zm0-391c0 12-19 12-19 0s19-12 19 0Z" fill="#D8DEE3"/><path d="M1958 230c0 12-19 12-19 0s19-12 19 0Z" fill="#00E567"/><path d="M1958 63c0 12-19 12-19 0s19-12 19 0Zm0-28c0 12-19 12-19 0s19-12 19 0Zm0-28c0 12-19 12-19 0s19-12 19 0Zm724 279c1 12-18 12-18 0s18-12 18 0Zm-27 0c0 12-19 12-19 0s19-12 19 0Zm55 0c1 12-19 12-18 0-1-12 18-12 18 0Zm-83 0c0 12-19 12-19 0s19-12 19 0Zm111 0c1 12-19 12-18 0-1-12 18-12 18 0Zm-56-28c1 12-18 12-18 0s18-12 18 0Zm-27 0c0 12-19 12-19 0s19-12 19 0Zm55 0c1 12-19 12-18 0-1-12 18-12 18 0Zm-83 0c0 12-19 12-19 0s19-12 19 0Zm-28 28c0 12-19 12-19 0s19-12 19 0Zm0-28c0 12-19 12-19 0s19-12 19 0Zm139 0c1 12-19 12-18 0-1-12 18-12 18 0Zm-83-28c0 12-19 12-19 0s19-12 19 0Zm-28 0c0 12-19 12-19 0s19-12 19 0Z" fill="#D8DEE3"/><path d="M2682 230c1 12-18 12-18 0s18-12 18 0Z" fill="#FFC600"/><path d="M2599 230c0 12-19 12-19 0s19-12 19 0Zm111 0c1 12-19 12-18 0-1-12 18-12 18 0Zm28 0c1 12-19 12-18 0-1-12 18-12 18 0Zm-83-28c0 12-19 12-19 0s19-12 19 0Zm-28 0c0 12-19 12-19 0s19-12 19 0Zm55 0c1 12-18 12-18 0s18-12 18 0Zm-83 0c0 12-19 12-19 0s19-12 19 0Zm111 0c1 12-19 12-18 0-1-12 18-12 18 0Zm28 0c1 12-19 12-18 0-1-12 18-12 18 0Zm-83-27c0 12-19 12-19 0 0-13 19-13 19 0Zm-28 0c0 12-19 12-19 0 0-13 19-13 19 0Zm55 0c1 12-18 12-18 0a9 9 0 0 1 18 0Zm-83 0c0 12-19 12-19 0 0-13 19-13 19 0Zm111 0c1 12-19 12-18 0-1-13 18-13 18 0Zm28 0c1 12-19 12-18 0-1-13 18-13 18 0Zm-83-28c0 12-19 12-19 0s19-12 19 0Zm-28 0c0 12-19 12-19 0s19-12 19 0Zm55 0c1 12-18 12-18 0s18-12 18 0Zm-83 0c0 12-19 12-19 0s19-12 19 0Zm111 0c1 12-19 12-18 0-1-12 18-12 18 0Zm28 0c1 12-19 12-18 0-1-12 18-12 18 0Zm-111-28c0 12-19 12-19 0s19-12 19 0Zm-28 0c0 12-19 12-19 0s19-12 19 0Zm56 0c0 12-19 12-19 0s19-12 19 0Zm27 0c1 12-18 12-18 0s18-12 18 0Zm28 0c1 12-19 12-18 0-1-12 18-12 18 0Zm28 0c1 12-19 12-18 0-1-12 18-12 18 0Zm-56 195c1 12-18 12-18 0s18-12 18 0Zm-27 0c0 12-19 12-19 0s19-12 19 0Zm55 0c1 12-19 12-18 0-1-12 18-12 18 0Zm-83 0c0 12-19 12-19 0s19-12 19 0Zm111 0c1 12-19 12-18 0-1-12 18-12 18 0Z" fill="#D8DEE3"/><path d="M2599 314c0 12-19 12-19 0s19-12 19 0Z" fill="#276CFF"/><path d="M2682 342c1 12-18 12-18 0s18-12 18 0Zm-27 0c0 12-19 12-19 0s19-12 19 0Zm55 0c1 12-19 12-18 0-1-12 18-12 18 0Zm-83 0c0 12-19 12-19 0s19-12 19 0Zm111 0c1 12-19 12-18 0-1-12 18-12 18 0Zm-139 0c0 12-19 12-19 0s19-12 19 0Zm83 28c1 12-18 12-18 0s18-12 18 0Zm-27 0c0 12-19 12-19 0s19-12 19 0Zm55 0c1 12-19 12-18 0-1-12 18-12 18 0Zm-83 0c0 12-19 12-19 0s19-12 19 0Zm111 0c1 12-19 12-18 0-1-12 18-12 18 0Zm-139 0c0 12-19 12-19 0s19-12 19 0Zm83 27c1 12-18 12-18 0s18-12 18 0Zm-27 0c0 12-19 12-19 0s19-12 19 0Zm55 0c1 12-19 12-18 0-1-12 18-12 18 0Zm-83 0c0 12-19 12-19 0s19-12 19 0Zm111 0c1 12-19 12-18 0-1-12 18-12 18 0Z" fill="#D8DEE3"/><path d="M2599 397c0 12-19 12-19 0s19-12 19 0Z" fill="#00E567"/><path d="M2571 286c0 12-19 12-19 0s19-12 19 0Zm0-28c0 12-19 12-19 0s19-12 19 0Zm0-28c0 12-19 12-19 0s19-12 19 0Zm0-28c0 12-19 12-19 0s19-12 19 0Zm0-27c0 12-19 12-19 0 0-13 19-13 19 0Zm0-28c0 12-19 12-19 0s19-12 19 0Zm0-28c0 12-19 12-19 0s19-12 19 0Zm0 195c0 12-19 12-19 0s19-12 19 0Zm0 28c0 12-19 12-19 0s19-12 19 0Zm0 28c0 12-19 12-19 0s19-12 19 0Zm0 27c0 12-19 12-19 0s19-12 19 0Zm-28-111c0 12-19 12-18 0-1-12 18-12 18 0Zm0-28c0 12-19 12-18 0-1-12 18-12 18 0Zm0-28c0 12-19 12-18 0-1-12 18-12 18 0Zm0-28c0 12-19 12-18 0-1-12 18-12 18 0Zm0-27c0 12-19 12-18 0-1-13 18-13 18 0Zm0-28c0 12-19 12-18 0-1-12 18-12 18 0Zm0-28c0 12-19 12-18 0-1-12 18-12 18 0Zm0 195c0 12-19 12-18 0-1-12 18-12 18 0Zm0 28c0 12-19 12-18 0-1-12 18-12 18 0Zm0 28c0 12-19 12-18 0-1-12 18-12 18 0Zm0 27c0 12-19 12-18 0-1-12 18-12 18 0Zm-28-111c1 12-19 12-18 0-1-12 18-12 18 0Zm0-28c1 12-19 12-18 0-1-12 18-12 18 0Z" fill="#D8DEE3"/><path d="M2515 230c1 12-19 12-18 0-1-12 18-12 18 0Z" fill="#FFC600"/><path d="M2515 202c1 12-19 12-18 0-1-12 18-12 18 0Zm0-27c1 12-19 12-18 0-1-13 18-13 18 0Zm0-28c1 12-19 12-18 0-1-12 18-12 18 0Zm0-28c1 12-19 12-18 0-1-12 18-12 18 0Zm0 195c1 12-19 12-18 0-1-12 18-12 18 0Zm0 28c1 12-19 12-18 0-1-12 18-12 18 0Zm0 28c1 12-19 12-18 0-1-12 18-12 18 0Zm0 27c1 12-19 12-18 0-1-12 18-12 18 0Zm-28-111c1 12-19 12-18 0-1-12 18-12 18 0Zm0-28c1 12-19 12-18 0-1-12 18-12 18 0Zm0-28c1 12-19 12-18 0-1-12 18-12 18 0Zm0-28c1 12-19 12-18 0-1-12 18-12 18 0Zm0-27c1 12-19 12-18 0-1-13 18-13 18 0Zm0-28c1 12-19 12-18 0-1-12 18-12 18 0Zm0-28c1 12-19 12-18 0-1-12 18-12 18 0Zm0 195c1 12-19 12-18 0-1-12 18-12 18 0Zm0 28c1 12-19 12-18 0-1-12 18-12 18 0Zm0 28c1 12-19 12-18 0-1-12 18-12 18 0Zm0 27c1 12-19 12-18 0-1-12 18-12 18 0Zm-27-111c0 12-19 12-19 0s19-12 19 0Zm0-28c0 12-19 12-19 0s19-12 19 0Zm0-28c0 12-19 12-19 0s19-12 19 0Zm0-28c0 12-19 12-19 0s19-12 19 0Zm0-27c0 12-19 12-19 0 0-13 19-13 19 0Zm0-28c0 12-19 12-19 0s19-12 19 0Zm0-28c0 12-19 12-19 0s19-12 19 0Zm0 195c0 12-19 12-19 0s19-12 19 0Zm0 28c0 12-19 12-19 0s19-12 19 0Zm0 28c0 12-19 12-19 0s19-12 19 0Zm0 27c0 12-19 12-19 0s19-12 19 0Zm-28-111c0 12-19 12-19 0s19-12 19 0Zm0-28c0 12-19 12-19 0s19-12 19 0Zm0-28c0 12-19 12-19 0s19-12 19 0Zm0-28c0 12-19 12-19 0s19-12 19 0Zm0-27c0 12-19 12-19 0 0-13 19-13 19 0Zm0-28c0 12-19 12-19 0s19-12 19 0Zm0-28c0 12-19 12-19 0s19-12 19 0Zm0 195c0 12-19 12-19 0s19-12 19 0Zm0 28c0 12-19 12-19 0s19-12 19 0Zm0 28c0 12-19 12-19 0s19-12 19 0Zm0 27c0 12-19 12-19 0s19-12 19 0Zm195-306c0 12-19 12-19 0s19-12 19 0Zm-28 0c0 12-19 12-19 0s19-12 19 0Zm56 0c0 12-19 12-19 0s19-12 19 0Zm27 0c1 12-18 12-18 0s18-12 18 0Zm28 0c1 12-19 12-18 0-1-12 18-12 18 0Zm28 0c1 12-19 12-18 0-1-12 18-12 18 0Zm-167 0c0 12-19 12-19 0s19-12 19 0Zm-28 0c0 12-19 12-18 0-1-12 18-12 18 0Zm-28 0c1 12-19 12-18 0-1-12 18-12 18 0Zm-28 0c1 12-19 12-18 0-1-12 18-12 18 0Zm-27 0c0 12-19 12-19 0s19-12 19 0Zm-28 0c0 12-19 12-19 0s19-12 19 0Zm195-28c0 12-19 12-19 0s19-12 19 0Zm-28 0c0 12-19 12-19 0s19-12 19 0Zm56 0c0 12-19 12-19 0s19-12 19 0Zm27 0c1 12-18 12-18 0s18-12 18 0Zm28 0c1 12-19 12-18 0-1-12 18-12 18 0Zm28 0c1 12-19 12-18 0-1-12 18-12 18 0Zm-167 0c0 12-19 12-19 0s19-12 19 0Zm-28 0c0 12-19 12-18 0-1-12 18-12 18 0Zm-28 0c1 12-19 12-18 0-1-12 18-12 18 0Zm-28 0c1 12-19 12-18 0-1-12 18-12 18 0Zm-27 0c0 12-19 12-19 0s19-12 19 0Zm-28 0c0 12-19 12-19 0s19-12 19 0Zm195-28c0 12-19 12-19 0s19-12 19 0Zm-28 0c0 12-19 12-19 0s19-12 19 0Zm111 0c1 12-19 12-18 0-1-12 18-12 18 0Zm28 0c1 12-19 12-18 0-1-12 18-12 18 0Zm-195 0c0 12-19 12-18 0-1-12 18-12 18 0Zm-56 0c1 12-19 12-18 0-1-12 18-12 18 0Zm-27 0c0 12-19 12-19 0s19-12 19 0Zm-28 0c0 12-19 12-19 0s19-12 19 0Zm278-28c1 12-19 12-18 0-1-12 18-12 18 0Zm28 0c1 12-19 12-18 0-1-12 18-12 18 0Zm-251 0c1 12-19 12-18 0-1-12 18-12 18 0Zm-27 0c0 12-19 12-19 0s19-12 19 0Zm-28 0c0 12-19 12-19 0s19-12 19 0Zm250 418c1 12-18 12-18 0s18-12 18 0Zm-27 0c0 12-19 12-19 0s19-12 19 0Z" fill="#D8DEE3"/><path d="M2710 425c1 12-19 12-18 0-1-12 18-12 18 0Z" fill="#276CFF"/><path d="M2627 425c0 12-19 12-19 0s19-12 19 0Zm111 0c1 12-19 12-18 0-1-12 18-12 18 0Zm-139 0c0 12-19 12-19 0s19-12 19 0Zm-28 0c0 12-19 12-19 0s19-12 19 0Zm-28 0c0 12-19 12-18 0-1-12 18-12 18 0Zm-28 0c1 12-19 12-18 0-1-12 18-12 18 0Z" fill="#D8DEE3"/><path d="M2487 425c1 12-19 12-18 0-1-12 18-12 18 0Z" fill="#FFC600"/><path d="M2460 425c0 12-19 12-19 0s19-12 19 0Zm-28 0c0 12-19 12-19 0s19-12 19 0Zm250 28c1 12-18 12-18 0s18-12 18 0Zm-27 0c0 12-19 12-19 0s19-12 19 0Zm55 0c1 12-19 12-18 0-1-12 18-12 18 0Zm-83 0c0 12-19 12-19 0s19-12 19 0Zm111 0c1 12-19 12-18 0-1-12 18-12 18 0Zm-139 0c0 12-19 12-19 0s19-12 19 0Zm-28 0c0 12-19 12-19 0s19-12 19 0Zm-28 0c0 12-19 12-18 0-1-12 18-12 18 0Zm-28 0c1 12-19 12-18 0-1-12 18-12 18 0Zm-28 0c1 12-19 12-18 0-1-12 18-12 18 0Zm-27 0c0 12-19 12-19 0s19-12 19 0Zm-28 0c0 12-19 12-19 0s19-12 19 0Zm250 28c1 12-18 12-18 0s18-12 18 0Zm-27 0c0 12-19 12-19 0s19-12 19 0Zm55 0c1 12-19 12-18 0-1-12 18-12 18 0Zm-83 0c0 12-19 12-19 0s19-12 19 0Zm111 0c1 12-19 12-18 0-1-12 18-12 18 0Zm-139 0c0 12-19 12-19 0s19-12 19 0Zm-28 0c0 12-19 12-19 0s19-12 19 0Zm-28 0c0 12-19 12-18 0-1-12 18-12 18 0Zm-28 0c1 12-19 12-18 0-1-12 18-12 18 0Zm-28 0c1 12-19 12-18 0-1-12 18-12 18 0Zm-27 0c0 12-19 12-19 0s19-12 19 0Zm-28 0c0 12-19 12-19 0s19-12 19 0Zm250 28c1 12-18 12-18 0s18-12 18 0Zm-27 0c0 12-19 12-19 0s19-12 19 0Zm55 0c1 12-19 12-18 0-1-12 18-12 18 0Zm-83 0c0 12-19 12-19 0s19-12 19 0Zm111 0c1 12-19 12-18 0-1-12 18-12 18 0Zm-139 0c0 12-19 12-19 0s19-12 19 0Zm-28 0c0 12-19 12-19 0s19-12 19 0Zm-28 0c0 12-19 12-18 0-1-12 18-12 18 0Zm-28 0c1 12-19 12-18 0-1-12 18-12 18 0Zm-28 0c1 12-19 12-18 0-1-12 18-12 18 0Zm-27 0c0 12-19 12-19 0s19-12 19 0Zm-28 0c0 12-19 12-19 0s19-12 19 0Zm250 28c1 12-18 12-18 0s18-12 18 0Zm-27 0c0 12-19 12-19 0s19-12 19 0Zm55 0c1 12-19 12-18 0-1-12 18-12 18 0Zm-83 0c0 12-19 12-19 0s19-12 19 0Zm111 0c1 12-19 12-18 0-1-12 18-12 18 0Zm-139 0c0 12-19 12-19 0s19-12 19 0Zm-28 0c0 12-19 12-19 0s19-12 19 0Zm-28 0c0 12-19 12-18 0-1-12 18-12 18 0Zm-28 0c1 12-19 12-18 0-1-12 18-12 18 0Zm-28 0c1 12-19 12-18 0-1-12 18-12 18 0Zm-27 0c0 12-19 12-19 0s19-12 19 0Zm-28 0c0 12-19 12-19 0s19-12 19 0Zm250 28c1 12-18 12-18 0s18-12 18 0Zm-27 0c0 12-19 12-19 0s19-12 19 0Zm55 0c1 12-19 12-18 0-1-12 18-12 18 0Zm-83 0c0 12-19 12-19 0s19-12 19 0Zm111 0c1 12-19 12-18 0-1-12 18-12 18 0Zm-139 0c0 12-19 12-19 0s19-12 19 0Zm-28 0c0 12-19 12-19 0s19-12 19 0Zm-28 0c0 12-19 12-18 0-1-12 18-12 18 0Zm-28 0c1 12-19 12-18 0-1-12 18-12 18 0Zm-28 0c1 12-19 12-18 0-1-12 18-12 18 0Zm-27 0c0 12-19 12-19 0s19-12 19 0Zm-28 0c0 12-19 12-19 0s19-12 19 0Zm250 28c1 12-18 12-18 0a9 9 0 0 1 18 0Zm-27 0c0 12-19 12-19 0 0-13 19-13 19 0Zm55 0c1 12-19 12-18 0-1-13 18-13 18 0Zm-83 0c0 12-19 12-19 0 0-13 19-13 19 0Zm111 0c1 12-19 12-18 0-1-13 18-13 18 0Zm-139 0c0 12-19 12-19 0 0-13 19-13 19 0Zm-28 0c0 12-19 12-19 0 0-13 19-13 19 0Zm-28 0c0 12-19 12-18 0-1-13 18-13 18 0Zm-28 0c1 12-19 12-18 0-1-13 18-13 18 0Zm-28 0c1 12-19 12-18 0-1-13 18-13 18 0Zm-27 0c0 12-19 12-19 0 0-13 19-13 19 0Zm-28 0c0 12-19 12-19 0 0-13 19-13 19 0Zm250 28c1 12-18 12-18 0a9 9 0 0 1 18 0Zm-27 0c0 12-19 12-19 0 0-13 19-13 19 0Zm55 0c1 12-19 12-18 0-1-13 18-13 18 0Zm-83 0c0 12-19 12-19 0 0-13 19-13 19 0Zm111 0c1 12-19 12-18 0-1-13 18-13 18 0Zm-139 0c0 12-19 12-19 0 0-13 19-13 19 0Zm-28 0c0 12-19 12-19 0 0-13 19-13 19 0Zm-28 0c0 12-19 12-18 0-1-13 18-13 18 0Zm-28 0c1 12-19 12-18 0-1-13 18-13 18 0Zm-28 0c1 12-19 12-18 0-1-13 18-13 18 0Zm-27 0c0 12-19 12-19 0 0-13 19-13 19 0Zm-28 0c0 12-19 12-19 0 0-13 19-13 19 0Zm250 28c1 12-18 12-18 0s18-12 18 0Zm-27 0c0 12-19 12-19 0 0-13 19-12 19 0Zm55 0c1 12-19 12-18 0-1-12 18-12 18 0Zm-83 0c0 12-19 12-19 0s19-12 19 0Zm111 0c1 12-19 12-18 0-1-12 18-12 18 0Zm-139 0c0 12-19 12-19 0 0-13 19-12 19 0Zm-28 0c0 12-19 12-19 0s19-12 19 0Zm-28 0c0 12-19 12-18 0-1-12 18-12 18 0Zm-28 0c1 12-19 12-18 0-1-12 18-12 18 0Zm-28 0c1 12-19 12-18 0-1-12 18-13 18 0Zm-27 0c0 12-19 12-19 0 0-13 19-12 19 0Zm-28 0c0 12-19 12-19 0s19-12 19 0Zm-28-363c0 12-19 12-19 0s19-12 19 0Zm0-28c0 12-19 12-19 0s19-12 19 0Z" fill="#D8DEE3"/><path d="M2404 230c0 12-19 12-19 0s19-12 19 0Z" fill="#00E567"/><path d="M2404 202c0 12-19 12-19 0s19-12 19 0Zm0-27c0 12-19 12-19 0 0-13 19-13 19 0Zm0-28c0 12-19 12-19 0s19-12 19 0Zm0-28c0 12-19 12-19 0s19-12 19 0Zm0 195c0 12-19 12-19 0s19-12 19 0Zm0 28c0 12-19 12-19 0s19-12 19 0Zm0 28c0 12-19 12-19 0s19-12 19 0Zm0 27c0 12-19 12-19 0s19-12 19 0Zm0-306c0 12-19 12-19 0s19-12 19 0Zm0-28c0 12-19 12-19 0s19-12 19 0Zm0-28c0 12-19 12-19 0s19-12 19 0Zm0 390c0 12-19 12-19 0s19-12 19 0Zm0 28c0 12-19 12-19 0s19-12 19 0Zm0 28c0 12-19 12-19 0s19-12 19 0Zm0 28c0 12-19 12-19 0s19-12 19 0Zm0 28c0 12-19 12-19 0s19-12 19 0Zm0 28c0 12-19 12-19 0s19-12 19 0Zm0 28c0 12-19 12-19 0 0-13 19-13 19 0Zm0 28c0 12-19 12-19 0 0-13 19-13 19 0Zm0 28c0 12-19 12-19 0s19-12 19 0Zm-28-363c0 12-19 12-19 0s19-12 19 0Zm0-28c0 12-19 12-19 0s19-12 19 0Zm0-28c0 12-19 12-19 0s19-12 19 0Zm0-28c0 12-19 12-19 0s19-12 19 0Zm0-27c0 12-19 12-19 0 0-13 19-13 19 0Zm0-28c0 12-19 12-19 0s19-12 19 0Zm0-28c0 12-19 12-19 0s19-12 19 0Zm0 195c0 12-19 12-19 0s19-12 19 0Zm0 28c0 12-19 12-19 0s19-12 19 0Zm0 28c0 12-19 12-19 0s19-12 19 0Z" fill="#D8DEE3"/><path d="M2376 397c0 12-19 12-19 0s19-12 19 0Z" fill="#276CFF"/><path d="M2376 91c0 12-19 12-19 0s19-12 19 0Zm0-28c0 12-19 12-19 0s19-12 19 0Zm0-28c0 12-19 12-19 0s19-12 19 0Zm0 390c0 12-19 12-19 0s19-12 19 0Zm0 28c0 12-19 12-19 0s19-12 19 0Zm0 28c0 12-19 12-19 0s19-12 19 0Zm0 28c0 12-19 12-19 0s19-12 19 0Zm0 28c0 12-19 12-19 0s19-12 19 0Zm0 28c0 12-19 12-19 0s19-12 19 0Zm0 28c0 12-19 12-19 0 0-13 19-13 19 0Zm0 28c0 12-19 12-19 0 0-13 19-13 19 0Zm0 28c0 12-19 12-19 0s19-12 19 0Zm-28-363c0 12-19 12-19 0s19-12 19 0Zm0-28c0 12-19 12-19 0s19-12 19 0Zm0-28c0 12-19 12-19 0s19-12 19 0Zm0-28c0 12-19 12-19 0s19-12 19 0Zm0-27c0 12-19 12-19 0 0-13 19-13 19 0Zm0-28c0 12-19 12-19 0s19-12 19 0Zm0-28c0 12-19 12-19 0s19-12 19 0Zm0 195c0 12-19 12-19 0s19-12 19 0Zm0 28c0 12-19 12-19 0s19-12 19 0Zm0 28c0 12-19 12-19 0s19-12 19 0Zm0 27c0 12-19 12-19 0s19-12 19 0Zm0-306c0 12-19 12-19 0s19-12 19 0Z" fill="#D8DEE3"/><path d="M2348 425c0 12-19 12-19 0s19-12 19 0Z" fill="#FF458B"/><path d="M2348 453c0 12-19 12-19 0s19-12 19 0Zm0 28c0 12-19 12-19 0s19-12 19 0Zm0 28c0 12-19 12-19 0s19-12 19 0Zm0 28c0 12-19 12-19 0s19-12 19 0Zm0 28c0 12-19 12-19 0s19-12 19 0Zm0 28c0 12-19 12-19 0 0-13 19-13 19 0Zm0 28c0 12-19 12-19 0 0-13 19-13 19 0Zm0 28c0 12-19 12-19 0s19-13 19 0Zm-28-363c0 12-19 12-19 0s19-12 19 0Zm0-28c0 12-19 12-19 0s19-12 19 0Zm0-28c0 12-19 12-19 0s19-12 19 0Zm0-28c0 12-19 12-19 0s19-12 19 0Zm0-27c0 12-19 12-19 0 0-13 19-13 19 0Zm0-28c0 12-19 12-19 0s19-12 19 0Z" fill="#D8DEE3"/><path d="M2320 314c0 12-19 12-19 0s19-12 19 0Z" fill="#276CFF"/><path d="M2320 342c0 12-19 12-19 0s19-12 19 0Zm0 28c0 12-19 12-19 0s19-12 19 0Zm0 27c0 12-19 12-19 0s19-12 19 0Zm0 28c0 12-19 12-19 0s19-12 19 0Zm0 28c0 12-19 12-19 0s19-12 19 0Zm0 28c0 12-19 12-19 0s19-12 19 0Zm0 28c0 12-19 12-19 0s19-12 19 0Zm0 28c0 12-19 12-19 0s19-12 19 0Zm0 28c0 12-19 12-19 0s19-12 19 0Zm0 28c0 12-19 12-19 0 0-13 19-13 19 0Zm0 28c0 12-19 12-19 0 0-13 19-13 19 0Zm0 28c0 12-19 12-19 0s19-12 19 0Zm-28-363c0 12-19 12-19 0s19-12 19 0Zm0-28c0 12-19 12-19 0s19-12 19 0Zm0-28c0 12-19 12-19 0s19-12 19 0Zm0-28c0 12-19 12-19 0s19-12 19 0Zm0-27c0 12-19 12-19 0 0-13 19-13 19 0Zm0-28c0 12-19 12-19 0s19-12 19 0Zm0-28c0 12-19 12-19 0s19-12 19 0Zm0 195c0 12-19 12-19 0s19-12 19 0Zm0 28c0 12-19 12-19 0s19-12 19 0Zm0 28c0 12-19 12-19 0s19-12 19 0Zm0 27c0 12-19 12-19 0s19-12 19 0Z" fill="#D8DEE3"/><path d="M2292 425c0 12-19 12-19 0s19-12 19 0Z" fill="#00E567"/><path d="M2292 453c0 12-19 12-19 0s19-12 19 0Zm0 28c0 12-19 12-19 0s19-12 19 0Zm0 28c0 12-19 12-19 0s19-12 19 0Zm0 28c0 12-19 12-19 0s19-12 19 0Zm0 28c0 12-19 12-19 0s19-12 19 0Zm0 28c0 12-19 12-19 0 0-13 19-13 19 0Zm0 28c0 12-19 12-19 0 0-13 19-13 19 0Zm0 28c0 12-19 12-19 0s19-12 19 0Zm-28-363c0 12-19 12-18 0 0-12 18-12 18 0Zm0-28c0 12-19 12-18 0 0-12 18-12 18 0Zm0-28c0 12-19 12-18 0 0-12 18-12 18 0Zm0-28c0 12-19 12-18 0 0-12 18-12 18 0Zm0-27c0 12-19 12-18 0a9 9 0 0 1 18 0Z" fill="#D8DEE3"/><path d="M2264 314c0 12-19 12-18 0 0-12 18-12 18 0Z" fill="#FF458B"/><path d="M2264 342c0 12-19 12-18 0 0-12 18-12 18 0Zm0 28c0 12-19 12-18 0 0-12 18-12 18 0Zm0 27c0 12-19 12-18 0 0-12 18-12 18 0Zm0 28c0 12-19 12-18 0 0-12 18-12 18 0Zm0 28c0 12-19 12-18 0 0-12 18-12 18 0Zm0 28c0 12-19 12-18 0 0-12 18-12 18 0Zm0 28c0 12-19 12-18 0 0-12 18-12 18 0Zm0 84c0 12-19 12-18 0a9 9 0 0 1 18 0Zm0 28c0 12-19 12-18 0a9 9 0 0 1 18 0Zm-28-335c1 12-19 12-18 0 0-12 19-12 18 0Zm0-28c1 12-19 12-18 0 0-12 19-12 18 0Zm0-28c1 12-19 12-18 0 0-12 19-12 18 0Zm0-28c1 12-19 12-18 0 0-12 19-12 18 0Zm0-27c1 12-19 12-18 0 0-13 19-13 18 0Zm0 139c1 12-19 12-18 0 0-12 19-12 18 0Z" fill="#D8DEE3"/><path d="M2236 342c1 12-19 12-18 0 0-12 19-12 18 0Z" fill="#276CFF"/><path d="M2236 370c1 12-19 12-18 0 0-12 19-12 18 0Zm0 27c1 12-19 12-18 0 0-12 19-12 18 0Zm0-362c1 12-19 12-18 0 0-12 19-12 18 0Zm0 390c1 12-19 12-18 0 0-12 19-12 18 0Zm0 28c1 12-19 12-18 0 0-12 19-12 18 0Zm0 84c1 12-19 12-18 0 0-12 19-12 18 0Zm0 28c1 12-19 12-18 0 0-12 19-12 18 0Zm0 28c1 12-19 12-18 0 0-13 19-13 18 0Zm0 28c1 12-19 12-18 0 0-13 19-13 18 0Zm0 28c1 12-19 12-18 0 0-12 19-12 18 0Zm-28-363c1 12-19 12-18 0 0-12 19-12 18 0Zm0-28c1 12-19 12-18 0 0-12 19-12 18 0Zm0-28c1 12-19 12-18 0 0-12 19-12 18 0Zm0-28c1 12-19 12-18 0 0-12 19-12 18 0Zm0 112c1 12-19 12-18 0 0-12 19-12 18 0Zm0 28c1 12-19 12-18 0 0-12 19-12 18 0Zm0 28c1 12-19 12-18 0 0-12 19-12 18 0Z" fill="#D8DEE3"/><path d="M2208 397c1 12-19 12-18 0 0-12 19-12 18 0Z" fill="#FFC600"/><path d="M2208 63c1 12-19 12-18 0 0-12 19-12 18 0Zm0 362c1 12-19 12-18 0 0-12 19-12 18 0Zm0 28c1 12-19 12-18 0 0-12 19-12 18 0Zm0 28c1 12-19 12-18 0 0-12 19-12 18 0Zm0 28c1 12-19 12-18 0 0-12 19-12 18 0Zm0 28c1 12-19 12-18 0 0-12 19-12 18 0Zm0 28c1 12-19 12-18 0 0-12 19-12 18 0Zm0 28c1 12-19 12-18 0 0-13 19-13 18 0Zm0 28c1 12-19 12-18 0 0-13 19-13 18 0Zm0 28c1 12-19 12-18 0 0-12 19-13 18 0Zm-27-363c0 12-19 12-19 0s19-12 19 0Z" fill="#D8DEE3"/><path d="M2181 258c0 12-19 12-19 0s19-12 19 0Z" fill="#FF458B"/><path d="M2181 230c0 12-19 12-19 0s19-12 19 0Zm0-28c0 12-19 12-19 0s19-12 19 0Zm0-55c0 12-19 12-19 0s19-12 19 0Zm0-28c0 12-19 12-19 0s19-12 19 0Zm0 195c0 12-19 12-19 0s19-12 19 0Z" fill="#D8DEE3"/><path d="M2181 342c0 12-19 12-19 0s19-12 19 0Z" fill="#00E567"/><path d="M2181 370c0 12-19 12-19 0s19-12 19 0Zm0 27c0 12-19 12-19 0s19-12 19 0Zm0-306c0 12-19 12-19 0s19-12 19 0Zm0 334c0 12-19 12-19 0s19-12 19 0Zm0 28c0 12-19 12-19 0s19-12 19 0Zm0 28c0 12-19 12-19 0s19-12 19 0Zm0 28c0 12-19 12-19 0s19-12 19 0Zm0 28c0 12-19 12-19 0s19-12 19 0Zm0 28c0 12-19 12-19 0s19-12 19 0Zm0 28c0 12-19 12-19 0 0-13 19-13 19 0Zm0 28c0 12-19 12-19 0 0-13 19-13 19 0Zm0 28c0 12-19 12-19 0s19-13 19 0Zm-28-363c0 12-19 12-19 0s19-12 19 0Zm0-28c0 12-19 12-19 0s19-12 19 0Zm0-28c0 12-19 12-19 0s19-12 19 0Zm0-28c0 12-19 12-19 0s19-12 19 0Z" fill="#D8DEE3"/><path d="M2153 314c0 12-19 12-19 0s19-12 19 0Z" fill="#FFC600"/><path d="M2153 342c0 12-19 12-19 0s19-12 19 0Zm0 28c0 12-19 12-19 0s19-12 19 0Zm0 27c0 12-19 12-19 0s19-12 19 0Zm0 28c0 12-19 12-19 0s19-12 19 0Zm0 28c0 12-19 12-19 0s19-12 19 0Zm0 28c0 12-19 12-19 0s19-12 19 0Zm0 56c0 12-19 12-19 0s19-12 19 0Zm0 28c0 12-19 12-19 0s19-12 19 0Zm0 28c0 12-19 12-19 0 0-13 19-13 19 0Zm0 28c0 12-19 12-19 0 0-13 19-13 19 0Zm0 28c0 12-19 12-19 0s19-12 19 0Z" fill="#D8DEE3"/><path d="M2125 286c0 12-19 12-19 0s19-12 19 0Z" fill="#00E567"/><path d="M2125 258c0 12-19 12-19 0s19-12 19 0Zm0-28c0 12-19 12-19 0s19-12 19 0Zm0 84c0 12-19 12-19 0s19-12 19 0Zm0 28c0 12-19 12-19 0s19-12 19 0Z" fill="#D8DEE3"/><path d="M2125 370c0 12-19 12-19 0s19-12 19 0Z" fill="#276CFF"/><path d="M2125 397c0 12-19 12-19 0s19-12 19 0Zm0 28c0 12-19 12-19 0s19-12 19 0Zm0 28c0 12-19 12-19 0s19-12 19 0Zm0 28c0 12-19 12-19 0s19-12 19 0Zm0 56c0 12-19 12-19 0s19-12 19 0Zm0 28c0 12-19 12-19 0s19-12 19 0Zm0 56c0 12-19 12-19 0 0-13 19-13 19 0Zm0 28c0 12-19 12-19 0s19-12 19 0Zm-28-363c0 12-19 12-19 0s19-12 19 0Zm0-56c0 12-19 12-19 0s19-12 19 0Zm0-28c0 12-19 12-19 0s19-12 19 0Zm0 112c0 12-19 12-19 0s19-12 19 0Zm0 28c0 12-19 12-19 0s19-12 19 0Zm0 28c0 12-19 12-19 0s19-12 19 0Zm0 27c0 12-19 12-19 0s19-12 19 0Z" fill="#D8DEE3"/><path d="M2097 425c0 12-19 12-19 0s19-12 19 0Z" fill="#00E567"/><path d="M2097 453c0 12-19 12-19 0s19-12 19 0Zm0 84c0 12-19 12-19 0s19-12 19 0Zm0 28c0 12-19 12-19 0s19-12 19 0Zm0 56c0 12-19 12-19 0 0-13 19-13 19 0Zm0 28c0 12-19 12-19 0s19-12 19 0Zm-28-363c0 12-19 12-19 0s19-12 19 0Zm0-28c0 12-19 12-19 0s19-12 19 0Zm0-28c0 12-19 12-19 0s19-12 19 0Zm0-28c0 12-19 12-19 0s19-12 19 0Z" fill="#D8DEE3"/><path d="M2069 314c0 12-19 12-19 0s19-12 19 0Z" fill="#FFC600"/><path d="M2069 342c0 12-19 12-19 0s19-12 19 0Zm0 28c0 12-19 12-19 0s19-12 19 0Zm0 27c0 12-19 12-19 0s19-12 19 0Zm0 28c0 12-19 12-19 0s19-12 19 0Z" fill="#D8DEE3"/><path d="M2069 453c0 12-19 12-19 0s19-12 19 0Z" fill="#276CFF"/><path d="M2069 481c0 12-19 12-19 0s19-12 19 0Z" fill="#D8DEE3"/><path d="M2069 509c0 12-19 12-19 0s19-12 19 0Z" fill="#FFC600"/><path d="M2069 537c0 12-19 12-19 0s19-12 19 0Zm0 84c0 12-19 12-19 0 0-13 19-13 19 0Zm0 28c0 12-19 12-19 0s19-13 19 0Zm-28-363c1 12-19 12-18 0 0-12 19-12 18 0Z" fill="#D8DEE3"/><path d="M2041 258c1 12-19 12-18 0 0-12 19-12 18 0Z" fill="#276CFF"/><path d="M2041 230c1 12-19 12-18 0 0-12 19-12 18 0Zm0-28c1 12-19 12-18 0 0-12 19-12 18 0Z" fill="#D8DEE3"/><path d="M2041 175c1 12-19 12-18 0 0-13 19-13 18 0Z" fill="#FFC600"/><path d="M2041 314c1 12-19 12-18 0 0-12 19-12 18 0Zm0 28c1 12-19 12-18 0 0-12 19-12 18 0Z" fill="#D8DEE3"/><path d="M2041 370c1 12-19 12-18 0 0-12 19-12 18 0Z" fill="#FF458B"/><path d="M2041 397c1 12-19 12-18 0 0-12 19-12 18 0Zm0 28c1 12-19 12-18 0 0-12 19-12 18 0Zm0 28c1 12-19 12-18 0 0-12 19-12 18 0Zm0 28c1 12-19 12-18 0 0-12 19-12 18 0Zm0 28c1 12-19 12-18 0 0-12 19-12 18 0Zm0 28c1 12-19 12-18 0 0-12 19-12 18 0Zm0 28c1 12-19 12-18 0 0-12 19-12 18 0Zm0 56c1 12-19 12-18 0 0-13 19-13 18 0Zm0 28c1 12-19 12-18 0 0-12 19-12 18 0Zm-28-363c1 12-19 12-18 0 0-12 19-12 18 0Z" fill="#D8DEE3"/><path d="M2013 230c1 12-19 12-18 0 0-12 19-12 18 0Z" fill="#FF458B"/><path d="M2013 202c1 12-19 12-18 0 0-12 19-12 18 0Zm0-27c1 12-19 12-18 0 0-13 19-13 18 0Zm0 139c1 12-19 12-18 0 0-12 19-12 18 0Zm0 56c1 12-19 12-18 0 0-12 19-12 18 0Z" fill="#D8DEE3"/><path d="M2013 397c1 12-19 12-18 0 0-12 19-12 18 0Z" fill="#276CFF"/><path d="M2013 425c1 12-19 12-18 0 0-12 19-12 18 0Z" fill="#D8DEE3"/><path d="M2013 453c1 12-19 12-18 0 0-12 19-12 18 0Z" fill="#FF458B"/><path d="M2013 481c1 12-19 12-18 0 0-12 19-12 18 0Zm0 28c1 12-19 12-18 0 0-12 19-12 18 0Zm0 28c1 12-19 12-18 0 0-12 19-12 18 0Zm0 112c1 12-19 12-18 0 0-12 19-12 18 0Zm-28-363c1 12-18 12-18 0s19-12 18 0Zm0-28c1 12-18 12-18 0s19-12 18 0Zm0-28c1 12-18 12-18 0s19-12 18 0Z" fill="#D8DEE3"/><path d="M1985 202c1 12-18 12-18 0s19-12 18 0Z" fill="#276CFF"/><path d="M1985 397c1 12-18 12-18 0s19-12 18 0Zm0-334c1 12-18 12-18 0s19-12 18 0Zm0-56c1 12-18 12-18 0s19-12 18 0Zm0 418c1 12-18 12-18 0s19-12 18 0Zm0 28c1 12-18 12-18 0s19-12 18 0Zm0 28c1 12-18 12-18 0s19-12 18 0Zm0 56c1 12-18 12-18 0s19-12 18 0Zm0 28c1 12-18 12-18 0s19-12 18 0Zm0 56c1 12-18 12-18 0 0-13 19-13 18 0Z" fill="#D8DEE3"/><path d="M1985 649c1 12-18 12-18 0s19-12 18 0Z" fill="#FFC600"/><path d="M1958 1011c0 12-19 12-19 0s19-12 19 0Z" fill="#D8DEE3"/><path d="M1958 899c0 12-19 12-19 0s19-12 19 0Z" fill="#FFC600"/><path d="M1958 872c0 12-19 12-19 0 0-13 19-13 19 0Zm-28-28c0 12-19 12-19 0s19-12 19 0Zm28 0c0 12-19 12-19 0s19-12 19 0Zm-168-28c1 12-19 12-18 0 0-12 19-12 18 0Zm28 0c1 12-19 12-18 0 0-12 19-12 18 0Zm28 0c0 12-19 12-18 0 0-12 18-12 18 0Zm28 0c0 12-19 12-19 0s19-12 19 0Zm28 0c0 12-19 12-19 0s19-12 19 0Zm28 0c0 12-19 12-19 0s19-12 19 0Zm28 0c0 12-19 12-19 0s19-12 19 0Z" fill="#D8DEE3"/><path d="M1763 788c0 12-19 12-19 0s19-12 19 0Z" fill="#FFC600"/><path d="M1790 788c1 12-19 12-18 0 0-12 19-12 18 0Zm28 0c1 12-19 12-18 0 0-12 19-12 18 0Zm28 0c0 12-19 12-18 0 0-12 18-12 18 0Zm28 0c0 12-19 12-19 0s19-12 19 0Zm28 0c0 12-19 12-19 0s19-12 19 0Zm28 0c0 12-19 12-19 0s19-12 19 0Zm28 0c0 12-19 12-19 0s19-12 19 0Zm-223-28c0 12-19 12-19 0s19-12 19 0Zm28 0c0 12-19 12-19 0s19-12 19 0Zm27 0c1 12-19 12-18 0 0-12 19-12 18 0Zm28 0c1 12-19 12-18 0 0-12 19-12 18 0Zm28 0c0 12-19 12-18 0 0-12 18-12 18 0Z" fill="#D8DEE3"/><path d="M1874 760c0 12-19 12-19 0s19-12 19 0Z" fill="#FF458B"/><path d="M1902 760c0 12-19 12-19 0s19-12 19 0Zm28 0c0 12-19 12-19 0s19-12 19 0Zm28 0c0 12-19 12-19 0s19-12 19 0Zm-195-28c0 12-19 12-19 0s19-12 19 0Zm27 0c1 12-19 12-18 0 0-12 19-12 18 0Z" fill="#D8DEE3"/><path d="M1818 732c1 12-19 12-18 0 0-12 19-12 18 0Z" fill="#276CFF"/><path d="M1846 732c0 12-19 12-18 0 0-12 18-12 18 0Zm28 0c0 12-19 12-19 0s19-12 19 0Zm28 0c0 12-19 12-19 0s19-12 19 0Zm28 0c0 12-19 12-19 0s19-12 19 0Zm28 0c0 12-19 12-19 0s19-12 19 0Zm-223-28c0 12-19 12-19 0s19-12 19 0Zm28 0c0 12-19 12-19 0s19-12 19 0Zm27 0c1 12-19 12-18 0 0-12 19-12 18 0Zm28 0c1 12-19 12-18 0 0-12 19-12 18 0Zm28 0c0 12-19 12-18 0 0-12 18-12 18 0Zm28 0c0 12-19 12-19 0s19-12 19 0Zm28 0c0 12-19 12-19 0s19-12 19 0Z" fill="#D8DEE3"/><path d="M1930 704c0 12-19 12-19 0s19-12 19 0Z" fill="#00E567"/><path d="M1958 704c0 12-19 12-19 0s19-12 19 0Z" fill="#D8DEE3"/><path d="M1763 676c0 12-19 12-19 0s19-12 19 0Z" fill="#FF458B"/><path d="M1790 676c1 12-19 12-18 0 0-12 19-12 18 0Zm28 0c1 12-19 12-18 0 0-12 19-12 18 0Zm28 0c0 12-19 12-18 0 0-12 18-12 18 0Zm28 0c0 12-19 12-19 0s19-12 19 0Zm28 0c0 12-19 12-19 0s19-12 19 0Zm28 0c0 12-19 12-19 0s19-12 19 0Zm28 0c0 12-19 12-19 0s19-12 19 0Zm752 251c1 12-19 12-18 0-1-12 18-12 18 0Zm-28-28c1 12-18 12-18 0s18-12 18 0Zm-27-27c0 12-19 12-19 0 0-13 19-13 19 0Zm83 0c1 12-19 12-18 0-1-13 18-13 18 0Zm-502 195c1 12-19 12-18 0 0-12 19-12 18 0Zm0-28c1 12-19 12-18 0 0-12 19-12 18 0Zm0-28c1 12-19 12-18 0 0-12 19-12 18 0Zm-28 56c1 12-19 12-18 0 0-12 19-12 18 0Zm0-195c1 12-19 12-18 0 0-13 19-13 18 0Zm-27 111c0 12-19 12-19 0s19-12 19 0Zm0-28c0 12-19 12-19 0s19-12 19 0Zm0-56c0 12-19 12-19 0s19-12 19 0Zm0-27c0 12-19 12-19 0 0-13 19-13 19 0Zm-28 139c0 12-19 12-19 0s19-12 19 0Zm0-28c0 12-19 12-19 0s19-12 19 0Zm0-28c0 12-19 12-19 0s19-12 19 0Z" fill="#D8DEE3"/><path d="M2153 927c0 12-19 12-19 0s19-12 19 0Z" fill="#FF458B"/><path d="M2153 899c0 12-19 12-19 0s19-12 19 0Zm0-27c0 12-19 12-19 0 0-13 19-13 19 0Zm-28 195c0 12-19 12-19 0s19-12 19 0Zm0-28c0 12-19 12-19 0s19-12 19 0Zm0-28c0 12-19 12-19 0s19-12 19 0Zm0-28c0 12-19 12-19 0s19-12 19 0Zm0-28c0 12-19 12-19 0s19-12 19 0Zm0-28c0 12-19 12-19 0s19-12 19 0Zm0-28c0 12-19 12-19 0s19-12 19 0Z" fill="#D8DEE3"/><path d="M2125 872c0 12-19 12-19 0 0-13 19-13 19 0Z" fill="#FFC600"/><path d="M2097 1122c0 12-19 12-19 0s19-12 19 0Z" fill="#D8DEE3"/><path d="M2097 1094c0 12-19 12-19 0s19-12 19 0Z" fill="#FF458B"/><path d="M2097 1067c0 12-19 12-19 0s19-12 19 0Zm0-28c0 12-19 12-19 0s19-12 19 0Zm0-28c0 12-19 12-19 0s19-12 19 0Zm0-28c0 12-19 12-19 0s19-12 19 0Zm0-28c0 12-19 12-19 0s19-12 19 0Zm0-28c0 12-19 12-19 0s19-12 19 0Zm0-28c0 12-19 12-19 0s19-12 19 0Zm0-27c0 12-19 12-19 0 0-13 19-13 19 0Zm-28 278c0 12-19 12-19 0s19-12 19 0Z" fill="#D8DEE3"/><path d="M2069 1122c0 12-19 12-19 0s19-12 19 0Z" fill="#00E567"/><path d="M2069 1094c0 12-19 12-19 0s19-12 19 0Zm0-27c0 12-19 12-19 0s19-12 19 0Zm0-28c0 12-19 12-19 0s19-12 19 0Z" fill="#D8DEE3"/><path d="M2069 1011c0 12-19 12-19 0s19-12 19 0Z" fill="#276CFF"/><path d="M2069 983c0 12-19 12-19 0s19-12 19 0Zm0-28c0 12-19 12-19 0s19-12 19 0Zm0-28c0 12-19 12-19 0s19-12 19 0Z" fill="#D8DEE3"/><path d="M2069 899c0 12-19 12-19 0s19-12 19 0Z" fill="#00E567"/><path d="M2069 872c0 12-19 12-19 0 0-13 19-13 19 0Zm-28 278c1 12-19 12-18 0 0-12 19-12 18 0Zm0-28c1 12-19 12-18 0 0-12 19-12 18 0Zm0-28c1 12-19 12-18 0 0-12 19-12 18 0Zm0-27c1 12-19 12-18 0 0-12 19-12 18 0Z" fill="#D8DEE3"/><path d="M2041 1039c1 12-19 12-18 0 0-12 19-12 18 0Z" fill="#FFC600"/><path d="M2041 1011c1 12-19 12-18 0 0-12 19-12 18 0Zm0-28c1 12-19 12-18 0 0-12 19-12 18 0Zm0-28c1 12-19 12-18 0 0-12 19-12 18 0Zm0-28c1 12-19 12-18 0 0-12 19-12 18 0Zm0-28c1 12-19 12-18 0 0-12 19-12 18 0Zm0-27c1 12-19 12-18 0 0-13 19-13 18 0Zm-28 278c1 12-19 12-18 0 0-12 19-12 18 0Zm0-28c1 12-19 12-18 0 0-12 19-12 18 0Z" fill="#D8DEE3"/><path d="M2013 1094c1 12-19 12-18 0 0-12 19-12 18 0Z" fill="#276CFF"/><path d="M2013 1067c1 12-19 12-18 0 0-12 19-12 18 0Zm0-28c1 12-19 12-18 0 0-12 19-12 18 0Zm0-28c1 12-19 12-18 0 0-12 19-12 18 0Zm0-28c1 12-19 12-18 0 0-12 19-12 18 0Zm0-28c1 12-19 12-18 0 0-12 19-12 18 0Zm0-28c1 12-19 12-18 0 0-12 19-12 18 0Zm0-28c1 12-19 12-18 0 0-12 19-12 18 0Zm0-27c1 12-19 12-18 0 0-13 19-13 18 0Zm614-28c0 12-19 12-19 0s19-12 19 0Zm55 0c1 12-18 12-18 0s18-12 18 0Zm-446 0c1 12-19 12-18 0 0-12 19-12 18 0Zm-28 0c1 12-19 12-18 0 0-12 19-12 18 0Zm-27 0c0 12-19 12-19 0s19-12 19 0Zm-28 0c0 12-19 12-19 0s19-12 19 0Zm-28 0c0 12-19 12-19 0s19-12 19 0Zm-28 0c0 12-19 12-19 0s19-12 19 0Zm-28 0c0 12-19 12-19 0s19-12 19 0Zm-28 0c1 12-19 12-18 0 0-12 19-12 18 0Z" fill="#D8DEE3"/><path d="M2013 844c1 12-19 12-18 0 0-12 19-12 18 0Z" fill="#276CFF"/><path d="M2655 816c0 12-19 12-19 0s19-12 19 0Zm-140 0c1 12-19 12-18 0-1-12 18-12 18 0Zm-251 0c0 12-19 12-18 0 0-12 18-12 18 0Zm-28 0c1 12-19 12-18 0 0-12 19-12 18 0Zm-28 0c1 12-19 12-18 0 0-12 19-12 18 0Z" fill="#D8DEE3"/><path d="M2181 816c0 12-19 12-19 0s19-12 19 0Z" fill="#00E567"/><path d="M2153 816c0 12-19 12-19 0s19-12 19 0Zm-28 0c0 12-19 12-19 0s19-12 19 0Zm-28 0c0 12-19 12-19 0s19-12 19 0Zm-28 0c0 12-19 12-19 0s19-12 19 0Zm-28 0c1 12-19 12-18 0 0-12 19-12 18 0Zm-28 0c1 12-19 12-18 0 0-12 19-12 18 0Zm642-28c0 12-19 12-19 0s19-12 19 0Zm55 0c1 12-19 12-18 0-1-12 18-12 18 0Zm-223 0c1 12-19 12-18 0-1-12 18-12 18 0Zm-223 0c0 12-19 12-18 0 0-12 18-12 18 0Zm-56 0c1 12-19 12-18 0 0-12 19-12 18 0Zm-27 0c0 12-19 12-19 0s19-12 19 0Zm-28 0c0 12-19 12-19 0s19-12 19 0Zm-28 0c0 12-19 12-19 0s19-12 19 0Zm-28 0c0 12-19 12-19 0s19-12 19 0Zm-28 0c0 12-19 12-19 0s19-12 19 0Zm-28 0c1 12-19 12-18 0 0-12 19-12 18 0Zm-28 0c1 12-19 12-18 0 0-12 19-12 18 0Zm642-28c0 12-19 12-19 0s19-12 19 0Zm27 0c1 12-18 12-18 0s18-12 18 0Zm28 0c1 12-19 12-18 0-1-12 18-12 18 0Zm-223 0c1 12-19 12-18 0-1-12 18-12 18 0Zm-27 0c0 12-19 12-19 0s19-12 19 0Zm-224 0c1 12-19 12-18 0 0-12 19-12 18 0Zm-55 0c0 12-19 12-19 0s19-12 19 0Zm-28 0c0 12-19 12-19 0s19-12 19 0Zm-28 0c0 12-19 12-19 0s19-12 19 0Zm-28 0c0 12-19 12-19 0s19-12 19 0Zm-28 0c0 12-19 12-19 0s19-12 19 0Zm-28 0c1 12-19 12-18 0 0-12 19-12 18 0Zm-28 0c1 12-19 12-18 0 0-12 19-12 18 0Zm614-28c0 12-19 12-19 0s19-12 19 0Zm28 0c0 12-19 12-19 0s19-12 19 0Zm27 0c1 12-18 12-18 0s18-12 18 0Zm28 0c1 12-19 12-18 0-1-12 18-12 18 0Zm-195 0c1 12-19 12-18 0-1-12 18-12 18 0Zm-28 0c1 12-19 12-18 0-1-12 18-12 18 0Zm-27 0c0 12-19 12-19 0s19-12 19 0Zm-168 0c0 12-19 12-19 0s19-12 19 0Zm-28 0c0 12-19 12-18 0 0-12 18-12 18 0Zm-28 0c1 12-19 12-18 0 0-12 19-12 18 0Zm-28 0c1 12-19 12-18 0 0-12 19-12 18 0Zm-55 0c0 12-19 12-19 0s19-12 19 0Zm-28 0c0 12-19 12-19 0s19-12 19 0Zm-28 0c0 12-19 12-19 0s19-12 19 0Zm-28 0c0 12-19 12-19 0s19-12 19 0Zm-28 0c1 12-19 12-18 0 0-12 19-12 18 0Zm-28 0c1 12-19 12-18 0 0-12 19-12 18 0Zm614-28c0 12-19 12-19 0s19-12 19 0Zm-28 0c0 12-19 12-19 0s19-12 19 0Zm56 0c0 12-19 12-19 0s19-12 19 0Zm27 0c1 12-18 12-18 0s18-12 18 0Zm56 0c1 12-19 12-18 0-1-12 18-12 18 0Zm-195 0c0 12-19 12-18 0-1-12 18-12 18 0Zm-28 0c1 12-19 12-18 0-1-12 18-12 18 0Zm-28 0c1 12-19 12-18 0-1-12 18-12 18 0Zm-27 0c0 12-19 12-19 0s19-12 19 0Zm-28 0c0 12-19 12-19 0s19-12 19 0Zm-112 0c0 12-19 12-19 0s19-12 19 0Zm-28 0c0 12-19 12-19 0s19-12 19 0Zm-28 0c0 12-19 12-18 0 0-12 18-12 18 0Zm-28 0c1 12-19 12-18 0 0-12 19-12 18 0Zm-28 0c1 12-19 12-18 0 0-12 19-12 18 0Zm-27 0c0 12-19 12-19 0s19-12 19 0Zm-56 0c0 12-19 12-19 0s19-12 19 0Zm-28 0c0 12-19 12-19 0s19-12 19 0Z" fill="#D8DEE3"/><path d="M2069 704c0 12-19 12-19 0s19-12 19 0Z" fill="#276CFF"/><path d="M2041 704c1 12-19 12-18 0 0-12 19-12 18 0Zm-28 0c1 12-19 12-18 0 0-12 19-12 18 0Zm614-28c0 12-19 12-19 0s19-12 19 0Zm-28 0c0 12-19 12-19 0s19-12 19 0Zm56 0c0 12-19 12-19 0s19-12 19 0Zm27 0c1 12-18 12-18 0s18-12 18 0Zm28 0c1 12-19 12-18 0-1-12 18-12 18 0Zm28 0c1 12-19 12-18 0-1-12 18-12 18 0Zm-167 0c0 12-19 12-19 0s19-12 19 0Zm-28 0c0 12-19 12-18 0-1-12 18-12 18 0Zm-28 0c1 12-19 12-18 0-1-12 18-12 18 0Zm-28 0c1 12-19 12-18 0-1-12 18-12 18 0Zm-27 0c0 12-19 12-19 0s19-12 19 0Zm-28 0c0 12-19 12-19 0s19-12 19 0Zm-28 0c0 12-19 12-19 0s19-12 19 0Zm-112 0c0 12-19 12-19 0s19-12 19 0Zm-28 0c0 12-19 12-18 0 0-12 18-12 18 0Zm-28 0c1 12-19 12-18 0 0-12 19-12 18 0Zm-28 0c1 12-19 12-18 0 0-12 19-12 18 0Zm-27 0c0 12-19 12-19 0s19-12 19 0Zm-56 0c0 12-19 12-19 0s19-12 19 0Zm-28 0c0 12-19 12-19 0s19-12 19 0Zm-28 0c0 12-19 12-19 0s19-12 19 0Zm-28 0c1 12-19 12-18 0 0-12 19-12 18 0Zm-28 0c1 12-19 12-18 0 0-12 19-12 18 0Zm-28 418c1 12-18 12-18 0s19-12 18 0Zm0-27c1 12-18 12-18 0s19-12 18 0Zm0-28c1 12-18 12-18 0s19-12 18 0Zm0-28c1 12-18 12-18 0s19-12 18 0Z" fill="#D8DEE3"/><path d="M1985 983c1 12-18 12-18 0s19-12 18 0Z" fill="#FF458B"/><path d="M1985 955c1 12-18 12-18 0s19-12 18 0Zm0-28c1 12-18 12-18 0s19-12 18 0Zm0-28c1 12-18 12-18 0s19-12 18 0Zm0-27c1 12-18 12-18 0 0-13 19-13 18 0Zm0-28c1 12-18 12-18 0s19-12 18 0Zm0-28c1 12-18 12-18 0s19-12 18 0Zm0-28c1 12-18 12-18 0s19-12 18 0Zm0-28c1 12-18 12-18 0s19-12 18 0Zm0-28c1 12-18 12-18 0s19-12 18 0Zm0-28c1 12-18 12-18 0s19-12 18 0Zm0-28c1 12-18 12-18 0s19-12 18 0Z" fill="#D8DEE3"/></g></g></svg>