<svg width="40" height="40" viewBox="0 0 40 40" fill="none" xmlns="http://www.w3.org/2000/svg">
<circle cx="20" cy="20" r="20" fill="#EBEEF1"/>
<path d="M20.7562 12.8C21.1349 12.8 21.4981 12.9505 21.766 13.2183L25.5255 16.9777C25.7933 17.2455 25.9438 17.6087 25.9438 17.9875V24.9389C25.9438 26.1877 24.9314 27.2 23.6826 27.2H16.6612C15.4124 27.2 14.4 26.1877 14.4 24.9389V15.0612C14.4 13.8124 15.4124 12.8 16.6612 12.8H20.7562ZM20.1718 14.1091H16.6612C16.1453 14.1091 15.7252 14.5195 15.7096 15.0316L15.7091 15.0612V24.9389C15.7091 25.4547 16.1194 25.8748 16.6315 25.8905L16.6612 25.8909H23.6826C24.1985 25.8909 24.6185 25.4806 24.6342 24.9685L24.6347 24.9389V18.5719L20.8264 18.572C20.4738 18.572 20.1862 18.293 20.1724 17.9437L20.1719 17.9174L20.1718 14.1091ZM23.9593 17.2628L21.4809 14.7844L21.481 17.2629L23.9593 17.2628Z" fill="#56606D"/>
</svg>
