<svg width="40" height="40" viewBox="0 0 40 40" fill="none" xmlns="http://www.w3.org/2000/svg">
<path fill-rule="evenodd" clip-rule="evenodd" d="M16.4423 0H23.3463C28.8835 0 31.0804 0.613723 33.2353 1.76617C35.3902 2.91861 37.0814 4.60977 38.2338 6.76466L38.3214 6.93055C39.4029 9.00672 39.9845 11.2 40 16.4423V23.3463C40 28.8835 39.3862 31.0805 38.2338 33.2353C37.0814 35.3902 35.3902 37.0814 33.2353 38.2338L33.0694 38.3214C30.9933 39.4029 28.8 39.9846 23.5576 40H16.6536C11.1165 40 8.91953 39.3863 6.76465 38.2338C4.60977 37.0814 2.91861 35.3902 1.76617 33.2353L1.67858 33.0694C0.597073 30.9933 0.0154218 28.8 0 23.5577V16.6537C0 11.1165 0.613723 8.91954 1.76617 6.76466C2.91861 4.60977 4.60977 2.91861 6.76465 1.76617L6.93055 1.67858C9.00671 0.597074 11.2 0.0154219 16.4423 0Z" fill="#0218A7"/>
<path d="M10.2479 20.4955C14.4471 20.4955 17.8513 17.0914 17.8513 12.8923C17.8513 8.69314 14.4471 5.28906 10.2479 5.28906C6.04867 5.28906 2.64453 8.69314 2.64453 12.8923C2.64453 17.0914 6.04867 20.4955 10.2479 20.4955Z" fill="#FFC600"/>
<path d="M30.0826 29.4215C34.2818 29.4215 37.6859 26.0174 37.6859 21.8182C37.6859 17.619 34.2818 14.2148 30.0826 14.2148C25.8834 14.2148 22.4792 17.619 22.4792 21.8182C22.4792 26.0174 25.8834 29.4215 30.0826 29.4215Z" fill="#0149FF"/>
<path fill-rule="evenodd" clip-rule="evenodd" d="M10.0826 3.30566C15.6512 3.30566 20.1654 7.74581 20.1654 13.223C20.1654 18.7002 15.6512 23.1403 10.0826 23.1403C4.84971 23.1403 0.547868 19.2193 0.0483398 14.2013C0.124912 12.445 0.291563 11.1089 0.543965 10.0016C1.90343 6.10568 5.66059 3.30566 10.0826 3.30566ZM10.0826 6.28086C6.14637 6.28086 2.97514 9.40007 2.97514 13.223C2.97514 17.0459 6.14637 20.1651 10.0826 20.1651C14.0189 20.1651 17.1901 17.0459 17.1901 13.223C17.1901 9.40007 14.0189 6.28086 10.0826 6.28086Z" fill="#FF458B"/>
<path fill-rule="evenodd" clip-rule="evenodd" d="M20.1653 13.2231V28.4296L0.266601 28.4299C0.096082 27.1471 0.00594658 25.579 0 23.5576V16.6536C0 15.3355 0.0347771 14.2067 0.103319 13.2227L20.1653 13.2231Z" fill="#0149FF"/>
<path fill-rule="evenodd" clip-rule="evenodd" d="M10.248 17.1899C11.3434 17.1899 12.2315 18.0191 12.2315 19.0419C12.2315 19.8161 11.7227 20.4794 11.0003 20.7561L11.0003 22.8098H9.49558L9.49561 20.7561C8.77319 20.4794 8.2644 19.8161 8.2644 19.0419C8.2644 18.0191 9.15247 17.1899 10.248 17.1899Z" fill="#0218A7"/>
<path d="M30.0826 11.9009C35.5598 11.9009 40 16.341 40 21.8181C40 27.2952 35.5598 31.7353 30.0826 31.7353C24.6054 31.7353 20.1653 27.2952 20.1653 21.8181C20.1653 16.341 24.6054 11.9009 30.0826 11.9009ZM30.0826 14.876C26.2486 14.876 23.1405 17.9841 23.1405 21.8181C23.1405 25.6521 26.2486 28.7602 30.0826 28.7602C33.9167 28.7602 37.0248 25.6521 37.0248 21.8181C37.0248 17.9841 33.9167 14.876 30.0826 14.876Z" fill="#FFC600"/>
<path fill-rule="evenodd" clip-rule="evenodd" d="M40 21.8184V23.3465C40 28.8836 39.3863 31.0806 38.2338 33.2354C37.4345 34.7301 36.3759 36.0016 35.0833 37.025L20.1653 37.0248V21.8184H40Z" fill="#FF458B"/>
<path fill-rule="evenodd" clip-rule="evenodd" d="M30.2479 25.7847C31.2521 25.7847 32.0662 26.6138 32.0662 27.6367C32.0662 28.4108 31.5999 29.0739 30.9378 29.3507L30.9376 31.4045H29.5582L29.5581 29.3507C28.896 29.0739 28.4297 28.4108 28.4297 27.6367C28.4297 26.6138 29.2437 25.7847 30.2479 25.7847Z" fill="#0218A7"/>
</svg>
