<svg width="18" height="18" viewBox="0 0 18 18" fill="none" xmlns="http://www.w3.org/2000/svg">
<path d="M14.6971 2.69995L14.8103 2.70051C15.5609 2.70821 15.8499 2.79454 16.1411 2.95031C16.4466 3.11366 16.6863 3.35339 16.8496 3.65884L16.8719 3.7015C17.0209 3.99363 17.1 4.30614 17.1 5.1028V12.2128C17.1 13.0483 17.013 13.3513 16.8496 13.6568C16.6863 13.9622 16.4466 14.2019 16.1411 14.3653L16.0984 14.3876C15.8063 14.5366 15.4938 14.6157 14.6971 14.6157H3.30284L3.18966 14.6151C2.43913 14.6074 2.15013 14.5211 1.85888 14.3653C1.55343 14.2019 1.31371 13.9622 1.15035 13.6568L1.12805 13.6141C0.979085 13.322 0.899994 13.0095 0.899994 12.2128V5.1028L0.900557 4.98962C0.908252 4.23909 0.994587 3.95009 1.15035 3.65884C1.31371 3.35339 1.55343 3.11366 1.85888 2.95031L1.90154 2.92801C2.19367 2.77904 2.50618 2.69995 3.30284 2.69995H14.6971ZM15.6273 8.72474H2.37286L2.37291 12.2988C2.37509 12.7639 2.39618 12.8634 2.44902 12.9622C2.47512 13.011 2.50462 13.0405 2.55342 13.0666L2.57984 13.0799C2.66664 13.1203 2.77736 13.1384 3.13851 13.1422L3.30284 13.1429L14.7831 13.1427C15.2483 13.1406 15.3478 13.1195 15.4466 13.0666C15.4954 13.0405 15.5249 13.011 15.551 12.9622L15.5642 12.9358C15.6102 12.837 15.6273 12.7073 15.6273 12.2128V8.72474ZM3.25888 4.17273C2.75755 4.17384 2.65513 4.19458 2.55342 4.24898C2.50462 4.27508 2.47512 4.30457 2.44902 4.35338L2.43576 4.3798C2.39539 4.4666 2.37729 4.57732 2.3735 4.93847L2.37272 5.1028V6.31483H15.6273V5.05884C15.6261 4.55751 15.6054 4.45509 15.551 4.35338C15.5249 4.30457 15.4954 4.27508 15.4466 4.24898L15.4201 4.23572C15.3274 4.19256 15.2072 4.17486 14.7831 4.17287L3.25888 4.17273Z" fill="#56606D"/>
</svg>
