<svg width="40" height="40" viewBox="0 0 40 40" fill="none" xmlns="http://www.w3.org/2000/svg">
<circle cx="20" cy="20" r="20" fill="#EBEEF1"/>
<path d="M24.4016 12.8C25.3249 12.8 26.0733 13.5484 26.0733 14.4717V26.6856C26.0733 26.9697 25.843 27.2 25.559 27.2C25.418 27.2 25.2832 27.1421 25.1861 27.0399L20.396 21.9983C20.1025 21.6894 19.6141 21.6769 19.3052 21.9704C19.2957 21.9795 19.2864 21.9888 19.2773 21.9983L14.4872 27.0399C14.2916 27.2459 13.966 27.2542 13.7601 27.0585C13.6578 26.9614 13.6 26.8266 13.6 26.6856V14.4717C13.6 13.5484 14.3484 12.8 15.2717 12.8H24.4016ZM24.4016 14.2145H15.2717C15.1361 14.2145 15.025 14.3194 15.0152 14.4525L15.0145 14.4717V24.4315L18.2519 21.024C18.2647 21.0105 18.2777 20.9972 18.2909 20.984L18.3309 20.9449C19.1947 20.1243 20.5535 20.148 21.3883 20.9899L21.4215 21.024L24.6588 24.4313V14.4717C24.6588 14.3361 24.5539 14.225 24.4208 14.2152L24.4016 14.2145Z" fill="#56606D"/>
</svg>
