<svg width="32" height="32" viewBox="0 0 32 32" fill="none" xmlns="http://www.w3.org/2000/svg">
<rect width="32" height="32" rx="8" fill="#FF1313" fill-opacity="0.1"/>
<rect x="0.5" y="0.5" width="31" height="31" rx="7.5" stroke="#FF1313" stroke-opacity="0.2"/>
<path d="M17.7533 7L18.0235 7.00105C20.34 7.01951 21.2206 7.28039 22.1081 7.75504C23.0293 8.24771 23.7523 8.97068 24.245 9.89189L24.2806 9.95931C24.7443 10.8472 24.9936 11.7648 25 14.1541V17.7533C25 20.2731 24.7376 21.1869 24.245 22.1081C23.7523 23.0293 23.0293 23.7523 22.1081 24.245L22.0407 24.2806C21.1526 24.7444 20.2349 24.9937 17.8448 25H14.2467C11.7269 25 10.8131 24.7376 9.89189 24.245C8.97068 23.7523 8.24771 23.0293 7.75504 22.1081L7.7194 22.0407C7.2556 21.1526 7.00628 20.2349 7 17.8448V14.2467C7 11.7269 7.26237 10.8131 7.75504 9.89189C8.24771 8.97068 8.97068 8.24771 9.89189 7.75504L9.95931 7.7194C10.8472 7.25567 11.7648 7.00636 14.1541 7H17.7533ZM17.8429 8.63636H14.2467C12.2971 8.63636 11.5103 8.7717 10.7904 9.13215L10.724 9.16607L10.6636 9.198C10.0276 9.53816 9.53816 10.0276 9.198 10.6636L9.16201 10.7322C8.79141 11.4523 8.64937 12.1867 8.63723 13.9827L8.63636 14.2466V17.8406L8.63807 18.1028C8.65498 19.8298 8.798 20.5566 9.14866 21.2423L9.16607 21.276L9.198 21.3364C9.53816 21.9724 10.0276 22.4618 10.6636 22.802L10.7322 22.838C11.4523 23.2086 12.1867 23.3506 13.9827 23.3628L14.2466 23.3636H17.8406L18.1028 23.3619C19.8298 23.345 20.5566 23.202 21.2423 22.8513L21.276 22.8339L21.3364 22.802C21.9724 22.4618 22.4618 21.9724 22.802 21.3364L22.838 21.2678C23.2086 20.5477 23.3506 19.8133 23.3628 18.0172L23.3636 17.7533V14.2467C23.3636 12.2971 23.2283 11.5103 22.8678 10.7904L22.8339 10.724L22.802 10.6636C22.4618 10.0276 21.9724 9.53816 21.3364 9.198L21.2678 9.16201C20.5248 8.77964 19.7667 8.64058 17.8429 8.63636ZM13.0248 12.281C13.0248 11.6252 13.7577 11.2359 14.301 11.6031L19.8052 15.3221C20.2853 15.6465 20.2853 16.3535 19.8052 16.6779L14.301 20.3969C13.7577 20.7641 13.0248 20.3748 13.0248 19.719V12.281ZM14.6612 13.8213V18.1786L17.8855 16L14.6612 13.8213Z" fill="#FF1313"/>
</svg>
