<svg width="40" height="40" viewBox="0 0 40 40" fill="none" xmlns="http://www.w3.org/2000/svg">
<circle cx="20" cy="20" r="20" fill="#EBEEF1"/>
<path d="M20.06 12.8L20.1035 12.8004L20.1469 12.8015C20.4721 12.808 20.792 12.8361 21.1053 12.8843C20.878 13.308 20.7419 13.7862 20.7224 14.2936L20.7201 14.2924V25.7076C21.9236 25.0837 23 22.8308 23 20C23 19.0649 22.8825 18.1928 22.6818 17.4217C23.1075 17.6132 23.5811 17.72 24.08 17.72L24.1019 17.7197C24.2434 18.4363 24.32 19.203 24.32 20C24.32 21.928 23.8716 23.679 23.1415 24.9714C24.7873 23.9291 25.88 22.0922 25.88 20C25.88 19.1015 25.6785 18.2501 25.3182 17.4885C25.7397 17.3245 26.1194 17.0789 26.4372 16.7716C26.9253 17.7425 27.2 18.8392 27.2 20C27.2 23.8881 24.1181 27.0563 20.264 27.1952L20.1469 27.1985C20.118 27.1995 20.089 27.2 20.06 27.2H20C16.0235 27.2 12.8 23.9764 12.8 20C12.8 16.0235 16.0235 12.8 20 12.8H20.06ZM19.4 14.2924C18.1964 14.9161 17.12 17.1691 17.12 20C17.12 22.8309 18.1964 25.0839 19.4 25.7076V14.2924ZM17.0433 14.9163L16.9801 14.9537C15.2667 15.9812 14.12 17.8567 14.12 20C14.12 22.1695 15.2949 24.0646 17.0432 25.0836C16.275 23.7813 15.8 21.9844 15.8 20C15.8 18.0156 16.275 16.2187 17.0433 14.9163ZM24.14 12.8C25.0678 12.8 25.82 13.5253 25.82 14.42C25.82 15.3147 25.0678 16.04 24.14 16.04C23.2121 16.04 22.46 15.3147 22.46 14.42C22.46 13.5253 23.2121 12.8 24.14 12.8Z" fill="#56606D"/>
</svg>
