<svg width="40" height="40" viewBox="0 0 40 40" fill="none" xmlns="http://www.w3.org/2000/svg">
<circle cx="20" cy="20" r="20" fill="#EBEEF1"/>
<path d="M23.6297 12.8C23.9824 12.8 24.2699 13.0789 24.2838 13.4282L24.2843 13.4545L24.2844 13.9504C24.7134 14.0334 25.0124 14.1565 25.3126 14.3171C25.9139 14.6386 26.3857 15.1105 26.7072 15.7117L26.7348 15.764L26.7753 15.8439C27.0529 16.4057 27.2 17.0295 27.2 18.5537V22.1858C27.2 23.8303 27.0288 24.4267 26.7072 25.0279C26.3857 25.6291 25.9139 26.1009 25.3126 26.4225L25.2604 26.4501L25.1804 26.4906C24.6186 26.7681 23.9948 26.9152 22.4706 26.9152H17.5294C15.8849 26.9152 15.2885 26.744 14.6873 26.4225C14.0861 26.1009 13.6143 25.6291 13.2927 25.0279L13.2643 24.974L13.2239 24.8941C12.9512 24.3415 12.8046 23.7282 12.8 22.2567V18.5537C12.8 16.9092 12.9712 16.3129 13.2927 15.7117C13.6143 15.1105 14.0861 14.6386 14.6873 14.3171L14.7412 14.2887C15.0375 14.1348 15.3403 14.0175 15.7752 13.9393L15.7752 13.4545C15.7752 13.0931 16.0682 12.8 16.4297 12.8C16.7824 12.8 17.0699 13.0789 17.0838 13.4282L17.0843 13.4545L17.0842 13.8289L17.2292 13.8263C17.3033 13.8252 17.3797 13.8246 17.4586 13.8243H22.4706C22.651 13.8243 22.8188 13.8264 22.9754 13.8305L22.9752 13.4545C22.9752 13.0931 23.2682 12.8 23.6297 12.8ZM25.8908 19.0607H14.109L14.1091 22.2526L14.1099 22.3773C14.1192 23.5361 14.2091 23.9654 14.4471 24.4105C14.6466 24.7836 14.9316 25.0686 15.3047 25.2681L15.3515 25.2926L15.3992 25.3164C15.814 25.5182 16.2642 25.5975 17.3404 25.6055L17.5294 25.6061H22.4706C23.7723 25.6061 24.2276 25.5182 24.6953 25.2681C25.0684 25.0686 25.3533 24.7836 25.5529 24.4105L25.5773 24.3638L25.6012 24.316C25.803 23.9012 25.8823 23.4511 25.8902 22.3748L25.8909 22.1858L25.8908 19.0607ZM22.4706 15.1334H17.4626L17.3379 15.1342C17.2491 15.1349 17.1647 15.1361 17.0842 15.1378L17.0843 15.9792C17.0843 16.3407 16.7912 16.6338 16.4297 16.6338C16.0771 16.6338 15.7895 16.3548 15.7757 16.0055L15.7752 15.9792L15.7752 15.2794C15.6014 15.3285 15.4539 15.3916 15.3047 15.4715C14.9316 15.671 14.6466 15.956 14.4471 16.329L14.4226 16.3758C14.2486 16.7158 14.159 17.0645 14.1253 17.7515H25.8747C25.8394 17.033 25.743 16.6846 25.5529 16.329C25.3533 15.956 25.0684 15.671 24.6953 15.4715L24.6485 15.447C24.5325 15.3876 24.4155 15.3381 24.2843 15.2972L24.2843 15.9792C24.2843 16.3407 23.9912 16.6338 23.6297 16.6338C23.2771 16.6338 22.9895 16.3548 22.9757 16.0055L22.9752 15.9792L22.9754 15.1389C22.8764 15.1365 22.7714 15.1349 22.6596 15.1341L22.4706 15.1334Z" fill="#56606D"/>
</svg>
