<svg width="18" height="18" viewBox="0 0 18 18" fill="none" xmlns="http://www.w3.org/2000/svg">
<path d="M8.99999 0.900024C13.4735 0.900024 17.1 4.52652 17.1 9.00002C17.1 13.4735 13.4735 17.1 8.99999 17.1C4.52649 17.1 0.899994 13.4735 0.899994 9.00002C0.899994 4.52652 4.52649 0.900024 8.99999 0.900024ZM8.99999 2.38502C5.34663 2.38502 2.38499 5.34666 2.38499 9.00002C2.38499 12.6534 5.34663 15.615 8.99999 15.615C12.6534 15.615 15.615 12.6534 15.615 9.00002C15.615 5.34666 12.6534 2.38502 8.99999 2.38502ZM9.4608 4.84521L9.48233 4.86591L12.3461 7.72969C12.6361 8.01965 12.6361 8.48978 12.3461 8.77974C12.0632 9.06263 11.6088 9.06953 11.3176 8.80044L11.2961 8.77974L9.67499 7.15862V12.8475C9.67499 13.2576 9.34257 13.59 8.93249 13.59C8.53242 13.59 8.20626 13.2736 8.19058 12.8774L8.18999 12.8475V7.20803L6.61855 8.77974C6.33565 9.06263 5.88128 9.06953 5.59003 8.80044L5.56849 8.77974C5.2856 8.49685 5.2787 8.04248 5.54779 7.75122L5.56849 7.72969L8.43228 4.86591C8.71517 4.58301 9.16954 4.57611 9.4608 4.84521Z" fill="#56606D"/>
</svg>
