<svg width="32" height="32" viewBox="0 0 32 32" fill="none" xmlns="http://www.w3.org/2000/svg">
<rect x="0.5" y="0.5" width="31" height="31" rx="7.5" fill="white" stroke="#EBEEF1"/>
<path d="M17.7533 7L18.0235 7.00105C20.34 7.01951 21.2206 7.28039 22.1081 7.75504C23.0293 8.24771 23.7523 8.97068 24.245 9.89189L24.2806 9.95931C24.7443 10.8472 24.9936 11.7648 25 14.1541V17.7533C25 20.0455 24.7829 21.0087 24.3728 21.8574C24.3441 21.9599 24.2948 22.0579 24.2251 22.145L24.245 22.1081C23.7523 23.0293 23.0293 23.7523 22.1081 24.245L22.0407 24.2806C21.1526 24.7444 20.2349 24.9937 17.8448 25H14.2467C11.7269 25 10.8131 24.7376 9.89189 24.245C8.97068 23.7523 8.24771 23.0293 7.75504 22.1081L7.7194 22.0407C7.2556 21.1526 7.00628 20.2349 7 17.8448V14.2467C7 11.7269 7.26237 10.8131 7.75504 9.89189C8.24771 8.97068 8.97068 8.24771 9.89189 7.75504L9.95931 7.7194C10.8472 7.25567 11.7648 7.00636 14.1541 7H17.7533ZM10.8382 15.3679L8.63621 16.8954L8.63636 17.8406L8.63807 18.1028C8.65498 19.8298 8.798 20.5566 9.14866 21.2423L9.16607 21.276L9.198 21.3364C9.53816 21.9724 10.0276 22.4618 10.6636 22.802L10.7322 22.838C11.4523 23.2086 12.1867 23.3506 13.9827 23.3628L14.2466 23.3636H17.8406L18.1028 23.3619C18.1338 23.3616 18.1646 23.3613 18.195 23.3609L10.8382 15.3679ZM19.1338 18.3973L17.2838 19.9546L20.2649 23.1937C20.6482 23.1133 20.949 23.0013 21.2423 22.8513L21.276 22.8339L21.3364 22.802C21.8252 22.5406 22.2274 22.191 22.5418 21.7545L19.1338 18.3973ZM17.8429 8.63636H14.2467C12.2971 8.63636 11.5103 8.7717 10.7904 9.13215L10.724 9.16607L10.6636 9.198C10.0276 9.53816 9.53816 10.0276 9.198 10.6636L9.16201 10.7322C8.79141 11.4523 8.64937 12.1867 8.63723 13.9827L8.63636 14.2466L8.63621 14.9038L10.4912 13.617C10.8167 13.3912 11.2554 13.4318 11.534 13.7085L11.5596 13.7352L12.7035 14.9781C13.2093 12.7526 15.1918 11.0909 17.562 11.0909C20.3153 11.0909 22.5455 13.3332 22.5455 16.097C22.5455 17.0388 22.2854 17.9441 21.8021 18.7285L23.2207 20.1265C23.3138 19.6162 23.3564 18.9644 23.3628 18.0172L23.3636 17.7533V14.2467C23.3636 12.2971 23.2283 11.5103 22.8678 10.7904L22.8339 10.724L22.802 10.6636C22.4618 10.0276 21.9724 9.53816 21.3364 9.198L21.2678 9.16201C20.5248 8.77964 19.7667 8.64058 17.8429 8.63636ZM17.562 12.7273C15.7144 12.7273 14.2149 14.235 14.2149 16.097C14.2149 16.2921 14.2313 16.4846 14.2635 16.6734L16.1745 18.7494L18.6503 16.6653C18.9636 16.4015 19.4217 16.4111 19.7236 16.6822L19.7514 16.7084L20.5903 17.5347C20.7988 17.0907 20.9091 16.6027 20.9091 16.097C20.9091 14.235 19.4095 12.7273 17.562 12.7273Z" fill="#7B61FF"/>
</svg>
