<svg width="18" height="18" viewBox="0 0 18 18" fill="none" xmlns="http://www.w3.org/2000/svg">
<path d="M8.99999 0.900024C13.4735 0.900024 17.1 4.52652 17.1 9.00002C17.1 13.4735 13.4735 17.1 8.99999 17.1C4.52649 17.1 0.899994 13.4735 0.899994 9.00002C0.899994 4.52652 4.52649 0.900024 8.99999 0.900024ZM8.99999 2.38502C5.34663 2.38502 2.38499 5.34666 2.38499 9.00002C2.38499 12.6534 5.34663 15.615 8.99999 15.615C12.6534 15.615 15.615 12.6534 15.615 9.00002C15.615 5.34666 12.6534 2.38502 8.99999 2.38502ZM9.6746 6.20904L9.6749 6.22099L9.67486 8.30072H11.6934C12.1076 8.30072 12.4472 8.62922 12.461 9.04322C12.4742 9.43988 12.1633 9.77213 11.7667 9.78533L11.7547 9.78563L9.67486 9.78572L9.67499 11.8539C9.67499 12.264 9.34257 12.5964 8.93249 12.5964C8.53242 12.5964 8.20626 12.28 8.19058 11.8838L8.18999 11.8539L8.18986 9.78572H6.12179C5.71172 9.78572 5.37929 9.4533 5.37929 9.04322C5.37929 8.64316 5.6957 8.31699 6.09193 8.30131L6.12179 8.30072H8.18986L8.18999 6.28235C8.18999 5.86811 8.51849 5.5285 8.93249 5.51473C9.32915 5.50153 9.6614 5.81238 9.6746 6.20904Z" fill="#56606D"/>
</svg>
