<svg width="40" height="40" viewBox="0 0 40 40" fill="none" xmlns="http://www.w3.org/2000/svg">
<circle cx="20" cy="20" r="20" fill="#EBEEF1"/>
<path d="M20 12.8C23.9764 12.8 27.2 16.0236 27.2 20C27.2 23.9765 23.9764 27.2 20 27.2C16.0235 27.2 12.8 23.9765 12.8 20C12.8 16.0236 16.0235 12.8 20 12.8ZM20 14.12C16.7526 14.12 14.12 16.7526 14.12 20C14.12 23.2474 16.7526 25.88 20 25.88C23.2474 25.88 25.88 23.2474 25.88 20C25.88 16.7526 23.2474 14.12 20 14.12ZM20.06 15.56C20.4156 15.56 20.7055 15.8413 20.7195 16.1935L20.72 16.22L20.7201 19.4984H23.5184C23.8829 19.4984 24.1784 19.7939 24.1784 20.1584C24.1784 20.514 23.8971 20.8039 23.5449 20.8179L23.5184 20.8184H20.1259C19.9888 20.8184 19.8609 20.7779 19.7538 20.7082C19.5508 20.6068 19.4084 20.4003 19.4003 20.1577L19.4001 20.1471L19.4 16.22C19.4 15.8555 19.6955 15.56 20.06 15.56Z" fill="#56606D"/>
</svg>
