<svg width="40" height="40" viewBox="0 0 40 40" fill="none" xmlns="http://www.w3.org/2000/svg">
    <path fill-rule="evenodd" clip-rule="evenodd" d="M16.4423 0H23.3463C28.8835 0 31.0805 0.613723 33.2353 1.76617C35.3902 2.91861 37.0814 4.60977 38.2338 6.76465L38.3214 6.93055C39.4029 9.00671 39.9846 11.2 40 16.4423V23.3463C40 28.8835 39.3863 31.0804 38.2338 33.2353C37.0814 35.3902 35.3902 37.0814 33.2353 38.2338L33.0694 38.3214C30.9933 39.4029 28.8 39.9845 23.5577 40H16.6537C11.1165 40 8.91954 39.3862 6.76466 38.2338C4.60977 37.0814 2.91861 35.3902 1.76617 33.2353L1.67858 33.0694C0.597074 30.9933 0.0154219 28.8 0 23.5576V16.6536C0 11.1165 0.613723 8.91953 1.76617 6.76465C2.91861 4.60977 4.60977 2.91861 6.76466 1.76617L6.93055 1.67858C9.00672 0.597073 11.2 0.0154218 16.4423 0Z" fill="#0218A7"/>
    <path d="M20.1654 34.3801C28.1986 34.3801 34.7108 27.8678 34.7108 19.8346C34.7108 11.8013 28.1986 5.28906 20.1654 5.28906C12.1321 5.28906 5.61987 11.8013 5.61987 19.8346C5.61987 27.8678 12.1321 34.3801 20.1654 34.3801Z" fill="white"/>
    <path fill-rule="evenodd" clip-rule="evenodd" d="M20.1652 32.409C27.1098 32.409 32.7396 26.7793 32.7396 19.8346C32.7396 16.1716 22.6985 21.4552 20.1992 19.157C17.9601 17.0981 23.4468 7.26025 20.1652 7.26025C13.2206 7.26025 7.59082 12.89 7.59082 19.8346C7.59082 26.7793 13.2206 32.409 20.1652 32.409Z" fill="#FF458B"/>
    <path fill-rule="evenodd" clip-rule="evenodd" d="M20.1654 7.26025C21.0663 7.26025 21.7966 7.9906 21.7966 8.89152V19.8346C21.7966 20.7355 21.0663 21.4658 20.1654 21.4658C19.2645 21.4658 18.5342 20.7355 18.5342 19.8346V8.89152C18.5342 7.9906 19.2645 7.26025 20.1654 7.26025Z" fill="#0149FF"/>
    <path fill-rule="evenodd" clip-rule="evenodd" d="M32.7056 19.8007C32.7056 20.7016 31.9752 21.432 31.0743 21.432L20.1312 21.432C19.2303 21.432 18.4999 20.7016 18.4999 19.8007C18.4999 18.8998 19.2303 18.1694 20.1312 18.1694L31.0743 18.1694C31.9752 18.1694 32.7056 18.8998 32.7056 19.8007Z" fill="#0149FF"/>
</svg>
