<svg width="168" height="50" viewBox="0 0 168 50" fill="none" xmlns="http://www.w3.org/2000/svg">
<path d="M22.0985 46.9775C20.1378 46.9775 18.5421 45.4147 18.4892 43.4668L8.3292 37.6012C7.80085 37.8874 7.23087 38.0282 6.66643 38.0362L6.6106 38.0366C5.36417 38.0352 4.15241 37.3877 3.48436 36.2306C2.50401 34.5326 3.05958 32.3693 4.72001 31.3495V19.618C3.05958 18.5981 2.50401 16.4348 3.48436 14.7368C4.14244 13.597 5.32812 12.9517 6.55481 12.9313L6.6106 12.9308C7.19323 12.9302 7.78342 13.0707 8.32921 13.3662L18.4892 7.50059C18.5416 5.57251 20.1056 4.02175 22.0388 3.9904L22.0985 3.98992C24.0592 3.98992 25.6549 5.55268 25.7079 7.50056L35.8676 13.3664C36.396 13.0802 36.9661 12.9393 37.5307 12.9312L37.5865 12.9308C38.8329 12.9323 40.0447 13.5797 40.7127 14.7368C41.6931 16.4348 41.1375 18.5981 39.4771 19.618V31.3495C41.1375 32.3693 41.6931 34.5326 40.7127 36.2306C40.0547 37.3705 38.869 38.0157 37.6423 38.0361L37.5865 38.0366C37.0039 38.0373 36.4137 37.8968 35.8679 37.6012L25.7079 43.4669C25.6555 45.3949 24.0915 46.9457 22.1583 46.9771L22.0985 46.9775ZM22.0985 9.32008L22.1453 9.31945C22.1492 9.31935 22.1531 9.31923 22.157 9.3191L22.1453 9.31945C22.161 9.31903 22.1765 9.31841 22.192 9.31757L22.157 9.3191C22.1741 9.31853 22.1911 9.31771 22.208 9.31665L22.192 9.31757C22.2079 9.31672 22.2237 9.31565 22.2394 9.31438L22.208 9.31665C22.2235 9.31567 22.239 9.3145 22.2543 9.31311L22.2394 9.31438C22.2534 9.31324 22.2673 9.31194 22.2812 9.31048L22.2543 9.31311C22.2713 9.31159 22.2882 9.30982 22.305 9.30781L22.2812 9.31048C22.2968 9.30882 22.3125 9.30695 22.3281 9.30487L22.305 9.30781C22.3193 9.3061 22.3335 9.30422 22.3476 9.30217L22.3281 9.30487C22.3457 9.30252 22.3632 9.29991 22.3807 9.29702L22.3476 9.30217C22.362 9.30009 22.3762 9.29783 22.3904 9.2954L22.3807 9.29702C22.3955 9.29457 22.4103 9.29193 22.4251 9.2891L22.3904 9.2954C22.4061 9.29273 22.4217 9.28984 22.4372 9.28674L22.4251 9.2891C22.444 9.28545 22.4629 9.28149 22.4817 9.27723L22.4372 9.28674C22.4729 9.2796 22.5083 9.27135 22.5432 9.26203C22.552 9.25972 22.5607 9.2573 22.5695 9.25481L22.5432 9.26203C22.5576 9.25819 22.5719 9.25415 22.5862 9.24995L22.5695 9.25481C22.5823 9.25118 22.595 9.24741 22.6077 9.24348L22.5862 9.24995C23.2983 9.03973 23.818 8.38089 23.818 7.60067C23.818 6.65107 23.0481 5.88126 22.0985 5.88126C21.1489 5.88126 20.3791 6.65107 20.3791 7.60067C20.3791 8.37239 20.8876 9.02537 21.5877 9.24292C21.5964 9.24569 21.6053 9.24834 21.6141 9.25093L21.5877 9.24292C21.6008 9.24699 21.614 9.2509 21.6272 9.25467L21.6141 9.25093C21.6282 9.25505 21.6424 9.259 21.6566 9.26276L21.6272 9.25467C21.6424 9.259 21.6577 9.26313 21.6731 9.26705L21.6566 9.26276C21.6903 9.27169 21.7244 9.27962 21.7588 9.28651C21.7643 9.28761 21.7698 9.28868 21.7752 9.28973L21.7588 9.28651C21.7748 9.28972 21.7909 9.29269 21.807 9.29545L21.7752 9.28973C21.7885 9.29224 21.8018 9.29461 21.8151 9.29682L21.807 9.29545C21.8214 9.2979 21.8359 9.30019 21.8504 9.30228L21.8151 9.29682C21.8328 9.29976 21.8506 9.30243 21.8685 9.30482L21.8504 9.30228C21.8642 9.30428 21.8781 9.30612 21.892 9.30779L21.8685 9.30482C21.8843 9.30693 21.9001 9.30882 21.916 9.3105L21.892 9.30779C21.9089 9.3098 21.9258 9.31158 21.9427 9.3131L21.916 9.3105C21.9298 9.31196 21.9437 9.31326 21.9577 9.31439L21.9427 9.3131C21.9582 9.31449 21.9736 9.31567 21.9891 9.31664L21.9577 9.31439C21.9734 9.31566 21.9892 9.31673 22.005 9.31758L21.9891 9.31664C22.006 9.31771 22.023 9.31852 22.04 9.3191L22.005 9.31758C22.036 9.31924 22.0672 9.32008 22.0985 9.32008ZM27.6879 21.1205L34.0843 17.4276C34.0797 17.4096 34.0753 17.3916 34.071 17.3736C34.0697 17.3681 34.0684 17.3624 34.0671 17.3568C34.0642 17.3444 34.0614 17.3321 34.0587 17.3198C34.0567 17.3108 34.0548 17.3017 34.0528 17.2927C34.0506 17.2821 34.0484 17.2715 34.0462 17.2609C34.044 17.2497 34.0417 17.2386 34.0396 17.2274C34.0334 17.1954 34.0276 17.1633 34.0223 17.1311C34.021 17.123 34.0197 17.1148 34.0184 17.1066C34.006 17.028 33.9962 16.9494 33.9891 16.8707C33.9883 16.8618 33.9875 16.853 33.9868 16.8441C33.984 16.8109 33.9817 16.7775 33.9799 16.7442C33.9797 16.7414 33.9795 16.7385 33.9794 16.7357L33.9799 16.7442C33.9789 16.727 33.9781 16.7098 33.9774 16.6927C33.977 16.6823 33.9766 16.6719 33.9762 16.6615C33.9759 16.65 33.9756 16.6386 33.9753 16.6272C33.9751 16.6185 33.9749 16.6098 33.9748 16.6011C33.9747 16.5924 33.9746 16.5838 33.9745 16.5751C33.9744 16.5672 33.9744 16.5593 33.9744 16.5514L33.9745 16.5751C33.9729 16.3828 33.9867 16.1911 34.0155 16.0021C34.0202 15.9706 34.0254 15.9393 34.031 15.908C34.0335 15.8943 34.036 15.8807 34.0386 15.8671C34.0441 15.8382 34.05 15.8094 34.0562 15.7807C34.0584 15.7703 34.0607 15.7599 34.063 15.7496C34.0647 15.7421 34.0664 15.7347 34.0681 15.7273C34.0697 15.7203 34.0714 15.7133 34.073 15.7064C34.0762 15.693 34.0794 15.6798 34.0827 15.6666C34.0926 15.6272 34.1031 15.5879 34.1143 15.5489C34.1223 15.5208 34.1307 15.4929 34.1394 15.465C34.1423 15.4555 34.1453 15.4461 34.1483 15.4367C34.1508 15.429 34.1533 15.4213 34.1558 15.4136C34.1588 15.4047 34.1618 15.3957 34.1648 15.3867C34.1689 15.3746 34.1731 15.3624 34.1773 15.3503C34.1794 15.3444 34.1814 15.3385 34.1836 15.3326C34.1878 15.3207 34.192 15.3089 34.1963 15.2972C34.1972 15.2947 34.1982 15.2922 34.1991 15.2896C34.2047 15.2744 34.2104 15.2594 34.2162 15.2444C34.2297 15.2091 34.2438 15.174 34.2585 15.1391C34.2702 15.1113 34.2823 15.0836 34.2947 15.056C34.2989 15.0467 34.3032 15.0373 34.3075 15.028C34.3103 15.022 34.313 15.016 34.3158 15.0101C34.3217 14.9975 34.3277 14.9849 34.3337 14.9724C34.3379 14.9636 34.3421 14.9549 34.3464 14.9462C34.3503 14.9383 34.3542 14.9304 34.3582 14.9225C34.3633 14.9122 34.3686 14.9019 34.3738 14.8917C34.3771 14.8853 34.3804 14.8789 34.3837 14.8725C34.3892 14.8619 34.3948 14.8514 34.4003 14.8409C34.4035 14.835 34.4067 14.8291 34.4098 14.8232C34.4255 14.7941 34.4416 14.7653 34.4582 14.7366L25.2261 9.40633C25.2243 9.40949 25.2224 9.41265 25.2206 9.4158C25.2035 9.44507 25.1861 9.47403 25.1683 9.50273C25.1653 9.50761 25.1622 9.51248 25.1592 9.51735C25.1524 9.52815 25.1455 9.53895 25.1386 9.54971C25.1341 9.5567 25.1297 9.5636 25.1252 9.57048C25.1196 9.57906 25.1139 9.58772 25.1081 9.59635C25.1029 9.60419 25.0977 9.61195 25.0925 9.61969C25.0891 9.62475 25.0856 9.62983 25.0822 9.6349C25.0262 9.71677 24.967 9.79621 24.9047 9.87303C24.8866 9.89545 24.8681 9.91768 24.8494 9.93968C24.832 9.96012 24.8144 9.98037 24.7965 10.0004C24.788 10.0099 24.7795 10.0194 24.771 10.0288C24.7662 10.0341 24.7614 10.0393 24.7566 10.0446C24.7516 10.0499 24.7467 10.0553 24.7417 10.0606C24.7211 10.0828 24.7001 10.1047 24.679 10.1263C24.6124 10.1943 24.5432 10.2597 24.4715 10.3223L24.465 10.3279C24.4419 10.3479 24.4186 10.3677 24.395 10.3872C24.3911 10.3904 24.3874 10.3935 24.3836 10.3965C24.3748 10.4037 24.3659 10.411 24.3569 10.4182C24.3489 10.4246 24.3408 10.431 24.3327 10.4374C24.3283 10.4409 24.3239 10.4444 24.3194 10.4479C24.2903 10.4706 24.2608 10.493 24.2309 10.5148C24.2291 10.5162 24.2274 10.5174 24.2256 10.5187C24.2166 10.5253 24.2075 10.5319 24.1984 10.5384C24.1766 10.554 24.1547 10.5693 24.1326 10.5844L24.1233 10.5907C24.0614 10.6328 23.998 10.6729 23.9334 10.7111C23.9271 10.7149 23.9208 10.7186 23.9145 10.7222C23.8882 10.7376 23.8617 10.7526 23.835 10.7672C23.8242 10.7731 23.8135 10.779 23.8027 10.7848C23.7964 10.7882 23.79 10.7916 23.7836 10.7949C23.7763 10.7988 23.7689 10.8027 23.7615 10.8065C23.7489 10.8131 23.7362 10.8196 23.7235 10.826C23.7184 10.8286 23.7133 10.8312 23.7081 10.8337C23.6789 10.8483 23.6496 10.8624 23.62 10.8762C23.6132 10.8793 23.6063 10.8825 23.5995 10.8857C23.5691 10.8995 23.5387 10.913 23.508 10.926C23.4777 10.9389 23.4472 10.9513 23.4165 10.9633C23.3883 10.9744 23.36 10.9851 23.3315 10.9954C23.3247 10.9979 23.3179 11.0004 23.3111 11.0028C23.2979 11.0075 23.2845 11.0122 23.2712 11.0167C23.2679 11.0179 23.2647 11.019 23.2614 11.0201C23.2468 11.025 23.2321 11.0299 23.2173 11.0348C23.2118 11.0366 23.2062 11.0384 23.2007 11.0401C23.1858 11.0449 23.1709 11.0495 23.156 11.0541C23.1526 11.0552 23.1492 11.0562 23.1458 11.0572C23.1335 11.061 23.121 11.0646 23.1086 11.0683C23.0979 11.0714 23.0873 11.0744 23.0766 11.0774C23.0739 11.0782 23.0712 11.0789 23.0685 11.0796L23.0686 18.0334C25.0441 18.2776 26.7406 19.4546 27.6879 21.1205ZM16.8381 21.2671C17.7219 19.6072 19.3202 18.4315 21.1773 18.089L21.1773 11.0928C21.1565 11.0874 21.1358 11.0817 21.1151 11.0759C21.106 11.0733 21.0969 11.0707 21.0878 11.0681C21.0181 11.0478 20.9492 11.0254 20.8813 11.0011C20.8753 10.9989 20.8692 10.9968 20.8632 10.9946C20.8499 10.9897 20.8366 10.9848 20.8234 10.9798C20.8188 10.9781 20.8141 10.9763 20.8094 10.9745C20.7968 10.9697 20.7843 10.9648 20.7718 10.9599C20.7654 10.9573 20.759 10.9548 20.7526 10.9522C20.7383 10.9465 20.7241 10.9406 20.7099 10.9347C20.7059 10.9331 20.7019 10.9314 20.6979 10.9297C20.6662 10.9164 20.6348 10.9026 20.6037 10.8884C20.5951 10.8845 20.5867 10.8806 20.5783 10.8767C20.5532 10.8651 20.5283 10.8531 20.5035 10.8409C20.4881 10.8333 20.4728 10.8257 20.4576 10.8179C20.4485 10.8132 20.4394 10.8085 20.4303 10.8038C20.4265 10.8018 20.4228 10.7998 20.419 10.7978C20.4047 10.7903 20.3903 10.7826 20.3761 10.7749C20.371 10.7721 20.3659 10.7693 20.3607 10.7665C20.352 10.7617 20.3433 10.7569 20.3346 10.752C20.3071 10.7365 20.2798 10.7207 20.2527 10.7046C20.2468 10.7011 20.241 10.6976 20.2351 10.6941C20.2239 10.6873 20.2127 10.6804 20.2015 10.6735C20.1945 10.6692 20.1875 10.6648 20.1806 10.6605C20.1737 10.6561 20.1667 10.6517 20.1598 10.6473C20.1518 10.6422 20.1438 10.6371 20.1359 10.632C20.1106 10.6155 20.0854 10.5987 20.0604 10.5816C20.0516 10.5756 20.0428 10.5695 20.0341 10.5634C19.9895 10.5323 19.9456 10.5001 19.9025 10.467C19.8941 10.4607 19.8858 10.4542 19.8775 10.4477L19.8708 10.4425C19.8358 10.415 19.8013 10.3869 19.7674 10.3581C19.7589 10.351 19.7506 10.3439 19.7423 10.3367C19.7337 10.3293 19.7251 10.3218 19.7165 10.3143C19.7106 10.3091 19.7047 10.3039 19.6989 10.2987C19.6941 10.2944 19.6894 10.2902 19.6847 10.286C19.6166 10.2247 19.5508 10.1609 19.4876 10.0947C19.4818 10.0887 19.476 10.0826 19.4703 10.0765C19.4442 10.0488 19.4186 10.0208 19.3934 9.99233L19.3919 9.99053C19.3476 9.94042 19.3047 9.88906 19.2632 9.83652C19.2569 9.82865 19.2507 9.82072 19.2445 9.81277C19.2389 9.80539 19.2332 9.79801 19.2275 9.79061C19.2215 9.78283 19.2156 9.77502 19.2097 9.76718C19.2054 9.76134 19.2011 9.75555 19.1968 9.74974C19.189 9.7394 19.1814 9.72893 19.1737 9.71841C19.1691 9.71198 19.1645 9.70557 19.1599 9.69914C19.1539 9.6908 19.148 9.68245 19.1421 9.67407C19.137 9.66686 19.132 9.65957 19.1269 9.65226C19.1202 9.64265 19.1137 9.63307 19.1071 9.62345C19.1026 9.61673 19.0981 9.60997 19.0936 9.60319C19.0549 9.54529 19.0178 9.48622 18.9825 9.42604L18.9711 9.40633L9.73888 14.7365C9.75839 14.7704 9.77695 14.8039 9.79497 14.8376C9.80118 14.8492 9.8073 14.8608 9.81337 14.8725C9.81792 14.8812 9.82242 14.8899 9.82688 14.8987C9.8295 14.9039 9.83212 14.909 9.83472 14.9142C9.85072 14.9459 9.86626 14.9779 9.88132 15.0101C9.88411 15.0161 9.88686 15.022 9.8896 15.028C9.8949 15.0395 9.90014 15.051 9.90532 15.0626C9.90775 15.068 9.91016 15.0734 9.91255 15.0788C9.91786 15.0908 9.92311 15.1029 9.92829 15.1149C9.94998 15.1654 9.97049 15.2164 9.98982 15.2677C10.0083 15.3169 10.0258 15.3665 10.0422 15.4164C10.0442 15.4225 10.0462 15.4287 10.0482 15.435C10.0725 15.5106 10.0944 15.587 10.1137 15.6641C10.1159 15.6729 10.1181 15.6816 10.1202 15.6904C10.1275 15.7204 10.1344 15.7504 10.1409 15.7805C10.1425 15.7879 10.144 15.7952 10.1456 15.8024C10.1485 15.8165 10.1514 15.8305 10.1542 15.8447C10.1554 15.8512 10.1567 15.8577 10.1579 15.8642C10.1679 15.9162 10.1767 15.9684 10.1844 16.0208C10.1872 16.0395 10.1898 16.0582 10.1922 16.0769C10.1955 16.1018 10.1985 16.1268 10.2012 16.1518C10.2069 16.2042 10.2115 16.2568 10.215 16.3095C10.2157 16.32 10.2163 16.3304 10.2169 16.3408C10.2174 16.3488 10.2178 16.3569 10.2182 16.365C10.2199 16.3989 10.2211 16.4329 10.2219 16.467C10.2227 16.503 10.2229 16.5391 10.2226 16.5752C10.2225 16.5838 10.2224 16.5925 10.2223 16.6012C10.2222 16.6077 10.2221 16.614 10.2219 16.6204C10.2212 16.6549 10.22 16.6896 10.2183 16.7242C10.2177 16.7365 10.217 16.7488 10.2163 16.7612C10.2158 16.7696 10.2152 16.778 10.2147 16.7864C10.2142 16.7932 10.2137 16.8 10.2132 16.8068C10.2103 16.8466 10.2068 16.8864 10.2026 16.9262C10.2025 16.9268 10.2024 16.9274 10.2024 16.928L10.2026 16.9262C10.1938 17.0081 10.1823 17.0899 10.1678 17.1716C10.1664 17.1795 10.165 17.1874 10.1636 17.1953C10.1617 17.2054 10.1598 17.2154 10.1579 17.2255C10.1521 17.2554 10.1459 17.2854 10.1394 17.3152C10.1339 17.3401 10.1282 17.365 10.1222 17.3898L16.8381 21.2671ZM38.4454 18.0312C39.2678 17.5564 39.5496 16.5049 39.0748 15.6825C38.6 14.8601 37.5484 14.5784 36.726 15.0532C36.0778 15.4274 35.7654 16.16 35.8948 16.8563C35.896 16.8631 35.8973 16.8699 35.8986 16.8767L35.8948 16.8563C35.8972 16.8692 35.8997 16.8821 35.9024 16.8949L35.8986 16.8767C35.9019 16.8932 35.9054 16.9097 35.9092 16.9262L35.9024 16.8949C35.9061 16.9123 35.91 16.9296 35.9142 16.9469L35.9092 16.9262C35.9123 16.9398 35.9156 16.9533 35.9191 16.9669L35.9142 16.9469C35.9178 16.9617 35.9215 16.9764 35.9255 16.9911L35.9191 16.9669C35.9232 16.983 35.9276 16.999 35.9322 17.015L35.9255 16.9911C35.9292 17.0048 35.9331 17.0185 35.9372 17.0322L35.9322 17.015C35.9467 17.0656 35.9636 17.1157 35.9829 17.1652C35.9856 17.1722 35.9884 17.1791 35.9912 17.1861L35.9829 17.1652C35.989 17.1809 35.9954 17.1965 36.002 17.212L35.9912 17.1861C35.997 17.2003 36.003 17.2145 36.0091 17.2287L36.002 17.212C36.0075 17.2251 36.0132 17.2381 36.0191 17.2511L36.0091 17.2287C36.0165 17.2455 36.0241 17.2622 36.032 17.2789L36.0191 17.2511C36.0254 17.265 36.0319 17.2788 36.0387 17.2926L36.032 17.2789C36.0386 17.2926 36.0453 17.3063 36.0522 17.3199L36.0387 17.2926C36.0468 17.3094 36.0553 17.3261 36.064 17.3428L36.0522 17.3199C36.0621 17.3394 36.0725 17.3589 36.0833 17.3782L36.0967 17.4019C36.1202 17.4427 36.1452 17.4822 36.1716 17.5205C36.1754 17.5259 36.1792 17.5314 36.183 17.5367L36.1716 17.5205C36.1901 17.5472 36.2092 17.5732 36.2289 17.5987C36.2324 17.6032 36.2359 17.6076 36.2393 17.6119L36.2289 17.5987C36.237 17.609 36.2451 17.6193 36.2534 17.6294L36.2393 17.6119C36.2504 17.626 36.2618 17.6398 36.2733 17.6534L36.2534 17.6294C36.2627 17.6409 36.2722 17.6522 36.2818 17.6634L36.2733 17.6534C36.2819 17.6637 36.2906 17.6738 36.2995 17.6837L36.2818 17.6634C36.3048 17.6903 36.3286 17.7164 36.3532 17.7416C36.3708 17.7598 36.3889 17.7776 36.4073 17.7949C36.4243 17.8109 36.4416 17.8266 36.4592 17.8419C36.4688 17.8501 36.4783 17.8582 36.4879 17.8661L36.4592 17.8419C36.4706 17.8518 36.482 17.8614 36.4936 17.8709L36.4879 17.8661C37.0257 18.3119 37.8051 18.401 38.4454 18.0312ZM7.80325 17.7821L7.81711 17.7686C7.83466 17.7513 7.85186 17.7337 7.86871 17.7156C7.87106 17.713 7.87333 17.7106 7.8756 17.7081L7.86871 17.7156C7.87928 17.7042 7.88971 17.6927 7.9 17.681L7.8756 17.7081C7.88682 17.6959 7.8979 17.6835 7.90881 17.671L7.9 17.681C7.91068 17.6689 7.92122 17.6566 7.93158 17.6441L7.90881 17.671C7.91814 17.6602 7.92736 17.6493 7.93646 17.6383L7.93158 17.6441C7.94036 17.6336 7.94901 17.623 7.95755 17.6122L7.93646 17.6383C7.94846 17.6238 7.96025 17.609 7.97182 17.594L7.95755 17.6122C7.96726 17.5999 7.97682 17.5875 7.98622 17.575L7.97182 17.594C7.98053 17.5827 7.9891 17.5713 7.99755 17.5597L7.98622 17.575C7.99534 17.5628 8.00431 17.5505 8.01314 17.5381L7.99755 17.5597C8.00714 17.5466 8.01657 17.5334 8.02584 17.5199L8.01314 17.5381C8.0441 17.4944 8.07324 17.449 8.10042 17.4019C8.10496 17.394 8.10943 17.3862 8.11383 17.3782L8.10042 17.4019C8.12062 17.3669 8.13946 17.3315 8.15694 17.2957C8.16121 17.287 8.16541 17.2782 8.16953 17.2694L8.15694 17.2957C8.1619 17.2856 8.16676 17.2754 8.1715 17.2652L8.16953 17.2694C8.17628 17.255 8.18282 17.2405 8.18915 17.2259C8.19102 17.2216 8.19286 17.2174 8.19469 17.2131L8.18915 17.2259C8.21684 17.1622 8.24045 17.0974 8.26002 17.0318C8.26123 17.0277 8.26241 17.0236 8.26358 17.0196L8.26002 17.0318C8.26444 17.0169 8.26866 17.002 8.27267 16.9871L8.26358 17.0196C8.26818 17.0037 8.27255 16.9878 8.27667 16.9719L8.27267 16.9871C8.27648 16.973 8.28011 16.9588 8.28355 16.9445L8.27667 16.9719C8.28495 16.9399 8.29226 16.9078 8.29863 16.8755C8.29959 16.8711 8.30045 16.8667 8.3013 16.8622L8.29863 16.8755C8.43737 16.1736 8.12528 15.4309 7.47107 15.0532C6.64869 14.5784 5.59712 14.8601 5.12232 15.6825C4.64752 16.5049 4.92928 17.5564 5.75166 18.0312C6.43045 18.4231 7.26539 18.2996 7.80325 17.7821ZM9.12889 31.8356L13.2249 29.4707C12.5285 28.6132 12.1111 27.52 12.1111 26.3292C12.1111 24.5372 13.0563 22.966 14.4755 22.0871L9.21204 19.0482C9.1907 19.0704 9.16912 19.0923 9.1473 19.1138C9.10955 19.1511 9.0711 19.1874 9.03196 19.2227C8.87313 19.3662 8.70306 19.494 8.52414 19.6055C8.45447 19.649 8.38346 19.6899 8.31127 19.7283L8.30904 19.7295C8.27625 19.7469 8.24321 19.7638 8.20993 19.7802C8.16206 19.8038 8.11376 19.8263 8.06503 19.8477C8.04865 19.8549 8.03224 19.8619 8.01578 19.8689C7.97848 19.8846 7.9409 19.8997 7.90308 19.9141C7.8788 19.9234 7.8545 19.9324 7.83012 19.9411C7.78445 19.9575 7.73844 19.9729 7.69215 19.9874C7.66391 19.9963 7.63558 20.0048 7.60715 20.0129C7.55715 20.0273 7.50683 20.0405 7.45625 20.0527C7.42618 20.06 7.39597 20.0668 7.36568 20.0733C7.3367 20.0795 7.3076 20.0854 7.27843 20.0909C7.27252 20.092 7.26669 20.0931 7.26085 20.0941C7.23885 20.0982 7.21675 20.102 7.1946 20.1056C7.16532 20.1105 7.13603 20.1149 7.10669 20.119C7.10354 20.1194 7.10044 20.1199 7.09735 20.1203C7.09126 20.1211 7.08509 20.1219 7.07892 20.1227C7.04462 20.1272 7.01028 20.1313 6.97587 20.1348C6.94265 20.1382 6.90945 20.1411 6.87621 20.1436C6.86847 20.1442 6.86073 20.1447 6.85299 20.1452C6.81924 20.1475 6.78542 20.1494 6.75157 20.1507C6.74469 20.151 6.73783 20.1512 6.73096 20.1515C6.70996 20.1522 6.68895 20.1527 6.66792 20.1531L6.61213 20.1536L6.61136 20.1536V30.8139H6.61213C6.72379 30.814 6.83516 30.8193 6.94589 30.8297C6.96568 30.8316 6.98542 30.8336 7.00513 30.8358C7.05028 30.8408 7.09535 30.8466 7.14027 30.8533C7.17165 30.858 7.20292 30.863 7.23411 30.8685C7.27584 30.8759 7.31742 30.8839 7.35884 30.8927C7.39209 30.8997 7.42516 30.9072 7.45813 30.9152L7.51777 30.9301C7.62937 30.9591 7.73957 30.9933 7.84798 31.0328C7.87311 31.0419 7.89804 31.0513 7.92286 31.061C7.97464 31.0811 8.02553 31.1023 8.07594 31.1246C8.08454 31.1284 8.09322 31.1323 8.10188 31.1362C8.12265 31.1456 8.14325 31.1551 8.16375 31.1649C8.20266 31.1834 8.24127 31.2026 8.27955 31.2225C8.38641 31.278 8.4907 31.339 8.59198 31.4053C8.61757 31.422 8.64296 31.4391 8.66814 31.4565C8.67842 31.4636 8.68871 31.4708 8.69895 31.4781C8.73075 31.5006 8.7622 31.5236 8.79331 31.5472C8.91029 31.6358 9.02241 31.732 9.12889 31.8356ZM35.0965 31.8087L35.1157 31.7902C35.1782 31.7316 35.2425 31.6755 35.3085 31.6219C35.4252 31.5271 35.5471 31.4403 35.6734 31.3617L35.6753 31.3605C35.7028 31.3433 35.7306 31.3266 35.7585 31.3102C35.7651 31.3064 35.7717 31.3026 35.7783 31.2987L35.7585 31.3102C35.8125 31.2786 35.8672 31.2485 35.9226 31.2198C36.0017 31.1789 36.0821 31.141 36.1637 31.1061C36.2861 31.0538 36.4112 31.0082 36.5385 30.9697C36.5472 30.9671 36.556 30.9644 36.5647 30.9619C36.5931 30.9535 36.6217 30.9455 36.6503 30.9378C36.6971 30.9252 36.7442 30.9136 36.7914 30.9029C36.8025 30.9004 36.8137 30.898 36.8248 30.8956C36.8566 30.8887 36.8884 30.8823 36.9203 30.8763C36.9231 30.8758 36.9259 30.8752 36.9287 30.8747C36.9447 30.8717 36.9607 30.8689 36.9767 30.8661L36.9287 30.8747C36.9532 30.8702 36.9777 30.8659 37.0023 30.8618C37.0347 30.8565 37.0671 30.8516 37.0997 30.8472C37.1343 30.8425 37.1689 30.8382 37.2037 30.8345C37.2096 30.8339 37.2157 30.8333 37.2217 30.8326C37.2542 30.8293 37.2867 30.8264 37.3193 30.824C37.3275 30.8234 37.3358 30.8228 37.344 30.8222C37.3764 30.82 37.4087 30.8183 37.4411 30.8169C37.4495 30.8166 37.4579 30.8163 37.4663 30.816C37.4701 30.8159 37.4738 30.8157 37.4776 30.8156C37.5135 30.8145 37.5496 30.8139 37.5856 30.8139L37.5779 30.8141L37.585 30.8139L37.5856 30.8139V20.1536H37.585C37.5185 20.1535 37.4521 20.1516 37.3859 20.1478C37.3583 20.1463 37.3307 20.1444 37.3032 20.1422C37.2661 20.1393 37.229 20.1358 37.192 20.1317C37.1534 20.1274 37.1148 20.1225 37.0764 20.117C37.0503 20.1133 37.0243 20.1093 36.9984 20.105C36.9671 20.0998 36.9358 20.0942 36.9047 20.0882C36.8748 20.0825 36.8451 20.0763 36.8154 20.0698C36.7303 20.0512 36.6459 20.0296 36.5624 20.0049C36.4654 19.9763 36.37 19.9437 36.2761 19.9072C36.2423 19.8941 36.2087 19.8804 36.1752 19.8663C36.1646 19.8618 36.1539 19.8572 36.1433 19.8526C36.0987 19.8332 36.0546 19.8129 36.0108 19.7918C35.988 19.7807 35.9652 19.7694 35.9426 19.7579C35.8722 19.722 35.8029 19.6838 35.7348 19.6432C35.7142 19.6309 35.6936 19.6184 35.6731 19.6056L35.6215 19.5728C35.6043 19.5617 35.5871 19.5504 35.5701 19.539C35.3707 19.4051 35.1836 19.2504 35.012 19.0759L28.4959 22.8378C30.5706 23.0984 32.1805 24.8525 32.2152 26.9896L32.2157 27.06C32.2157 28.0308 31.8906 28.9258 31.3433 29.6418L35.0965 31.8087ZM21.8761 29.4241L27.9602 29.4241C29.2659 29.4241 30.3244 28.3657 30.3244 27.06C30.3244 25.7543 29.2659 24.6958 27.9602 24.6958L26.6576 24.6957L26.5877 23.8259C26.409 21.604 24.547 19.8777 22.3032 19.8777C20.5108 19.8777 18.9258 20.9848 18.2912 22.6291L18.0577 23.2343L17.0973 23.2343C15.3881 23.2343 14.0024 24.6199 14.0024 26.3292C14.0024 28.0385 15.3881 29.4241 17.0973 29.4241H21.7199C21.741 29.4241 21.7615 29.4239 21.7816 29.4235L21.8019 29.4231L21.8491 29.424L21.8761 29.4241ZM18.9711 41.561L18.9814 41.5434C18.9963 41.5178 19.0116 41.4924 19.0272 41.4673C19.032 41.4595 19.0369 41.4518 19.0417 41.4441C19.0461 41.4372 19.0504 41.4303 19.0549 41.4234C19.0602 41.415 19.0656 41.4067 19.071 41.3984C19.1175 41.3271 19.1664 41.2575 19.2176 41.1898C19.2428 41.1565 19.2685 41.1238 19.2948 41.0915C19.3372 41.0393 19.381 40.9883 19.4261 40.9386C19.4303 40.9341 19.4344 40.9295 19.4386 40.925C19.4469 40.9159 19.4554 40.9068 19.4638 40.8978C19.4683 40.893 19.4728 40.8883 19.4772 40.8836C19.4859 40.8745 19.4946 40.8653 19.5034 40.8562C19.5808 40.7763 19.6617 40.7 19.7461 40.6275C19.784 40.5949 19.8226 40.5631 19.8619 40.532C19.8671 40.5279 19.8723 40.5238 19.8776 40.5197C19.887 40.5124 19.8963 40.5051 19.9057 40.4979C19.9141 40.4915 19.9226 40.4851 19.931 40.4787C19.9366 40.4745 19.9422 40.4704 19.9478 40.4662C19.9727 40.4477 19.9977 40.4296 20.023 40.4118C20.0299 40.407 20.0368 40.4022 20.0437 40.3974C20.0679 40.3806 20.0924 40.364 20.1171 40.3478C20.1279 40.3407 20.1386 40.3337 20.1495 40.3267C20.1801 40.3071 20.2109 40.2879 20.2421 40.2692C20.2491 40.265 20.256 40.2609 20.263 40.2568C20.2887 40.2415 20.3146 40.2266 20.3407 40.2121C20.3478 40.2081 20.3549 40.2042 20.3621 40.2002C20.371 40.1953 20.3799 40.1905 20.3888 40.1857C20.4168 40.1706 20.4451 40.1559 20.4736 40.1415C20.478 40.1392 20.4825 40.137 20.487 40.1347C20.4979 40.1293 20.5088 40.1239 20.5198 40.1186C20.5277 40.1147 20.5356 40.1109 20.5435 40.1071C20.57 40.0945 20.5966 40.0821 20.6234 40.0701C20.65 40.0582 20.6767 40.0466 20.7035 40.0354C20.7345 40.0224 20.7658 40.0098 20.7973 39.9976C20.8325 39.984 20.868 39.9709 20.9037 39.9584C20.9086 39.9567 20.9135 39.955 20.9184 39.9533C20.9487 39.9428 20.9792 39.9327 21.0099 39.923C21.017 39.9208 21.024 39.9186 21.031 39.9165C21.0408 39.9134 21.0508 39.9104 21.0609 39.9074C21.0699 39.9047 21.0789 39.902 21.0879 39.8994C21.0987 39.8963 21.1095 39.8931 21.1204 39.8901C21.1254 39.8887 21.1304 39.8873 21.1353 39.8859C21.1447 39.8833 21.1542 39.8808 21.1637 39.8782L21.1774 39.8748L21.1774 31.3155L17.0973 31.3155C16.265 31.3155 15.4803 31.1115 14.7905 30.7509L10.0925 33.4633C10.102 33.4974 10.1109 33.5315 10.1193 33.5657C10.1267 33.5958 10.1337 33.6261 10.1403 33.6564C10.1465 33.6847 10.1523 33.713 10.1578 33.7414C10.1598 33.7522 10.1619 33.7629 10.1638 33.7737C10.1658 33.7844 10.1677 33.7952 10.1696 33.806C10.1831 33.8837 10.194 33.9616 10.2024 34.0396C10.2039 34.0538 10.2053 34.068 10.2067 34.0822C10.2091 34.1084 10.2113 34.1344 10.2132 34.1605C10.2139 34.1694 10.2145 34.1782 10.2151 34.1871C10.2158 34.1991 10.2166 34.2112 10.2172 34.2232C10.2177 34.2315 10.2181 34.2398 10.2185 34.248C10.2202 34.282 10.2213 34.3161 10.222 34.3501C10.2222 34.36 10.2224 34.37 10.2225 34.3799C10.2226 34.3875 10.2226 34.3951 10.2227 34.4027L10.2225 34.3799C10.223 34.4262 10.2227 34.4725 10.2214 34.5187C10.2206 34.5478 10.2195 34.5769 10.218 34.6059C10.2176 34.6146 10.2171 34.6233 10.2166 34.6319C10.2161 34.6406 10.2156 34.6492 10.215 34.6579C10.2104 34.7288 10.2036 34.7995 10.1948 34.8699C10.1923 34.8902 10.1896 34.9105 10.1867 34.9307C10.1851 34.9423 10.1834 34.9539 10.1816 34.9654L10.1867 34.9307C10.1784 34.9894 10.1686 35.0478 10.1575 35.1059C10.1562 35.1125 10.1549 35.1191 10.1536 35.1257C10.1429 35.1797 10.1309 35.2334 10.1178 35.2869C10.1086 35.3243 10.0988 35.3616 10.0884 35.3987C10.0864 35.4058 10.0844 35.4129 10.0824 35.4199C10.081 35.4249 10.0795 35.43 10.078 35.4351L10.0824 35.4199C10.071 35.4597 10.0589 35.4993 10.0462 35.5387C10.0444 35.5442 10.0426 35.5497 10.0408 35.5552C10.0368 35.5672 10.0328 35.5792 10.0288 35.5911C10.0271 35.5962 10.0253 35.6012 10.0236 35.6063C10.0122 35.6391 10.0004 35.6718 9.9881 35.7043C9.96629 35.762 9.94301 35.8191 9.91827 35.8756C9.9003 35.9167 9.88154 35.9575 9.86201 35.998C9.8573 36.0077 9.85249 36.0176 9.84764 36.0274C9.84377 36.0352 9.83989 36.043 9.83599 36.0508C9.83101 36.0607 9.82595 36.0706 9.82084 36.0806C9.81764 36.0868 9.81444 36.0929 9.81122 36.0991C9.80568 36.1097 9.80009 36.1203 9.79446 36.1308C9.77663 36.1642 9.75822 36.1974 9.73927 36.2303L9.73888 36.231L18.9711 41.561ZM25.226 41.561L34.4582 36.231C34.4431 36.2048 34.4284 36.1785 34.414 36.152C34.4102 36.1449 34.4064 36.1378 34.4026 36.1308C34.397 36.1203 34.3914 36.1097 34.3859 36.0991C34.3827 36.0929 34.3795 36.0868 34.3763 36.0806C34.3705 36.0693 34.3648 36.0581 34.3591 36.0468C34.3563 36.0411 34.3534 36.0354 34.3505 36.0296C34.345 36.0183 34.3394 36.007 34.334 35.9957C34.3298 35.9871 34.3257 35.9783 34.3215 35.9696C34.3199 35.966 34.3182 35.9625 34.3166 35.959L34.3215 35.9696C34.3136 35.9528 34.3058 35.936 34.2982 35.9191C34.2856 35.8913 34.2732 35.8632 34.2613 35.8349L34.2599 35.8317C34.2286 35.7575 34.1998 35.6823 34.1735 35.6063C34.1718 35.6012 34.17 35.5962 34.1683 35.5911C34.1643 35.5792 34.1602 35.5672 34.1563 35.5552C34.1545 35.5497 34.1527 35.5442 34.1509 35.5387C34.1473 35.5275 34.1437 35.5162 34.1402 35.505C34.1313 35.4767 34.1228 35.4483 34.1146 35.4198C34.1127 35.4129 34.1107 35.4058 34.1087 35.3988C34.0983 35.3616 34.0885 35.3243 34.0793 35.2869C34.0709 35.2529 34.0631 35.2188 34.0557 35.1846C34.054 35.1766 34.0523 35.1686 34.0506 35.1605C34.044 35.1288 34.0378 35.0971 34.0321 35.0653C34.0275 35.0399 34.0232 35.0145 34.0191 34.989L34.0177 34.9801C33.9894 34.7984 33.9748 34.6142 33.9744 34.4292C33.9744 34.4205 33.9744 34.4116 33.9744 34.4028C33.9745 34.3951 33.9745 34.3875 33.9746 34.3799L33.9744 34.4028C33.9745 34.3852 33.9747 34.3677 33.9751 34.3501C33.9754 34.336 33.9757 34.3219 33.9762 34.3078C33.9765 34.2989 33.9768 34.2899 33.9771 34.281C33.9776 34.27 33.978 34.259 33.9786 34.248C33.9789 34.2409 33.9793 34.2337 33.9797 34.2266C33.9814 34.1955 33.9834 34.1645 33.9859 34.1334C33.9869 34.122 33.9878 34.1106 33.9889 34.0992C33.996 34.0197 34.0058 33.9402 34.0184 33.8609C34.0193 33.855 34.0202 33.8491 34.0212 33.8432C34.027 33.8076 34.0334 33.7719 34.0403 33.7363C34.0416 33.7299 34.0428 33.7236 34.0441 33.7172C34.0468 33.7034 34.0497 33.6896 34.0526 33.6758C34.054 33.6694 34.0554 33.6629 34.0568 33.6564C34.059 33.6462 34.0613 33.6361 34.0636 33.626C34.0662 33.6146 34.0688 33.6032 34.0715 33.5917C34.0795 33.558 34.0881 33.5243 34.0971 33.4907C34.1009 33.4767 34.1047 33.4625 34.1087 33.4484C34.1108 33.4409 34.1129 33.4335 34.1151 33.4261L29.7654 30.9147C29.2174 31.1718 28.6056 31.3155 27.9602 31.3155L23.0687 31.3155L23.0687 39.8879C23.0865 39.8928 23.1043 39.8979 23.122 39.9031C23.1273 39.9047 23.1326 39.9063 23.138 39.9079C23.1507 39.9117 23.1633 39.9156 23.1759 39.9195C23.1823 39.9215 23.1887 39.9235 23.1951 39.9256C23.2067 39.9292 23.2181 39.933 23.2296 39.9367C23.2362 39.9389 23.2429 39.9411 23.2496 39.9434C23.2809 39.9539 23.312 39.9648 23.3429 39.9762C23.3481 39.9781 23.3534 39.9801 23.3587 39.982C23.3691 39.9859 23.3793 39.9898 23.3896 39.9937C23.4171 40.0042 23.4445 40.0151 23.4717 40.0263C23.5126 40.0431 23.5531 40.0607 23.5932 40.079C23.6151 40.0889 23.6368 40.0991 23.6584 40.1094C23.6657 40.1129 23.673 40.1165 23.6804 40.1201C23.7253 40.142 23.7697 40.1648 23.8136 40.1886C23.8249 40.1947 23.8361 40.2008 23.8473 40.207C23.8524 40.2098 23.8575 40.2127 23.8626 40.2156C23.872 40.2208 23.8814 40.2261 23.8907 40.2315C23.9004 40.237 23.91 40.2426 23.9196 40.2482C23.9263 40.2521 23.933 40.2561 23.9398 40.2601C23.9513 40.2669 23.9626 40.2738 23.974 40.2807C23.9775 40.2828 23.981 40.2849 23.9844 40.2871C23.9979 40.2953 24.0113 40.3037 24.0247 40.3121C24.0294 40.3151 24.0341 40.3181 24.0387 40.321C24.0472 40.3265 24.0557 40.3319 24.0642 40.3375C24.0727 40.343 24.0811 40.3485 24.0896 40.3541C24.0974 40.3593 24.1051 40.3644 24.1128 40.3696C24.1206 40.3749 24.1285 40.3802 24.1363 40.3856C24.1471 40.393 24.1579 40.4004 24.1686 40.4079C24.1986 40.429 24.2284 40.4505 24.2577 40.4725C24.2797 40.4889 24.3015 40.5056 24.3231 40.5225C24.3304 40.5282 24.3376 40.5339 24.3449 40.5397C24.3982 40.5821 24.4503 40.626 24.5011 40.6713C24.5071 40.6767 24.5132 40.6822 24.5193 40.6876C24.5307 40.6979 24.5419 40.7082 24.5531 40.7186C24.5569 40.7221 24.5607 40.7257 24.5645 40.7292C24.5694 40.7338 24.5743 40.7384 24.5791 40.743C24.5888 40.7522 24.5985 40.7614 24.6081 40.7707C24.6131 40.7755 24.618 40.7803 24.6229 40.785C24.6288 40.7908 24.6347 40.7967 24.6407 40.8026L24.6517 40.8136C24.6549 40.8168 24.658 40.8199 24.6612 40.8231C24.6825 40.8446 24.7036 40.8663 24.7244 40.8884L24.7289 40.8932C24.7459 40.9112 24.7627 40.9295 24.7793 40.9478C24.7931 40.9632 24.8068 40.9786 24.8204 40.9942C24.8402 41.0168 24.8597 41.0398 24.8789 41.0629C24.8841 41.0692 24.8893 41.0755 24.8944 41.0818C24.9019 41.0909 24.9094 41.1002 24.9169 41.1095C24.9352 41.1323 24.9531 41.1553 24.9709 41.1785C24.9763 41.1857 24.9818 41.1929 24.9873 41.2002C24.992 41.2064 24.9967 41.2127 25.0013 41.219C25.0088 41.2291 25.0163 41.2393 25.0236 41.2494C25.0276 41.2549 25.0316 41.2604 25.0356 41.2659C25.0431 41.2765 25.0507 41.2872 25.0582 41.2979C25.0618 41.3031 25.0655 41.3083 25.0691 41.3135C25.0757 41.3231 25.0823 41.3327 25.0888 41.3423C25.0936 41.3494 25.0985 41.3566 25.1032 41.3638C25.1393 41.4178 25.1739 41.4727 25.2071 41.5287L25.226 41.561ZM7.47107 35.9143C8.12056 35.5393 8.43285 34.8046 8.30156 34.1071C8.30069 34.1021 8.29971 34.097 8.29871 34.0919L8.30156 34.1071C8.29627 34.079 8.29025 34.0509 8.2835 34.0229C8.25431 33.9019 8.21165 33.7831 8.1554 33.6686C8.15277 33.6632 8.15005 33.6578 8.14731 33.6523L8.1554 33.6686C8.14941 33.6564 8.14326 33.6443 8.13696 33.6322L8.14731 33.6523C8.13956 33.637 8.13157 33.6217 8.12331 33.6065L8.10042 33.5656C8.07699 33.525 8.0521 33.4856 8.02584 33.4476C8.02192 33.4419 8.01797 33.4362 8.01399 33.4306L8.02584 33.4476C8.0173 33.4352 8.00862 33.4229 7.9998 33.4108L8.01399 33.4306C8.00478 33.4175 7.99541 33.4047 7.98588 33.392L7.9998 33.4108C7.98959 33.3968 7.97919 33.383 7.96861 33.3694L7.98588 33.392C7.97765 33.381 7.96931 33.3702 7.96086 33.3594L7.96861 33.3694C7.9587 33.3566 7.94862 33.344 7.93839 33.3315L7.96086 33.3594C7.95134 33.3473 7.94169 33.3354 7.9319 33.3237L7.93839 33.3315C7.92037 33.3096 7.90186 33.2882 7.88288 33.2673C7.35065 32.6817 6.46495 32.5244 5.75166 32.9362C4.92928 33.411 4.64752 34.4626 5.12232 35.285C5.59712 36.1073 6.64869 36.3891 7.47107 35.9143ZM39.0748 35.285C39.5496 34.4626 39.2678 33.411 38.4454 32.9362C37.7936 32.5599 36.9978 32.6588 36.4593 33.1256C36.4481 33.1352 36.4371 33.145 36.4261 33.155L36.3938 33.1854C36.376 33.2025 36.3586 33.2201 36.3414 33.2381C36.3373 33.2424 36.3331 33.2468 36.3291 33.2512L36.3414 33.2381C36.3324 33.2476 36.3234 33.2572 36.3145 33.267L36.3291 33.2512C36.3192 33.2618 36.3094 33.2725 36.2998 33.2834L36.3145 33.267C36.3042 33.2784 36.294 33.2899 36.2839 33.3015L36.2998 33.2834C36.2895 33.295 36.2794 33.3067 36.2694 33.3186L36.2839 33.3015C36.274 33.3131 36.2641 33.3248 36.2544 33.3367L36.2694 33.3186C36.2386 33.3553 36.2093 33.3935 36.1814 33.4331C36.1781 33.4377 36.1749 33.4423 36.1717 33.447L36.1814 33.4331C36.1514 33.4756 36.1231 33.5198 36.0967 33.5656C36.0888 33.5792 36.0811 33.593 36.0736 33.6068C36.0708 33.612 36.068 33.6172 36.0652 33.6225L36.0736 33.6068C36.0653 33.6221 36.0573 33.6375 36.0495 33.653L36.0652 33.6225C36.0575 33.6371 36.05 33.6518 36.0427 33.6665L36.0495 33.653C36.0429 33.6659 36.0366 33.6789 36.0304 33.692L36.0427 33.6665C36.0351 33.6819 36.0278 33.6974 36.0206 33.713L36.0304 33.692C36.0154 33.7237 36.0014 33.7558 35.9885 33.7882C35.9866 33.7929 35.9848 33.7975 35.9829 33.8021L35.9885 33.7882C35.9634 33.8509 35.9422 33.9145 35.9248 33.9789C35.9227 33.9868 35.9206 33.9948 35.9186 34.0027L35.9248 33.9789C35.9209 33.9935 35.9171 34.0081 35.9136 34.0228L35.9186 34.0027C35.915 34.0168 35.9116 34.031 35.9084 34.0452L35.9136 34.0228C35.9096 34.0393 35.9058 34.0559 35.9023 34.0725L35.9084 34.0452C35.9049 34.0604 35.9017 34.0756 35.8987 34.0909L35.9023 34.0725C35.8995 34.0859 35.8969 34.0992 35.8944 34.1126L35.8987 34.0909C35.7594 34.7932 36.0715 35.5364 36.726 35.9143C37.5484 36.3891 38.6 36.1073 39.0748 35.285ZM22.0985 45.0862C23.0481 45.0862 23.818 44.3164 23.818 43.3668C23.818 42.6398 23.3668 42.0182 22.7292 41.7667C22.7245 41.7647 22.7198 41.7629 22.7151 41.7611L22.7292 41.7667C22.7174 41.7621 22.7056 41.7576 22.6937 41.7532L22.7151 41.7611C22.7012 41.7558 22.6872 41.7506 22.6731 41.7456L22.6937 41.7532C22.6804 41.7483 22.6671 41.7435 22.6536 41.739L22.6731 41.7456C22.659 41.7406 22.6448 41.7358 22.6306 41.7312L22.6536 41.739C22.6388 41.7339 22.6238 41.729 22.6088 41.7243L22.6306 41.7312C22.6159 41.7264 22.601 41.7218 22.5862 41.7175L22.6088 41.7243C22.5957 41.7203 22.5826 41.7164 22.5695 41.7127L22.5862 41.7175C22.5719 41.7133 22.5576 41.7092 22.5431 41.7054L22.5695 41.7127C22.554 41.7083 22.5383 41.7041 22.5226 41.7001L22.5431 41.7054C22.5082 41.6961 22.4729 41.6879 22.4372 41.6807C22.4297 41.6792 22.4221 41.6778 22.4146 41.6764L22.4372 41.6807C22.4236 41.678 22.41 41.6755 22.3963 41.6731L22.4146 41.6764C22.3992 41.6735 22.3836 41.6708 22.368 41.6684L22.3963 41.6731C22.3799 41.6702 22.3633 41.6676 22.3467 41.6652L22.368 41.6684C22.3571 41.6667 22.3462 41.665 22.3352 41.6635L22.3467 41.6652C22.3296 41.6627 22.3125 41.6605 22.2953 41.6585L22.3352 41.6635C22.3201 41.6614 22.3049 41.6596 22.2897 41.6579L22.2953 41.6585C22.2809 41.6569 22.2664 41.6554 22.2519 41.6541L22.2897 41.6579C22.2733 41.6561 22.2568 41.6545 22.2403 41.6531L22.2519 41.6541C22.2357 41.6527 22.2195 41.6515 22.2032 41.6505L22.2403 41.6531C22.2246 41.6519 22.2089 41.6508 22.1931 41.6499L22.2032 41.6505C22.1879 41.6496 22.1725 41.6489 22.1571 41.6484L22.1931 41.6499C22.1618 41.6482 22.1303 41.6474 22.0985 41.6474L22.0518 41.648C22.0479 41.6481 22.044 41.6482 22.0401 41.6484L22.0517 41.648C22.0358 41.6484 22.0199 41.6491 22.0041 41.6499L22.0401 41.6484C22.0246 41.6489 22.0092 41.6496 21.9939 41.6505L22.0041 41.6499C21.9883 41.6508 21.9725 41.6519 21.9568 41.6532L21.9939 41.6505C21.9776 41.6515 21.9614 41.6527 21.9452 41.6541L21.9568 41.6532C21.9403 41.6545 21.9238 41.6561 21.9074 41.6579L21.9452 41.6541C21.9307 41.6554 21.9162 41.6569 21.9018 41.6585L21.9074 41.6579C21.892 41.6596 21.8766 41.6615 21.8612 41.6636L21.9018 41.6585C21.885 41.6604 21.8683 41.6626 21.8517 41.665L21.8612 41.6636C21.85 41.6652 21.8387 41.6669 21.8275 41.6686L21.8517 41.665C21.8346 41.6674 21.8176 41.6701 21.8006 41.6731L21.8275 41.6686C21.8139 41.6708 21.8003 41.6731 21.7867 41.6756L21.8006 41.6731C21.7866 41.6755 21.7727 41.6782 21.7588 41.6809L21.7867 41.6756C21.7485 41.6826 21.7106 41.6909 21.6731 41.7004C21.6676 41.7018 21.6621 41.7033 21.6566 41.7047L21.6731 41.7004C21.6577 41.7043 21.6424 41.7084 21.6272 41.7128L21.6566 41.7047C21.6424 41.7085 21.6282 41.7124 21.6142 41.7166L21.6272 41.7128C21.6135 41.7167 21.5998 41.7207 21.5862 41.725L21.6142 41.7166C21.5985 41.7211 21.583 41.7259 21.5675 41.7309L21.5862 41.725C21.5719 41.7294 21.5577 41.734 21.5435 41.7388L21.5675 41.7309C21.5529 41.7357 21.5384 41.7406 21.5239 41.7457L21.5435 41.7388C21.5301 41.7434 21.5167 41.7482 21.5034 41.7531L21.5239 41.7457C21.5097 41.7508 21.4955 41.756 21.4814 41.7614L21.5034 41.7531C21.492 41.7573 21.4806 41.7616 21.4693 41.766L21.4814 41.7614C20.8367 42.0095 20.3791 42.6347 20.3791 43.3668C20.3791 44.3164 21.1489 45.0862 22.0985 45.0862Z" fill="#376FFF"/>
<path fill-rule="evenodd" clip-rule="evenodd" d="M108.558 13.1901C115.905 13.1901 121.177 18.6586 121.177 25.418V25.4858C121.177 32.2452 115.837 37.7816 108.49 37.7816C101.144 37.7816 95.8716 32.3131 95.8716 25.5538V25.4858C95.8716 18.7266 101.212 13.1901 108.558 13.1901ZM61.982 13.2694C65.4434 13.2694 68.3959 14.3553 70.8054 16.2896L68.0905 20.226C65.9864 18.7669 63.9163 17.8845 61.9141 17.8845C59.9119 17.8845 58.8599 18.8007 58.8599 19.9545V20.0224C58.8599 21.5834 59.8779 22.0923 63.9842 23.1443C68.8032 24.4 71.5181 26.1307 71.5181 30.2706V30.3385C71.5181 35.0555 67.9208 37.7023 62.7964 37.7023C59.1992 37.7023 55.568 36.4468 52.7174 33.9016L55.8056 30.2027C57.9435 31.9674 60.1834 33.0873 62.8982 33.0873C65.0362 33.0873 66.3258 32.2388 66.3258 30.8475V30.7797C66.3258 29.4563 65.5113 28.7776 61.5408 27.7595C56.7558 26.5378 53.6676 25.2144 53.6676 20.4974V20.4295C53.6676 16.1199 57.1291 13.2694 61.982 13.2694ZM164.966 13.5867V29.1429C164.966 34.9171 161.573 37.7023 156.552 37.7023C152.854 37.7023 150.412 36.0719 148.783 34.136L152.074 30.4676C153.431 31.9621 154.754 32.8453 156.417 32.8453C158.384 32.8453 159.606 31.6564 159.606 28.9052V18.9016L151.798 18.9017V13.5867H164.966ZM93.7297 13.5867V18.4143H86.5049V37.3851H81.2813V18.4143H74.0565V13.5867H93.7297ZM136.487 13.5867C142.09 13.5867 145.452 16.5445 145.452 21.4401V21.5081C145.452 25.3498 143.381 27.7637 140.358 28.8856L146.165 37.3851H140.053L134.958 29.7696H130.849V37.3851H125.62V13.5867H136.487ZM108.49 18.029C104.271 18.029 101.345 21.3507 101.345 25.4181V25.4858C101.345 29.5532 104.339 32.9427 108.558 32.9427C112.777 32.9427 115.704 29.6209 115.704 25.5536V25.4858C115.704 21.4185 112.709 18.029 108.49 18.029ZM136.038 18.3463H130.855V25.1685H136.139C138.68 25.1685 140.136 23.8109 140.136 21.8084V21.7405C140.136 19.5003 138.578 18.3463 136.038 18.3463Z" fill="#091C45"/>
</svg>
