<svg width="168" height="51" viewBox="0 0 168 51" fill="none" xmlns="http://www.w3.org/2000/svg">
<path d="M22.0985 47.9675C20.1378 47.9675 18.5421 46.4047 18.4892 44.4567L8.3292 38.5912C7.80085 38.8773 7.23087 39.0181 6.66643 39.0262L6.6106 39.0266C5.36417 39.0252 4.15241 38.3777 3.48436 37.2206C2.50401 35.5226 3.05958 33.3593 4.72001 32.3395V20.608C3.05958 19.5881 2.50401 17.4248 3.48436 15.7268C4.14244 14.587 5.32812 13.9417 6.55481 13.9213L6.6106 13.9208C7.19323 13.9202 7.78342 14.0607 8.32921 14.3562L18.4892 8.49058C18.5416 6.5625 20.1056 5.01174 22.0388 4.98039L22.0985 4.97991C24.0592 4.97991 25.6549 6.54268 25.7079 8.49055L35.8676 14.3564C36.396 14.0701 36.9661 13.9293 37.5307 13.9212L37.5865 13.9208C38.8329 13.9223 40.0447 14.5697 40.7127 15.7268C41.6931 17.4248 41.1375 19.5881 39.4771 20.608V32.3395C41.1375 33.3593 41.6931 35.5226 40.7127 37.2206C40.0547 38.3604 38.869 39.0057 37.6423 39.0261L37.5865 39.0266C37.0039 39.0273 36.4137 38.8868 35.8679 38.5912L25.7079 44.4569C25.6555 46.3849 24.0915 47.9357 22.1583 47.967L22.0985 47.9675ZM22.0985 10.3101L22.1453 10.3094C22.1492 10.3093 22.1531 10.3092 22.157 10.3091L22.1453 10.3094C22.161 10.309 22.1765 10.3084 22.192 10.3076L22.157 10.3091C22.1741 10.3085 22.1911 10.3077 22.208 10.3066L22.192 10.3076C22.2079 10.3067 22.2237 10.3056 22.2394 10.3044L22.208 10.3066C22.2235 10.3057 22.239 10.3045 22.2543 10.3031L22.2394 10.3044C22.2534 10.3032 22.2673 10.3019 22.2812 10.3005L22.2543 10.3031C22.2713 10.3016 22.2882 10.2998 22.305 10.2978L22.2812 10.3005C22.2968 10.2988 22.3125 10.2969 22.3281 10.2949L22.305 10.2978C22.3193 10.2961 22.3335 10.2942 22.3476 10.2922L22.3281 10.2949C22.3457 10.2925 22.3632 10.2899 22.3807 10.287L22.3476 10.2922C22.362 10.2901 22.3762 10.2878 22.3904 10.2854L22.3807 10.287C22.3955 10.2846 22.4103 10.2819 22.4251 10.2791L22.3904 10.2854C22.4061 10.2827 22.4217 10.2798 22.4372 10.2767L22.4251 10.2791C22.444 10.2754 22.4629 10.2715 22.4817 10.2672L22.4372 10.2767C22.4729 10.2696 22.5083 10.2613 22.5432 10.252C22.552 10.2497 22.5607 10.2473 22.5695 10.2448L22.5432 10.252C22.5576 10.2482 22.5719 10.2441 22.5862 10.2399L22.5695 10.2448C22.5823 10.2412 22.595 10.2374 22.6077 10.2335L22.5862 10.2399C23.2983 10.0297 23.818 9.37088 23.818 8.59066C23.818 7.64106 23.0481 6.87125 22.0985 6.87125C21.1489 6.87125 20.3791 7.64106 20.3791 8.59066C20.3791 9.36238 20.8876 10.0154 21.5877 10.2329C21.5964 10.2357 21.6053 10.2383 21.6141 10.2409L21.5877 10.2329C21.6008 10.237 21.614 10.2409 21.6272 10.2447L21.6141 10.2409C21.6282 10.245 21.6424 10.249 21.6566 10.2527L21.6272 10.2447C21.6424 10.249 21.6577 10.2531 21.6731 10.257L21.6566 10.2527C21.6903 10.2617 21.7244 10.2696 21.7588 10.2765C21.7643 10.2776 21.7698 10.2787 21.7752 10.2797L21.7588 10.2765C21.7748 10.2797 21.7909 10.2827 21.807 10.2854L21.7752 10.2797C21.7885 10.2822 21.8018 10.2846 21.8151 10.2868L21.807 10.2854C21.8214 10.2879 21.8359 10.2902 21.8504 10.2923L21.8151 10.2868C21.8328 10.2898 21.8506 10.2924 21.8685 10.2948L21.8504 10.2923C21.8642 10.2943 21.8781 10.2961 21.892 10.2978L21.8685 10.2948C21.8843 10.2969 21.9001 10.2988 21.916 10.3005L21.892 10.2978C21.9089 10.2998 21.9258 10.3016 21.9427 10.3031L21.916 10.3005C21.9298 10.302 21.9437 10.3032 21.9577 10.3044L21.9427 10.3031C21.9582 10.3045 21.9736 10.3057 21.9891 10.3066L21.9577 10.3044C21.9734 10.3057 21.9892 10.3067 22.005 10.3076L21.9891 10.3066C22.006 10.3077 22.023 10.3085 22.04 10.3091L22.005 10.3076C22.036 10.3092 22.0672 10.3101 22.0985 10.3101ZM27.6879 22.1105L34.0843 18.4176C34.0797 18.3996 34.0753 18.3816 34.071 18.3636C34.0697 18.3581 34.0684 18.3524 34.0671 18.3468C34.0642 18.3344 34.0614 18.3221 34.0587 18.3098C34.0567 18.3008 34.0548 18.2917 34.0528 18.2826C34.0506 18.2721 34.0484 18.2615 34.0462 18.2509C34.044 18.2397 34.0417 18.2286 34.0396 18.2174C34.0334 18.1854 34.0276 18.1533 34.0223 18.1211C34.021 18.113 34.0197 18.1048 34.0184 18.0966C34.006 18.018 33.9962 17.9394 33.9891 17.8607C33.9883 17.8518 33.9875 17.843 33.9868 17.8341C33.984 17.8008 33.9817 17.7675 33.9799 17.7342C33.9797 17.7314 33.9795 17.7285 33.9794 17.7257L33.9799 17.7342C33.9789 17.717 33.9781 17.6998 33.9774 17.6827C33.977 17.6723 33.9766 17.6619 33.9762 17.6515C33.9759 17.64 33.9756 17.6286 33.9753 17.6172C33.9751 17.6085 33.9749 17.5998 33.9748 17.591C33.9747 17.5824 33.9746 17.5737 33.9745 17.5651C33.9744 17.5572 33.9744 17.5493 33.9744 17.5414L33.9745 17.5651C33.9729 17.3728 33.9867 17.1811 34.0155 16.9921C34.0202 16.9606 34.0254 16.9293 34.031 16.898C34.0335 16.8843 34.036 16.8707 34.0386 16.8571C34.0441 16.8282 34.05 16.7994 34.0562 16.7707C34.0584 16.7603 34.0607 16.7499 34.063 16.7396C34.0647 16.7321 34.0664 16.7247 34.0681 16.7173C34.0697 16.7103 34.0714 16.7033 34.073 16.6963C34.0762 16.683 34.0794 16.6698 34.0827 16.6566C34.0926 16.6172 34.1031 16.5779 34.1143 16.5388C34.1223 16.5108 34.1307 16.4828 34.1394 16.455C34.1423 16.4455 34.1453 16.4361 34.1483 16.4267C34.1508 16.419 34.1533 16.4113 34.1558 16.4036C34.1588 16.3946 34.1618 16.3857 34.1648 16.3767C34.1689 16.3645 34.1731 16.3524 34.1773 16.3403C34.1794 16.3344 34.1814 16.3285 34.1836 16.3225C34.1878 16.3107 34.192 16.2989 34.1963 16.2872C34.1972 16.2847 34.1982 16.2822 34.1991 16.2796C34.2047 16.2644 34.2104 16.2494 34.2162 16.2344C34.2297 16.1991 34.2438 16.164 34.2585 16.1291C34.2702 16.1012 34.2823 16.0735 34.2947 16.046C34.2989 16.0367 34.3032 16.0273 34.3075 16.018C34.3103 16.012 34.313 16.006 34.3158 16.0001C34.3217 15.9875 34.3277 15.9749 34.3337 15.9623C34.3379 15.9536 34.3421 15.9449 34.3464 15.9362C34.3503 15.9283 34.3542 15.9204 34.3582 15.9125C34.3633 15.9022 34.3686 15.8919 34.3738 15.8817C34.3771 15.8753 34.3804 15.8689 34.3837 15.8625C34.3892 15.8519 34.3948 15.8414 34.4003 15.8309C34.4035 15.825 34.4067 15.8191 34.4098 15.8132C34.4255 15.7841 34.4416 15.7553 34.4582 15.7266L25.2261 10.3963C25.2243 10.3995 25.2224 10.4026 25.2206 10.4058C25.2035 10.4351 25.1861 10.464 25.1683 10.4927C25.1653 10.4976 25.1622 10.5025 25.1592 10.5073C25.1524 10.5181 25.1455 10.5289 25.1386 10.5397C25.1341 10.5467 25.1297 10.5536 25.1252 10.5605C25.1196 10.5691 25.1139 10.5777 25.1081 10.5863C25.1029 10.5942 25.0977 10.6019 25.0925 10.6097C25.0891 10.6147 25.0856 10.6198 25.0822 10.6249C25.0262 10.7068 24.967 10.7862 24.9047 10.863C24.8866 10.8854 24.8681 10.9077 24.8494 10.9297C24.832 10.9501 24.8144 10.9704 24.7965 10.9904C24.788 10.9999 24.7795 11.0094 24.771 11.0188C24.7662 11.024 24.7614 11.0293 24.7566 11.0345C24.7516 11.0399 24.7467 11.0453 24.7417 11.0506C24.7211 11.0728 24.7001 11.0947 24.679 11.1163C24.6124 11.1843 24.5432 11.2497 24.4715 11.3123L24.465 11.3179C24.4419 11.3379 24.4186 11.3577 24.395 11.3772C24.3911 11.3803 24.3874 11.3834 24.3836 11.3865C24.3748 11.3937 24.3659 11.401 24.3569 11.4081C24.3489 11.4146 24.3408 11.421 24.3327 11.4274C24.3283 11.4309 24.3239 11.4344 24.3194 11.4379C24.2903 11.4606 24.2608 11.4829 24.2309 11.5048C24.2291 11.5062 24.2274 11.5074 24.2256 11.5087C24.2166 11.5153 24.2075 11.5219 24.1984 11.5284C24.1766 11.544 24.1547 11.5593 24.1326 11.5744L24.1233 11.5807C24.0614 11.6227 23.998 11.6629 23.9334 11.7011C23.9271 11.7048 23.9208 11.7085 23.9145 11.7122C23.8882 11.7275 23.8617 11.7425 23.835 11.7572C23.8242 11.7631 23.8135 11.769 23.8027 11.7748C23.7964 11.7782 23.79 11.7815 23.7836 11.7849C23.7763 11.7888 23.7689 11.7927 23.7615 11.7965C23.7489 11.8031 23.7362 11.8096 23.7235 11.816C23.7184 11.8185 23.7133 11.8211 23.7081 11.8237C23.6789 11.8383 23.6496 11.8524 23.62 11.8662C23.6132 11.8693 23.6063 11.8725 23.5995 11.8756C23.5691 11.8895 23.5387 11.903 23.508 11.916C23.4777 11.9288 23.4472 11.9413 23.4165 11.9533C23.3883 11.9644 23.36 11.9751 23.3315 11.9854C23.3247 11.9879 23.3179 11.9904 23.3111 11.9928C23.2979 11.9975 23.2845 12.0022 23.2712 12.0067C23.2679 12.0079 23.2647 12.009 23.2614 12.0101C23.2468 12.015 23.2321 12.0199 23.2173 12.0247C23.2118 12.0266 23.2062 12.0283 23.2007 12.0301C23.1858 12.0349 23.1709 12.0395 23.156 12.0441C23.1526 12.0452 23.1492 12.0462 23.1458 12.0472C23.1335 12.0509 23.121 12.0546 23.1086 12.0582C23.0979 12.0613 23.0873 12.0644 23.0766 12.0674C23.0739 12.0681 23.0712 12.0689 23.0685 12.0696L23.0686 19.0234C25.0441 19.2676 26.7406 20.4446 27.6879 22.1105ZM16.8381 22.2571C17.7219 20.5972 19.3202 19.4214 21.1773 19.079L21.1773 12.0828C21.1565 12.0774 21.1358 12.0717 21.1151 12.0659C21.106 12.0633 21.0969 12.0607 21.0878 12.058C21.0181 12.0378 20.9492 12.0154 20.8813 11.9911C20.8753 11.9889 20.8692 11.9868 20.8632 11.9846C20.8499 11.9797 20.8366 11.9748 20.8234 11.9698C20.8188 11.9681 20.8141 11.9663 20.8094 11.9645C20.7968 11.9597 20.7843 11.9548 20.7718 11.9499C20.7654 11.9473 20.759 11.9448 20.7526 11.9422C20.7383 11.9365 20.7241 11.9306 20.7099 11.9247C20.7059 11.9231 20.7019 11.9214 20.6979 11.9197C20.6662 11.9064 20.6348 11.8926 20.6037 11.8784C20.5951 11.8745 20.5867 11.8706 20.5783 11.8667C20.5532 11.8551 20.5283 11.8431 20.5035 11.8309C20.4881 11.8233 20.4728 11.8156 20.4576 11.8078C20.4485 11.8032 20.4394 11.7985 20.4303 11.7938C20.4265 11.7918 20.4228 11.7898 20.419 11.7878C20.4047 11.7803 20.3903 11.7726 20.3761 11.7649C20.371 11.7621 20.3659 11.7593 20.3607 11.7565C20.352 11.7517 20.3433 11.7468 20.3346 11.742C20.3071 11.7265 20.2798 11.7107 20.2527 11.6946C20.2468 11.6911 20.241 11.6876 20.2351 11.6841C20.2239 11.6773 20.2127 11.6704 20.2015 11.6635C20.1945 11.6592 20.1875 11.6548 20.1806 11.6505C20.1737 11.6461 20.1667 11.6417 20.1598 11.6373C20.1518 11.6322 20.1438 11.6271 20.1359 11.622C20.1106 11.6055 20.0854 11.5887 20.0604 11.5715C20.0516 11.5656 20.0428 11.5595 20.0341 11.5534C19.9895 11.5222 19.9456 11.4901 19.9025 11.457C19.8941 11.4506 19.8858 11.4442 19.8775 11.4377L19.8708 11.4325C19.8358 11.405 19.8013 11.3768 19.7674 11.3481C19.7589 11.341 19.7506 11.3339 19.7423 11.3267C19.7337 11.3193 19.7251 11.3118 19.7165 11.3043C19.7106 11.2991 19.7047 11.2939 19.6989 11.2887C19.6941 11.2844 19.6894 11.2802 19.6847 11.276C19.6166 11.2147 19.5508 11.1509 19.4876 11.0847C19.4818 11.0787 19.476 11.0726 19.4703 11.0665C19.4442 11.0388 19.4186 11.0108 19.3934 10.9823L19.3919 10.9805C19.3476 10.9304 19.3047 10.879 19.2632 10.8265C19.2569 10.8186 19.2507 10.8107 19.2445 10.8028C19.2389 10.7954 19.2332 10.788 19.2275 10.7806C19.2215 10.7728 19.2156 10.765 19.2097 10.7572C19.2054 10.7513 19.2011 10.7455 19.1968 10.7397C19.189 10.7294 19.1814 10.7189 19.1737 10.7084C19.1691 10.702 19.1645 10.6956 19.1599 10.6891C19.1539 10.6808 19.148 10.6724 19.1421 10.6641C19.137 10.6568 19.132 10.6496 19.1269 10.6423C19.1202 10.6326 19.1137 10.6231 19.1071 10.6134C19.1026 10.6067 19.0981 10.6 19.0936 10.5932C19.0549 10.5353 19.0178 10.4762 18.9825 10.416L18.9711 10.3963L9.73888 15.7265C9.75839 15.7604 9.77695 15.7938 9.79497 15.8276C9.80118 15.8392 9.8073 15.8508 9.81337 15.8625C9.81792 15.8712 9.82242 15.8799 9.82688 15.8887C9.8295 15.8938 9.83212 15.899 9.83472 15.9042C9.85072 15.9359 9.86626 15.9679 9.88132 16.0001C9.88411 16.0061 9.88686 16.012 9.8896 16.018C9.8949 16.0295 9.90014 16.041 9.90532 16.0525C9.90775 16.058 9.91016 16.0634 9.91255 16.0688C9.91786 16.0808 9.92311 16.0928 9.92829 16.1049C9.94998 16.1554 9.97049 16.2064 9.98982 16.2577C10.0083 16.3069 10.0258 16.3564 10.0422 16.4064C10.0442 16.4125 10.0462 16.4187 10.0482 16.425C10.0725 16.5006 10.0944 16.577 10.1137 16.6541C10.1159 16.6628 10.1181 16.6716 10.1202 16.6804C10.1275 16.7104 10.1344 16.7404 10.1409 16.7705C10.1425 16.7779 10.144 16.7851 10.1456 16.7924C10.1485 16.8064 10.1514 16.8205 10.1542 16.8346C10.1554 16.8412 10.1567 16.8477 10.1579 16.8542C10.1679 16.9062 10.1767 16.9584 10.1844 17.0108C10.1872 17.0295 10.1898 17.0481 10.1922 17.0668C10.1955 17.0918 10.1985 17.1167 10.2012 17.1417C10.2069 17.1942 10.2115 17.2468 10.215 17.2995C10.2157 17.3099 10.2163 17.3204 10.2169 17.3308C10.2174 17.3388 10.2178 17.3469 10.2182 17.355C10.2199 17.3889 10.2211 17.4229 10.2219 17.457C10.2227 17.493 10.2229 17.5291 10.2226 17.5652C10.2225 17.5738 10.2224 17.5825 10.2223 17.5912C10.2222 17.5976 10.2221 17.604 10.2219 17.6104C10.2212 17.6449 10.22 17.6796 10.2183 17.7142C10.2177 17.7265 10.217 17.7388 10.2163 17.7512C10.2158 17.7596 10.2152 17.768 10.2147 17.7764C10.2142 17.7832 10.2137 17.79 10.2132 17.7968C10.2103 17.8366 10.2068 17.8764 10.2026 17.9162C10.2025 17.9168 10.2024 17.9174 10.2024 17.918L10.2026 17.9162C10.1938 17.9981 10.1823 18.0799 10.1678 18.1616C10.1664 18.1695 10.165 18.1774 10.1636 18.1853C10.1617 18.1954 10.1598 18.2054 10.1579 18.2155C10.1521 18.2454 10.1459 18.2753 10.1394 18.3052C10.1339 18.3301 10.1282 18.355 10.1222 18.3798L16.8381 22.2571ZM38.4454 19.0212C39.2678 18.5464 39.5496 17.4949 39.0748 16.6725C38.6 15.8501 37.5484 15.5683 36.726 16.0431C36.0778 16.4174 35.7654 17.15 35.8948 17.8463C35.896 17.8531 35.8973 17.8599 35.8986 17.8667L35.8948 17.8463C35.8972 17.8592 35.8997 17.8721 35.9024 17.8849L35.8986 17.8667C35.9019 17.8832 35.9054 17.8997 35.9092 17.9162L35.9024 17.8849C35.9061 17.9023 35.91 17.9196 35.9142 17.9369L35.9092 17.9162C35.9123 17.9298 35.9156 17.9433 35.9191 17.9569L35.9142 17.9369C35.9178 17.9517 35.9215 17.9664 35.9255 17.9811L35.9191 17.9569C35.9232 17.9729 35.9276 17.989 35.9322 18.005L35.9255 17.9811C35.9292 17.9948 35.9331 18.0085 35.9372 18.0221L35.9322 18.005C35.9467 18.0556 35.9636 18.1057 35.9829 18.1552C35.9856 18.1622 35.9884 18.1691 35.9912 18.1761L35.9829 18.1552C35.989 18.1709 35.9954 18.1865 36.002 18.202L35.9912 18.1761C35.997 18.1903 36.003 18.2045 36.0091 18.2187L36.002 18.202C36.0075 18.2151 36.0132 18.2281 36.0191 18.241L36.0091 18.2187C36.0165 18.2355 36.0241 18.2522 36.032 18.2689L36.0191 18.241C36.0254 18.255 36.0319 18.2688 36.0387 18.2826L36.032 18.2689C36.0386 18.2826 36.0453 18.2963 36.0522 18.3099L36.0387 18.2826C36.0468 18.2994 36.0553 18.3161 36.064 18.3328L36.0522 18.3099C36.0621 18.3294 36.0725 18.3489 36.0833 18.3682L36.0967 18.3919C36.1202 18.4327 36.1452 18.4722 36.1716 18.5105C36.1754 18.5159 36.1792 18.5213 36.183 18.5267L36.1716 18.5105C36.1901 18.5372 36.2092 18.5632 36.2289 18.5887C36.2324 18.5932 36.2359 18.5976 36.2393 18.6019L36.2289 18.5887C36.237 18.599 36.2451 18.6093 36.2534 18.6194L36.2393 18.6019C36.2504 18.616 36.2618 18.6298 36.2733 18.6434L36.2534 18.6194C36.2627 18.6309 36.2722 18.6422 36.2818 18.6534L36.2733 18.6434C36.2819 18.6536 36.2906 18.6637 36.2995 18.6737L36.2818 18.6534C36.3048 18.6803 36.3286 18.7064 36.3532 18.7316C36.3708 18.7498 36.3889 18.7675 36.4073 18.7848C36.4243 18.8009 36.4416 18.8166 36.4592 18.8319C36.4688 18.8401 36.4783 18.8482 36.4879 18.8561L36.4592 18.8319C36.4706 18.8417 36.482 18.8514 36.4936 18.8609L36.4879 18.8561C37.0257 19.3019 37.8051 19.391 38.4454 19.0212ZM7.80325 18.7721L7.81711 18.7586C7.83466 18.7413 7.85186 18.7236 7.86871 18.7055C7.87106 18.703 7.87333 18.7006 7.8756 18.6981L7.86871 18.7055C7.87928 18.6942 7.88971 18.6827 7.9 18.671L7.8756 18.6981C7.88682 18.6859 7.8979 18.6735 7.90881 18.661L7.9 18.671C7.91068 18.6589 7.92122 18.6466 7.93158 18.6341L7.90881 18.661C7.91814 18.6502 7.92736 18.6393 7.93646 18.6283L7.93158 18.6341C7.94036 18.6236 7.94901 18.6129 7.95755 18.6022L7.93646 18.6283C7.94846 18.6137 7.96025 18.599 7.97182 18.584L7.95755 18.6022C7.96726 18.5899 7.97682 18.5775 7.98622 18.565L7.97182 18.584C7.98053 18.5727 7.9891 18.5613 7.99755 18.5497L7.98622 18.565C7.99534 18.5528 8.00431 18.5405 8.01314 18.528L7.99755 18.5497C8.00714 18.5366 8.01657 18.5233 8.02584 18.5099L8.01314 18.528C8.0441 18.4844 8.07324 18.439 8.10042 18.3919C8.10496 18.384 8.10943 18.3761 8.11383 18.3682L8.10042 18.3919C8.12062 18.3569 8.13946 18.3215 8.15694 18.2857C8.16121 18.277 8.16541 18.2682 8.16953 18.2594L8.15694 18.2857C8.1619 18.2756 8.16676 18.2654 8.1715 18.2552L8.16953 18.2594C8.17628 18.2449 8.18282 18.2304 8.18915 18.2159C8.19102 18.2116 8.19286 18.2073 8.19469 18.203L8.18915 18.2159C8.21684 18.1522 8.24045 18.0874 8.26002 18.0217C8.26123 18.0177 8.26241 18.0136 8.26358 18.0096L8.26002 18.0217C8.26444 18.0069 8.26866 17.992 8.27267 17.9771L8.26358 18.0096C8.26818 17.9937 8.27255 17.9778 8.27667 17.9619L8.27267 17.9771C8.27648 17.9629 8.28011 17.9487 8.28355 17.9345L8.27667 17.9619C8.28495 17.9299 8.29226 17.8977 8.29863 17.8655C8.29959 17.8611 8.30045 17.8566 8.3013 17.8522L8.29863 17.8655C8.43737 17.1636 8.12528 16.4209 7.47107 16.0431C6.64869 15.5683 5.59712 15.8501 5.12232 16.6725C4.64752 17.4949 4.92928 18.5464 5.75166 19.0212C6.43045 19.4131 7.26539 19.2896 7.80325 18.7721ZM9.12889 32.8256L13.2249 30.4607C12.5285 29.6032 12.1111 28.51 12.1111 27.3192C12.1111 25.5272 13.0563 23.956 14.4755 23.0771L9.21204 20.0382C9.1907 20.0604 9.16912 20.0823 9.1473 20.1038C9.10955 20.1411 9.0711 20.1774 9.03196 20.2127C8.87313 20.3562 8.70306 20.484 8.52414 20.5955C8.45447 20.6389 8.38346 20.6799 8.31127 20.7183L8.30904 20.7195C8.27625 20.7369 8.24321 20.7538 8.20993 20.7702C8.16206 20.7938 8.11376 20.8163 8.06503 20.8377C8.04865 20.8449 8.03224 20.8519 8.01578 20.8588C7.97848 20.8746 7.9409 20.8897 7.90308 20.9041C7.8788 20.9134 7.8545 20.9224 7.83012 20.9311C7.78445 20.9475 7.73844 20.9629 7.69215 20.9774C7.66391 20.9863 7.63558 20.9948 7.60715 21.0029C7.55715 21.0173 7.50683 21.0305 7.45625 21.0427C7.42618 21.05 7.39597 21.0568 7.36568 21.0633C7.3367 21.0695 7.3076 21.0754 7.27843 21.0809C7.27252 21.082 7.26669 21.0831 7.26085 21.0841C7.23885 21.0882 7.21675 21.092 7.1946 21.0956C7.16532 21.1004 7.13603 21.1049 7.10669 21.109C7.10354 21.1094 7.10044 21.1098 7.09735 21.1103C7.09126 21.1111 7.08509 21.1119 7.07892 21.1127C7.04462 21.1172 7.01028 21.1212 6.97587 21.1248C6.94265 21.1282 6.90945 21.1311 6.87621 21.1336C6.86847 21.1341 6.86073 21.1347 6.85299 21.1352C6.81924 21.1375 6.78542 21.1393 6.75157 21.1407C6.74469 21.141 6.73783 21.1412 6.73096 21.1415C6.70996 21.1422 6.68895 21.1427 6.66792 21.143L6.61213 21.1435L6.61136 21.1435V31.8039H6.61213C6.72379 31.804 6.83516 31.8093 6.94589 31.8197C6.96568 31.8216 6.98542 31.8236 7.00513 31.8258C7.05028 31.8308 7.09535 31.8366 7.14027 31.8433C7.17165 31.848 7.20292 31.853 7.23411 31.8585C7.27584 31.8658 7.31742 31.8739 7.35884 31.8827C7.39209 31.8897 7.42516 31.8972 7.45813 31.9052L7.51777 31.9201C7.62937 31.9491 7.73957 31.9833 7.84798 32.0228C7.87311 32.0319 7.89804 32.0413 7.92286 32.051C7.97464 32.0711 8.02553 32.0923 8.07594 32.1146C8.08454 32.1184 8.09322 32.1223 8.10188 32.1262C8.12265 32.1356 8.14325 32.1451 8.16375 32.1549C8.20266 32.1734 8.24127 32.1926 8.27955 32.2124C8.38641 32.268 8.4907 32.3289 8.59198 32.3953C8.61757 32.412 8.64296 32.4291 8.66814 32.4465C8.67842 32.4536 8.68871 32.4608 8.69895 32.4681C8.73075 32.4906 8.7622 32.5136 8.79331 32.5372C8.91029 32.6258 9.02241 32.722 9.12889 32.8256ZM35.0965 32.7987L35.1157 32.7802C35.1782 32.7216 35.2425 32.6655 35.3085 32.6119C35.4252 32.5171 35.5471 32.4303 35.6734 32.3517L35.6753 32.3505C35.7028 32.3333 35.7306 32.3166 35.7585 32.3002C35.7651 32.2964 35.7717 32.2925 35.7783 32.2887L35.7585 32.3002C35.8125 32.2686 35.8672 32.2385 35.9226 32.2098C36.0017 32.1689 36.0821 32.131 36.1637 32.0961C36.2861 32.0437 36.4112 31.9982 36.5385 31.9597C36.5472 31.957 36.556 31.9544 36.5647 31.9518C36.5931 31.9435 36.6217 31.9354 36.6503 31.9278C36.6971 31.9152 36.7442 31.9036 36.7914 31.8929C36.8025 31.8904 36.8137 31.888 36.8248 31.8856C36.8566 31.8787 36.8884 31.8723 36.9203 31.8663C36.9231 31.8657 36.9259 31.8652 36.9287 31.8647C36.9447 31.8617 36.9607 31.8589 36.9767 31.8561L36.9287 31.8647C36.9532 31.8602 36.9777 31.8559 37.0023 31.8518C37.0347 31.8465 37.0671 31.8416 37.0997 31.8372C37.1343 31.8325 37.1689 31.8282 37.2037 31.8245C37.2096 31.8239 37.2157 31.8232 37.2217 31.8226C37.2542 31.8193 37.2867 31.8164 37.3193 31.814C37.3275 31.8134 37.3358 31.8128 37.344 31.8122C37.3764 31.81 37.4087 31.8083 37.4411 31.8069C37.4495 31.8066 37.4579 31.8063 37.4663 31.806C37.4701 31.8059 37.4738 31.8057 37.4776 31.8056C37.5135 31.8045 37.5496 31.8039 37.5856 31.8039L37.5779 31.8041L37.585 31.8039L37.5856 31.8039V21.1435H37.585C37.5185 21.1435 37.4521 21.1416 37.3859 21.1378C37.3583 21.1363 37.3307 21.1344 37.3032 21.1322C37.2661 21.1293 37.229 21.1257 37.192 21.1217C37.1534 21.1174 37.1148 21.1125 37.0764 21.107C37.0503 21.1033 37.0243 21.0993 36.9984 21.095C36.9671 21.0898 36.9358 21.0842 36.9047 21.0782C36.8748 21.0725 36.8451 21.0663 36.8154 21.0598C36.7303 21.0412 36.6459 21.0196 36.5624 20.9949C36.4654 20.9662 36.37 20.9337 36.2761 20.8972C36.2423 20.8841 36.2087 20.8704 36.1752 20.8563C36.1646 20.8518 36.1539 20.8472 36.1433 20.8426C36.0987 20.8232 36.0546 20.8029 36.0108 20.7818C35.988 20.7707 35.9652 20.7594 35.9426 20.7479C35.8722 20.712 35.8029 20.6738 35.7348 20.6332C35.7142 20.6209 35.6936 20.6084 35.6731 20.5956L35.6215 20.5628C35.6043 20.5517 35.5871 20.5404 35.5701 20.529C35.3707 20.395 35.1836 20.2404 35.012 20.0659L28.4959 23.8278C30.5706 24.0884 32.1805 25.8425 32.2152 27.9796L32.2157 28.0499C32.2157 29.0208 31.8906 29.9158 31.3433 30.6318L35.0965 32.7987ZM21.8761 30.4141L27.9602 30.4141C29.2659 30.4141 30.3244 29.3556 30.3244 28.0499C30.3244 26.7442 29.2659 25.6858 27.9602 25.6858L26.6576 25.6857L26.5877 24.8159C26.409 22.594 24.547 20.8677 22.3032 20.8677C20.5108 20.8677 18.9258 21.9748 18.2912 23.6191L18.0577 24.2243L17.0973 24.2243C15.3881 24.2243 14.0024 25.6099 14.0024 27.3192C14.0024 29.0285 15.3881 30.4141 17.0973 30.4141H21.7199C21.741 30.4141 21.7615 30.4139 21.7816 30.4135L21.8019 30.4131L21.8491 30.414L21.8761 30.4141ZM18.9711 42.551L18.9814 42.5334C18.9963 42.5078 19.0116 42.4824 19.0272 42.4573C19.032 42.4495 19.0369 42.4418 19.0417 42.4341C19.0461 42.4272 19.0504 42.4203 19.0549 42.4134C19.0602 42.405 19.0656 42.3967 19.071 42.3883C19.1175 42.317 19.1664 42.2475 19.2176 42.1798C19.2428 42.1465 19.2685 42.1137 19.2948 42.0814C19.3372 42.0293 19.381 41.9783 19.4261 41.9286C19.4303 41.9241 19.4344 41.9195 19.4386 41.915C19.4469 41.9059 19.4554 41.8968 19.4638 41.8878C19.4683 41.883 19.4728 41.8783 19.4772 41.8736C19.4859 41.8644 19.4946 41.8553 19.5034 41.8462C19.5808 41.7663 19.6617 41.69 19.7461 41.6175C19.784 41.5849 19.8226 41.553 19.8619 41.522C19.8671 41.5179 19.8723 41.5138 19.8776 41.5097C19.887 41.5024 19.8963 41.4951 19.9057 41.4879C19.9141 41.4815 19.9226 41.4751 19.931 41.4687C19.9366 41.4645 19.9422 41.4604 19.9478 41.4562C19.9727 41.4377 19.9977 41.4196 20.023 41.4018C20.0299 41.397 20.0368 41.3922 20.0437 41.3874C20.0679 41.3706 20.0924 41.354 20.1171 41.3378C20.1279 41.3307 20.1386 41.3237 20.1495 41.3167C20.1801 41.2971 20.2109 41.2779 20.2421 41.2592C20.2491 41.255 20.256 41.2509 20.263 41.2467C20.2887 41.2315 20.3146 41.2166 20.3407 41.2021C20.3478 41.1981 20.3549 41.1942 20.3621 41.1902C20.371 41.1853 20.3799 41.1805 20.3888 41.1757C20.4168 41.1606 20.4451 41.1459 20.4736 41.1315C20.478 41.1292 20.4825 41.127 20.487 41.1247C20.4979 41.1193 20.5088 41.1139 20.5198 41.1086C20.5277 41.1047 20.5356 41.1009 20.5435 41.0971C20.57 41.0845 20.5966 41.0721 20.6234 41.0601C20.65 41.0482 20.6767 41.0366 20.7035 41.0254C20.7345 41.0124 20.7658 40.9998 20.7973 40.9876C20.8325 40.974 20.868 40.9609 20.9037 40.9484C20.9086 40.9467 20.9135 40.945 20.9184 40.9433C20.9487 40.9328 20.9792 40.9227 21.0099 40.913C21.017 40.9108 21.024 40.9086 21.031 40.9064C21.0408 40.9034 21.0508 40.9004 21.0609 40.8974C21.0699 40.8946 21.0789 40.892 21.0879 40.8894C21.0987 40.8862 21.1095 40.8831 21.1204 40.8801C21.1254 40.8787 21.1304 40.8773 21.1353 40.8759C21.1447 40.8733 21.1542 40.8708 21.1637 40.8682L21.1774 40.8647L21.1774 32.3055L17.0973 32.3055C16.265 32.3055 15.4803 32.1015 14.7905 31.7409L10.0925 34.4533C10.102 34.4873 10.1109 34.5215 10.1193 34.5556C10.1267 34.5858 10.1337 34.6161 10.1403 34.6464C10.1465 34.6747 10.1523 34.703 10.1578 34.7313C10.1598 34.7421 10.1619 34.7529 10.1638 34.7637C10.1658 34.7744 10.1677 34.7852 10.1696 34.796C10.1831 34.8737 10.194 34.9516 10.2024 35.0296C10.2039 35.0438 10.2053 35.058 10.2067 35.0722C10.2091 35.0983 10.2113 35.1244 10.2132 35.1505C10.2139 35.1593 10.2145 35.1682 10.2151 35.1771C10.2158 35.1891 10.2166 35.2012 10.2172 35.2132C10.2177 35.2215 10.2181 35.2298 10.2185 35.238C10.2202 35.272 10.2213 35.3061 10.222 35.3401C10.2222 35.35 10.2224 35.36 10.2225 35.3699C10.2226 35.3775 10.2226 35.3851 10.2227 35.3927L10.2225 35.3699C10.223 35.4162 10.2227 35.4625 10.2214 35.5087C10.2206 35.5378 10.2195 35.5669 10.218 35.5959C10.2176 35.6046 10.2171 35.6132 10.2166 35.6219C10.2161 35.6305 10.2156 35.6392 10.215 35.6479C10.2104 35.7188 10.2036 35.7895 10.1948 35.8599C10.1923 35.8802 10.1896 35.9005 10.1867 35.9207C10.1851 35.9323 10.1834 35.9438 10.1816 35.9554L10.1867 35.9207C10.1784 35.9793 10.1686 36.0377 10.1575 36.0959C10.1562 36.1025 10.1549 36.1091 10.1536 36.1157C10.1429 36.1697 10.1309 36.2234 10.1178 36.2769C10.1086 36.3143 10.0988 36.3516 10.0884 36.3887C10.0864 36.3958 10.0844 36.4029 10.0824 36.4099C10.081 36.4149 10.0795 36.42 10.078 36.425L10.0824 36.4099C10.071 36.4497 10.0589 36.4893 10.0462 36.5287C10.0444 36.5342 10.0426 36.5397 10.0408 36.5452C10.0368 36.5572 10.0328 36.5692 10.0288 36.5811C10.0271 36.5862 10.0253 36.5912 10.0236 36.5963C10.0122 36.6291 10.0004 36.6618 9.9881 36.6943C9.96629 36.752 9.94301 36.8091 9.91827 36.8656C9.9003 36.9067 9.88154 36.9475 9.86201 36.988C9.8573 36.9977 9.85249 37.0076 9.84764 37.0174C9.84377 37.0252 9.83989 37.033 9.83599 37.0408C9.83101 37.0507 9.82595 37.0606 9.82084 37.0705C9.81764 37.0767 9.81444 37.0829 9.81122 37.0891C9.80568 37.0997 9.80009 37.1103 9.79446 37.1208C9.77663 37.1542 9.75822 37.1874 9.73927 37.2203L9.73888 37.2209L18.9711 42.551ZM25.226 42.551L34.4582 37.2209C34.4431 37.1948 34.4284 37.1685 34.414 37.142C34.4102 37.1349 34.4064 37.1278 34.4026 37.1207C34.397 37.1103 34.3914 37.0997 34.3859 37.0891C34.3827 37.0829 34.3795 37.0767 34.3763 37.0706C34.3705 37.0593 34.3648 37.0481 34.3591 37.0368C34.3563 37.0311 34.3534 37.0254 34.3505 37.0196C34.345 37.0083 34.3394 36.997 34.334 36.9857C34.3298 36.9771 34.3257 36.9683 34.3215 36.9596C34.3199 36.956 34.3182 36.9525 34.3166 36.949L34.3215 36.9596C34.3136 36.9428 34.3058 36.926 34.2982 36.9091C34.2856 36.8813 34.2732 36.8532 34.2613 36.8249L34.2599 36.8217C34.2286 36.7475 34.1998 36.6723 34.1735 36.5963C34.1718 36.5912 34.17 36.5862 34.1683 36.5811C34.1643 36.5692 34.1602 36.5572 34.1563 36.5452C34.1545 36.5397 34.1527 36.5342 34.1509 36.5287C34.1473 36.5175 34.1437 36.5062 34.1402 36.495C34.1313 36.4667 34.1228 36.4383 34.1146 36.4098C34.1127 36.4029 34.1107 36.3958 34.1087 36.3888C34.0983 36.3516 34.0885 36.3143 34.0793 36.2769C34.0709 36.2429 34.0631 36.2088 34.0557 36.1746C34.054 36.1666 34.0523 36.1586 34.0506 36.1505C34.044 36.1188 34.0378 36.0871 34.0321 36.0553C34.0275 36.0299 34.0232 36.0045 34.0191 35.979L34.0177 35.9701C33.9894 35.7884 33.9748 35.6042 33.9744 35.4192C33.9744 35.4105 33.9744 35.4016 33.9744 35.3928C33.9745 35.3851 33.9745 35.3775 33.9746 35.3699L33.9744 35.3928C33.9745 35.3752 33.9747 35.3577 33.9751 35.3401C33.9754 35.326 33.9757 35.3119 33.9762 35.2978C33.9765 35.2888 33.9768 35.2799 33.9771 35.271C33.9776 35.26 33.978 35.249 33.9786 35.238C33.9789 35.2309 33.9793 35.2237 33.9797 35.2166C33.9814 35.1855 33.9834 35.1545 33.9859 35.1234C33.9869 35.112 33.9878 35.1005 33.9889 35.0891C33.996 35.0097 34.0058 34.9302 34.0184 34.8509C34.0193 34.845 34.0202 34.8391 34.0212 34.8332C34.027 34.7976 34.0334 34.7619 34.0403 34.7263C34.0416 34.7199 34.0428 34.7136 34.0441 34.7072C34.0468 34.6934 34.0497 34.6796 34.0526 34.6658C34.054 34.6593 34.0554 34.6529 34.0568 34.6464C34.059 34.6362 34.0613 34.6261 34.0636 34.616C34.0662 34.6046 34.0688 34.5931 34.0715 34.5817C34.0795 34.548 34.0881 34.5143 34.0971 34.4807C34.1009 34.4666 34.1047 34.4525 34.1087 34.4384C34.1108 34.4309 34.1129 34.4235 34.1151 34.4161L29.7654 31.9047C29.2174 32.1618 28.6056 32.3055 27.9602 32.3055L23.0687 32.3055L23.0687 40.8778C23.0865 40.8828 23.1043 40.8879 23.122 40.8931C23.1273 40.8947 23.1326 40.8963 23.138 40.8979C23.1507 40.9017 23.1633 40.9056 23.1759 40.9095C23.1823 40.9115 23.1887 40.9135 23.1951 40.9155C23.2067 40.9192 23.2181 40.9229 23.2296 40.9267C23.2362 40.9289 23.2429 40.9311 23.2496 40.9334C23.2809 40.9439 23.312 40.9548 23.3429 40.9662C23.3481 40.9681 23.3534 40.97 23.3587 40.972C23.3691 40.9759 23.3793 40.9797 23.3896 40.9837C23.4171 40.9942 23.4445 41.0051 23.4717 41.0163C23.5126 41.0331 23.5531 41.0507 23.5932 41.069C23.6151 41.0789 23.6368 41.089 23.6584 41.0994C23.6657 41.1029 23.673 41.1065 23.6804 41.1101C23.7253 41.132 23.7697 41.1548 23.8136 41.1785C23.8249 41.1847 23.8361 41.1908 23.8473 41.197C23.8524 41.1998 23.8575 41.2027 23.8626 41.2055C23.872 41.2108 23.8814 41.2161 23.8907 41.2215C23.9004 41.227 23.91 41.2326 23.9196 41.2382C23.9263 41.2421 23.933 41.2461 23.9398 41.2501C23.9513 41.2569 23.9626 41.2638 23.974 41.2707C23.9775 41.2728 23.981 41.2749 23.9844 41.2771C23.9979 41.2853 24.0113 41.2937 24.0247 41.3021C24.0294 41.3051 24.0341 41.3081 24.0387 41.311C24.0472 41.3165 24.0557 41.3219 24.0642 41.3274C24.0727 41.333 24.0811 41.3385 24.0896 41.3441C24.0974 41.3493 24.1051 41.3544 24.1128 41.3596C24.1206 41.3649 24.1285 41.3702 24.1363 41.3756C24.1471 41.383 24.1579 41.3904 24.1686 41.3979C24.1986 41.419 24.2284 41.4405 24.2577 41.4625C24.2797 41.4789 24.3015 41.4955 24.3231 41.5125C24.3304 41.5182 24.3376 41.5239 24.3449 41.5297C24.3982 41.5721 24.4503 41.616 24.5011 41.6613C24.5071 41.6667 24.5132 41.6721 24.5193 41.6776C24.5307 41.6879 24.5419 41.6982 24.5531 41.7086C24.5569 41.7121 24.5607 41.7157 24.5645 41.7192C24.5694 41.7238 24.5743 41.7284 24.5791 41.733C24.5888 41.7422 24.5985 41.7514 24.6081 41.7607C24.6131 41.7655 24.618 41.7703 24.6229 41.775C24.6288 41.7808 24.6347 41.7867 24.6407 41.7926L24.6517 41.8036C24.6549 41.8067 24.658 41.8099 24.6612 41.8131C24.6825 41.8346 24.7036 41.8563 24.7244 41.8784L24.7289 41.8832C24.7459 41.9012 24.7627 41.9194 24.7793 41.9378C24.7931 41.9532 24.8068 41.9686 24.8204 41.9841C24.8402 42.0068 24.8597 42.0298 24.8789 42.0529C24.8841 42.0592 24.8893 42.0655 24.8944 42.0717C24.9019 42.0809 24.9094 42.0902 24.9169 42.0994C24.9352 42.1222 24.9531 42.1452 24.9709 42.1685C24.9763 42.1756 24.9818 42.1829 24.9873 42.1902C24.992 42.1964 24.9967 42.2027 25.0013 42.209C25.0088 42.2191 25.0163 42.2292 25.0236 42.2394C25.0276 42.2449 25.0316 42.2504 25.0356 42.2559C25.0431 42.2665 25.0507 42.2772 25.0582 42.2879C25.0618 42.2931 25.0655 42.2983 25.0691 42.3035C25.0757 42.3131 25.0823 42.3227 25.0888 42.3323C25.0936 42.3394 25.0985 42.3466 25.1032 42.3538C25.1393 42.4078 25.1739 42.4627 25.2071 42.5187L25.226 42.551ZM7.47107 36.9043C8.12056 36.5293 8.43285 35.7946 8.30156 35.0971C8.30069 35.092 8.29971 35.087 8.29871 35.0819L8.30156 35.0971C8.29627 35.069 8.29025 35.0409 8.2835 35.0129C8.25431 34.8919 8.21165 34.7731 8.1554 34.6586C8.15277 34.6532 8.15005 34.6478 8.14731 34.6423L8.1554 34.6586C8.14941 34.6464 8.14326 34.6342 8.13696 34.6221L8.14731 34.6423C8.13956 34.627 8.13157 34.6117 8.12331 34.5965L8.10042 34.5555C8.07699 34.515 8.0521 34.4756 8.02584 34.4375C8.02192 34.4318 8.01797 34.4262 8.01399 34.4206L8.02584 34.4375C8.0173 34.4252 8.00862 34.4129 7.9998 34.4008L8.01399 34.4206C8.00478 34.4075 7.99541 34.3947 7.98588 34.382L7.9998 34.4008C7.98959 34.3868 7.97919 34.373 7.96861 34.3594L7.98588 34.382C7.97765 34.371 7.96931 34.3601 7.96086 34.3494L7.96861 34.3594C7.9587 34.3466 7.94862 34.334 7.93839 34.3215L7.96086 34.3494C7.95134 34.3373 7.94169 34.3254 7.9319 34.3137L7.93839 34.3215C7.92037 34.2996 7.90186 34.2782 7.88288 34.2573C7.35065 33.6717 6.46495 33.5144 5.75166 33.9262C4.92928 34.401 4.64752 35.4526 5.12232 36.275C5.59712 37.0973 6.64869 37.3791 7.47107 36.9043ZM39.0748 36.275C39.5496 35.4526 39.2678 34.401 38.4454 33.9262C37.7936 33.5499 36.9978 33.6488 36.4593 34.1155C36.4481 34.1252 36.4371 34.135 36.4261 34.145L36.3938 34.1754C36.376 34.1925 36.3586 34.2101 36.3414 34.228C36.3373 34.2324 36.3331 34.2368 36.3291 34.2412L36.3414 34.228C36.3324 34.2376 36.3234 34.2472 36.3145 34.257L36.3291 34.2412C36.3192 34.2518 36.3094 34.2625 36.2998 34.2734L36.3145 34.257C36.3042 34.2684 36.294 34.2798 36.2839 34.2915L36.2998 34.2734C36.2895 34.285 36.2794 34.2967 36.2694 34.3086L36.2839 34.2915C36.274 34.3031 36.2641 34.3148 36.2544 34.3267L36.2694 34.3086C36.2386 34.3453 36.2093 34.3835 36.1814 34.4231C36.1781 34.4276 36.1749 34.4323 36.1717 34.4369L36.1814 34.4231C36.1514 34.4656 36.1231 34.5098 36.0967 34.5555C36.0888 34.5692 36.0811 34.5829 36.0736 34.5967C36.0708 34.602 36.068 34.6072 36.0652 34.6125L36.0736 34.5967C36.0653 34.6121 36.0573 34.6275 36.0495 34.643L36.0652 34.6125C36.0575 34.6271 36.05 34.6418 36.0427 34.6565L36.0495 34.643C36.0429 34.6559 36.0366 34.6689 36.0304 34.6819L36.0427 34.6565C36.0351 34.6719 36.0278 34.6874 36.0206 34.703L36.0304 34.6819C36.0154 34.7137 36.0014 34.7458 35.9885 34.7782C35.9866 34.7829 35.9848 34.7875 35.9829 34.7921L35.9885 34.7782C35.9634 34.8409 35.9422 34.9045 35.9248 34.9689C35.9227 34.9768 35.9206 34.9848 35.9186 34.9927L35.9248 34.9689C35.9209 34.9835 35.9171 34.9981 35.9136 35.0127L35.9186 34.9927C35.915 35.0068 35.9116 35.021 35.9084 35.0352L35.9136 35.0127C35.9096 35.0293 35.9058 35.0459 35.9023 35.0625L35.9084 35.0352C35.9049 35.0504 35.9017 35.0656 35.8987 35.0809L35.9023 35.0625C35.8995 35.0759 35.8969 35.0892 35.8944 35.1026L35.8987 35.0809C35.7594 35.7832 36.0715 36.5264 36.726 36.9043C37.5484 37.3791 38.6 37.0973 39.0748 36.275ZM22.0985 46.0762C23.0481 46.0762 23.818 45.3064 23.818 44.3568C23.818 43.6298 23.3668 43.0082 22.7292 42.7567C22.7245 42.7547 22.7198 42.7529 22.7151 42.7511L22.7292 42.7567C22.7174 42.7521 22.7056 42.7475 22.6937 42.7432L22.7151 42.7511C22.7012 42.7458 22.6872 42.7406 22.6731 42.7356L22.6937 42.7432C22.6804 42.7383 22.6671 42.7335 22.6536 42.7289L22.6731 42.7356C22.659 42.7306 22.6448 42.7258 22.6306 42.7212L22.6536 42.7289C22.6388 42.7239 22.6238 42.719 22.6088 42.7143L22.6306 42.7212C22.6159 42.7164 22.601 42.7118 22.5862 42.7075L22.6088 42.7143C22.5957 42.7103 22.5826 42.7064 22.5695 42.7027L22.5862 42.7075C22.5719 42.7032 22.5576 42.6992 22.5431 42.6954L22.5695 42.7027C22.554 42.6983 22.5383 42.6941 22.5226 42.6901L22.5431 42.6954C22.5082 42.6861 22.4729 42.6778 22.4372 42.6707C22.4297 42.6692 22.4221 42.6678 22.4146 42.6664L22.4372 42.6707C22.4236 42.668 22.41 42.6655 22.3963 42.6631L22.4146 42.6664C22.3992 42.6635 22.3836 42.6608 22.368 42.6584L22.3963 42.6631C22.3799 42.6602 22.3633 42.6576 22.3467 42.6552L22.368 42.6584C22.3571 42.6566 22.3462 42.655 22.3352 42.6535L22.3467 42.6552C22.3296 42.6527 22.3125 42.6505 22.2953 42.6485L22.3352 42.6535C22.3201 42.6514 22.3049 42.6496 22.2897 42.6479L22.2953 42.6485C22.2809 42.6469 22.2664 42.6454 22.2519 42.6441L22.2897 42.6479C22.2733 42.6461 22.2568 42.6445 22.2403 42.6431L22.2519 42.6441C22.2357 42.6427 22.2195 42.6415 22.2032 42.6405L22.2403 42.6431C22.2246 42.6419 22.2089 42.6408 22.1931 42.6399L22.2032 42.6405C22.1879 42.6396 22.1725 42.6389 22.1571 42.6384L22.1931 42.6399C22.1618 42.6382 22.1303 42.6374 22.0985 42.6374L22.0518 42.638C22.0479 42.6381 22.044 42.6382 22.0401 42.6383L22.0517 42.638C22.0358 42.6384 22.0199 42.6391 22.0041 42.6399L22.0401 42.6383C22.0246 42.6389 22.0092 42.6396 21.9939 42.6405L22.0041 42.6399C21.9883 42.6408 21.9725 42.6419 21.9568 42.6431L21.9939 42.6405C21.9776 42.6415 21.9614 42.6427 21.9452 42.6441L21.9568 42.6431C21.9403 42.6445 21.9238 42.6461 21.9074 42.6479L21.9452 42.6441C21.9307 42.6454 21.9162 42.6469 21.9018 42.6485L21.9074 42.6479C21.892 42.6496 21.8766 42.6515 21.8612 42.6536L21.9018 42.6485C21.885 42.6504 21.8683 42.6526 21.8517 42.655L21.8612 42.6536C21.85 42.6552 21.8387 42.6569 21.8275 42.6586L21.8517 42.655C21.8346 42.6574 21.8176 42.6601 21.8006 42.6631L21.8275 42.6586C21.8139 42.6608 21.8003 42.6631 21.7867 42.6656L21.8006 42.6631C21.7866 42.6655 21.7727 42.6682 21.7588 42.6709L21.7867 42.6656C21.7485 42.6726 21.7106 42.6809 21.6731 42.6904C21.6676 42.6918 21.6621 42.6932 21.6566 42.6947L21.6731 42.6904C21.6577 42.6943 21.6424 42.6984 21.6272 42.7028L21.6566 42.6947C21.6424 42.6985 21.6282 42.7024 21.6142 42.7065L21.6272 42.7028C21.6135 42.7066 21.5998 42.7107 21.5862 42.7149L21.6142 42.7065C21.5985 42.7111 21.583 42.7159 21.5675 42.7209L21.5862 42.7149C21.5719 42.7194 21.5577 42.724 21.5435 42.7288L21.5675 42.7209C21.5529 42.7257 21.5384 42.7306 21.5239 42.7357L21.5435 42.7288C21.5301 42.7334 21.5167 42.7381 21.5034 42.743L21.5239 42.7357C21.5097 42.7408 21.4955 42.746 21.4814 42.7514L21.5034 42.743C21.492 42.7473 21.4806 42.7516 21.4693 42.756L21.4814 42.7514C20.8367 42.9994 20.3791 43.6247 20.3791 44.3568C20.3791 45.3064 21.1489 46.0762 22.0985 46.0762Z" fill="white"/>
<path fill-rule="evenodd" clip-rule="evenodd" d="M108.558 14.1801C115.905 14.1801 121.177 19.6486 121.177 26.4079V26.4758C121.177 33.2352 115.837 38.7716 108.49 38.7716C101.144 38.7716 95.8716 33.3031 95.8716 26.5438V26.4758C95.8716 19.7166 101.212 14.1801 108.558 14.1801ZM61.982 14.2594C65.4434 14.2594 68.3959 15.3453 70.8054 17.2796L68.0905 21.216C65.9864 19.7568 63.9163 18.8745 61.9141 18.8745C59.9119 18.8745 58.8599 19.7907 58.8599 20.9445V21.0124C58.8599 22.5734 59.8779 23.0823 63.9842 24.1343C68.8032 25.39 71.5181 27.1206 71.5181 31.2606V31.3285C71.5181 36.0455 67.9208 38.6923 62.7964 38.6923C59.1992 38.6923 55.568 37.4367 52.7174 34.8916L55.8056 31.1927C57.9435 32.9574 60.1834 34.0773 62.8982 34.0773C65.0362 34.0773 66.3258 33.2288 66.3258 31.8375V31.7696C66.3258 30.4462 65.5113 29.7676 61.5408 28.7494C56.7558 27.5278 53.6676 26.2044 53.6676 21.4874V21.4195C53.6676 17.1099 57.1291 14.2594 61.982 14.2594ZM164.966 14.5767V30.1329C164.966 35.9071 161.573 38.6923 156.552 38.6923C152.854 38.6923 150.412 37.0619 148.783 35.1259L152.074 31.4576C153.431 32.9521 154.754 33.8352 156.417 33.8352C158.384 33.8352 159.606 32.6464 159.606 29.8952V19.8915L151.798 19.8917V14.5767H164.966ZM93.7297 14.5767V19.4043H86.5049V38.3751H81.2813V19.4043H74.0565V14.5767H93.7297ZM136.487 14.5767C142.09 14.5767 145.452 17.5345 145.452 22.4301V22.4981C145.452 26.3398 143.381 28.7537 140.358 29.8756L146.165 38.3751H140.053L134.958 30.7596H130.849V38.3751H125.62V14.5767H136.487ZM108.49 19.019C104.271 19.019 101.345 22.3407 101.345 26.4081V26.4758C101.345 30.5432 104.339 33.9326 108.558 33.9326C112.777 33.9326 115.704 30.6109 115.704 26.5436V26.4758C115.704 22.4085 112.709 19.019 108.49 19.019ZM136.038 19.3363H130.855V26.1585H136.139C138.68 26.1585 140.136 24.8009 140.136 22.7984V22.7305C140.136 20.4903 138.578 19.3363 136.038 19.3363Z" fill="white"/>
</svg>
