<svg width="169" height="49" viewBox="0 0 169 49" fill="none" xmlns="http://www.w3.org/2000/svg"><path d="M22.0985 45.9676c-1.9607 0-3.5564-1.5628-3.6093-3.5108l-10.16-5.8655a3.5923 3.5923 0 0 1-1.6628.435l-.0558.0004c-1.2464-.0014-2.4582-.6489-3.1262-1.806-.9804-1.698-.4248-3.8613 1.2356-4.8811V18.6081c-1.6604-1.0199-2.216-3.1832-1.2356-4.8812.658-1.1398 1.8437-1.7851 3.0704-1.8055l.0558-.0005a3.5934 3.5934 0 0 1 1.7186.4354l10.16-5.8656c.0524-1.9281 1.6164-3.4789 3.5496-3.5102l.0597-.0005c1.9607 0 3.5564 1.5627 3.6094 3.5106l10.1597 5.8659a3.591 3.591 0 0 1 1.6631-.4352l.0558-.0004c1.2464.0015 2.4582.6489 3.1262 1.806.9804 1.698.4248 3.8613-1.2356 4.8812v11.7315c1.6604 1.0198 2.216 3.1831 1.2356 4.8811-.658 1.1398-1.8437 1.7851-3.0704 1.8055l-.0558.0005a3.5912 3.5912 0 0 1-1.7186-.4354l-10.16 5.8657c-.0524 1.928-1.6164 3.4788-3.5496 3.5101l-.0598.0005Zm0-37.6574.0468-.0007.0117-.0003-.0117.0003a1.787 1.787 0 0 0 .0467-.0018l-.035.0015a1.7069 1.7069 0 0 0 .051-.0025l-.016.001a2.4053 2.4053 0 0 0 .0474-.0032l-.0314.0022a1.3992 1.3992 0 0 0 .0463-.0035l-.0149.0013a2.8187 2.8187 0 0 0 .0418-.004l-.0269.0027a1.672 1.672 0 0 0 .0507-.0053l-.0238.0027a2.4965 2.4965 0 0 0 .0469-.0056l-.0231.0029a1.9022 1.9022 0 0 0 .0426-.0056l-.0195.0027a1.8517 1.8517 0 0 0 .0526-.008l-.0331.0053a1.9106 1.9106 0 0 0 .0428-.0068l-.0097.0016a1.7215 1.7215 0 0 0 .0444-.008l-.0347.0064a1.7574 1.7574 0 0 0 .0468-.0087l-.0121.0024a1.8349 1.8349 0 0 0 .0566-.012l-.0445.0096a1.6994 1.6994 0 0 0 .1323-.032l-.0263.0073a1.614 1.614 0 0 0 .043-.0121l-.0167.0049a1.6738 1.6738 0 0 0 .0382-.0113l-.0215.0064c.7121-.2102 1.2318-.869 1.2318-1.6493 0-.9496-.7699-1.7194-1.7195-1.7194s-1.7194.7698-1.7194 1.7194c0 .7717.5085 1.4248 1.2086 1.6423.0087.0028.0176.0054.0264.008l-.0264-.008c.0131.004.0263.008.0395.0118l-.0131-.0038c.0141.004.0283.008.0425.0118l-.0294-.008a1.718 1.718 0 0 0 .0459.0123l-.0165-.0043a1.6657 1.6657 0 0 0 .1186.027l-.0164-.0032c.016.0032.0321.0062.0482.0089l-.0318-.0057c.0133.0025.0266.0049.0399.007l-.0081-.0013c.0144.0025.0289.0048.0434.0069l-.0353-.0055a1.56 1.56 0 0 0 .0534.008l-.0181-.0025c.0138.002.0277.0038.0416.0055l-.0235-.003a1.865 1.865 0 0 0 .0475.0057l-.024-.0027a1.742 1.742 0 0 0 .0507.0053l-.0267-.0026c.0138.0015.0277.0027.0417.0039l-.015-.0013c.0155.0014.0309.0026.0464.0035l-.0314-.0022a1.846 1.846 0 0 0 .0473.0032l-.0159-.001c.0169.001.0339.0019.0509.0025l-.035-.0015c.031.0016.0622.0025.0935.0025Zm5.5894 11.8004 6.3964-3.6929a3.5393 3.5393 0 0 1-.0133-.054l-.0039-.0168a2.7754 2.7754 0 0 1-.0084-.037l-.0059-.0272-.0066-.0317c-.0022-.0112-.0045-.0223-.0066-.0335a3.4642 3.4642 0 0 1-.0212-.1208 3.5738 3.5738 0 0 1-.0293-.2359l-.0023-.0266a3.3507 3.3507 0 0 1-.0074-.1084l.0005.0085a3.006 3.006 0 0 1-.0037-.0827l-.0009-.0343-.0005-.0262-.0003-.0259-.0001-.0237.0001.0237a3.6055 3.6055 0 0 1 .0885-.8255l.0051-.0223.0049-.021a3.719 3.719 0 0 1 .0753-.2696l.0075-.0231.009-.0269a3.886 3.886 0 0 1 .0125-.0364l.0063-.0178.0127-.0353.0028-.0076a3.3999 3.3999 0 0 1 .1084-.2616l.0083-.0179a6.4516 6.4516 0 0 1 .0306-.0639 2.61 2.61 0 0 1 .0118-.0237c.0051-.0103.0104-.0206.0156-.0308l.0099-.0192.0166-.0316a3.3452 3.3452 0 0 1 .0579-.1043l-9.2321-5.3303-.0055.0095a3.7718 3.7718 0 0 1-.0523.0869l-.0091.0146-.0206.0324-.0134.0208a1.9156 1.9156 0 0 1-.0171.0258l-.0156.0234c-.0034.005-.0069.01-.0103.0152a3.6315 3.6315 0 0 1-.2857.3655l-.0255.0284-.0144.0157c-.005.0054-.0099.0108-.0149.016a3.6577 3.6577 0 0 1-.2702.2617l-.0065.0057a3.9813 3.9813 0 0 1-.07.0593c-.0039.003-.0076.0062-.0114.0093-.0088.0072-.0177.0145-.0267.0216a2.2726 2.2726 0 0 1-.0375.0298 3.6613 3.6613 0 0 1-.0885.0669l-.0053.0039a3.6938 3.6938 0 0 1-.093.0657l-.0093.0063a3.6212 3.6212 0 0 1-.1899.1204l-.0189.011a3.868 3.868 0 0 1-.0795.045 2.5782 2.5782 0 0 1-.0323.0177l-.0191.01a2.7196 2.7196 0 0 1-.0601.0311l-.0154.0078a3.5663 3.5663 0 0 1-.0881.0425c-.0068.003-.0137.0063-.0205.0094a3.531 3.531 0 0 1-.3822.1491c-.0055.0019-.0111.0036-.0166.0054a3.832 3.832 0 0 1-.0921.0281l-.032.0092-.0081.0022.0001 6.9538c1.9755.2442 3.672 1.4212 4.6193 3.0871Zm-10.8498.1466c.8838-1.6599 2.4821-2.8357 4.3392-3.1781v-6.9962a3.3594 3.3594 0 0 1-.0622-.0169l-.0273-.0079a3.504 3.504 0 0 1-.2065-.067l-.0181-.0064a4.6742 4.6742 0 0 1-.0398-.0148l-.014-.0053-.0376-.0146-.0192-.0077c-.0143-.0057-.0285-.0116-.0427-.0175l-.012-.005a3.3108 3.3108 0 0 1-.0942-.0413l-.0254-.0117a3.4177 3.4177 0 0 1-.1207-.059 1.1754 1.1754 0 0 1-.0273-.014l-.0113-.006a3.5266 3.5266 0 0 1-.0429-.0228l-.0154-.0084-.0261-.0145a4.1476 4.1476 0 0 1-.0819-.0474l-.0176-.0105-.0336-.0206-.0209-.013-.0208-.0132-.0239-.0153a3.6737 3.6737 0 0 1-.2334-.165 2.3705 2.3705 0 0 1-.025-.0193l-.0067-.0052a3.6542 3.6542 0 0 1-.1285-.1058l-.0258-.0224a2.7796 2.7796 0 0 1-.0318-.0283 3.6308 3.6308 0 0 1-.2913-.2937l-.0015-.0018a3.6418 3.6418 0 0 1-.1822-.2233l-.0129-.0175c-.0078-.0103-.0154-.0208-.0231-.0313a3.2261 3.2261 0 0 1-.0138-.0193l-.0178-.025-.0152-.0218a4.9589 4.9589 0 0 1-.0198-.029l-.0135-.0201a3.555 3.555 0 0 1-.1111-.1772l-.0114-.0197-9.2322 5.3302a3.5522 3.5522 0 0 1 .1424.2736l.0083.0179.0157.0345.0072.0163.0158.0361a3.6357 3.6357 0 0 1 .2126.6656l.0047.0219.0086.0422.0037.0196a3.6023 3.6023 0 0 1 .0571.4453l.0019.0313.0013.0242a3.546 3.546 0 0 1 .0001.3592l-.002.037-.0016.0252-.0015.0204a3.6116 3.6116 0 0 1-.0454.3648l-.0042.0237-.0057.0302a4.0786 4.0786 0 0 1-.0357.1643l6.7159 3.8773Zm21.6073-3.2359c.8224-.4748 1.1042-1.5263.6294-2.3487-.4748-.8224-1.5264-1.1042-2.3488-.6294-.6482.3743-.9606 1.1069-.8312 1.8032a1.46 1.46 0 0 0 .0038.0204l-.0038-.0204c.0024.0129.0049.0258.0076.0386l-.0038-.0182c.0033.0165.0068.033.0106.0495l-.0068-.0313c.0037.0174.0076.0347.0118.052l-.005-.0207c.0031.0136.0064.0271.0099.0407l-.0049-.02c.0036.0148.0073.0295.0113.0442l-.0064-.0242c.0041.016.0085.0321.0131.0481l-.0067-.0239c.0037.0137.0076.0274.0117.041l-.005-.0171c.0145.0506.0314.1007.0507.1502l.0083.0209-.0083-.0209c.0061.0157.0125.0313.0191.0468l-.0108-.0259c.0058.0142.0118.0284.0179.0426l-.0071-.0167c.0055.0131.0112.0261.0171.039l-.01-.0223c.0074.0168.015.0335.0229.0502l-.0129-.0279c.0063.014.0128.0278.0196.0416l-.0067-.0137c.0066.0137.0133.0274.0202.041l-.0135-.0273c.0081.0168.0166.0335.0253.0502l-.0118-.0229c.0099.0195.0203.039.0311.0583l.0134.0237c.0235.0408.0485.0803.0749.1186l.0114.0162-.0114-.0162c.0185.0267.0376.0527.0573.0782l.0104.0132-.0104-.0132c.0081.0103.0162.0206.0245.0307l-.0141-.0175a1.532 1.532 0 0 0 .034.0415l-.0199-.024c.0093.0115.0188.0228.0284.034l-.0085-.01c.0086.0102.0173.0203.0262.0303l-.0177-.0203a1.6061 1.6061 0 0 0 .1255.1314 1.6447 1.6447 0 0 0 .0806.0713l-.0287-.0242c.0114.0098.0228.0195.0344.029l-.0057-.0048c.5378.4458 1.3172.5349 1.9575.1651Zm-30.6422-.2491.0139-.0135a1.7249 1.7249 0 0 0 .0516-.0531l.0069-.0074-.0069.0074a1.5188 1.5188 0 0 0 .0313-.0345l-.0244.0271a1.9173 1.9173 0 0 0 .0332-.0371l-.0088.01a1.5627 1.5627 0 0 0 .0316-.0369l-.0228.0269a2.0058 2.0058 0 0 0 .0276-.0327l-.0048.0058a1.8056 1.8056 0 0 0 .026-.0319l-.0212.0261a1.8289 1.8289 0 0 0 .0354-.0443l-.0143.0182a2.0001 2.0001 0 0 0 .0287-.0372l-.0144.019a1.5795 1.5795 0 0 0 .0257-.0343l-.0113.0153a1.6981 1.6981 0 0 0 .027-.037l-.0157.0217a1.8287 1.8287 0 0 0 .0283-.0398l-.0127.0181a1.7192 1.7192 0 0 0 .1007-.1598l-.0134.0237a1.7378 1.7378 0 0 0 .0691-.1325l-.0126.0263a1.5759 1.5759 0 0 0 .0146-.0305l-.002.0042a1.9827 1.9827 0 0 0 .0252-.0564l-.0056.0129a1.715 1.715 0 0 0 .071-.1942l.0035-.0121-.0036.0121a1.6988 1.6988 0 0 0 .0127-.0446l-.0091.0325a1.762 1.762 0 0 0 .013-.0477l-.004.0152a1.7975 1.7975 0 0 0 .011-.0426l-.007.0274a1.7093 1.7093 0 0 0 .022-.0964c.001-.0044.0018-.0089.0027-.0133l-.0027.0133c.1388-.7019-.1733-1.4446-.8275-1.8224-.8224-.4748-1.874-.193-2.3488.6294-.4748.8224-.193 1.8739.6293 2.3487.6788.3919 1.5138.2684 2.0516-.2491ZM9.129 30.8257l4.096-2.3649a4.9659 4.9659 0 0 1-1.1138-3.1415c0-1.792.9452-3.3632 2.3644-4.2421L9.212 18.0383a3.483 3.483 0 0 1-.18.1745 3.5879 3.5879 0 0 1-.7207.5056l-.0023.0012a3.7104 3.7104 0 0 1-.2932.1393 3.2943 3.2943 0 0 1-.1857.0723 3.5329 3.5329 0 0 1-.223.0718 3.5686 3.5686 0 0 1-.3287.078l-.0176.0032a3.76 3.76 0 0 1-.1635.0262l-.0184.0024a3.7145 3.7145 0 0 1-.2027.0209l-.0232.0016a3.8037 3.8037 0 0 1-.1014.0055l-.0206.0008a3.3087 3.3087 0 0 1-.063.0015l-.0559.0005-.0008 10.6604a3.6203 3.6203 0 0 1 .8468.1013l.0597.0149a3.6346 3.6346 0 0 1 .7617.2923 3.6011 3.6011 0 0 1 .8494.6132Zm25.9676-.0269.0192-.0185a3.5988 3.5988 0 0 1 .5577-.4285l.0019-.0012a3.5342 3.5342 0 0 1 .0832-.0503l.0198-.0115-.0198.0115a3.6392 3.6392 0 0 1 .4052-.2041 3.6008 3.6008 0 0 1 .3748-.1364l.0262-.0079a3.6189 3.6189 0 0 1 .2267-.0589l.0334-.0073a3.5083 3.5083 0 0 1 .0955-.0193l.0084-.0016c.016-.003.032-.0058.048-.0086l-.048.0086a3.5158 3.5158 0 0 1 .275-.0402l.018-.0019a3.5348 3.5348 0 0 1 .0976-.0086l.0247-.0018a3.9462 3.9462 0 0 1 .0971-.0053l.0252-.0009.0113-.0004a3.531 3.531 0 0 1 .108-.0017V19.1436a3.4954 3.4954 0 0 1-.2824-.0113 3.7652 3.7652 0 0 1-.2268-.0252 3.33 3.33 0 0 1-.1717-.0288 3.6072 3.6072 0 0 1-.6286-.181 3.8014 3.8014 0 0 1-.1328-.0546 3.7711 3.7711 0 0 1-.2007-.0947 3.5942 3.5942 0 0 1-.2695-.1523l-.0516-.0328a3.5928 3.5928 0 0 1-.6095-.4969l-6.5161 3.7619c2.0747.2606 3.6846 2.0147 3.7193 4.1518l.0005.0703a4.2368 4.2368 0 0 1-.8724 2.5819l3.7532 2.1669Zm-13.2204-2.3846h6.0841c1.3057 0 2.3642-1.0585 2.3642-2.3642 0-1.3057-1.0585-2.3641-2.3642-2.3641l-1.3026-.0001-.0699-.8698c-.1787-2.2219-2.0407-3.9482-4.2845-3.9482-1.7924 0-3.3774 1.1071-4.012 2.7514l-.2335.6052h-.9604c-1.7092 0-3.0949 1.3856-3.0949 3.0949s1.3857 3.0949 3.0949 3.0949H21.72c.0211 0 .0416-.0002.0617-.0006l.0203-.0004.0472.0009.027.0001Zm-2.905 12.1369.0103-.0176a3.0665 3.0665 0 0 1 .0458-.0761l.0145-.0232.0132-.0207.0161-.0251a3.6618 3.6618 0 0 1 .3551-.4597l.0125-.0136.0252-.0272.0134-.0142a3.641 3.641 0 0 1 .3847-.3516l.0157-.0123.0281-.0218.0253-.0192.0168-.0125a3.5823 3.5823 0 0 1 .0752-.0544l.0207-.0144a3.3664 3.3664 0 0 1 .1058-.0707 3.6634 3.6634 0 0 1 .0926-.0575l.0209-.0125a3.3187 3.3187 0 0 1 .0777-.0446l.0214-.0119a3.5016 3.5016 0 0 1 .1115-.0587l.0134-.0068.0328-.0161a3.8544 3.8544 0 0 1 .1837-.0832 3.6702 3.6702 0 0 1 .2002-.077l.0147-.0051a3.4986 3.4986 0 0 1 .1425-.0459 1.733 1.733 0 0 1 .0595-.0173l.0149-.0042.0284-.0077.0137-.0035v-8.5592h-4.0801c-.8323 0-1.617-.204-2.3068-.5646l-4.698 2.7124a3.422 3.422 0 0 1 .0653.278l.006.0324.0058.0323c.0135.0777.0244.1556.0328.2336l.0043.0426c.0024.0261.0046.0522.0065.0783l.0019.0266.0021.0361.0013.0248a3.4811 3.4811 0 0 1 .004.1319l.0002.0228-.0002-.0228a3.5668 3.5668 0 0 1-.0045.226l-.0014.026-.0016.026a3.576 3.576 0 0 1-.0334.3075l.0051-.0347a3.7195 3.7195 0 0 1-.0292.1752l-.0039.0198a3.7083 3.7083 0 0 1-.0652.273l-.006.0212a.8589.8589 0 0 1-.0044.0151l.0044-.0151a3.7802 3.7802 0 0 1-.0362.1188l-.0054.0165-.012.0359-.0052.0152a3.7815 3.7815 0 0 1-.1053.2693 3.6268 3.6268 0 0 1-.0975.2049l-.0096.0186a3.3934 3.3934 0 0 1-.072.1312l9.2319 5.3307Zm6.2549 0 9.2322-5.3301a3.3818 3.3818 0 0 1-.0442-.0789l-.0114-.0213a2.3414 2.3414 0 0 1-.0167-.0316l-.0096-.0185a5.3793 5.3793 0 0 1-.0172-.0338l-.0086-.0172-.0165-.0339-.0125-.0261-.0049-.0106.0049.0106a3.3465 3.3465 0 0 1-.0602-.1347l-.0014-.0032a3.6568 3.6568 0 0 1-.0864-.2254l-.0052-.0152c-.004-.0119-.0081-.0239-.012-.0359l-.0054-.0165a4.3723 4.3723 0 0 1-.0363-.1189 3.6835 3.6835 0 0 1-.0589-.2352l-.0051-.0241a3.4738 3.4738 0 0 1-.0315-.1715l-.0014-.0089a3.6311 3.6311 0 0 1-.0433-.5509v-.0264l.0002-.0229-.0002.0229a3.0868 3.0868 0 0 1 .0018-.095 71.412 71.412 0 0 1 .0009-.0268l.0015-.033a3.6435 3.6435 0 0 1 .0073-.1146c.001-.0114.0019-.0229.003-.0343a3.5113 3.5113 0 0 1 .0295-.2382l.0028-.0177a3.6302 3.6302 0 0 1 .0191-.1069l.0038-.0191a3.0392 3.0392 0 0 1 .0085-.0414l.0042-.0194.0068-.0304.0079-.0343a3.6411 3.6411 0 0 1 .0256-.101c.0038-.0141.0076-.0282.0116-.0423a1.4504 1.4504 0 0 1 .0064-.0223l-4.3497-2.5114a4.2389 4.2389 0 0 1-1.8052.4008h-4.8915v8.5723c.0178.005.0356.0101.0533.0153l.016.0048.0379.0116.0192.006a3.481 3.481 0 0 1 .0345.0112l.02.0067c.0313.0105.0624.0214.0933.0328l.0158.0058.0309.0117a3.4167 3.4167 0 0 1 .2036.0853c.0219.0099.0436.02.0652.0304l.022.0107c.0449.0219.0893.0447.1332.0684l.0337.0185.0153.0085.0281.016.0289.0167.0202.0119c.0115.0068.0228.0137.0342.0206l.0104.0064a3.3669 3.3669 0 0 1 .0543.0339l.0255.0164.0254.0167.0232.0155.0235.016.0323.0223a3.5432 3.5432 0 0 1 .1763.1318c.0533.0424.1054.0863.1562.1316l.0182.0163c.0114.0103.0226.0206.0338.031l.0114.0106.0146.0138.029.0277.0148.0143.0178.0176.011.011.0095.0095a3.545 3.545 0 0 1 .0632.0653l.0045.0048a3.2562 3.2562 0 0 1 .0915.1009c.0198.0227.0393.0457.0585.0688l.0155.0188.0225.0277a3.6528 3.6528 0 0 1 .1067.14l.012.0165.0226.032.0109.0156a4.917 4.917 0 0 1 .0197.0288c.0048.0071.0097.0143.0144.0215.0361.054.0707.1089.1039.1649l.0189.0323ZM7.471 34.9044c.6495-.375.9618-1.1097.8306-1.8072a.624.624 0 0 0-.0029-.0152l.0029.0152a1.7068 1.7068 0 0 0-.1462-.4385l-.0081-.0163.008.0163a1.7323 1.7323 0 0 0-.0183-.0365l.0103.0202a1.7891 1.7891 0 0 0-.024-.0458l-.0229-.041a1.7684 1.7684 0 0 0-.0864-.1349l.0118.0169a1.9617 1.9617 0 0 0-.026-.0367l.0142.0198a1.5382 1.5382 0 0 0-.0281-.0386l.0139.0188a1.6703 1.6703 0 0 0-.0312-.0414l.0173.0226a1.576 1.576 0 0 0-.025-.0326l.0077.01a1.7914 1.7914 0 0 0-.0302-.0379l.0225.0279a1.5258 1.5258 0 0 0-.029-.0357l.0065.0078a1.7398 1.7398 0 0 0-.0555-.0642c-.5323-.5856-1.418-.7429-2.1313-.3311-.8223.4748-1.104 1.5264-.6293 2.3488.4748.8223 1.5264 1.1041 2.3488.6293Zm31.6038-.6293c.4748-.8224.193-1.874-.6294-2.3488-.6518-.3763-1.4476-.2774-1.9861.1893a1.8413 1.8413 0 0 0-.0332.0295l-.0323.0304a1.8569 1.8569 0 0 0-.0524.0526l-.0123.0132.0123-.0132a2.4915 2.4915 0 0 0-.0269.029l.0146-.0158a1.4908 1.4908 0 0 0-.0293.0322l.0147-.0164a2.033 2.033 0 0 0-.0306.0345l.0159-.0181a1.7042 1.7042 0 0 0-.0304.0352l.0145-.0171a2.0322 2.0322 0 0 0-.0295.0352l.015-.0181a1.7102 1.7102 0 0 0-.088.1145c-.0033.0045-.0065.0092-.0097.0138l.0097-.0138a1.732 1.732 0 0 0-.1078.1736l-.0084.0158.0084-.0158a1.8547 1.8547 0 0 0-.0241.0463l.0157-.0305a2.0268 2.0268 0 0 0-.0225.044l.0068-.0135a1.553 1.553 0 0 0-.0191.0389l.0123-.0254a1.9762 1.9762 0 0 0-.0221.0465l.0098-.0211a1.6985 1.6985 0 0 0-.0419.0963l-.0056.0139.0056-.0139a1.7197 1.7197 0 0 0-.0699.2145l.0062-.0238a1.7581 1.7581 0 0 0-.0112.0438l.005-.02a1.5445 1.5445 0 0 0-.0102.0425l.0052-.0225a1.7828 1.7828 0 0 0-.0113.0498l.0061-.0273a1.427 1.427 0 0 0-.0097.0457l.0036-.0184a1.8918 1.8918 0 0 0-.0079.0401l.0043-.0217c-.1393.7023.1728 1.4455.8273 1.8234.8224.4748 1.874.193 2.3488-.6293Zm-16.9763 9.8012c.9496 0 1.7195-.7698 1.7195-1.7194 0-.727-.4512-1.3486-1.0888-1.6001-.0047-.002-.0094-.0038-.0141-.0056l.0141.0056c-.0118-.0046-.0236-.0092-.0355-.0135l.0214.0079a1.9051 1.9051 0 0 0-.042-.0155l.0206.0076a1.7275 1.7275 0 0 0-.0401-.0143l.0195.0067a1.6334 1.6334 0 0 0-.0425-.0144l.023.0077a2.1316 2.1316 0 0 0-.0448-.0146l.0218.0069a1.4189 1.4189 0 0 0-.0444-.0137l.0226.0068a1.9452 1.9452 0 0 0-.0393-.0116l.0167.0048a1.2477 1.2477 0 0 0-.0431-.0121l.0264.0073a1.794 1.794 0 0 0-.0469-.0126l.0205.0053a1.6963 1.6963 0 0 0-.1059-.0247l-.0226-.0043.0226.0043a1.8418 1.8418 0 0 0-.0409-.0076l.0183.0033a1.4151 1.4151 0 0 0-.0466-.008l.0283.0047a1.601 1.601 0 0 0-.0496-.0079l.0213.0032a1.177 1.177 0 0 0-.0328-.0049l.0115.0017a1.7606 1.7606 0 0 0-.0514-.0067l.0399.005a1.712 1.712 0 0 0-.0455-.0056l.0056.0006a2.0558 2.0558 0 0 0-.0434-.0044l.0378.0038a2.0137 2.0137 0 0 0-.0494-.0048l.0116.001a1.9565 1.9565 0 0 0-.0487-.0036l.0371.0026a2.4374 2.4374 0 0 0-.0472-.0032l.0101.0006a1.7566 1.7566 0 0 0-.0461-.0021l.036.0015a1.7433 1.7433 0 0 0-.0946-.0025l-.0467.0006-.0117.0003.0117-.0003a1.882 1.882 0 0 0-.0477.0019l.036-.0016a2.3065 2.3065 0 0 0-.0462.0022l.0102-.0006a2.4478 2.4478 0 0 0-.0473.0032l.0371-.0026a1.9565 1.9565 0 0 0-.0487.0036l.0116-.001a2.0137 2.0137 0 0 0-.0494.0048l.0378-.0038a2.0558 2.0558 0 0 0-.0434.0044l.0056-.0006a1.8195 1.8195 0 0 0-.0462.0057l.0406-.0051a1.6312 1.6312 0 0 0-.0501.0065l.0095-.0014a3.9113 3.9113 0 0 0-.0337.005l.0242-.0036a1.467 1.467 0 0 0-.0511.0081l.0269-.0045a1.932 1.932 0 0 0-.0408.007l.0139-.0025c-.014.0024-.0279.0051-.0418.0078l.0279-.0053a1.7393 1.7393 0 0 0-.1301.0291l.0165-.0043a1.409 1.409 0 0 0-.0459.0124l.0294-.0081a1.8845 1.8845 0 0 0-.0424.0118l.013-.0037a1.4788 1.4788 0 0 0-.041.0121l.028-.0084a1.8046 1.8046 0 0 0-.0467.0144l.0187-.006a2.1257 2.1257 0 0 0-.0427.0139l.024-.0079a2.2348 2.2348 0 0 0-.0436.0148l.0196-.0069a1.908 1.908 0 0 0-.0401.0142l.0205-.0073a2.165 2.165 0 0 0-.0425.0157l.022-.0084-.0341.013.0121-.0046c-.6447.248-1.1023.8733-1.1023 1.6054 0 .9496.7698 1.7194 1.7194 1.7194Z" fill="#0149FF"/><path fill-rule="evenodd" clip-rule="evenodd" d="M108.558 12.1802c7.347 0 12.619 5.4685 12.619 12.2278v.0679c0 6.7594-5.34 12.2958-12.687 12.2958-7.346 0-12.6184-5.4685-12.6184-12.2278v-.068c0-6.7592 5.3404-12.2957 12.6864-12.2957Zm-46.576.0793c3.4614 0 6.4139 1.0859 8.8234 3.0202l-2.7149 3.9364c-2.1041-1.4592-4.1742-2.3415-6.1764-2.3415s-3.0542.9162-3.0542 2.07v.0679c0 1.561 1.018 2.0699 5.1243 3.1219 4.819 1.2557 7.5339 2.9863 7.5339 7.1263v.0679c0 4.717-3.5973 7.3638-8.7217 7.3638-3.5972 0-7.2284-1.2556-10.079-3.8007l3.0882-3.6989c2.1379 1.7647 4.3778 2.8846 7.0926 2.8846 2.138 0 3.4276-.8485 3.4276-2.2398v-.0679c0-1.3234-.8145-2.002-4.785-3.0202-4.785-1.2216-7.8732-2.545-7.8732-7.262v-.0679c0-4.3096 3.4615-7.1601 8.3144-7.1601Zm102.984.3173V28.133c0 5.7742-3.393 8.5594-8.414 8.5594-3.698 0-6.14-1.6304-7.769-3.5664l3.291-3.6683c1.357 1.4945 2.68 2.3776 4.343 2.3776 1.967 0 3.189-1.1888 3.189-3.94V17.8916l-7.808.0002v-5.315h13.168Zm-71.2363 0v4.8276h-7.2248v18.9708h-5.2236V17.4044h-7.2248v-4.8276h19.6732Zm42.7573 0c5.603 0 8.965 2.9578 8.965 7.8534v.068c0 3.8417-2.071 6.2556-5.094 7.3775l5.807 8.4995h-6.112l-5.095-7.6155h-4.109v7.6155h-5.229V12.5768h10.867Zm-27.997 4.4423c-4.219 0-7.145 3.3217-7.145 7.3891v.0677c0 4.0674 2.994 7.4568 7.213 7.4568 4.219 0 7.146-3.3217 7.146-7.389v-.0678c0-4.0673-2.995-7.4568-7.214-7.4568Zm27.548.3173h-5.183v6.8222h5.284c2.541 0 3.997-1.3576 3.997-3.3601v-.0679c0-2.2402-1.558-3.3942-4.098-3.3942Z" fill="#091C45"/></svg>