<svg width="18" height="18" viewBox="0 0 18 18" fill="none" xmlns="http://www.w3.org/2000/svg">
<path d="M9.00321 12.5639C9.40013 12.5639 9.72373 12.8778 9.73928 13.2709L9.73986 13.3005V16.3634C9.73986 16.7702 9.41005 17.1 9.00321 17.1C8.60629 17.1 8.28269 16.7861 8.26715 16.393L8.26656 16.3634V13.3005C8.26656 12.8937 8.59637 12.5639 9.00321 12.5639ZM12.5825 11.5386L12.6069 11.5619L14.7307 13.6857C15.0184 13.9733 15.0184 14.4398 14.7307 14.7275C14.451 15.0071 14.0024 15.0149 13.7133 14.7508L13.6889 14.7275L11.5651 12.6037C11.2774 12.316 11.2774 11.8496 11.5651 11.5619C11.8366 11.2904 12.2672 11.2751 12.5566 11.516L12.5825 11.5386ZM6.48415 11.4847C6.7631 11.7652 6.76968 12.2138 6.50477 12.5022L6.4814 12.5265L4.29031 14.702C4.00187 14.989 3.53545 14.9877 3.24853 14.6993C2.96958 14.4189 2.963 13.9702 3.22792 13.6818L3.25129 13.6575L5.44237 11.482C5.73081 11.1951 6.19723 11.1963 6.48415 11.4847ZM4.70534 8.26333C5.11218 8.26333 5.44199 8.59314 5.44199 8.99998C5.44199 9.3969 5.12808 9.7205 4.73497 9.73605L4.70534 9.73663H1.63655C1.22971 9.73663 0.899902 9.40682 0.899902 8.99998C0.899902 8.60306 1.21382 8.27946 1.60693 8.26391L1.63655 8.26333H4.70534ZM16.3668 8.26333C16.7736 8.26333 17.1034 8.59314 17.1034 8.99998C17.1034 9.3969 16.7895 9.7205 16.3964 9.73605L16.3668 9.73663H13.422C13.0152 9.73663 12.6854 9.40682 12.6854 8.99998C12.6854 8.60306 12.9993 8.27946 13.3924 8.26391L13.422 8.26333H16.3668ZM4.28844 3.2445L4.31282 3.26781L6.44387 5.39886C6.73155 5.68654 6.73155 6.15296 6.44387 6.44064C6.16419 6.72033 5.71555 6.7281 5.42647 6.46395L5.40209 6.44064L3.27104 4.30959C2.98336 4.02191 2.98336 3.55549 3.27104 3.26781C3.54251 2.99635 3.97313 2.98105 4.26253 3.2219L4.28844 3.2445ZM14.7335 3.27487C15.0125 3.5553 15.0191 4.00395 14.7542 4.29233L14.7308 4.31665L12.6582 6.37432C12.3697 6.66124 11.9033 6.66001 11.6164 6.37157C11.3374 6.09114 11.3309 5.64248 11.5958 5.35411L11.6191 5.32979L13.6918 3.27211C13.9802 2.9852 14.4466 2.98643 14.7335 3.27487ZM9.00321 0.900024C9.40013 0.900024 9.72373 1.21394 9.73928 1.60705L9.73986 1.63668V4.58293C9.73986 4.98977 9.41005 5.31958 9.00321 5.31958C8.60629 5.31958 8.28269 5.00566 8.26715 4.61256L8.26656 4.58293V1.63668C8.26656 1.22983 8.59637 0.900024 9.00321 0.900024Z" fill="#56606D"/>
</svg>
