<svg width="25" height="24" viewBox="0 0 25 24" fill="none" xmlns="http://www.w3.org/2000/svg">
<path d="M12.5 1.2002C15.9833 1.2002 19.0814 2.84925 21.0563 5.40926C20.6658 5.24878 20.2382 5.1602 19.79 5.1602C19.2217 5.1602 18.6868 5.30251 18.2187 5.55344C18.2762 5.51368 18.3349 5.47577 18.395 5.43974C16.8329 4.03495 14.7663 3.1802 12.5 3.1802C10.5465 3.1802 8.74137 3.81525 7.27976 4.89018L9.34995 4.8902C11.3879 4.8902 13.04 6.54226 13.04 8.58019C13.04 10.5973 11.4214 12.2364 9.41221 12.2697L9.34995 12.2702H7.72995C7.23289 12.2702 6.82995 12.6731 6.82995 13.1702C6.82995 13.6542 7.21197 14.0489 7.69091 14.0694L7.72995 14.0702H8.04495C9.78967 14.0702 11.2078 15.4687 11.2394 17.2058L11.24 17.3102C11.24 18.6106 10.4739 19.732 9.36842 20.2479C10.3415 20.6178 11.3971 20.8202 12.5 20.8202C13.5225 20.8202 14.5044 20.6462 15.4177 20.3262C14.1228 19.7533 13.2193 18.4573 13.2193 16.9502C13.2193 14.9331 14.8378 13.294 16.847 13.2607L16.9093 13.2602H20.3293C20.8263 13.2602 21.2293 12.8573 21.2293 12.3602C21.2293 12.0662 21.0883 11.805 20.8702 11.6408C21.8908 11.2912 22.6876 10.4595 22.9891 9.41746C23.1922 10.245 23.3 11.11 23.3 12.0002C23.3 17.9649 18.4646 22.8002 12.5 22.8002C6.53528 22.8002 1.69995 17.9649 1.69995 12.0002C1.69995 6.03552 6.53528 1.2002 12.5 1.2002ZM20.716 15.2144L20.6685 15.2204C20.5756 15.2313 20.4814 15.2378 20.386 15.2396L20.3293 15.2402H16.9093C15.9649 15.2402 15.1993 16.0058 15.1993 16.9502C15.1993 17.8783 15.9387 18.6337 16.8606 18.6595L16.9093 18.6602L18.2825 18.6603C19.3497 17.7329 20.1917 16.5534 20.716 15.2144ZM9.34995 6.8702L5.32447 6.8702C4.28927 8.31559 3.67995 10.0867 3.67995 12.0002C3.67995 14.6103 4.81368 16.9555 6.61555 18.5704L7.99995 18.5702C8.68133 18.5702 9.23639 18.0293 9.25922 17.3535L9.25995 17.3102V17.2652C9.25995 16.6084 8.73888 16.0734 8.08761 16.0509L8.04495 16.0502H7.72995C6.13937 16.0502 4.84995 14.7608 4.84995 13.1702C4.84995 11.5986 6.10885 10.3209 7.67327 10.2907L7.72995 10.2902H9.34995C10.2944 10.2902 11.06 9.5246 11.06 8.58019C11.06 7.65207 10.3205 6.89665 9.39864 6.87087L9.34995 6.8702ZM19.7279 6.51134C20.8214 6.51134 21.7079 7.39781 21.7079 8.49134C21.7079 9.58486 20.8214 10.4713 19.7279 10.4713C18.6344 10.4713 17.7479 9.58486 17.7479 8.49134C17.7479 7.39781 18.6344 6.51134 19.7279 6.51134Z" fill="white"/>
</svg>
