<svg width="18" height="18" viewBox="0 0 18 18" fill="none" xmlns="http://www.w3.org/2000/svg">
<path d="M4.83987 16.8886L1.47448 17.099C1.17636 17.1176 0.919588 16.891 0.900956 16.5929C0.899551 16.5704 0.899551 16.5479 0.900956 16.5254L1.11129 13.16C1.11951 13.0285 1.17546 12.9045 1.26864 12.8114L5.58927 8.49062L5.57296 8.43619C4.98999 6.44548 5.49345 4.26201 6.96116 2.72323L7.00936 2.67328L7.05933 2.62271C9.35625 0.325796 13.0803 0.325796 15.3772 2.62271C17.6741 4.91963 17.6741 8.64366 15.3772 10.9406C13.8503 12.4674 11.6456 13.0112 9.62856 12.4455L9.56357 12.4269L9.50918 12.4107L5.18856 16.7313C5.09538 16.8244 4.97139 16.8804 4.83987 16.8886ZM2.45229 15.5477L4.38997 15.4266L9.13372 10.6827L9.58862 10.864C11.2073 11.5091 13.072 11.1424 14.3255 9.88889C16.0416 8.17281 16.0416 5.39048 14.3255 3.6744C12.6094 1.95831 9.8271 1.95831 8.11101 3.6744C6.87177 4.91364 6.49924 6.7502 7.11424 8.3559L7.13584 8.41118L7.31711 8.86605L2.57342 13.61L2.45229 15.5477ZM10.7858 7.21411C11.3666 7.79494 12.3083 7.79494 12.8892 7.21411C13.47 6.63328 13.47 5.69157 12.8892 5.11074C12.3083 4.52991 11.3666 4.52991 10.7858 5.11074C10.205 5.69157 10.205 6.63328 10.7858 7.21411Z" fill="#56606D"/>
</svg>
