<svg width="18" height="18" viewBox="0 0 18 18" fill="none" xmlns="http://www.w3.org/2000/svg">
<path d="M8.9999 2.69995C13.4734 2.69995 17.0999 6.29647 17.0999 10.733C17.0999 12.3941 16.5915 13.9374 15.7207 15.2183H2.27915C1.40828 13.9374 0.899902 12.3941 0.899902 10.733C0.899902 6.29647 4.5264 2.69995 8.9999 2.69995ZM8.9999 4.17268C5.33704 4.17268 2.37263 7.11259 2.37263 10.733C2.37263 11.765 2.61287 12.7593 3.06475 13.656L3.11087 13.7455H14.8889L14.8921 13.7398C15.3587 12.8462 15.6132 11.8525 15.6266 10.8192L15.6272 10.733C15.6272 7.11259 12.6628 4.17268 8.9999 4.17268ZM11.7821 8.02523C12.0678 8.29853 12.0855 8.74671 11.8279 9.04146L11.8052 9.06634L9.53203 11.4428C9.25092 11.7367 8.7848 11.7471 8.49091 11.466C8.20519 11.1927 8.18746 10.7445 8.44502 10.4497L8.46778 10.4248L10.7409 8.04836C11.022 7.75448 11.4882 7.74412 11.7821 8.02523Z" fill="#56606D"/>
</svg>
