<svg width="18" height="18" viewBox="0 0 18 18" fill="none" xmlns="http://www.w3.org/2000/svg">
<path d="M10.9748 0.900024C12.5536 0.900024 13.6073 1.15908 14.5169 1.64553C15.4265 2.13198 16.1403 2.84582 16.6268 3.7554C17.1132 4.66498 17.3723 5.71873 17.3723 7.29751V7.29918C17.3723 8.87796 17.1132 9.93171 16.6268 10.8413C16.1403 11.7509 15.4265 12.4647 14.5169 12.9512C13.6073 13.4376 12.5536 13.6967 10.9748 13.6967H5.98505L0.899994 17.1V7.84998C0.899994 5.60824 1.15905 4.66498 1.6455 3.7554C2.13194 2.84582 2.84579 2.13198 3.75537 1.64553L3.82823 1.6071C4.71618 1.14545 5.66799 0.900024 7.84995 0.900024H10.9748ZM10.9748 2.3975H7.76594L7.59978 2.39853C5.9408 2.41256 5.19794 2.57221 4.46158 2.96602C3.81296 3.31291 3.31288 3.81299 2.96599 4.46161L2.92859 4.53296C2.54961 5.27107 2.40217 6.04506 2.39747 7.76597V14.404L5.59297 12.1992H10.9748C12.2549 12.1992 13.0882 12.0171 13.8107 11.6307C14.4593 11.2838 14.9594 10.7837 15.3063 10.1351C15.6839 9.42902 15.8664 8.61715 15.8745 7.38577L15.8748 7.29918V7.29751C15.8748 6.01736 15.6927 5.18409 15.3063 4.46161C14.9594 3.81299 14.4593 3.31291 13.8107 2.96602C13.1046 2.58842 12.2928 2.40589 11.0614 2.39779L10.9748 2.3975Z" fill="#56606D"/>
</svg>
