<svg width="18" height="18" viewBox="0 0 18 18" fill="none" xmlns="http://www.w3.org/2000/svg">
<path d="M13.9519 0.900024C14.9905 0.900024 15.8325 1.74202 15.8325 2.78067V16.5214C15.8325 16.8409 15.5734 17.1 15.2539 17.1C15.0952 17.1 14.9436 17.0349 14.8343 16.9199L9.44551 11.2481C9.11532 10.9006 8.56592 10.8865 8.21839 11.2167C8.20766 11.2269 8.19719 11.2374 8.18699 11.2481L2.79816 16.9199C2.57803 17.1516 2.21176 17.161 1.98007 16.9409C1.86509 16.8316 1.79999 16.68 1.79999 16.5214V2.78067C1.79999 1.74202 2.64198 0.900024 3.68064 0.900024H13.9519ZM13.9519 2.49134H3.68064C3.52811 2.49134 3.40314 2.60937 3.3921 2.75908L3.39131 2.78067V13.9854L7.03335 10.152C7.04779 10.1368 7.06243 10.1218 7.07726 10.107L7.1223 10.0631C8.09402 9.13985 9.62275 9.16649 10.5619 10.1137L10.5992 10.152L14.2412 13.9853V2.78067C14.2412 2.62814 14.1232 2.50318 13.9735 2.49214L13.9519 2.49134Z" fill="#56606D"/>
</svg>
