<svg width="16" height="16" viewBox="0 0 16 16" fill="none" xmlns="http://www.w3.org/2000/svg">
<path d="M8 0.800049C11.9765 0.800049 15.2 4.02361 15.2 8.00007C15.2 11.9765 11.9765 15.2001 8 15.2001C4.02355 15.2001 0.800003 11.9765 0.800003 8.00007C0.800003 4.02361 4.02355 0.800049 8 0.800049ZM8 2.12005C4.75257 2.12005 2.12 4.75263 2.12 8.00007C2.12 11.2475 4.75257 13.8801 8 13.8801C11.2474 13.8801 13.88 11.2475 13.88 8.00007C13.88 4.75263 11.2474 2.12005 8 2.12005ZM8.6 4.70043V8.49687C8.6 8.86138 8.30451 9.15688 7.94 9.15688C7.58439 9.15688 7.29446 8.87562 7.28053 8.52342L7.28 8.49687V4.74435C7.28 4.37614 7.572 4.07426 7.94 4.06202C8.29258 4.05029 8.58792 4.3266 8.59965 4.67918C8.59988 4.68626 8.6 4.69334 8.6 4.70043ZM8.6 11.0604V11.1369C8.6 11.5014 8.30451 11.7969 7.94 11.7969C7.58439 11.7969 7.29446 11.5156 7.28053 11.1634L7.28 11.1369V11.1044C7.28 10.7362 7.572 10.4343 7.94 10.422C8.29258 10.4103 8.58792 10.6866 8.59965 11.0392C8.59988 11.0463 8.6 11.0534 8.6 11.0604Z" fill="#929FB1"/>
</svg>
