<svg width="32" height="32" viewBox="0 0 32 32" fill="none" xmlns="http://www.w3.org/2000/svg">
<rect x="0.5" y="0.5" width="31" height="31" rx="7.5" fill="white" stroke="#EBEEF1"/>
<path d="M16.9452 7C17.4186 7 17.8726 7.18807 18.2074 7.52283L22.9068 12.2221C23.2416 12.5569 23.4297 13.0109 23.4297 13.4844V22.1736C23.4297 23.7346 22.1642 25 20.6032 25H11.8264C10.2654 25 9 23.7346 9 22.1736V9.82655C9 8.26555 10.2654 7 11.8264 7H16.9452ZM16.2147 8.63635H11.8264C11.1816 8.63635 10.6565 9.14932 10.6369 9.78948L10.6364 9.82655V22.1736C10.6364 22.8184 11.1493 23.3435 11.7894 23.3631L11.8264 23.3636H20.6032C21.2481 23.3636 21.7732 22.8507 21.7927 22.2106L21.7933 22.1736V14.2148L17.033 14.2149C16.5922 14.2149 16.2327 13.8663 16.2155 13.4297L16.2148 13.3968L16.2147 8.63635ZM20.9491 12.5785L17.851 9.48056L17.8512 12.5786L20.9491 12.5785Z" fill="#FF458B"/>
<path d="M12 20V17H13.3211C13.5482 17 13.747 17.0439 13.9173 17.1318C14.0877 17.2197 14.2202 17.3433 14.3149 17.5024C14.4095 17.6616 14.4568 17.8477 14.4568 18.0605C14.4568 18.2754 14.408 18.4614 14.3104 18.6187C14.2137 18.7759 14.0777 18.897 13.9024 18.9819C13.728 19.0669 13.5243 19.1094 13.2912 19.1094H12.5021V18.4766H13.1238C13.2214 18.4766 13.3046 18.46 13.3734 18.4268C13.4431 18.3926 13.4964 18.3442 13.5333 18.2817C13.5711 18.2192 13.5901 18.1455 13.5901 18.0605C13.5901 17.9746 13.5711 17.9014 13.5333 17.8408C13.4964 17.7793 13.4431 17.7324 13.3734 17.7002C13.3046 17.667 13.2214 17.6504 13.1238 17.6504H12.8309V20H12Z" fill="#FF458B"/>
<path d="M15.9393 20H14.7617V17H15.9273C16.2422 17 16.5141 17.0601 16.7433 17.1802C16.9734 17.2993 17.1508 17.4712 17.2753 17.6958C17.4008 17.9194 17.4636 18.1875 17.4636 18.5C17.4636 18.8125 17.4013 19.0811 17.2768 19.3057C17.1523 19.5293 16.9759 19.7012 16.7478 19.8213C16.5196 19.9404 16.2501 20 15.9393 20ZM15.5926 19.3086H15.9094C16.0608 19.3086 16.1899 19.2847 16.2965 19.2368C16.4041 19.189 16.4857 19.1064 16.5415 18.9893C16.5983 18.8721 16.6267 18.709 16.6267 18.5C16.6267 18.291 16.5978 18.1279 16.54 18.0107C16.4833 17.8936 16.3996 17.811 16.289 17.7632C16.1794 17.7153 16.0449 17.6914 15.8855 17.6914H15.5926V19.3086Z" fill="#FF458B"/>
<path d="M17.848 20V17H20V17.6563H18.6789V18.1719H19.8685V18.8281H18.6789V20H17.848Z" fill="#FF458B"/>
</svg>
