<svg width="18" height="18" viewBox="0 0 18 18" fill="none" xmlns="http://www.w3.org/2000/svg">
<path d="M14.1279 3.60013C14.9368 3.60427 15.3607 3.6899 15.8015 3.92564C16.2191 4.14899 16.5509 4.48078 16.7742 4.89841C17.016 5.35051 17.0999 5.78485 17.0999 6.63492V11.9189C17.0956 12.7277 17.01 13.1517 16.7742 13.5924C16.5509 14.0101 16.2191 14.3419 15.8015 14.5652C15.372 14.7949 14.9585 14.8821 14.1894 14.8902L14.065 14.8909H3.93484C3.08478 14.8909 2.65044 14.807 2.19834 14.5652C1.78071 14.3419 1.44891 14.0101 1.22556 13.5924C0.995867 13.163 0.908685 12.7495 0.900541 11.9804L0.899902 11.8559V6.63492C0.899902 5.78485 0.983778 5.35051 1.22556 4.89841C1.44891 4.48078 1.78071 4.14899 2.19834 3.92564C2.65044 3.68385 3.08478 3.59998 3.93484 3.59998L14.1279 3.60013ZM8.26354 4.94998L3.88469 4.95007C3.31057 4.95218 3.08417 4.99165 2.8723 5.09683L2.835 5.11608C2.65263 5.21361 2.51354 5.3527 2.41601 5.53507C2.29312 5.76486 2.2499 5.98866 2.2499 6.63492V11.9061C2.25211 12.4811 2.29171 12.7073 2.39726 12.9195L2.41601 12.9558C2.51354 13.1382 2.65263 13.2772 2.835 13.3748C3.06478 13.4977 3.28858 13.5409 3.93484 13.5409H8.26354V4.94998ZM14.1151 4.95007L9.61354 4.94998V13.5408L14.1151 13.5408C14.6727 13.5387 14.9023 13.5014 15.1092 13.4029L15.1285 13.3935L15.1648 13.3748C15.3472 13.2772 15.4863 13.1382 15.5838 12.9558C15.7067 12.726 15.7499 12.5022 15.7499 11.8559L15.7498 6.58476C15.7477 6.01064 15.7082 5.78424 15.603 5.57238L15.5838 5.53507C15.4863 5.3527 15.3472 5.21361 15.1648 5.11608L15.145 5.10567L15.1285 5.09734C15.1111 5.08865 15.0935 5.08041 15.0757 5.0726C15.074 5.07185 15.0722 5.07107 15.0704 5.07029L15.0757 5.0726C15.0708 5.07049 15.066 5.0684 15.0611 5.06635L15.0704 5.07029C15.0624 5.06688 15.0545 5.06355 15.0464 5.0603L15.0611 5.06635C15.0541 5.0634 15.0471 5.06052 15.0399 5.0577L15.0464 5.0603C15.0422 5.05859 15.0379 5.0569 15.0337 5.05524L15.0399 5.0577C15.0266 5.0524 15.013 5.04733 14.9991 5.04247C14.9968 5.04166 14.9944 5.04084 14.9921 5.04004L14.9991 5.04247C14.9908 5.03956 14.9823 5.03672 14.9738 5.03396C14.9475 5.02549 14.9201 5.01774 14.891 5.01068C14.887 5.00971 14.8831 5.00876 14.879 5.00782L14.891 5.01068C14.8823 5.00857 14.8735 5.00652 14.8645 5.00453L14.879 5.00782C14.8712 5.006 14.8633 5.00423 14.8553 5.00251L14.8645 5.00453C14.8564 5.00272 14.8481 5.00096 14.8397 4.99926L14.8553 5.00251C14.8479 5.00094 14.8405 4.99941 14.8329 4.99791L14.8397 4.99926C14.8153 4.99433 14.7899 4.98982 14.7631 4.9857C14.7581 4.98493 14.7531 4.98418 14.748 4.98344L14.7631 4.9857C14.7547 4.98441 14.7461 4.98316 14.7375 4.98194L14.748 4.98344C14.7246 4.98004 14.7001 4.97692 14.6745 4.97408C14.6658 4.97311 14.6569 4.97217 14.6479 4.97127C14.6354 4.97001 14.6227 4.96882 14.6097 4.96769C14.5936 4.96629 14.5771 4.96498 14.5602 4.96375C14.5551 4.96339 14.55 4.96303 14.5448 4.96268L14.5602 4.96375C14.5478 4.96286 14.5353 4.96202 14.5224 4.96122L14.5448 4.96268C14.5332 4.96189 14.5214 4.96114 14.5095 4.96044L14.5224 4.96122C14.5116 4.96055 14.5005 4.9599 14.4893 4.95929L14.5095 4.96044C14.4817 4.9588 14.4527 4.95736 14.4225 4.95612C14.4213 4.95608 14.4201 4.95603 14.4188 4.95598L14.4225 4.95612C14.4108 4.95565 14.3989 4.9552 14.3869 4.95478L14.4188 4.95598C14.3748 4.9542 14.3281 4.95284 14.2783 4.95187C14.2562 4.95144 14.2336 4.95108 14.2103 4.9508L14.1151 4.95007ZM6.2999 10.7795C6.67269 10.7795 6.9749 11.0817 6.9749 11.4545C6.9749 11.8182 6.68726 12.1147 6.32705 12.129L6.2999 12.1295H4.09081C3.71802 12.1295 3.41581 11.8273 3.41581 11.4545C3.41581 11.0908 3.70346 10.7943 4.06366 10.7801L4.09081 10.7795H6.2999ZM13.1113 10.7795C13.4841 10.7795 13.7863 11.0817 13.7863 11.4545C13.7863 11.8182 13.4986 12.1147 13.1384 12.129L13.1113 12.1295H11.5158C11.143 12.1295 10.8408 11.8273 10.8408 11.4545C10.8408 11.0908 11.1285 10.7943 11.4887 10.7801L11.5158 10.7795H13.1113ZM6.2999 8.57043C6.67269 8.57043 6.9749 8.87264 6.9749 9.24543C6.9749 9.60913 6.68726 9.90565 6.32705 9.91989L6.2999 9.92043H4.09081C3.71802 9.92043 3.41581 9.61822 3.41581 9.24543C3.41581 8.88173 3.70346 8.58521 4.06366 8.57097L4.09081 8.57043H6.2999ZM13.7249 8.57043C14.0977 8.57043 14.3999 8.87264 14.3999 9.24543C14.3999 9.60913 14.1123 9.90565 13.7521 9.91989L13.7249 9.92043H11.5158C11.143 9.92043 10.8408 9.61822 10.8408 9.24543C10.8408 8.88173 11.1285 8.58521 11.4887 8.57097L11.5158 8.57043H13.7249ZM6.2999 6.36134C6.67269 6.36134 6.9749 6.66355 6.9749 7.03634C6.9749 7.40004 6.68726 7.69656 6.32705 7.7108L6.2999 7.71134H4.09081C3.71802 7.71134 3.41581 7.40913 3.41581 7.03634C3.41581 6.67264 3.70346 6.37612 4.06366 6.36188L4.09081 6.36134H6.2999ZM13.7249 6.36134C14.0977 6.36134 14.3999 6.66355 14.3999 7.03634C14.3999 7.40004 14.1123 7.69656 13.7521 7.7108L13.7249 7.71134H11.5158C11.143 7.71134 10.8408 7.40913 10.8408 7.03634C10.8408 6.67264 11.1285 6.37612 11.4887 6.36188L11.5158 6.36134H13.7249Z" fill="#56606D"/>
</svg>
