<svg width="32" height="32" viewBox="0 0 32 32" fill="none" xmlns="http://www.w3.org/2000/svg">
<rect x="0.5" y="0.5" width="31" height="31" rx="7.5" fill="white" stroke="#EBEEF1"/>
<path d="M16.2231 7.08668L16.2547 7.10399L23.4149 11.2391C23.6543 11.3774 23.7829 11.6116 23.8006 11.8529L23.8021 11.8809L23.8027 11.9121V20.1078C23.8027 20.3739 23.6664 20.6205 23.4432 20.7624L23.4136 20.7803L16.2533 24.8968C16.0234 25.029 15.7426 25.0342 15.5088 24.9125L15.4772 24.8951L8.38642 20.7787C8.15725 20.6457 8.01254 20.4054 8.00088 20.1422L8 20.1078L8.00026 11.8975L8 11.8738C8.00141 11.6177 8.12975 11.3687 8.35943 11.2228L8.38748 11.2058L15.4783 7.10425C15.697 6.97771 15.9622 6.96636 16.1893 7.07023L16.2231 7.08668ZM22.251 13.2549L16.6424 16.4939V22.8832L22.251 19.6588V13.2549ZM9.55175 13.2614V19.6611L15.0908 22.8766V16.4916L9.55175 13.2614ZM15.8669 8.67182L10.2916 11.8967L15.8686 15.149L21.4755 11.9109L15.8669 8.67182Z" fill="#0149FF"/>
</svg>
