<svg width="24" height="25" viewBox="0 0 24 25" fill="none" xmlns="http://www.w3.org/2000/svg">
<path d="M1.20117 14.1995L1.20192 13.8995C1.21761 11.4028 1.48327 10.1109 2.17965 8.79708C2.51549 8.16345 2.9345 7.59632 3.4308 7.10432C3.8117 6.72672 4.42659 6.72939 4.80419 7.11029C5.18179 7.49119 5.17912 8.10608 4.79822 8.48368C4.44227 8.83655 4.14045 9.24506 3.89577 9.70668C3.35305 10.7306 3.14982 11.7445 3.1436 14.0311L3.14345 14.1966L3.14471 14.4135C3.16287 16.4729 3.35598 17.4639 3.83047 18.4033L3.89577 18.5293C4.3707 19.4253 5.06134 20.1222 5.94808 20.6007L6.04599 20.6525C7.02552 21.1596 8.03348 21.3511 10.2219 21.3573L13.7123 21.3574L14.0314 21.3551C15.9637 21.3315 16.9252 21.1423 17.8232 20.6909L17.9193 20.6416L17.996 20.6007C18.8827 20.1222 19.5733 19.4253 20.0483 18.5293C20.591 17.5054 20.7942 16.4915 20.8004 14.2049L20.8006 14.0394L20.7993 13.8225C20.7812 11.7631 20.5881 10.7721 20.1136 9.83268L20.0483 9.70668C19.8381 9.31013 19.5857 8.95278 19.2932 8.63627C18.9291 8.24241 18.9533 7.62799 19.3471 7.26393C19.741 6.89987 20.3554 6.92403 20.7195 7.31789C21.0976 7.72702 21.426 8.18297 21.7036 8.68499L21.7668 8.80165L21.8122 8.8884C22.4509 10.1257 22.7101 11.3783 22.7401 13.6775L22.7429 14.0365L22.7421 14.3365C22.7264 16.8332 22.4608 18.1251 21.7644 19.4389C21.1272 20.6411 20.194 21.5975 19.0103 22.2595L18.9137 22.3125L18.8277 22.3583L18.7026 22.4227C17.4921 23.0324 16.2328 23.2761 13.9546 23.2982L13.7152 23.2997H10.3324L10.089 23.2989C7.61354 23.2828 6.33012 23.0139 5.02571 22.31C3.83296 21.6664 2.88514 20.7248 2.22974 19.5316L2.17724 19.4343L2.13187 19.3476C1.46062 18.0474 1.20855 16.7302 1.20117 14.1995ZM7.55025 5.75795L7.57732 5.72979L11.323 1.98415C11.693 1.61414 12.2873 1.60512 12.6682 1.95707L12.6964 1.98415L16.442 5.72979C16.8213 6.10904 16.8213 6.72394 16.442 7.10319C16.072 7.4732 15.4777 7.48222 15.0968 7.13027L15.0686 7.10319L12.9484 4.98288V15.955C12.9484 16.4914 12.5136 16.9262 11.9772 16.9262C11.454 16.9262 11.0273 16.5123 11.0068 15.9941L11.0061 15.955V5.0475L8.95072 7.10319C8.58072 7.4732 7.98643 7.48222 7.60548 7.13027L7.57732 7.10319C7.20732 6.73319 7.19829 6.1389 7.55025 5.75795Z" fill="white"/>
</svg>
