<svg width="18" height="18" viewBox="0 0 18 18" fill="none" xmlns="http://www.w3.org/2000/svg">
<path d="M11.706 3.59998C13.56 3.59998 15.0629 5.10292 15.0629 6.9569C15.0629 7.90694 14.6654 8.79086 13.9894 9.41778L13.9419 9.46077L13.975 9.47516C15.2884 10.0527 16.3478 11.1049 16.9302 12.4334L16.9594 12.5011L16.9873 12.5683L17.0261 12.6651C17.0749 12.7964 17.0999 12.9354 17.0999 13.0756C17.0999 13.7014 16.6112 14.2154 15.9889 14.2517L15.9555 14.2532L15.9218 14.2537H7.46736C7.31149 14.2537 7.15705 14.2239 7.01235 14.166C6.38496 13.9147 6.08009 13.2024 6.33177 12.574C6.89889 11.1806 7.98433 10.0758 9.34077 9.47758L9.4077 9.44857L9.44125 9.43448L9.40493 9.40101C9.29824 9.30057 9.19818 9.19324 9.10543 9.07976L9.05066 9.01094L9.03417 8.98902L9.0049 9.02722C8.68761 9.43175 8.28058 9.76003 7.81582 9.98362L7.75487 10.0122L7.70102 10.0361L7.64881 10.0627C7.31336 10.228 6.94881 10.3264 6.57429 10.3525L6.50396 10.3566L6.43734 10.3588L6.37503 10.3595L6.31812 10.3591L6.26293 10.3594C4.61058 10.3796 3.12361 11.3273 2.39647 12.7824L2.37142 12.8333L2.34737 12.8835L4.47011 12.8836C4.82977 12.8836 5.12469 13.1608 5.15295 13.5131L5.15462 13.5411L5.15517 13.5687C5.15517 13.9378 4.86324 14.2387 4.49766 14.2532L4.47011 14.2537H2.12363C1.44778 14.2537 0.899902 13.7058 0.899902 13.03C0.899902 12.9088 0.917894 12.7885 0.954094 12.6703L0.970724 12.6198L0.98803 12.574C1.55513 11.1807 2.64051 10.0759 3.9969 9.47763L4.06383 9.44862L4.0972 9.4346L4.09132 9.42921C3.43537 8.82693 3.03867 7.98456 3.00735 7.07365L3.00583 7.01415L3.00535 6.9569C3.00535 5.10292 4.50829 3.59998 6.36227 3.59998C7.40659 3.59998 8.36889 4.08075 8.9975 4.87697L9.03417 4.92428L9.03625 4.92154C9.64136 4.12812 10.5729 3.63601 11.5924 3.60188L11.6491 3.60045L11.706 3.59998ZM11.6607 10.359L11.6067 10.3594C9.93605 10.3798 8.43442 11.3484 7.71632 12.8309L7.69118 12.8835H15.63L15.6286 12.8802C14.9368 11.4062 13.4748 10.4259 11.8323 10.3624L11.7749 10.3606L11.7188 10.3595L11.6607 10.359ZM11.706 4.97008C10.6087 4.97008 9.7192 5.85961 9.7192 6.9569C9.7192 8.05419 10.6087 8.94372 11.706 8.94372C12.8033 8.94372 13.6928 8.05419 13.6928 6.9569C13.6928 5.85961 12.8033 4.97008 11.706 4.97008ZM6.36227 4.97008C5.26498 4.97008 4.37545 5.85961 4.37545 6.9569C4.37545 8.05419 5.26498 8.94372 6.36227 8.94372C7.45956 8.94372 8.34909 8.05419 8.34909 6.9569C8.34909 5.85961 7.45956 4.97008 6.36227 4.97008Z" fill="#56606D"/>
</svg>
