<svg width="18" height="18" viewBox="0 0 18 18" fill="none" xmlns="http://www.w3.org/2000/svg">
<path d="M9.85066 0.900024C10.2768 0.900024 10.6854 1.06929 10.9867 1.37057L15.2161 5.5999C15.5174 5.9012 15.6867 6.30985 15.6867 6.73596V14.5562C15.6867 15.9611 14.5478 17.1 13.1429 17.1H5.2438C3.8389 17.1 2.70001 15.9611 2.70001 14.5562V3.44392C2.70001 2.03902 3.8389 0.900024 5.2438 0.900024H9.85066ZM9.19322 2.37274H5.2438C4.66346 2.37274 4.19087 2.83442 4.17324 3.41055L4.17273 3.44392V14.5562C4.17273 15.1366 4.63434 15.6092 5.21044 15.6268L5.2438 15.6273H13.1429C13.7233 15.6273 14.1959 15.1657 14.2135 14.5896L14.214 14.5562V7.39337L9.92972 7.39348C9.53296 7.39348 9.20949 7.07968 9.19394 6.68673L9.19336 6.65712L9.19322 2.37274ZM13.4542 5.92065L10.6659 3.13253L10.6661 5.92076L13.4542 5.92065Z" fill="#56606D"/>
</svg>
