<svg width="18" height="18" viewBox="0 0 18 18" fill="none" xmlns="http://www.w3.org/2000/svg">
<path d="M10.404 0.900024C11.1434 0.900024 11.7428 1.49941 11.7428 2.23884L11.7428 2.45717C11.7427 2.95367 12.1452 3.35618 12.6417 3.35619C12.7996 3.35619 12.9546 3.31465 13.0913 3.23575L13.2804 3.12657C13.9207 2.75688 14.7395 2.97628 15.1093 3.61663L16.7159 6.39936C17.0791 7.02847 16.8737 7.82985 16.2592 8.20837L16.2258 8.22823L16.0368 8.33737C15.6281 8.57329 15.4881 9.09582 15.724 9.50447C15.799 9.63436 15.9068 9.74223 16.0367 9.81722L16.1589 9.88774C16.7992 10.2575 17.0186 11.0763 16.6489 11.7166L15.1093 14.3834C14.7461 15.0126 13.9493 15.2354 13.3143 14.8924L13.2804 14.8734L13.0913 14.7642C12.6613 14.516 12.1115 14.6633 11.8632 15.0933C11.7843 15.2299 11.7428 15.385 11.7428 15.5428L11.7428 15.7612C11.7428 16.4881 11.1636 17.0797 10.4415 17.0995L10.404 17.1H7.19073C6.45132 17.1 5.8519 16.5006 5.85185 15.7612L5.85185 15.6588C5.85184 15.1993 5.4793 14.8267 5.01977 14.8268C4.87371 14.8268 4.73023 14.8652 4.60374 14.9382L4.51514 14.9894C3.88603 15.3527 3.08464 15.1473 2.70612 14.5327L2.68625 14.4994L1.07964 11.7166C0.709969 11.0763 0.929356 10.2575 1.56967 9.88771L1.75883 9.77849C2.1888 9.53023 2.33611 8.98042 2.08785 8.55044C2.00894 8.41378 1.89544 8.30029 1.75877 8.22139L1.56972 8.11226C0.940552 7.74911 0.717704 6.95241 1.06064 6.31731L1.07964 6.28342L2.61931 3.61663C2.98903 2.97628 3.80785 2.75688 4.44821 3.12657L4.57027 3.19704C4.97892 3.43297 5.50146 3.29295 5.73739 2.8843C5.81237 2.75443 5.85185 2.6071 5.85185 2.45713L5.85185 2.23887C5.8519 1.49946 6.45132 0.900024 7.19073 0.900024H10.404ZM7.32468 2.37262L7.32458 2.45717C7.32457 2.86564 7.21704 3.26691 7.01281 3.62065C6.37786 4.72045 4.98075 5.10589 3.8738 4.49498L3.82789 4.46884L2.4221 6.90366L2.49507 6.94594C2.83762 7.14368 3.12497 7.42378 3.33134 7.76042L3.36325 7.81404C4.0105 8.93506 3.63858 10.3648 2.53495 11.0304L2.49523 11.0539L2.4221 11.0961L3.89496 13.6473L3.92306 13.6317C4.24088 13.4597 4.5947 13.3649 4.95592 13.3549L5.01973 13.354C6.26337 13.354 7.27697 14.339 7.32295 15.5714L7.32441 15.6273H10.2701L10.27 15.5428C10.27 15.1473 10.3689 14.7584 10.5573 14.4113L10.5878 14.3569C11.2351 13.2359 12.6593 12.8431 13.7875 13.4662L13.8277 13.4889L13.9008 13.5309L15.3066 11.0961L15.3004 11.0926C14.9643 10.8986 14.6823 10.6237 14.4799 10.2934L14.4486 10.2408C13.8136 9.141 14.1784 7.73836 15.261 7.08521L15.3004 7.06193L15.3735 7.01974L13.9008 4.46884L13.8276 4.51117C13.4851 4.70893 13.0988 4.81772 12.7041 4.8281L12.6417 4.82891C11.3466 4.82888 10.2939 3.79073 10.2704 2.50099L10.27 2.45692L10.2701 2.37275L7.32468 2.37262ZM8.91187 5.31821C10.9453 5.31821 12.5937 6.96661 12.5937 9.00003C12.5937 11.0334 10.9453 12.6818 8.91187 12.6818C6.87846 12.6818 5.23006 11.0334 5.23006 9.00003C5.23006 6.96661 6.87846 5.31821 8.91187 5.31821ZM8.91187 6.79093C7.69183 6.79093 6.70278 7.77998 6.70278 9.00003C6.70278 10.2201 7.69183 11.2091 8.91187 11.2091C10.1319 11.2091 11.121 10.2201 11.121 9.00003C11.121 7.77998 10.1319 6.79093 8.91187 6.79093Z" fill="#56606D"/>
</svg>
