<svg width="18" height="18" viewBox="0 0 18 18" fill="none" xmlns="http://www.w3.org/2000/svg">
<path d="M9.06942 1.34998C11.7077 1.34998 13.8465 3.48875 13.8465 6.12706C13.8465 7.71017 13.0764 9.11342 11.8904 9.98265C14.2697 10.8565 16.1436 12.7789 16.9535 15.1905C16.9786 15.265 17.0026 15.34 17.0255 15.4154L17.0592 15.5289C17.2168 16.0738 16.9028 16.6434 16.3578 16.801C16.2651 16.8278 16.169 16.8414 16.0724 16.8414H1.91857C1.35598 16.8414 0.899902 16.3853 0.899902 15.8227C0.899902 15.7434 0.909173 15.6644 0.927488 15.5873L0.93956 15.5412C0.972672 15.4261 1.00818 15.3119 1.04602 15.1988C1.86483 12.7523 3.77818 10.8081 6.2038 9.94935C5.04316 9.0781 4.29233 7.69026 4.29233 6.12706C4.29233 3.48875 6.4311 1.34998 9.06942 1.34998ZM9.00117 10.9724C6.16785 10.9724 3.66499 12.7017 2.62214 15.264L2.59168 15.34H15.4107L15.4101 15.3388C14.3965 12.7624 11.9142 11.0092 9.09046 10.973L9.00117 10.9724ZM9.06942 2.85135C7.26029 2.85135 5.7937 4.31793 5.7937 6.12706C5.7937 7.93619 7.26029 9.40278 9.06942 9.40278C10.8785 9.40278 12.3451 7.93619 12.3451 6.12706C12.3451 4.31793 10.8785 2.85135 9.06942 2.85135Z" fill="#56606D"/>
</svg>
