<svg width="236" height="49" viewBox="0 0 236 49" fill="none" xmlns="http://www.w3.org/2000/svg">
<path d="M22.0985 45.9676C20.1378 45.9676 18.5421 44.4048 18.4892 42.4568L8.32919 36.5913C7.80084 36.8774 7.23086 37.0182 6.66642 37.0263L6.61059 37.0267C5.36416 37.0253 4.1524 36.3778 3.48435 35.2207C2.504 33.5227 3.05957 31.3594 4.72 30.3396V18.6081C3.05957 17.5882 2.504 15.4249 3.48435 13.7269C4.14243 12.5871 5.32811 11.9418 6.5548 11.9214L6.61059 11.9209C7.19322 11.9203 7.78341 12.0608 8.3292 12.3563L18.4892 6.49065C18.5416 4.56257 20.1056 3.01181 22.0388 2.98046L22.0985 2.97998C24.0592 2.97998 25.6549 4.54275 25.7079 6.49062L35.8676 12.3565C36.396 12.0702 36.9661 11.9294 37.5307 11.9213L37.5865 11.9209C38.8329 11.9224 40.0447 12.5698 40.7127 13.7269C41.6931 15.4249 41.1375 17.5882 39.4771 18.6081V30.3396C41.1375 31.3594 41.6931 33.5227 40.7127 35.2207C40.0547 36.3605 38.869 37.0058 37.6423 37.0262L37.5865 37.0267C37.0039 37.0274 36.4137 36.8869 35.8679 36.5913L25.7079 42.457C25.6555 44.385 24.0915 45.9358 22.1583 45.9671L22.0985 45.9676ZM22.0985 8.31017L22.1453 8.30947C22.1492 8.30937 22.1531 8.30927 22.157 8.30917L22.1453 8.30947C22.161 8.30907 22.1765 8.30847 22.192 8.30767L22.157 8.30917C22.1741 8.30857 22.1911 8.30777 22.208 8.30667L22.192 8.30767C22.2079 8.30677 22.2237 8.30567 22.2394 8.30447L22.208 8.30667C22.2235 8.30577 22.239 8.30457 22.2543 8.30317L22.2394 8.30447C22.2534 8.30327 22.2673 8.30197 22.2812 8.30057L22.2543 8.30317C22.2713 8.30167 22.2882 8.29987 22.305 8.29787L22.2812 8.30057C22.2968 8.29887 22.3125 8.29697 22.3281 8.29497L22.305 8.29787C22.3193 8.29617 22.3335 8.29427 22.3476 8.29227L22.3281 8.29497C22.3457 8.29257 22.3632 8.28997 22.3807 8.28707L22.3476 8.29227C22.362 8.29017 22.3762 8.28787 22.3904 8.28547L22.3807 8.28707C22.3955 8.28467 22.4103 8.28197 22.4251 8.27917L22.3904 8.28547C22.4061 8.28277 22.4217 8.27987 22.4372 8.27677L22.4251 8.27917C22.444 8.27547 22.4629 8.27157 22.4817 8.26727L22.4372 8.27677C22.4729 8.26967 22.5083 8.26137 22.5432 8.25207C22.552 8.24977 22.5607 8.24737 22.5695 8.24487L22.5432 8.25207C22.5576 8.24827 22.5719 8.24417 22.5862 8.23997L22.5695 8.24487C22.5823 8.24127 22.595 8.23747 22.6077 8.23357L22.5862 8.23997C23.2983 8.02977 23.818 7.37095 23.818 6.59073C23.818 5.64113 23.0481 4.87132 22.0985 4.87132C21.1489 4.87132 20.3791 5.64113 20.3791 6.59073C20.3791 7.36245 20.8876 8.01547 21.5877 8.23297C21.5964 8.23577 21.6053 8.23837 21.6141 8.24097L21.5877 8.23297C21.6008 8.23707 21.614 8.24097 21.6272 8.24477L21.6141 8.24097C21.6282 8.24507 21.6424 8.24907 21.6566 8.25277L21.6272 8.24477C21.6424 8.24907 21.6577 8.25317 21.6731 8.25707L21.6566 8.25277C21.6903 8.26177 21.7244 8.26967 21.7588 8.27657C21.7643 8.27767 21.7698 8.27877 21.7752 8.27977L21.7588 8.27657C21.7748 8.27977 21.7909 8.28277 21.807 8.28547L21.7752 8.27977C21.7885 8.28227 21.8018 8.28467 21.8151 8.28687L21.807 8.28547C21.8214 8.28797 21.8359 8.29027 21.8504 8.29237L21.8151 8.28687C21.8328 8.28987 21.8506 8.29247 21.8685 8.29487L21.8504 8.29237C21.8642 8.29437 21.8781 8.29617 21.892 8.29787L21.8685 8.29487C21.8843 8.29697 21.9001 8.29887 21.916 8.30057L21.892 8.29787C21.9089 8.29987 21.9258 8.30167 21.9427 8.30317L21.916 8.30057C21.9298 8.30207 21.9437 8.30327 21.9577 8.30447L21.9427 8.30317C21.9582 8.30457 21.9736 8.30577 21.9891 8.30667L21.9577 8.30447C21.9734 8.30577 21.9892 8.30677 22.005 8.30767L21.9891 8.30667C22.006 8.30777 22.023 8.30857 22.04 8.30917L22.005 8.30767C22.036 8.30927 22.0672 8.31017 22.0985 8.31017ZM27.6879 20.1106L34.0843 16.4177C34.0797 16.3997 34.0753 16.3817 34.071 16.3637C34.0697 16.3582 34.0684 16.3525 34.0671 16.3469C34.0642 16.3345 34.0614 16.3222 34.0587 16.3099C34.0567 16.3009 34.0548 16.2918 34.0528 16.2827C34.0506 16.2722 34.0484 16.2616 34.0462 16.251C34.044 16.2398 34.0417 16.2287 34.0396 16.2175C34.0334 16.1855 34.0276 16.1534 34.0223 16.1212C34.021 16.1131 34.0197 16.1049 34.0184 16.0967C34.006 16.0181 33.9962 15.9395 33.9891 15.8608C33.9883 15.8519 33.9875 15.8431 33.9868 15.8342C33.984 15.8009 33.9817 15.7676 33.9799 15.7343C33.9797 15.7315 33.9795 15.7286 33.9794 15.7258L33.9799 15.7343C33.9789 15.7171 33.9781 15.6999 33.9774 15.6828C33.977 15.6724 33.9766 15.662 33.9762 15.6516C33.9759 15.6401 33.9756 15.6287 33.9753 15.6173C33.9751 15.6086 33.9749 15.5999 33.9748 15.5911C33.9747 15.5825 33.9746 15.5738 33.9745 15.5652C33.9744 15.5573 33.9744 15.5494 33.9744 15.5415L33.9745 15.5652C33.9729 15.3729 33.9867 15.1812 34.0155 14.9922C34.0202 14.9607 34.0254 14.9294 34.031 14.8981C34.0335 14.8844 34.036 14.8708 34.0386 14.8572C34.0441 14.8283 34.05 14.7995 34.0562 14.7708C34.0584 14.7604 34.0607 14.75 34.063 14.7397C34.0647 14.7322 34.0664 14.7248 34.0681 14.7174C34.0697 14.7104 34.0714 14.7034 34.073 14.6964C34.0762 14.6831 34.0794 14.6699 34.0827 14.6567C34.0926 14.6173 34.1031 14.578 34.1143 14.5389C34.1223 14.5109 34.1307 14.4829 34.1394 14.4551C34.1423 14.4456 34.1453 14.4362 34.1483 14.4268C34.1508 14.4191 34.1533 14.4114 34.1558 14.4037C34.1588 14.3947 34.1618 14.3858 34.1648 14.3768C34.1689 14.3646 34.1731 14.3525 34.1773 14.3404C34.1794 14.3345 34.1814 14.3286 34.1836 14.3226C34.1878 14.3108 34.192 14.299 34.1963 14.2873C34.1972 14.2848 34.1982 14.2823 34.1991 14.2797C34.2047 14.2645 34.2104 14.2495 34.2162 14.2345C34.2297 14.1992 34.2438 14.1641 34.2585 14.1292C34.2702 14.1013 34.2823 14.0736 34.2947 14.0461C34.2989 14.0368 34.3032 14.0274 34.3075 14.0181C34.3103 14.0121 34.313 14.0061 34.3158 14.0002C34.3217 13.9876 34.3277 13.975 34.3337 13.9624C34.3379 13.9537 34.3421 13.945 34.3464 13.9363C34.3503 13.9284 34.3542 13.9205 34.3582 13.9126C34.3633 13.9023 34.3686 13.892 34.3738 13.8818C34.3771 13.8754 34.3804 13.869 34.3837 13.8626C34.3892 13.852 34.3948 13.8415 34.4003 13.831C34.4035 13.8251 34.4067 13.8192 34.4098 13.8133C34.4255 13.7842 34.4416 13.7554 34.4582 13.7267L25.2261 8.39637C25.2243 8.39957 25.2224 8.40267 25.2206 8.40587C25.2035 8.43517 25.1861 8.46407 25.1683 8.49277C25.1653 8.49767 25.1622 8.50257 25.1592 8.50737C25.1524 8.51817 25.1455 8.52897 25.1386 8.53977C25.1341 8.54677 25.1297 8.55367 25.1252 8.56057C25.1196 8.56917 25.1139 8.57777 25.1081 8.58637C25.1029 8.59427 25.0977 8.60197 25.0925 8.60977C25.0891 8.61477 25.0856 8.61987 25.0822 8.62497C25.0262 8.70687 24.967 8.78627 24.9047 8.86307C24.8866 8.88547 24.8681 8.90777 24.8494 8.92977C24.832 8.95017 24.8144 8.97047 24.7965 8.99047C24.788 8.99997 24.7795 9.00947 24.771 9.01887C24.7662 9.02407 24.7614 9.02937 24.7566 9.03457C24.7516 9.03997 24.7467 9.04537 24.7417 9.05067C24.7211 9.07287 24.7001 9.09477 24.679 9.11637C24.6124 9.18437 24.5432 9.24977 24.4715 9.31237L24.465 9.31797C24.4419 9.33797 24.4186 9.35777 24.395 9.37727C24.3911 9.38037 24.3874 9.38347 24.3836 9.38657C24.3748 9.39377 24.3659 9.40107 24.3569 9.40817C24.3489 9.41467 24.3408 9.42107 24.3327 9.42747C24.3283 9.43097 24.3239 9.43447 24.3194 9.43797C24.2903 9.46067 24.2608 9.48297 24.2309 9.50487C24.2291 9.50627 24.2274 9.50747 24.2256 9.50877C24.2166 9.51537 24.2075 9.52197 24.1984 9.52847C24.1766 9.54407 24.1547 9.55937 24.1326 9.57447L24.1233 9.58077C24.0614 9.62277 23.998 9.66297 23.9334 9.70117C23.9271 9.70487 23.9208 9.70857 23.9145 9.71227C23.8882 9.72757 23.8617 9.74257 23.835 9.75727C23.8242 9.76317 23.8135 9.76907 23.8027 9.77487C23.7964 9.77827 23.79 9.78157 23.7836 9.78497C23.7763 9.78887 23.7689 9.79277 23.7615 9.79657C23.7489 9.80317 23.7362 9.80967 23.7235 9.81607C23.7184 9.81857 23.7133 9.82117 23.7081 9.82377C23.6789 9.83837 23.6496 9.85247 23.62 9.86627C23.6132 9.86937 23.6063 9.87257 23.5995 9.87567C23.5691 9.88957 23.5387 9.90307 23.508 9.91607C23.4777 9.92887 23.4472 9.94137 23.4165 9.95337C23.3883 9.96447 23.36 9.97517 23.3315 9.98547C23.3247 9.98797 23.3179 9.99047 23.3111 9.99287C23.2979 9.99757 23.2845 10.0023 23.2712 10.0068C23.2679 10.008 23.2647 10.0091 23.2614 10.0102C23.2468 10.0151 23.2321 10.02 23.2173 10.0248C23.2118 10.0267 23.2062 10.0284 23.2007 10.0302C23.1858 10.035 23.1709 10.0396 23.156 10.0442C23.1526 10.0453 23.1492 10.0463 23.1458 10.0473C23.1335 10.051 23.121 10.0547 23.1086 10.0583C23.0979 10.0614 23.0873 10.0645 23.0766 10.0675C23.0739 10.0682 23.0712 10.069 23.0685 10.0697L23.0686 17.0235C25.0441 17.2677 26.7406 18.4447 27.6879 20.1106ZM16.8381 20.2572C17.7219 18.5973 19.3202 17.4215 21.1773 17.0791V10.0829C21.1565 10.0775 21.1358 10.0718 21.1151 10.066C21.106 10.0634 21.0969 10.0608 21.0878 10.0581C21.0181 10.0379 20.9492 10.0155 20.8813 9.99117C20.8753 9.98897 20.8692 9.98687 20.8632 9.98467C20.8499 9.97977 20.8366 9.97487 20.8234 9.96987C20.8188 9.96817 20.8141 9.96637 20.8094 9.96457C20.7968 9.95977 20.7843 9.95487 20.7718 9.94997C20.7654 9.94737 20.759 9.94487 20.7526 9.94227C20.7383 9.93657 20.7241 9.93067 20.7099 9.92477C20.7059 9.92317 20.7019 9.92147 20.6979 9.91977C20.6662 9.90647 20.6348 9.89267 20.6037 9.87847C20.5951 9.87457 20.5867 9.87067 20.5783 9.86677C20.5532 9.85517 20.5283 9.84317 20.5035 9.83097C20.4881 9.82337 20.4728 9.81567 20.4576 9.80787C20.4485 9.80327 20.4394 9.79857 20.4303 9.79387C20.4265 9.79187 20.4228 9.78987 20.419 9.78787C20.4047 9.78037 20.3903 9.77267 20.3761 9.76497C20.371 9.76217 20.3659 9.75937 20.3607 9.75657C20.352 9.75177 20.3433 9.74687 20.3346 9.74207C20.3071 9.72657 20.2798 9.71077 20.2527 9.69467C20.2468 9.69117 20.241 9.68767 20.2351 9.68417C20.2239 9.67737 20.2127 9.67047 20.2015 9.66357C20.1945 9.65927 20.1875 9.65487 20.1806 9.65057C20.1737 9.64617 20.1667 9.64177 20.1598 9.63737C20.1518 9.63227 20.1438 9.62717 20.1359 9.62207C20.1106 9.60557 20.0854 9.58877 20.0604 9.57157C20.0516 9.56567 20.0428 9.55957 20.0341 9.55347C19.9895 9.52227 19.9456 9.49017 19.9025 9.45707C19.8941 9.45067 19.8858 9.44427 19.8775 9.43777L19.8708 9.43257C19.8358 9.40507 19.8013 9.37687 19.7674 9.34817C19.7589 9.34107 19.7506 9.33397 19.7423 9.32677C19.7337 9.31937 19.7251 9.31187 19.7165 9.30437C19.7106 9.29917 19.7047 9.29397 19.6989 9.28877C19.6941 9.28447 19.6894 9.28027 19.6847 9.27607C19.6166 9.21477 19.5508 9.15097 19.4876 9.08477C19.4818 9.07877 19.476 9.07267 19.4703 9.06657C19.4442 9.03887 19.4186 9.01087 19.3934 8.98237L19.3919 8.98057C19.3476 8.93047 19.3047 8.87907 19.2632 8.82657C19.2569 8.81867 19.2507 8.81077 19.2445 8.80287C19.2389 8.79547 19.2332 8.78807 19.2275 8.78067C19.2215 8.77287 19.2156 8.76507 19.2097 8.75727C19.2054 8.75137 19.2011 8.74557 19.1968 8.73977C19.189 8.72947 19.1814 8.71897 19.1737 8.70847C19.1691 8.70207 19.1645 8.69567 19.1599 8.68917C19.1539 8.68087 19.148 8.67247 19.1421 8.66417C19.137 8.65687 19.132 8.64967 19.1269 8.64237C19.1202 8.63267 19.1137 8.62317 19.1071 8.61347C19.1026 8.60677 19.0981 8.60007 19.0936 8.59327C19.0549 8.53537 19.0178 8.47627 18.9825 8.41607L18.9711 8.39637L9.73887 13.7266C9.75838 13.7605 9.77694 13.7939 9.79496 13.8277C9.80117 13.8393 9.80729 13.8509 9.81336 13.8626C9.81791 13.8713 9.82241 13.88 9.82687 13.8888C9.82949 13.8939 9.83211 13.8991 9.83471 13.9043C9.85071 13.936 9.86625 13.968 9.88131 14.0002C9.8841 14.0062 9.88685 14.0121 9.88959 14.0181C9.89489 14.0296 9.90013 14.0411 9.90531 14.0526C9.90774 14.0581 9.91015 14.0635 9.91254 14.0689C9.91785 14.0809 9.9231 14.0929 9.92828 14.105C9.94997 14.1555 9.97048 14.2065 9.98981 14.2578C10.0083 14.307 10.0258 14.3565 10.0422 14.4065C10.0442 14.4126 10.0462 14.4188 10.0482 14.4251C10.0725 14.5007 10.0944 14.5771 10.1137 14.6542C10.1159 14.6629 10.1181 14.6717 10.1202 14.6805C10.1275 14.7105 10.1344 14.7405 10.1409 14.7706C10.1425 14.778 10.144 14.7852 10.1456 14.7925C10.1485 14.8065 10.1514 14.8206 10.1542 14.8347C10.1554 14.8413 10.1567 14.8478 10.1579 14.8543C10.1679 14.9063 10.1767 14.9585 10.1844 15.0109C10.1872 15.0296 10.1898 15.0482 10.1922 15.0669C10.1955 15.0919 10.1985 15.1168 10.2012 15.1418C10.2069 15.1943 10.2115 15.2469 10.215 15.2996C10.2157 15.31 10.2163 15.3205 10.2169 15.3309C10.2174 15.3389 10.2178 15.347 10.2182 15.3551C10.2199 15.389 10.2211 15.423 10.2219 15.4571C10.2227 15.4931 10.2229 15.5292 10.2226 15.5653C10.2225 15.5739 10.2224 15.5826 10.2223 15.5913C10.2222 15.5977 10.2221 15.6041 10.2219 15.6105C10.2212 15.645 10.22 15.6797 10.2183 15.7143C10.2177 15.7266 10.217 15.7389 10.2163 15.7513C10.2158 15.7597 10.2152 15.7681 10.2147 15.7765C10.2142 15.7833 10.2137 15.7901 10.2132 15.7969C10.2103 15.8367 10.2068 15.8765 10.2026 15.9163C10.1938 15.9982 10.1823 16.08 10.1678 16.1617C10.1664 16.1696 10.165 16.1775 10.1636 16.1854C10.1617 16.1955 10.1598 16.2055 10.1579 16.2156C10.1521 16.2455 10.1459 16.2754 10.1394 16.3053C10.1339 16.3302 10.1282 16.3551 10.1222 16.3799L16.8381 20.2572ZM38.4454 17.0213C39.2678 16.5465 39.5496 15.495 39.0748 14.6726C38.6 13.8502 37.5484 13.5684 36.726 14.0432C36.0778 14.4175 35.7654 15.1501 35.8948 15.8464C35.896 15.8532 35.8973 15.86 35.8986 15.8668L35.8948 15.8464C35.8972 15.8593 35.8997 15.8722 35.9024 15.885L35.8986 15.8668C35.9019 15.8833 35.9054 15.8998 35.9092 15.9163L35.9024 15.885C35.9061 15.9024 35.91 15.9197 35.9142 15.937L35.9092 15.9163C35.9123 15.9299 35.9156 15.9434 35.9191 15.957L35.9142 15.937C35.9178 15.9518 35.9215 15.9665 35.9255 15.9812L35.9191 15.957C35.9232 15.973 35.9276 15.9891 35.9322 16.0051L35.9255 15.9812C35.9292 15.9949 35.9331 16.0086 35.9372 16.0222L35.9322 16.0051C35.9467 16.0557 35.9636 16.1058 35.9829 16.1553C35.9856 16.1623 35.9884 16.1692 35.9912 16.1762L35.9829 16.1553C35.989 16.171 35.9954 16.1866 36.002 16.2021L35.9912 16.1762C35.997 16.1904 36.003 16.2046 36.0091 16.2188L36.002 16.2021C36.0075 16.2152 36.0132 16.2282 36.0191 16.2411L36.0091 16.2188C36.0165 16.2356 36.0241 16.2523 36.032 16.269L36.0191 16.2411C36.0254 16.2551 36.0319 16.2689 36.0387 16.2827L36.032 16.269C36.0386 16.2827 36.0453 16.2964 36.0522 16.31L36.0387 16.2827C36.0468 16.2995 36.0553 16.3162 36.064 16.3329L36.0522 16.31C36.0621 16.3295 36.0725 16.349 36.0833 16.3683L36.0967 16.392C36.1202 16.4328 36.1452 16.4723 36.1716 16.5106C36.1754 16.516 36.1792 16.5214 36.183 16.5268L36.1716 16.5106C36.1901 16.5373 36.2092 16.5633 36.2289 16.5888C36.2324 16.5933 36.2359 16.5977 36.2393 16.602L36.2289 16.5888C36.237 16.5991 36.2451 16.6094 36.2534 16.6195L36.2393 16.602C36.2504 16.6161 36.2618 16.6299 36.2733 16.6435L36.2534 16.6195C36.2627 16.631 36.2722 16.6423 36.2818 16.6535L36.2733 16.6435C36.2819 16.6537 36.2906 16.6638 36.2995 16.6738L36.2818 16.6535C36.3048 16.6804 36.3286 16.7065 36.3532 16.7317C36.3708 16.7499 36.3889 16.7676 36.4073 16.7849C36.4243 16.801 36.4416 16.8167 36.4592 16.832C36.4688 16.8402 36.4783 16.8483 36.4879 16.8562L36.4592 16.832C36.4706 16.8418 36.482 16.8515 36.4936 16.861L36.4879 16.8562C37.0257 17.302 37.8051 17.3911 38.4454 17.0213ZM7.80324 16.7722L7.8171 16.7587C7.83465 16.7414 7.85185 16.7237 7.8687 16.7056C7.87105 16.7031 7.87332 16.7007 7.87559 16.6982L7.8687 16.7056C7.87927 16.6943 7.8897 16.6828 7.89999 16.6711L7.87559 16.6982C7.88681 16.686 7.89789 16.6736 7.9088 16.6611L7.89999 16.6711C7.91067 16.659 7.92121 16.6467 7.93157 16.6342L7.9088 16.6611C7.91813 16.6503 7.92735 16.6394 7.93645 16.6284L7.93157 16.6342C7.94035 16.6237 7.949 16.613 7.95754 16.6023L7.93645 16.6284C7.94845 16.6138 7.96024 16.5991 7.97181 16.5841L7.95754 16.6023C7.96725 16.59 7.97681 16.5776 7.98621 16.5651L7.97181 16.5841C7.98052 16.5728 7.98909 16.5614 7.99754 16.5498L7.98621 16.5651C7.99533 16.5529 8.0043 16.5406 8.01313 16.5281L7.99754 16.5498C8.00713 16.5367 8.01656 16.5234 8.02583 16.51L8.01313 16.5281C8.04409 16.4845 8.07323 16.4391 8.10041 16.392C8.10495 16.3841 8.10942 16.3762 8.11382 16.3683L8.10041 16.392C8.12061 16.357 8.13945 16.3216 8.15693 16.2858C8.1612 16.2771 8.1654 16.2683 8.16952 16.2595L8.15693 16.2858C8.16189 16.2757 8.16675 16.2655 8.17149 16.2553L8.16952 16.2595C8.17627 16.245 8.18281 16.2305 8.18914 16.216C8.19101 16.2117 8.19285 16.2074 8.19468 16.2031L8.18914 16.216C8.21683 16.1523 8.24044 16.0875 8.26001 16.0218C8.26122 16.0178 8.2624 16.0137 8.26357 16.0097L8.26001 16.0218C8.26443 16.007 8.26865 15.9921 8.27266 15.9772L8.26357 16.0097C8.26817 15.9938 8.27254 15.9779 8.27666 15.962L8.27266 15.9772C8.27647 15.963 8.2801 15.9488 8.28354 15.9346L8.27666 15.962C8.28494 15.93 8.29225 15.8978 8.29862 15.8656C8.29958 15.8612 8.30044 15.8567 8.30129 15.8523L8.29862 15.8656C8.43736 15.1637 8.12527 14.421 7.47106 14.0432C6.64868 13.5684 5.59711 13.8502 5.12231 14.6726C4.64751 15.495 4.92927 16.5465 5.75165 17.0213C6.43044 17.4132 7.26538 17.2897 7.80324 16.7722ZM9.12888 30.8257L13.2249 28.4608C12.5285 27.6033 12.1111 26.5101 12.1111 25.3193C12.1111 23.5273 13.0563 21.9561 14.4755 21.0772L9.21203 18.0383C9.19069 18.0605 9.16911 18.0824 9.14729 18.1039C9.10954 18.1412 9.07109 18.1775 9.03195 18.2128C8.87312 18.3563 8.70305 18.4841 8.52413 18.5956C8.45446 18.639 8.38345 18.68 8.31126 18.7184L8.30903 18.7196C8.27624 18.737 8.2432 18.7539 8.20992 18.7703C8.16205 18.7939 8.11375 18.8164 8.06502 18.8378C8.04864 18.845 8.03223 18.852 8.01577 18.8589C7.97847 18.8747 7.94089 18.8898 7.90307 18.9042C7.87879 18.9135 7.85449 18.9225 7.83011 18.9312C7.78444 18.9476 7.73843 18.963 7.69214 18.9775C7.6639 18.9864 7.63557 18.9949 7.60714 19.003C7.55714 19.0174 7.50682 19.0306 7.45624 19.0428C7.42617 19.0501 7.39596 19.0569 7.36567 19.0634C7.33669 19.0696 7.30759 19.0755 7.27842 19.081C7.27251 19.0821 7.26668 19.0832 7.26084 19.0842C7.23884 19.0883 7.21674 19.0921 7.19459 19.0957C7.16531 19.1005 7.13602 19.105 7.10668 19.1091C7.10353 19.1095 7.10043 19.1099 7.09734 19.1104C7.09125 19.1112 7.08508 19.112 7.07891 19.1128C7.04461 19.1173 7.01027 19.1213 6.97586 19.1249C6.94264 19.1283 6.90944 19.1312 6.8762 19.1337C6.86846 19.1342 6.86072 19.1348 6.85298 19.1353C6.81923 19.1376 6.78541 19.1394 6.75156 19.1408C6.74468 19.1411 6.73782 19.1413 6.73095 19.1416C6.70995 19.1423 6.68894 19.1428 6.66791 19.1431L6.61212 19.1436L6.61135 29.804C6.72301 29.8041 6.83515 29.8094 6.94588 29.8198C6.96567 29.8217 6.98541 29.8237 7.00512 29.8259C7.05027 29.8309 7.09534 29.8367 7.14026 29.8434C7.17164 29.8481 7.20291 29.8531 7.2341 29.8586C7.27583 29.8659 7.31741 29.874 7.35883 29.8828C7.39208 29.8898 7.42515 29.8973 7.45812 29.9053L7.51776 29.9202C7.62936 29.9492 7.73956 29.9834 7.84797 30.0229C7.8731 30.032 7.89803 30.0414 7.92285 30.0511C7.97463 30.0712 8.02552 30.0924 8.07593 30.1147C8.08453 30.1185 8.09321 30.1224 8.10187 30.1263C8.12264 30.1357 8.14324 30.1452 8.16374 30.155C8.20265 30.1735 8.24126 30.1927 8.27954 30.2125C8.3864 30.2681 8.49069 30.329 8.59197 30.3954C8.61756 30.4121 8.64295 30.4292 8.66813 30.4466C8.67841 30.4537 8.6887 30.4609 8.69894 30.4682C8.73074 30.4907 8.76219 30.5137 8.7933 30.5373C8.91028 30.6259 9.0224 30.7221 9.12888 30.8257ZM35.0965 30.7988L35.1157 30.7803C35.1782 30.7217 35.2425 30.6656 35.3085 30.612C35.4252 30.5172 35.5471 30.4304 35.6734 30.3518L35.6753 30.3506C35.7028 30.3334 35.7306 30.3167 35.7585 30.3003C35.7651 30.2965 35.7717 30.2926 35.7783 30.2888L35.7585 30.3003C35.8125 30.2687 35.8672 30.2386 35.9226 30.2099C36.0017 30.169 36.0821 30.1311 36.1637 30.0962C36.2861 30.0438 36.4112 29.9983 36.5385 29.9598C36.5472 29.9571 36.556 29.9545 36.5647 29.9519C36.5931 29.9436 36.6217 29.9355 36.6503 29.9279C36.6971 29.9153 36.7442 29.9037 36.7914 29.893C36.8025 29.8905 36.8137 29.8881 36.8248 29.8857C36.8566 29.8788 36.8884 29.8724 36.9203 29.8664C36.9231 29.8658 36.9259 29.8653 36.9287 29.8648C36.9447 29.8618 36.9607 29.859 36.9767 29.8562L36.9287 29.8648C36.9532 29.8603 36.9777 29.856 37.0023 29.8519C37.0347 29.8466 37.0671 29.8417 37.0997 29.8373C37.1343 29.8326 37.1689 29.8283 37.2037 29.8246C37.2096 29.824 37.2157 29.8233 37.2217 29.8227C37.2542 29.8194 37.2867 29.8165 37.3193 29.8141C37.3275 29.8135 37.3358 29.8129 37.344 29.8123C37.3764 29.8101 37.4087 29.8084 37.4411 29.807C37.4495 29.8067 37.4579 29.8064 37.4663 29.8061C37.4701 29.806 37.4738 29.8058 37.4776 29.8057C37.5135 29.8046 37.5496 29.804 37.5856 29.804V19.1436C37.5191 19.1436 37.4521 19.1417 37.3859 19.1379C37.3583 19.1364 37.3307 19.1345 37.3032 19.1323C37.2661 19.1294 37.229 19.1258 37.192 19.1218C37.1534 19.1175 37.1148 19.1126 37.0764 19.1071C37.0503 19.1034 37.0243 19.0994 36.9984 19.0951C36.9671 19.0899 36.9358 19.0843 36.9047 19.0783C36.8748 19.0726 36.8451 19.0664 36.8154 19.0599C36.7303 19.0413 36.6459 19.0197 36.5624 18.995C36.4654 18.9663 36.37 18.9338 36.2761 18.8973C36.2423 18.8842 36.2087 18.8705 36.1752 18.8564C36.1646 18.8519 36.1539 18.8473 36.1433 18.8427C36.0987 18.8233 36.0546 18.803 36.0108 18.7819C35.988 18.7708 35.9652 18.7595 35.9426 18.748C35.8722 18.7121 35.8029 18.6739 35.7348 18.6333C35.7142 18.621 35.6936 18.6085 35.6731 18.5957L35.6215 18.5629C35.6043 18.5518 35.5871 18.5405 35.5701 18.5291C35.3707 18.3951 35.1836 18.2405 35.012 18.066L28.4959 21.8279C30.5706 22.0885 32.1805 23.8426 32.2152 25.9797L32.2157 26.05C32.2157 27.0209 31.8906 27.9159 31.3433 28.6319L35.0965 30.7988ZM21.8761 28.4142H27.9602C29.2659 28.4142 30.3244 27.3557 30.3244 26.05C30.3244 24.7443 29.2659 23.6859 27.9602 23.6859L26.6576 23.6858L26.5877 22.816C26.409 20.5941 24.547 18.8678 22.3032 18.8678C20.5108 18.8678 18.9258 19.9749 18.2912 21.6192L18.0577 22.2244H17.0973C15.3881 22.2244 14.0024 23.61 14.0024 25.3193C14.0024 27.0286 15.3881 28.4142 17.0973 28.4142H21.7199C21.741 28.4142 21.7615 28.414 21.7816 28.4136L21.8019 28.4132L21.8491 28.4141L21.8761 28.4142ZM18.9711 40.5511L18.9814 40.5335C18.9963 40.5079 19.0116 40.4825 19.0272 40.4574C19.032 40.4496 19.0369 40.4419 19.0417 40.4342C19.0461 40.4273 19.0504 40.4204 19.0549 40.4135C19.0602 40.4051 19.0656 40.3968 19.071 40.3884C19.1175 40.3171 19.1664 40.2476 19.2176 40.1799C19.2428 40.1466 19.2685 40.1138 19.2948 40.0815C19.3372 40.0294 19.381 39.9784 19.4261 39.9287C19.4303 39.9242 19.4344 39.9196 19.4386 39.9151C19.4469 39.906 19.4554 39.8969 19.4638 39.8879C19.4683 39.8831 19.4728 39.8784 19.4772 39.8737C19.4859 39.8645 19.4946 39.8554 19.5034 39.8463C19.5808 39.7664 19.6617 39.6901 19.7461 39.6176C19.784 39.585 19.8226 39.5531 19.8619 39.5221C19.8671 39.518 19.8723 39.5139 19.8776 39.5098C19.887 39.5025 19.8963 39.4952 19.9057 39.488C19.9141 39.4816 19.9226 39.4752 19.931 39.4688C19.9366 39.4646 19.9422 39.4605 19.9478 39.4563C19.9727 39.4378 19.9977 39.4197 20.023 39.4019C20.0299 39.3971 20.0368 39.3923 20.0437 39.3875C20.0679 39.3707 20.0924 39.3541 20.1171 39.3379C20.1279 39.3308 20.1386 39.3238 20.1495 39.3168C20.1801 39.2972 20.2109 39.278 20.2421 39.2593C20.2491 39.2551 20.256 39.251 20.263 39.2468C20.2887 39.2316 20.3146 39.2167 20.3407 39.2022C20.3478 39.1982 20.3549 39.1943 20.3621 39.1903C20.371 39.1854 20.3799 39.1806 20.3888 39.1758C20.4168 39.1607 20.4451 39.146 20.4736 39.1316C20.478 39.1293 20.4825 39.1271 20.487 39.1248C20.4979 39.1194 20.5088 39.114 20.5198 39.1087C20.5277 39.1048 20.5356 39.101 20.5435 39.0972C20.57 39.0846 20.5966 39.0722 20.6234 39.0602C20.65 39.0483 20.6767 39.0367 20.7035 39.0255C20.7345 39.0125 20.7658 38.9999 20.7973 38.9877C20.8325 38.9741 20.868 38.961 20.9037 38.9485C20.9086 38.9468 20.9135 38.9451 20.9184 38.9434C20.9487 38.9329 20.9792 38.9228 21.0099 38.9131C21.017 38.9109 21.024 38.9087 21.031 38.9065C21.0408 38.9035 21.0508 38.9005 21.0609 38.8975C21.0699 38.8947 21.0789 38.8921 21.0879 38.8895C21.0987 38.8863 21.1095 38.8832 21.1204 38.8802C21.1254 38.8788 21.1304 38.8774 21.1353 38.876C21.1447 38.8734 21.1542 38.8709 21.1637 38.8683L21.1774 38.8648V30.3056H17.0973C16.265 30.3056 15.4803 30.1016 14.7905 29.741L10.0925 32.4534C10.102 32.4874 10.1109 32.5216 10.1193 32.5557C10.1267 32.5859 10.1337 32.6162 10.1403 32.6465C10.1465 32.6748 10.1523 32.7031 10.1578 32.7314C10.1598 32.7422 10.1619 32.753 10.1638 32.7638C10.1658 32.7745 10.1677 32.7853 10.1696 32.7961C10.1831 32.8738 10.194 32.9517 10.2024 33.0297C10.2039 33.0439 10.2053 33.0581 10.2067 33.0723C10.2091 33.0984 10.2113 33.1245 10.2132 33.1506C10.2139 33.1594 10.2145 33.1683 10.2151 33.1772C10.2158 33.1892 10.2166 33.2013 10.2172 33.2133C10.2177 33.2216 10.2181 33.2299 10.2185 33.2381C10.2202 33.2721 10.2213 33.3062 10.222 33.3402C10.2222 33.3501 10.2224 33.3601 10.2225 33.37C10.2226 33.3776 10.2226 33.3852 10.2227 33.3928L10.2225 33.37C10.223 33.4163 10.2227 33.4626 10.2214 33.5088C10.2206 33.5379 10.2195 33.567 10.218 33.596C10.2176 33.6047 10.2171 33.6133 10.2166 33.622C10.2161 33.6306 10.2156 33.6393 10.215 33.648C10.2104 33.7189 10.2036 33.7896 10.1948 33.86C10.1923 33.8803 10.1896 33.9006 10.1867 33.9208C10.1851 33.9324 10.1834 33.9439 10.1816 33.9555L10.1867 33.9208C10.1784 33.9794 10.1686 34.0378 10.1575 34.096C10.1562 34.1026 10.1549 34.1092 10.1536 34.1158C10.1429 34.1698 10.1309 34.2235 10.1178 34.277C10.1086 34.3144 10.0988 34.3517 10.0884 34.3888C10.0864 34.3959 10.0844 34.403 10.0824 34.41C10.081 34.415 10.0795 34.4201 10.078 34.4251L10.0824 34.41C10.071 34.4498 10.0589 34.4894 10.0462 34.5288C10.0444 34.5343 10.0426 34.5398 10.0408 34.5453C10.0368 34.5573 10.0328 34.5693 10.0288 34.5812C10.0271 34.5863 10.0253 34.5913 10.0236 34.5964C10.0122 34.6292 10.0004 34.6619 9.98809 34.6944C9.96628 34.7521 9.943 34.8092 9.91826 34.8657C9.90029 34.9068 9.88153 34.9476 9.862 34.9881C9.85729 34.9978 9.85248 35.0077 9.84763 35.0175C9.84376 35.0253 9.83988 35.0331 9.83598 35.0409C9.831 35.0508 9.82594 35.0607 9.82083 35.0706C9.81763 35.0768 9.81443 35.083 9.81121 35.0892C9.80567 35.0998 9.80008 35.1104 9.79445 35.1209C9.77662 35.1543 9.75821 35.1875 9.73926 35.2204L18.9711 40.5511ZM25.226 40.5511L34.4582 35.221C34.4431 35.1949 34.4284 35.1686 34.414 35.1421C34.4102 35.135 34.4064 35.1279 34.4026 35.1208C34.397 35.1104 34.3914 35.0998 34.3859 35.0892C34.3827 35.083 34.3795 35.0768 34.3763 35.0707C34.3705 35.0594 34.3648 35.0482 34.3591 35.0369C34.3563 35.0312 34.3534 35.0255 34.3505 35.0197C34.345 35.0084 34.3394 34.9971 34.334 34.9858C34.3298 34.9772 34.3257 34.9684 34.3215 34.9597C34.3199 34.9561 34.3182 34.9526 34.3166 34.9491L34.3215 34.9597C34.3136 34.9429 34.3058 34.9261 34.2982 34.9092C34.2856 34.8814 34.2732 34.8533 34.2613 34.825L34.2599 34.8218C34.2286 34.7476 34.1998 34.6724 34.1735 34.5964C34.1718 34.5913 34.17 34.5863 34.1683 34.5812C34.1643 34.5693 34.1602 34.5573 34.1563 34.5453C34.1545 34.5398 34.1527 34.5343 34.1509 34.5288C34.1473 34.5176 34.1437 34.5063 34.1402 34.4951C34.1313 34.4668 34.1228 34.4384 34.1146 34.4099C34.1127 34.403 34.1107 34.3959 34.1087 34.3889C34.0983 34.3517 34.0885 34.3144 34.0793 34.277C34.0709 34.243 34.0631 34.2089 34.0557 34.1747C34.054 34.1667 34.0523 34.1587 34.0506 34.1506C34.044 34.1189 34.0378 34.0872 34.0321 34.0554C34.0275 34.03 34.0232 34.0046 34.0191 33.9791L34.0177 33.9702C33.9894 33.7885 33.9748 33.6043 33.9744 33.4193C33.9744 33.4106 33.9744 33.4017 33.9744 33.3929C33.9745 33.3852 33.9745 33.3776 33.9746 33.37L33.9744 33.3929C33.9745 33.3753 33.9747 33.3578 33.9751 33.3402C33.9754 33.3261 33.9757 33.312 33.9762 33.2979C33.9765 33.2889 33.9768 33.28 33.9771 33.2711C33.9776 33.2601 33.978 33.2491 33.9786 33.2381C33.9789 33.231 33.9793 33.2238 33.9797 33.2167C33.9814 33.1856 33.9834 33.1546 33.9859 33.1235C33.9869 33.1121 33.9878 33.1006 33.9889 33.0892C33.996 33.0098 34.0058 32.9303 34.0184 32.851C34.0193 32.8451 34.0202 32.8392 34.0212 32.8333C34.027 32.7977 34.0334 32.762 34.0403 32.7264C34.0416 32.72 34.0428 32.7137 34.0441 32.7073C34.0468 32.6935 34.0497 32.6797 34.0526 32.6659C34.054 32.6594 34.0554 32.653 34.0568 32.6465C34.059 32.6363 34.0613 32.6262 34.0636 32.6161C34.0662 32.6047 34.0688 32.5932 34.0715 32.5818C34.0795 32.5481 34.0881 32.5144 34.0971 32.4808C34.1009 32.4667 34.1047 32.4526 34.1087 32.4385C34.1108 32.431 34.1129 32.4236 34.1151 32.4162L29.7654 29.9048C29.2174 30.1619 28.6056 30.3056 27.9602 30.3056H23.0687V38.8779C23.0865 38.8829 23.1043 38.888 23.122 38.8932C23.1273 38.8948 23.1326 38.8964 23.138 38.898C23.1507 38.9018 23.1633 38.9057 23.1759 38.9096C23.1823 38.9116 23.1887 38.9136 23.1951 38.9156C23.2067 38.9193 23.2181 38.923 23.2296 38.9268C23.2362 38.929 23.2429 38.9312 23.2496 38.9335C23.2809 38.944 23.312 38.9549 23.3429 38.9663C23.3481 38.9682 23.3534 38.9701 23.3587 38.9721C23.3691 38.976 23.3793 38.9798 23.3896 38.9838C23.4171 38.9943 23.4445 39.0052 23.4717 39.0164C23.5126 39.0332 23.5531 39.0508 23.5932 39.0691C23.6151 39.079 23.6368 39.0891 23.6584 39.0995C23.6657 39.103 23.673 39.1066 23.6804 39.1102C23.7253 39.1321 23.7697 39.1549 23.8136 39.1786C23.8249 39.1848 23.8361 39.1909 23.8473 39.1971C23.8524 39.1999 23.8575 39.2028 23.8626 39.2056C23.872 39.2109 23.8814 39.2162 23.8907 39.2216C23.9004 39.2271 23.91 39.2327 23.9196 39.2383C23.9263 39.2422 23.933 39.2462 23.9398 39.2502C23.9513 39.257 23.9626 39.2639 23.974 39.2708C23.9775 39.2729 23.981 39.275 23.9844 39.2772C23.9979 39.2854 24.0113 39.2938 24.0247 39.3022C24.0294 39.3052 24.0341 39.3082 24.0387 39.3111C24.0472 39.3166 24.0557 39.322 24.0642 39.3275C24.0727 39.3331 24.0811 39.3386 24.0896 39.3442C24.0974 39.3494 24.1051 39.3545 24.1128 39.3597C24.1206 39.365 24.1285 39.3703 24.1363 39.3757C24.1471 39.3831 24.1579 39.3905 24.1686 39.398C24.1986 39.4191 24.2284 39.4406 24.2577 39.4626C24.2797 39.479 24.3015 39.4956 24.3231 39.5126C24.3304 39.5183 24.3376 39.524 24.3449 39.5298C24.3982 39.5722 24.4503 39.6161 24.5011 39.6614C24.5071 39.6668 24.5132 39.6722 24.5193 39.6777C24.5307 39.688 24.5419 39.6983 24.5531 39.7087C24.5569 39.7122 24.5607 39.7158 24.5645 39.7193C24.5694 39.7239 24.5743 39.7285 24.5791 39.7331C24.5888 39.7423 24.5985 39.7515 24.6081 39.7608C24.6131 39.7656 24.618 39.7704 24.6229 39.7751C24.6288 39.7809 24.6347 39.7868 24.6407 39.7927L24.6517 39.8037C24.6549 39.8068 24.658 39.81 24.6612 39.8132C24.6825 39.8347 24.7036 39.8564 24.7244 39.8785L24.7289 39.8833C24.7459 39.9013 24.7627 39.9195 24.7793 39.9379C24.7931 39.9533 24.8068 39.9687 24.8204 39.9842C24.8402 40.0069 24.8597 40.0299 24.8789 40.053C24.8841 40.0593 24.8893 40.0656 24.8944 40.0718C24.9019 40.081 24.9094 40.0903 24.9169 40.0995C24.9352 40.1223 24.9531 40.1453 24.9709 40.1686C24.9763 40.1757 24.9818 40.183 24.9873 40.1903C24.992 40.1965 24.9967 40.2028 25.0013 40.2091C25.0088 40.2192 25.0163 40.2293 25.0236 40.2395C25.0276 40.245 25.0316 40.2505 25.0356 40.256C25.0431 40.2666 25.0507 40.2773 25.0582 40.288C25.0618 40.2932 25.0655 40.2984 25.0691 40.3036C25.0757 40.3132 25.0823 40.3228 25.0888 40.3324C25.0936 40.3395 25.0985 40.3467 25.1032 40.3539C25.1393 40.4079 25.1739 40.4628 25.2071 40.5188L25.226 40.5511ZM7.47106 34.9044C8.12055 34.5294 8.43284 33.7947 8.30155 33.0972C8.30068 33.0921 8.2997 33.0871 8.2987 33.082L8.30155 33.0972C8.29626 33.0691 8.29024 33.041 8.28349 33.013C8.2543 32.892 8.21164 32.7732 8.15539 32.6587C8.15276 32.6533 8.15004 32.6479 8.1473 32.6424L8.15539 32.6587C8.1494 32.6465 8.14325 32.6343 8.13695 32.6222L8.1473 32.6424C8.13955 32.6271 8.13156 32.6118 8.1233 32.5966L8.10041 32.5556C8.07698 32.5151 8.05209 32.4757 8.02583 32.4376C8.02191 32.4319 8.01796 32.4263 8.01398 32.4207L8.02583 32.4376C8.01729 32.4253 8.00861 32.413 7.99979 32.4009L8.01398 32.4207C8.00477 32.4076 7.9954 32.3948 7.98587 32.3821L7.99979 32.4009C7.98958 32.3869 7.97918 32.3731 7.9686 32.3595L7.98587 32.3821C7.97764 32.3711 7.9693 32.3602 7.96085 32.3495L7.9686 32.3595C7.95869 32.3467 7.94861 32.3341 7.93838 32.3216L7.96085 32.3495C7.95133 32.3374 7.94168 32.3255 7.93189 32.3138L7.93838 32.3216C7.92036 32.2997 7.90185 32.2783 7.88287 32.2574C7.35064 31.6718 6.46494 31.5145 5.75165 31.9263C4.92927 32.4011 4.64751 33.4527 5.12231 34.2751C5.59711 35.0974 6.64868 35.3792 7.47106 34.9044ZM39.0748 34.2751C39.5496 33.4527 39.2678 32.4011 38.4454 31.9263C37.7936 31.55 36.9978 31.6489 36.4593 32.1156C36.4481 32.1253 36.4371 32.1351 36.4261 32.1451L36.3938 32.1755C36.376 32.1926 36.3586 32.2102 36.3414 32.2281C36.3373 32.2325 36.3331 32.2369 36.3291 32.2413L36.3414 32.2281C36.3324 32.2377 36.3234 32.2473 36.3145 32.2571L36.3291 32.2413C36.3192 32.2519 36.3094 32.2626 36.2998 32.2735L36.3145 32.2571C36.3042 32.2685 36.294 32.2799 36.2839 32.2916L36.2998 32.2735C36.2895 32.2851 36.2794 32.2968 36.2694 32.3087L36.2839 32.2916C36.274 32.3032 36.2641 32.3149 36.2544 32.3268L36.2694 32.3087C36.2386 32.3454 36.2093 32.3836 36.1814 32.4232C36.1781 32.4277 36.1749 32.4324 36.1717 32.437L36.1814 32.4232C36.1514 32.4657 36.1231 32.5099 36.0967 32.5556C36.0888 32.5693 36.0811 32.583 36.0736 32.5968C36.0708 32.6021 36.068 32.6073 36.0652 32.6126L36.0736 32.5968C36.0653 32.6122 36.0573 32.6276 36.0495 32.6431L36.0652 32.6126C36.0575 32.6272 36.05 32.6419 36.0427 32.6566L36.0495 32.6431C36.0429 32.656 36.0366 32.669 36.0304 32.682L36.0427 32.6566C36.0351 32.672 36.0278 32.6875 36.0206 32.7031L36.0304 32.682C36.0154 32.7138 36.0014 32.7459 35.9885 32.7783C35.9866 32.783 35.9848 32.7876 35.9829 32.7922L35.9885 32.7783C35.9634 32.841 35.9422 32.9046 35.9248 32.969C35.9227 32.9769 35.9206 32.9849 35.9186 32.9928L35.9248 32.969C35.9209 32.9836 35.9171 32.9982 35.9136 33.0128L35.9186 32.9928C35.915 33.0069 35.9116 33.0211 35.9084 33.0353L35.9136 33.0128C35.9096 33.0294 35.9058 33.046 35.9023 33.0626L35.9084 33.0353C35.9049 33.0505 35.9017 33.0657 35.8987 33.081L35.9023 33.0626C35.8995 33.076 35.8969 33.0893 35.8944 33.1027L35.8987 33.081C35.7594 33.7833 36.0715 34.5265 36.726 34.9044C37.5484 35.3792 38.6 35.0974 39.0748 34.2751ZM22.0985 44.0763C23.0481 44.0763 23.818 43.3065 23.818 42.3569C23.818 41.6299 23.3668 41.0083 22.7292 40.7568C22.7245 40.7548 22.7198 40.753 22.7151 40.7512L22.7292 40.7568C22.7174 40.7522 22.7056 40.7476 22.6937 40.7433L22.7151 40.7512C22.7012 40.7459 22.6872 40.7407 22.6731 40.7357L22.6937 40.7433C22.6804 40.7384 22.6671 40.7336 22.6536 40.729L22.6731 40.7357C22.659 40.7307 22.6448 40.7259 22.6306 40.7213L22.6536 40.729C22.6388 40.724 22.6238 40.7191 22.6088 40.7144L22.6306 40.7213C22.6159 40.7165 22.601 40.7119 22.5862 40.7076L22.6088 40.7144C22.5957 40.7104 22.5826 40.7065 22.5695 40.7028L22.5862 40.7076C22.5719 40.7033 22.5576 40.6993 22.5431 40.6955L22.5695 40.7028C22.554 40.6984 22.5383 40.6942 22.5226 40.6902L22.5431 40.6955C22.5082 40.6862 22.4729 40.6779 22.4372 40.6708C22.4297 40.6693 22.4221 40.6679 22.4146 40.6665L22.4372 40.6708C22.4236 40.6681 22.41 40.6656 22.3963 40.6632L22.4146 40.6665C22.3992 40.6636 22.3836 40.6609 22.368 40.6585L22.3963 40.6632C22.3799 40.6603 22.3633 40.6577 22.3467 40.6553L22.368 40.6585C22.3571 40.6567 22.3462 40.6551 22.3352 40.6536L22.3467 40.6553C22.3296 40.6528 22.3125 40.6506 22.2953 40.6486L22.3352 40.6536C22.3201 40.6515 22.3049 40.6497 22.2897 40.648L22.2953 40.6486C22.2809 40.647 22.2664 40.6455 22.2519 40.6442L22.2897 40.648C22.2733 40.6462 22.2568 40.6446 22.2403 40.6432L22.2519 40.6442C22.2357 40.6428 22.2195 40.6416 22.2032 40.6406L22.2403 40.6432C22.2246 40.642 22.2089 40.6409 22.1931 40.64L22.2032 40.6406C22.1879 40.6397 22.1725 40.639 22.1571 40.6385L22.1931 40.64C22.1618 40.6383 22.1303 40.6375 22.0985 40.6375L22.0518 40.6381C22.0479 40.6382 22.044 40.6383 22.0401 40.6384L22.0518 40.6381C22.0359 40.6385 22.0199 40.6392 22.0041 40.64L22.0401 40.6384C22.0246 40.639 22.0092 40.6397 21.9939 40.6406L22.0041 40.64C21.9883 40.6409 21.9725 40.642 21.9568 40.6432L21.9939 40.6406C21.9776 40.6416 21.9614 40.6428 21.9452 40.6442L21.9568 40.6432C21.9403 40.6446 21.9238 40.6462 21.9074 40.648L21.9452 40.6442C21.9307 40.6455 21.9162 40.647 21.9018 40.6486L21.9074 40.648C21.892 40.6497 21.8766 40.6516 21.8612 40.6537L21.9018 40.6486C21.885 40.6505 21.8683 40.6527 21.8517 40.6551L21.8612 40.6537C21.85 40.6553 21.8387 40.657 21.8275 40.6587L21.8517 40.6551C21.8346 40.6575 21.8176 40.6602 21.8006 40.6632L21.8275 40.6587C21.8139 40.6609 21.8003 40.6632 21.7867 40.6657L21.8006 40.6632C21.7866 40.6656 21.7727 40.6683 21.7588 40.671L21.7867 40.6657C21.7485 40.6727 21.7106 40.681 21.6731 40.6905C21.6676 40.6919 21.6621 40.6933 21.6566 40.6948L21.6731 40.6905C21.6577 40.6944 21.6424 40.6985 21.6272 40.7029L21.6566 40.6948C21.6424 40.6986 21.6282 40.7025 21.6142 40.7066L21.6272 40.7029C21.6135 40.7067 21.5998 40.7108 21.5862 40.715L21.6142 40.7066C21.5985 40.7112 21.583 40.716 21.5675 40.721L21.5862 40.715C21.5719 40.7195 21.5577 40.7241 21.5435 40.7289L21.5675 40.721C21.5529 40.7258 21.5384 40.7307 21.5239 40.7358L21.5435 40.7289C21.5301 40.7335 21.5167 40.7382 21.5034 40.7431L21.5239 40.7358C21.5097 40.7409 21.4955 40.7461 21.4814 40.7515L21.5034 40.7431C21.492 40.7474 21.4806 40.7517 21.4693 40.7561L21.4814 40.7515C20.8367 40.9995 20.3791 41.6248 20.3791 42.3569C20.3791 43.3065 21.1489 44.0763 22.0985 44.0763Z" fill="white"/>
<path fill-rule="evenodd" clip-rule="evenodd" d="M108.558 12.1802C115.905 12.1802 121.177 17.6487 121.177 24.408V24.4759C121.177 31.2353 115.837 36.7717 108.49 36.7717C101.144 36.7717 95.8716 31.3032 95.8716 24.5439V24.4759C95.8716 17.7167 101.212 12.1802 108.558 12.1802ZM61.982 12.2595C65.4434 12.2595 68.3959 13.3454 70.8054 15.2797L68.0905 19.2161C65.9864 17.7569 63.9163 16.8746 61.9141 16.8746C59.9119 16.8746 58.8599 17.7908 58.8599 18.9446V19.0125C58.8599 20.5735 59.8779 21.0824 63.9842 22.1344C68.8032 23.3901 71.5181 25.1207 71.5181 29.2607V29.3286C71.5181 34.0456 67.9208 36.6924 62.7964 36.6924C59.1992 36.6924 55.568 35.4368 52.7174 32.8917L55.8056 29.1928C57.9435 30.9575 60.1834 32.0774 62.8982 32.0774C65.0362 32.0774 66.3258 31.2289 66.3258 29.8376V29.7697C66.3258 28.4463 65.5113 27.7677 61.5408 26.7495C56.7558 25.5279 53.6676 24.2045 53.6676 19.4875V19.4196C53.6676 15.11 57.1291 12.2595 61.982 12.2595ZM164.966 12.5768V28.133C164.966 33.9072 161.573 36.6924 156.552 36.6924C152.854 36.6924 150.412 35.062 148.783 33.126L152.074 29.4577C153.431 30.9522 154.754 31.8353 156.417 31.8353C158.384 31.8353 159.606 30.6465 159.606 27.8953V17.8916L151.798 17.8918V12.5768H164.966ZM93.7297 12.5768V17.4044H86.5049V36.3752H81.2813V17.4044H74.0565V12.5768H93.7297ZM136.487 12.5768C142.09 12.5768 145.452 15.5346 145.452 20.4302V20.4982C145.452 24.3399 143.381 26.7538 140.358 27.8757L146.165 36.3752H140.053L134.958 28.7597H130.849V36.3752H125.62V12.5768H136.487ZM108.49 17.0191C104.271 17.0191 101.345 20.3408 101.345 24.4082V24.4759C101.345 28.5433 104.339 31.9327 108.558 31.9327C112.777 31.9327 115.704 28.611 115.704 24.5437V24.4759C115.704 20.4086 112.709 17.0191 108.49 17.0191ZM136.038 17.3364H130.855V24.1586H136.139C138.68 24.1586 140.136 22.801 140.136 20.7985V20.7306C140.136 18.4904 138.578 17.3364 136.038 17.3364Z" fill="white"/>
<rect x="176" y="12" width="51" height="24" rx="12" fill="white" fill-opacity="0.1"/>
<path d="M185.904 27H184.204L186.412 20.4545H188.519L190.727 27H189.027L187.49 22.1037H187.438L185.904 27ZM185.677 24.424H189.231V25.6257H185.677V24.424ZM194.661 27H192.242V20.4545H194.658C195.325 20.4545 195.899 20.5856 196.381 20.8477C196.864 21.1076 197.237 21.4826 197.499 21.9727C197.761 22.4606 197.892 23.0444 197.892 23.7241C197.892 24.4059 197.761 24.9918 197.499 25.4819C197.239 25.9719 196.868 26.348 196.384 26.6101C195.9 26.87 195.326 27 194.661 27ZM193.824 25.6513H194.6C194.967 25.6513 195.277 25.5895 195.531 25.4659C195.786 25.3402 195.979 25.1367 196.109 24.8555C196.241 24.5721 196.307 24.195 196.307 23.7241C196.307 23.2532 196.241 22.8782 196.109 22.5991C195.977 22.3178 195.782 22.1154 195.524 21.9918C195.268 21.8661 194.953 21.8033 194.578 21.8033H193.824V25.6513ZM199.626 20.4545H201.585L203.247 24.5071H203.324L204.986 20.4545H206.945V27H205.404V22.9794H205.35L203.778 26.9585H202.793L201.221 22.957H201.167V27H199.626V20.4545ZM210.324 20.4545V27H208.742V20.4545H210.324ZM217.698 20.4545V27H216.355L213.75 23.2223H213.709V27H212.127V20.4545H213.488L216.064 24.2259H216.119V20.4545H217.698Z" fill="white"/>
<rect x="176.5" y="12.5" width="50" height="23" rx="11.5" stroke="white" stroke-opacity="0.3"/>
</svg>
