<svg width="32" height="32" viewBox="0 0 32 32" fill="none" xmlns="http://www.w3.org/2000/svg">
    <path d="M15.7477 1.59961C21.5918 1.59961 26.3405 6.28982 26.4349 12.1114L26.4363 12.2882L26.4364 14.563C26.9585 14.9343 27.38 15.4149 27.6889 15.9924L27.7555 16.1207C28.1011 16.8071 28.2877 17.5522 28.2954 19.3754V24.5782C28.2954 26.6024 28.0847 27.3365 27.6889 28.0765C27.2931 28.8165 26.7124 29.3973 25.9723 29.7931L25.8441 29.8597C25.1576 30.2053 24.4125 30.3919 22.5894 30.3994L9.0214 30.3996C6.99717 30.3996 6.26314 30.1888 5.52311 29.7931C4.78309 29.3973 4.20231 28.8165 3.80654 28.0765L3.76081 27.9894C3.40188 27.2912 3.20786 26.5532 3.2 24.6936V19.4907C3.2 17.4665 3.41076 16.7325 3.80654 15.9924C4.11541 15.4149 4.53698 14.9343 5.05899 14.563L5.05914 12.2882C5.05914 6.38505 9.84458 1.59961 15.7477 1.59961ZM22.4741 16.2984L8.91682 16.2986L8.64989 16.3007C7.49367 16.3152 7.13522 16.3951 6.76297 16.5942C6.4811 16.7449 6.27561 16.9504 6.12486 17.2323L6.08307 17.3141C5.91438 17.662 5.843 18.0553 5.83093 19.1284L5.82905 19.4906L5.82926 24.6828L5.83141 24.9497C5.84593 26.1059 5.92578 26.4644 6.12486 26.8366C6.27561 27.1185 6.4811 27.324 6.76297 27.4747L6.84481 27.5165C7.19264 27.6852 7.58602 27.7566 8.65918 27.7687L9.0214 27.7706L22.6611 27.7701C23.9584 27.7634 24.3425 27.6833 24.7325 27.4747C25.0143 27.324 25.2198 27.1185 25.3706 26.8366L25.4124 26.7548C25.5811 26.407 25.6524 26.0136 25.6645 24.9404L25.6664 24.5782L25.6659 19.3037C25.6592 18.0064 25.5791 17.6222 25.3706 17.2323C25.2198 16.9504 25.0143 16.7449 24.7325 16.5942L24.6506 16.5524C24.3028 16.3837 23.9094 16.3123 22.8363 16.3002L22.4741 16.2984ZM15.9867 19.1664C17.1747 19.1664 18.1378 20.1295 18.1378 21.3175C18.1378 22.0103 17.8102 22.6267 17.3014 23.0201L17.3012 23.827C17.3012 24.553 16.7127 25.1415 15.9867 25.1415C15.2607 25.1415 14.6722 24.553 14.6722 23.827L14.6723 23.0203C14.1634 22.6269 13.8357 22.0104 13.8357 21.3175C13.8357 20.1295 14.7987 19.1664 15.9867 19.1664ZM15.7477 4.22866C11.3411 4.22866 7.76044 7.76522 7.68927 12.1549L7.68819 12.2882L7.68804 13.7111C8.03346 13.6855 8.43354 13.6715 8.90604 13.6696L22.474 13.6693C22.9973 13.6693 23.4344 13.6834 23.8076 13.7111L23.8073 12.2882C23.8073 7.83703 20.1989 4.22866 15.7477 4.22866Z" fill="black"/>
</svg>
