<svg width="100%" height="100%" viewBox="0 0 300 172" fill="none" xmlns="http://www.w3.org/2000/svg" class="img-fluid" aria-roledescription="preview-placeholder">
    <path d="M188.5 140C218.047 140 242 116.047 242 86.5C242 56.9528 218.047 33 188.5 33C158.953 33 135 56.9528 135 86.5C135 116.047 158.953 140 188.5 140Z" fill="white"/>
    <path d="M123.5 167C147.524 167 167 147.524 167 123.5C167 99.4756 147.524 80 123.5 80C99.4756 80 80 99.4756 80 123.5C80 147.524 99.4756 167 123.5 167Z" fill="white"/>
    <path d="M71.5 49C78.9558 49 85 42.9558 85 35.5C85 28.0442 78.9558 22 71.5 22C64.0442 22 58 28.0442 58 35.5C58 42.9558 64.0442 49 71.5 49Z" fill="white"/>
    <path d="M262.5 143C268.851 143 274 137.851 274 131.5C274 125.149 268.851 120 262.5 120C256.149 120 251 125.149 251 131.5C251 137.851 256.149 143 262.5 143Z" fill="white"/>
    <path d="M185.638 64.338L191 57M153 109L179.458 72.7948L153 109Z" stroke="#276CFF" stroke-width="2" stroke-linecap="round"/>
    <path d="M121.08 153.429L115 161M153 108L127.16 144.343L153 108Z" stroke="#276CFF" stroke-width="2" stroke-linecap="round"/>
    <path d="M134 71L115 31M152 109L139 81L152 109Z" stroke="#FF458B" stroke-width="2" stroke-linecap="round"/>
    <path d="M180.73 129.5L210 151M153 108L173.027 123.357L153 108Z" stroke="#FF458B" stroke-width="2" stroke-linecap="round"/>
    <path d="M86.7375 77.1845L72 70M152 109L109.06 88.0667L152 109Z" stroke="#FFC600" stroke-width="2" stroke-linecap="round"/>
    <path d="M152.762 109.227L244.238 76.7727" stroke="#00E567" stroke-width="2" stroke-linecap="round"/>
    <path d="M154.5 104.5L111 131" stroke="#00E567" stroke-width="2" stroke-linecap="round"/>
    <path fill-rule="evenodd" clip-rule="evenodd" d="M224 57H238V71H224V57Z" fill="#00E567"/>
    <path fill-rule="evenodd" clip-rule="evenodd" d="M127 2H137V12H127V2Z" fill="#FF458B"/>
    <path fill-rule="evenodd" clip-rule="evenodd" d="M150 166H156V172H150V166Z" fill="#FF458B"/>
    <path fill-rule="evenodd" clip-rule="evenodd" d="M44 0H50V6H44V0Z" fill="#00E567"/>
    <path fill-rule="evenodd" clip-rule="evenodd" d="M294 111H300V117H294V111Z" fill="#276CFF"/>
    <path fill-rule="evenodd" clip-rule="evenodd" d="M0 121H6V127H0V121Z" fill="#276CFF"/>
    <path fill-rule="evenodd" clip-rule="evenodd" d="M268 86H274V92H268V86Z" fill="#FFC600"/>
    <path fill-rule="evenodd" clip-rule="evenodd" d="M28 91H46V109H28V91Z" fill="#FFC600"/>
    <path fill-rule="evenodd" clip-rule="evenodd" d="M181 21H203V43H181V21Z" fill="#276CFF"/>
    <path fill-rule="evenodd" clip-rule="evenodd" d="M154.958 55L179 79.0416V136H122V55H154.958Z" fill="#0218A7"/>
    <path d="M146.5 80H136.5C135.119 80 134 81.1193 134 82.5C134 83.8807 135.119 85 136.5 85H146.5C147.881 85 149 83.8807 149 82.5C149 81.1193 147.881 80 146.5 80Z" fill="white"/>
    <path d="M164.5 92H136.5C135.119 92 134 93.1193 134 94.5C134 95.8807 135.119 97 136.5 97H164.5C165.881 97 167 95.8807 167 94.5C167 93.1193 165.881 92 164.5 92Z" fill="white"/>
    <path d="M164.5 104H136.5C135.119 104 134 105.119 134 106.5C134 107.881 135.119 109 136.5 109H164.5C165.881 109 167 107.881 167 106.5C167 105.119 165.881 104 164.5 104Z" fill="white"/>
    <path d="M164.5 116H136.5C135.119 116 134 117.119 134 118.5C134 119.881 135.119 121 136.5 121H164.5C165.881 121 167 119.881 167 118.5C167 117.119 165.881 116 164.5 116Z" fill="white"/>
    <path fill-rule="evenodd" clip-rule="evenodd" d="M154.958 79.0416V55L179 79.0416H154.958Z" fill="#276CFF"/>
</svg>
