<svg width="32" height="32" viewBox="0 0 32 32" fill="none" xmlns="http://www.w3.org/2000/svg">
    <path d="M16.3336 6C20.1891 6 23.3218 9.09424 23.3841 12.9349L23.3851 13.0515L23.3852 14.5522C23.7295 14.7972 24.0077 15.1142 24.2114 15.4953L24.2554 15.5799C24.4834 16.0328 24.6065 16.5243 24.6116 17.7271V21.1595C24.6116 22.4949 24.4725 22.9792 24.2114 23.4674C23.9503 23.9556 23.5672 24.3388 23.079 24.5999L22.9943 24.6438C22.5415 24.8718 22.0499 24.9949 20.8472 24.9998L11.8961 25C10.5606 25 10.0764 24.861 9.58816 24.5999C9.09995 24.3388 8.7168 23.9556 8.4557 23.4674L8.42554 23.4099C8.18874 22.9493 8.06074 22.4624 8.05556 21.2356V17.8032C8.05556 16.4677 8.1946 15.9835 8.4557 15.4953C8.65947 15.1142 8.93759 14.7972 9.28197 14.5522L9.28207 13.0515C9.28207 9.15706 12.4391 6 16.3336 6ZM20.7711 15.6971L11.8271 15.6972L11.651 15.6987C10.8882 15.7082 10.6517 15.7609 10.4061 15.8923C10.2202 15.9917 10.0846 16.1273 9.98515 16.3132L9.95758 16.3672C9.84629 16.5967 9.7992 16.8562 9.79124 17.5641L9.79 17.8031L9.79013 21.2285L9.79156 21.4046C9.80113 22.1674 9.85381 22.4038 9.98515 22.6494C10.0846 22.8354 10.2202 22.971 10.4061 23.0704L10.4601 23.098C10.6896 23.2093 10.9491 23.2564 11.6571 23.2643L11.8961 23.2656L20.8945 23.2653C21.7503 23.2608 22.0038 23.208 22.261 23.0704C22.447 22.971 22.5825 22.8354 22.682 22.6494L22.7095 22.5954C22.8208 22.366 22.8679 22.1064 22.8759 21.3985L22.8771 21.1595L22.8768 17.6798C22.8724 16.8239 22.8196 16.5705 22.682 16.3132C22.5825 16.1273 22.447 15.9917 22.261 15.8923L22.207 15.8647C21.9775 15.7534 21.718 15.7063 21.0101 15.6983L20.7711 15.6971ZM16.4912 17.5892C17.275 17.5892 17.9103 18.2246 17.9103 19.0083C17.9103 19.4654 17.6942 19.872 17.3586 20.1316L17.3585 20.6639C17.3585 21.1429 16.9702 21.5311 16.4912 21.5311C16.0123 21.5311 15.624 21.1429 15.624 20.6639L15.6241 20.1317C15.2883 19.8722 15.0722 19.4655 15.0722 19.0083C15.0722 18.2246 15.7075 17.5892 16.4912 17.5892ZM16.3336 7.73444C13.4264 7.73444 11.0642 10.0676 11.0172 12.9636L11.0165 13.0515L11.0164 13.9902C11.2443 13.9733 11.5082 13.9641 11.82 13.9628L20.7711 13.9627C21.1163 13.9627 21.4046 13.9719 21.6509 13.9902L21.6506 13.0515C21.6506 10.115 19.2701 7.73444 16.3336 7.73444Z" fill="#0218A7"/>
</svg>
