<svg width="14" height="14" viewBox="0 0 14 14" fill="none" xmlns="http://www.w3.org/2000/svg">
<path d="M7.00001 0.700195C10.4794 0.700195 13.3 3.5208 13.3 7.0002C13.3 10.4796 10.4794 13.3002 7.00001 13.3002C3.52062 13.3002 0.700012 10.4796 0.700012 7.0002C0.700012 3.5208 3.52062 0.700195 7.00001 0.700195ZM7.00001 1.8552C4.15851 1.8552 1.85501 4.15869 1.85501 7.0002C1.85501 9.8417 4.15851 12.1452 7.00001 12.1452C9.84152 12.1452 12.145 9.8417 12.145 7.0002C12.145 4.15869 9.84152 1.8552 7.00001 1.8552ZM7.5247 4.82943L7.52494 4.83872L7.52491 6.4563H9.09486C9.41705 6.4563 9.68118 6.71179 9.6919 7.0338C9.70216 7.3423 9.46039 7.60072 9.15188 7.61099L9.14259 7.61122L7.52491 7.6113L7.52501 9.2199C7.52501 9.53884 7.26646 9.7974 6.94751 9.7974C6.63635 9.7974 6.38266 9.5513 6.37047 9.24312L6.37001 9.2199L6.36991 7.6113H4.76141C4.44247 7.6113 4.18391 7.35274 4.18391 7.0338C4.18391 6.72263 4.43001 6.46894 4.73819 6.45675L4.76141 6.4563H6.36991L6.37001 4.88645C6.37001 4.56426 6.62551 4.30012 6.94751 4.28941C7.25602 4.27915 7.51444 4.52092 7.5247 4.82943Z" fill="black"/>
</svg>
