<svg width="14" height="14" viewBox="0 0 14 14" fill="none" xmlns="http://www.w3.org/2000/svg">
	<path d="M4.39171 10.9037L4.37256 10.8853L0.893313 7.40604C0.641833 7.15456 0.6357 6.75064 0.874912 6.49172L0.893313 6.47258L4.37256 2.99333C4.63033 2.73556 5.04825 2.73556 5.30602 2.99333C5.5575 3.24481 5.56364 3.64873 5.32442 3.90764L5.30602 3.92679L2.9537 6.2793L12.6399 6.27925C13.0045 6.27925 13.3 6.57477 13.3 6.93931C13.3 7.29495 13.0187 7.58491 12.6665 7.59884L12.6399 7.59936L2.9537 7.59941L5.30602 9.95183C5.5575 10.2033 5.56364 10.6072 5.32442 10.8661L5.30602 10.8853C5.05454 11.1368 4.65062 11.1429 4.39171 10.9037Z" fill="black"/>
</svg>
