<svg width="17" height="16" viewBox="0 0 17 16" fill="none" xmlns="http://www.w3.org/2000/svg">
<path d="M8.49999 0.800049C12.4764 0.800049 15.7 4.0236 15.7 8.00005C15.7 11.9765 12.4764 15.2 8.49999 15.2C4.52354 15.2 1.29999 11.9765 1.29999 8.00005C1.29999 4.0236 4.52354 0.800049 8.49999 0.800049ZM8.49999 2.12005C5.25255 2.12005 2.61999 4.75261 2.61999 8.00005C2.61999 11.2475 5.25255 13.88 8.49999 13.88C11.7474 13.88 14.38 11.2475 14.38 8.00005C14.38 4.75261 11.7474 2.12005 8.49999 2.12005ZM11.571 6.00374C11.8225 6.2552 11.8286 6.65908 11.5894 6.91798L11.571 6.93712L8.32364 10.1845C8.22672 10.2814 8.10768 10.3432 7.98256 10.3697C7.76741 10.4416 7.52069 10.3962 7.34341 10.2303L7.33572 10.223L5.40733 8.29476C5.14959 8.03702 5.14959 7.61913 5.40733 7.36138C5.65879 7.10992 6.06268 7.10379 6.32157 7.34298L6.34071 7.36138L7.81045 8.83095L10.6377 6.00374C10.8954 5.74599 11.3133 5.74599 11.571 6.00374Z" fill="white"/>
</svg>
