<svg width="16" height="11" viewBox="0 0 16 11" fill="none" xmlns="http://www.w3.org/2000/svg">
<path d="M13.0639 0.400391L13.1645 0.400892C13.8317 0.407731 14.0886 0.484474 14.3475 0.622928C14.619 0.768136 14.8321 0.981222 14.9773 1.25274L14.9971 1.29066C15.1295 1.55033 15.1998 1.82811 15.1998 2.53626V8.85626C15.1998 9.59895 15.1225 9.86826 14.9773 10.1398C14.8321 10.4113 14.619 10.6244 14.3475 10.7696L14.3095 10.7894C14.0499 10.9218 13.7721 10.9921 13.0639 10.9921H2.93567L2.83506 10.9916C2.16793 10.9848 1.91104 10.908 1.65215 10.7696C1.38064 10.6244 1.16755 10.4113 1.02234 10.1398L1.00252 10.1019C0.870108 9.84219 0.799805 9.5644 0.799805 8.85626V2.53626L0.800306 2.43565C0.807145 1.76851 0.883888 1.51162 1.02234 1.25274C1.16755 0.981222 1.38064 0.768136 1.65215 0.622928L1.69007 0.603108C1.94974 0.470694 2.22753 0.400391 2.93567 0.400391H13.0639ZM13.8907 5.75576H2.10901L2.10907 8.93267C2.111 9.34616 2.12975 9.43459 2.17672 9.52241C2.19992 9.56579 2.22614 9.59201 2.26952 9.61522L2.293 9.627C2.37016 9.66289 2.46858 9.67897 2.7896 9.68235L2.93567 9.68303L13.1403 9.68287C13.5538 9.68093 13.6423 9.66218 13.7301 9.61522C13.7735 9.59201 13.7997 9.56579 13.8229 9.52241L13.8347 9.49893C13.8755 9.41113 13.8907 9.2958 13.8907 8.85626V5.75576ZM2.8966 1.70952C2.45097 1.71051 2.35993 1.72895 2.26952 1.7773C2.22614 1.8005 2.19992 1.82672 2.17672 1.8701L2.16493 1.89359C2.12904 1.97074 2.11296 2.06916 2.10958 2.39018L2.1089 2.53626V3.61361H13.8907V2.49718C13.8897 2.05156 13.8712 1.96051 13.8229 1.8701C13.7997 1.82672 13.7735 1.8005 13.7301 1.7773L13.7066 1.76552C13.6241 1.72716 13.5174 1.71142 13.1403 1.70965L2.8966 1.70952Z" fill="white"/>
</svg>
