<svg width="14" height="16" viewBox="0 0 14 16" fill="none" xmlns="http://www.w3.org/2000/svg">
<path d="M8.38432 0.799805C8.76307 0.799805 9.1263 0.950259 9.39412 1.21807L13.1536 4.97747C13.4214 5.24529 13.5719 5.60854 13.5719 5.9873V12.9387C13.5719 14.1875 12.5596 15.1998 11.3108 15.1998H4.28933C3.04054 15.1998 2.02819 14.1875 2.02819 12.9387V12.4625H1.31414C0.919786 12.4625 0.600098 12.1428 0.600098 11.7485V9.13033C0.600098 8.73597 0.919786 8.41628 1.31414 8.41628H2.02819V3.06104C2.02819 1.81225 3.04054 0.799805 4.28933 0.799805H8.38432ZM7.79993 2.10889H4.28933C3.77348 2.10889 3.35339 2.51926 3.33772 3.03139L3.33727 3.06104V8.41628H7.74055C8.1349 8.41628 8.45459 8.73597 8.45459 9.13033V11.7485C8.45459 12.1428 8.1349 12.4625 7.74055 12.4625H3.33727V12.9387C3.33727 13.4545 3.74759 13.8746 4.25968 13.8903L4.28933 13.8907H11.3108C11.8267 13.8907 12.2467 13.4804 12.2624 12.9683L12.2628 12.9387V6.57167L8.45459 6.57176C8.10191 6.57176 7.81439 6.29284 7.80057 5.94355L7.80005 5.91722L7.79993 2.10889ZM2.46745 9.36834H1.55216V11.4888H2.12784V10.8593H2.44674C2.93027 10.8593 3.25435 10.5746 3.25435 10.118C3.25435 9.66654 2.93856 9.36834 2.46745 9.36834ZM4.42507 9.36834H3.61746V11.4888H4.43336C5.07944 11.4888 5.48946 11.0912 5.48946 10.4286C5.48946 9.76594 5.07944 9.36834 4.42507 9.36834ZM7.39739 9.36834H5.90641V11.4888H6.4821V10.6605H7.30627V10.1967H6.4821V9.8322H7.39739V9.36834ZM4.39608 9.85705C4.72741 9.85705 4.90964 9.98544 4.90964 10.4286C4.90964 10.8717 4.72741 11.0001 4.41265 11.0001H4.19314V9.85705H4.39608ZM2.33078 9.82806C2.53268 9.82806 2.65382 9.93574 2.65382 10.118C2.65382 10.2992 2.53268 10.412 2.33078 10.412H2.12784V9.82806H2.33078ZM9.10901 2.78425L9.10913 5.26268L11.5875 5.26259L9.10901 2.78425Z" fill="#56606D"/>
</svg>
