<svg width="17" height="17" viewBox="0 0 17 17" fill="none" xmlns="http://www.w3.org/2000/svg">
<path d="M7.91756 11.4592L7.89845 11.4409L4.509 8.05142C4.25161 7.79403 4.25161 7.37671 4.509 7.11932C4.76011 6.86821 5.16344 6.86208 5.42198 7.10095L5.4411 7.11932L7.72743 9.4057V1.95914C7.72743 1.59513 8.02251 1.30005 8.38652 1.30005C8.74165 1.30005 9.03118 1.58092 9.04509 1.93263L9.04561 1.95914V9.36184L11.2879 7.11932C11.539 6.86821 11.9423 6.86208 12.2009 7.10095L12.22 7.11932C12.4711 7.37043 12.4772 7.77377 12.2384 8.0323L12.22 8.05142L8.83055 11.4409C8.57943 11.692 8.1761 11.6981 7.91756 11.4592ZM15.7 14.4022C15.7 14.7662 15.4049 15.0613 15.0409 15.0613H1.97887C1.61486 15.0613 1.31977 14.7662 1.31977 14.4022C1.31977 14.0382 1.61486 13.7431 1.97887 13.7431H15.0409C15.4049 13.7431 15.7 14.0382 15.7 14.4022ZM1.95908 15.0113C1.59507 15.0113 1.29999 14.7162 1.29999 14.3522V11.7158C1.29999 11.3518 1.59507 11.0567 1.95908 11.0567C2.32309 11.0567 2.61817 11.3518 2.61817 11.7158V14.3522C2.61817 14.7162 2.32309 15.0113 1.95908 15.0113ZM15.0211 15.0113C14.6571 15.0113 14.362 14.7162 14.362 14.3522V11.7158C14.362 11.3518 14.6571 11.0567 15.0211 11.0567C15.3851 11.0567 15.6802 11.3518 15.6802 11.7158V14.3522C15.6802 14.7162 15.3851 15.0113 15.0211 15.0113Z" fill="white"/>
</svg>
