<svg width="18" height="18" viewBox="0 0 18 18" fill="none" xmlns="http://www.w3.org/2000/svg">
<path class="path" d="M10.56 6.10352e-05C11.3815 6.10352e-05 12.0476 0.666049 12.0476 1.48763L12.0475 1.73022C12.0475 2.28189 12.4947 2.72912 13.0464 2.72913C13.2217 2.72913 13.394 2.68298 13.5458 2.59531L13.756 2.474C14.4675 2.06323 15.3773 2.30701 15.7881 3.01851L17.5732 6.11044C17.9768 6.80945 17.7486 7.69987 17.0657 8.12045L17.0287 8.14251L16.8186 8.26378C16.3646 8.52591 16.209 9.1065 16.4711 9.56056C16.5544 9.70488 16.6743 9.82473 16.8186 9.90805L16.9543 9.98641C17.6658 10.3972 17.9096 11.307 17.4988 12.0185L15.7881 14.9816C15.3845 15.6807 14.4993 15.9282 13.7936 15.5471L13.756 15.5261L13.5459 15.4048C13.0681 15.1289 12.4572 15.2926 12.1814 15.7703C12.0937 15.9222 12.0475 16.0945 12.0475 16.2698L12.0475 16.5125C12.0476 17.3201 11.404 17.9775 10.6016 17.9995L10.56 18.0001H6.98971C6.16814 18.0001 5.50212 17.334 5.50207 16.5125L5.50206 16.3987C5.50205 15.8881 5.08812 15.4742 4.57753 15.4742C4.41524 15.4742 4.25582 15.5169 4.11528 15.5981L4.01682 15.6549C3.31782 16.0585 2.42739 15.8303 2.0068 15.1475L1.98473 15.1104L0.199609 12.0185C-0.211138 11.307 0.0326249 10.3972 0.744089 9.98637L0.95426 9.86502C1.43201 9.58918 1.59568 8.97827 1.31984 8.50053C1.23216 8.34867 1.10605 8.22258 0.954196 8.13491L0.744145 8.01365C0.0450642 7.61016 -0.202544 6.72493 0.178498 6.01926L0.199609 5.98161L1.91035 3.01851C2.32115 2.30702 3.23095 2.06323 3.94246 2.474L4.07809 2.5523C4.53214 2.81444 5.11274 2.65887 5.37488 2.20481C5.45819 2.06051 5.50206 1.89681 5.50206 1.73018L5.50207 1.48766C5.50212 0.666097 6.16814 6.10352e-05 6.98971 6.10352e-05H10.56ZM7.13854 1.63628L7.13842 1.73022C7.13841 2.18408 7.01894 2.62993 6.79202 3.02298C6.08652 4.24498 4.53417 4.67324 3.30423 3.99446L3.25321 3.96542L1.69123 6.67077L1.77231 6.71774C2.15291 6.93746 2.4722 7.24868 2.70149 7.62273L2.73695 7.6823C3.45612 8.92787 3.04288 10.5165 1.81662 11.2561L1.77248 11.2821L1.69123 11.3291L3.32774 14.1637L3.35897 14.1463C3.7121 13.9553 4.10523 13.8499 4.50658 13.8388L4.57749 13.8378C5.95931 13.8378 7.08553 14.9322 7.13662 16.3015L7.13824 16.3637H10.4113L10.4112 16.2699C10.4111 15.8304 10.521 15.3982 10.7304 15.0126L10.7642 14.9521C11.4834 13.7065 13.0659 13.2702 14.3195 13.9624L14.3641 13.9876L14.4453 14.0344L16.0073 11.3291L16.0004 11.3252C15.627 11.1096 15.3137 10.8042 15.0887 10.4372L15.054 10.3787C14.3485 9.1567 14.7538 7.59821 15.9567 6.87249L16.0005 6.84662L16.0817 6.79975L14.4453 3.96542L14.364 4.01245C13.9834 4.23218 13.5543 4.35306 13.1157 4.36458L13.0463 4.36549C11.6073 4.36546 10.4377 3.21196 10.4116 1.77891L10.4112 1.72995L10.4113 1.63642L7.13854 1.63628ZM8.90209 4.90915C11.1614 4.90915 12.993 6.74071 12.993 9.00006C12.993 11.2594 11.1614 13.091 8.90209 13.091C6.64274 13.091 4.81118 11.2594 4.81118 9.00006C4.81118 6.74071 6.64274 4.90915 8.90209 4.90915ZM8.90209 6.54552C7.54648 6.54552 6.44754 7.64445 6.44754 9.00006C6.44754 10.3557 7.54648 11.4546 8.90209 11.4546C10.2577 11.4546 11.3566 10.3557 11.3566 9.00006C11.3566 7.64445 10.2577 6.54552 8.90209 6.54552Z" fill="#56606D"/>
</svg>
