<svg width="16" height="16" viewBox="0 0 16 16" fill="none" xmlns="http://www.w3.org/2000/svg">
<path d="M9.24874 0.800781C9.90601 0.800781 10.4388 1.33357 10.4388 1.99084L10.4388 2.18491C10.4388 2.62624 10.7965 2.98403 11.2379 2.98404C11.3782 2.98404 11.516 2.94712 11.6375 2.87698L11.8055 2.77993C12.3748 2.45132 13.1026 2.64634 13.4312 3.21554L14.8593 5.68908C15.1822 6.24829 14.9996 6.96063 14.4534 7.29709L14.4237 7.31474L14.2557 7.41175C13.8924 7.62146 13.768 8.08593 13.9777 8.44918C14.0443 8.56464 14.1402 8.66052 14.2557 8.72718L14.3642 8.78986C14.9334 9.11849 15.1285 9.84633 14.7998 10.4155L13.4312 12.786C13.1084 13.3453 12.4002 13.5433 11.8357 13.2385L11.8056 13.2216L11.6375 13.1245C11.2553 12.9039 10.7665 13.0348 10.5459 13.417C10.4757 13.5385 10.4388 13.6763 10.4388 13.8166L10.4388 14.0107C10.4388 14.6568 9.92394 15.1827 9.28208 15.2003L9.24874 15.2008H6.39255C5.73529 15.2008 5.20248 14.668 5.20243 14.0107L5.20243 13.9197C5.20242 13.5112 4.87128 13.1801 4.4628 13.1801C4.33298 13.1801 4.20544 13.2143 4.093 13.2792L4.01424 13.3247C3.45503 13.6476 2.74269 13.465 2.40622 12.9187L2.38857 12.8891L0.960468 10.4155C0.631871 9.84633 0.826881 9.1185 1.39605 8.78983L1.56419 8.69275C1.94639 8.47208 2.07733 7.98335 1.85665 7.60115C1.78651 7.47967 1.68562 7.37879 1.56414 7.30866L1.3961 7.21165C0.836833 6.88886 0.638746 6.18068 0.943579 5.61614L0.960468 5.58602L2.32906 3.21554C2.6577 2.64635 3.38554 2.45132 3.95475 2.77993L4.06325 2.84257C4.4265 3.05229 4.89097 2.92783 5.10069 2.56458C5.16734 2.44914 5.20243 2.31818 5.20243 2.18488L5.20243 1.99086C5.20248 1.33361 5.73529 0.800781 6.39255 0.800781H9.24874ZM6.51161 2.10975L6.51152 2.18491C6.51151 2.54799 6.41594 2.90468 6.2344 3.21912C5.66999 4.19672 4.42812 4.53933 3.44417 3.9963L3.40335 3.97307L2.15376 6.13735L2.21863 6.17492C2.52311 6.3507 2.77854 6.59967 2.96198 6.89891L2.99034 6.94658C3.56568 7.94303 3.23508 9.21395 2.25408 9.8056L2.21877 9.82644L2.15376 9.86397L3.46297 12.1317L3.48795 12.1178C3.77046 11.965 4.08497 11.8807 4.40605 11.8718L4.46277 11.871C5.56823 11.871 6.46921 12.7465 6.51007 13.842L6.51137 13.8917H9.12979L9.1297 13.8166C9.12969 13.465 9.21762 13.1193 9.38508 12.8108L9.41218 12.7624C9.98752 11.766 11.2535 11.4169 12.2564 11.9707L12.2921 11.9908L12.3571 12.0283L13.6066 9.86397L13.6011 9.86088C13.3024 9.6884 13.0517 9.44409 12.8718 9.15047L12.8439 9.1037C12.2796 8.12609 12.6038 6.8793 13.5661 6.29872L13.6012 6.27803L13.6661 6.24053L12.3571 3.97307L12.292 4.01069C11.9875 4.18648 11.6442 4.28318 11.2933 4.2924L11.2379 4.29313C10.0866 4.2931 9.15091 3.3703 9.13006 2.22386L9.1297 2.18469L9.12979 2.10987L6.51161 2.10975ZM7.92245 4.72805C9.72993 4.72805 11.1952 6.1933 11.1952 8.00078C11.1952 9.80826 9.72993 11.2735 7.92245 11.2735C6.11497 11.2735 4.64972 9.80826 4.64972 8.00078C4.64972 6.1933 6.11497 4.72805 7.92245 4.72805ZM7.92245 6.03714C6.83797 6.03714 5.95882 6.91629 5.95882 8.00078C5.95882 9.08527 6.83797 9.96442 7.92245 9.96442C9.00694 9.96442 9.88609 9.08527 9.88609 8.00078C9.88609 6.91629 9.00694 6.03714 7.92245 6.03714Z" fill="#56606D"/>
</svg>
