<svg width="62" height="58" viewBox="0 0 58 58" fill="none" xmlns="http://www.w3.org/2000/svg">
    <ellipse cx="29.7271" cy="29" rx="29" ry="29" fill="#00D459"/>
    <path d="M14.3686 31.1928C12.9461 29.7703 12.9461 27.464 14.3686 26.0415C15.7911 24.6191 18.0974 24.6191 19.5199 26.0415L28.1054 34.627C29.5279 36.0495 29.5279 38.3558 28.1054 39.7783C26.6829 41.2008 24.3766 41.2008 22.9541 39.7783L14.3686 31.1928Z" fill="white"/>
    <path d="M28.1054 39.7783C26.6829 41.2008 24.3766 41.2008 22.9541 39.7783C21.5316 38.3558 21.5316 36.0495 22.9541 34.627L38.4079 19.1732C39.8304 17.7507 42.1367 17.7507 43.5592 19.1732C44.9817 20.5957 44.9817 22.902 43.5592 24.3245L28.1054 39.7783Z" fill="white"/>
</svg>
