<svg width="23" height="21" viewBox="0 0 23 21" fill="none" xmlns="http://www.w3.org/2000/svg">
    <ellipse cx="10.4954" cy="10.3125" rx="10" ry="10" fill="#00D459"/>
    <path d="M5.19919 11.0717C4.70867 10.5812 4.70867 9.78595 5.19919 9.29544C5.6897 8.80493 6.48498 8.80493 6.97549 9.29544L9.936 12.2559C10.4265 12.7465 10.4265 13.5417 9.936 14.0323C9.44549 14.5228 8.65021 14.5228 8.1597 14.0323L5.19919 11.0717Z" fill="white"/>
    <path d="M9.936 14.0323C9.44549 14.5228 8.65021 14.5228 8.1597 14.0323C7.66918 13.5417 7.66918 12.7465 8.1597 12.2559L13.4886 6.92704C13.9791 6.43652 14.7744 6.43652 15.2649 6.92703C15.7554 7.41755 15.7554 8.21283 15.2649 8.70334L9.936 14.0323Z" fill="white"/>
</svg>
