<svg width="18" height="18" viewBox="0 0 18 18" fill="none" xmlns="http://www.w3.org/2000/svg">
    <rect width="18" height="17.8349" rx="8.91743" fill="#A9B5C1"/>
    <path fill-rule="evenodd" clip-rule="evenodd" d="M9.00391 13.2114C9.55619 13.2114 10.0039 12.7637 10.0039 12.2114L10.0039 8.92702C10.0039 8.37474 9.55619 7.92702 9.00391 7.92702C8.45162 7.92702 8.00391 8.37474 8.00391 8.92702L8.00391 12.2114C8.00391 12.7637 8.45162 13.2114 9.00391 13.2114ZM9 6.93616C9.68402 6.93616 10.25 6.38165 10.25 5.69763C10.25 5.01361 9.68402 4.4591 9 4.4591C8.31598 4.4591 7.75 5.01361 7.75 5.69763C7.75 6.38165 8.31598 6.93616 9 6.93616Z" fill="white"/>
</svg>
