<svg width="22" height="6" viewBox="0 0 22 6" fill="none" xmlns="http://www.w3.org/2000/svg">
<path d="M10.9999 0.333496C9.53325 0.333496 8.33325 1.5335 8.33325 3.00016C8.33325 4.46683 9.53325 5.66683 10.9999 5.66683C12.4666 5.66683 13.6666 4.46683 13.6666 3.00016C13.6666 1.5335 12.4666 0.333496 10.9999 0.333496ZM18.9999 0.333496C17.5333 0.333496 16.3333 1.5335 16.3333 3.00016C16.3333 4.46683 17.5333 5.66683 18.9999 5.66683C20.4666 5.66683 21.6666 4.46683 21.6666 3.00016C21.6666 1.5335 20.4666 0.333496 18.9999 0.333496ZM2.99992 0.333496C1.53325 0.333496 0.333252 1.5335 0.333252 3.00016C0.333252 4.46683 1.53325 5.66683 2.99992 5.66683C4.46659 5.66683 5.66658 4.46683 5.66658 3.00016C5.66658 1.5335 4.46659 0.333496 2.99992 0.333496Z" fill="#7C8794"/>
</svg>
