<svg width="42" height="47" viewBox="0 0 42 47" fill="none" xmlns="http://www.w3.org/2000/svg">
<path d="M21 47C18.8441 47 17.0895 45.2913 17.0313 43.1615L5.85977 36.7485C5.27881 37.0614 4.65209 37.2153 4.03145 37.2241L3.97006 37.2245C2.59954 37.223 1.26713 36.5151 0.532574 35.25C-0.54538 33.3935 0.0655022 31.0283 1.89124 29.9132L1.89124 17.0868C0.0655022 15.9717 -0.54538 13.6065 0.532574 11.75C1.25617 10.5038 2.55989 9.79828 3.90872 9.776L3.97006 9.77546C4.61069 9.77473 5.25965 9.92833 5.85978 10.2515L17.0313 3.83834C17.089 1.7303 18.8086 0.0347977 20.9343 0.000530243L21 0C23.1559 0 24.9104 1.70863 24.9687 3.83832L36.1399 10.2517C36.721 9.9387 37.3478 9.78471 37.9686 9.77586L38.0299 9.77546C39.4005 9.77702 40.7329 10.4849 41.4674 11.75C42.5454 13.6065 41.9345 15.9717 40.1088 17.0868V29.9132C41.9345 31.0283 42.5454 33.3935 41.4674 35.25C40.7438 36.4962 39.4401 37.2017 38.0913 37.224L38.0299 37.2245C37.3893 37.2253 36.7404 37.0717 36.1403 36.7485L24.9687 43.1617C24.9111 45.2697 23.1914 46.9652 21.0657 46.9995L21 47ZM21 5.82767L21.0514 5.82698C21.0557 5.82687 21.06 5.82674 21.0643 5.8266L21.0515 5.82698C21.0686 5.82652 21.0857 5.82584 21.1028 5.82492L21.0643 5.8266C21.0831 5.82597 21.1018 5.82508 21.1204 5.82392L21.1028 5.82492C21.1202 5.82399 21.1376 5.82283 21.1549 5.82143L21.1204 5.82392C21.1374 5.82285 21.1544 5.82156 21.1713 5.82005L21.1549 5.82143C21.1702 5.82019 21.1855 5.81877 21.2008 5.81717L21.1713 5.82005C21.1899 5.81839 21.2085 5.81645 21.227 5.81425L21.2008 5.81717C21.218 5.81536 21.2352 5.81331 21.2524 5.81104L21.227 5.81425C21.2427 5.81239 21.2583 5.81033 21.2739 5.80809L21.2524 5.81104C21.2717 5.80847 21.291 5.80561 21.3102 5.80246L21.2739 5.80809C21.2896 5.80581 21.3053 5.80334 21.3209 5.80069L21.3102 5.80246C21.3266 5.79978 21.3428 5.79689 21.359 5.7938L21.3209 5.80069C21.3382 5.79776 21.3553 5.79461 21.3723 5.79122L21.359 5.7938C21.3799 5.78981 21.4007 5.78548 21.4213 5.78082L21.3723 5.79122C21.4116 5.78341 21.4505 5.77439 21.4889 5.76421C21.4986 5.76167 21.5082 5.75903 21.5178 5.75631L21.4889 5.76421C21.5048 5.76 21.5205 5.75559 21.5362 5.75099L21.5178 5.75631C21.5319 5.75234 21.5459 5.74821 21.5599 5.74392L21.5362 5.75099C22.3192 5.52115 22.8906 4.80082 22.8906 3.94777C22.8906 2.90954 22.0441 2.06788 21 2.06788C19.9559 2.06788 19.1094 2.90954 19.1094 3.94777C19.1094 4.79153 19.6684 5.50545 20.4383 5.74331C20.4479 5.74633 20.4576 5.74924 20.4674 5.75207L20.4383 5.74331C20.4527 5.74776 20.4672 5.75204 20.4817 5.75615L20.4674 5.75207C20.4828 5.75657 20.4984 5.76088 20.514 5.765L20.4817 5.75615C20.4985 5.76089 20.5153 5.7654 20.5322 5.76968L20.514 5.765C20.5511 5.77477 20.5886 5.78343 20.6265 5.79097C20.6324 5.79217 20.6385 5.79334 20.6445 5.79448L20.6265 5.79097C20.6441 5.79447 20.6617 5.79773 20.6795 5.80074L20.6445 5.79448C20.6591 5.79723 20.6737 5.79982 20.6883 5.80224L20.6795 5.80074C20.6953 5.80342 20.7112 5.80592 20.7271 5.80821L20.6883 5.80224C20.7078 5.80545 20.7274 5.80837 20.7471 5.81099L20.7271 5.80821C20.7424 5.8104 20.7576 5.8124 20.7729 5.81423L20.7471 5.81099C20.7644 5.81329 20.7818 5.81536 20.7993 5.81719L20.7729 5.81423C20.7915 5.81643 20.81 5.81837 20.8287 5.82004L20.7993 5.81719C20.8145 5.81879 20.8298 5.82021 20.8451 5.82144L20.8287 5.82004C20.8456 5.82155 20.8626 5.82285 20.8797 5.82391L20.8451 5.82144C20.8624 5.82284 20.8798 5.82401 20.8972 5.82493L20.8797 5.82391C20.8983 5.82508 20.9169 5.82597 20.9356 5.8266L20.8972 5.82493C20.9312 5.82675 20.9655 5.82767 21 5.82767ZM27.1459 18.7295L34.179 14.6919C34.174 14.6723 34.1692 14.6526 34.1645 14.6329C34.163 14.6269 34.1616 14.6207 34.1601 14.6145C34.157 14.601 34.1539 14.5875 34.1509 14.5741C34.1487 14.5642 34.1466 14.5543 34.1445 14.5444C34.142 14.5328 34.1396 14.5213 34.1372 14.5097C34.1347 14.4975 34.1323 14.4853 34.1299 14.4731C34.1231 14.4381 34.1168 14.403 34.1109 14.3678C34.1095 14.3589 34.108 14.3499 34.1066 14.341C34.0929 14.2551 34.0822 14.1691 34.0744 14.083C34.0735 14.0733 34.0726 14.0637 34.0718 14.054C34.0688 14.0176 34.0662 13.9812 34.0642 13.9448C34.064 13.9417 34.0639 13.9385 34.0637 13.9354L34.0642 13.9448C34.0632 13.926 34.0623 13.9072 34.0615 13.8884C34.061 13.8771 34.0606 13.8657 34.0602 13.8543C34.0598 13.8417 34.0595 13.8293 34.0592 13.8168C34.059 13.8073 34.0588 13.7978 34.0587 13.7882C34.0585 13.7788 34.0584 13.7693 34.0583 13.7599C34.0583 13.7512 34.0582 13.7426 34.0582 13.7339L34.0583 13.7599C34.0566 13.5496 34.0718 13.34 34.1034 13.1333C34.1086 13.099 34.1143 13.0647 34.1205 13.0305C34.1232 13.0155 34.1259 13.0006 34.1288 12.9858C34.1349 12.9542 34.1413 12.9227 34.1481 12.8913C34.1506 12.88 34.1531 12.8686 34.1557 12.8573C34.1575 12.8491 34.1594 12.841 34.1613 12.8329C34.163 12.8253 34.1649 12.8177 34.1667 12.81C34.1702 12.7955 34.1737 12.781 34.1774 12.7666C34.1882 12.7235 34.1998 12.6806 34.2121 12.6378C34.2209 12.6072 34.2301 12.5766 34.2396 12.5461C34.2429 12.5358 34.2462 12.5255 34.2495 12.5153C34.2522 12.5068 34.2549 12.4984 34.2577 12.49C34.261 12.4802 34.2643 12.4704 34.2676 12.4606C34.2721 12.4473 34.2767 12.434 34.2813 12.4208C34.2836 12.4143 34.2859 12.4078 34.2882 12.4013C34.2928 12.3884 34.2975 12.3755 34.3022 12.3627C34.3032 12.36 34.3043 12.3572 34.3053 12.3544C34.3115 12.3378 34.3177 12.3213 34.324 12.3049C34.339 12.2663 34.3545 12.228 34.3706 12.1898C34.3835 12.1594 34.3968 12.1291 34.4104 12.099C34.4151 12.0888 34.4198 12.0785 34.4245 12.0683C34.4275 12.0618 34.4306 12.0553 34.4336 12.0488C34.4401 12.035 34.4466 12.0213 34.4533 12.0075C34.4579 11.9979 34.4626 11.9884 34.4673 11.979C34.4715 11.9703 34.4759 11.9617 34.4802 11.953C34.4859 11.9417 34.4916 11.9305 34.4974 11.9193C34.501 11.9124 34.5046 11.9054 34.5083 11.8984C34.5144 11.8867 34.5204 11.8752 34.5266 11.8638C34.53 11.8573 34.5335 11.8509 34.537 11.8445C34.5543 11.8127 34.572 11.7811 34.5902 11.7497L24.4389 5.92197C24.4369 5.92542 24.4349 5.92887 24.4329 5.93232C24.4141 5.96432 24.395 5.99599 24.3754 6.02736C24.372 6.0327 24.3687 6.03803 24.3653 6.04335C24.3579 6.05516 24.3503 6.06696 24.3427 6.07873C24.3378 6.08637 24.3329 6.09392 24.3279 6.10144C24.3218 6.11082 24.3155 6.12029 24.3092 6.12972C24.3035 6.1383 24.2978 6.14678 24.292 6.15525C24.2883 6.16078 24.2845 6.16633 24.2807 6.17187C24.2192 6.26139 24.1541 6.34824 24.0856 6.43224C24.0656 6.45674 24.0453 6.48104 24.0247 6.5051C24.0056 6.52744 23.9862 6.54959 23.9666 6.57151C23.9573 6.58192 23.9479 6.59226 23.9385 6.60255C23.9333 6.60828 23.928 6.61403 23.9227 6.61977C23.9172 6.62566 23.9118 6.63152 23.9063 6.63735C23.8836 6.66157 23.8606 6.68552 23.8373 6.70919C23.7642 6.78349 23.688 6.85498 23.6092 6.92342L23.6021 6.92953C23.5767 6.95147 23.551 6.97309 23.525 6.99439C23.5208 6.99784 23.5167 7.00123 23.5125 7.00461C23.5029 7.01249 23.4931 7.02038 23.4832 7.02823C23.4744 7.0353 23.4655 7.04231 23.4566 7.04928C23.4517 7.05311 23.4469 7.05692 23.442 7.06071C23.4099 7.08561 23.3775 7.11001 23.3447 7.13392C23.3427 7.1354 23.3408 7.13678 23.3389 7.13816C23.329 7.14535 23.3189 7.15256 23.3089 7.15972C23.2849 7.17677 23.2608 7.19353 23.2365 7.21003L23.2264 7.2169C23.1583 7.26286 23.0886 7.30678 23.0175 7.34856C23.0106 7.35263 23.0037 7.35668 22.9967 7.36071C22.9678 7.37745 22.9387 7.39385 22.9093 7.40989C22.8975 7.41636 22.8857 7.42274 22.8738 7.42906C22.8669 7.43279 22.8599 7.43649 22.8528 7.44018C22.8448 7.44442 22.8367 7.44865 22.8285 7.45285C22.8146 7.46003 22.8007 7.46712 22.7868 7.47412C22.7812 7.47694 22.7755 7.47978 22.7698 7.4826C22.7377 7.49851 22.7054 7.51398 22.6729 7.52902C22.6654 7.53248 22.6579 7.53594 22.6504 7.53937C22.617 7.55455 22.5835 7.56924 22.5497 7.58348C22.5164 7.59753 22.4829 7.61114 22.4492 7.62431C22.4182 7.63638 22.3871 7.64808 22.3557 7.6594C22.3482 7.66212 22.3407 7.66479 22.3332 7.66745C22.3187 7.67259 22.3041 7.67768 22.2894 7.6827C22.2858 7.68394 22.2822 7.68514 22.2787 7.68634C22.2626 7.69177 22.2464 7.69713 22.2302 7.70238C22.2241 7.70436 22.218 7.70632 22.2119 7.70827C22.1955 7.71346 22.1792 7.71856 22.1627 7.72356C22.159 7.7247 22.1553 7.72582 22.1515 7.72694C22.1379 7.73103 22.1243 7.73506 22.1106 7.73901C22.0989 7.7424 22.0871 7.74574 22.0754 7.74902C22.0724 7.74984 22.0695 7.75066 22.0666 7.75147L22.0667 15.3542C24.2388 15.6212 26.1042 16.9081 27.1459 18.7295ZM15.2158 18.8898C16.1876 17.075 17.945 15.7895 19.987 15.4151L19.987 7.76589C19.9642 7.75991 19.9414 7.75373 19.9187 7.74735C19.9086 7.74453 19.8986 7.74168 19.8886 7.73879C19.812 7.71662 19.7362 7.69218 19.6615 7.66558C19.6549 7.66323 19.6483 7.66085 19.6417 7.65845C19.627 7.65315 19.6125 7.64778 19.5979 7.64233C19.5928 7.64041 19.5877 7.63847 19.5825 7.63651C19.5687 7.63125 19.5549 7.62592 19.5412 7.62052C19.5341 7.61776 19.5271 7.61497 19.5201 7.61216C19.5043 7.60587 19.4887 7.59949 19.473 7.59301C19.4687 7.59121 19.4643 7.58937 19.4599 7.58753C19.4251 7.57294 19.3905 7.5579 19.3563 7.54238C19.3469 7.53814 19.3376 7.53389 19.3284 7.5296C19.3008 7.51688 19.2734 7.50383 19.2462 7.49047C19.2293 7.48217 19.2124 7.47377 19.1957 7.46525C19.1857 7.46019 19.1757 7.45505 19.1657 7.44987C19.1615 7.44768 19.1574 7.44553 19.1532 7.44336C19.1375 7.43512 19.1217 7.42673 19.106 7.41825C19.1004 7.41522 19.0948 7.41215 19.0892 7.40907C19.0795 7.40382 19.07 7.39854 19.0605 7.39323C19.0302 7.37633 19.0002 7.35906 18.9704 7.34142C18.9639 7.33758 18.9575 7.33376 18.9511 7.32991C18.9387 7.32248 18.9264 7.31497 18.914 7.3074C18.9064 7.30268 18.8987 7.29793 18.8911 7.29316C18.8835 7.28841 18.8758 7.28361 18.8682 7.27878C18.8594 7.27319 18.8507 7.26762 18.842 7.26202C18.8141 7.24401 18.7864 7.22562 18.7589 7.20689C18.7492 7.20033 18.7396 7.19372 18.73 7.18707C18.681 7.15299 18.6327 7.11785 18.5853 7.08168C18.5761 7.0747 18.567 7.06765 18.5578 7.06056L18.5505 7.05481C18.512 7.02476 18.4741 6.99401 18.4367 6.9626C18.4275 6.95483 18.4183 6.94705 18.4092 6.93923C18.3997 6.93108 18.3902 6.92289 18.3808 6.91466C18.3743 6.90904 18.3679 6.90335 18.3614 6.89764C18.3562 6.89297 18.351 6.88836 18.3458 6.88372C18.2709 6.81678 18.1986 6.74702 18.1291 6.67464C18.1228 6.66803 18.1164 6.66135 18.11 6.65465C18.0814 6.62442 18.0532 6.59377 18.0255 6.56267L18.0238 6.5607C17.9751 6.50591 17.928 6.44975 17.8823 6.39231C17.8755 6.38371 17.8686 6.37504 17.8618 6.36634C17.8556 6.35828 17.8493 6.35021 17.8431 6.34212C17.8366 6.33361 17.83 6.32507 17.8236 6.3165C17.8188 6.31012 17.814 6.30378 17.8093 6.29744C17.8008 6.28612 17.7924 6.27467 17.784 6.26318C17.7789 6.25615 17.7738 6.24914 17.7688 6.24211C17.7622 6.23299 17.7556 6.22386 17.7492 6.2147C17.7437 6.20681 17.7381 6.19884 17.7325 6.19085C17.7252 6.18035 17.7179 6.16987 17.7108 6.15936C17.7058 6.15201 17.7008 6.14461 17.6958 6.1372C17.6533 6.0739 17.6126 6.00932 17.5737 5.94352L17.5611 5.92197L7.40979 11.7496C7.43124 11.7867 7.45166 11.8233 7.47147 11.8602C7.47829 11.8729 7.48503 11.8856 7.4917 11.8983C7.49671 11.9079 7.50165 11.9174 7.50655 11.927C7.50945 11.9326 7.51232 11.9383 7.51518 11.9439C7.53278 11.9786 7.54986 12.0136 7.56642 12.0488C7.56948 12.0553 7.57251 12.0618 7.57552 12.0683C7.58134 12.0809 7.58711 12.0935 7.5928 12.1061C7.59548 12.1121 7.59813 12.118 7.60077 12.1239C7.6066 12.137 7.61237 12.1502 7.61807 12.1634C7.64191 12.2186 7.66446 12.2743 7.68573 12.3304C7.70609 12.3842 7.72527 12.4384 7.74326 12.493C7.74547 12.4997 7.7477 12.5065 7.7499 12.5133C7.77668 12.596 7.8007 12.6796 7.82195 12.7638C7.82437 12.7734 7.82675 12.783 7.8291 12.7926C7.8371 12.8253 7.84468 12.8582 7.85184 12.8911C7.85358 12.8992 7.85529 12.9071 7.85697 12.9151C7.8602 12.9304 7.86335 12.9458 7.86641 12.9612C7.86782 12.9683 7.86922 12.9755 7.87059 12.9826C7.88155 13.0395 7.89125 13.0966 7.8997 13.1539C7.90271 13.1743 7.90556 13.1947 7.90825 13.2151C7.91183 13.2424 7.91512 13.2697 7.91813 13.297C7.92445 13.3543 7.92952 13.4118 7.93332 13.4695C7.93407 13.4809 7.93476 13.4923 7.93542 13.5037C7.93592 13.5125 7.93639 13.5213 7.93684 13.5301C7.93871 13.5673 7.94005 13.6044 7.94087 13.6416C7.94173 13.6811 7.942 13.7205 7.94168 13.76C7.9416 13.7694 7.94148 13.7789 7.94133 13.7884C7.94123 13.7955 7.9411 13.8024 7.94096 13.8094C7.94017 13.8471 7.93883 13.885 7.93694 13.9229C7.93626 13.9364 7.93552 13.9498 7.93471 13.9633C7.93415 13.9725 7.93357 13.9817 7.93295 13.9909C7.93245 13.9983 7.93193 14.0058 7.93138 14.0132C7.9282 14.0567 7.92429 14.1002 7.91963 14.1437C7.91956 14.1444 7.91949 14.1451 7.91941 14.1457L7.91963 14.1437C7.91005 14.2333 7.89734 14.3227 7.88147 14.412C7.87992 14.4207 7.87836 14.4293 7.87675 14.438C7.87472 14.449 7.87264 14.46 7.87051 14.4709C7.86417 14.5037 7.85739 14.5364 7.85018 14.5691C7.84419 14.5962 7.83788 14.6235 7.83126 14.6506L15.2158 18.8898ZM38.9744 15.3519C39.8786 14.8328 40.1885 13.6831 39.6664 12.7839C39.1443 11.8848 37.9881 11.5767 37.0838 12.0959C36.371 12.5051 36.0276 13.3061 36.1698 14.0673C36.1711 14.0747 36.1725 14.0822 36.174 14.0896L36.1698 14.0673C36.1724 14.0814 36.1752 14.0955 36.1782 14.1096L36.174 14.0896C36.1776 14.1077 36.1815 14.1257 36.1857 14.1437L36.1782 14.1096C36.1822 14.1285 36.1865 14.1475 36.1911 14.1664L36.1857 14.1437C36.1891 14.1586 36.1927 14.1734 36.1965 14.1882L36.1911 14.1664C36.1951 14.1825 36.1992 14.1986 36.2036 14.2147L36.1965 14.1882C36.2011 14.2058 36.2059 14.2233 36.2109 14.2408L36.2036 14.2147C36.2077 14.2297 36.212 14.2446 36.2164 14.2596L36.2109 14.2408C36.2269 14.2961 36.2455 14.3509 36.2667 14.405C36.2697 14.4126 36.2727 14.4203 36.2758 14.4279L36.2667 14.405C36.2734 14.4222 36.2804 14.4392 36.2877 14.4562L36.2758 14.4279C36.2822 14.4435 36.2887 14.459 36.2955 14.4744L36.2877 14.4562C36.2938 14.4705 36.3 14.4847 36.3065 14.4989L36.2955 14.4744C36.3036 14.4928 36.312 14.5111 36.3207 14.5294L36.3065 14.4989C36.3135 14.5141 36.3206 14.5293 36.328 14.5444L36.3207 14.5294C36.3279 14.5443 36.3353 14.5593 36.3429 14.5742L36.328 14.5444C36.337 14.5627 36.3463 14.581 36.3559 14.5992L36.3429 14.5742C36.3538 14.5956 36.3652 14.6168 36.377 14.638L36.3918 14.6638C36.4177 14.7084 36.4452 14.7517 36.4742 14.7935C36.4784 14.7994 36.4825 14.8054 36.4867 14.8113L36.4742 14.7935C36.4945 14.8227 36.5155 14.8512 36.5372 14.879C36.541 14.8839 36.5448 14.8887 36.5486 14.8935L36.5372 14.879C36.5461 14.8903 36.555 14.9015 36.5641 14.9126L36.5486 14.8935C36.5609 14.9088 36.5733 14.9239 36.586 14.9388L36.5641 14.9126C36.5744 14.9251 36.5848 14.9375 36.5953 14.9498L36.586 14.9388C36.5955 14.95 36.6051 14.9611 36.6148 14.972L36.5953 14.9498C36.6207 14.9791 36.6469 15.0076 36.6738 15.0352C36.6933 15.0551 36.7131 15.0745 36.7333 15.0935C36.752 15.111 36.7711 15.1282 36.7905 15.1449C36.801 15.1539 36.8114 15.1627 36.822 15.1714L36.7905 15.1449C36.8029 15.1557 36.8155 15.1662 36.8282 15.1766L36.822 15.1714C37.4133 15.6588 38.2703 15.7562 38.9744 15.3519ZM5.28146 15.0795L5.2967 15.0648C5.31599 15.0459 5.3349 15.0265 5.35343 15.0068C5.35602 15.004 5.35851 15.0013 5.361 14.9986L5.35343 15.0068C5.36505 14.9943 5.37652 14.9818 5.38783 14.969L5.361 14.9986C5.37334 14.9853 5.38552 14.9718 5.39752 14.958L5.38783 14.969C5.39958 14.9557 5.41116 14.9423 5.42257 14.9287L5.39752 14.958C5.40778 14.9463 5.41792 14.9343 5.42793 14.9223L5.42257 14.9287C5.43221 14.9172 5.44173 14.9055 5.45112 14.8937L5.42793 14.9223C5.44112 14.9064 5.45408 14.8902 5.46681 14.8738L5.45112 14.8937C5.4618 14.8804 5.4723 14.8668 5.48264 14.8531L5.46681 14.8738C5.47638 14.8615 5.48581 14.849 5.49511 14.8364L5.48264 14.8531C5.49267 14.8398 5.50254 14.8263 5.51225 14.8127L5.49511 14.8364C5.50565 14.8221 5.51602 14.8076 5.52621 14.7929L5.51225 14.8127C5.54629 14.7649 5.57832 14.7153 5.6082 14.6638C5.6132 14.6552 5.61811 14.6466 5.62296 14.638L5.6082 14.6638C5.63042 14.6256 5.65113 14.5868 5.67036 14.5477C5.67506 14.5382 5.67967 14.5286 5.6842 14.5189L5.67036 14.5477C5.67582 14.5366 5.68116 14.5255 5.68637 14.5143L5.6842 14.5189C5.69162 14.5032 5.69882 14.4873 5.70577 14.4714C5.70783 14.4668 5.70986 14.4621 5.71187 14.4574L5.70577 14.4714C5.73622 14.4018 5.76218 14.3309 5.7837 14.2591C5.78503 14.2547 5.78633 14.2503 5.78762 14.2458L5.7837 14.2591C5.78856 14.2429 5.7932 14.2267 5.79761 14.2104L5.78762 14.2458C5.79268 14.2285 5.79748 14.2111 5.80201 14.1937L5.79761 14.2104C5.8018 14.1949 5.80579 14.1793 5.80957 14.1638L5.80201 14.1937C5.81111 14.1587 5.81915 14.1236 5.82615 14.0883C5.82721 14.0835 5.82816 14.0786 5.82909 14.0738L5.82615 14.0883C5.97871 13.3209 5.63555 12.5088 4.9162 12.0959C4.01194 11.5767 2.85567 11.8848 2.3336 12.7839C1.81153 13.6831 2.12135 14.8328 3.02561 15.3519C3.77198 15.7804 4.69004 15.6453 5.28146 15.0795ZM6.73908 30.4448L11.2429 27.8591C10.4771 26.9216 10.0182 25.7263 10.0182 24.4244C10.0182 22.4652 11.0576 20.7473 12.618 19.7863L6.8305 16.4638C6.80704 16.4881 6.78331 16.512 6.75932 16.5355C6.71781 16.5763 6.67553 16.616 6.6325 16.6546C6.45786 16.8115 6.27084 16.9512 6.07412 17.0731C5.99751 17.1206 5.91943 17.1654 5.84005 17.2074L5.8376 17.2087C5.80154 17.2277 5.76521 17.2462 5.72862 17.2642C5.67598 17.2899 5.62288 17.3145 5.56929 17.3379C5.55128 17.3457 5.53324 17.3535 5.51514 17.361C5.47413 17.3782 5.4328 17.3947 5.39122 17.4105C5.36452 17.4207 5.33781 17.4305 5.311 17.4401C5.26078 17.4579 5.21019 17.4748 5.1593 17.4907C5.12824 17.5004 5.09708 17.5097 5.06583 17.5186C5.01085 17.5342 4.95553 17.5488 4.89991 17.5621C4.86684 17.57 4.83363 17.5775 4.80032 17.5846C4.76845 17.5914 4.73646 17.5978 4.70439 17.6038C4.69789 17.605 4.69147 17.6062 4.68505 17.6074C4.66087 17.6118 4.63656 17.616 4.61221 17.6199C4.58001 17.6252 4.54781 17.6301 4.51554 17.6345C4.51208 17.635 4.50867 17.6355 4.50527 17.6359C4.49858 17.6368 4.49179 17.6377 4.48501 17.6386C4.44729 17.6436 4.40953 17.6479 4.3717 17.6518C4.33517 17.6555 4.29867 17.6587 4.26211 17.6614C4.2536 17.662 4.24509 17.6626 4.23658 17.6632C4.19947 17.6657 4.16229 17.6677 4.12507 17.6692C4.1175 17.6695 4.10995 17.6698 4.10241 17.67C4.07932 17.6708 4.05621 17.6714 4.03309 17.6718L3.97175 17.6723H3.9709L3.9709 29.3277H3.97175C4.09452 29.3278 4.21698 29.3336 4.33874 29.345C4.36049 29.347 4.3822 29.3492 4.40388 29.3516C4.45352 29.3571 4.50307 29.3635 4.55247 29.3708C4.58697 29.3759 4.62135 29.3814 4.65565 29.3874C4.70154 29.3954 4.74726 29.4042 4.7928 29.4138C4.82936 29.4215 4.86573 29.4297 4.90197 29.4384L4.96755 29.4548C5.09026 29.4864 5.21144 29.5238 5.33065 29.567C5.35827 29.577 5.38568 29.5872 5.41298 29.5978C5.46991 29.6198 5.52586 29.643 5.58129 29.6674C5.59075 29.6715 5.60029 29.6758 5.60981 29.6801C5.63265 29.6903 5.6553 29.7008 5.67785 29.7114C5.72063 29.7316 5.76308 29.7526 5.80518 29.7744C5.92267 29.8351 6.03735 29.9017 6.14872 29.9742C6.17685 29.9926 6.20476 30.0112 6.23246 30.0303C6.24376 30.0381 6.25507 30.0459 6.26633 30.0539C6.3013 30.0785 6.33588 30.1036 6.37009 30.1294C6.49871 30.2263 6.62199 30.3315 6.73908 30.4448ZM35.292 30.4154L35.3132 30.3951C35.3819 30.331 35.4526 30.2697 35.5252 30.2111C35.6535 30.1075 35.7875 30.0126 35.9263 29.9266L35.9284 29.9253C35.9587 29.9065 35.9892 29.8882 36.02 29.8703C36.0272 29.8662 36.0345 29.8619 36.0418 29.8577L36.02 29.8703C36.0793 29.8358 36.1395 29.8028 36.2004 29.7715C36.2873 29.7268 36.3757 29.6853 36.4655 29.6471C36.6001 29.5899 36.7377 29.5401 36.8776 29.498C36.8872 29.4951 36.8968 29.4923 36.9065 29.4894C36.9376 29.4803 36.9691 29.4715 37.0006 29.4631C37.052 29.4494 37.1038 29.4367 37.1557 29.425C37.1679 29.4223 37.1802 29.4196 37.1924 29.417C37.2273 29.4095 37.2623 29.4024 37.2974 29.3959C37.3005 29.3953 37.3036 29.3947 37.3067 29.3942C37.3242 29.3909 37.3418 29.3878 37.3594 29.3848L37.3067 29.3942C37.3336 29.3892 37.3605 29.3845 37.3875 29.3801C37.4232 29.3743 37.4589 29.3689 37.4947 29.3641C37.5327 29.3589 37.5708 29.3543 37.609 29.3502C37.6156 29.3495 37.6222 29.3488 37.6289 29.3482C37.6646 29.3445 37.7003 29.3414 37.7361 29.3387C37.7452 29.338 37.7543 29.3374 37.7633 29.3368C37.7989 29.3344 37.8345 29.3325 37.8701 29.331C37.8793 29.3306 37.8885 29.3303 37.8978 29.33C37.902 29.3298 37.9061 29.3297 37.9102 29.3296C37.9497 29.3284 37.9893 29.3277 38.029 29.3277L38.0205 29.3279L38.0283 29.3277L38.029 29.3277V17.6723H38.0283C37.9552 17.6722 37.8822 17.6701 37.8094 17.6661C37.779 17.6644 37.7487 17.6623 37.7184 17.6599C37.6777 17.6567 37.6369 17.6529 37.5962 17.6484C37.5537 17.6437 37.5113 17.6384 37.469 17.6324C37.4404 17.6283 37.4118 17.6239 37.3833 17.6192C37.3488 17.6135 37.3145 17.6074 37.2802 17.6009C37.2474 17.5946 37.2147 17.5879 37.182 17.5808C37.0885 17.5605 36.9958 17.5368 36.9039 17.5098C36.7972 17.4785 36.6924 17.4429 36.5891 17.403C36.5519 17.3886 36.5149 17.3737 36.4782 17.3582C36.4665 17.3533 36.4548 17.3483 36.4431 17.3433C36.394 17.3221 36.3455 17.2999 36.2973 17.2768C36.2723 17.2647 36.2473 17.2524 36.2224 17.2397C36.145 17.2005 36.0688 17.1587 35.9939 17.1144C35.9712 17.1009 35.9486 17.0872 35.926 17.0732L35.8693 17.0374C35.8504 17.0252 35.8315 17.0129 35.8128 17.0004C35.5936 16.854 35.3878 16.6849 35.1991 16.4941L28.0343 20.6071C30.3155 20.892 32.0857 22.8099 32.1238 25.1464L32.1245 25.2233C32.1245 26.2848 31.767 27.2633 31.1652 28.0462L35.292 30.4154ZM20.7554 27.8082H27.4453C28.881 27.8082 30.0448 26.6509 30.0448 25.2233C30.0448 23.7958 28.881 22.6385 27.4452 22.6385L26.013 22.6384L25.9361 21.6874C25.7396 19.2582 23.6922 17.3707 21.225 17.3707C19.2542 17.3707 17.5114 18.5812 16.8136 20.3789L16.5568 21.0406L15.5009 21.0406C13.6214 21.0406 12.0978 22.5556 12.0978 24.4244C12.0978 26.2932 13.6214 27.8082 15.5009 27.8082H20.5837C20.6068 27.8082 20.6294 27.808 20.6515 27.8075L20.6738 27.8071L20.7258 27.808L20.7554 27.8082ZM17.5611 41.0779L17.5725 41.0586C17.5889 41.0307 17.6057 41.0029 17.6229 40.9754C17.6282 40.9669 17.6335 40.9585 17.6388 40.9501C17.6436 40.9425 17.6484 40.935 17.6533 40.9275C17.6592 40.9183 17.6651 40.9092 17.6711 40.9001C17.7221 40.8221 17.7759 40.7461 17.8323 40.672C17.8599 40.6357 17.8882 40.5998 17.9171 40.5645C17.9637 40.5075 18.0118 40.4518 18.0615 40.3974C18.0661 40.3924 18.0706 40.3875 18.0752 40.3825C18.0844 40.3726 18.0937 40.3627 18.103 40.3528C18.1079 40.3475 18.1128 40.3424 18.1177 40.3372C18.1272 40.3273 18.1368 40.3173 18.1465 40.3073C18.2315 40.22 18.3206 40.1365 18.4133 40.0572C18.455 40.0216 18.4974 39.9868 18.5406 39.9529C18.5463 39.9484 18.5521 39.9439 18.5579 39.9394C18.5682 39.9314 18.5785 39.9235 18.5888 39.9156C18.5981 39.9086 18.6074 39.9016 18.6167 39.8946C18.6228 39.89 18.629 39.8855 18.6351 39.8809C18.6624 39.8607 18.69 39.8409 18.7178 39.8215C18.7254 39.8161 18.733 39.8109 18.7405 39.8057C18.7672 39.7873 18.7941 39.7692 18.8213 39.7514C18.8331 39.7437 18.845 39.736 18.8569 39.7284C18.8905 39.707 18.9245 39.686 18.9588 39.6655C18.9664 39.6609 18.974 39.6564 18.9817 39.6519C19.01 39.6353 19.0385 39.619 19.0671 39.6031C19.0749 39.5987 19.0828 39.5944 19.0907 39.5901C19.1005 39.5847 19.1102 39.5795 19.12 39.5742C19.1508 39.5577 19.1819 39.5416 19.2132 39.5259C19.2182 39.5234 19.2231 39.5209 19.228 39.5185C19.24 39.5125 19.252 39.5067 19.264 39.5008C19.2727 39.4966 19.2814 39.4924 19.2902 39.4883C19.3193 39.4745 19.3485 39.461 19.378 39.4479C19.4072 39.4348 19.4366 39.4222 19.4661 39.4099C19.5002 39.3957 19.5346 39.3819 19.5692 39.3686C19.6079 39.3537 19.6469 39.3394 19.6862 39.3257C19.6916 39.3238 19.697 39.322 19.7023 39.3201C19.7356 39.3087 19.7692 39.2977 19.8029 39.2871C19.8107 39.2846 19.8184 39.2822 19.8262 39.2798C19.837 39.2765 19.848 39.2732 19.859 39.2699C19.869 39.2669 19.8788 39.264 19.8887 39.2612C19.9006 39.2578 19.9125 39.2544 19.9245 39.251C19.93 39.2495 19.9354 39.248 19.9409 39.2465C19.9512 39.2436 19.9616 39.2408 19.9721 39.2381L19.9871 39.2343L19.9871 29.8762L15.5009 29.8761C14.5857 29.8761 13.7228 29.6531 12.9643 29.2588L7.79866 32.2244C7.80903 32.2616 7.81883 32.2989 7.82806 32.3363C7.8362 32.3693 7.84391 32.4023 7.85118 32.4355C7.85798 32.4664 7.86437 32.4974 7.87038 32.5284C7.87267 32.5402 7.8749 32.5519 7.87707 32.5637C7.87923 32.5754 7.88135 32.5873 7.88342 32.5991C7.89828 32.6841 7.91027 32.7692 7.91943 32.8544C7.9211 32.87 7.92268 32.8855 7.92416 32.9011C7.92688 32.9296 7.92928 32.9581 7.93137 32.9866C7.93208 32.9963 7.93275 33.006 7.93339 33.0157C7.93425 33.0289 7.93505 33.0421 7.93578 33.0552C7.93629 33.0643 7.93676 33.0733 7.93719 33.0823C7.939 33.1195 7.94028 33.1567 7.94102 33.1939C7.94124 33.2048 7.94141 33.2157 7.94154 33.2265C7.94164 33.2348 7.94171 33.2432 7.94175 33.2515L7.94154 33.2265C7.94213 33.2772 7.94175 33.3278 7.94038 33.3783C7.93952 33.4101 7.93827 33.4419 7.93665 33.4737C7.93616 33.4831 7.93564 33.4926 7.93509 33.502C7.93453 33.5115 7.93394 33.521 7.93332 33.5305C7.92821 33.608 7.92081 33.6853 7.91115 33.7623C7.90837 33.7844 7.90539 33.8066 7.90223 33.8288C7.90042 33.8414 7.89855 33.8541 7.89662 33.8667L7.90223 33.8288C7.89307 33.8929 7.88234 33.9567 7.87004 34.0202C7.86864 34.0275 7.86722 34.0347 7.86578 34.042C7.85402 34.101 7.8409 34.1597 7.82645 34.2182C7.81633 34.2591 7.80556 34.2999 7.79413 34.3405C7.79195 34.3482 7.78976 34.3559 7.78754 34.3636C7.78597 34.3691 7.78436 34.3746 7.78273 34.3802L7.78754 34.3636C7.77501 34.4071 7.76172 34.4504 7.74769 34.4935C7.74574 34.4995 7.74376 34.5055 7.74177 34.5116C7.73743 34.5247 7.73303 34.5377 7.72855 34.5508C7.72666 34.5563 7.72475 34.5619 7.72282 34.5674C7.71035 34.6033 7.69735 34.639 7.68383 34.6746C7.65984 34.7376 7.63425 34.8001 7.60705 34.8619C7.58729 34.9068 7.56666 34.9514 7.54519 34.9956C7.54 35.0063 7.53472 35.017 7.52939 35.0278C7.52513 35.0364 7.52087 35.0449 7.51657 35.0533C7.5111 35.0642 7.50554 35.075 7.49991 35.0859C7.4964 35.0927 7.49288 35.0995 7.48934 35.1062C7.48325 35.1178 7.4771 35.1294 7.47091 35.1409C7.45131 35.1774 7.43106 35.2136 7.41023 35.2496L7.40979 35.2504L17.5611 41.0779ZM24.4389 41.0779L34.5902 35.2504C34.5736 35.2218 34.5574 35.193 34.5416 35.164C34.5374 35.1562 34.5332 35.1485 34.529 35.1408C34.5229 35.1294 34.5168 35.1178 34.5107 35.1062C34.5071 35.0995 34.5036 35.0927 34.5001 35.0859C34.4937 35.0736 34.4874 35.0613 34.4812 35.049C34.4781 35.0428 34.475 35.0365 34.4718 35.0302C34.4657 35.0178 34.4596 35.0055 34.4536 34.9931C34.449 34.9837 34.4445 34.9741 34.4399 34.9646C34.4381 34.9607 34.4363 34.9569 34.4345 34.953L34.4399 34.9646C34.4312 34.9462 34.4227 34.9279 34.4143 34.9094C34.4004 34.879 34.3868 34.8482 34.3737 34.8174L34.3722 34.8138C34.3377 34.7327 34.3061 34.6505 34.2772 34.5674C34.2753 34.5619 34.2733 34.5563 34.2714 34.5508C34.267 34.5377 34.2626 34.5247 34.2582 34.5116C34.2562 34.5055 34.2543 34.4995 34.2523 34.4935C34.2483 34.4812 34.2444 34.4689 34.2405 34.4566C34.2308 34.4257 34.2214 34.3947 34.2124 34.3635C34.2102 34.3559 34.208 34.3482 34.2059 34.3405C34.1944 34.2999 34.1837 34.2591 34.1735 34.2182C34.1644 34.181 34.1557 34.1437 34.1476 34.1063C34.1457 34.0976 34.1438 34.0888 34.142 34.08C34.1347 34.0453 34.128 34.0107 34.1216 33.9759C34.1166 33.9482 34.1119 33.9203 34.1074 33.8925L34.1059 33.8828C34.0747 33.684 34.0586 33.4827 34.0582 33.2804C34.0582 33.2709 34.0582 33.2612 34.0582 33.2516C34.0583 33.2432 34.0584 33.2348 34.0585 33.2265L34.0582 33.2516C34.0584 33.2324 34.0586 33.2131 34.059 33.1939C34.0593 33.1785 34.0597 33.1631 34.0602 33.1477C34.0605 33.1379 34.0608 33.1281 34.0612 33.1184C34.0617 33.1064 34.0622 33.0944 34.0628 33.0823C34.0632 33.0745 34.0636 33.0667 34.064 33.0589C34.0659 33.0249 34.0682 32.991 34.0709 32.957C34.0719 32.9445 34.073 32.932 34.0741 32.9196C34.082 32.8327 34.0928 32.7458 34.1066 32.6591C34.1076 32.6526 34.1086 32.6462 34.1097 32.6398C34.1161 32.6008 34.1231 32.5618 34.1307 32.5229C34.1321 32.5159 34.1334 32.5089 34.1348 32.502C34.1379 32.4869 34.141 32.4718 34.1442 32.4567C34.1457 32.4497 34.1473 32.4426 34.1488 32.4355C34.1513 32.4244 34.1537 32.4133 34.1563 32.4022C34.1591 32.3898 34.162 32.3773 34.165 32.3648C34.1738 32.3279 34.1832 32.2911 34.1931 32.2544C34.1973 32.239 34.2015 32.2235 34.2059 32.2081C34.2082 32.1999 34.2106 32.1918 34.2129 32.1837L29.4302 29.4379C28.8276 29.719 28.1549 29.8761 27.4453 29.8761L22.0667 29.8762L22.0667 39.2486C22.0863 39.254 22.1059 39.2596 22.1253 39.2653C22.1312 39.267 22.1371 39.2687 22.1429 39.2705C22.1569 39.2746 22.1708 39.2789 22.1847 39.2832C22.1917 39.2854 22.1987 39.2876 22.2057 39.2898C22.2184 39.2938 22.2311 39.2979 22.2437 39.302C22.251 39.3044 22.2583 39.3068 22.2656 39.3093C22.3 39.3208 22.3342 39.3327 22.3682 39.3451C22.374 39.3472 22.3798 39.3494 22.3856 39.3515C22.397 39.3558 22.4083 39.36 22.4195 39.3643C22.4498 39.3758 22.4799 39.3877 22.5098 39.3999C22.5549 39.4184 22.5994 39.4376 22.6435 39.4575C22.6675 39.4684 22.6914 39.4795 22.7151 39.4908C22.7232 39.4947 22.7313 39.4985 22.7393 39.5025C22.7888 39.5264 22.8376 39.5514 22.8858 39.5773C22.8982 39.584 22.9106 39.5908 22.9229 39.5976C22.9285 39.6006 22.9341 39.6037 22.9397 39.6069C22.9501 39.6126 22.9603 39.6184 22.9706 39.6243C22.9812 39.6303 22.9918 39.6364 23.0023 39.6425C23.0097 39.6468 23.0171 39.6512 23.0245 39.6556C23.0372 39.663 23.0497 39.6705 23.0622 39.6781C23.066 39.6804 23.0698 39.6827 23.0737 39.6851C23.0884 39.6941 23.1032 39.7032 23.1179 39.7124C23.1231 39.7157 23.1282 39.719 23.1333 39.7222C23.1427 39.7281 23.152 39.7341 23.1613 39.7401C23.1707 39.7462 23.18 39.7522 23.1892 39.7583C23.1978 39.764 23.2063 39.7696 23.2148 39.7753C23.2234 39.7811 23.232 39.7869 23.2407 39.7928C23.2525 39.8009 23.2643 39.809 23.2761 39.8172C23.3092 39.8402 23.3419 39.8638 23.3742 39.8878C23.3983 39.9057 23.4223 39.9239 23.446 39.9424C23.454 39.9487 23.462 39.9549 23.47 39.9612C23.5286 40.0076 23.5859 40.0556 23.6418 40.1052C23.6484 40.111 23.6551 40.117 23.6617 40.123C23.6743 40.1343 23.6866 40.1455 23.6989 40.1569C23.7031 40.1607 23.7073 40.1646 23.7115 40.1685C23.7168 40.1735 23.7222 40.1785 23.7276 40.1835C23.7382 40.1936 23.7489 40.2037 23.7595 40.2139C23.7649 40.2191 23.7703 40.2243 23.7756 40.2295C23.7822 40.2358 23.7887 40.2423 23.7952 40.2487L23.8074 40.2607C23.8109 40.2642 23.8143 40.2676 23.8178 40.2711C23.8412 40.2946 23.8644 40.3184 23.8873 40.3425L23.8923 40.3478C23.9109 40.3675 23.9294 40.3874 23.9477 40.4075C23.9629 40.4243 23.9779 40.4411 23.9929 40.4581C24.0146 40.4829 24.0361 40.508 24.0572 40.5333C24.0629 40.5402 24.0686 40.547 24.0742 40.5539C24.0825 40.564 24.0907 40.5741 24.0989 40.5842C24.119 40.6091 24.1388 40.6343 24.1583 40.6597C24.1643 40.6675 24.1703 40.6754 24.1763 40.6834C24.1815 40.6902 24.1867 40.6971 24.1918 40.7039C24.2 40.715 24.2082 40.7261 24.2163 40.7372C24.2207 40.7432 24.2251 40.7493 24.2294 40.7553C24.2377 40.7669 24.246 40.7785 24.2543 40.7902C24.2583 40.7959 24.2623 40.8016 24.2663 40.8073C24.2736 40.8178 24.2808 40.8283 24.288 40.8388C24.2933 40.8466 24.2986 40.8544 24.3038 40.8622C24.3435 40.9213 24.3816 40.9814 24.418 41.0426L24.4389 41.0779ZM4.9162 34.9041C5.63035 34.4942 5.97374 33.6909 5.82938 32.9283C5.82843 32.9227 5.82735 32.9172 5.82624 32.9117L5.82938 32.9283C5.82356 32.8975 5.81694 32.8668 5.80952 32.8363C5.77742 32.704 5.73052 32.5741 5.66866 32.4488C5.66577 32.443 5.66278 32.437 5.65977 32.4311L5.66866 32.4488C5.66208 32.4355 5.65532 32.4222 5.64839 32.409L5.65977 32.4311C5.65125 32.4143 5.64246 32.3975 5.63338 32.3809L5.6082 32.3362C5.58244 32.2918 5.55508 32.2488 5.5262 32.2072C5.52189 32.2009 5.51755 32.1947 5.51318 32.1886L5.5262 32.2072C5.51682 32.1936 5.50727 32.1802 5.49757 32.167L5.51318 32.1886C5.50304 32.1743 5.49274 32.1603 5.48227 32.1464L5.49757 32.167C5.48635 32.1517 5.47492 32.1366 5.46328 32.1217L5.48227 32.1464C5.47322 32.1344 5.46405 32.1225 5.45475 32.1108L5.46328 32.1217C5.45238 32.1077 5.4413 32.0939 5.43005 32.0803L5.45475 32.1108C5.44429 32.0976 5.43368 32.0846 5.42292 32.0717L5.43005 32.0803C5.41023 32.0563 5.38988 32.0329 5.36901 32.0101C4.78379 31.3699 3.80991 31.1978 3.02561 31.6481C2.12135 32.1672 1.81153 33.3169 2.3336 34.2161C2.85567 35.1152 4.01194 35.4233 4.9162 34.9041ZM39.6664 34.2161C40.1885 33.3169 39.8786 32.1672 38.9744 31.6481C38.2577 31.2366 37.3827 31.3448 36.7906 31.8551C36.7782 31.8657 36.7661 31.8764 36.7541 31.8873L36.7185 31.9205C36.699 31.9392 36.6798 31.9584 36.6609 31.9781C36.6563 31.9829 36.6518 31.9877 36.6473 31.9924L36.6609 31.9781C36.6509 31.9885 36.641 31.9991 36.6313 32.0098L36.6473 31.9924C36.6364 32.004 36.6257 32.0158 36.6151 32.0277L36.6313 32.0098C36.6199 32.0222 36.6087 32.0347 36.5977 32.0475L36.6151 32.0277C36.6038 32.0403 36.5927 32.0532 36.5817 32.0662L36.5977 32.0475C36.5867 32.0601 36.5759 32.073 36.5653 32.086L36.5817 32.0662C36.5479 32.1063 36.5156 32.148 36.4849 32.1913C36.4813 32.1963 36.4778 32.2014 36.4742 32.2065L36.4849 32.1913C36.4519 32.2378 36.4208 32.2861 36.3918 32.3362C36.3831 32.3511 36.3747 32.3661 36.3664 32.3812C36.3633 32.3869 36.3602 32.3927 36.3572 32.3984L36.3664 32.3812C36.3573 32.398 36.3485 32.4148 36.3399 32.4318L36.3572 32.3984C36.3487 32.4144 36.3404 32.4304 36.3325 32.4466L36.3399 32.4318C36.3327 32.4459 36.3257 32.4601 36.319 32.4744L36.3325 32.4466C36.3241 32.4634 36.316 32.4804 36.3082 32.4974L36.319 32.4744C36.3024 32.5091 36.2871 32.5442 36.2728 32.5796C36.2707 32.5847 36.2687 32.5898 36.2667 32.5948L36.2728 32.5796C36.2452 32.6481 36.2219 32.7177 36.2028 32.7881C36.2005 32.7968 36.1982 32.8054 36.196 32.8141L36.2028 32.7881C36.1985 32.804 36.1944 32.82 36.1905 32.836L36.196 32.8141C36.192 32.8296 36.1883 32.8451 36.1848 32.8606L36.1905 32.836C36.1861 32.8541 36.182 32.8723 36.1781 32.8905L36.1848 32.8606C36.181 32.8772 36.1774 32.8939 36.1741 32.9106L36.1781 32.8905C36.175 32.9051 36.1721 32.9197 36.1694 32.9343L36.1741 32.9106C36.021 33.6784 36.3641 34.491 37.0838 34.9041C37.9881 35.4233 39.1443 35.1152 39.6664 34.2161ZM21 44.9321C22.0441 44.9321 22.8906 44.0905 22.8906 43.0522C22.8906 42.2574 22.3945 41.5778 21.6934 41.3028C21.6883 41.3006 21.6831 41.2986 21.6779 41.2967L21.6934 41.3028C21.6805 41.2977 21.6675 41.2928 21.6544 41.288L21.6779 41.2967C21.6626 41.2908 21.6472 41.2852 21.6318 41.2797L21.6544 41.288C21.6398 41.2826 21.6251 41.2775 21.6103 41.2725L21.6318 41.2797C21.6163 41.2743 21.6007 41.269 21.585 41.264L21.6103 41.2725C21.594 41.2669 21.5776 41.2616 21.561 41.2565L21.585 41.264C21.5688 41.2588 21.5525 41.2538 21.5362 41.249L21.561 41.2565C21.5467 41.2521 21.5323 41.2478 21.5178 41.2437L21.5362 41.249C21.5205 41.2444 21.5047 41.24 21.4889 41.2358L21.5178 41.2437C21.5007 41.2389 21.4836 41.2343 21.4663 41.23L21.4889 41.2358C21.4505 41.2256 21.4116 41.2166 21.3724 41.2088C21.3641 41.2071 21.3558 41.2056 21.3475 41.204L21.3724 41.2088C21.3575 41.2058 21.3425 41.2031 21.3274 41.2004L21.3475 41.204C21.3305 41.2009 21.3135 41.198 21.2963 41.1953L21.3274 41.2004C21.3093 41.1973 21.2911 41.1944 21.2729 41.1918L21.2963 41.1953C21.2843 41.1934 21.2723 41.1916 21.2602 41.19L21.2729 41.1918C21.2541 41.1891 21.2353 41.1867 21.2164 41.1845L21.2602 41.19C21.2436 41.1877 21.2269 41.1857 21.2101 41.1838L21.2164 41.1845C21.2005 41.1827 21.1846 41.1811 21.1686 41.1797L21.2101 41.1838C21.1921 41.1818 21.174 41.1801 21.1559 41.1786L21.1686 41.1797C21.1508 41.1782 21.133 41.1768 21.1151 41.1758L21.1559 41.1786C21.1386 41.1772 21.1213 41.1761 21.1039 41.1751L21.1151 41.1758C21.0982 41.1748 21.0813 41.174 21.0644 41.1734L21.1039 41.1751C21.0695 41.1733 21.0349 41.1723 21 41.1723L20.9486 41.173C20.9443 41.1731 20.94 41.1733 20.9357 41.1734L20.9485 41.173C20.931 41.1735 20.9135 41.1742 20.8961 41.1751L20.9357 41.1734C20.9187 41.174 20.9018 41.1748 20.8849 41.1758L20.8961 41.1751C20.8787 41.1761 20.8614 41.1772 20.8442 41.1786L20.8849 41.1758C20.867 41.1768 20.8492 41.1781 20.8314 41.1797L20.8442 41.1786C20.826 41.1801 20.8079 41.1819 20.7898 41.1838L20.8314 41.1797C20.8154 41.1811 20.7995 41.1827 20.7837 41.1845L20.7898 41.1838C20.7729 41.1857 20.7559 41.1878 20.7391 41.1901L20.7837 41.1845C20.7652 41.1866 20.7469 41.1889 20.7286 41.1916L20.7391 41.1901C20.7267 41.1918 20.7143 41.1936 20.702 41.1956L20.7286 41.1916C20.7098 41.1942 20.6911 41.1972 20.6724 41.2005L20.702 41.1956C20.687 41.1979 20.672 41.2005 20.6571 41.2032L20.6724 41.2005C20.657 41.2031 20.6417 41.206 20.6264 41.209L20.6571 41.2032C20.6151 41.2108 20.5734 41.2199 20.5322 41.2303C20.5262 41.2319 20.5201 41.2334 20.514 41.235L20.5322 41.2303C20.5153 41.2346 20.4985 41.2391 20.4817 41.2438L20.514 41.235C20.4984 41.2391 20.4829 41.2435 20.4674 41.248L20.4817 41.2438C20.4666 41.2481 20.4516 41.2525 20.4366 41.2571L20.4674 41.248C20.4502 41.253 20.4331 41.2582 20.4161 41.2637L20.4366 41.2571C20.4209 41.262 20.4053 41.2671 20.3897 41.2723L20.4161 41.2637C20.4 41.2689 20.3841 41.2743 20.3682 41.2799L20.3897 41.2723C20.3749 41.2773 20.3602 41.2825 20.3456 41.2879L20.3682 41.2799C20.3525 41.2854 20.3369 41.2911 20.3214 41.2971L20.3456 41.2879C20.333 41.2925 20.3205 41.2972 20.3081 41.3021L20.3214 41.2971C19.6125 41.5682 19.1094 42.2518 19.1094 43.0522C19.1094 44.0905 19.9559 44.9321 21 44.9321Z" fill="#0149FF"/>
</svg>
