<svg width="14" height="16" viewBox="0 0 14 16" fill="none" xmlns="http://www.w3.org/2000/svg">
<path d="M6.87396 0.799805C9.79601 0.799805 12.1703 3.14491 12.2175 6.05572L12.2182 6.14409L12.2183 7.28151C12.4793 7.46716 12.6901 7.70744 12.8445 7.99622L12.8779 8.06035C13.0506 8.40357 13.144 8.7761 13.1478 9.68768V12.2891C13.1478 13.3012 13.0424 13.6682 12.8445 14.0382C12.6467 14.4083 12.3563 14.6987 11.9863 14.8965L11.9221 14.9299C11.5789 15.1026 11.2064 15.196 10.2948 15.1997L3.5108 15.1998C2.49868 15.1998 2.13167 15.0944 1.76165 14.8965C1.39164 14.6987 1.10125 14.4083 0.903365 14.0382L0.880504 13.9947C0.701039 13.6456 0.604026 13.2766 0.600098 12.3468V9.74536C0.600098 8.73325 0.70548 8.36623 0.903365 7.99622C1.0578 7.70744 1.26859 7.46716 1.52959 7.28151L1.52967 6.14409C1.52967 3.19252 3.92239 0.799805 6.87396 0.799805ZM10.2371 8.14918L3.45851 8.14929L3.32504 8.15037C2.74693 8.15762 2.56771 8.19755 2.38158 8.29709C2.24065 8.37246 2.1379 8.47521 2.06253 8.61614L2.04163 8.65706C1.95729 8.83098 1.9216 9.02767 1.91556 9.5642L1.91462 9.7453L1.91473 12.3414L1.9158 12.4749C1.92306 13.053 1.96299 13.2322 2.06253 13.4183C2.1379 13.5593 2.24065 13.662 2.38158 13.7374L2.4225 13.7583C2.59642 13.8426 2.79311 13.8783 3.32968 13.8843L3.5108 13.8853L10.3306 13.885C10.9793 13.8817 11.1714 13.8416 11.3663 13.7374C11.5073 13.662 11.61 13.5593 11.6854 13.4183L11.7063 13.3774C11.7906 13.2035 11.8263 13.0068 11.8324 12.4702L11.8333 12.2891L11.8331 9.65184C11.8297 9.00318 11.7897 8.81111 11.6854 8.61614C11.61 8.47521 11.5073 8.37246 11.3663 8.29709L11.3254 8.2762C11.1515 8.19185 10.9548 8.15616 10.4182 8.15012L10.2371 8.14918ZM6.99346 9.58321C7.58745 9.58321 8.06898 10.0647 8.06898 10.6587C8.06898 11.0052 7.90518 11.3134 7.6508 11.5101L7.65072 11.9135C7.65072 12.2765 7.35645 12.5708 6.99346 12.5708C6.63046 12.5708 6.3362 12.2765 6.3362 11.9135L6.33624 11.5101C6.08179 11.3134 5.91794 11.0052 5.91794 10.6587C5.91794 10.0647 6.39947 9.58321 6.99346 9.58321ZM6.87396 2.11433C4.67063 2.11433 2.88032 3.88261 2.84473 6.07746L2.84419 6.14409L2.84412 6.85556C3.01683 6.84273 3.21687 6.83574 3.45312 6.83478L10.2371 6.83466C10.4988 6.83466 10.7173 6.8417 10.9039 6.85556L10.9037 6.14409C10.9037 3.91852 9.09953 2.11433 6.87396 2.11433Z" fill="#56606D"/>
</svg>
