<svg width="445" height="325" viewBox="0 0 445 325" fill="none" xmlns="http://www.w3.org/2000/svg">
<mask id="mask0_20566_237156" style="mask-type:alpha" maskUnits="userSpaceOnUse" x="0" y="103" width="445" height="222">
<path d="M0 103.186H444.729V304.544C444.729 315.59 435.774 324.544 424.729 324.544H0V103.186Z" fill="#C4C4C4"/>
</mask>
<g mask="url(#mask0_20566_237156)">
<path fill-rule="evenodd" clip-rule="evenodd" d="M230.525 121.877H216.208L194.452 259.44C193.392 259.295 192.314 259.22 191.223 259.22C184.489 259.22 178.347 262.056 173.845 266.682H168.105V275.697C167.47 277.357 166.99 279.104 166.685 280.916C160.041 273.171 150.484 268.456 140.092 268.456C121.362 268.456 105.818 283.696 104.327 303.311L104.011 307.462C97.0562 300.662 87.7594 296.523 77.5972 296.523C61.3774 296.523 47.0343 307.119 41.2916 322.855L39.1779 328.647L30.4876 328.647C15.0197 328.647 2.48047 341.908 2.48047 358.266C2.48047 374.624 15.0197 387.885 30.4876 387.885H72.3192C72.5094 387.885 72.6951 387.883 72.8768 387.879L73.0608 387.875L73.4884 387.884L73.7325 387.885H128.79C140.605 387.885 150.184 377.755 150.184 365.259C150.184 360.627 148.868 356.32 146.609 352.733H183.548C185.185 352.733 186.786 352.572 188.338 352.264H200.826C202.743 352.947 204.796 353.317 206.931 353.317H209.128C208.873 354.926 208.739 356.58 208.739 358.266C208.739 374.624 221.278 387.885 236.746 387.885H278.578C278.662 387.885 278.745 387.885 278.827 387.884C278.931 387.883 279.034 387.882 279.136 387.879L279.32 387.875L279.747 387.884L279.991 387.885H300.78H335.048H342.611C342.801 387.885 342.987 387.883 343.169 387.879L343.353 387.875L343.78 387.884L344.024 387.885H399.082C410.897 387.885 420.476 377.755 420.476 365.259C420.476 352.764 410.897 342.634 399.081 342.634L387.294 342.633L386.661 334.309C385.044 313.045 368.194 296.523 347.889 296.523C335.157 296.523 323.581 303.052 316.414 313.471C313.401 308.034 308.605 303.836 302.876 301.772C297.731 298.718 291.872 296.866 285.647 296.566L285.144 295.188C280.128 281.445 267.774 272.088 253.687 271.666V266.682H208.607C208.476 266.548 208.344 266.415 208.211 266.284H254.727L230.525 121.877Z" fill="#EBEEF1"/>
</g>
<path fill-rule="evenodd" clip-rule="evenodd" d="M244.833 130.103C247.966 141.797 241.026 153.817 229.332 156.95C222.643 158.743 215.847 157.239 210.669 153.435C213.484 155.469 217.158 156.266 220.775 155.297C227.153 153.588 230.939 147.032 229.23 140.653C227.521 134.274 220.964 130.489 214.586 132.198C208.207 133.907 204.422 140.464 206.131 146.842C206.828 149.445 208.333 151.616 210.303 153.158C206.607 150.325 203.783 146.295 202.485 141.45C199.351 129.756 206.291 117.736 217.985 114.603C229.679 111.469 241.699 118.409 244.833 130.103Z" fill="#C8D3DE"/>
<path fill-rule="evenodd" clip-rule="evenodd" d="M224.655 101.899C238.412 101.899 249.565 113.051 249.565 126.809C249.565 132.013 247.969 136.845 245.239 140.841C245.462 139.853 245.579 138.825 245.579 137.769C245.579 130.065 239.334 123.819 231.63 123.819C223.926 123.819 217.68 130.065 217.68 137.769C217.68 144.451 222.378 150.035 228.651 151.4C227.35 151.61 226.015 151.719 224.655 151.719C210.897 151.719 199.745 140.566 199.745 126.809C199.745 113.051 210.897 101.899 224.655 101.899Z" fill="#FFC600"/>
<path fill-rule="evenodd" clip-rule="evenodd" d="M224.655 52.0784L263.514 115.848L185.795 115.848L224.655 52.0784Z" fill="#0218A7"/>
<path fill-rule="evenodd" clip-rule="evenodd" d="M223.857 20.912L224.654 20.1936C251.164 43.7572 259.801 81.497 246.277 114.201L245.579 115.848L203.73 115.848L203.448 115.19C189.616 82.9162 197.547 45.5161 223.078 21.6316L223.857 20.912Z" fill="#276CFF"/>
<path fill-rule="evenodd" clip-rule="evenodd" d="M224.655 20.1937C230.037 24.9776 234.682 30.3457 238.555 36.1374L210.755 36.1374C214.435 30.6339 218.813 25.5128 223.857 20.9121L224.655 20.1937Z" fill="#FF458B"/>
<path d="M224.655 83.9634C232.91 83.9634 239.601 77.2718 239.601 69.0174C239.601 60.7629 232.909 54.0713 224.655 54.0713C216.401 54.0713 209.709 60.7629 209.709 69.0173C209.709 77.2718 216.401 83.9634 224.655 83.9634Z" fill="white"/>
<path d="M224.655 79.978C230.708 79.978 235.615 75.0708 235.615 69.0175C235.615 62.9643 230.708 58.0571 224.655 58.0571C218.601 58.0571 213.694 62.9643 213.694 69.0175C213.694 75.0708 218.601 79.978 224.655 79.978Z" fill="#0218A7"/>
</svg>
