<svg width="13" height="14" viewBox="0 0 13 14" fill="none" xmlns="http://www.w3.org/2000/svg">
    <rect y="0.954102" width="13" height="12.8807" rx="6.44037" fill="#A9B5C1"/>
    <path fill-rule="evenodd" clip-rule="evenodd" d="M6.50288 10.4956C6.90175 10.4956 7.2251 10.1723 7.2251 9.77338L7.2251 7.40131C7.2251 7.00244 6.90175 6.67909 6.50288 6.67909C6.104 6.67909 5.78065 7.00244 5.78065 7.40131L5.78065 9.77338C5.78065 10.1723 6.104 10.4956 6.50288 10.4956ZM6.50005 5.96355C6.99407 5.96355 7.40283 5.56308 7.40283 5.06906C7.40283 4.57504 6.99407 4.17456 6.50005 4.17456C6.00604 4.17456 5.59728 4.57504 5.59728 5.06906C5.59728 5.56308 6.00604 5.96355 6.50005 5.96355Z" fill="white"/>
</svg>
