<svg width="30" height="30" viewBox="0 0 30 30" fill="none" xmlns="http://www.w3.org/2000/svg">
    <circle cx="15" cy="15" r="15" fill="#519CFF"/>
    <path d="M15.4709 21.1591C18.0845 21.1591 19.9538 19.7216 19.9482 17.733C19.9538 16.2841 19.0334 15.25 17.3232 15.0341V14.9432C18.6243 14.7102 19.522 13.7898 19.5163 12.483C19.522 10.6477 17.9141 9.20455 15.505 9.20455C13.1186 9.20455 11.3232 10.6023 11.2891 12.6136H13.647C13.6754 11.7273 14.4879 11.1534 15.4936 11.1534C16.4879 11.1534 17.1527 11.7557 17.147 12.6307C17.1527 13.5455 16.3743 14.1648 15.255 14.1648H14.1697V15.9716H15.255C16.5732 15.9716 17.397 16.6307 17.3913 17.5682C17.397 18.4943 16.6016 19.1307 15.4766 19.1307C14.3913 19.1307 13.5788 18.5625 13.5334 17.7102H11.0561C11.0959 19.7443 12.9141 21.1591 15.4709 21.1591Z" fill="white"/>
</svg>
