<svg width="16" height="16" viewBox="0 0 16 16" fill="none" xmlns="http://www.w3.org/2000/svg">
    <path d="M8.32568 0.975085L8.34476 0.993421L11.7271 4.37577C11.984 4.63262 11.984 5.04906 11.7271 5.30591C11.4765 5.5565 11.074 5.56261 10.816 5.32425L10.797 5.30591L8.51542 3.02433V10.4553C8.51542 10.8185 8.22095 11.113 7.85771 11.113C7.50332 11.113 7.2144 10.8327 7.20052 10.4817L7.2 10.4553V3.0681L4.96241 5.30591C4.71182 5.5565 4.30934 5.56261 4.05134 5.32425L4.03227 5.30591C3.78168 5.05532 3.77557 4.65284 4.01393 4.39484L4.03227 4.37577L7.41461 0.993421C7.6652 0.742833 8.06769 0.736721 8.32568 0.975085ZM15.1998 13.8755C15.1998 14.2387 14.9053 14.5332 14.5421 14.5332H1.50744C1.14419 14.5332 0.849725 14.2387 0.849725 13.8755C0.849725 13.5122 1.14419 13.2178 1.50744 13.2178H14.5421C14.9053 13.2178 15.1998 13.5122 15.1998 13.8755ZM1.45752 14.4833C1.09427 14.4833 0.799805 14.1888 0.799805 13.8256V11.1947C0.799805 10.8315 1.09427 10.537 1.45752 10.537C1.82076 10.537 2.11523 10.8315 2.11523 11.1947V13.8256C2.11523 14.1888 1.82076 14.4833 1.45752 14.4833ZM14.4922 14.4833C14.1289 14.4833 13.8345 14.1888 13.8345 13.8256V11.1947C13.8345 10.8315 14.1289 10.537 14.4922 10.537C14.8554 10.537 15.1499 10.8315 15.1499 11.1947V13.8256C15.1499 14.1888 14.8554 14.4833 14.4922 14.4833Z" fill="black"/>
</svg>
