<svg width="20" height="20" viewBox="0 0 20 20" fill="none" xmlns="http://www.w3.org/2000/svg">
    <g clip-path="url(#clip0)">
        <path d="M18.7676 0H11.8907C11.2109 0 10.658 0.553039 10.658 1.23273C10.658 1.91243 11.2109 2.46547 11.8907 2.46547H15.7916L9.2845 8.97246C9.05154 9.20527 8.92334 9.5148 8.92334 9.84418C8.92334 10.1736 9.05147 10.483 9.28435 10.7156C9.51724 10.9487 9.82669 11.077 10.1561 11.077C10.4853 11.077 10.7949 10.9488 11.0279 10.7158L17.5349 4.20876V8.10962C17.5349 8.78932 18.0879 9.34235 18.7676 9.34235C19.4473 9.34235 20.0003 8.78932 20.0003 8.10962V1.23273C20.0003 0.553039 19.4473 0 18.7676 0Z" fill="white"/>
        <path d="M14.1685 17.8867H2.11326V5.83152H11.1799L13.2932 3.71826H1.05663C0.473088 3.71826 0 4.19135 0 4.77489V18.9434C0 19.5269 0.473088 20 1.05663 20H15.2251C15.8086 20 16.2817 19.5269 16.2817 18.9434V6.70683L14.1685 8.82009V17.8867Z" fill="white"/>
    </g>
    <defs>
        <clipPath id="clip0">
            <rect width="20" height="20" fill="white"/>
        </clipPath>
    </defs>
</svg>
