<svg width="22" height="22" viewBox="0 0 22 22" fill="none" xmlns="http://www.w3.org/2000/svg">
    <path d="M13.3763 7.7002H3.34383C2.46383 7.7002 1.76001 8.40402 1.76001 9.28402V19.3378C1.76001 20.1954 2.46383 20.9216 3.34383 20.9216H13.3976C14.2553 20.9216 14.9814 20.2178 14.9814 19.3378L14.9823 9.28402C14.96 8.40402 14.2561 7.7002 13.3761 7.7002H13.3763ZM13.6401 19.3164C13.6401 19.4488 13.5301 19.5588 13.3977 19.5588L3.34397 19.5579C3.21162 19.5579 3.10161 19.4479 3.10161 19.3156L3.10247 9.284C3.10247 9.15165 3.21247 9.04164 3.34483 9.04164H13.3986C13.5309 9.04164 13.641 9.15164 13.641 9.284L13.6401 19.3164Z" fill="white"/>
    <path d="M18.6563 1.09974H8.62386C7.74386 1.09974 7.04004 1.80356 7.04004 2.68356V6.37978H8.36004V2.68356C8.36004 2.55122 8.47004 2.44121 8.60239 2.44121H18.6562C18.7885 2.44121 18.8985 2.55121 18.8985 2.68356V12.7373C18.8985 12.8697 18.7885 12.9797 18.6562 12.9797H16.2799V14.2997H18.6562C19.5138 14.2997 20.24 13.5959 20.24 12.7159V2.68343C20.24 1.80343 19.5362 1.09961 18.6562 1.09961L18.6563 1.09974Z" fill="#354049"/>
    <rect x="2.93335" y="8.7998" width="11.7333" height="11" fill="white"/>
    <rect x="7.1001" y="1.2334" width="12.9333" height="12.9333" rx="1.5" fill="white" stroke="#2683FF"/>
</svg>
