<svg width="207" height="89" version="1.1" viewBox="0 0 207 89" xmlns="http://www.w3.org/2000/svg">
 <path d="m39 16c-4.4183 0-8-3.5817-8-8 0-4.41828 3.5817-8 8-8s8 3.58172 8 8c0 4.4183-3.5817 8-8 8z" fill="#FF69A1"/>
 <path d="M8.10494 20L4.95911e-05 25.8885L3.09584 35.4164H13.114L16.2098 25.8885L8.10494 20Z" clip-rule="evenodd" fill="#276CFF" fill-rule="evenodd"/>
 <path d="m198.105 28-8.105 5.8885 3.096 9.5279h10.018l3.096-9.5279-8.105-5.8885z" clip-rule="evenodd" fill="#276CFF" fill-rule="evenodd"/>
 <path d="M172 78.1127L182.113 68L192.225 78.1127L182.113 88.2254L172 78.1127Z" fill="#00E567"/>
 <path d="M161.889 43L152 57.3548H171.778L161.889 43Z" clip-rule="evenodd" fill="#FFC600" fill-rule="evenodd"/>
 <path d="M20.8889 50L11 64.3548H30.7778L20.8889 50Z" clip-rule="evenodd" fill="#FFC600" fill-rule="evenodd"/>
 <path d="m103.5 86.237698c21.7892 0 39.44261-17.70893 39.44261-39.553645 0-21.844824-17.65341-39.553755-39.44261-39.553755-21.789196 0-39.442611 17.708931-39.442611 39.553755 0 21.844715 17.653415 39.553645 39.442611 39.553645z" fill="#2683ff" stroke-width=".277569"/>
 <path class="navigation-svg-path" d="m139.42219 82.605693-0.51394-13.874579-6.2921-0.125523-0.28995-6.456569-7.41032-1.243962 0.0294-6.136145-6.22569-0.05917-0.74758-6.913905-6.55937-6.558432 3.80223-14.191895c0.67195-2.507928-0.0449-5.183527-1.88093-7.019509l-15.13521-15.1349735c-1.8359-1.835982-4.511748-2.552892-7.019635-1.880946l-20.674955 5.5398834c-2.507844 0.671946-4.466742 2.6306351-5.138731 5.1385631l-5.539796 20.674854c-0.671989 2.507928 0.04497 5.183947 1.880904 7.019676l15.1351 15.1351c1.8359 1.835898 4.511752 2.552892 7.019629 1.880904l14.190724-3.800973 27.49467 27.493728zm-52.415063-52.415183c-3.121844 3.121882-8.183376 3.121882-11.305215 0-3.12184-3.121883-3.12184-8.183123 0-11.305006 3.121839-3.121882 8.183371-3.121882 11.305215 0 3.121843 3.121883 3.121843 8.183123 0 11.305006z" clip-rule="evenodd" fill="#dedefc" fill-rule="evenodd"/>
</svg>
