<svg width="70" height="46" viewBox="0 0 70 46" fill="none" xmlns="http://www.w3.org/2000/svg">
    <path d="M64.3202 45.7708L5.75658 46C2.60965 46 0.0767544 43.4784 0.0767544 40.4219L0 5.88372C0 2.75083 2.53289 0.229236 5.60307 0.229236L64.1667 0C67.3136 0 69.8465 2.52159 69.8465 5.57807L70 40.1927C69.9232 43.2492 67.4671 45.7708 64.3202 45.7708Z" fill="#949DAA"/>
    <path d="M6 24C6 22.8954 6.89543 22 8 22H62C63.1046 22 64 22.8954 64 24V24C64 25.1046 63.1046 26 62 26H8C6.89543 26 6 25.1046 6 24V24Z" fill="#F5F9FF"/>
    <path d="M62 34.5C62 34.2239 62.2239 34 62.5 34H63.5C63.7761 34 64 34.2239 64 34.5V37.5C64 37.7761 63.7761 38 63.5 38H62.5C62.2239 38 62 37.7761 62 37.5V34.5Z" fill="#F5F9FF"/>
    <path d="M59 34.5C59 34.2239 59.2239 34 59.5 34H60.5C60.7761 34 61 34.2239 61 34.5V37.5C61 37.7761 60.7761 38 60.5 38H59.5C59.2239 38 59 37.7761 59 37.5V34.5Z" fill="#F5F9FF"/>
    <path d="M56 34.5C56 34.2239 56.2239 34 56.5 34H57.5C57.7761 34 58 34.2239 58 34.5V37.5C58 37.7761 57.7761 38 57.5 38H56.5C56.2239 38 56 37.7761 56 37.5V34.5Z" fill="#F5F9FF"/>
    <path d="M53 34.5C53 34.2239 53.2239 34 53.5 34H54.5C54.7761 34 55 34.2239 55 34.5V37.5C55 37.7761 54.7761 38 54.5 38H53.5C53.2239 38 53 37.7761 53 37.5V34.5Z" fill="#F5F9FF"/>
    <rect x="6" y="8" width="12" height="7" rx="1" fill="#F5F9FF"/>
</svg>
