<svg width="40" height="10.37" viewBox="0 0 49 15" fill="none" xmlns="http://www.w3.org/2000/svg">
    <path d="M27.5199 0C26.9564 0 26.499 0.457355 26.499 1.02084V13.2706C26.499 13.8341 26.9564 14.2914 27.5199 14.2914C28.0854 14.2914 28.5407 13.8341 28.5407 13.2706V1.02084C28.5407 0.457355 28.0834 0 27.5199 0Z" fill="#006FCF"/>
    <path d="M34.7083 4.08334H31.6458C31.0824 4.08334 30.625 4.5407 30.625 5.10419C30.625 5.66768 31.0824 6.12503 31.6458 6.12503H34.7083C35.2718 6.12503 35.7291 5.66768 35.7291 5.10419C35.7291 4.5407 35.2718 4.08334 34.7083 4.08334Z" fill="#006FCF"/>
    <path d="M34.7083 8.16669H31.6458C31.0824 8.16669 30.625 8.62404 30.625 9.18753C30.625 9.75102 31.0824 10.2084 31.6458 10.2084H34.7083C35.2718 10.2084 35.7291 9.75102 35.7291 9.18753C35.7291 8.62404 35.2718 8.16669 34.7083 8.16669Z" fill="#006FCF"/>
    <path d="M9.42471 5.1327C8.9531 5.02245 8.48761 5.24495 8.27525 5.66968L7.2544 7.71128C7.09515 8.02565 7.11152 8.40339 7.29727 8.70351C7.48514 9.00363 7.81377 9.18737 8.16701 9.18737H9.18785C9.75134 9.18737 10.2087 8.73002 10.2087 8.16653V6.12493C10.2087 5.6513 9.88408 5.23883 9.42471 5.1327Z" fill="#006FCF"/>
    <path d="M37.4727 6.42303L35.4311 4.38144C35.1391 4.08946 34.7002 4.00371 34.3184 4.16095C33.9366 4.31818 33.6875 4.6918 33.6875 5.10418V9.18744C33.6875 9.59982 33.9366 9.97343 34.3184 10.1307C34.4429 10.1838 34.5776 10.2083 34.7083 10.2083C34.9737 10.2083 35.2351 10.1042 35.4311 9.90817L37.4727 7.86658C37.8708 7.46827 37.8708 6.82114 37.4727 6.42303Z" fill="#006FCF"/>
    <path d="M44.2039 7.14574L48.7628 1.67422C49.018 1.36999 49.071 0.945362 48.9036 0.58811C48.7342 0.228752 48.3749 0.00012207 47.9788 0.00012207H42.8748C42.6033 0.00012207 42.3439 0.108361 42.152 0.298232L39.8123 2.63793L37.4726 0.298232C37.2807 0.108361 37.0214 0.00012207 36.7499 0.00012207H23.4365C23.0772 0.00012207 22.7444 0.189994 22.5607 0.496237L20.3741 4.14255L18.1875 0.496237C18.0017 0.187984 17.671 0.00012207 17.3116 0.00012207H7.14637C6.75849 0.00012207 6.40727 0.218607 6.23376 0.56562L0.108892 12.8154C-0.0503547 13.1297 -0.0339898 13.5075 0.151766 13.8076C0.339627 14.1077 0.668265 14.2915 1.0215 14.2915H6.12553C6.51139 14.2915 6.86463 14.073 7.03813 13.728L7.77513 12.2499H8.16712V13.2707C8.16712 13.8342 8.62447 14.2916 9.18796 14.2916H17.3544C17.8485 14.2916 18.2609 13.9404 18.3548 13.4728L18.4834 13.7281C18.6569 14.0731 19.0102 14.2916 19.396 14.2916H21.4376C21.8235 14.2916 22.1767 14.0731 22.3502 13.7281L22.4788 13.4728C22.5727 13.9403 22.9852 14.2916 23.4792 14.2916H36.7498C37.0213 14.2916 37.2806 14.1833 37.4725 13.9914L39.8122 11.6517L42.1519 13.9934C42.3438 14.1833 42.6032 14.2916 42.8747 14.2916H47.9787C48.3748 14.2916 48.7341 14.0629 48.9035 13.7036C49.0709 13.3463 49.0179 12.9216 48.7627 12.6175L44.2039 7.14574ZM43.2974 12.2498L40.5351 9.48545C40.1369 9.08733 39.4897 9.08733 39.0916 9.48545L36.3273 12.2498H24.5001V9.18733C24.5001 8.71371 24.1755 8.30124 23.7162 8.1931C23.2466 8.08486 22.7791 8.30535 22.5667 8.73008L20.8089 12.2499H20.0269L18.269 8.73008C18.0567 8.30746 17.5892 8.08496 17.1196 8.1931C16.6582 8.30134 16.3336 8.71371 16.3336 9.18733V12.2498H10.2087V11.2289C10.2087 10.6654 9.75135 10.2081 9.18787 10.2081H7.14637C6.75849 10.2081 6.40727 10.4266 6.23175 10.7716L5.49476 12.2497H2.6711L7.77513 2.04152H12.2504V9.18724C12.2504 9.75073 12.7078 10.2081 13.2712 10.2081C13.8347 10.2081 14.2921 9.75073 14.2921 9.18724V2.04152H16.7339L19.5003 6.64743C19.8658 7.26192 20.8784 7.26192 21.25 6.64743L24.0144 2.03951H36.3254L39.0897 4.80384C39.4878 5.20196 40.135 5.20196 40.5331 4.80384L43.2975 2.03951H45.8005L42.093 6.49029C41.7765 6.87003 41.7765 7.41926 42.093 7.799L45.8005 12.2498H43.2974V12.2498Z" fill="#006FCF"/>
</svg>
