<svg width="40" height="31" viewBox="0 0 68 54" fill="none" xmlns="http://www.w3.org/2000/svg">
    <path d="M39.8367 53.8724C54.5608 53.9428 68 41.8643 68 27.1703C68 11.1015 54.5608 -0.00535781 39.8367 -1.33309e-05H27.1649C12.2645 -0.00535781 0 11.1049 0 27.1703C0 41.8675 12.2645 53.9429 27.1649 53.8724H39.8367Z" fill="#0079BE"/>
    <path d="M27.2252 2.22652C13.6096 2.23079 2.57645 13.2671 2.57324 26.8882C2.57645 40.5069 13.6095 51.5422 27.2252 51.5465C40.844 51.5422 51.8794 40.5069 51.8813 26.8882C51.8793 13.2671 40.844 2.23079 27.2252 2.22652ZM11.599 26.8882C11.6118 20.2322 15.7688 14.5563 21.6306 12.3009V41.4721C15.7688 39.2179 11.6117 33.5452 11.599 26.8882ZM32.8177 41.4785V12.2999C38.6816 14.5499 42.845 20.229 42.8557 26.8882C42.845 33.5495 38.6816 39.2242 32.8177 41.4785Z" fill="white"/>
    <path d="M39.8367 53.8724C54.5608 53.9428 68 41.8643 68 27.1703C68 11.1015 54.5608 -0.00535781 39.8367 -1.33309e-05H27.1649C12.2645 -0.00535781 0 11.1049 0 27.1703C0 41.8675 12.2645 53.9429 27.1649 53.8724H39.8367Z" fill="#0079BE"/>
    <path d="M27.2252 2.22652C13.6096 2.23079 2.57645 13.2671 2.57324 26.8882C2.57645 40.5069 13.6095 51.5422 27.2252 51.5465C40.844 51.5422 51.8794 40.5069 51.8813 26.8882C51.8793 13.2671 40.844 2.23079 27.2252 2.22652ZM11.599 26.8882C11.6118 20.2322 15.7688 14.5563 21.6306 12.3009V41.4721C15.7688 39.2179 11.6117 33.5452 11.599 26.8882ZM32.8177 41.4785V12.2999C38.6816 14.5499 42.845 20.229 42.8557 26.8882C42.845 33.5495 38.6816 39.2242 32.8177 41.4785Z" fill="white"/>
</svg>
