<svg width="55" height="9.63" xmlns="http://www.w3.org/2000/svg" xmlns:svg="http://www.w3.org/2000/svg">
    <path fill-rule="nonzero" fill="rgb(95.686275%,44.705882%,8.627451%)" d="m42.15925,0c3.75028,0 6.79133,3.14453 6.79133,7.02734l0,0.00391c0,3.88672 -3.04105,7.03516 -6.79133,7.03516c-3.75386,0 -6.79491,-3.14844 -6.79491,-7.03516l0,-0.00391c0,-3.88281 3.04105,-7.02734 6.79491,-7.02734zm0,0" class="discover-svg-path"/>
    <path fill-rule="nonzero" fill="rgb(0%,0%,0%)" d="m31.49228,0.08984c1.071,0 1.97006,0.23829 3.06254,0.8125l0,3.03516c-1.03517,-1.05078 -1.93423,-1.48828 -3.12344,-1.48828c-2.33541,0 -4.17294,2.00391 -4.17294,4.53906c0,2.67578 1.78022,4.5586 4.29115,4.5586c1.12831,0 2.00946,-0.41407 3.00523,-1.44532l0,3.03516c-1.13188,0.55078 -2.04886,0.76953 -3.12344,0.76953c-3.78967,0 -6.73759,-3.01172 -6.73759,-6.89844c0,-3.84375 3.02314,-6.91797 6.79849,-6.91797zm-11.77378,0.08594c1.39694,0 2.67928,0.4961 3.75027,1.46485l-1.30382,1.76562c-0.64834,-0.75391 -1.26084,-1.07031 -2.00588,-1.07031c-1.07458,0 -1.85544,0.63281 -1.85544,1.46484c0,0.71485 0.43699,1.09375 1.93066,1.66406c2.8333,1.07422 3.67147,2.02344 3.67147,4.125c0,2.5586 -1.81245,4.33985 -4.40218,4.33985c-1.89483,0 -3.27029,-0.77344 -4.42009,-2.51563l1.60829,-1.60547c0.57311,1.14844 1.52947,1.76563 2.71868,1.76563c1.1104,0 1.93423,-0.79688 1.93423,-1.86719c0,-0.55469 -0.25073,-1.03125 -0.74862,-1.36719c-0.24715,-0.16015 -0.74504,-0.39843 -1.71932,-0.7539c-2.339,-0.8711 -3.14135,-1.80078 -3.14135,-3.625c0,-2.16016 1.7229,-3.78516 3.9831,-3.78516zm28.45481,0.23047l2.72226,0l3.40282,8.87891l3.44939,-8.87891l2.70078,0l-5.51617,13.55859l-1.33964,0l-5.41945,-13.55859zm-36.51772,0.01953l2.48943,0l0,13.21875l-2.48943,0l0,-13.21875zm49.9177,0l7.06355,0l0,2.23828l-4.57412,0l0,2.9336l4.40577,0l0,2.23828l-4.40577,0l0,3.57031l4.57412,0l0,2.23828l-7.06355,0l0,-13.21875zm14.01607,7.64844c1.87335,-0.39453 2.90853,-1.72266 2.90853,-3.74609c0,-2.47657 -1.64769,-3.90235 -4.52039,-3.90235l-3.69296,0l0,13.21875l2.48943,0l0,-5.3125l0.32596,0l3.44581,5.3125l3.06255,0l-4.01893,-5.57031zm-2.08826,-1.5625l-0.72713,0l0,-4.00391l0.76653,0c1.55098,0 2.39272,0.67188 2.39272,1.95703c0,1.33204 -0.84174,2.04688 -2.43212,2.04688zm-69.84753,-6.08594l-3.65357,0l0,13.21875l3.63565,0c1.93424,0 3.3312,-0.47265 4.55621,-1.52734c1.45785,-1.2461 2.31751,-3.12891 2.31751,-5.07422c0,-3.90234 -2.81539,-6.61719 -6.8558,-6.61719zm2.9121,9.92969c-0.78444,0.73047 -1.79813,1.05078 -3.40999,1.05078l-0.66624,0l0,-8.74219l0.66624,0c1.60828,0 2.58615,0.30078 3.40999,1.07032c0.85966,0.79296 1.37904,2.02343 1.37904,3.28906c0,1.26953 -0.51937,2.53906 -1.37904,3.33203zm0,0" class="discover-svg-path"/>
</svg>