<svg width="40" height="24" xmlns="http://www.w3.org/2000/svg" xmlns:svg="http://www.w3.org/2000/svg">
    <path stroke="null" fill-rule="nonzero" fill="rgb(81.960784%,1.568627%,16.078431%)" d="m14.5825,0l18.3432,0c2.55906,0 4.16031,2.02647 3.55861,4.50483l-8.54411,35.5067c-0.59924,2.47836 -3.17303,4.50483 -5.7321,4.50483l-18.3432,0c-2.56152,0 -4.16031,-2.02647 -3.56107,-4.50483l8.54657,-35.5067c0.59924,-2.49248 3.1583,-4.50483 5.71982,-4.50483l0.01228,0zm0,0"/>
    <path stroke="null" fill-rule="nonzero" fill="rgb(0.784314%,18.039216%,39.215686%)" d="m31.32199,0l21.10364,0c2.55906,0 1.39987,2.02647 0.80063,4.50483l-8.54657,35.5067c-0.59924,2.47836 -0.41259,4.50483 -2.97165,4.50483l-21.10365,0c-2.57134,0 -4.15786,-2.02647 -3.54633,-4.50483l8.54657,-35.5067c0.59924,-2.49248 3.1583,-4.50483 5.73209,-4.50483l-0.01473,0zm0,0"/>
    <path stroke="null" fill-rule="nonzero" fill="rgb(2.745098%,43.529412%,45.490196%)" d="m51.6864,0l18.3432,0c2.55906,0 4.15786,2.02647 3.55862,4.50483l-8.54411,35.5067c-0.6017,2.47836 -3.17304,4.50483 -5.73456,4.50483l-18.3432,0c-2.57134,0 -4.15786,-2.02647 -3.55862,-4.50483l8.54657,-35.5067c0.59925,-2.49248 3.1583,-4.50483 5.71736,-4.50483l0.01474,0zm0,0"/>
    <path stroke="null" fill-rule="nonzero" fill="rgb(99.607843%,99.607843%,99.607843%)" d="m48.60423,33.47318l1.73387,0l0.49364,-1.61223l-1.71914,0l-0.50837,1.61223zm1.38759,-4.43893l-0.59925,1.90879c0,0 0.65328,-0.32245 1.01184,-0.426c0.36102,-0.07767 0.89395,-0.14122 0.89395,-0.14122l0.41259,-1.32979l-1.73141,0l0.01228,-0.01177zm0.86694,-2.73726l-0.57469,1.83347c0,0 0.64099,-0.28479 0.99956,-0.37422c0.36102,-0.09179 0.89395,-0.11769 0.89395,-0.11769l0.41259,-1.32744l-1.71913,0l-0.01228,-0.01412zm3.8263,0l-2.23979,7.16442l0.59925,0l-0.46662,1.48278l-0.59924,0l-0.14736,0.45189l-2.13419,0l0.14735,-0.45189l-4.31994,0l0.42733,-1.36745l0.43961,0l2.26681,-7.27974l0.45434,-1.47101l2.17348,0l-0.2284,0.73668c0,0 0.57468,-0.40011 1.13463,-0.54368c0.54521,-0.14122 3.69123,-0.193 3.69123,-0.193l-0.46662,1.45924l-0.7466,0l0.01473,0.01177zm0,0"/>
    <path stroke="null" fill-rule="nonzero" fill="rgb(99.607843%,99.607843%,99.607843%)" d="m55.57411,24.82598l2.31838,0l0.02701,0.83789c-0.01228,0.14122 0.10806,0.20712 0.38804,0.20712l0.46662,0l-0.42733,1.38158l-1.25252,0c-1.0806,0.07767 -1.49319,-0.37422 -1.46863,-0.8779l-0.03929,-1.53691l-0.01228,-0.01177zm0.28488,6.56895l-2.21277,0l0.3733,-1.22388l2.53204,0l0.36102,-1.12503l-2.49275,0l0.42487,-1.37922l6.93303,0l-0.42732,1.37922l-2.33066,0l-0.36101,1.12503l2.33311,0l-0.38803,1.22388l-2.51977,0l-0.45189,0.51779l1.02658,0l0.25296,1.54869c0.02702,0.15534 0.02702,0.25889 0.08105,0.32244c0.05157,0.05178 0.35856,0.07767 0.53293,0.07767l0.30699,0l-0.48136,1.51102l-0.78589,0c-0.12034,0 -0.30699,-0.01412 -0.55995,-0.01412c-0.24068,-0.02588 -0.40031,-0.15534 -0.55994,-0.233c-0.14736,-0.06355 -0.36102,-0.23066 -0.41259,-0.52957l-0.24068,-1.54868l-1.14691,1.52515c-0.35857,0.47543 -0.8522,0.84965 -1.69212,0.84965l-1.60125,0l0.42732,-1.34156l0.61398,0c0.17191,0 0.334,-0.06355 0.45434,-0.12945c0.11788,-0.05178 0.22595,-0.10356 0.33155,-0.27067l1.67984,-2.28537zm-24.20546,-3.35862l5.85243,0l-0.42732,1.35568l-2.33312,0l-0.36102,1.14857l2.40188,0l-0.44206,1.39334l-2.38469,0l-0.58696,1.87113c-0.06631,0.20712 0.57222,0.23301 0.80062,0.23301l1.19848,-0.15534l-0.4789,1.54868l-2.69413,0c-0.21367,0 -0.3733,-0.02589 -0.61398,-0.07767c-0.22595,-0.05178 -0.33155,-0.15298 -0.42488,-0.29656c-0.09332,-0.15534 -0.25296,-0.27066 -0.14735,-0.60488l0.77361,-2.47836l-1.33356,0l0.43961,-1.42159l1.33356,0l0.36102,-1.14857l-1.33356,0l0.42733,-1.35333l-0.02702,-0.01412zm4.04243,-2.45012l2.39942,0l-0.4396,1.40747l-3.27865,0l-0.36102,0.29656c-0.15963,0.14121 -0.19892,0.09179 -0.40031,0.193c-0.18665,0.09179 -0.57222,0.27067 -1.07814,0.27067l-1.05359,0l0.42487,-1.35333l0.32173,0c0.26524,0 0.45189,-0.02589 0.54521,-0.07767c0.10806,-0.0659 0.2284,-0.20712 0.34628,-0.44013l0.6017,-1.05677l2.38469,0l-0.41259,0.77434l0,-0.01412zm4.52379,2.32302c0,0 0.65327,-0.57899 1.77317,-0.76022c0.25296,-0.05178 1.85176,-0.02588 1.85176,-0.02588l0.24068,-0.77434l-3.37196,0l-0.49364,1.57457l0,-0.01412zm3.17304,0.59546l-3.34741,0l-0.19893,0.65666l2.90534,0c0.34629,-0.03766 0.41259,0.01412 0.43961,-0.01177l0.21367,-0.6449l-0.01228,0zm-4.34697,-3.66693l2.03841,0l-0.29225,0.99322c0,0 0.64099,-0.50132 1.09288,-0.68255c0.45434,-0.15534 1.46618,-0.31067 1.46618,-0.31067l3.30565,-0.01177l-1.13217,3.63869c-0.18665,0.619 -0.41259,1.01911 -0.54521,1.21446c-0.12034,0.17888 -0.26769,0.34834 -0.55994,0.50132c-0.27997,0.14358 -0.53539,0.23301 -0.77361,0.24713c-0.21366,0.01177 -0.55995,0.02589 -1.01429,0.02589l-3.18532,0l-0.89395,2.87847c-0.07859,0.28243 -0.12034,0.42365 -0.06631,0.50132c0.03929,0.0659 0.15963,0.14358 0.30699,0.14358l1.39987,-0.12945l-0.48136,1.57457l-1.57178,0c-0.50592,0 -0.86694,-0.01412 -1.1199,-0.02589c-0.24068,-0.02588 -0.49364,0 -0.66801,-0.12945c-0.1449,-0.12945 -0.37085,-0.29656 -0.35857,-0.46366c0.01229,-0.15534 0.07859,-0.41424 0.18665,-0.77434l2.86605,-9.19088zm0,0"/>
    <path stroke="null" fill-rule="nonzero" fill="rgb(99.607843%,99.607843%,99.607843%)" d="m44.98913,30.63l-0.18665,0.8779c-0.07859,0.27067 -0.14735,0.47779 -0.35856,0.65901c-0.2284,0.17887 -0.48136,0.37422 -1.09534,0.37422l-1.13217,0.05178l-0.01228,0.97911c-0.01474,0.27067 0.06631,0.24478 0.1056,0.29656c0.05403,0.05178 0.09333,0.0659 0.14735,0.09179l0.35857,-0.02589l1.0806,-0.05178l-0.45435,1.44512l-1.23778,0c-0.86694,0 -1.52021,-0.02589 -1.72159,-0.18123c-0.21366,-0.12945 -0.23823,-0.28243 -0.23823,-0.56722l0.07859,-3.84582l1.98683,0l-0.02702,0.78611l0.48136,0c0.15963,0 0.27997,-0.01177 0.34628,-0.05178c0.06631,-0.03766 0.1056,-0.10121 0.13261,-0.193l0.19893,-0.619l1.56196,0l-0.01474,-0.02589zm-28.26017,-19.26673c-0.06631,0.30832 -1.34584,6.00172 -1.34584,6.00172c-0.27997,1.14857 -0.48136,1.97469 -1.1469,2.50425c-0.38804,0.30832 -0.83992,0.44955 -1.36058,0.44955c-0.83992,0 -1.31882,-0.39776 -1.39987,-1.16033l-0.01228,-0.2589c0,0 0.25296,-1.53456 0.25296,-1.54868c0,0 1.33356,-5.18738 1.57178,-5.87228c0.01474,-0.03766 0.01474,-0.06355 0.01474,-0.07767c-2.60081,0.02588 -3.06744,0 -3.09199,-0.03766c-0.01474,0.05178 -0.08104,0.37422 -0.08104,0.37422l-1.36058,5.84639l-0.12034,0.48955l-0.22595,1.62635c0,0.47779 0.09333,0.8779 0.29471,1.20035c0.62626,1.05913 2.39943,1.21447 3.39898,1.21447c1.29181,0 2.50503,-0.27067 3.31794,-0.74845c1.42688,-0.81435 1.80018,-2.09237 2.11945,-3.21505l0.16209,-0.57899c0,0 1.37286,-5.38273 1.61108,-6.0794c0.01474,-0.04001 0.01474,-0.0659 0.02702,-0.07767c-1.89351,0.01177 -2.43872,0 -2.62537,-0.04001l0,-0.01177zm7.6035,10.6972c-0.91851,-0.01177 -1.25252,-0.01177 -2.33312,0.04001l-0.03929,-0.07767c0.09333,-0.40011 0.19893,-0.78846 0.27997,-1.18857l0.13262,-0.54133c0.20138,-0.83789 0.38804,-1.83347 0.41505,-2.13003c0.02456,-0.17887 0.07859,-0.63077 -0.45435,-0.63077c-0.22594,0 -0.45434,0.10121 -0.69257,0.20476c-0.13507,0.45189 -0.38804,1.71814 -0.52066,2.28537c-0.26769,1.21211 -0.27997,1.35568 -0.40031,1.94879l-0.07859,0.07767c-0.94799,-0.01412 -1.27953,-0.01412 -2.37487,0.03766l-0.05157,-0.08944c0.18665,-0.72256 0.35856,-1.44512 0.53294,-2.16768c0.45189,-1.9488 0.57222,-2.69725 0.69257,-3.69283l0.09333,-0.05178c1.06586,-0.14121 1.31882,-0.17887 2.48047,-0.40011l0.09333,0.10356l-0.17437,0.62136c0.20139,-0.11769 0.38804,-0.23301 0.58697,-0.3248c0.54767,-0.25654 1.14691,-0.33421 1.48092,-0.33421c0.50591,0 1.06586,0.14121 1.2918,0.70844c0.21367,0.50367 0.08105,1.12503 -0.21366,2.35126l-0.1449,0.619c-0.29471,1.36746 -0.34874,1.61223 -0.50837,2.54191l-0.1056,0.07767l0.01228,0.01177zm3.74526,0.00471c-0.55994,0 -0.92096,-0.01412 -1.26725,0c-0.34629,0 -0.68029,0.02589 -1.20094,0.03766l-0.02702,-0.03766l-0.02456,-0.05178c0.1449,-0.51544 0.21121,-0.69667 0.29225,-0.8779c0.06631,-0.18123 0.13262,-0.36246 0.26769,-0.88967c0.15964,-0.6849 0.26524,-1.16268 0.33155,-1.58869c0.08104,-0.40011 0.12034,-0.74845 0.17437,-1.14857l0.03929,-0.02588l0.03929,-0.03766c0.55995,-0.07767 0.90869,-0.12945 1.26725,-0.18123c0.36101,-0.05178 0.73431,-0.11532 1.30654,-0.21889l0.02702,0.05178l0.01228,0.05178l-0.31927,1.27566c-0.1056,0.426 -0.21367,0.85201 -0.30699,1.27801c-0.19893,0.90379 -0.29226,1.24036 -0.33155,1.48513c-0.05403,0.23301 -0.06876,0.34834 -0.14735,0.81436l-0.10806,0.07532l-0.02456,-0.01177zm5.91629,-3.17032c-0.03929,0.23065 -0.25296,1.09679 -0.53294,1.45689c-0.19893,0.27067 -0.42487,0.44013 -0.69257,0.44013c-0.08105,0 -0.53294,0 -0.54767,-0.65901c0,-0.32244 0.06877,-0.65901 0.14736,-1.01911c0.24068,-1.04501 0.53294,-1.91114 1.26725,-1.91114c0.57223,0 0.61398,0.64489 0.35857,1.69226zm2.41416,0.1012c0.31927,-1.36745 0.06631,-2.01234 -0.24068,-2.40069c-0.4789,-0.59312 -1.33356,-0.78611 -2.21277,-0.78611c-0.53294,0 -1.78545,0.05178 -2.77273,0.92968c-0.7073,0.63077 -1.03885,1.4969 -1.2255,2.32302c-0.20138,0.83789 -0.42733,2.34891 1.01184,2.91613c0.43961,0.18123 1.0806,0.23301 1.49319,0.23301c1.05359,0 2.13419,-0.28478 2.94709,-1.11091c0.62625,-0.67078 0.90623,-1.67813 1.01183,-2.10414l-0.01228,0zm22.47159,3.22211c-1.1199,-0.01177 -1.44162,-0.01177 -2.46819,0.03766l-0.06631,-0.07532c0.27997,-1.02147 0.55994,-2.05236 0.81291,-3.08559c0.32173,-1.34157 0.40031,-1.91114 0.50837,-2.69725l0.07859,-0.0659c1.10762,-0.15299 1.4146,-0.193 2.57379,-0.40011l0.02702,0.09179c-0.21366,0.85201 -0.41259,1.6899 -0.62625,2.53014c-0.42733,1.76757 -0.57469,2.67136 -0.73432,3.60104l-0.1056,0.07767l0,-0.01412zm0,0"/>
    <path stroke="null" fill-rule="nonzero" fill="rgb(99.607843%,99.607843%,99.607843%)" d="m57.26869,19.06667c-0.05403,0.21889 -0.26524,1.09679 -0.54521,1.45689c-0.18665,0.2589 -0.64099,0.426 -0.89395,0.426c-0.08105,0 -0.52066,0 -0.54767,-0.64489c0,-0.32245 0.06631,-0.65901 0.14736,-1.01912c0.24068,-1.01911 0.53293,-1.88525 1.26725,-1.88525c0.57223,0 0.82519,0.63312 0.57223,1.67813l0,-0.01177zm2.2005,0.10356c0.31927,-1.36981 -0.98727,-0.11769 -1.18621,-0.56958c-0.32173,-0.70844 -0.12034,-2.13002 -1.39987,-2.60545c-0.49364,-0.19535 -1.65283,0.05178 -2.64011,0.92732c-0.69257,0.62136 -1.04131,1.48513 -1.2255,2.31126c-0.20138,0.82612 -0.42733,2.34891 0.99955,2.87847c0.45189,0.193 0.86448,0.24478 1.27953,0.21889c1.43916,-0.07767 2.53204,-2.1818 3.34495,-3.00793c0.62626,-0.65666 0.73432,0.24713 0.82764,-0.15298zm-16.73949,2.89024c-0.92097,-0.01177 -1.24024,-0.01177 -2.32084,0.04001l-0.03929,-0.07767c0.09333,-0.40011 0.19893,-0.78846 0.29226,-1.18857l0.12034,-0.54133c0.20138,-0.83789 0.40031,-1.83347 0.41259,-2.13003c0.02702,-0.18123 0.08105,-0.63312 -0.43961,-0.63312c-0.22594,0 -0.46662,0.10356 -0.69257,0.20712c-0.12034,0.45189 -0.38558,1.71814 -0.52065,2.28537c-0.25296,1.21211 -0.27998,1.35568 -0.40031,1.94879l-0.07859,0.07767c-0.94553,-0.01412 -1.27953,-0.01412 -2.37241,0.03766l-0.05403,-0.08944c0.18665,-0.72256 0.36102,-1.44512 0.53294,-2.16768c0.45434,-1.95115 0.55994,-2.6996 0.69257,-3.69283l0.08105,-0.05178c1.06586,-0.14121 1.33356,-0.18123 2.48047,-0.40011l0.09333,0.10356l-0.15964,0.619c0.18665,-0.11533 0.38558,-0.23065 0.57223,-0.32245c0.54767,-0.25654 1.14691,-0.33421 1.47846,-0.33421c0.50837,0 1.05359,0.14121 1.29426,0.70844c0.21367,0.50367 0.06631,1.12268 -0.22594,2.34891l-0.14736,0.62136c-0.30699,1.36746 -0.34628,1.61223 -0.50591,2.54191l-0.10806,0.07767l0.01474,0.01177zm7.98662,-10.68543l-0.77361,0.01412c-1.99911,0.02589 -2.79974,0.01177 -3.119,-0.02588c-0.02702,0.14121 -0.08105,0.38599 -0.08105,0.38599c0,0 -0.71958,3.20092 -0.71958,3.21505c0,0 -1.70686,6.81373 -1.78544,7.13617c1.74615,-0.02589 2.45345,-0.02589 2.76044,0.01412c0.06631,-0.3248 0.46662,-2.22182 0.4789,-2.22182c0,0 0.34628,-1.39334 0.36102,-1.44512c0,0 0.1056,-0.14122 0.21121,-0.20712l0.15963,0c1.50793,0 3.20006,0 4.53361,-0.94145c0.90623,-0.64489 1.52021,-1.61223 1.80018,-2.77492c0.06631,-0.28479 0.12034,-0.619 0.12034,-0.96734c0,-0.45189 -0.09333,-0.89202 -0.36102,-1.24036c-0.68029,-0.91556 -2.02613,-0.92733 -3.58563,-0.94145zm0.99956,3.34214c-0.15964,0.71079 -0.63854,1.31803 -1.25252,1.60046c-0.50592,0.24713 -1.1199,0.27067 -1.76089,0.27067l-0.41259,0l0.02702,-0.15299c0,0 0.75888,-3.20092 0.75888,-3.18915l0.02702,-0.16711l0.01473,-0.12945l0.30699,0.02589c0,0 1.57178,0.12945 1.59879,0.12945c0.61398,0.23301 0.87922,0.82612 0.69257,1.61223zm16.38829,1.0709l-0.09332,-0.10356c-1.13218,0.21889 -1.34584,0.2589 -2.38715,0.40011l-0.07859,0.07767c0,0.01412 -0.01474,0.02589 -0.01474,0.05178l0,-0.01177c-0.77361,1.74168 -0.75888,1.36745 -1.38513,2.7349c0,-0.06355 0,-0.10356 -0.01474,-0.16711l-0.15964,-2.96791l-0.09332,-0.10356c-1.19848,0.21889 -1.2255,0.25654 -2.31838,0.40011l-0.08105,0.07767c-0.01228,0.03766 -0.01228,0.07767 -0.01228,0.11532l0.01228,0.01177c0.13262,0.6849 0.1056,0.52957 0.24068,1.60046c0.06631,0.52957 0.14736,1.05913 0.21367,1.57458c0.1056,0.8779 0.17191,1.3039 0.30453,2.6337c-0.7466,1.18858 -0.91851,1.64047 -1.63809,2.68548l0.03929,0.10356c1.0806,-0.04001 1.31883,-0.04001 2.11946,-0.04001l0.17437,-0.193c0.59925,-1.25213 5.18443,-8.86609 5.18443,-8.86609l-0.01228,-0.01412zm-38.99741,0.85436c0.61152,-0.41188 0.69257,-0.97911 0.17192,-1.27801c-0.5182,-0.29656 -1.43917,-0.20476 -2.05314,0.20712c-0.61152,0.40011 -0.68029,0.96734 -0.15963,1.27801c0.50591,0.28479 1.42688,0.20712 2.04086,-0.20712zm0,0"/>
    <path stroke="null" fill-rule="nonzero" fill="rgb(99.607843%,99.607843%,99.607843%)" d="m62.75519,24.83775l-0.89395,1.48513c-0.27998,0.50368 -0.81291,0.89202 -1.64055,0.89202l-1.42688,-0.02589l0.41505,-1.34392l0.27997,0c0.1449,0 0.25296,-0.01177 0.33155,-0.05178c0.08105,-0.02588 0.12034,-0.07767 0.18665,-0.15298l0.53293,-0.81435l2.22751,0l-0.01228,0.01177zm0,0"/>
</svg>