<svg width="40" height="31" viewBox="0 0 68 53" fill="none" xmlns="http://www.w3.org/2000/svg">
    <path d="M68 41.8142C68 47.6333 63.2616 52.3716 57.4425 52.3716H0V10.5575C0 4.73839 4.73839 0 10.5575 0H68V41.8142V41.8142Z" fill="white"/>
    <path d="M49.2959 31.0905H53.6602C53.7849 31.0905 54.0759 31.0489 54.2005 31.0489C55.0318 30.8826 55.7384 30.1345 55.7384 29.0954C55.7384 28.0978 55.0318 27.3496 54.2005 27.1418C54.0759 27.1002 53.8265 27.1003 53.6602 27.1003H49.2959V31.0905Z" fill="url(#paint0_linear)"/>
    <path d="M53.161 3.533C49.0046 3.533 45.5963 6.89975 45.5963 11.0978V18.9535H56.2784C56.5278 18.9535 56.8187 18.9535 57.0266 18.9951C59.4373 19.1198 61.2246 20.3667 61.2246 22.5281C61.2246 24.2323 60.0192 25.687 57.7747 25.978V26.0611C60.2271 26.2274 62.0975 27.599 62.0975 29.7188C62.0975 32.0049 60.0192 33.5012 57.276 33.5012H45.5547V48.8802H56.6525C60.809 48.8802 64.2173 45.5134 64.2173 41.3154V3.533H53.161V3.533Z" fill="url(#paint1_linear)"/>
    <path d="M55.1981 23.0269C55.1981 22.0293 54.4915 21.3643 53.6602 21.2396C53.5771 21.2396 53.3692 21.198 53.2446 21.198H49.2959V24.8557H53.2446C53.3692 24.8557 53.6186 24.8557 53.6602 24.8142C54.4915 24.6895 55.1981 24.0244 55.1981 23.0269V23.0269Z" fill="url(#paint2_linear)"/>
    <path d="M11.3476 3.533C7.19109 3.533 3.78278 6.89975 3.78278 11.0978V29.7604C5.90258 30.7995 8.10551 31.4645 10.3084 31.4645C12.927 31.4645 14.3402 29.8851 14.3402 27.7237V18.912H20.8243V27.6821C20.8243 31.0905 18.7045 33.8753 11.5138 33.8753C7.14952 33.8753 3.74121 32.9193 3.74121 32.9193V48.8386H14.839C18.9955 48.8386 22.4038 45.4719 22.4038 41.2738V3.533H11.3476V3.533Z" fill="url(#paint3_linear)"/>
    <path d="M32.2542 3.533C28.0978 3.533 24.6895 6.89975 24.6895 11.0978V20.9902C26.6014 19.3692 29.9266 18.3301 35.2885 18.5795C38.1564 18.7042 41.2322 19.4939 41.2322 19.4939V22.6944C39.6943 21.9046 37.8655 21.198 35.4963 21.0318C31.4229 20.7408 28.9706 22.7359 28.9706 26.2274C28.9706 29.7604 31.4229 31.7555 35.4963 31.423C37.8655 31.2567 39.6943 30.5086 41.2322 29.7604V32.9609C41.2322 32.9609 38.198 33.7506 35.2885 33.8753C29.9266 34.1247 26.6014 33.0856 24.6895 31.4645V48.9218H35.7873C39.9437 48.9218 43.352 45.555 43.352 41.357V3.533H32.2542V3.533Z" fill="url(#paint4_linear)"/>
    <defs>
        <linearGradient id="paint0_linear" x1="45.5897" y1="29.1003" x2="64.2678" y2="29.1003" gradientUnits="userSpaceOnUse">
            <stop stop-color="#007940"/>
            <stop offset="0.2285" stop-color="#00873F"/>
            <stop offset="0.7433" stop-color="#40A737"/>
            <stop offset="1" stop-color="#5CB531"/>
        </linearGradient>
        <linearGradient id="paint1_linear" x1="45.5887" y1="26.1884" x2="64.2683" y2="26.1884" gradientUnits="userSpaceOnUse">
            <stop stop-color="#007940"/>
            <stop offset="0.2285" stop-color="#00873F"/>
            <stop offset="0.7433" stop-color="#40A737"/>
            <stop offset="1" stop-color="#5CB531"/>
        </linearGradient>
        <linearGradient id="paint2_linear" x1="45.5892" y1="23.0217" x2="64.2681" y2="23.0217" gradientUnits="userSpaceOnUse">
            <stop stop-color="#007940"/>
            <stop offset="0.2285" stop-color="#00873F"/>
            <stop offset="0.7433" stop-color="#40A737"/>
            <stop offset="1" stop-color="#5CB531"/>
        </linearGradient>
        <linearGradient id="paint3_linear" x1="3.77397" y1="26.1884" x2="22.7413" y2="26.1884" gradientUnits="userSpaceOnUse">
            <stop stop-color="#1F286F"/>
            <stop offset="0.4751" stop-color="#004E94"/>
            <stop offset="0.8261" stop-color="#0066B1"/>
            <stop offset="1" stop-color="#006FBC"/>
        </linearGradient>
        <linearGradient id="paint4_linear" x1="24.582" y1="26.1884" x2="43.0036" y2="26.1884" gradientUnits="userSpaceOnUse">
            <stop stop-color="#6C2C2F"/>
            <stop offset="0.1735" stop-color="#882730"/>
            <stop offset="0.5731" stop-color="#BE1833"/>
            <stop offset="0.8585" stop-color="#DC0436"/>
            <stop offset="1" stop-color="#E60039"/>
        </linearGradient>
    </defs>
</svg>

