<svg xmlns="http://www.w3.org/2000/svg" xmlns:xlink="http://www.w3.org/1999/xlink" width="40" height="13" viewBox="0 0 65 20" version="1.1">
    <path style=" stroke:none;fill-rule:nonzero;fill:rgb(5.490196%,27.058824%,58.431373%);fill-opacity:1;" d="M 22.878906 19.679688 L 26.152344 0.394531 L 31.390625 0.394531 L 28.113281 19.679688 Z M 47.042969 0.808594 C 46.003906 0.417969 44.378906 0 42.347656 0 C 37.171875 0 33.523438 2.617188 33.492188 6.363281 C 33.464844 9.136719 36.097656 10.683594 38.082031 11.605469 C 40.121094 12.550781 40.808594 13.152344 40.796875 13.996094 C 40.785156 15.289062 39.171875 15.878906 37.664062 15.878906 C 35.566406 15.878906 34.453125 15.589844 32.734375 14.867188 L 32.058594 14.5625 L 31.320312 18.878906 C 32.546875 19.417969 34.808594 19.882812 37.15625 19.910156 C 42.664062 19.910156 46.242188 17.324219 46.28125 13.320312 C 46.300781 11.125 44.90625 9.457031 41.882812 8.078125 C 40.050781 7.1875 38.929688 6.589844 38.941406 5.6875 C 38.941406 4.886719 39.890625 4.027344 41.941406 4.027344 C 43.65625 4 44.894531 4.375 45.863281 4.765625 L 46.332031 4.988281 L 47.042969 0.808594 M 60.523438 0.394531 L 56.476562 0.394531 C 55.222656 0.394531 54.285156 0.738281 53.734375 1.992188 L 45.953125 19.667969 L 51.453125 19.667969 C 51.453125 19.667969 52.351562 17.292969 52.558594 16.769531 C 53.15625 16.769531 58.503906 16.777344 59.265625 16.777344 C 59.421875 17.453125 59.902344 19.667969 59.902344 19.667969 L 64.765625 19.667969 Z M 54.101562 12.847656 C 54.535156 11.738281 56.1875 7.457031 56.1875 7.457031 C 56.160156 7.507812 56.621094 6.339844 56.882812 5.617188 L 57.238281 7.277344 C 57.238281 7.277344 58.242188 11.882812 58.449219 12.847656 Z M 18.429688 0.394531 L 13.300781 13.546875 L 12.753906 10.875 C 11.800781 7.792969 8.824219 4.453125 5.5 2.785156 L 10.1875 19.648438 L 15.730469 19.644531 L 23.980469 0.394531 L 18.429688 0.394531 "/>
    <path style=" stroke:none;fill-rule:nonzero;fill:rgb(94.901961%,68.235294%,7.843137%);fill-opacity:1;" d="M 8.515625 0.394531 L 0.0664062 0.394531 L 0 0.792969 C 6.574219 2.390625 10.921875 6.25 12.726562 10.886719 L 10.890625 2.023438 C 10.574219 0.800781 9.652344 0.4375 8.515625 0.394531 "/>
</svg>