<svg width="69" height="16" viewBox="0 0 69 16" fill="none" xmlns="http://www.w3.org/2000/svg">
    <path d="M4.5974 3.50249C4.28571 3.7413 4.12986 4.1393 4.12986 4.61692C4.12986 5.09453 4.36363 5.41293 4.75324 5.65174C5.14285 5.89055 6.07792 6.20896 7.48052 6.60697C8.88311 7.00498 10.0519 7.48259 10.8312 8.19901C11.6104 8.91542 12 9.95025 12 11.3831C12 12.7363 11.4545 13.8507 10.4416 14.7264C9.42857 15.602 8.10389 16 6.46753 16C4.05194 16 1.94805 15.1244 0 13.2935L2.02597 10.7463C3.66233 12.1791 5.14285 12.8955 6.54545 12.8955C7.16883 12.8955 7.63636 12.7363 8.02597 12.4975C8.41558 12.2587 8.57143 11.8607 8.57143 11.3831C8.57143 10.9055 8.41558 10.5871 8.02597 10.2687C7.63636 10.0299 6.93506 9.71144 5.76623 9.47264C3.97402 9.07463 2.72727 8.51741 1.94805 7.801C1.16883 7.08458 0.701294 6.04975 0.701294 4.61692C0.701294 3.18408 1.24675 1.99005 2.25974 1.19403C3.27272 0.39801 4.59739 0 6.07792 0C7.0909 0 8.1039 0.159205 9.11688 0.557215C10.1299 0.875623 10.987 1.43283 11.7662 2.06965L10.0519 4.61692C8.72727 3.58209 7.4026 3.10448 6 3.10448C5.37662 3.10448 4.90909 3.26368 4.5974 3.50249Z" fill="#2683FF"/>
    <path d="M21.3268 3.13402V16H17.6732V3.13402H13V0H26V3.13402H21.3268Z" fill="#2683FF"/>
    <path d="M40.5594 13.68C38.8762 15.2 36.8564 16 34.5 16C32.1436 16 30.0396 15.2 28.4406 13.68C26.7574 12.16 26 10.24 26 8C26 5.76 26.8416 3.84 28.4406 2.32C30.1238 0.800001 32.1436 0 34.5 0C36.9406 0 38.9604 0.800001 40.5594 2.32C42.2426 3.84 43 5.76 43 8C43 10.24 42.2426 12.16 40.5594 13.68ZM39.297 8C39.297 6.64 38.7921 5.44 37.8663 4.48C36.9406 3.52 35.7624 3.04 34.4158 3.04C33.0693 3.04 31.8911 3.52 30.9653 4.48C30.0396 5.44 29.5347 6.64 29.5347 8C29.5347 9.36 30.0396 10.56 30.9653 11.52C31.8911 12.48 33.0693 12.96 34.4158 12.96C35.7624 12.96 36.9406 12.48 37.8663 11.52C38.8762 10.56 39.297 9.36 39.297 8Z" fill="#2683FF"/>
    <path d="M58.0059 5.36082C58.0059 7.91752 57.0118 9.56701 54.9408 10.3093L59 16H54.6095L51.0473 10.8866H48.5621V16H45V0H51.0473C53.5325 0 55.355 0.412371 56.3491 1.23711C57.5089 2.14433 58.0059 3.46392 58.0059 5.36082ZM53.6982 7.25773C54.1124 6.84536 54.3609 6.26804 54.3609 5.36082C54.3609 4.45361 54.1124 3.87629 53.6982 3.62887C53.2012 3.29897 52.4556 3.13402 51.2959 3.13402H48.645V7.83505H51.2959C52.4556 7.83505 53.284 7.58763 53.6982 7.25773Z" fill="#2683FF"/>
    <path d="M60.92 3.11795V0H69V10.3385C69 12.2256 68.52 13.6205 67.56 14.6051C66.6 15.5077 65.4 16 63.88 16C62.04 16 60.36 15.2615 59 13.7846L60.76 11.241C61.72 12.3077 62.68 12.8 63.72 12.8C64.2 12.8 64.6 12.6359 65 12.2256C65.32 11.8154 65.56 11.241 65.56 10.5026V3.0359L60.92 3.11795Z" fill="#2683FF"/>
</svg>
