<svg width="32" height="32" viewBox="0 0 32 32" fill="none" xmlns="http://www.w3.org/2000/svg">
    <path d="M15.7479 1.6001C21.592 1.6001 26.3407 6.29031 26.4351 12.1119L26.4365 12.2887L26.4366 14.5635C26.9587 14.9348 27.3802 15.4154 27.6891 15.9929L27.7557 16.1212C28.1013 16.8076 28.2879 17.5527 28.2956 19.3758V24.5787C28.2956 26.6029 28.0849 27.337 27.6891 28.077C27.2933 28.817 26.7125 29.3978 25.9725 29.7936L25.8442 29.8602C25.1578 30.2058 24.4127 30.3924 22.5896 30.3999L9.0216 30.4001C6.99737 30.4001 6.26334 30.1893 5.52331 29.7936C4.78328 29.3978 4.2025 28.817 3.80673 28.077L3.76101 27.9898C3.40208 27.2916 3.20805 26.5537 3.2002 24.6941V19.4912C3.2002 17.467 3.41096 16.7329 3.80673 15.9929C4.11561 15.4154 4.53717 14.9348 5.05918 14.5635L5.05933 12.2887C5.05933 6.38554 9.84477 1.6001 15.7479 1.6001ZM22.4743 16.2989L8.91702 16.2991L8.65008 16.3012C7.49386 16.3157 7.13541 16.3956 6.76316 16.5947C6.48129 16.7454 6.2758 16.9509 6.12506 17.2328L6.08327 17.3146C5.91458 17.6625 5.84319 18.0558 5.83112 19.1289L5.82924 19.4911L5.82945 24.6833L5.83161 24.9502C5.84612 26.1064 5.92598 26.4649 6.12506 26.8371C6.2758 27.119 6.48129 27.3245 6.76316 27.4752L6.845 27.517C7.19284 27.6857 7.58621 27.7571 8.65937 27.7692L9.0216 27.7711L22.6613 27.7706C23.9586 27.7639 24.3427 27.6838 24.7327 27.4752C25.0145 27.3245 25.22 27.119 25.3708 26.8371L25.4126 26.7553C25.5813 26.4075 25.6526 26.0141 25.6647 24.9409L25.6666 24.5787L25.6661 19.3042C25.6594 18.0068 25.5793 17.6227 25.3708 17.2328C25.22 16.9509 25.0145 16.7454 24.7327 16.5947L24.6508 16.5529C24.303 16.3842 23.9096 16.3128 22.8365 16.3007L22.4743 16.2989ZM15.9869 19.1669C17.1749 19.1669 18.138 20.13 18.138 21.3179C18.138 22.0108 17.8104 22.6272 17.3016 23.0206L17.3014 23.8275C17.3014 24.5535 16.7129 25.142 15.9869 25.142C15.2609 25.142 14.6724 24.5535 14.6724 23.8275L14.6725 23.0208C14.1636 22.6274 13.8359 22.0109 13.8359 21.3179C13.8359 20.13 14.7989 19.1669 15.9869 19.1669ZM15.7479 4.22914C11.3413 4.22914 7.76063 7.76571 7.68946 12.1554L7.68838 12.2887L7.68823 13.7116C8.03365 13.6859 8.43374 13.672 8.90624 13.67L22.4742 13.6698C22.9975 13.6698 23.4346 13.6839 23.8078 13.7116L23.8074 12.2887C23.8074 7.83752 20.1991 4.22914 15.7479 4.22914Z" fill="black"/>
</svg>
