<svg width="112" height="112" viewBox="0 0 112 112" fill="none" xmlns="http://www.w3.org/2000/svg">
    <path fill-rule="evenodd" clip-rule="evenodd" d="M46.0385 0H65.3697C80.8738 0 87.0253 1.71842 93.0589 4.94527C99.0926 8.17211 103.828 12.9074 107.055 18.941L107.3 19.4056C110.328 25.2188 111.957 31.3599 112 46.0385V65.3698C112 80.8738 110.282 87.0253 107.055 93.059C103.828 99.0926 99.0926 103.828 93.0589 107.055L92.5944 107.3C86.7812 110.328 80.6401 111.957 65.9615 112H46.6302C31.1262 112 24.9747 110.282 18.941 107.055C12.9074 103.828 8.17211 99.0926 4.94527 93.059L4.70003 92.5944C1.67181 86.7812 0.0431812 80.6401 0 65.9615V46.6303C0 31.1262 1.71842 24.9747 4.94527 18.941C8.17211 12.9074 12.9074 8.17211 18.941 4.94527L19.4056 4.70003C25.2188 1.67181 31.3599 0.0431812 46.0385 0Z" fill="#00AC26"/>
    <path d="M56.4626 76.3289C68.2203 76.3289 77.7519 66.7975 77.7519 55.0399C77.7519 43.2824 68.2203 33.751 56.4626 33.751C44.7049 33.751 35.1733 43.2824 35.1733 55.0399C35.1733 66.7975 44.7049 76.3289 56.4626 76.3289Z" fill="#00AC26"/>
    <path fill-rule="evenodd" clip-rule="evenodd" d="M55.9994 28.1968C71.5912 28.1968 84.2309 40.629 84.2309 55.9648C84.2309 71.3007 71.5912 83.7329 55.9994 83.7329C41.3473 83.7329 29.3022 72.7541 27.9036 58.7039C28.1179 53.787 28.5845 50.0463 29.2911 46.9459C33.0972 36.0371 43.6174 28.1968 55.9994 28.1968ZM55.9994 36.5272C44.9779 36.5272 36.0985 45.2608 36.0985 55.9648C36.0985 66.6688 44.9779 75.4025 55.9994 75.4025C67.0209 75.4025 75.9003 66.6688 75.9003 55.9648C75.9003 45.2608 67.0209 36.5272 55.9994 36.5272Z" fill="#00AC26"/>
    <rect x="18.5703" y="19.5112" width="73.8262" height="73.8262" rx="36.9131" fill="#00AC26"/>
    <path d="M55.4835 23.2026C73.8314 23.2026 88.7053 38.0765 88.7053 56.4244C88.7053 74.7723 73.8314 89.6462 55.4835 89.6462C37.1356 89.6462 22.2617 74.7723 22.2617 56.4244C22.2617 38.0765 37.1356 23.2026 55.4835 23.2026ZM55.4835 29.2933C40.4994 29.2933 28.3524 41.4403 28.3524 56.4244C28.3524 71.4085 40.4994 83.5555 55.4835 83.5555C70.4676 83.5555 82.6146 71.4085 82.6146 56.4244C82.6146 41.4403 70.4676 29.2933 55.4835 29.2933ZM69.6538 47.2132C70.814 48.3734 70.8423 50.237 69.7387 51.4316L69.6538 51.5199L54.6698 66.5038C54.2226 66.9511 53.6733 67.2363 53.096 67.3582C52.1033 67.6899 50.9649 67.4806 50.1469 66.7153L50.1114 66.6815L41.2136 57.7843C40.0243 56.595 40.0243 54.6668 41.2136 53.4775C42.3738 52.3172 44.2374 52.2889 45.432 53.3926L45.5203 53.4775L52.3019 60.2583L65.347 47.2132C66.5363 46.0239 68.4645 46.0239 69.6538 47.2132Z" fill="white"/>
</svg>
