<svg width="112" height="113" viewBox="0 0 112 113" fill="none" xmlns="http://www.w3.org/2000/svg">
    <path fill-rule="evenodd" clip-rule="evenodd" d="M46.0385 0H65.3698C80.8738 0 87.0253 1.73377 93.059 4.98942C99.0926 8.24507 103.828 13.0226 107.055 19.1102L107.3 19.5788C110.328 25.444 111.957 31.6399 112 46.4496V65.9534C112 81.5959 110.282 87.8023 107.055 93.8898C103.828 99.9774 99.0926 104.755 93.059 108.011L92.5944 108.258C86.7812 111.313 80.6401 112.956 65.9615 113H46.6303C31.1262 113 24.9747 111.266 18.941 108.011C12.9074 104.755 8.17211 99.9774 4.94527 93.8898L4.70003 93.4212C1.67181 87.556 0.0431812 81.3601 0 66.5504V47.0466C0 31.4041 1.71842 25.1977 4.94527 19.1102C8.17211 13.0226 12.9074 8.24507 18.941 4.98942L19.4056 4.74199C25.2188 1.68673 31.3599 0.0435667 46.0385 0Z" fill="#EBEEF1"/>
    <path d="M56.4626 69.107C68.2203 69.107 77.7519 59.4905 77.7519 47.628C77.7519 35.7654 68.2203 26.1489 56.4626 26.1489C44.7049 26.1489 35.1733 35.7654 35.1733 47.628C35.1733 59.4905 44.7049 69.107 56.4626 69.107Z" fill="#FFC600"/>
    <path fill-rule="evenodd" clip-rule="evenodd" d="M55.9998 20.5452C71.5917 20.5452 84.2313 33.0884 84.2313 48.5612C84.2313 64.034 71.5917 76.5771 55.9998 76.5771C41.3477 76.5771 29.3027 65.5003 27.904 51.3247C28.1184 46.3639 28.5849 42.5898 29.2915 39.4617C33.0976 28.4555 43.6178 20.5452 55.9998 20.5452ZM55.9998 28.95C44.9784 28.95 36.099 37.7616 36.099 48.5612C36.099 59.3607 44.9784 68.1723 55.9998 68.1723C67.0213 68.1723 75.9007 59.3607 75.9007 48.5612C75.9007 37.7616 67.0213 28.95 55.9998 28.95Z" fill="#FF458B"/>
    <path d="M84.2313 48.5625H27.7688V91.5204H84.2313V48.5625Z" fill="#0149FF"/>
    <path fill-rule="evenodd" clip-rule="evenodd" d="M56.4627 59.7683C59.5299 59.7683 62.0164 62.1107 62.0164 65.0002C62.0164 67.1873 60.5919 69.061 58.5692 69.8427L58.5693 75.6445H54.3562L54.3563 69.8427C52.3336 69.061 50.9091 67.1873 50.9091 65.0002C50.9091 62.1107 53.3955 59.7683 56.4627 59.7683Z" fill="#0218A7"/>
</svg>
