<svg width="32" height="32" viewBox="0 0 32 32" fill="none" xmlns="http://www.w3.org/2000/svg">
    <path d="M16.0001 1.6001C23.953 1.6001 30.4001 8.0472 30.4001 16.0001C30.4001 23.953 23.953 30.4001 16.0001 30.4001C8.0472 30.4001 1.6001 23.953 1.6001 16.0001C1.6001 8.0472 8.0472 1.6001 16.0001 1.6001ZM16.0001 4.2401C9.50523 4.2401 4.2401 9.50523 4.2401 16.0001C4.2401 22.495 9.50523 27.7601 16.0001 27.7601C22.495 27.7601 27.7601 22.495 27.7601 16.0001C27.7601 9.50523 22.495 4.2401 16.0001 4.2401ZM17.1994 11.0383L17.1999 11.0596L17.1999 14.7569H20.7883C21.5247 14.7569 22.1285 15.3409 22.153 16.0769C22.1764 16.7821 21.6238 17.3727 20.9186 17.3962L20.8974 17.3967L17.1999 17.3969L17.2001 21.0737C17.2001 21.8027 16.6091 22.3937 15.8801 22.3937C15.1689 22.3937 14.589 21.8312 14.5611 21.1268L14.5601 21.0737L14.5599 17.3969H10.8833C10.1543 17.3969 9.5633 16.8059 9.5633 16.0769C9.5633 15.3657 10.1258 14.7858 10.8302 14.7579L10.8833 14.7569H14.5599L14.5601 11.1687C14.5601 10.4323 15.1441 9.82851 15.8801 9.80402C16.5853 9.78055 17.1759 10.3332 17.1994 11.0383Z" fill="black"/>
</svg>
