<svg width="437" height="140" viewBox="0 0 437 140" fill="none" xmlns="http://www.w3.org/2000/svg">
    <rect x="156" y="27" width="113" height="113" rx="56.5" fill="#00AC26"/>
    <path fill-rule="evenodd" clip-rule="evenodd" d="M239.528 64.4363C241.736 66.6417 241.738 70.219 239.532 72.4266L205.629 106.364C204.569 107.425 203.132 108.021 201.633 108.021C200.134 108.021 198.696 107.426 197.636 106.366L182.138 90.8683C179.932 88.6618 179.932 85.0844 182.138 82.878C184.345 80.6715 187.922 80.6715 190.129 82.878L201.629 94.3788L231.538 64.4403C233.743 62.2327 237.321 62.2309 239.528 64.4363Z" fill="white"/>
    <path fill-rule="evenodd" clip-rule="evenodd" d="M314.247 63.5977H337.161V86.5115H314.247V63.5977Z" fill="#00E567"/>
    <path fill-rule="evenodd" clip-rule="evenodd" d="M150.577 0H166.944V16.367H150.577V0Z" fill="#FF458B"/>
    <path fill-rule="evenodd" clip-rule="evenodd" d="M342.304 29.9287H352.124V39.7489H342.304V29.9287Z" fill="#FF458B"/>
    <path fill-rule="evenodd" clip-rule="evenodd" d="M76.6919 30.3955H86.5121V40.2157H76.6919V30.3955Z" fill="#00E567"/>
    <path fill-rule="evenodd" clip-rule="evenodd" d="M427.18 16.3672H437V26.1874H427.18V16.3672Z" fill="#0149FF"/>
    <path fill-rule="evenodd" clip-rule="evenodd" d="M0 83.4717H9.82022V93.2919H0V83.4717Z" fill="#0149FF"/>
    <path fill-rule="evenodd" clip-rule="evenodd" d="M392.576 54.2451H402.396V64.0653H392.576V54.2451Z" fill="#FFC600"/>
    <path fill-rule="evenodd" clip-rule="evenodd" d="M103.346 78.3284H132.806V107.789H103.346V78.3284Z" fill="#FFC600"/>
    <path fill-rule="evenodd" clip-rule="evenodd" d="M268.886 13.0938H291.8V36.0076H268.886V13.0938Z" fill="#0149FF"/>
</svg>
