<svg width="32" height="32" viewBox="0 0 32 32" fill="none" xmlns="http://www.w3.org/2000/svg">
    <path d="M7.66396 15.1905L7.62508 15.1531L1.9927 9.52074C1.482 9.01003 1.46954 8.18976 1.95533 7.66396L1.9927 7.62508L7.62508 1.9927C8.14855 1.46923 8.99726 1.46923 9.52073 1.9927C10.0314 2.5034 10.0439 3.32367 9.5581 3.84948L9.52073 3.88835L6.17661 7.23271L29.0246 7.23248C29.7649 7.23248 30.365 7.83261 30.365 8.57291C30.365 9.29515 29.7938 9.88398 29.0785 9.91227L29.0246 9.91334L6.17661 9.91357L9.52073 13.2575C10.0314 13.7682 10.0439 14.5884 9.5581 15.1142L9.52073 15.1531C9.01003 15.6638 8.18976 15.6763 7.66396 15.1905ZM22.4795 29.5769C21.9688 29.0662 21.9563 28.246 22.4421 27.7202L22.4795 27.6813L25.8239 24.3373L2.97561 24.3372C2.23531 24.3372 1.63518 23.737 1.63518 22.9967C1.63518 22.2745 2.20639 21.6857 2.92169 21.6574L2.97561 21.6563L25.8239 21.6564L22.4795 18.3122C21.9688 17.8015 21.9563 16.9812 22.4421 16.4554L22.4795 16.4165C22.9902 15.9058 23.8104 15.8934 24.3362 16.3791L24.3751 16.4165L30.0075 22.0489C30.5182 22.5596 30.5307 23.3799 30.0449 23.9057L30.0075 23.9446L24.3751 29.5769C23.8516 30.1004 23.0029 30.1004 22.4795 29.5769Z" fill="black"/>
</svg>
