<svg width="18" height="18" viewBox="0 0 18 18" fill="none" xmlns="http://www.w3.org/2000/svg">
<path d="M8.85808 0.900024C12.1454 0.900024 14.8165 3.53827 14.8696 6.81293L14.8704 6.91235L14.8705 8.19194C15.1641 8.4008 15.4012 8.67111 15.575 8.99599L15.6125 9.06814C15.8069 9.45427 15.9118 9.87336 15.9162 10.8989V13.8255C15.9162 14.9641 15.7976 15.377 15.575 15.7933C15.3524 16.2095 15.0257 16.5362 14.6094 16.7588L14.5373 16.7963C14.1511 16.9907 13.732 17.0957 12.7065 17.0999L5.07453 17.1C3.9359 17.1 3.523 16.9815 3.10674 16.7588C2.69047 16.5362 2.36379 16.2095 2.14116 15.7933L2.11544 15.7443C1.91355 15.3515 1.80441 14.9364 1.79999 13.8904V10.9638C1.79999 9.82515 1.91854 9.41225 2.14116 8.99599C2.31491 8.67111 2.55204 8.4008 2.84567 8.19194L2.84575 6.91235C2.84575 3.59183 5.53756 0.900024 8.85808 0.900024ZM12.6417 9.16807L5.0157 9.16819L4.86555 9.16941C4.21518 9.17757 4.01355 9.22249 3.80416 9.33447C3.64561 9.41927 3.53002 9.53485 3.44522 9.69341L3.42172 9.73944C3.32683 9.9351 3.28667 10.1564 3.27989 10.76L3.27883 10.9637L3.27894 13.8843L3.28016 14.0345C3.28832 14.6848 3.33324 14.8865 3.44522 15.0959C3.53002 15.2544 3.64561 15.37 3.80416 15.4548L3.85019 15.4783C4.04585 15.5732 4.26712 15.6133 4.87077 15.6201L5.07453 15.6212L12.7468 15.6209C13.4766 15.6172 13.6927 15.5721 13.912 15.4548C14.0706 15.37 14.1861 15.2544 14.2709 15.0959L14.2944 15.0498C14.3893 14.8542 14.4295 14.6329 14.4363 14.0292L14.4373 13.8255L14.4371 10.8586C14.4333 10.1288 14.3882 9.91275 14.2709 9.69341C14.1861 9.53485 14.0706 9.41927 13.912 9.33447L13.866 9.31096C13.6703 9.21608 13.449 9.17592 12.8454 9.16913L12.6417 9.16807ZM8.99252 10.7814C9.66076 10.7814 10.2025 11.3231 10.2025 11.9913C10.2025 12.3811 10.0182 12.7278 9.73202 12.9491L9.73194 13.4029C9.73194 13.8113 9.40089 14.1423 8.99252 14.1423C8.58415 14.1423 8.2531 13.8113 8.2531 13.4029L8.25315 12.9492C7.96689 12.7279 7.78256 12.3811 7.78256 11.9913C7.78256 11.3231 8.32428 10.7814 8.99252 10.7814ZM8.85808 2.37886C6.37934 2.37886 4.36523 4.36818 4.3252 6.83738L4.32459 6.91235L4.32451 7.71275C4.51881 7.69832 4.74386 7.69046 5.00964 7.68937L12.6416 7.68924C12.936 7.68924 13.1818 7.69716 13.3918 7.71275L13.3916 6.91235C13.3916 4.40857 11.3619 2.37886 8.85808 2.37886Z" fill="#56606D"/>
</svg>
