<svg width="32" height="32" viewBox="0 0 32 32" fill="none" xmlns="http://www.w3.org/2000/svg">
<rect width="32" height="32" rx="8" fill="#FFA800" fill-opacity="0.1"/>
<rect x="0.5" y="0.5" width="31" height="31" rx="7.5" stroke="#FFA800" stroke-opacity="0.2"/>
<path d="M23.0565 6.96903C23.1425 7.03306 23.2123 7.11631 23.2603 7.21212C23.3084 7.30794 23.3334 7.41367 23.3333 7.52086V19.8959C23.3334 19.92 23.3321 19.9442 23.3297 19.9683C23.3649 20.692 23.1542 21.4064 22.7317 21.995C22.3093 22.5837 21.7 23.0121 21.0031 23.2103C20.3061 23.4086 19.5626 23.3651 18.8936 23.087C18.2245 22.8089 17.6693 22.3124 17.3183 21.6785C16.9673 21.0446 16.8413 20.3106 16.9606 19.5959C17.08 18.8812 17.4378 18.228 17.9757 17.7425C18.5137 17.2571 19.2001 16.9681 19.9232 16.9225C20.6464 16.8769 21.3637 17.0774 21.9583 17.4914V12.1115L14.1667 14.449V21.7292C14.1667 21.7534 14.1655 21.7776 14.163 21.8016C14.1983 22.5253 13.9875 23.2397 13.5651 23.8284C13.1426 24.4171 12.5333 24.8454 11.8364 25.0437C11.1395 25.242 10.396 25.1985 9.72688 24.9203C9.05782 24.6422 8.5026 24.1458 8.15163 23.5118C7.80066 22.8779 7.6746 22.1439 7.79398 21.4292C7.91336 20.7145 8.27114 20.0613 8.80908 19.5759C9.34702 19.0905 10.0334 18.8014 10.7566 18.7558C11.4797 18.7102 12.197 18.9108 12.7917 19.3248V10.2709C12.7917 10.1231 12.8393 9.97933 12.9275 9.86078C13.0157 9.74224 13.1397 9.65524 13.2812 9.6127L22.4478 6.8627C22.5505 6.8317 22.6591 6.82517 22.7648 6.84363C22.8705 6.8621 22.9704 6.90504 23.0565 6.96903V6.96903ZM14.1667 13.0135L21.9583 10.676V8.44486L14.1667 10.7824V13.0135ZM10.9583 20.125C10.4721 20.125 10.0058 20.3182 9.66197 20.662C9.31815 21.0058 9.125 21.4721 9.125 21.9584C9.125 22.4446 9.31815 22.9109 9.66197 23.2547C10.0058 23.5985 10.4721 23.7917 10.9583 23.7917C11.4446 23.7917 11.9109 23.5985 12.2547 23.2547C12.5985 22.9109 12.7917 22.4446 12.7917 21.9584C12.7917 21.4721 12.5985 21.0058 12.2547 20.662C11.9109 20.3182 11.4446 20.125 10.9583 20.125ZM18.2917 20.125C18.2917 20.6113 18.4848 21.0776 18.8286 21.4214C19.1725 21.7652 19.6388 21.9584 20.125 21.9584C20.6112 21.9584 21.0775 21.7652 21.4214 21.4214C21.7652 21.0776 21.9583 20.6113 21.9583 20.125C21.9583 19.6388 21.7652 19.1725 21.4214 18.8287C21.0775 18.4848 20.6112 18.2917 20.125 18.2917C19.6388 18.2917 19.1725 18.4848 18.8286 18.8287C18.4848 19.1725 18.2917 19.6388 18.2917 20.125Z" fill="#FFA800"/>
</svg>
