<svg width="18" height="18" viewBox="0 0 18 18" fill="none" xmlns="http://www.w3.org/2000/svg">
<path d="M9.06749 0.900024L9.11645 0.900438L9.16529 0.901677C9.53115 0.909002 9.89106 0.940584 10.2435 0.99488C9.98774 1.47157 9.8346 2.00947 9.81271 2.58037L9.8101 2.57899V15.4211C11.1641 14.7192 12.375 12.1847 12.375 9.00002C12.375 7.94799 12.2428 6.96691 12.0171 6.0994C12.496 6.31487 13.0287 6.43502 13.59 6.43502L13.6147 6.43474C13.7738 7.2409 13.86 8.10345 13.86 9.00002C13.86 11.169 13.3556 13.1389 12.5342 14.5928C14.3857 13.4203 15.615 11.3537 15.615 9.00002C15.615 7.98925 15.3883 7.03143 14.983 6.17462C15.4572 5.99009 15.8844 5.71379 16.2419 5.36813C16.7909 6.46038 17.1 7.69411 17.1 9.00002C17.1 13.3741 13.6329 16.9384 9.29698 17.0947L9.16532 17.0984C9.13277 17.0995 9.10017 17.1 9.06749 17.1H8.99999C4.52649 17.1 0.899994 13.4735 0.899994 9.00002C0.899994 4.52652 4.52649 0.900024 8.99999 0.900024H9.06749ZM8.32503 2.57892C6.971 3.28067 5.75999 5.81527 5.75999 9.00002C5.75999 12.1848 6.971 14.7194 8.32503 15.4211V2.57892ZM5.6737 3.2809L5.60267 3.3229C3.67508 4.4789 2.38499 6.5888 2.38499 9.00002C2.38499 11.4407 3.70681 13.5727 5.67364 14.7191C4.80936 13.254 4.27499 11.2325 4.27499 9.00002C4.27499 6.76756 4.80936 4.74604 5.6737 3.2809ZM13.6575 0.900024C14.7013 0.900024 15.5475 1.71599 15.5475 2.72252C15.5475 3.72906 14.7013 4.54502 13.6575 4.54502C12.6137 4.54502 11.7675 3.72906 11.7675 2.72252C11.7675 1.71599 12.6137 0.900024 13.6575 0.900024Z" fill="#56606D"/>
</svg>
