<svg width="16" height="16" viewBox="0 0 16 16" fill="none" xmlns="http://www.w3.org/2000/svg">
<path d="M10.9809 3.39991L11.0028 3.42094L14.9791 7.39723C15.2665 7.68463 15.2735 8.14625 15.0001 8.44216L14.9791 8.46404L11.0028 12.4403C10.7082 12.7349 10.2306 12.7349 9.93596 12.4403C9.64856 12.1529 9.64155 11.6913 9.91493 11.3954L9.93596 11.3735L12.6243 8.68493L1.55435 8.68498C1.13774 8.68498 0.800003 8.34725 0.800003 7.93063C0.800003 7.52418 1.12146 7.19281 1.52401 7.17688L1.55435 7.17628L12.6243 7.17623L9.93596 4.48775C9.64856 4.20034 9.64155 3.73872 9.91493 3.44282L9.93596 3.42094C10.2234 3.13353 10.685 3.12652 10.9809 3.39991Z" fill="black"/>
</svg>
