<svg width="18" height="18" viewBox="0 0 18 18" fill="none" xmlns="http://www.w3.org/2000/svg">
<path d="M9.20081 0.978035L9.22929 0.993614L15.6735 4.71524C15.8889 4.83967 16.0046 5.05047 16.0206 5.26767L16.022 5.29284L16.0225 5.32092V12.697C16.0225 12.9365 15.8998 13.1585 15.6989 13.2862L15.6723 13.3023L9.22806 17.0071C9.02108 17.1261 8.76841 17.1308 8.55793 17.0213L8.52949 17.0056L2.14783 13.3009C1.94158 13.1811 1.81134 12.9649 1.80084 12.728L1.80005 12.697L1.80028 5.30779L1.80005 5.28646C1.80132 5.05592 1.91682 4.83187 2.12354 4.70054L2.14878 4.68524L8.53049 0.993853C8.72739 0.879964 8.96603 0.869749 9.17042 0.963234L9.20081 0.978035ZM14.626 6.52945L9.57824 9.44452V15.1949L14.626 12.2929V6.52945ZM3.19662 6.53529V12.295L8.18177 15.189V9.44249L3.19662 6.53529ZM8.88026 2.40466L3.86249 5.30703L8.88178 8.23416L13.928 5.31985L8.88026 2.40466Z" fill="#56606D"/>
</svg>
