<svg width="32" height="32" viewBox="0 0 32 32" fill="none" xmlns="http://www.w3.org/2000/svg">
<rect x="0.5" y="0.5" width="31" height="31" rx="7.5" fill="white" stroke="#EBEEF1"/>
<path d="M16.0695 8.34998C18.7078 8.34998 20.8466 10.4888 20.8466 13.1271C20.8466 14.7102 20.0765 16.1134 18.8905 16.9826C21.2698 17.8565 23.1437 19.7789 23.9536 22.1905C23.9786 22.265 24.0026 22.34 24.0256 22.4154L24.0593 22.5289C24.2169 23.0738 23.9029 23.6434 23.3579 23.801C23.2651 23.8278 23.1691 23.8414 23.0725 23.8414H8.91866C8.35607 23.8414 7.89999 23.3853 7.89999 22.8227C7.89999 22.7434 7.90926 22.6644 7.92758 22.5873L7.93965 22.5412C7.97276 22.4261 8.00827 22.3119 8.04612 22.1988C8.86492 19.7523 10.7783 17.8081 13.2039 16.9494C12.0432 16.0781 11.2924 14.6903 11.2924 13.1271C11.2924 10.4888 13.4312 8.34998 16.0695 8.34998ZM16.0013 17.9724C13.1679 17.9724 10.6651 19.7017 9.62223 22.264L9.59178 22.34H22.4107L22.4102 22.3388C21.3965 19.7624 18.9143 18.0092 16.0905 17.973L16.0013 17.9724ZM16.0695 9.85135C14.2604 9.85135 12.7938 11.3179 12.7938 13.1271C12.7938 14.9362 14.2604 16.4028 16.0695 16.4028C17.8786 16.4028 19.3452 14.9362 19.3452 13.1271C19.3452 11.3179 17.8786 9.85135 16.0695 9.85135Z" fill="black"/>
</svg>
