<svg width="18" height="18" viewBox="0 0 18 18" fill="none" xmlns="http://www.w3.org/2000/svg">
<path d="M7.74364 0.900024L7.9692 0.900584C9.84679 0.912383 10.8184 1.11217 11.8064 1.63587C12.2829 1.88843 12.7094 2.20354 13.0794 2.57677C13.3634 2.86322 13.3614 3.32564 13.0749 3.6096C12.7885 3.89357 12.3261 3.89156 12.0421 3.60511C11.7767 3.33742 11.4695 3.11045 11.1224 2.92645C10.3523 2.5183 9.58982 2.36547 7.87023 2.36079L7.74577 2.36068L7.58266 2.36162C6.03399 2.37528 5.28872 2.5205 4.58222 2.87734L4.48747 2.92645C3.81363 3.2836 3.28956 3.80299 2.92971 4.46984L2.89078 4.54347C2.50945 5.28011 2.36539 6.03812 2.36077 7.68392L2.36065 10.3088L2.36243 10.5487C2.38012 12.0019 2.52241 12.725 2.86187 13.4003L2.899 13.4725L2.92971 13.5302C3.28956 14.1971 3.81363 14.7164 4.48747 15.0736C5.2575 15.4817 6.02 15.6346 7.7396 15.6393L7.86406 15.6394L8.02716 15.6384C9.57583 15.6248 10.3211 15.4795 11.0276 15.1227L11.1224 15.0736C11.4206 14.9155 11.6893 14.7258 11.9273 14.5057C12.2235 14.232 12.6856 14.2501 12.9594 14.5463C13.2332 14.8425 13.215 15.3046 12.9188 15.5784C12.6111 15.8628 12.2682 16.1097 11.8907 16.3185L11.803 16.366L11.7377 16.4001C10.8073 16.8805 9.86521 17.0754 8.13615 17.0979L7.86619 17.1L7.64062 17.0995C5.76304 17.0877 4.79147 16.8879 3.80342 16.3642C2.89931 15.885 2.18012 15.1832 1.68229 14.293L1.64241 14.2204L1.60796 14.1557L1.55954 14.0616C1.10104 13.1513 0.917732 12.2043 0.901122 10.491L0.899994 10.311V7.76695L0.900578 7.58397C0.9127 5.72232 1.11492 4.75715 1.64427 3.77619C2.1283 2.87921 2.83643 2.16642 3.73369 1.67354L3.80686 1.63405L3.8721 1.59993C4.84987 1.09514 5.84044 0.90557 7.74364 0.900024ZM14.0919 5.67472L14.1131 5.69508L16.9299 8.51192C17.2082 8.79017 17.215 9.23709 16.9503 9.52357L16.9299 9.54475L14.1131 12.3616C13.8279 12.6468 13.3655 12.6468 13.0803 12.3616C12.802 12.0833 12.7952 11.6364 13.0599 11.3499L13.0803 11.3288L14.6748 9.73426H6.42342C6.02007 9.73426 5.6931 9.40728 5.6931 9.00393C5.6931 8.61042 6.00432 8.2896 6.39405 8.27419L6.42342 8.27361H14.6262L13.0803 6.72792C12.802 6.44967 12.7952 6.00274 13.0599 5.71626L13.0803 5.69508C13.3585 5.41683 13.8054 5.41004 14.0919 5.67472Z" fill="#56606D"/>
</svg>
