<svg width="32" height="32" viewBox="0 0 32 32" fill="none" xmlns="http://www.w3.org/2000/svg">
<rect width="32" height="32" rx="8" fill="#929FB1" fill-opacity="0.1"/>
<rect x="0.5" y="0.5" width="31" height="31" rx="7.5" stroke="#929FB1" stroke-opacity="0.2"/>
<path d="M16.9452 7C17.4186 7 17.8726 7.18807 18.2074 7.52283L22.9068 12.2221C23.2416 12.5569 23.4297 13.0109 23.4297 13.4844V22.1736C23.4297 23.7346 22.1642 25 20.6032 25H11.8264C10.2654 25 9 23.7346 9 22.1736V9.82655C9 8.26555 10.2654 7 11.8264 7H16.9452ZM16.2147 8.63635H11.8264C11.1816 8.63635 10.6565 9.14932 10.6369 9.78948L10.6364 9.82655V22.1736C10.6364 22.8184 11.1493 23.3435 11.7894 23.3631L11.8264 23.3636H20.6032C21.2481 23.3636 21.7732 22.8507 21.7927 22.2106L21.7933 22.1736V14.2148L17.033 14.2149C16.5922 14.2149 16.2327 13.8663 16.2155 13.4297L16.2148 13.3968L16.2147 8.63635ZM20.9491 12.5785L17.851 9.48056L17.8512 12.5786L20.9491 12.5785Z" fill="#929FB1"/>
</svg>
