<svg width="20" height="20" viewBox="0 0 20 20" fill="none" xmlns="http://www.w3.org/2000/svg">
<path d="M10 1C14.9706 1 19 5.02944 19 10C19 14.9706 14.9706 19 10 19C5.02944 19 1 14.9706 1 10C1 5.02944 5.02944 1 10 1ZM10 2.65C5.94071 2.65 2.65 5.94071 2.65 10C2.65 14.0593 5.94071 17.35 10 17.35C14.0593 17.35 17.35 14.0593 17.35 10C17.35 5.94071 14.0593 2.65 10 2.65ZM10.075 4.45C10.5195 4.45 10.8819 4.80157 10.8993 5.24182L10.9 5.275L10.9002 9.373H14.398C14.8536 9.373 15.223 9.74237 15.223 10.198C15.223 10.6425 14.8714 11.0049 14.4312 11.0223L14.398 11.023H10.1574C9.98602 11.023 9.82617 10.9724 9.69221 10.8852C9.43851 10.7585 9.26053 10.5004 9.25044 10.1971L9.25011 10.1838L9.25 5.275C9.25 4.81937 9.61937 4.45 10.075 4.45Z" fill="black"/>
</svg>
