<svg width="32" height="32" viewBox="0 0 32 32" fill="none" xmlns="http://www.w3.org/2000/svg">
<path d="M23.7071 9.70711C24.0976 9.31658 24.0976 8.68342 23.7071 8.29289C23.3166 7.90237 22.6834 7.90237 22.2929 8.29289L23.7071 9.70711ZM8.29289 22.2929C7.90237 22.6834 7.90237 23.3166 8.29289 23.7071C8.68342 24.0976 9.31658 24.0976 9.70711 23.7071L8.29289 22.2929ZM9.70711 8.29289C9.31658 7.90237 8.68342 7.90237 8.29289 8.29289C7.90237 8.68342 7.90237 9.31658 8.29289 9.70711L9.70711 8.29289ZM22.2929 23.7071C22.6834 24.0976 23.3166 24.0976 23.7071 23.7071C24.0976 23.3166 24.0976 22.6834 23.7071 22.2929L22.2929 23.7071ZM22.2929 8.29289L8.29289 22.2929L9.70711 23.7071L23.7071 9.70711L22.2929 8.29289ZM8.29289 9.70711L22.2929 23.7071L23.7071 22.2929L9.70711 8.29289L8.29289 9.70711Z" fill="#354049"/>
</svg>
