<svg width="22" height="22" viewBox="0 0 22 22" fill="none" xmlns="http://www.w3.org/2000/svg">
<path fill-rule="evenodd" clip-rule="evenodd" d="M10.241 17.6565C5.99901 17.6565 2.56024 14.2686 2.56024 10.0895C2.56024 5.91026 5.99901 2.52236 10.241 2.52236C14.4829 2.52236 17.9217 5.91026 17.9217 10.0895C17.9217 14.2686 14.4829 17.6565 10.241 17.6565ZM0 10.0895C0 4.5172 4.58503 0 10.241 0C15.8969 0 20.4819 4.5172 20.4819 10.0895C20.4819 12.4541 19.6562 14.6288 18.2733 16.3489L21.6119 19.7485C22.1201 20.266 22.1157 21.0965 21.6022 21.6086C21.083 22.1263 20.2415 22.1219 19.7278 21.5988L16.3663 18.1759C14.658 19.434 12.5378 20.1789 10.241 20.1789C4.58503 20.1789 0 15.6617 0 10.0895Z" fill="#2683FF"/>
</svg>
