<svg width="40" height="40" viewBox="0 0 40 40" fill="none" xmlns="http://www.w3.org/2000/svg">
    <path fill-rule="evenodd" clip-rule="evenodd" d="M16.4424 0H23.3464C28.8835 0 31.0805 0.613723 33.2354 1.76617C35.3903 2.91861 37.0814 4.60977 38.2339 6.76466L38.3215 6.93055C39.403 9.00672 39.9846 11.2 40 16.4423V23.3463C40 28.8835 39.3863 31.0805 38.2339 33.2353C37.0814 35.3902 35.3903 37.0814 33.2354 38.2338L33.0695 38.3214C30.9933 39.4029 28.8001 39.9846 23.5577 40H16.6537C11.1165 40 8.91955 39.3863 6.76466 38.2338C4.60978 37.0814 2.91861 35.3902 1.76617 33.2353L1.67858 33.0694C0.597074 30.9933 0.0154219 28.8 0 23.5577V16.6537C0 11.1165 0.613724 8.91954 1.76617 6.76466C2.91861 4.60977 4.60978 2.91861 6.76466 1.76617L6.93056 1.67858C9.00673 0.597074 11.2 0.0154219 16.4424 0Z" fill="#0218A7"/>
    <path d="M6.65378 8.66401C7.49447 8.66401 8.17597 7.9825 8.17597 7.14182C8.17597 6.30114 7.49447 5.61963 6.65378 5.61963C5.8131 5.61963 5.13159 6.30114 5.13159 7.14182C5.13159 7.9825 5.8131 8.66401 6.65378 8.66401Z" fill="#FF458B"/>
    <path d="M11.2205 8.66401C12.0612 8.66401 12.7427 7.9825 12.7427 7.14182C12.7427 6.30114 12.0612 5.61963 11.2205 5.61963C10.3798 5.61963 9.69824 6.30114 9.69824 7.14182C9.69824 7.9825 10.3798 8.66401 11.2205 8.66401Z" fill="#FFC600"/>
    <path d="M15.7871 8.66401C16.6277 8.66401 17.3093 7.9825 17.3093 7.14182C17.3093 6.30114 16.6277 5.61963 15.7871 5.61963C14.9464 5.61963 14.2649 6.30114 14.2649 7.14182C14.2649 7.9825 14.9464 8.66401 15.7871 8.66401Z" fill="#00E567"/>
    <path d="M20.6705 14.0259H6.85523C6.01453 14.0259 5.33301 14.7074 5.33301 15.5481C5.33301 16.3887 6.01453 17.0702 6.85523 17.0702H20.6705C21.5112 17.0702 22.1928 16.3887 22.1928 15.5481C22.1928 14.7074 21.5112 14.0259 20.6705 14.0259Z" fill="#0149FF"/>
    <path d="M16.3216 19.3174H12.7698C11.9291 19.3174 11.2476 19.9989 11.2476 20.8396C11.2476 21.6803 11.9291 22.3618 12.7698 22.3618H16.3216C17.1622 22.3618 17.8438 21.6803 17.8438 20.8396C17.8438 19.9989 17.1622 19.3174 16.3216 19.3174Z" fill="#FF458B"/>
    <path d="M25.5272 19.3174H21.9753C21.1346 19.3174 20.4531 19.9989 20.4531 20.8396C20.4531 21.6803 21.1346 22.3618 21.9753 22.3618H25.5272C26.3679 22.3618 27.0494 21.6803 27.0494 20.8396C27.0494 19.9989 26.3679 19.3174 25.5272 19.3174Z" fill="#00E567"/>
    <path d="M34.7328 19.3174H31.1811C30.3404 19.3174 29.6589 19.9989 29.6589 20.8396C29.6589 21.6803 30.3404 22.3618 31.1811 22.3618H34.7328C35.5735 22.3618 36.255 21.6803 36.255 20.8396C36.255 19.9989 35.5735 19.3174 34.7328 19.3174Z" fill="#00E567"/>
    <path d="M30.3112 14.0259H26.252C25.4113 14.0259 24.7297 14.7074 24.7297 15.5481C24.7297 16.3887 25.4113 17.0702 26.252 17.0702H30.3112C31.1519 17.0702 31.8334 16.3887 31.8334 15.5481C31.8334 14.7074 31.1519 14.0259 30.3112 14.0259Z" fill="#0149FF"/>
    <path d="M25.5271 24.6089H17.3362C16.4955 24.6089 15.814 25.2904 15.814 26.1311C15.814 26.9717 16.4955 27.6532 17.3362 27.6532H25.5271C26.3678 27.6532 27.0493 26.9717 27.0493 26.1311C27.0493 25.2904 26.3678 24.6089 25.5271 24.6089Z" fill="#0149FF"/>
    <path d="M20.6704 29.9004H17.3361C16.4955 29.9004 15.814 30.5819 15.814 31.4226C15.814 32.2632 16.4955 32.9447 17.3361 32.9447H20.6704C21.5111 32.9447 22.1926 32.2632 22.1926 31.4226C22.1926 30.5819 21.5111 29.9004 20.6704 29.9004Z" fill="#0149FF"/>
    <path d="M30.3112 29.9004H26.252C25.4113 29.9004 24.7297 30.5819 24.7297 31.4226C24.7297 32.2632 25.4113 32.9447 26.252 32.9447H30.3112C31.1519 32.9447 31.8334 32.2632 31.8334 31.4226C31.8334 30.5819 31.1519 29.9004 30.3112 29.9004Z" fill="#FF458B"/>
</svg>
