<svg width="40" height="40" viewBox="0 0 40 40" fill="none" xmlns="http://www.w3.org/2000/svg">
    <path fill-rule="evenodd" clip-rule="evenodd" d="M16.4423 0H23.3463C28.8835 0 31.0805 0.613723 33.2353 1.76617C35.3902 2.91861 37.0814 4.60978 38.2338 6.76466L38.3214 6.93056C39.4029 9.00672 39.9846 11.2 40 16.4423V23.3463C40 28.8835 39.3863 31.0805 38.2338 33.2353C37.0814 35.3902 35.3902 37.0814 33.2353 38.2338L33.0694 38.3214C30.9933 39.4029 28.8 39.9846 23.5577 40H16.6537C11.1165 40 8.91954 39.3863 6.76466 38.2338C4.60977 37.0814 2.91861 35.3902 1.76617 33.2353L1.67858 33.0695C0.597074 30.9933 0.0154219 28.8 0 23.5577V16.6537C0 11.1165 0.613723 8.91954 1.76617 6.76466C2.91861 4.60978 4.60977 2.91861 6.76466 1.76617L6.93055 1.67858C9.00672 0.597074 11.2 0.0154219 16.4423 0Z" fill="#0218A7"/>
    <path fill-rule="evenodd" clip-rule="evenodd" d="M9.63178 17.0363C10.6489 16.0192 12.298 16.0192 13.3151 17.0363L19.7348 23.456C20.7519 24.4732 20.7519 26.1222 19.7348 27.1393C18.7177 28.1565 17.0686 28.1565 16.0515 27.1393L9.63178 20.7196C8.61466 19.7025 8.61466 18.0534 9.63178 17.0363Z" fill="#FF458B"/>
    <path fill-rule="evenodd" clip-rule="evenodd" d="M30.5392 12.8976C31.5563 13.9147 31.5563 15.5638 30.5392 16.5809L19.7348 27.3852C18.7177 28.4024 17.0686 28.4024 16.0515 27.3852C15.0344 26.3681 15.0344 24.7191 16.0515 23.7019L26.8559 12.8976C27.873 11.8805 29.5221 11.8805 30.5392 12.8976Z" fill="#00E366"/>
    <path fill-rule="evenodd" clip-rule="evenodd" d="M18.0243 21.7275L19.8643 23.4907C20.9529 24.5793 20.9529 26.3443 19.8643 27.4329C18.7757 28.5215 17.0107 28.5215 15.9221 27.4329L15.3451 26.8568C14.8907 25.8335 15.083 24.5926 15.9221 23.7536L18.0243 21.7275Z" fill="#FFC600"/>
</svg>
