<svg width="40" height="40" viewBox="0 0 40 40" fill="none" xmlns="http://www.w3.org/2000/svg">
<path fill-rule="evenodd" clip-rule="evenodd" d="M16.4423 0H23.3463C28.8835 0 31.0805 0.613723 33.2353 1.76617C35.3902 2.91861 37.0814 4.60977 38.2338 6.76466L38.3214 6.93056C39.4029 9.00672 39.9846 11.2 40 16.4423V23.3463C40 28.8835 39.3863 31.0805 38.2338 33.2353C37.0814 35.3902 35.3902 37.0814 33.2353 38.2338L33.0694 38.3214C30.9933 39.4029 28.8 39.9846 23.5577 40H16.6537C11.1165 40 8.91954 39.3863 6.76466 38.2338C4.60977 37.0814 2.91861 35.3902 1.76617 33.2353L1.67858 33.0694C0.597074 30.9933 0.0154219 28.8 0 23.5577V16.6537C0 11.1165 0.613723 8.91954 1.76617 6.76466C2.91861 4.60977 4.60977 2.91861 6.76466 1.76617L6.93056 1.67858C9.00672 0.597074 11.2 0.0154219 16.4423 0Z" fill="#0218A7"/>
<path fill-rule="evenodd" clip-rule="evenodd" d="M17.917 25.1023L18.5819 24.8395C18.7569 24.8286 19.1194 24.9633 19.2434 24.8395L21.3598 22.7274C24.0747 23.6382 27.1728 23.0739 29.3966 21.0323C29.4939 20.9506 29.5967 20.8558 29.7059 20.7468C30.655 19.7996 31.3094 18.64 31.6691 17.3998C31.9154 16.5675 32.0242 15.703 31.9955 14.8416C31.9419 12.8416 31.1787 10.8601 29.7059 9.39024C27.5984 7.28686 24.5361 6.53891 21.8356 7.27696C20.4994 7.62597 19.2364 8.32239 18.1902 9.36648C16.1131 11.4395 15.4093 14.3657 16.0767 17.0236C16.0767 17.0236 15.8804 17.5621 15.8218 17.8411L14.0265 19.6329C13.9025 19.7567 13.8281 19.9213 13.8171 20.096L13.7458 21.2347L7.3781 27.6026C7.28256 27.6981 7.22519 27.8253 7.21676 27.9601L7.00109 31.4108C6.99965 31.4339 6.99965 31.457 7.00109 31.48C7.0202 31.7857 7.28348 32.018 7.58916 31.9989L11.0399 31.7832C11.1747 31.7748 11.3019 31.7174 11.3974 31.6219L17.917 25.1023ZM27.1106 13.5317C27.1106 14.5221 26.3062 15.3249 25.3139 15.3249C24.3216 15.3249 23.5172 14.5221 23.5172 13.5317C23.5172 12.5414 24.3216 11.7386 25.3139 11.7386C26.3062 11.7386 27.1106 12.5414 27.1106 13.5317Z" fill="#E6EDF7"/>
</svg>
