<svg width="20" height="20" viewBox="0 0 20 20" fill="none" xmlns="http://www.w3.org/2000/svg">
<rect width="20" height="20" rx="10" fill="#EB5757"/>
<path d="M9.07447 8.52152H10.9574V14H9.07447V8.52152ZM10 6C10.2908 6 10.5284 6.09114 10.7128 6.27342C10.9043 6.44895 11 6.67848 11 6.96203C11 7.23882 10.9043 7.46835 10.7128 7.65063C10.5284 7.83291 10.2908 7.92405 10 7.92405C9.70922 7.92405 9.46809 7.83291 9.2766 7.65063C9.0922 7.46835 9 7.23882 9 6.96203C9 6.67848 9.0922 6.44895 9.2766 6.27342C9.46809 6.09114 9.70922 6 10 6Z" fill="white"/>
</svg>
