<svg width="711" height="901" viewBox="0 0 711 901" fill="none" xmlns="http://www.w3.org/2000/svg">
<path d="M0.700195 900L336.2 321H369.8L782.5 325.6L782.2 900L110.8 899.1L0.700195 900Z" fill="#007AFF"/>
<path d="M448.6 323V125C448.6 119 446.2 113.7 442.2 109.7C438.2 105.8 432.9 103.3 426.9 103.3C420.9 103.3 415.5 105.7 411.6 109.7C407.6 113.6 405.2 119 405.2 125C405.2 134.4 401.4 142.8 395.2 149C389 155.2 380.5 159 371.1 159C361.7 159 353.2 155.2 347 149C340.8 142.8 337 134.3 337 125V62H349.4V125C349.4 131 351.8 136.3 355.8 140.3C359.8 144.2 365.2 146.7 371.1 146.7C377.1 146.7 382.5 144.3 386.4 140.3C390.4 136.4 392.8 130.9 392.8 125C392.8 115.6 396.6 107.2 402.8 101C409 94.8 417.5 91 426.9 91C436.3 91 444.8 94.8 451 101C457.2 107.2 461 115.7 461 125V323H448.6Z" fill="#007AFF"/>
<path d="M646 560H493V823H646V560Z" fill="#0062FF"/>
<path d="M317.4 283.1C316.6 283.1 315.9 283.1 315.2 283.2C313.8 283.2 312.6 282.5 311.9 281.3C296.1 252.5 265.4 233 230.1 233C198.1 233 169.9 249 153.1 273.4C152.3 274.6 150.8 275.2 149.4 274.9C145.2 274 140.9 273.5 136.4 273.5C103.6 273.5 77 300 77 332.6C77 332.6 77 332.6 77 332.7C77 334.6 78.6 336.2 80.5 336.2H363.4C365.3 336.2 366.9 334.6 366.9 332.7V332.6C367 305.2 344.8 283.1 317.4 283.1Z" fill="#DEDEFC"/>
<path d="M653.5 654C764.8 654 855 563.6 855 452C855 340.4 764.8 250 653.5 250C542.2 250 452 340.4 452 452C452 563.6 542.2 654 653.5 654Z" fill="white"/>
<path d="M673.9 0H712V820H646V0.2L673.9 0Z" fill="#6CB9FF"/>
<path d="M611 651C563.4 639.3 522.1 611.5 493 573.9V422.4C493 420.4 493.8 418.4 495.3 416.9L552 359.9H611V419.1V651Z" fill="#499FFC"/>
<path d="M493 562.8H382.7C377.3 562.8 372.4 560.6 368.8 557C365.2 553.5 363 548.6 363 543.2C363 537.8 365.2 532.9 368.8 529.4C372.3 525.9 377.3 523.6 382.7 523.6C391.2 523.6 398.9 520.1 404.5 514.6C410.1 509 413.6 501.3 413.6 492.9C413.6 484.4 410.1 476.7 404.5 471.2C398.9 465.6 391.2 462.2 382.7 462.2H50.5V473.4C180.2 473.4 252.9 473.4 382.7 473.4C388.1 473.4 393 475.6 396.6 479.2C400.1 482.7 402.4 487.6 402.4 493C402.4 498.4 400.2 503.3 396.6 506.8C393.1 510.3 388.1 512.6 382.7 512.6C374.2 512.6 366.5 516.1 360.9 521.6C355.3 527.2 351.8 534.9 351.8 543.3C351.8 551.8 355.3 559.5 360.9 565C366.5 570.6 374.2 574 382.7 574H493V562.8Z" fill="white"/>
<path d="M647 657C611.6 654.5 578.6 643.3 550 625.7V422.5C550 420.5 550.8 418.5 552.3 417L609.1 360H645.8L647 657Z" fill="#2683FF"/>
<path d="M711 360H646V384H711V360Z" fill="#2683FF"/>
<path d="M711 415H646V438H711V415Z" fill="#2683FF"/>
<path d="M711 469H646V493H711V469Z" fill="#2683FF"/>
<path d="M711 524H646V548H711V524Z" fill="#2683FF"/>
<path d="M711 579H646V602H711V579Z" fill="#2683FF"/>
<path d="M711 633H646V657H711V633Z" fill="#2683FF"/>
<path d="M711 688H644V712H711V688Z" fill="#0062FF"/>
<path d="M711 743H644V767H711V743Z" fill="#0062FF"/>
<path d="M711 797H644V821L711 900V797Z" fill="#0062FF"/>
<path d="M506 429H498V446H506V429Z" fill="#F7F9F9"/>
<path d="M523 429H514V446H523V429Z" fill="#F7F9F9"/>
<path d="M539 429H530V446H539V429Z" fill="#F7F9F9"/>
<path d="M506 455H498V473H506V455Z" fill="#F7F9F9"/>
<path d="M523 455H514V473H523V455Z" fill="#F7F9F9"/>
<path d="M539 455H530V473H539V455Z" fill="#F7F9F9"/>
<path d="M506 482H498V499H506V482Z" fill="#F7F9F9"/>
<path d="M523 482H514V499H523V482Z" fill="#F7F9F9"/>
<path d="M539 482H530V499H539V482Z" fill="#F7F9F9"/>
<path d="M506 508H498V525H506V508Z" fill="#F7F9F9"/>
<path d="M523 508H514V525H523V508Z" fill="#F7F9F9"/>
<path d="M539 508H530V525H539V508Z" fill="#F7F9F9"/>
<path d="M506 534H498V551H506V534Z" fill="#F7F9F9"/>
<path d="M523 534H514V551H523V534Z" fill="#F7F9F9"/>
<path d="M539 534H530V551H539V534Z" fill="#F7F9F9"/>
<path d="M523 560H514V577H523V560Z" fill="#F7F9F9"/>
<path d="M539 560H530V577H539V560Z" fill="#F7F9F9"/>
<path d="M300.2 513H322.8C325.1 513 327 511.2 327 509C327 506.8 325.1 505 322.8 505H300.2C297.9 505 296 506.8 296 509C296 511.2 297.9 513 300.2 513Z" fill="#0F002D"/>
<path d="M300.1 497H339.8C342.1 497 344 495 344 492.5C344 490 342.1 488 339.8 488H300.2C297.9 488 296 490 296 492.5C296 495 297.8 497 300.1 497Z" fill="#0F002D"/>
<path d="M355.2 497H357.9C360.2 497 362.1 495 362.1 492.5C362.1 490 360.3 488 357.9 488H355.2C352.9 488 351 490 351 492.5C351 495 352.8 497 355.2 497Z" fill="#6CB9FF"/>
<path d="M371.2 497H373.9C376.2 497 378.1 495 378.1 492.5C378.1 490 376.3 488 373.9 488H371.2C368.9 488 367 490 367 492.5C367 495 368.8 497 371.2 497Z" fill="#6CB9FF"/>
<path d="M353 28H297V123H353V28Z" fill="#499FFC"/>
<path d="M368 0H282V50H368V0Z" fill="#0F002D"/>
<path d="M372 133.9V141.1C372 166.4 351.5 187 326.5 187C301.5 187 281 166.4 281 141.1V133.9C281 108.6 301.5 88 326.5 88C351.5 88 372 108.7 372 133.9Z" fill="#499FFC"/>
<path d="M353 179.1V232.9C353 241.2 346.2 248 338 248C329.7 248 323 241.2 323 232.9V179.1C323 170.8 329.8 164 338 164C346.2 163.9 353 170.8 353 179.1Z" fill="#499FFC"/>
<path d="M310 166.8V181.2C310 188.3 304.2 194 297 194C289.8 194 284 188.3 284 181.2V166.8C284 159.7 289.8 154 297 154C304.2 154 310 159.7 310 166.8Z" fill="#6CB9FF"/>
<path d="M294 156.6V167.4C294 172.7 289.5 177 284 177C278.5 177 274 172.7 274 167.4V156.6C274 151.3 278.5 147 284 147C289.5 147 294 151.3 294 156.6Z" fill="#6CB9FF"/>
<path d="M329 179.3V194.7C329 202.5 322.5 209 314.5 209C306.5 209 300 202.6 300 194.7V179.3C300 171.4 306.5 165 314.5 165C322.5 165 329 171.4 329 179.3Z" fill="#6CB9FF"/>
<path d="M373.4 121.7L374 170.1C374.1 178.5 367.3 185.6 359 185.9C350.7 186.2 343.7 179.6 343.6 171.2L343 122.8C342.9 114.4 349.7 107.3 358 107C366.3 106.7 373.3 113.3 373.4 121.7Z" fill="#6CB9FF"/>
<path d="M368.6 182.8L358.4 195.5C353.2 201.9 343.8 202.9 337.4 197.6C331.1 192.3 330.2 182.7 335.4 176.2L345.6 163.5C350.8 157.1 360.2 156.1 366.6 161.4C372.9 166.7 373.8 176.4 368.6 182.8Z" fill="#6CB9FF"/>
<path d="M319 121.5C319 136.1 330.9 148 345.5 148C360.1 148 372 136.1 372 121.5C372 106.9 360.1 95 345.5 95C330.9 95 319 106.9 319 121.5Z" fill="#6CB9FF"/>
<path d="M328.7 267.4C327.1 266.4 325 267.6 325 269.6V271.6V274.5C325 275.4 325.4 276.2 326.2 276.7L336.3 282.7C337.1 283.2 338 283.2 338.8 282.7L348.9 276.7C349.7 276.2 350.1 275.4 350.1 274.5V271.6V269.6C350.1 267.6 348 266.5 346.4 267.4L338.8 271.9C338 272.4 337.1 272.4 336.3 271.9L328.7 267.4Z" fill="#0F002D"/>
<path d="M328.7 286.4C327.1 285.4 325 286.6 325 288.6V290.6V293.5C325 294.4 325.4 295.2 326.2 295.7L336.3 301.7C337.1 302.2 338 302.2 338.8 301.7L348.9 295.7C349.7 295.2 350.1 294.4 350.1 293.5V290.6V288.6C350.1 286.6 348 285.5 346.4 286.4L338.8 290.9C338 291.4 337.1 291.4 336.3 290.9L328.7 286.4Z" fill="#0F002D"/>
<path d="M646 0H552V360H646V0Z" fill="#499FFC"/>
<path d="M632.401 814.7C630.001 814.7 627.601 814.8 625.301 815.1C600.501 766.9 550.301 734 492.401 734C439.701 734 393.501 761.2 366.901 802.4C359.101 800.3 350.801 799.2 342.301 799.2C289.701 799.2 247.101 841.8 247.101 894.4C247.101 896.3 247.201 898.2 247.301 900.1H711.901C712.001 898.2 712.101 896.4 712.101 894.4C712.001 850.4 676.401 814.7 632.401 814.7Z" fill="white"/>
<path d="M610.2 343H632.8C635.1 343 637 341.2 637 339C637 336.8 635.1 335 632.8 335H610.2C607.9 335 606 336.8 606 339C606 341.2 607.9 343 610.2 343Z" fill="white"/>
<path d="M610.3 327H616.7C619.1 327 621 325 621 322.5C621 320 619.1 318 616.7 318H610.3C607.9 318 606 320 606 322.5C606 325 607.9 327 610.3 327Z" fill="white"/>
<path d="M610.3 311H616.7C619.1 311 621 309.2 621 307C621 304.8 619.1 303 616.7 303H610.3C607.9 303 606 304.8 606 307C606 309.2 607.9 311 610.3 311Z" fill="#0F002D"/>
<path d="M171 512C172.7 512 174 510.4 174 508.5C174 506.6 172.7 505 171 505C169.3 505 168 506.6 168 508.5C168 510.4 169.3 512 171 512Z" fill="#DEDEFC"/>
<path d="M201.9 529.3C202.6 528.6 203 527.7 203 526.7V484.3C203 482.3 201.4 480.7 199.4 480.7H189.4V470.6C189.4 460.3 181.1 451.9 170.9 451.9C160.7 451.9 152.4 460.3 152.4 470.6V480.7H142.5C140.5 480.7 138.9 482.3 138.9 484.3V526.7C138.9 527.7 139.3 528.6 140 529.3L154 543C154.7 543.7 155.6 544 156.5 544H185.3C186.2 544 187.1 543.6 187.8 543L201.9 529.3ZM174.5 518.4V523C174.5 525 172.9 526.6 170.9 526.6C168.9 526.6 167.3 525 167.3 523V518.4C163.4 516.9 160.6 513.1 160.6 508.6C160.6 502.9 165.2 498.2 170.9 498.2C176.6 498.2 181.2 502.9 181.2 508.6C181.3 513.1 178.5 516.9 174.5 518.4ZM182.4 480.7H159.7V470.6C159.7 464.3 164.8 459.1 171 459.1C177.2 459.1 182.3 464.3 182.3 470.6L182.4 480.7Z" fill="#DEDEFC"/>
<path d="M97.7006 427.7L94.1006 424.2C95.3006 423 96.6006 421.8 97.9006 420.7L101.301 424.4C100.101 425.4 98.8006 426.5 97.7006 427.7ZM105.001 421.1L101.801 417.3C103.101 416.2 104.501 415.2 105.901 414.2L108.901 418.2C107.601 419.1 106.301 420.1 105.001 421.1ZM113.001 415.3L110.201 411.2C111.601 410.3 113.101 409.4 114.601 408.5L117.201 412.8C115.801 413.5 114.301 414.4 113.001 415.3ZM220.501 412.6C219.201 411.9 217.901 411.1 216.601 410.5L219.001 406.1C220.401 406.8 221.701 407.6 223.101 408.4L220.501 412.6ZM121.501 410.3L119.101 405.9C120.601 405.1 122.201 404.3 123.701 403.6L125.901 408.1C124.401 408.8 122.901 409.6 121.501 410.3ZM212.201 408.2C210.701 407.5 209.201 406.9 207.701 406.2L209.601 401.6C211.201 402.2 212.801 402.9 214.401 403.7L212.201 408.2ZM130.401 406.2L128.501 401.6C130.101 401 131.701 400.4 133.401 399.8L135.101 404.5C133.501 405 132.001 405.5 130.401 406.2ZM203.101 404.5C201.601 404 200.001 403.5 198.401 403L199.901 398.2C201.601 398.7 203.201 399.2 204.801 399.8L203.101 404.5ZM139.701 402.9L138.201 398.1C139.901 397.6 141.601 397.2 143.201 396.8L144.401 401.6C142.901 402 141.401 402.4 139.701 402.9ZM193.601 401.6C192.001 401.2 190.401 400.9 188.801 400.6L189.801 395.7C191.501 396 193.201 396.4 194.901 396.8L193.601 401.6ZM149.401 400.5L148.401 395.6C150.101 395.3 151.801 395 153.501 394.8L154.201 399.7C152.601 399.9 151.001 400.2 149.401 400.5ZM183.901 399.7C182.301 399.5 180.601 399.3 179.001 399.1L179.501 394.1C181.201 394.2 183.001 394.5 184.701 394.7L183.901 399.7ZM159.201 399.1L158.701 394.1C160.401 394 162.201 393.8 163.901 393.8L164.201 398.8C162.501 398.8 160.801 399 159.201 399.1ZM174.001 398.8C172.401 398.7 170.701 398.7 169.001 398.7V393.7C170.701 393.7 172.501 393.7 174.201 393.8L174.001 398.8Z" fill="white"/>
<path d="M170.901 603.7L170.801 598.7C172.401 598.7 174.101 598.6 175.701 598.5L176.001 603.5C174.401 603.6 172.601 603.7 170.901 603.7ZM165.701 603.6C164.001 603.5 162.201 603.4 160.501 603.3L160.901 598.3C162.501 598.5 164.201 598.5 165.801 598.6L165.701 603.6ZM181.301 603L180.701 598C182.301 597.8 184.001 597.6 185.601 597.3L186.401 602.3C184.701 602.6 183.001 602.8 181.301 603ZM155.401 602.8C153.701 602.6 151.901 602.3 150.301 602L151.201 597.1C152.801 597.4 154.401 597.7 156.101 597.9L155.401 602.8ZM191.601 601.4L190.501 596.5C192.101 596.1 193.701 595.7 195.301 595.3L196.601 600.2C194.901 600.6 193.201 601 191.601 601.4ZM145.101 601C143.401 600.6 141.801 600.2 140.101 599.7L141.501 594.9C143.101 595.4 144.701 595.8 146.301 596.1L145.101 601ZM201.601 598.7L200.001 593.9C201.601 593.4 203.101 592.8 204.701 592.3L206.501 597C204.901 597.6 203.201 598.1 201.601 598.7ZM135.101 598.1C133.501 597.5 131.801 596.9 130.201 596.3L132.101 591.6C133.601 592.2 135.201 592.8 136.801 593.3L135.101 598.1ZM211.301 595L209.301 590.4C210.801 589.7 212.301 589 213.801 588.3L216.001 592.8C214.401 593.6 212.901 594.4 211.301 595ZM125.501 594.4C123.901 593.7 122.401 592.9 120.801 592.1L123.101 587.6C124.601 588.4 126.001 589.1 127.601 589.7L125.501 594.4ZM220.601 590.5L218.101 586.1C219.501 585.3 220.901 584.5 222.401 583.6L225.101 587.9C223.601 588.8 222.101 589.6 220.601 590.5ZM116.201 589.6C114.701 588.7 113.201 587.8 111.801 586.9L114.501 582.7C115.901 583.6 117.301 584.5 118.701 585.3L116.201 589.6ZM229.401 585L226.501 580.9C227.901 580 229.201 579 230.501 578L233.601 582C232.201 583.1 230.801 584.1 229.401 585ZM107.501 584.1C106.101 583.1 104.701 582 103.301 581L106.401 577.1C107.701 578.1 109.001 579.1 110.401 580.1L107.501 584.1ZM237.601 578.8L234.301 575C235.601 573.9 236.801 572.8 238.001 571.7L241.501 575.4C240.201 576.5 239.001 577.7 237.601 578.8ZM99.4006 577.6C98.6006 576.9 97.8006 576.2 97.1006 575.5L100.601 571.8C101.301 572.5 102.101 573.1 102.801 573.8L99.4006 577.6ZM245.201 571.7L241.501 568.2C242.701 567 243.801 565.8 244.801 564.6L248.601 567.9C247.601 569.2 246.401 570.5 245.201 571.7ZM252.001 563.9L248.001 560.8C249.001 559.5 250.001 558.2 251.001 556.9L255.101 559.8C254.201 561.2 253.101 562.6 252.001 563.9ZM258.101 555.6L253.801 552.9C254.701 551.5 255.601 550.1 256.401 548.7L260.801 551.2C260.001 552.7 259.001 554.1 258.101 555.6ZM263.301 546.6L258.801 544.3C259.601 542.8 260.301 541.4 260.901 539.9L265.501 542C264.801 543.6 264.101 545.1 263.301 546.6ZM267.601 537.2L262.901 535.3C263.501 533.8 264.101 532.2 264.601 530.7L269.401 532.3C268.801 534 268.201 535.7 267.601 537.2ZM270.901 527.5L266.001 526.1C266.501 524.5 266.901 522.9 267.201 521.4L272.101 522.5C271.801 524.1 271.401 525.8 270.901 527.5ZM273.301 517.4L268.301 516.5C268.601 514.9 268.901 513.3 269.101 511.7L274.101 512.4C273.801 514 273.601 515.7 273.301 517.4Z" fill="white"/>
<path d="M233.9 872C232.3 872 231 870.6 231 869C231.8 846.5 241.4 826.1 256.5 811.2C271.6 796.3 292.2 786.8 315 786C316.6 786 318 787.3 318 788.9V814.5C318 816.1 316.8 817.3 315.2 817.4C301.1 818.1 288.3 824.1 278.9 833.4C269.5 842.7 263.4 855.3 262.7 869.3C262.6 870.9 261.3 872.1 259.8 872.1H233.9V872Z" fill="#DEDEFC"/>
<path d="M316.5 813C322.3 813 327 808.3 327 802.5C327 796.7 322.3 792 316.5 792C310.7 792 306 796.7 306 802.5C306 808.3 310.7 813 316.5 813Z" fill="#499FFC"/>
<path d="M312.5 871C315.5 871 318 868.5 318 865.5C318 862.5 315.5 860 312.5 860C309.5 860 307 862.5 307 865.5C307 868.5 309.5 871 312.5 871Z" fill="#0F002D"/>
<path d="M444.1 859.7V877.8C444.1 878.5 443.5 879 442.9 879H433.2C432.6 879 432 878.4 432 877.8V861.3C432 860.7 432.4 860.2 433 860.1C435 859.7 439.4 858.9 442.7 858.4C443.4 858.4 444.1 858.9 444.1 859.7ZM464.2 857C464.8 857 465.4 857.6 465.4 858.2V877.8C465.4 878.5 464.8 879 464.2 879H454.5C453.8 879 453.3 878.4 453.3 877.8V858.5C453.3 857.8 453.8 857.3 454.5 857.3C456.6 857.2 461.4 857 464.2 857ZM486.7 859.7V877.8C486.7 878.5 486.1 879 485.5 879H475.8C475.2 879 474.6 878.4 474.6 877.8V858.7C474.6 858 475.2 857.4 475.9 857.5C478.1 857.7 482.5 858.1 485.5 858.5C486.2 858.6 486.7 859.1 486.7 859.7ZM497.4 860.6C500.7 861.3 503.9 862.2 507.1 863.1C507.6 863.3 508 863.8 508 864.3V877.9C508 878.6 507.4 879.1 506.8 879.1H497.1C496.4 879.1 495.9 878.5 495.9 877.9V861.8C495.9 861 496.6 860.4 497.4 860.6Z" fill="#007AFF"/>
<path d="M712 901V888H434C432.9 888 432 888.8 432 889.9V899.1C432 900.2 432.9 901 434 901H712Z" fill="#DEDEFC"/>
<path d="M186.5 195C191.2 195 195 191 195 186C195 181 191.2 177 186.5 177C181.8 177 178 181 178 186C178 190.9 181.8 195 186.5 195Z" fill="white"/>
<path d="M211.5 195C216.2 195 220 191 220 186C220 181 216.2 177 211.5 177C206.8 177 203 181 203 186C203 190.9 206.8 195 211.5 195Z" fill="white"/>
<path d="M186.5 166C191.2 166 195 162.2 195 157.5C195 152.8 191.2 149 186.5 149C181.8 149 178 152.8 178 157.5C178 162.1 181.8 166 186.5 166Z" fill="#6CB9FF"/>
<path d="M211.5 166C216.2 166 220 162.2 220 157.5C220 152.8 216.2 149 211.5 149C206.8 149 203 152.8 203 157.5C203 162.1 206.8 166 211.5 166Z" fill="#6CB9FF"/>
<path d="M161.5 136C166.2 136 170 132.2 170 127.5C170 122.8 166.2 119 161.5 119C156.8 119 153 122.8 153 127.5C153 132.2 156.8 136 161.5 136Z" fill="white"/>
<path d="M186.5 136C191.2 136 195 132.2 195 127.5C195 122.8 191.2 119 186.5 119C181.8 119 178 122.8 178 127.5C178 132.2 181.8 136 186.5 136Z" fill="white"/>
<path d="M211.5 136C216.2 136 220 132.2 220 127.5C220 122.8 216.2 119 211.5 119C206.8 119 203 122.8 203 127.5C203 132.2 206.8 136 211.5 136Z" fill="white"/>
<path d="M506.5 269C515 269 522 261.8 522 253C522 244.2 515 237 506.5 237C498 237 491 244.2 491 253C490.9 261.8 498 269 506.5 269Z" fill="#6CB9FF"/>
<path d="M506 260C509.8 260 513 256.9 513 253C513 249.2 509.9 246 506 246C502.2 246 499 249.1 499 253C499 256.8 502.1 260 506 260Z" fill="#0F002D"/>
<path d="M49.2002 781.1C49.2002 785.8 53.2002 789.6 58.2002 789.6C63.2002 789.6 67.2002 785.8 67.2002 781.1C67.2002 776.4 63.2002 772.6 58.2002 772.6C53.3002 772.6 49.2002 776.4 49.2002 781.1Z" fill="white"/>
<path d="M49.2002 806.1C49.2002 810.8 53.2002 814.6 58.2002 814.6C63.2002 814.6 67.2002 810.8 67.2002 806.1C67.2002 801.4 63.2002 797.6 58.2002 797.6C53.3002 797.6 49.2002 801.4 49.2002 806.1Z" fill="white"/>
<path d="M78.2002 806.1C78.2002 810.8 82.0002 814.6 86.7002 814.6C91.4002 814.6 95.2002 810.8 95.2002 806.1C95.2002 801.4 91.4002 797.6 86.7002 797.6C82.0002 797.6 78.2002 801.4 78.2002 806.1Z" fill="#6CB9FF"/>
<path d="M297.4 704.6C305.9 704.6 312.9 697.4 312.9 688.6C312.9 679.8 305.9 672.6 297.4 672.6C288.9 672.6 281.9 679.8 281.9 688.6C281.8 697.5 288.8 704.6 297.4 704.6Z" fill="#499FFC"/>
<path d="M296.9 695.6C300.7 695.6 303.9 692.5 303.9 688.6C303.9 684.8 300.8 681.6 296.9 681.6C293.1 681.6 289.9 684.7 289.9 688.6C289.9 692.5 293 695.6 296.9 695.6Z" fill="#007AFF"/>
</svg>
