<svg width="40" height="41" viewBox="0 0 40 41" fill="none" xmlns="http://www.w3.org/2000/svg">
    <path fill-rule="evenodd" clip-rule="evenodd" d="M16.4423 0.980469H23.3463C28.8835 0.980469 31.0805 1.59419 33.2353 2.74664C35.3902 3.89908 37.0814 5.59024 38.2338 7.74512L38.3214 7.91102C39.4029 9.98719 39.9846 12.1804 40 17.4228V24.3268C40 29.864 39.3863 32.0609 38.2338 34.2158C37.0814 36.3707 35.3902 38.0619 33.2353 39.2143L33.0694 39.3019C30.9933 40.3834 28.8 40.965 23.5577 40.9805H16.6537C11.1165 40.9805 8.91954 40.3667 6.76466 39.2143C4.60977 38.0619 2.91861 36.3707 1.76617 34.2158L1.67858 34.0499C0.597074 31.9738 0.0154219 29.7805 0 24.5381V17.6341C0 12.097 0.613723 9.90001 1.76617 7.74512C2.91861 5.59024 4.60977 3.89908 6.76466 2.74664L6.93055 2.65905C9.00672 1.57754 11.2 0.995891 16.4423 0.980469Z" fill="#EBEEF1"/>
    <path d="M27.3983 16.3472C27.7858 16.3472 28.0999 16.6614 28.0999 17.0488C28.0999 17.4268 27.8009 17.735 27.4265 17.7498L27.3983 17.7504H25.9509L24.8664 26.6069C24.7098 27.8864 23.6232 28.848 22.3342 28.848H17.7704C16.4911 28.848 15.4096 27.9005 15.2414 26.6323L14.0632 17.7504H12.6015C12.214 17.7504 11.8999 17.4363 11.8999 17.0488C11.8999 16.6708 12.1989 16.3626 12.5733 16.3478L12.6015 16.3472H27.3983ZM24.5373 17.7504H15.4787L16.6324 26.4478C16.7066 27.0073 17.1758 27.4281 17.7367 27.4444L17.7704 27.4449H22.3342C22.9029 27.4449 23.384 27.029 23.4691 26.4701L23.4737 26.4364L24.5373 17.7504ZM18.9425 20.2394L18.9471 20.2678L18.9505 20.2958L19.397 24.7615C19.4356 25.147 19.1543 25.4908 18.7687 25.5294C18.3926 25.567 18.0562 25.3001 18.0042 24.9291L18.0008 24.9011L17.5543 20.4354C17.5157 20.0499 17.797 19.7061 18.1826 19.6675C18.5491 19.6309 18.8778 19.8832 18.9425 20.2394ZM22.0723 19.6678C22.4485 19.7054 22.7254 20.0335 22.7029 20.4075L22.7006 20.4357L22.2544 24.898C22.2158 25.2835 21.872 25.5648 21.4865 25.5263C21.1103 25.4887 20.8334 25.1605 20.8559 24.7865L20.8582 24.7584L21.3044 20.2961C21.343 19.9105 21.6868 19.6292 22.0723 19.6678ZM22.296 13.3496C22.6834 13.3496 22.9975 13.6637 22.9975 14.0512C22.9975 14.4292 22.6986 14.7374 22.3242 14.7522L22.296 14.7528H17.7038C17.3164 14.7528 17.0023 14.4387 17.0023 14.0512C17.0023 13.6732 17.3012 13.365 17.6756 13.3502L17.7038 13.3496H22.296Z" fill="#56606D"/>
</svg>
