<svg width="40" height="40" viewBox="0 0 40 40" fill="none" xmlns="http://www.w3.org/2000/svg">
    <circle cx="20" cy="20.0005" r="20" fill="#EBEEF1"/>
    <path d="M26.5378 18.7087C27.7885 19.9594 27.8 21.98 26.5581 23.2219C26.0549 23.7251 25.4239 24.0225 24.768 24.1151L24.5429 25.3906C24.5263 26.3913 22.4781 27.2005 19.954 27.2005C17.4449 27.2005 15.4062 26.401 15.3657 25.4086L15.3653 25.3906L13.6398 15.6147C13.6204 15.5456 13.6079 15.4756 13.6028 15.4049L13.6001 15.3891L13.6018 15.3892C13.6007 15.3696 13.6001 15.35 13.6001 15.3303C13.6001 13.9332 16.4448 12.8005 19.954 12.8005C23.4631 12.8005 26.3078 13.9332 26.3078 15.3303C26.3078 15.35 26.3072 15.3696 26.3061 15.3892L26.3078 15.3891L26.305 15.4059C26.2999 15.4758 26.2876 15.545 26.2685 15.6134L25.8445 18.0153L26.5378 18.7087ZM24.7078 17.0088C23.5438 17.531 21.8454 17.8601 19.954 17.8601C18.0626 17.8601 16.3642 17.5311 15.2002 17.0089L16.451 24.0963L16.6555 25.1815L16.6744 25.1962C16.7814 25.2764 16.9469 25.3668 17.1619 25.4539L17.2055 25.4713C17.8983 25.7422 18.8856 25.9062 19.954 25.9062C21.0285 25.9062 22.0208 25.7403 22.7137 25.4669C22.9634 25.3683 23.1496 25.2648 23.2588 25.1766L23.2677 25.1693L23.4685 24.0315C22.9635 23.8927 22.485 23.6283 22.0827 23.2387L22.0449 23.2015L19.4444 20.601C19.1917 20.3483 19.1917 19.9386 19.4444 19.6858C19.691 19.4393 20.087 19.4332 20.3409 19.6678L20.3597 19.6858L22.9601 22.2863C23.175 22.5011 23.4272 22.6548 23.6951 22.7473L24.7078 17.0088ZM25.5699 19.5712L25.0142 22.7203C25.2436 22.6294 25.4581 22.4915 25.6429 22.3067C26.3682 21.5814 26.3702 20.4 25.6489 19.6508L25.6226 19.6239L25.5699 19.5712ZM19.954 14.0948C18.4012 14.0948 16.9612 14.3373 15.9399 14.744C15.501 14.9187 15.1745 15.1112 14.9866 15.2881C14.9746 15.2993 14.9637 15.3101 14.9537 15.3202L14.9443 15.3302L14.9614 15.3481L14.9866 15.3726C15.1745 15.5495 15.501 15.7419 15.9399 15.9166C16.9612 16.3233 18.4012 16.5658 19.954 16.5658C21.5067 16.5658 22.9467 16.3233 23.968 15.9166C24.4069 15.7419 24.7334 15.5495 24.9213 15.3726C24.9333 15.3613 24.9443 15.3506 24.9542 15.3404L24.9637 15.3302L24.9465 15.3125L24.9213 15.2881C24.7334 15.1112 24.4069 14.9187 23.968 14.744C22.9467 14.3373 21.5067 14.0948 19.954 14.0948Z" fill="#56606D"/>
</svg>
