<svg width="40" height="40" viewBox="0 0 40 40" fill="none" xmlns="http://www.w3.org/2000/svg">
    <path fill-rule="evenodd" clip-rule="evenodd" d="M16.4423 0H23.3463C28.8835 0 31.0804 0.613729 33.2353 1.76618C35.3902 2.91864 37.0814 4.60982 38.2338 6.76472L38.3214 6.93062C39.4029 9.0068 39.9845 11.2001 40 16.4425V23.3465C40 28.8838 39.3862 31.0807 38.2338 33.2356C37.0814 35.3905 35.3902 37.0817 33.2353 38.2342L33.0694 38.3218C30.9933 39.4033 28.8 39.9849 23.5576 40.0004H16.6536C11.1165 40.0004 8.91953 39.3866 6.76465 38.2342C4.60977 37.0817 2.91861 35.3905 1.76617 33.2356L1.67858 33.0697C0.597073 30.9936 0.0154218 28.8003 0 23.5579V16.6538C0 11.1166 0.613723 8.91962 1.76617 6.76472C2.91861 4.60982 4.60977 2.91864 6.76465 1.76618L6.93055 1.6786C9.00671 0.597079 11.2 0.015422 16.4423 0Z" fill="#0218A7"/>
    <path d="M10.2479 20.4959C14.4471 20.4959 17.8513 17.0918 17.8513 12.8926C17.8513 8.69341 14.4471 5.28931 10.2479 5.28931C6.04867 5.28931 2.64453 8.69341 2.64453 12.8926C2.64453 17.0918 6.04867 20.4959 10.2479 20.4959Z" fill="#FFC600"/>
    <path d="M30.0826 29.4216C34.2818 29.4216 37.6859 26.0175 37.6859 21.8182C37.6859 17.619 34.2818 14.2148 30.0826 14.2148C25.8834 14.2148 22.4792 17.619 22.4792 21.8182C22.4792 26.0175 25.8834 29.4216 30.0826 29.4216Z" fill="#0149FF"/>
    <path fill-rule="evenodd" clip-rule="evenodd" d="M10.0826 3.30579C15.6512 3.30579 20.1654 7.74597 20.1654 13.2232C20.1654 18.7004 15.6512 23.1406 10.0826 23.1406C4.84971 23.1406 0.547868 19.2195 0.0483398 14.2015C0.124912 12.4452 0.291563 11.1091 0.543965 10.0017C1.90343 6.10583 5.66059 3.30579 10.0826 3.30579ZM10.0826 6.28101C6.14637 6.28101 2.97514 9.40025 2.97514 13.2232C2.97514 17.0462 6.14637 20.1654 10.0826 20.1654C14.0189 20.1654 17.1901 17.0462 17.1901 13.2232C17.1901 9.40025 14.0189 6.28101 10.0826 6.28101Z" fill="#FF458B"/>
    <path fill-rule="evenodd" clip-rule="evenodd" d="M20.1653 13.2231V28.4298L0.266601 28.43C0.096082 27.1472 0.00594658 25.5791 0 23.5577V16.6536C0 15.3355 0.0347771 14.2067 0.103319 13.2227L20.1653 13.2231Z" fill="#0149FF"/>
    <path fill-rule="evenodd" clip-rule="evenodd" d="M10.248 17.1901C11.3434 17.1901 12.2315 18.0192 12.2315 19.0421C12.2315 19.8163 11.7227 20.4795 11.0003 20.7563L11.0003 22.81H9.49558L9.49561 20.7563C8.77319 20.4795 8.2644 19.8163 8.2644 19.0421C8.2644 18.0192 9.15247 17.1901 10.248 17.1901Z" fill="#0218A7"/>
    <path d="M30.0826 11.901C35.5598 11.901 40 16.3411 40 21.8183C40 27.2955 35.5598 31.7356 30.0826 31.7356C24.6054 31.7356 20.1653 27.2955 20.1653 21.8183C20.1653 16.3411 24.6054 11.901 30.0826 11.901ZM30.0826 14.8762C26.2486 14.8762 23.1405 17.9843 23.1405 21.8183C23.1405 25.6523 26.2486 28.7604 30.0826 28.7604C33.9167 28.7604 37.0248 25.6523 37.0248 21.8183C37.0248 17.9843 33.9167 14.8762 30.0826 14.8762Z" fill="#FFC600"/>
    <path fill-rule="evenodd" clip-rule="evenodd" d="M40 21.8184V23.3465C40 28.8837 39.3863 31.0806 38.2338 33.2355C37.4345 34.7302 36.3759 36.0017 35.0833 37.0252L20.1653 37.025V21.8184H40Z" fill="#FF458B"/>
    <path fill-rule="evenodd" clip-rule="evenodd" d="M30.2479 25.785C31.2521 25.785 32.0662 26.6142 32.0662 27.637C32.0662 28.4112 31.5999 29.0743 30.9378 29.3511L30.9376 31.4049H29.5582L29.5581 29.3511C28.896 29.0743 28.4297 28.4112 28.4297 27.637C28.4297 26.6142 29.2437 25.785 30.2479 25.785Z" fill="#0218A7"/>
</svg>
