<svg width="14" height="14" viewBox="0 0 14 14" fill="none" xmlns="http://www.w3.org/2000/svg">
    <path d="M11.4547 2.54591C13.915 5.00621 13.915 8.99515 11.4547 11.4555C8.99442 13.9158 5.00548 13.9158 2.54518 11.4555C0.0848754 8.99515 0.0848754 5.00621 2.54518 2.54591C5.00548 0.0856078 8.99442 0.0856078 11.4547 2.54591ZM10.638 3.36262C8.62877 1.35337 5.37113 1.35337 3.36189 3.36262C1.35264 5.37187 1.35264 8.6295 3.36189 10.6387C5.37113 12.648 8.62877 12.648 10.638 10.6387C12.6473 8.6295 12.6473 5.37187 10.638 3.36262ZM8.90593 5.83673L8.89952 5.84347L7.7557 6.98725L8.86583 8.09737C9.09365 8.32519 9.09976 8.69263 8.87964 8.92789C8.66875 9.1533 8.31506 9.16507 8.08966 8.95418L8.08292 8.94777L6.939 7.80395L5.80162 8.94148C5.57609 9.16701 5.21044 9.16701 4.98491 8.94148C4.76488 8.72145 4.75952 8.36805 4.96881 8.14152L4.98491 8.12477L6.12229 6.98725L4.98491 5.84987C4.75938 5.62434 4.75938 5.25869 4.98491 5.03316C5.20494 4.81313 5.55834 4.80777 5.78487 5.01706L5.80162 5.03316L6.939 6.17054L8.04912 5.06056C8.27694 4.83274 8.64438 4.82663 8.87964 5.04675C9.10505 5.25764 9.11682 5.61133 8.90593 5.83673Z" fill="#929FB1"/>
</svg>
