<svg width="40" height="39" viewBox="0 0 40 39" fill="none" xmlns="http://www.w3.org/2000/svg">
    <path fill-rule="evenodd" clip-rule="evenodd" d="M16.4423 0H23.3463C28.8835 0 31.0805 0.59838 33.2353 1.72201C35.3902 2.84565 37.0814 4.49453 38.2338 6.59554L38.3214 6.75729C39.4029 8.78155 39.9846 10.92 40 16.0313V22.7627C40 28.1614 39.3863 30.3034 38.2338 32.4045C37.0814 34.5055 35.3902 36.1544 33.2353 37.278L33.0694 37.3634C30.9933 38.4179 28.8 38.985 23.5577 39H16.6537C11.1165 39 8.91954 38.4016 6.76466 37.278C4.60977 36.1544 2.91861 34.5055 1.76617 32.4045L1.67858 32.2427C0.597074 30.2185 0.0154219 28.08 0 22.9687V16.2373C0 10.8386 0.613723 8.69655 1.76617 6.59554C2.91861 4.49453 4.60977 2.84565 6.76466 1.72201L6.93055 1.63662C9.00672 0.582147 11.2 0.0150363 16.4423 0Z" fill="#0218A7"/>
    <path d="M23.3385 8.70239V9.98604L28.1034 14.2294C27.4033 14.2294 26.9884 14.4014 26.9484 15.0753L28.1034 19.5864L30.4132 24.3795C30.415 25.0632 25.6808 22.9324 26.371 22.9698L28.3921 26.0712L23.3267 28.662L23.33 29.9456L10.239 29.9751C8.81998 29.9785 7.66072 28.8836 7.60533 27.509L7.60327 27.4126V11.2697C7.60327 9.88404 8.72746 8.75478 10.1338 8.70416L10.2324 8.70239H23.3385Z" fill="#0149FF"/>
    <path d="M20.8872 23.1653L20.8838 29.9751H29.6509C31.3499 29.9751 32.7272 28.6201 32.7272 26.9486V11.7226C32.7213 10.0469 31.3391 8.69658 29.6401 8.70241L20.8954 8.73263L20.8872 15.6062L20.3078 15.3105C18.4184 14.3471 16.0975 14.8755 14.8304 16.5576C13.5996 18.1915 13.5693 20.4112 14.7417 22.0743L14.8277 22.1924L14.9005 22.287C16.181 23.9051 18.4586 24.4024 20.3196 23.4542L20.8872 23.1653Z" fill="#00E366"/>
</svg>
