<svg width="40" height="40" viewBox="0 0 40 40" fill="none" xmlns="http://www.w3.org/2000/svg">
    <path fill-rule="evenodd" clip-rule="evenodd" d="M16.4424 0H23.3464C28.8835 0 31.0805 0.613723 33.2354 1.76617C35.3903 2.91861 37.0814 4.60977 38.2339 6.76466L38.3215 6.93055C39.403 9.00672 39.9846 11.2 40 16.4423V23.3463C40 28.8835 39.3863 31.0805 38.2339 33.2353C37.0814 35.3902 35.3903 37.0814 33.2354 38.2338L33.0695 38.3214C30.9933 39.4029 28.8001 39.9846 23.5577 40H16.6537C11.1165 40 8.91955 39.3863 6.76466 38.2338C4.60978 37.0814 2.91861 35.3902 1.76617 33.2353L1.67858 33.0694C0.597074 30.9933 0.0154219 28.8 0 23.5577V16.6537C0 11.1165 0.613724 8.91954 1.76617 6.76466C2.91861 4.60977 4.60978 2.91861 6.76466 1.76617L6.93056 1.67858C9.00673 0.597074 11.2 0.0154219 16.4424 0Z" fill="#FF458B"/>
    <path d="M13.294 27.8653C17.0872 27.8653 19.3334 26.1473 19.3482 23.254C19.3334 20.8219 17.6896 19.3344 14.6848 18.6724L13.3758 18.3749C11.9924 18.0774 11.1147 17.6163 11.1445 16.7089C11.1519 15.8759 11.8659 15.2734 13.294 15.2734C14.7294 15.2734 15.5178 15.9205 15.6145 17.0064H19.14C19.1102 14.1578 16.8417 12.2314 13.3014 12.2314C9.82058 12.2314 7.31408 14.128 7.3364 16.9618C7.32896 19.2749 8.95037 20.5765 11.5833 21.1789L13.175 21.5508C14.8484 21.9376 15.5997 22.3913 15.6145 23.2466C15.5997 24.1763 14.7294 24.8234 13.2493 24.8234C11.6205 24.8234 10.5495 24.0647 10.4677 22.5995H6.9422C6.98683 26.1621 9.46357 27.8653 13.294 27.8653ZM26.9793 27.8802C30.5494 27.8802 33.0856 25.9911 33.0782 23.3433C33.0856 21.469 31.8584 20.1302 29.5081 19.855V19.736C31.2708 19.4831 32.5204 18.3006 32.5129 16.5899C32.5204 14.1057 30.2742 12.2314 27.0091 12.2314C23.7216 12.2314 21.3267 14.1355 21.2969 16.8428H24.8149C24.8447 15.8015 25.7818 15.1024 27.0091 15.1024C28.1768 15.1024 28.9726 15.8089 28.9652 16.8279C28.9726 17.884 28.0355 18.6129 26.6818 18.6129H25.2017V21.231H26.6818C28.2214 21.231 29.2255 21.9896 29.2106 23.0606C29.2255 24.1391 28.3032 24.8903 26.9942 24.8903C25.6926 24.8903 24.7331 24.1986 24.6959 23.1945H20.992C21.0217 25.9464 23.4985 27.8802 26.9793 27.8802Z" fill="white"/>
</svg>
