<svg width="40" height="40" viewBox="0 0 40 40" fill="none" xmlns="http://www.w3.org/2000/svg">
    <path fill-rule="evenodd" clip-rule="evenodd" d="M16.4423 0H23.3463C28.8835 0 31.0805 0.613725 33.2353 1.76617C35.3902 2.91862 37.0814 4.60979 38.2338 6.76468L38.3214 6.93058C39.4029 9.00675 39.9846 11.2 40 16.4424V23.3464C40 28.8836 39.3863 31.0806 38.2338 33.2355C37.0814 35.3903 35.3902 37.0815 33.2353 38.234L33.0694 38.3215C30.9933 39.4031 28.8 39.9847 23.5577 40.0001H16.6537C11.1165 40.0001 8.91954 39.3864 6.76466 38.234C4.60977 37.0815 2.91861 35.3903 1.76617 33.2355L1.67858 33.0696C0.597074 30.9934 0.0154219 28.8001 0 23.5577V16.6537C0 11.1165 0.613723 8.91957 1.76617 6.76468C2.91861 4.60979 4.60977 2.91862 6.76466 1.76617L6.93055 1.67859C9.00672 0.597076 11.2 0.0154219 16.4423 0Z" fill="#FF458B"/>
    <path fill-rule="evenodd" clip-rule="evenodd" d="M20.0354 35.3721L20.0354 6.28095L32.4675 10.457V18.7272C32.4675 26.4166 27.4087 33.1897 20.0354 35.3721Z" fill="#0218A7"/>
    <path fill-rule="evenodd" clip-rule="evenodd" d="M20.0354 35.3721C12.6621 33.1897 7.60328 26.4166 7.60328 18.7272L7.60328 10.457L20.0354 6.28095L20.0354 35.3721Z" fill="white"/>
</svg>
