<svg width="40" height="40" viewBox="0 0 40 40" fill="none" xmlns="http://www.w3.org/2000/svg">
    <circle cx="20" cy="20.0002" r="20" fill="#EBEEF1"/>
    <path d="M19.8738 12.8003C22.7959 12.8003 25.1702 15.1454 25.2174 18.0562L25.2181 18.1446L25.2182 19.282C25.4792 19.4677 25.69 19.7079 25.8444 19.9967L25.8777 20.0608C26.0505 20.4041 26.1438 20.7766 26.1477 21.6882V24.2896C26.1477 25.3017 26.0423 25.6687 25.8444 26.0387C25.6465 26.4088 25.3562 26.6991 24.9861 26.897L24.922 26.9303C24.5788 27.1031 24.2063 27.1964 23.2947 27.2002L16.5107 27.2003C15.4986 27.2003 15.1315 27.0949 14.7615 26.897C14.3915 26.6991 14.1011 26.4088 13.9032 26.0387L13.8804 25.9952C13.7009 25.6461 13.6039 25.2771 13.6 24.3473V21.7458C13.6 20.7337 13.7054 20.3667 13.9032 19.9967C14.0577 19.7079 14.2685 19.4677 14.5295 19.282L14.5295 18.1446C14.5295 15.193 16.9223 12.8003 19.8738 12.8003ZM23.237 20.1497L16.4584 20.1498L16.3249 20.1509C15.7468 20.1581 15.5676 20.198 15.3815 20.2976C15.2405 20.373 15.1378 20.4757 15.0624 20.6166L15.0415 20.6576C14.9572 20.8315 14.9215 21.0282 14.9154 21.5647L14.9145 21.7458L14.9146 24.3419L14.9157 24.4754C14.9229 25.0535 14.9629 25.2327 15.0624 25.4188C15.1378 25.5597 15.2405 25.6625 15.3815 25.7379L15.4224 25.7588C15.5963 25.8431 15.793 25.8788 16.3296 25.8848L16.5107 25.8858L23.3305 25.8855C23.9792 25.8822 24.1712 25.8421 24.3662 25.7379C24.5071 25.6625 24.6099 25.5597 24.6853 25.4188L24.7062 25.3779C24.7905 25.204 24.8262 25.0073 24.8322 24.4707L24.8332 24.2896L24.8329 21.6523C24.8296 21.0037 24.7895 20.8116 24.6853 20.6166C24.6099 20.4757 24.5071 20.373 24.3662 20.2976L24.3253 20.2767C24.1514 20.1923 23.9547 20.1566 23.4181 20.1506L23.237 20.1497ZM19.9933 21.5837C20.5873 21.5837 21.0689 22.0652 21.0689 22.6592C21.0689 23.0057 20.9051 23.3138 20.6507 23.5105L20.6506 23.914C20.6506 24.277 20.3563 24.5712 19.9933 24.5712C19.6303 24.5712 19.3361 24.277 19.3361 23.914L19.3361 23.5106C19.0817 23.3139 18.9178 23.0057 18.9178 22.6592C18.9178 22.0652 19.3993 21.5837 19.9933 21.5837ZM19.8738 14.1148C17.6705 14.1148 15.8802 15.8831 15.8446 18.0779L15.8441 18.1446L15.844 18.856C16.0167 18.8432 16.2167 18.8362 16.453 18.8353L23.237 18.8351C23.4986 18.8351 23.7172 18.8422 23.9038 18.8561L23.9036 18.1446C23.9036 15.919 22.0994 14.1148 19.8738 14.1148Z" fill="#56606D"/>
</svg>
