<svg width="40" height="40" viewBox="0 0 40 40" fill="none" xmlns="http://www.w3.org/2000/svg">
    <circle cx="20" cy="20.0005" r="20" fill="#EBEEF1"/>
    <path d="M23.6298 12.8005C23.9825 12.8005 24.27 13.0795 24.2838 13.4288L24.2843 13.4551L24.2845 13.951C24.7134 14.034 25.0125 14.157 25.3127 14.3176C25.9139 14.6392 26.3858 15.111 26.7073 15.7122L26.7349 15.7645L26.7754 15.8444C27.0529 16.4062 27.2 17.03 27.2 18.5543V22.1864C27.2 23.8309 27.0288 24.4272 26.7073 25.0284C26.3858 25.6296 25.9139 26.1015 25.3127 26.423L25.2604 26.4506L25.1805 26.4911C24.6187 26.7687 23.9949 26.9158 22.4706 26.9158H17.5295C15.8849 26.9158 15.2886 26.7445 14.6874 26.423C14.0862 26.1015 13.6143 25.6296 13.2928 25.0284L13.2644 24.9745L13.2239 24.8947C12.9512 24.342 12.8047 23.7287 12.8 22.2572V18.5543C12.8 16.9098 12.9713 16.3134 13.2928 15.7122C13.6143 15.111 14.0862 14.6392 14.6874 14.3176L14.7413 14.2892C15.0376 14.1353 15.3404 14.018 15.7752 13.9398L15.7753 13.4551C15.7753 13.0936 16.0683 12.8005 16.4298 12.8005C16.7825 12.8005 17.07 13.0795 17.0838 13.4288L17.0843 13.4551L17.0843 13.8295L17.2293 13.8268C17.3034 13.8258 17.3798 13.8251 17.4586 13.8249H22.4706C22.6511 13.8249 22.8189 13.8269 22.9755 13.831L22.9753 13.4551C22.9753 13.0936 23.2683 12.8005 23.6298 12.8005ZM25.8908 19.0612H14.109L14.1091 22.2532L14.1099 22.3779C14.1192 23.5366 14.2091 23.9659 14.4472 24.4111C14.6467 24.7841 14.9317 25.0691 15.3048 25.2686L15.3515 25.2931L15.3992 25.3169C15.814 25.5188 16.2642 25.5981 17.3404 25.606L17.5295 25.6067H22.4706C23.7724 25.6067 24.2277 25.5188 24.6953 25.2686C25.0684 25.0691 25.3534 24.7841 25.5529 24.4111L25.5774 24.3643L25.6012 24.3166C25.803 23.9018 25.8824 23.4516 25.8903 22.3754L25.891 22.1864L25.8908 19.0612ZM22.4707 15.1339H17.4626L17.3379 15.1347C17.2492 15.1354 17.1647 15.1366 17.0842 15.1383L17.0843 15.9798C17.0843 16.3413 16.7913 16.6343 16.4298 16.6343C16.0771 16.6343 15.7896 16.3554 15.7758 16.0061L15.7753 15.9798L15.7753 15.28C15.6015 15.329 15.454 15.3922 15.3048 15.472C14.9317 15.6715 14.6467 15.9565 14.4472 16.3296L14.4227 16.3763C14.2487 16.7164 14.1591 17.065 14.1253 17.7521H25.8748C25.8395 17.0335 25.7431 16.6851 25.5529 16.3296C25.3534 15.9565 25.0684 15.6715 24.6953 15.472L24.6486 15.4475C24.5326 15.3881 24.4155 15.3386 24.2844 15.2977L24.2843 15.9798C24.2843 16.3413 23.9913 16.6343 23.6298 16.6343C23.2771 16.6343 22.9896 16.3554 22.9758 16.0061L22.9753 15.9798L22.9754 15.1395C22.8765 15.137 22.7715 15.1354 22.6597 15.1346L22.4707 15.1339Z" fill="#56606D"/>
</svg>
