<svg width="16" height="16" viewBox="0 0 16 16" fill="none" xmlns="http://www.w3.org/2000/svg">
    <path d="M8.00005 15.2C4.0236 15.2 0.800049 11.9764 0.800049 7.99999C0.800049 4.02354 4.0236 0.799988 8.00005 0.799988C11.9765 0.799988 15.2 4.02354 15.2 7.99999C15.2 11.9764 11.9765 15.2 8.00005 15.2ZM8.00005 13.88C11.2475 13.88 13.88 11.2474 13.88 7.99999C13.88 4.75255 11.2475 2.11999 8.00005 2.11999C4.75261 2.11999 2.12005 4.75255 2.12005 7.99999C2.12005 11.2474 4.75261 13.88 8.00005 13.88ZM7.40005 10.4596V8.34319C7.40005 7.97868 7.69554 7.68319 8.06005 7.68319C8.41567 7.68319 8.70559 7.96444 8.71952 8.31664L8.72005 8.34319V10.4157C8.72005 10.7839 8.42805 11.0858 8.06005 11.098C7.70747 11.1098 7.41213 10.8334 7.4004 10.4809C7.40017 10.4738 7.40005 10.4667 7.40005 10.4596ZM7.40005 5.53962V5.46319C7.40005 5.09868 7.69554 4.80319 8.06005 4.80319C8.41567 4.80319 8.70559 5.08444 8.71952 5.43664L8.72005 5.46319V5.4957C8.72005 5.86391 8.42805 6.16578 8.06005 6.17803C7.70747 6.18976 7.41213 5.91345 7.4004 5.56086C7.40017 5.55379 7.40005 5.5467 7.40005 5.53962Z" fill="#929FB1"/>
</svg>
