<svg width="17" height="16" viewBox="0 0 17 16" fill="none" xmlns="http://www.w3.org/2000/svg">
    <path d="M13.0583 3.20015C13.7772 3.20383 14.1541 3.27994 14.5459 3.48949C14.9171 3.68802 15.212 3.98295 15.4106 4.35418C15.6255 4.75604 15.7 5.14213 15.7 5.89774V10.5946C15.6962 11.3136 15.6201 11.6904 15.4106 12.0822C15.212 12.4534 14.9171 12.7484 14.5459 12.9469C14.1641 13.1511 13.7966 13.2286 13.1129 13.2358L13.0023 13.2364H3.99777C3.24216 13.2364 2.85608 13.1618 2.45422 12.9469C2.08299 12.7484 1.78806 12.4534 1.58952 12.0822C1.38535 11.7004 1.30786 11.3329 1.30062 10.6493L1.30005 10.5387V5.89774C1.30005 5.14213 1.3746 4.75604 1.58952 4.35418C1.78806 3.98295 2.08299 3.68802 2.45422 3.48949C2.85608 3.27457 3.24216 3.20001 3.99777 3.20001L13.0583 3.20015ZM7.8455 4.40001L3.95319 4.40009C3.44287 4.40197 3.24162 4.43706 3.05329 4.53055L3.02013 4.54766C2.85803 4.63436 2.73439 4.75799 2.6477 4.9201C2.53846 5.12435 2.50005 5.32328 2.50005 5.89774V10.5832C2.50201 11.0944 2.53721 11.2954 2.63104 11.484L2.6477 11.5163C2.73439 11.6784 2.85803 11.802 3.02013 11.8887C3.22439 11.998 3.42332 12.0364 3.99777 12.0364H7.8455V4.40001ZM13.0469 4.40009L9.0455 4.40001V12.0363L13.0469 12.0363C13.5426 12.0345 13.7466 12.0013 13.9305 11.9138L13.9477 11.9054L13.98 11.8887C14.1421 11.802 14.2657 11.6784 14.3524 11.5163C14.4616 11.312 14.5 11.1131 14.5 10.5387L14.5 5.85316C14.4981 5.34283 14.463 5.14158 14.3695 4.95326L14.3524 4.9201C14.2657 4.75799 14.1421 4.63436 13.98 4.54766L13.9623 4.53841L13.9477 4.531C13.9322 4.52328 13.9166 4.51596 13.9007 4.50901C13.8992 4.50835 13.8976 4.50765 13.896 4.50696L13.9007 4.50901C13.8964 4.50713 13.8921 4.50528 13.8878 4.50346L13.896 4.50696C13.889 4.50393 13.8819 4.50097 13.8747 4.49808L13.8878 4.50346C13.8816 4.50084 13.8753 4.49827 13.869 4.49577L13.8747 4.49808C13.871 4.49656 13.8672 4.49506 13.8634 4.49358L13.869 4.49577C13.8571 4.49106 13.845 4.48655 13.8327 4.48223C13.8306 4.48151 13.8285 4.48078 13.8264 4.48007L13.8327 4.48223C13.8253 4.47964 13.8178 4.47712 13.8102 4.47467C13.7868 4.46713 13.7624 4.46024 13.7366 4.45397C13.7331 4.45311 13.7295 4.45227 13.7259 4.45143L13.7366 4.45397C13.7289 4.45209 13.721 4.45027 13.713 4.4485L13.7259 4.45143C13.719 4.44982 13.712 4.44824 13.7048 4.44671L13.713 4.4485C13.7058 4.4469 13.6984 4.44534 13.6909 4.44382L13.7048 4.44671C13.6983 4.44531 13.6917 4.44395 13.685 4.44262L13.6909 4.44382C13.6693 4.43944 13.6467 4.43543 13.6229 4.43177C13.6184 4.43109 13.614 4.43042 13.6094 4.42976L13.6229 4.43177C13.6154 4.43062 13.6078 4.42951 13.6001 4.42843L13.6094 4.42976C13.5886 4.42673 13.5669 4.42396 13.5441 4.42143C13.5364 4.42058 13.5285 4.41974 13.5205 4.41894C13.5094 4.41782 13.4981 4.41676 13.4866 4.41576C13.4723 4.41451 13.4576 4.41335 13.4425 4.41226C13.438 4.41193 13.4334 4.41161 13.4288 4.4113L13.4425 4.41226C13.4316 4.41147 13.4204 4.41072 13.409 4.41001L13.4288 4.4113C13.4186 4.4106 13.4081 4.40994 13.3974 4.40931L13.409 4.41001C13.3993 4.40941 13.3895 4.40884 13.3795 4.40829L13.3974 4.40931C13.3727 4.40785 13.347 4.40658 13.3201 4.40548C13.3191 4.40544 13.318 4.40539 13.3168 4.40535L13.3201 4.40548C13.3097 4.40505 13.2992 4.40465 13.2885 4.40428L13.3168 4.40535C13.2777 4.40377 13.2362 4.40256 13.192 4.4017C13.1723 4.40131 13.1522 4.401 13.1315 4.40075L13.0469 4.40009ZM6.10005 9.58183C6.43142 9.58183 6.70005 9.85046 6.70005 10.1818C6.70005 10.5051 6.44436 10.7687 6.12418 10.7814L6.10005 10.7818H4.13641C3.80504 10.7818 3.53641 10.5132 3.53641 10.1818C3.53641 9.85854 3.7921 9.59497 4.11228 9.58231L4.13641 9.58183H6.10005ZM12.1546 9.58183C12.486 9.58183 12.7546 9.85046 12.7546 10.1818C12.7546 10.5051 12.4989 10.7687 12.1787 10.7814L12.1546 10.7818H10.7364C10.405 10.7818 10.1364 10.5132 10.1364 10.1818C10.1364 9.85854 10.3921 9.59497 10.7123 9.58231L10.7364 9.58183H12.1546ZM6.10005 7.61819C6.43142 7.61819 6.70005 7.88682 6.70005 8.21819C6.70005 8.54148 6.44436 8.80505 6.12418 8.81772L6.10005 8.81819H4.13641C3.80504 8.81819 3.53641 8.54957 3.53641 8.21819C3.53641 7.89491 3.7921 7.63134 4.11228 7.61867L4.13641 7.61819H6.10005ZM12.7 7.61819C13.0314 7.61819 13.3 7.88682 13.3 8.21819C13.3 8.54148 13.0444 8.80505 12.7242 8.81772L12.7 8.81819H10.7364C10.405 8.81819 10.1364 8.54957 10.1364 8.21819C10.1364 7.89491 10.3921 7.63134 10.7123 7.61867L10.7364 7.61819H12.7ZM6.10005 5.65456C6.43142 5.65456 6.70005 5.92319 6.70005 6.25456C6.70005 6.57785 6.44436 6.84142 6.12418 6.85408L6.10005 6.85456H4.13641C3.80504 6.85456 3.53641 6.58593 3.53641 6.25456C3.53641 5.93127 3.7921 5.6677 4.11228 5.65503L4.13641 5.65456H6.10005ZM12.7 5.65456C13.0314 5.65456 13.3 5.92319 13.3 6.25456C13.3 6.57785 13.0444 6.84142 12.7242 6.85408L12.7 6.85456H10.7364C10.405 6.85456 10.1364 6.58593 10.1364 6.25456C10.1364 5.93127 10.3921 5.6677 10.7123 5.65503L10.7364 5.65456H12.7Z" fill="#56606D"/>
</svg>
