<svg width="40" height="40" viewBox="0 0 40 40" fill="none" xmlns="http://www.w3.org/2000/svg">
    <circle cx="20" cy="20" r="20" fill="#EBEEF1"/>
    <path d="M20 12.8C23.9765 12.8 27.2 16.0236 27.2 20C27.2 23.9765 23.9765 27.2 20 27.2C16.0236 27.2 12.8 23.9765 12.8 20C12.8 16.0236 16.0236 12.8 20 12.8ZM20.5952 14.1388L20.5951 20.0596L20.5952 20.064C20.5945 20.1825 20.5616 20.3022 20.4936 20.4097C20.4882 20.4182 20.4826 20.4266 20.4769 20.4348C20.4751 20.4373 20.4733 20.4398 20.4715 20.4424C20.4671 20.4484 20.4627 20.4543 20.4583 20.4601C20.4571 20.4616 20.456 20.463 20.4549 20.4644C20.4499 20.4708 20.4448 20.4771 20.4395 20.4833C20.4383 20.4847 20.437 20.4861 20.4357 20.4876C20.4136 20.5134 20.3898 20.5369 20.3646 20.5584L16.034 24.3559C17.0807 25.3095 18.4725 25.891 20 25.891C23.2535 25.891 25.891 23.2535 25.891 20C25.891 16.9475 23.5691 14.4372 20.5952 14.1388ZM14.1091 20C14.1091 21.2545 14.5012 22.4173 15.1695 23.3727L18.8508 20.1444L14.6666 17.4954C14.309 18.2555 14.1091 19.1044 14.1091 20ZM15.3523 16.3801L19.286 18.8704L19.2861 14.152C17.691 14.3447 16.2923 15.1748 15.3523 16.3801Z" fill="#56606D"/>
</svg>
