<svg width="32" height="32" viewBox="0 0 32 32" fill="none" xmlns="http://www.w3.org/2000/svg">
    <path d="M16.0001 1.6001C23.9529 1.6001 30.4 8.0472 30.4 16.0001C30.4 23.953 23.9529 30.4001 16.0001 30.4001C8.04718 30.4001 1.6001 23.953 1.6001 16.0001C1.6001 8.0472 8.04718 1.6001 16.0001 1.6001ZM16.0001 4.2401C9.5052 4.2401 4.24009 9.50523 4.24009 16.0001C4.24009 22.495 9.5052 27.7601 16.0001 27.7601C22.4949 27.7601 27.76 22.495 27.76 16.0001C27.76 9.50523 22.4949 4.2401 16.0001 4.2401ZM17.2 9.40083V16.9937C17.2 17.7227 16.6091 18.3137 15.8801 18.3137C15.1688 18.3137 14.589 17.7512 14.5611 17.0468L14.5601 16.9937V9.48867C14.5601 8.75225 15.144 8.14851 15.8801 8.12402C16.5852 8.10055 17.1759 8.65318 17.1993 9.35835C17.1998 9.3725 17.2 9.38666 17.2 9.40083ZM17.2 22.1208V22.2737C17.2 23.0027 16.6091 23.5937 15.8801 23.5937C15.1688 23.5937 14.589 23.0312 14.5611 22.3268L14.5601 22.2737V22.2087C14.5601 21.4722 15.144 20.8685 15.8801 20.844C16.5852 20.8206 17.1759 21.3732 17.1993 22.0783C17.1998 22.0925 17.2 22.1067 17.2 22.1208Z" fill="#FF8A00"/>
</svg>
