<svg width="40" height="40" viewBox="0 0 40 40" fill="none" xmlns="http://www.w3.org/2000/svg">
    <path fill-rule="evenodd" clip-rule="evenodd" d="M16.4423 0H23.3463C28.8835 0 31.0805 0.605571 33.2353 1.74271C35.3902 2.87984 37.0814 4.54855 38.2338 6.67481L38.3214 6.8385C39.4029 8.88709 39.9846 11.0512 40 16.2239V23.0362C40 28.4999 39.3863 30.6676 38.2338 32.7939C37.0814 34.9202 35.3902 36.5889 33.2353 37.726L33.0694 37.8124C30.9933 38.8796 28.8 39.4535 23.5577 39.4687H16.6537C11.1165 39.4687 8.91954 38.8631 6.76466 37.726C4.60977 36.5889 2.91861 34.9202 1.76617 32.7939L1.67858 32.6302C0.597074 30.5816 0.0154219 28.4175 0 23.2448V16.4325C0 10.9688 0.613723 8.80107 1.76617 6.67481C2.91861 4.54855 4.60977 2.87984 6.76466 1.74271L6.93055 1.65629C9.00672 0.589143 11.2 0.015217 16.4423 0Z" fill="#0218A7"/>
    <path fill-rule="evenodd" clip-rule="evenodd" d="M9.63173 16.8101C10.6488 15.8065 12.2979 15.8065 13.315 16.8101L19.7348 23.1446C20.7519 24.1482 20.7519 25.7754 19.7348 26.779C18.7177 27.7826 17.0686 27.7826 16.0515 26.779L9.63173 20.4445C8.61462 19.4409 8.61462 17.8137 9.63173 16.8101Z" fill="#FF458B"/>
    <path fill-rule="evenodd" clip-rule="evenodd" d="M30.5392 12.7261C31.5563 13.7297 31.5563 15.3569 30.5392 16.3605L19.7348 27.0213C18.7177 28.0249 17.0686 28.0249 16.0515 27.0213C15.0344 26.0177 15.0344 24.3905 16.0515 23.3869L26.8559 12.7261C27.873 11.7225 29.5221 11.7225 30.5392 12.7261Z" fill="#00E366"/>
    <path fill-rule="evenodd" clip-rule="evenodd" d="M18.0243 21.4391L19.8642 23.1789C20.9528 24.2531 20.9528 25.9946 19.8642 27.0687C18.7756 28.1429 17.0106 28.1429 15.922 27.0687L15.3451 26.5003C14.8906 25.4906 15.083 24.2662 15.922 23.4383L18.0243 21.4391Z" fill="#FFC600"/>
</svg>
