<svg width="40" height="40" viewBox="0 0 40 40" fill="none" xmlns="http://www.w3.org/2000/svg">
    <circle cx="20" cy="20.0002" r="20" fill="#EBEEF1"/>
    <path d="M21.248 12.8003C21.9053 12.8003 22.4381 13.3331 22.4381 13.9903L22.4381 14.1844C22.4381 14.6258 22.7958 14.9835 23.2372 14.9835C23.3774 14.9836 23.5152 14.9466 23.6367 14.8765L23.8048 14.7794C24.374 14.4508 25.1019 14.6459 25.4305 15.2151L26.8586 17.6886C27.1815 18.2478 26.9989 18.9601 26.4526 19.2966L26.423 19.3143L26.2549 19.4113C25.8917 19.621 25.7672 20.0854 25.9769 20.4487C26.0436 20.5641 26.1395 20.66 26.2549 20.7267L26.3635 20.7894C26.9327 21.118 27.1277 21.8458 26.7991 22.4151L25.4305 24.7855C25.1077 25.3448 24.3995 25.5428 23.8349 25.238L23.8048 25.2211L23.6367 25.124C23.2545 24.9034 22.7658 25.0343 22.5451 25.4165C22.475 25.538 22.4381 25.6758 22.4381 25.8161L22.4381 26.0102C22.4381 26.6563 21.9232 27.1822 21.2813 27.1999L21.248 27.2003H18.3918C17.7346 27.2003 17.2017 26.6675 17.2017 26.0102L17.2017 25.9192C17.2017 25.5107 16.8705 25.1796 16.4621 25.1796C16.3322 25.1796 16.2047 25.2138 16.0923 25.2787L16.0135 25.3242C15.4543 25.6471 14.742 25.4645 14.4055 24.9182L14.3878 24.8886L12.9597 22.4151C12.6311 21.8458 12.8261 21.118 13.3953 20.7893L13.5635 20.6923C13.9457 20.4716 14.0766 19.9829 13.8559 19.6007C13.7858 19.4792 13.6849 19.3783 13.5634 19.3082L13.3954 19.2112C12.8361 18.8884 12.638 18.1802 12.9428 17.6157L12.9597 17.5855L14.3283 15.2151C14.657 14.6459 15.3848 14.4508 15.954 14.7794L16.0625 14.8421C16.4258 15.0518 16.8902 14.9273 17.1 14.5641C17.1666 14.4486 17.2017 14.3177 17.2017 14.1844L17.2017 13.9904C17.2017 13.3331 17.7346 12.8003 18.3918 12.8003H21.248ZM18.5109 14.1093L18.5108 14.1844C18.5108 14.5475 18.4152 14.9042 18.2337 15.2186C17.6693 16.1962 16.4274 16.5388 15.4434 15.9958L15.4026 15.9726L14.153 18.1369L14.2179 18.1744C14.5224 18.3502 14.7778 18.5992 14.9612 18.8984L14.9896 18.9461C15.5649 19.9425 15.2343 21.2135 14.2533 21.8051L14.218 21.826L14.153 21.8635L15.4622 24.1312L15.4872 24.1173C15.7697 23.9645 16.0842 23.8802 16.4053 23.8713L16.462 23.8705C17.5675 23.8705 18.4685 24.746 18.5093 25.8415L18.5106 25.8912H21.1291L21.129 25.8161C21.129 25.4645 21.2169 25.1188 21.3843 24.8103L21.4114 24.7619C21.9868 23.7655 23.2528 23.4164 24.2556 23.9702L24.2913 23.9904L24.3563 24.0278L25.6059 21.8635L25.6004 21.8604C25.3016 21.6879 25.051 21.4436 24.871 21.15L24.8432 21.1032C24.2788 20.1256 24.6031 18.8788 25.5654 18.2982L25.6004 18.2775L25.6654 18.24L24.3563 15.9726L24.2913 16.0102C23.9868 16.186 23.6435 16.2827 23.2926 16.2919L23.2371 16.2926C22.0859 16.2926 21.1502 15.3698 21.1293 14.2234L21.129 14.1842L21.1291 14.1094L18.5109 14.1093ZM19.9217 16.7276C21.7292 16.7276 23.1944 18.1928 23.1944 20.0003C23.1944 21.8078 21.7292 23.273 19.9217 23.273C18.1142 23.273 16.649 21.8078 16.649 20.0003C16.649 18.1928 18.1142 16.7276 19.9217 16.7276ZM19.9217 18.0367C18.8372 18.0367 17.9581 18.9158 17.9581 20.0003C17.9581 21.0848 18.8372 21.9639 19.9217 21.9639C21.0062 21.9639 21.8854 21.0848 21.8854 20.0003C21.8854 18.9158 21.0062 18.0367 19.9217 18.0367Z" fill="#56606D"/>
</svg>
