<svg width="40" height="40" viewBox="0 0 40 40" fill="none" xmlns="http://www.w3.org/2000/svg">
    <circle cx="20" cy="20" r="20" fill="#EBEEF1"/>
    <path d="M20.0099 12.8L21.5815 13.9002C22.8592 14.7945 24.3766 15.2816 25.9348 15.2988L26.0198 15.2992V21.0188C26.0198 23.1183 24.793 25.0242 22.882 25.8935L20.0099 27.2L17.1378 25.8935C15.2268 25.0242 14 23.1183 14 21.0188V15.2992C15.5502 15.2992 17.0638 14.8285 18.3406 13.9494L20.0099 12.8ZM19.3554 14.8401L19.083 15.0277C17.9679 15.7954 16.6986 16.2971 15.3724 16.5026L15.3091 16.5122V21.0188C15.3091 22.5871 16.2151 24.0123 17.6309 24.6792L17.6799 24.7019L19.3554 25.4642V14.8401ZM20.6645 14.8562V25.4641L22.3399 24.7019C23.7674 24.0525 24.6896 22.6377 24.7104 21.0729L24.7107 21.0188V16.5132L24.6345 16.5016C23.3023 16.2952 22.0277 15.7929 20.907 15.0254L20.8308 14.9726L20.6645 14.8562Z" fill="#56606D"/>
</svg>
