<svg width="30" height="30" viewBox="0 0 30 30" fill="none" xmlns="http://www.w3.org/2000/svg">
<path d="M15 0.600006C22.9529 0.600006 29.4 7.04711 29.4 15C29.4 22.9529 22.9529 29.4 15 29.4C7.04711 29.4 0.600006 22.9529 0.600006 15C0.600006 7.04711 7.04711 0.600006 15 0.600006ZM15 3.24001C8.50514 3.24001 3.24001 8.50514 3.24001 15C3.24001 21.4949 8.50514 26.76 15 26.76C21.4949 26.76 26.76 21.4949 26.76 15C26.76 8.50514 21.4949 3.24001 15 3.24001ZM16.2 8.40074V15.9936C16.2 16.7226 15.609 17.3136 14.88 17.3136C14.1688 17.3136 13.5889 16.7511 13.5611 16.0467L13.56 15.9936V8.48858C13.56 7.75216 14.144 7.14842 14.88 7.12393C15.5852 7.10046 16.1758 7.65309 16.1993 8.35825C16.1998 8.37241 16.2 8.38657 16.2 8.40074ZM16.2 21.1207V21.2736C16.2 22.0026 15.609 22.5936 14.88 22.5936C14.1688 22.5936 13.5889 22.0311 13.5611 21.3267L13.56 21.2736V21.2086C13.56 20.4722 14.144 19.8684 14.88 19.8439C15.5852 19.8205 16.1758 20.3731 16.1993 21.0783C16.1998 21.0924 16.2 21.1066 16.2 21.1207Z" fill="#FF8A00"/>
</svg>
