<svg width="40" height="40" viewBox="0 0 40 40" fill="none" xmlns="http://www.w3.org/2000/svg">
<path fill-rule="evenodd" clip-rule="evenodd" d="M34.4714 32C37.4486 32 39.8621 29.5865 39.8621 26.6094V25.4941C39.8621 22.5169 37.4486 20.1034 34.4714 20.1034L31.9243 20.1036C31.7154 13.9359 26.6496 9 20.431 9C15.6237 9 11.5053 11.9498 9.78712 16.138L8.93103 16.1379C4.55084 16.1379 1 19.6888 1 24.069C1 28.4492 4.55084 32 8.93103 32H34.4714Z" fill="#C8D3DE"/>
<path d="M20.431 28.8275C25.0302 28.8275 28.7586 25.0991 28.7586 20.5C28.7586 15.9008 25.0302 12.1724 20.431 12.1724C15.8318 12.1724 12.1035 15.9008 12.1035 20.5C12.1035 25.0991 15.8318 28.8275 20.431 28.8275Z" fill="white"/>
<path fill-rule="evenodd" clip-rule="evenodd" d="M20.431 21.6896C21.5261 21.6896 22.4138 22.5773 22.4138 23.6723C22.4138 24.7674 21.5261 25.6551 20.431 25.6551C19.336 25.6551 18.4483 24.7674 18.4483 23.6723C18.4483 22.5773 19.336 21.6896 20.431 21.6896ZM20.431 14.5516C21.3808 14.5516 22.1507 15.3215 22.1507 16.2713C22.1507 16.3526 22.1449 16.4339 22.1334 16.5145L21.6207 20.1034H19.2414L18.7287 16.5145C18.5944 15.5743 19.2477 14.7032 20.1878 14.5689C20.2684 14.5574 20.3497 14.5516 20.431 14.5516Z" fill="#FF458B"/>
</svg>