<svg width="32" height="32" viewBox="0 0 32 32" fill="none" xmlns="http://www.w3.org/2000/svg">
	<path class="icon-path" d="M16 30.4C8.04711 30.4 1.60001 23.9529 1.60001 16C1.60001 8.04711 8.04711 1.60001 16 1.60001C23.9529 1.60001 30.4 8.04711 30.4 16C30.4 23.9529 23.9529 30.4 16 30.4ZM16 27.76C22.4949 27.76 27.76 22.4949 27.76 16C27.76 9.50514 22.4949 4.24001 16 4.24001C9.50514 4.24001 4.24001 9.50514 4.24001 16C4.24001 22.4949 9.50514 27.76 16 27.76ZM14.8 20.9193V16.6864C14.8 15.9574 15.391 15.3664 16.12 15.3664C16.8312 15.3664 17.4111 15.9289 17.439 16.6333L17.44 16.6864V20.8314C17.44 21.5679 16.856 22.1716 16.12 22.1961C15.4148 22.2195 14.8242 21.6669 14.8007 20.9618C14.8002 20.9476 14.8 20.9334 14.8 20.9193ZM14.8 11.0793V10.9264C14.8 10.1974 15.391 9.60641 16.12 9.60641C16.8312 9.60641 17.4111 10.1689 17.439 10.8733L17.44 10.9264V10.9914C17.44 11.7279 16.856 12.3316 16.12 12.3561C15.4148 12.3795 14.8242 11.8269 14.8007 11.1218C14.8002 11.1076 14.8 11.0934 14.8 11.0793Z"/>
</svg>
