<svg width="40" height="40" viewBox="0 0 40 40" fill="none" xmlns="http://www.w3.org/2000/svg">
    <rect width="40" height="40" rx="10" fill="#2683FF"/>
    <path d="M22.2259 19.2681C21.598 18.9212 20.9305 18.6568 20.2696 18.3825C19.8863 18.2239 19.5195 18.0388 19.1956 17.7811C18.5578 17.2722 18.6801 16.4461 19.4269 16.1189C19.6384 16.0264 19.8598 15.9966 20.0845 15.9834C20.9503 15.9372 21.7732 16.0958 22.5563 16.4725C22.9463 16.6609 23.0751 16.6014 23.2073 16.1949C23.3461 15.7653 23.4618 15.3291 23.5906 14.8962C23.6766 14.6054 23.5708 14.4138 23.2965 14.2915C22.7943 14.0701 22.2787 13.9115 21.7368 13.8256C21.0296 13.7165 21.0296 13.7132 21.0263 13.0027C21.023 12.0015 21.023 12.0015 20.0184 12.0015C19.873 12.0015 19.7276 11.9982 19.5823 12.0015C19.113 12.0147 19.0337 12.0973 19.0205 12.5698C19.0139 12.7813 19.0205 12.9928 19.0172 13.2076C19.0139 13.8355 19.0106 13.8256 18.4091 14.0437C16.9552 14.5724 16.0563 15.5638 15.9605 17.1499C15.8746 18.5543 16.6082 19.5027 17.7615 20.1934C18.4719 20.6197 19.2584 20.8708 20.0118 21.2046C20.3059 21.3335 20.5868 21.4822 20.8314 21.687C21.5551 22.2852 21.4229 23.2798 20.5637 23.6565C20.1044 23.8581 19.6186 23.9077 19.1196 23.8449C18.3497 23.7491 17.6128 23.5475 16.9188 23.1873C16.5123 22.9758 16.3934 23.032 16.2546 23.4715C16.1356 23.8515 16.0299 24.2348 15.9241 24.6182C15.782 25.1337 15.8349 25.2559 16.3273 25.4972C16.9551 25.8012 17.626 25.9565 18.31 26.0655C18.8453 26.1515 18.8619 26.1746 18.8685 26.7298C18.8718 26.9809 18.8718 27.2353 18.8751 27.4865C18.8784 27.8037 19.0304 27.9888 19.3575 27.9954C19.7276 28.002 20.1011 28.002 20.4712 27.9921C20.7752 27.9855 20.9305 27.8202 20.9305 27.5129C20.9305 27.1693 20.947 26.8223 20.9338 26.4786C20.9173 26.1283 21.0693 25.9499 21.4064 25.8574C22.1829 25.6459 22.8438 25.2295 23.3527 24.6082C24.7671 22.8899 24.2284 20.3751 22.2259 19.2681Z" fill="white"/>
</svg>