<svg width="40" height="40" viewBox="0 0 40 40" fill="none" xmlns="http://www.w3.org/2000/svg">
    <rect width="40" height="40" rx="10" fill="#95D486"/>
    <path d="M27.7625 17.0601C28.348 16.4741 28.3475 15.5243 27.7614 14.9388C27.1753 14.3533 26.2256 14.3538 25.6401 14.9399L27.7625 17.0601ZM17.7003 25.01L16.6396 26.0707C16.921 26.3521 17.3027 26.5101 17.7007 26.51C18.0986 26.5099 18.4802 26.3517 18.7615 26.0701L17.7003 25.01ZM16.0607 21.249C15.4749 20.6633 14.5251 20.6633 13.9393 21.249C13.3536 21.8348 13.3536 22.7846 13.9393 23.3704L16.0607 21.249ZM25.6401 14.9399L16.6391 23.9499L18.7615 26.0701L27.7625 17.0601L25.6401 14.9399ZM18.761 23.9493L16.0607 21.249L13.9393 23.3704L16.6396 26.0707L18.761 23.9493Z" fill="white"/>
</svg>