<svg width="36" height="34" viewBox="0 0 36 34" fill="none" xmlns="http://www.w3.org/2000/svg">
    <path d="M35.028 27.9606C34.5358 27.0512 34.0405 26.1403 33.5467 25.2262C32.628 23.5309 31.7108 21.8356 30.7936 20.1402C29.6921 18.109 28.5936 16.0746 27.4936 14.0434C26.4311 12.0825 25.3717 10.1247 24.3093 8.16544C23.528 6.7248 22.7499 5.28264 21.9686 3.84064C21.7577 3.45002 21.5467 3.0594 21.3358 2.67188C21.1171 2.26564 20.8858 1.875 20.5546 1.54376C19.3983 0.379681 17.4796 0.156241 16.089 1.03596C15.4921 1.41408 15.0609 1.95004 14.7296 2.56408C14.2218 3.5016 13.714 4.43908 13.2062 5.37972C12.2812 7.09064 11.3546 8.8016 10.4296 10.5125C9.31555 12.5547 8.21087 14.6017 7.10151 16.6485C6.05151 18.5892 4.99995 20.5266 3.94839 22.4689C3.17963 23.8908 2.40931 25.3096 1.63903 26.7313C1.4359 27.1063 1.23279 27.4813 1.02967 27.8563C0.745289 28.3844 0.521865 28.9188 0.451545 29.5282C0.253109 31.2501 1.45935 32.947 3.12655 33.3688C3.56719 33.4813 4.00155 33.486 4.44687 33.486H31.9469H31.9906C32.8969 33.4673 33.7563 33.1267 34.4203 32.5095C35.0609 31.9157 35.4359 31.1032 35.5422 30.2438C35.6437 29.4345 35.4094 28.6688 35.0281 27.961L35.028 27.9606ZM16.4372 10.9526C16.4372 10.0776 17.1528 9.42916 17.9997 9.39012C18.8434 9.35106 19.5621 10.137 19.5621 10.9526V21.9558C19.5621 22.8308 18.8465 23.4792 17.9997 23.5183C17.1559 23.5573 16.4372 22.7714 16.4372 21.9558V10.9526ZM17.9997 28.8402C17.1215 28.8402 16.409 28.1293 16.409 27.2496C16.409 26.3714 17.1199 25.6589 17.9997 25.6589C18.8778 25.6589 19.5903 26.3698 19.5903 27.2496C19.5903 28.1277 18.8778 28.8402 17.9997 28.8402Z" fill="#F4D638"/>
</svg>