<svg width="14" height="14" viewBox="0 0 14 14" fill="none" xmlns="http://www.w3.org/2000/svg">
    <path d="M1.17423 8.83244C0.634669 8.29287 0.634669 7.41807 1.17423 6.8785C1.7138 6.33894 2.5886 6.33894 3.12817 6.8785L6.38473 10.1351C6.92429 10.6746 6.92429 11.5494 6.38473 12.089C5.84516 12.6286 4.97036 12.6286 4.43079 12.089L1.17423 8.83244Z" fill="#2683FF"/>
    <path d="M6.38473 12.089C5.84516 12.6286 4.97036 12.6286 4.43079 12.089C3.89123 11.5494 3.89123 10.6746 4.43079 10.1351L10.2926 4.27325C10.8322 3.73369 11.707 3.73369 12.2465 4.27325C12.7861 4.81282 12.7861 5.68762 12.2465 6.22719L6.38473 12.089Z" fill="#2683FF"/>
</svg>
