<svg width="20" height="13" viewBox="0 0 20 13" fill="none" xmlns="http://www.w3.org/2000/svg">
    <path class="community-svg-path" d="M13.6765 3.63971C13.6765 1.62955 12.0469 0 10.0368 0C10.0245 0 10.0122 6.05864e-05 10 0.000181759C9.98776 6.05864e-05 9.9755 0 9.96324 0C7.95308 0 6.32353 1.62955 6.32353 3.63971C6.32353 4.98758 7.0562 6.16432 8.145 6.79341C6.72107 7.46304 5.73529 8.91052 5.73529 10.5882V12.1324H14.2647V10.5882C14.2647 8.91052 13.2789 7.46305 11.855 6.79342C12.9438 6.16433 13.6765 4.98758 13.6765 3.63971Z" fill="#5B5C5E"/>
    <path class="community-svg-path" d="M6.17664 0.51958C5.62898 0.189734 4.98738 0 4.30147 0C2.29132 0 0.661765 1.62955 0.661765 3.63971C0.661765 4.97413 1.37988 6.14082 2.45092 6.77431C1.00483 7.43522 0 8.89438 0 10.5882V12.1324H4.41177V10.5882C4.41177 9.072 5.02955 7.66786 6.06128 6.65394L6.07985 6.63596L6.0486 6.5949C5.44573 5.78186 5.094 4.78793 5.0744 3.73295L5.07353 3.63971C5.07353 2.45764 5.48676 1.37208 6.17664 0.51958Z" fill="#5B5C5E"/>
    <path class="community-svg-path" d="M13.8234 0.51958C14.371 0.189734 15.0126 0 15.6985 0C17.7087 0 19.3382 1.62955 19.3382 3.63971C19.3382 4.97413 18.6201 6.14082 17.5491 6.77431C18.9952 7.43522 20 8.89438 20 10.5882V12.1324H15.5882V10.5882C15.5882 9.072 14.9705 7.66786 13.9387 6.65394L13.9201 6.63596L13.9514 6.5949C14.5543 5.78186 14.906 4.78793 14.9256 3.73295L14.9265 3.63971C14.9265 2.45764 14.5132 1.37208 13.8234 0.51958Z" fill="#5B5C5E"/>
</svg>
