<svg width="20" height="13" viewBox="0 0 20 13" fill="none" xmlns="http://www.w3.org/2000/svg">
    <path class="docs-svg-path" fill-rule="evenodd" clip-rule="evenodd" d="M0 1C0 0.447715 0.447715 0 1 0H9.41177V13H1C0.447715 13 0 12.5523 0 12V1ZM8.23534 2.36358H1.17651V3.54539H8.23534V2.36358ZM4.70593 4.72734H1.17651V5.90915H4.70593V4.72734ZM1.17651 7.09091H4.70593V8.27273H1.17651V7.09091ZM8.23534 10.6364V9.45462H1.17651V10.6364H8.23534ZM10.5882 0H19C19.5523 0 20 0.447715 20 1V12C20 12.5523 19.5523 13 19 13H10.5882V0ZM18.8236 2.36358H11.7647V3.54539H18.8236V2.36358ZM18.8236 4.72734H11.7647V5.90915H18.8236V4.72734ZM11.7647 7.09091H18.8236V8.27273H11.7647V7.09091ZM15.2941 9.45462H11.7647V10.6364H15.2941V9.45462Z" fill="#5B5C5E"/>
</svg>
