<svg width="140" height="20" viewBox="0 0 140 20" fill="none" xmlns="http://www.w3.org/2000/svg">
    <path d="M133.726 10.7867C133.726 12.3652 134.664 13.1369 135.782 13.1369C136.863 13.1369 137.909 12.3652 137.909 10.7867C137.909 9.2082 136.899 8.43648 135.818 8.43648C134.736 8.43648 133.726 9.2082 133.726 10.7867ZM140 10.7867C140 13.2773 138.125 14.8909 135.746 14.8909C133.402 14.8909 131.599 13.2773 131.599 10.7867C131.599 8.29617 133.438 6.68258 135.782 6.68258C138.125 6.68258 140 8.29617 140 10.7867ZM129.111 5.91086C128.39 5.91086 127.85 5.38469 127.85 4.75328C127.85 4.12187 128.39 3.5957 129.111 3.5957C129.833 3.5957 130.373 4.12187 130.373 4.75328C130.373 5.38469 129.833 5.91086 129.111 5.91086ZM128.066 14.7505V6.85797H130.121V14.7856H128.066V14.7505ZM126.407 13.6982C126.407 14.3647 125.867 14.8558 125.145 14.8558C124.388 14.8558 123.884 14.3296 123.884 13.6982C123.884 13.0317 124.424 12.5406 125.145 12.5406C125.903 12.5055 126.407 13.0317 126.407 13.6982ZM122.55 12.26C122.117 13.7333 120.747 14.8909 118.728 14.8909C116.348 14.8909 114.654 13.2773 114.654 10.7867C114.654 8.29617 116.312 6.68258 118.728 6.68258C121.071 6.68258 122.73 8.22601 122.73 10.6113C122.73 10.8569 122.73 11.1375 122.658 11.383H116.709C116.817 12.5406 117.646 13.2071 118.656 13.2071C119.521 13.2071 120.026 12.7862 120.278 12.26H122.55ZM118.692 8.36632C117.718 8.36632 116.925 8.99773 116.781 10.0501H120.639C120.603 8.99773 119.773 8.36632 118.692 8.36632ZM111.12 10.7867C111.12 9.27835 110.075 8.47156 108.957 8.47156C107.839 8.47156 106.83 9.27835 106.83 10.7867C106.83 12.2951 107.875 13.1369 108.957 13.1369C110.111 13.1369 111.12 12.2951 111.12 10.7867ZM104.739 10.7867C104.739 8.33125 106.397 6.71765 108.452 6.71765C109.534 6.71765 110.543 7.20875 111.12 7.94539V4.19203H113.211V14.7856H111.12V13.628C110.652 14.3647 109.714 14.9259 108.452 14.9259C106.361 14.8909 104.739 13.2422 104.739 10.7867ZM101.169 10.7867C101.169 9.27835 100.124 8.47156 99.0059 8.47156C97.8882 8.47156 96.8787 9.27835 96.8787 10.7867C96.8787 12.2951 97.9242 13.1369 99.0059 13.1369C100.16 13.1369 101.169 12.2951 101.169 10.7867ZM94.7875 10.7867C94.7875 8.33125 96.446 6.71765 98.5011 6.71765C99.7991 6.71765 100.7 7.31398 101.205 7.98046V6.85797H103.26V14.7856H101.205V13.628C100.737 14.3296 99.7991 14.9259 98.5011 14.9259C96.41 14.8909 94.7875 13.2422 94.7875 10.7867ZM91.4344 10.8218V14.7505H89.3793V6.85797H91.4344V8.0857C91.9392 7.2789 92.8045 6.75273 93.9222 6.75273V8.85742H93.3814C92.1555 8.82234 91.4344 9.27836 91.4344 10.8218ZM85.3051 10.7867C85.3051 9.27835 84.2596 8.47156 83.1419 8.47156C82.0242 8.47156 81.0146 9.27835 81.0146 10.7867C81.0146 12.2951 82.0602 13.1369 83.1419 13.1369C84.2596 13.1369 85.3051 12.2951 85.3051 10.7867ZM78.8874 10.7867C78.8874 8.33125 80.5459 6.71765 82.601 6.71765C83.8629 6.71765 84.8004 7.2789 85.3051 7.98046V6.85797H87.3602V14.8207C87.3602 16.9605 86.0262 18.6793 83.3221 18.6793C81.0146 18.6793 79.4282 17.5568 79.2119 15.7327H81.267C81.4833 16.4343 82.2405 16.9254 83.25 16.9254C84.3677 16.9254 85.2691 16.294 85.2691 14.8207V13.593C84.8004 14.2945 83.8629 14.8909 82.565 14.8909C80.5459 14.8909 78.8874 13.2422 78.8874 10.7867ZM76.3996 5.91086C75.6785 5.91086 75.1377 5.38469 75.1377 4.75328C75.1377 4.12187 75.6785 3.5957 76.3996 3.5957C77.1207 3.5957 77.6616 4.12187 77.6616 4.75328C77.6616 5.38469 77.1207 5.91086 76.3996 5.91086ZM75.3541 14.7505V6.85797H77.4092V14.7856H75.3541V14.7505ZM71.2799 10.7867C71.2799 9.27835 70.2343 8.47156 69.1166 8.47156C67.9989 8.47156 66.9894 9.27835 66.9894 10.7867C66.9894 12.2951 68.035 13.1369 69.1166 13.1369C70.2343 13.1369 71.2799 12.2951 71.2799 10.7867ZM64.8622 10.7867C64.8622 8.33125 66.5207 6.71765 68.5758 6.71765C69.6574 6.71765 70.667 7.20875 71.2438 7.94539V4.19203H73.335V14.7856H71.2438V13.628C70.7751 14.3647 69.8377 14.9259 68.5758 14.9259C66.5207 14.8909 64.8622 13.2422 64.8622 10.7867ZM61.5452 10.8218V14.7505H59.49V6.85797H61.5452V8.0857C62.0499 7.2789 62.9152 6.75273 64.0329 6.75273V8.85742H63.4921C62.2662 8.82234 61.5452 9.27836 61.5452 10.8218ZM55.3798 10.7867C55.3798 9.27835 54.3342 8.47156 53.2165 8.47156C52.0988 8.47156 51.0893 9.27835 51.0893 10.7867C51.0893 12.2951 52.1349 13.1369 53.2165 13.1369C54.3703 13.1369 55.3798 12.2951 55.3798 10.7867ZM48.9981 10.7867C48.9981 8.33125 50.6567 6.71765 52.7118 6.71765C54.0097 6.71765 54.9111 7.31398 55.4159 7.98046V6.85797H57.471V14.7856H55.4159V13.628C54.9472 14.3296 54.0097 14.9259 52.7118 14.9259C50.6206 14.8909 48.9981 13.2422 48.9981 10.7867ZM44.1668 12.2951V8.47156H43.1934V6.82289H44.1668V4.85851H46.2219V6.82289H48.0607V8.47156H46.2219V12.2951C46.2219 12.8212 46.4383 13.0668 47.0873 13.0668H48.0247V14.7505H46.7267C45.2124 14.7505 44.1668 14.1191 44.1668 12.2951Z" fill="black"/>
    <path d="M32.6655 11.5056V7.85749V7.61195V3.96383L27.1852 1.7539V13.7155L32.6655 11.5056Z" fill="#2683FF"/>
    <path d="M25.8511 18.0652V1.22773L25.4185 1.05234C23.796 0.385859 22.1015 0.0350781 20.3708 0V16.3815C20.3708 16.7323 20.5872 17.083 20.9117 17.2233L24.445 18.9071C24.5892 18.9773 24.7335 19.0123 24.8777 19.0123C25.4185 19.0123 25.8511 18.5914 25.8511 18.0652Z" fill="#2683FF"/>
    <path d="M14.1334 1.22773L13.5926 1.47328H13.5565V16.4165C13.5565 16.7673 13.7729 17.1181 14.0973 17.2584L17.6668 18.9071C17.811 18.9773 17.9552 19.0123 18.0994 19.0123C18.6402 19.0123 19.0729 18.5914 19.0729 18.0652V0.0350781C17.3783 0.140312 15.7198 0.526172 14.1334 1.22773Z" fill="#2683FF"/>
    <path d="M12.2946 18.0652V2.06961L6.77826 4.49V16.4165C6.77826 16.7673 6.99459 17.1181 7.31908 17.2584L10.8885 18.9071C11.0327 18.9773 11.1769 19.0123 11.3211 19.0123C11.862 19.0123 12.2946 18.5914 12.2946 18.0652Z" fill="#2683FF"/>
    <path d="M5.4803 18.0301V5.05125L0 7.50671V16.3815C0 16.7323 0.216328 17.083 0.504764 17.2233L4.07417 18.872C4.21839 18.9422 4.36261 18.9773 4.50682 18.9773C5.04764 18.9773 5.4803 18.5563 5.4803 18.0301Z" fill="#2683FF"/>
</svg>
