<svg width="40" height="40" viewBox="0 0 40 40" fill="none" xmlns="http://www.w3.org/2000/svg">
    <rect width="40" height="40" rx="20" fill="#F5F6FA"/>
    <path d="M14.4015 13.2402C14.8097 13.6484 15.2211 14.0598 15.6292 14.468L18.5784 17.4171C19.7631 18.6018 20.9477 19.7864 22.1363 20.975L25.2198 24.0585C25.7199 24.5586 26.2302 25.0458 26.7175 25.5562C26.7239 25.5626 26.7303 25.5691 26.7374 25.5761C27.0434 25.8821 27.0633 26.4381 26.7374 26.7409C26.4083 27.0436 25.8979 27.0668 25.5727 26.7409C25.1645 26.3327 24.7531 25.9213 24.3449 25.5131L21.3957 22.564C20.2111 21.3793 19.0265 20.1947 17.8379 19.0061L14.7544 15.9226C14.2543 15.4225 13.7439 14.9353 13.2567 14.4249C13.2503 14.4185 13.2438 14.412 13.2368 14.405C12.9308 14.099 12.9108 13.543 13.2368 13.2402C13.5659 12.9375 14.0756 12.9143 14.4015 13.2402Z" fill="#2B3543"/>
    <path d="M26.7362 14.4018C26.328 14.8099 25.9166 15.2213 25.5085 15.6295L22.5593 18.5787C21.3746 19.7634 20.19 20.948 19.0014 22.1366L15.918 25.22C15.4179 25.7201 14.9306 26.2305 14.4202 26.7177C14.4138 26.7242 14.4074 26.7306 14.4003 26.7377C14.0943 27.0437 13.5383 27.0636 13.2356 26.7377C12.9328 26.4086 12.9097 25.8982 13.2356 25.5729C13.6437 25.1647 14.0551 24.7534 14.4633 24.3452L17.4125 21.396C18.5972 20.2113 19.7818 19.0267 20.9704 17.8381L24.0538 14.7547C24.5539 14.2546 25.0412 13.7442 25.5515 13.2569C25.558 13.2505 25.5644 13.2441 25.5715 13.237C25.8774 12.931 26.4335 12.9111 26.7362 13.237C27.039 13.5661 27.0621 14.0759 26.7362 14.4018Z" fill="#2B3543"/>
</svg>
