<svg width="15" height="13" viewBox="0 0 15 13" fill="none" xmlns="http://www.w3.org/2000/svg">
    <path d="M14.0928 3.02746C14.6603 2.4239 14.631 1.4746 14.0275 0.907152C13.4239 0.339699 12.4746 0.368972 11.9072 0.972536L14.0928 3.02746ZM4.53846 11L3.44613 12.028C3.72968 12.3293 4.12509 12.5001 4.53884 12.5C4.95258 12.4999 5.34791 12.3289 5.63131 12.0275L4.53846 11ZM3.09234 7.27469C2.52458 6.67141 1.57527 6.64261 0.971991 7.21036C0.36871 7.77812 0.339911 8.72743 0.907664 9.33071L3.09234 7.27469ZM11.9072 0.972536L3.44561 9.97254L5.63131 12.0275L14.0928 3.02746L11.9072 0.972536ZM5.6308 9.97199L3.09234 7.27469L0.907664 9.33071L3.44613 12.028L5.6308 9.97199Z" fill="#2683FF"/>
</svg>
