<svg width="19" height="20" viewBox="0 0 19 20" fill="none" xmlns="http://www.w3.org/2000/svg">
    <path class="settings-svg-path" d="M18.4987 12.5738L17.7603 12.0675C17.0852 11.6034 16.7266 10.8228 16.7266 10.0211C16.7266 10.0211 16.7266 10.0211 16.7266 10C16.7266 9.9789 16.7266 10 16.7266 9.9789C16.7266 9.15612 17.0852 8.39662 17.7603 7.93249L18.4987 7.42616C18.9418 7.1308 19.0684 6.54008 18.7941 6.09705L17.5072 3.88186C17.254 3.41772 16.6844 3.24894 16.1992 3.48101L15.3975 3.86076C14.6802 4.19831 13.8574 4.17722 13.1823 3.77637C13.1401 3.75527 13.0768 3.71308 13.0346 3.69198C12.3384 3.31224 11.8954 2.59494 11.8321 1.81435L11.7688 0.92827C11.7266 0.400844 11.2836 0 10.7772 0H8.18229C7.65486 0 7.21182 0.400844 7.19073 0.92827L7.12744 1.81435C7.06415 2.59494 6.62111 3.31224 5.92491 3.69198C5.88271 3.71308 5.81942 3.75527 5.77723 3.77637C5.10212 4.17722 4.25824 4.19831 3.56204 3.86076L2.73925 3.45992C2.27512 3.22785 1.7055 3.41772 1.43123 3.86076L0.144315 6.09705C-0.108849 6.56118 0.0177328 7.1308 0.439674 7.42616L1.17807 7.93249C1.85318 8.39662 2.21183 9.17722 2.21183 9.9789C2.21183 9.9789 2.21183 9.9789 2.21183 10C2.21183 10 2.21183 10 2.21183 10.0211C2.21183 10.8439 1.85318 11.6034 1.17807 12.0675L0.439674 12.5738C-0.00336422 12.8692 -0.129946 13.4599 0.144315 13.903L1.43123 16.1181C1.6844 16.5823 2.25402 16.7511 2.73925 16.519L3.54094 16.1392C4.25824 15.8017 5.08102 15.8228 5.75613 16.2236C5.79832 16.2447 5.86161 16.2869 5.90381 16.308C6.60001 16.6878 7.04305 17.4051 7.10634 18.1857L7.16963 19.0717C7.21182 19.5992 7.65486 20 8.16119 20H10.735C11.2625 20 11.7055 19.5992 11.7266 19.0717L11.7899 18.1857C11.8532 17.4051 12.2962 16.6878 12.9924 16.308C13.0346 16.2869 13.0979 16.2447 13.1401 16.2236C13.8152 15.8228 14.6591 15.8017 15.3553 16.1392L16.157 16.519C16.6211 16.7511 17.1907 16.5612 17.465 16.1181L18.7519 13.8819C19.0473 13.4388 18.9207 12.8692 18.4987 12.5738ZM9.46921 13.7553C7.4017 13.7553 5.71394 12.0675 5.71394 10C5.71394 7.93249 7.4017 6.24473 9.46921 6.24473C11.5367 6.24473 13.2245 7.93249 13.2245 10C13.2245 12.0675 11.5367 13.7553 9.46921 13.7553Z" fill="#768394"/>
</svg>
