<svg width="40" height="40" viewBox="0 0 40 40" fill="none" xmlns="http://www.w3.org/2000/svg">
    <rect class="edit-svg__rect" width="40" height="40" rx="4" fill="#E2ECF7"/>
    <path class="edit-svg__path" d="M19.0901 21.4605C19.3416 21.7259 19.6695 21.8576 19.9995 21.8576C20.3295 21.8576 20.6574 21.7259 20.9089 21.4605L28.6228 13.3181C29.1257 12.7871 29.1257 11.9291 28.6228 11.3982C28.1198 10.8673 27.3069 10.8673 26.8039 11.3982L19.0901 19.5406C18.5891 20.0715 18.5891 20.9295 19.0901 21.4605ZM27.7134 19.1435C27.0031 19.1435 26.4277 19.7509 26.4277 20.5005V27.2859H13.5713V13.7152H19.9995C20.7097 13.7152 21.2851 13.1078 21.2851 12.3581C21.2851 11.6085 20.7097 11.0011 19.9995 11.0011H13.5713C12.1508 11.0011 11 12.2158 11 13.7152V27.2859C11 28.7852 12.1508 30 13.5713 30H26.4277C27.8482 30 28.999 28.7852 28.999 27.2859V20.5005C28.999 19.7509 28.4236 19.1435 27.7134 19.1435Z" fill="#2683FF"/>
</svg>
