<svg width="40" height="41" viewBox="0 0 40 41" fill="none" xmlns="http://www.w3.org/2000/svg">
    <path fill-rule="evenodd" clip-rule="evenodd" d="M16.4423 0.980896H23.3463C28.8835 0.980896 31.0805 1.59462 33.2353 2.74706C35.3902 3.89951 37.0814 5.59067 38.2338 7.74555L38.3214 7.91145C39.4029 9.98761 39.9846 12.1809 40 17.4232V24.3272C40 29.8644 39.3863 32.0614 38.2338 34.2162C37.0814 36.3711 35.3902 38.0623 33.2353 39.2147L33.0694 39.3023C30.9933 40.3838 28.8 40.9655 23.5577 40.9809H16.6537C11.1165 40.9809 8.91954 40.3672 6.76466 39.2147C4.60977 38.0623 2.91861 36.3711 1.76617 34.2162L1.67858 34.0503C0.597074 31.9742 0.0154219 29.7809 0 24.5386V17.6346C0 12.0974 0.613723 9.90043 1.76617 7.74555C2.91861 5.59067 4.60977 3.89951 6.76466 2.74706L6.93055 2.65948C9.00672 1.57797 11.2 0.996318 16.4423 0.980896Z" fill="#EBEEF1"/>
    <path d="M27.3984 16.3476C27.7859 16.3476 28.1 16.6617 28.1 17.0492C28.1 17.4272 27.801 17.7354 27.4266 17.7502L27.3984 17.7508H25.951L24.8665 26.6073C24.7099 27.8868 23.6233 28.8484 22.3343 28.8484H17.7705C16.4912 28.8484 15.4097 27.9009 15.2415 26.6327L14.0633 17.7508H12.6016C12.2141 17.7508 11.9 17.4367 11.9 17.0492C11.9 16.6712 12.199 16.363 12.5734 16.3482L12.6016 16.3476H27.3984ZM24.5374 17.7508H15.4788L16.6325 26.4482C16.7067 27.0077 17.1759 27.4285 17.7368 27.4448L17.7705 27.4453H22.3343C22.903 27.4453 23.3841 27.0293 23.4692 26.4705L23.4738 26.4368L24.5374 17.7508ZM18.9426 20.2398L18.9472 20.2681L18.9506 20.2962L19.3971 24.7618C19.4357 25.1474 19.1544 25.4912 18.7688 25.5297C18.3927 25.5673 18.0563 25.3005 18.0043 24.9295L18.0009 24.9014L17.5544 20.4358C17.5158 20.0502 17.7971 19.7064 18.1826 19.6679C18.5491 19.6312 18.8779 19.8836 18.9426 20.2398ZM22.0724 19.6681C22.4486 19.7058 22.7255 20.0339 22.703 20.4079L22.7007 20.436L22.2545 24.8984C22.2159 25.2839 21.8721 25.5652 21.4866 25.5266C21.1104 25.489 20.8335 25.1609 20.856 24.7869L20.8583 24.7587L21.3045 20.2964C21.3431 19.9109 21.6869 19.6296 22.0724 19.6681ZM22.2961 13.35C22.6835 13.35 22.9976 13.6641 22.9976 14.0516C22.9976 14.4296 22.6987 14.7378 22.3243 14.7526L22.2961 14.7531H17.7039C17.3165 14.7531 17.0024 14.439 17.0024 14.0516C17.0024 13.6735 17.3013 13.3653 17.6757 13.3505L17.7039 13.35H22.2961Z" fill="#56606D"/>
</svg>
