<svg width="40" height="41" viewBox="0 0 40 41" fill="none" xmlns="http://www.w3.org/2000/svg">
    <path fill-rule="evenodd" clip-rule="evenodd" d="M16.4423 0.980896H23.3463C28.8835 0.980896 31.0805 1.59462 33.2353 2.74706C35.3902 3.89951 37.0814 5.59067 38.2338 7.74555L38.3214 7.91145C39.4029 9.98761 39.9846 12.1809 40 17.4232V24.3272C40 29.8644 39.3863 32.0614 38.2338 34.2162C37.0814 36.3711 35.3902 38.0623 33.2353 39.2147L33.0694 39.3023C30.9933 40.3838 28.8 40.9655 23.5577 40.9809H16.6537C11.1165 40.9809 8.91954 40.3672 6.76466 39.2147C4.60977 38.0623 2.91861 36.3711 1.76617 34.2162L1.67858 34.0503C0.597074 31.9742 0.0154219 29.7809 0 24.5386V17.6346C0 12.0974 0.613723 9.90043 1.76617 7.74555C2.91861 5.59067 4.60977 3.89951 6.76466 2.74706L6.93055 2.65948C9.00672 1.57797 11.2 0.996318 16.4423 0.980896Z" fill="#EBEEF1"/>
    <path d="M11.8999 22.2749L11.9005 22.0499C11.9122 20.1774 12.1115 19.2084 12.6338 18.2231C12.8856 17.7478 13.1999 17.3225 13.5721 16.9535C13.8578 16.6703 14.319 16.6723 14.6022 16.958C14.8854 17.2436 14.8834 17.7048 14.5977 17.988C14.3307 18.2527 14.1044 18.559 13.9209 18.9053C13.5138 19.6732 13.3614 20.4337 13.3567 22.1486L13.3566 22.2727L13.3576 22.4354C13.3712 23.9799 13.516 24.7231 13.8719 25.4277L13.9209 25.5222C14.277 26.1943 14.795 26.7169 15.4601 27.0758L15.5335 27.1146C16.2682 27.4949 17.0241 27.6386 18.6655 27.6432L21.2833 27.6433L21.5226 27.6415C22.9718 27.6239 23.6929 27.482 24.3665 27.1434L24.4385 27.1064L24.496 27.0758C25.161 26.7169 25.679 26.1943 26.0352 25.5222C26.4423 24.7543 26.5947 23.9938 26.5993 22.2789L26.5995 22.1548L26.5985 21.9921C26.5849 20.4476 26.4401 19.7043 26.0842 18.9998L26.0352 18.9053C25.8776 18.6078 25.6883 18.3398 25.4689 18.1024C25.1959 17.807 25.214 17.3462 25.5094 17.0732C25.8048 16.8001 26.2656 16.8183 26.5386 17.1137C26.8223 17.4205 27.0685 17.7625 27.2767 18.139L27.3241 18.2265L27.3582 18.2915C27.8372 19.2195 28.0316 20.159 28.0541 21.8834L28.0562 22.1526L28.0556 22.3776C28.0438 24.2501 27.8446 25.2191 27.3223 26.2044C26.8444 27.1061 26.1445 27.8234 25.2567 28.3198L25.1843 28.3596L25.1198 28.394L25.026 28.4423C24.1181 28.8995 23.1737 29.0823 21.465 29.0989L21.2854 29.1H18.7483L18.5658 29.0994C16.7092 29.0874 15.7466 28.8857 14.7683 28.3578C13.8737 27.875 13.1629 27.1688 12.6713 26.274L12.632 26.201L12.5979 26.1359C12.0945 25.1608 11.9054 24.1729 11.8999 22.2749ZM16.6617 15.9437L16.682 15.9226L19.4912 13.1134C19.7687 12.8359 20.2145 12.8291 20.5002 13.0931L20.5213 13.1134L23.3305 15.9226C23.615 16.207 23.615 16.6682 23.3305 16.9526C23.053 17.2301 22.6073 17.2369 22.3216 16.9729L22.3005 16.9526L20.7103 15.3624V23.5915C20.7103 23.9938 20.3842 24.3199 19.9819 24.3199C19.5895 24.3199 19.2695 24.0095 19.2542 23.6208L19.2536 23.5915V15.4109L17.7121 16.9526C17.4346 17.2301 16.9888 17.2369 16.7031 16.9729L16.682 16.9526C16.4045 16.6751 16.3977 16.2294 16.6617 15.9437Z" fill="#56606D"/>
</svg>
