<svg width="40" height="41" viewBox="0 0 40 41" fill="none" xmlns="http://www.w3.org/2000/svg">
    <path fill-rule="evenodd" clip-rule="evenodd" d="M16.4423 0.980896H23.3463C28.8835 0.980896 31.0805 1.59462 33.2353 2.74706C35.3902 3.89951 37.0814 5.59067 38.2338 7.74555L38.3214 7.91145C39.4029 9.98761 39.9846 12.1809 40 17.4232V24.3272C40 29.8644 39.3863 32.0614 38.2338 34.2162C37.0814 36.3711 35.3902 38.0623 33.2353 39.2147L33.0694 39.3023C30.9933 40.3838 28.8 40.9655 23.5577 40.9809H16.6537C11.1165 40.9809 8.91954 40.3672 6.76466 39.2147C4.60977 38.0623 2.91861 36.3711 1.76617 34.2162L1.67858 34.0503C0.597074 31.9742 0.0154219 29.7809 0 24.5386V17.6346C0 12.0974 0.613723 9.90043 1.76617 7.74555C2.91861 5.59067 4.60977 3.89951 6.76466 2.74706L6.93055 2.65948C9.00672 1.57797 11.2 0.996318 16.4423 0.980896Z" fill="#EBEEF1"/>
    <path d="M22.9572 26.786C23.5963 26.786 24.1144 26.2679 24.1144 25.6288C24.1144 24.9898 23.5963 24.4717 22.9572 24.4717C22.3181 24.4717 21.8 24.9898 21.8 25.6288C21.8 26.2679 22.3181 26.786 22.9572 26.786Z" fill="#56606D"/>
    <path d="M27.4566 25.3271C27.0991 24.4164 26.4822 23.6306 25.6823 23.0671C24.8825 22.5036 23.9349 22.1872 22.957 22.1571C21.979 22.1872 21.0314 22.5036 20.2316 23.0671C19.4318 23.6306 18.8149 24.4164 18.4574 25.3271L18.3284 25.6286L18.4574 25.93C18.8149 26.8407 19.4318 27.6266 20.2316 28.19C21.0314 28.7535 21.979 29.0699 22.957 29.1C23.9349 29.0699 24.8825 28.7535 25.6823 28.19C26.4822 27.6266 27.0991 26.8407 27.4566 25.93L27.5856 25.6286L27.4566 25.3271ZM22.957 27.9429C22.4992 27.9429 22.0518 27.8071 21.6712 27.5528C21.2906 27.2985 20.994 26.9371 20.8188 26.5142C20.6437 26.0913 20.5978 25.626 20.6871 25.1771C20.7764 24.7281 20.9969 24.3158 21.3205 23.9921C21.6442 23.6684 22.0565 23.448 22.5055 23.3587C22.9544 23.2694 23.4197 23.3153 23.8426 23.4904C24.2655 23.6656 24.6269 23.9622 24.8812 24.3428C25.1355 24.7234 25.2713 25.1708 25.2713 25.6286C25.2705 26.2421 25.0264 26.8303 24.5926 27.2642C24.1587 27.698 23.5705 27.9421 22.957 27.9429Z" fill="#56606D"/>
    <path d="M17.1714 27.9432H14.8571V14.0574H19.4857V17.5288C19.4866 17.8354 19.6088 18.1292 19.8256 18.346C20.0424 18.5629 20.3362 18.6851 20.6429 18.686H24.1143V21.0003H25.2715V17.5288C25.2735 17.4528 25.259 17.3772 25.2291 17.3073C25.1991 17.2374 25.1544 17.1748 25.0979 17.1238L21.0479 13.0738C20.9969 13.0173 20.9343 12.9725 20.8644 12.9425C20.7945 12.9126 20.7189 12.8981 20.6429 12.9002H14.8571C14.5505 12.9011 14.2567 13.0233 14.0399 13.2402C13.8231 13.457 13.7009 13.7508 13.7 14.0574V27.9432C13.7009 28.2498 13.8231 28.5436 14.0399 28.7604C14.2567 28.9772 14.5505 29.0994 14.8571 29.1003H17.1714V27.9432ZM20.6429 14.2888L23.8829 17.5288H20.6429V14.2888Z" fill="#56606D"/>
</svg>
