<svg width="40" height="41" viewBox="0 0 40 41" fill="none" xmlns="http://www.w3.org/2000/svg">
    <path fill-rule="evenodd" clip-rule="evenodd" d="M16.4423 0.980865H23.3463C28.8835 0.980865 31.0805 1.59459 33.2353 2.74703C35.3902 3.89948 37.0814 5.59064 38.2338 7.74552L38.3214 7.91142C39.4029 9.98758 39.9846 12.1808 40 17.4232V24.3272C40 29.8644 39.3863 32.0613 38.2338 34.2162C37.0814 36.3711 35.3902 38.0623 33.2353 39.2147L33.0694 39.3023C30.9933 40.3838 28.8 40.9654 23.5577 40.9809H16.6537C11.1165 40.9809 8.91954 40.3671 6.76466 39.2147C4.60977 38.0623 2.91861 36.3711 1.76617 34.2162L1.67858 34.0503C0.597074 31.9741 0.0154219 29.7809 0 24.5385V17.6345C0 12.0974 0.613723 9.9004 1.76617 7.74552C2.91861 5.59064 4.60977 3.89948 6.76466 2.74703L6.93055 2.65945C9.00672 1.57794 11.2 0.996287 16.4423 0.980865Z" fill="#EBEEF1"/>
    <path d="M20.0674 12.9L20.1164 12.9004L20.1652 12.9016C20.5311 12.909 20.891 12.9406 21.2434 12.9948C20.9876 13.4715 20.8345 14.0094 20.8126 14.5803L20.81 14.579V27.421C22.164 26.7192 23.3749 24.1846 23.3749 21C23.3749 19.948 23.2428 18.9669 23.017 18.0994C23.4959 18.3148 24.0286 18.435 24.5899 18.435L24.6146 18.4347C24.7737 19.2409 24.8599 20.1034 24.8599 21C24.8599 23.169 24.3555 25.1388 23.5341 26.5928C25.3856 25.4203 26.6149 23.3537 26.6149 21C26.6149 19.9892 26.3882 19.0314 25.9829 18.1746C26.4571 17.9901 26.8843 17.7138 27.2418 17.3681C27.7909 18.4603 28.0999 19.6941 28.0999 21C28.0999 25.3741 24.6328 28.9384 20.2969 29.0946L20.1652 29.0983C20.1327 29.0994 20.1001 29.1 20.0674 29.1H19.9999C15.5264 29.1 11.8999 25.4735 11.8999 21C11.8999 16.5265 15.5264 12.9 19.9999 12.9H20.0674ZM19.3249 14.5789C17.9709 15.2806 16.7599 17.8152 16.7599 21C16.7599 24.1848 17.9709 26.7193 19.3249 27.4211V14.5789ZM16.6736 15.2809L16.6026 15.3229C14.675 16.4789 13.3849 18.5888 13.3849 21C13.3849 23.4407 14.7067 25.5727 16.6735 26.7191C15.8093 25.254 15.2749 23.2325 15.2749 21C15.2749 18.7675 15.8093 16.746 16.6736 15.2809ZM24.6574 12.9C25.7012 12.9 26.5474 13.716 26.5474 14.7225C26.5474 15.729 25.7012 16.545 24.6574 16.545C23.6136 16.545 22.7674 15.729 22.7674 14.7225C22.7674 13.716 23.6136 12.9 24.6574 12.9Z" fill="#56606D"/>
</svg>
