<svg width="40" height="40" viewBox="0 0 40 40" fill="none" xmlns="http://www.w3.org/2000/svg">
    <path d="M37.0279 30.9608C36.5357 30.0515 36.0404 29.1405 35.5467 28.2265C34.6279 26.5312 33.7108 24.8358 32.7936 23.1405C31.692 21.1092 30.5936 19.0749 29.4936 17.0437C28.4311 15.0828 27.3717 13.1249 26.3092 11.1657C25.528 9.72504 24.7498 8.28289 23.9686 6.84088C23.7576 6.45026 23.5467 6.05964 23.3358 5.67212C23.117 5.26588 22.8858 4.87525 22.5545 4.54401C21.3983 3.37993 19.4795 3.15648 18.0889 4.0362C17.492 4.41433 17.0608 4.95028 16.7296 5.56432C16.2218 6.50184 15.7139 7.43933 15.2061 8.37996C14.2811 10.0909 13.3546 11.8018 12.4296 13.5128C11.3155 15.555 10.2108 17.602 9.10144 19.6488C8.05144 21.5894 6.99988 23.5269 5.94832 25.4692C5.17956 26.891 4.40924 28.3098 3.63896 29.7316C3.43584 30.1066 3.23272 30.4816 3.0296 30.8566C2.74523 31.3847 2.5218 31.919 2.45148 32.5284C2.25305 34.2503 3.45928 35.9472 5.12648 36.3691C5.56712 36.4816 6.00148 36.4863 6.44681 36.4863H33.9468H33.9906C34.8968 36.4675 35.7562 36.1269 36.4202 35.5097C37.0609 34.916 37.4359 34.1035 37.5421 33.2441C37.6437 32.4347 37.4093 31.6691 37.028 30.9613L37.0279 30.9608ZM18.4371 13.9528C18.4371 13.0778 19.1528 12.4294 19.9996 12.3904C20.8434 12.3513 21.5621 13.1372 21.5621 13.9528V24.956C21.5621 25.831 20.8464 26.4795 19.9996 26.5185C19.1558 26.5576 18.4371 25.7716 18.4371 24.956V13.9528ZM19.9996 31.8404C19.1215 31.8404 18.409 31.1295 18.409 30.2498C18.409 29.3717 19.1199 28.6592 19.9996 28.6592C20.8777 28.6592 21.5902 29.3701 21.5902 30.2498C21.5902 31.1279 20.8778 31.8404 19.9996 31.8404Z" fill="#F4D638"/>
</svg>