<svg width="42" height="42" viewBox="0 0 42 42" fill="none" xmlns="http://www.w3.org/2000/svg">
    <rect class="refresh-button-svg-rect" x="1" y="1" width="40" height="40" rx="20" fill="#F4F6F9" stroke="#E8E8E8"/>
    <path class="refresh-button-svg-path" d="M31 18.0586V12.1768L28.8784 14.2359C27 12.2353 24.2727 11 21.3034 11C15.6068 11 11 15.4712 11 21C11 26.5288 15.6057 31 21.3034 31C24.2125 31 26.8182 29.8232 28.6977 27.9417L27.0012 26.2355C25.6068 27.7056 23.5455 28.6464 21.3034 28.6464C16.9398 28.6464 13.425 25.2352 13.425 21C13.425 16.7649 16.9398 13.3536 21.3034 13.3536C23.6068 13.3536 25.7273 14.354 27.1818 15.8826L24.9398 18.0586L31 18.0586Z" fill="#133E9C"/>
</svg>