<svg width="147" height="21" viewBox="0 0 147 21" fill="none" xmlns="http://www.w3.org/2000/svg">
<path d="M5.72353 5.43747V19.3554C5.72353 19.9102 5.27378 20.3599 4.71898 20.3599C4.56857 20.3599 4.42008 20.3262 4.28446 20.2611L0.570033 18.4791C0.22164 18.312 0 17.9598 0 17.5734V8.04393L5.72353 5.43747ZM12.8134 2.20878V19.3554C12.8134 19.9102 12.3636 20.3599 11.8088 20.3599C11.6584 20.3599 11.5099 20.3262 11.3743 20.2611L7.65989 18.4791C7.3115 18.312 7.08986 17.9598 7.08986 17.5734V4.81525L12.8134 2.20878ZM14.1797 1.58656L14.7551 1.32452C16.396 0.577254 18.141 0.144386 19.9032 0.0273859V19.3554C19.9032 19.9102 19.4535 20.3599 18.8987 20.3599C18.7483 20.3599 18.5998 20.3262 18.4642 20.2611L14.7498 18.4791C14.4014 18.312 14.1797 17.9598 14.1797 17.5734V1.58656ZM26.9931 1.30794V19.3554C26.9931 19.9102 26.5434 20.3599 25.9886 20.3599C25.8381 20.3599 25.6896 20.3262 25.554 20.2611L21.8396 18.4791C21.4912 18.312 21.2696 17.9598 21.2696 17.5734V-6.10352e-05C23.0665 0.0468916 24.8581 0.421466 26.553 1.12521L26.9931 1.30794ZM34.083 8.41191L34.0793 12.3351L28.3594 14.7101V1.87525L34.0793 4.25018V8.17342L34.083 8.41191ZM46.0815 12.1247V8.03074H45.0695V6.26743H46.0815V4.16678H48.2435V6.26743H50.1448V8.03074H48.2435V12.14C48.2435 12.7074 48.4735 12.9527 49.1482 12.9527H50.1448V14.762H48.7955C47.1702 14.762 46.0815 14.072 46.0815 12.1247ZM51.1317 10.4841C51.1317 7.83141 52.849 6.12943 55.011 6.12943C56.3756 6.12943 57.311 6.77342 57.817 7.47875V6.26743H59.9789V14.762H57.817V13.52C57.311 14.256 56.345 14.9 54.9956 14.9C52.849 14.9 51.1317 13.1367 51.1317 10.4841ZM57.817 10.5147C57.817 8.90474 56.7436 8.01541 55.563 8.01541C54.413 8.01541 53.3243 8.87407 53.3243 10.4841C53.3243 12.094 54.413 13.014 55.563 13.014C56.7436 13.014 57.817 12.1247 57.817 10.5147ZM64.2164 10.5301V14.762H62.0698V6.26743H64.2164V7.58608C64.7531 6.71209 65.6424 6.14476 66.8231 6.14476V8.39874H66.2558C64.9831 8.39874 64.2164 8.8894 64.2164 10.5301ZM67.7026 10.4841C67.7026 7.83141 69.4199 6.12943 71.5973 6.12943C72.7166 6.12943 73.7899 6.65076 74.3726 7.44808V3.41545H76.5499V14.762H74.3726V13.5047C73.8666 14.2867 72.9159 14.9 71.5819 14.9C69.4199 14.9 67.7026 13.1367 67.7026 10.4841ZM74.3879 10.5147C74.3879 8.90474 73.3146 8.01541 72.1339 8.01541C70.9839 8.01541 69.8953 8.87407 69.8953 10.4841C69.8953 12.094 70.9839 13.014 72.1339 13.014C73.3146 13.014 74.3879 12.1247 74.3879 10.5147ZM78.6407 14.762V6.26743H80.7874V14.762H78.6407ZM79.7294 5.25543C78.9627 5.25543 78.4107 4.70344 78.4107 3.99811C78.4107 3.29279 78.9627 2.74079 79.7294 2.74079C80.4807 2.74079 81.048 3.29279 81.048 3.99811C81.048 4.70344 80.4807 5.25543 79.7294 5.25543ZM82.3416 10.4841C82.3416 7.83141 84.0589 6.12943 86.2209 6.12943C87.5549 6.12943 88.5209 6.74275 89.0269 7.47875V6.26743H91.1888V14.8233C91.1888 17.1233 89.7782 18.948 86.9875 18.948C84.5956 18.948 82.9242 17.752 82.7096 15.8047H84.8409C85.0556 16.5713 85.8529 17.0773 86.9262 17.0773C88.1069 17.0773 89.0269 16.4027 89.0269 14.8233V13.5047C88.5209 14.2407 87.5549 14.9 86.2209 14.9C84.0589 14.9 82.3416 13.1367 82.3416 10.4841ZM89.0269 10.5147C89.0269 8.90474 87.9535 8.01541 86.7729 8.01541C85.6229 8.01541 84.5342 8.87407 84.5342 10.4841C84.5342 12.094 85.6229 13.014 86.7729 13.014C87.9535 13.014 89.0269 12.1247 89.0269 10.5147ZM95.4263 10.5301V14.762H93.2797V6.26743H95.4263V7.58608C95.963 6.71209 96.8523 6.14476 98.033 6.14476V8.39874H97.4657C96.193 8.39874 95.4263 8.8894 95.4263 10.5301ZM98.9125 10.4841C98.9125 7.83141 100.63 6.12943 102.792 6.12943C104.156 6.12943 105.092 6.77342 105.598 7.47875V6.26743H107.76V14.762H105.598V13.52C105.092 14.256 104.126 14.9 102.776 14.9C100.63 14.9 98.9125 13.1367 98.9125 10.4841ZM105.598 10.5147C105.598 8.90474 104.524 8.01541 103.344 8.01541C102.194 8.01541 101.105 8.87407 101.105 10.4841C101.105 12.094 102.194 13.014 103.344 13.014C104.524 13.014 105.598 12.1247 105.598 10.5147ZM109.299 10.4841C109.299 7.83141 111.016 6.12943 113.193 6.12943C114.313 6.12943 115.386 6.65076 115.969 7.44808V3.41545H118.146V14.762H115.969V13.5047C115.463 14.2867 114.512 14.9 113.178 14.9C111.016 14.9 109.299 13.1367 109.299 10.4841ZM115.984 10.5147C115.984 8.90474 114.911 8.01541 113.73 8.01541C112.58 8.01541 111.491 8.87407 111.491 10.4841C111.491 12.094 112.58 13.014 113.73 13.014C114.911 13.014 115.984 12.1247 115.984 10.5147ZM123.886 7.89275C122.859 7.89275 122.046 8.55207 121.877 9.7174H125.91C125.879 8.59807 124.99 7.89275 123.886 7.89275ZM127.919 12.094C127.459 13.658 126.048 14.9 123.947 14.9C121.479 14.9 119.685 13.1827 119.685 10.5147C119.685 7.83141 121.433 6.12943 123.947 6.12943C126.401 6.12943 128.133 7.80075 128.133 10.3307C128.133 10.6067 128.118 10.8827 128.072 11.1587H121.862C121.969 12.416 122.828 13.1214 123.901 13.1214C124.821 13.1214 125.327 12.6614 125.603 12.094H127.919ZM131.942 13.612C131.942 14.3174 131.39 14.8693 130.638 14.8693C129.856 14.8693 129.304 14.3174 129.304 13.612C129.304 12.9067 129.856 12.3547 130.638 12.3547C131.39 12.3547 131.942 12.9067 131.942 13.612ZM133.664 14.762V6.26743H135.811V14.762H133.664ZM134.753 5.25543C133.986 5.25543 133.434 4.70344 133.434 3.99811C133.434 3.29279 133.986 2.74079 134.753 2.74079C135.504 2.74079 136.072 3.29279 136.072 3.99811C136.072 4.70344 135.504 5.25543 134.753 5.25543ZM146.12 10.5147C146.12 13.1827 144.158 14.9 141.689 14.9C139.236 14.9 137.381 13.1827 137.381 10.5147C137.381 7.83141 139.297 6.12943 141.751 6.12943C144.204 6.12943 146.12 7.83141 146.12 10.5147ZM139.558 10.5147C139.558 12.2014 140.539 13.0294 141.689 13.0294C142.824 13.0294 143.913 12.2014 143.913 10.5147C143.913 8.81274 142.855 8.00008 141.72 8.00008C140.585 8.00008 139.558 8.81274 139.558 10.5147Z" fill="white"/>
</svg>
