<svg width="14" height="14" viewBox="0 0 14 14" fill="none" xmlns="http://www.w3.org/2000/svg">
<path d="M7.0002 13.3C3.5208 13.3 0.700195 10.4793 0.700195 6.99995C0.700195 3.52056 3.5208 0.699951 7.0002 0.699951C10.4796 0.699951 13.3002 3.52056 13.3002 6.99995C13.3002 10.4793 10.4796 13.3 7.0002 13.3ZM7.0002 12.6055C10.096 12.6055 12.6057 10.0958 12.6057 6.99995C12.6057 3.90411 10.096 1.39444 7.0002 1.39444C3.90436 1.39444 1.39468 3.90411 1.39468 6.99995C1.39468 10.0958 3.90436 12.6055 7.0002 12.6055ZM7.0002 5.56137C6.81481 5.56137 6.66336 5.41609 6.65347 5.23318L6.65295 5.21412V4.71806C6.65295 4.52628 6.80842 4.37082 7.0002 4.37082C7.18558 4.37082 7.33703 4.51609 7.34693 4.69901L7.34744 4.71806V5.21412C7.34744 5.4059 7.19197 5.56137 7.0002 5.56137ZM7.0002 9.62909C6.81481 9.62909 6.66336 9.48381 6.65347 9.30089L6.65295 9.28184V6.90074C6.65295 6.70896 6.80842 6.55349 7.0002 6.55349C7.18558 6.55349 7.33703 6.69877 7.34693 6.88169L7.34744 6.90074V9.28184C7.34744 9.47362 7.19197 9.62909 7.0002 9.62909Z" fill="#838383"/>
</svg>
