<svg width="207" height="89" viewBox="0 0 207 89" fill="none" xmlns="http://www.w3.org/2000/svg">
<mask id="mask0" mask-type="alpha" maskUnits="userSpaceOnUse" x="56" y="18" width="81" height="56">
<rect x="56" y="18" width="81" height="56" rx="10" fill="#ABABAB"/>
</mask>
<g mask="url(#mask0)">
<rect x="56" y="18" width="81" height="56" rx="10" fill="#D3DCE6"/>
<path d="M97 207.706L-7.85281 122.853L97 37.9999L201.853 122.853L97 207.706Z" fill="#EAF0F7" fill-opacity="0.3"/>
<path d="M97 -114L201.853 -29.1472L97 55.7056L-7.85283 -29.1472L97 -114Z" fill="#EAF0F7"/>
</g>
<path d="M39 16C34.5817 16 31 12.4183 31 8C31 3.58172 34.5817 0 39 0C43.4183 0 47 3.58172 47 8C47 12.4183 43.4183 16 39 16Z" fill="#FF69A1"/>
<path fill-rule="evenodd" clip-rule="evenodd" d="M8.10494 20L4.95911e-05 25.8885L3.09584 35.4164H13.114L16.2098 25.8885L8.10494 20Z" fill="#276CFF"/>
<path fill-rule="evenodd" clip-rule="evenodd" d="M198.105 28L190 33.8885L193.096 43.4164H203.114L206.21 33.8885L198.105 28Z" fill="#276CFF"/>
<path d="M172 78.1127L182.113 68L192.225 78.1127L182.113 88.2254L172 78.1127Z" fill="#00E567"/>
<path fill-rule="evenodd" clip-rule="evenodd" d="M161.889 43L152 57.3548H171.778L161.889 43Z" fill="#FFC600"/>
<path fill-rule="evenodd" clip-rule="evenodd" d="M20.8889 50L11 64.3548H30.7778L20.8889 50Z" fill="#FFC600"/>
</svg>
