<?xml version="1.0" encoding="UTF-8"?>
<svg width="380px" height="380px" viewBox="0 0 1293 1226" version="1.1" xmlns="http://www.w3.org/2000/svg" xmlns:xlink="http://www.w3.org/1999/xlink">
    <!-- Generator: Sketch 64 (93537) - https://sketch.com -->
    <title>storj-illustration-distribution-cta</title>
    <desc>Created with Sketch.</desc>
    <defs>
        <path d="M1007.91294,172.930521 C777.338913,-57.6435071 403.50455,-57.6435071 172.930521,172.930521 C-57.6435071,403.50455 -57.6435071,777.338913 172.930521,1007.91294 C403.50455,1238.48697 777.338913,1238.48697 1007.91294,1007.91294 C1238.48697,777.338913 1238.48697,403.50455 1007.91294,172.930521 Z" id="path-1"></path>
    </defs>
    <g id="Page-1" stroke="none" stroke-width="1" fill="none" fill-rule="evenodd">
        <g id="storj-illustration-distribution-cta">
            <g id="Group-13" transform="translate(31.609576, 45.156538)">
                <mask id="mask-2" fill="white">
                    <use xlink:href="#path-1"></use>
                </mask>
                <use id="Oval" fill="#0149FF" xlink:href="#path-1"></use>
                <path d="M406.40874,774.43442 L254.162171,926.681437 C214.371668,924.143979 182.883978,891.067302 182.883978,850.63628 C182.883978,808.551267 217.000622,774.434622 259.085635,774.434622 L406.40874,774.43442 Z M483.988029,203.20442 C533.417515,203.20442 573.488029,243.274935 573.488029,292.70442 L573.488029,315.779926 C573.488029,365.209411 533.417515,405.279926 483.988029,405.279926 L421.08374,405.27942 L421.084715,517.855433 C421.084715,567.284918 381.0142,607.355433 331.584715,607.355433 L245.290055,607.355433 C195.86057,607.355433 155.790055,567.284918 155.790055,517.855433 L155.78974,405.27942 L92.8867403,405.279926 C71.5595899,405.279926 51.974734,397.820277 36.5990177,385.367823 C60.7125271,320.115732 96.7404171,258.270279 144.683176,203.196221 L483.988029,203.20442 Z" id="Combined-Shape" fill="#00E567" mask="url(#mask-2)"></path>
                <path d="M1007.91294,172.930521 L1014.76099,179.890434 C1238.46391,410.966911 1236.18123,779.644653 1007.91294,1007.91294 C777.338913,1238.48697 403.50455,1238.48697 172.930521,1007.91294 L172.930521,1007.91294 L1007.91294,172.930521 Z" id="Combined-Shape" fill="#00127F" mask="url(#mask-2)"></path>
                <path d="M1007.91294,1007.91294 C986.479736,1029.34615 963.808648,1048.78701 940.129815,1066.23553 L940.121737,1066.22159 C913.291078,1050.76713 895.228361,1021.79912 895.228361,988.612339 L895.227978,876.036326 L832.325046,876.036832 C782.895561,876.036832 742.825046,835.966318 742.825046,786.536832 L742.825046,763.461326 C742.825046,714.031841 782.895561,673.961326 832.325046,673.961326 L1174.93823,673.963016 C1157.57096,796.145673 1101.89586,913.930022 1007.91294,1007.91294 Z M514.220074,774.434622 C556.305087,774.434622 590.421731,808.551267 590.421731,850.63628 C590.421731,892.721293 556.305087,926.837937 514.220074,926.837937 L259.085635,926.837937 C257.431691,926.837937 255.790054,926.785244 254.162311,926.681445 L406.409241,774.434326 L514.220074,774.434622 Z" id="Combined-Shape" fill="#0149FF" mask="url(#mask-2)"></path>
                <g id="Group-14" mask="url(#mask-2)">
                    <g transform="translate(181.930521, 673.930521)"></g>
                </g>
            </g>
            <rect id="Rectangle" fill="#FFC600" x="774.434622" y="0" width="197.559853" height="197.559853"></rect>
            <rect id="Rectangle-Copy-32" fill="#FFC600" x="165.950276" y="1025.05341" width="159.176796" height="159.176796"></rect>
            <rect id="Rectangle-Copy-30" fill="#FFC600" x="565.585635" y="381.572744" width="114.020258" height="114.020258"></rect>
            <rect id="Rectangle-Copy-31" fill="#00127F" x="130.953959" y="579.132597" width="114.020258" height="114.020258"></rect>
            <rect id="Rectangle-Copy-29" fill="#FF458B" x="31.6095764" y="143.372007" width="197.559853" height="197.559853"></rect>
            <rect id="Rectangle-Copy-35" fill="#FF458B" x="531.718232" y="914.41989" width="114.020258" height="114.020258"></rect>
            <rect id="Rectangle-Copy-33" fill="#00E567" x="873.779006" y="579.132597" width="197.559853" height="197.559853"></rect>
            <rect id="Rectangle-Copy-24" fill="#C8D3DE" x="543.007366" y="0" width="114.020258" height="114.020258"></rect>
            <rect id="Rectangle-Copy-37" fill="#C8D3DE" x="0" y="752.985267" width="114.020258" height="114.020258"></rect>
            <rect id="Rectangle-Copy-38" fill="#0149FF" x="873.779006" y="382.701657" width="114.020258" height="114.020258"></rect>
            <rect id="Rectangle-Copy-34" fill="#C8D3DE" x="794.755064" y="1066.8232" width="159.176796" height="159.176796"></rect>
            <rect id="Rectangle-Copy-36" fill="#C8D3DE" x="1133.4291" y="439.14733" width="159.176796" height="159.176796"></rect>
        </g>
    </g>
</svg>
