<svg class="notifications-bell-icon" width="20" height="22" viewBox="0 0 20 22" fill="none" xmlns="http://www.w3.org/2000/svg">
    <path fill-rule="evenodd" clip-rule="evenodd" d="M8.1999 2.6265C5.09522 3.42494 2.7999 6.2437 2.7999 9.6001V14.4001C2.7999 14.8423 2.44053 15.2001 2.00146 15.2001C1.1171 15.2001 0.399902 15.9189 0.399902 16.8001C0.399902 17.6845 1.1171 18.4001 2.00458 18.4001H17.9954C18.8813 18.4001 19.6001 17.6813 19.6001 16.8001C19.6001 15.9157 18.8797 15.2001 17.9985 15.2001C17.5579 15.2001 17.2001 14.8438 17.2001 14.4001V9.6001C17.2001 6.24542 14.9063 3.4265 11.8001 2.6265V1.79994C11.8001 0.803059 10.9938 -6.10352e-05 10.0001 -6.10352e-05C9.00786 -6.10352e-05 8.20006 0.806179 8.20006 1.79994L8.1999 2.6265ZM7.1999 19.2001H12.7999C12.7999 20.747 11.5468 22.0001 9.9999 22.0001C8.45302 22.0001 7.1999 20.747 7.1999 19.2001Z" fill="#354049"/>
</svg>
