<svg width="16" height="16" viewBox="0 0 16 16" fill="none" xmlns="http://www.w3.org/2000/svg">
	<path d="M15.6625 12.9324C15.441 12.5231 15.2181 12.1132 14.996 11.7019C14.5825 10.939 14.1698 10.1761 13.7571 9.41319C13.2614 8.49914 12.7671 7.58367 12.2721 6.66963C11.7939 5.78722 11.3172 4.90619 10.8391 4.02453C10.4875 3.37625 10.1374 2.72727 9.78581 2.07837C9.69089 1.90259 9.59596 1.72682 9.50105 1.55243C9.40261 1.36962 9.29855 1.19384 9.14949 1.04478C8.62918 0.520942 7.76574 0.420394 7.13997 0.816268C6.87137 0.986424 6.67732 1.2276 6.52826 1.50392C6.29975 1.92581 6.07122 2.34767 5.84271 2.77096C5.42646 3.54087 5.00951 4.31081 4.59326 5.08072C4.09192 5.99971 3.59482 6.92086 3.0956 7.84192C2.6231 8.71521 2.1499 9.58707 1.6767 10.4611C1.33076 11.1009 0.984114 11.7394 0.637488 12.3792C0.546082 12.5479 0.45468 12.7167 0.363276 12.8854C0.235307 13.1231 0.134766 13.3635 0.103122 13.6378C0.013826 14.4126 0.556632 15.1762 1.30687 15.3661C1.50516 15.4167 1.70062 15.4188 1.90102 15.4188H14.276H14.2957C14.7035 15.4104 15.0902 15.2571 15.3891 14.9793C15.6773 14.7122 15.8461 14.3465 15.8939 13.9598C15.9396 13.5956 15.8341 13.2511 15.6626 12.9325L15.6625 12.9324ZM7.29666 5.27876C7.29666 4.88501 7.6187 4.59321 7.99978 4.57564C8.37947 4.55806 8.70289 4.91174 8.70289 5.27876V10.2302C8.70289 10.6239 8.38085 10.9157 7.99978 10.9333C7.62008 10.9509 7.29666 10.5972 7.29666 10.2302V5.27876ZM7.99978 13.3282C7.60462 13.3282 7.28399 13.0083 7.28399 12.6124C7.28399 12.2172 7.6039 11.8966 7.99978 11.8966C8.39493 11.8966 8.71556 12.2165 8.71556 12.6124C8.71556 13.0075 8.39495 13.3282 7.99978 13.3282Z" fill="#535F77"/>
</svg>