<svg width="16" height="16" viewBox="0 0 16 16" fill="none" xmlns="http://www.w3.org/2000/svg">
	<path d="M1.77228 9.83486C1.91418 10.3214 2.11111 10.7905 2.36016 11.2307L1.65065 12.1255C1.41898 12.418 1.44504 12.835 1.70568 13.0986L2.92776 14.3207C3.19129 14.5842 3.6083 14.6073 3.90079 14.3757L4.78984 13.6719C5.2474 13.9355 5.73392 14.1411 6.24071 14.2859L6.37392 15.4298C6.41736 15.8005 6.73012 16.0785 7.1008 16.0785H8.82967C9.20035 16.0785 9.51311 15.8004 9.55655 15.4298L9.68397 14.3264C10.2284 14.1845 10.7497 13.9731 11.2391 13.698L12.0992 14.3786C12.3917 14.6102 12.8087 14.5842 13.0722 14.3235L14.2943 13.1014C14.5578 12.8379 14.581 12.4209 14.3493 12.1284L13.6804 11.2799C13.9584 10.7991 14.1756 10.2866 14.3204 9.75085L15.3513 9.63212C15.722 9.58868 16 9.27592 16 8.90524V7.17636C16 6.80569 15.722 6.49292 15.3513 6.44949L14.3348 6.33075C14.1958 5.8008 13.9873 5.29401 13.7209 4.81908L14.3464 4.02849C14.5781 3.736 14.5521 3.31898 14.2914 3.05545L13.0722 1.83626C12.8087 1.57273 12.3917 1.54957 12.0992 1.78124L11.3318 2.38939C10.8337 2.0969 10.3008 1.87391 9.74192 1.72332L9.62608 0.730018C9.58264 0.359339 9.26988 0.0813293 8.8992 0.0813293H7.17033C6.79965 0.0813293 6.48689 0.359339 6.44345 0.730018L6.32761 1.72332C5.75422 1.87681 5.20689 2.10848 4.6972 2.41256L3.90082 1.78124C3.60833 1.54957 3.19132 1.57563 2.92779 1.83626L1.7057 3.05835C1.44217 3.32188 1.41901 3.73889 1.65068 4.03138L2.31675 4.8741C2.05032 5.35482 1.8476 5.8674 1.71439 6.40025L0.648689 6.52188C0.27801 6.56532 0 6.87808 0 7.24876V8.97764C0 9.34832 0.27801 9.66107 0.648689 9.70451L1.77228 9.83486ZM8.03618 5.15793C9.61157 5.15793 10.8945 6.44083 10.8945 8.01621C10.8945 9.5916 9.61157 10.8745 8.03618 10.8745C6.46082 10.8745 5.1779 9.5916 5.1779 8.01621C5.1779 6.44083 6.4608 5.15793 8.03618 5.15793Z" fill="#535F77"/>
</svg>