<svg width="40" height="41" viewBox="0 0 40 41" fill="none" xmlns="http://www.w3.org/2000/svg">
<circle cx="20" cy="20.5" r="20" fill="#EBEEF1"/>
<path d="M16.3022 27.5119L13.3108 27.6989C13.0458 27.7154 12.8175 27.514 12.801 27.249C12.7997 27.2291 12.7997 27.209 12.801 27.1891L12.988 24.1976C12.9953 24.0807 13.045 23.9705 13.1278 23.8877L16.9684 20.047L16.9539 19.9986C16.4357 18.2291 16.8832 16.2882 18.1878 14.9204L18.2307 14.876L18.2751 14.8311C20.3168 12.7894 23.6271 12.7894 25.6688 14.8311C27.7105 16.8728 27.7105 20.183 25.6688 22.2247C24.3116 23.5819 22.3517 24.0653 20.5589 23.5625L20.5011 23.5459L20.4527 23.5315L16.6122 27.372C16.5294 27.4548 16.4191 27.5046 16.3022 27.5119ZM14.1799 26.32L15.9023 26.2123L20.119 21.9955L20.5233 22.1567C21.9622 22.7301 23.6197 22.4041 24.7339 21.2899C26.2593 19.7645 26.2593 17.2913 24.7339 15.7659C23.2085 14.2405 20.7353 14.2405 19.2099 15.7659C18.1084 16.8675 17.7772 18.5 18.3239 19.9272L18.3431 19.9764L18.5042 20.3807L14.2876 24.5976L14.1799 26.32ZM21.5875 18.9123C22.1038 19.4286 22.9409 19.4286 23.4572 18.9123C23.9735 18.396 23.9735 17.559 23.4572 17.0427C22.9409 16.5264 22.1038 16.5264 21.5875 17.0427C21.0712 17.559 21.0712 18.396 21.5875 18.9123Z" fill="#56606D"/>
</svg>
