<svg  height="40" width="40" viewBox="0 0 65 65" fill="none" xmlns="http://www.w3.org/2000/svg">
    <path fill-rule="evenodd" clip-rule="evenodd" d="M27.2464 0H38.4415C47.4202 0 50.9826 0.995175 54.4769 2.86391C57.9711 4.73264 60.7134 7.47492 62.5821 10.9691L62.7241 11.2382C64.4778 14.6047 65.421 18.1612 65.446 26.6619V37.857C65.446 46.8357 64.4508 50.3982 62.5821 53.8924C60.7134 57.3866 57.9711 60.1289 54.4769 61.9976L54.2079 62.1396C50.8413 63.8933 47.2848 64.8365 38.7841 64.8615H27.589C18.6103 64.8615 15.0478 63.8664 11.5536 61.9976C8.0594 60.1289 5.31711 57.3866 3.44838 53.8924L3.30636 53.6234C1.55265 50.2568 0.60948 46.7004 0.584473 38.1997V27.0046C0.584473 18.0258 1.57965 14.4634 3.44838 10.9691C5.31711 7.47492 8.0594 4.73264 11.5536 2.86391L11.8226 2.72188C15.1892 0.968178 18.7457 0.0250071 27.2464 0Z" fill="#0218A7"/>
    <path d="M38.4286 14.4733V16.6081L46.155 23.6654C45.0198 23.6654 44.347 23.9514 44.2822 25.0721L46.155 32.5746L49.9006 40.5462C49.9035 41.6831 42.2267 38.1395 43.3459 38.2016L46.6231 43.3597L38.4095 47.6684L38.4149 49.8032L17.1872 49.8523C14.8863 49.8579 13.0065 48.037 12.9167 45.7508L12.9133 45.5906V18.743C12.9133 16.4385 14.7362 14.5604 17.0167 14.4762L17.1765 14.4733H38.4286Z" fill="#0149FF"/>
    <path d="M34.4538 38.5268L34.4483 49.8523H48.6645C51.4194 49.8523 53.6528 47.5986 53.6528 44.8187V19.4962C53.6432 16.7092 51.402 14.4635 48.6469 14.4732L34.4671 14.5235L34.4538 25.9551L33.5143 25.4632C30.4505 23.861 26.6871 24.7398 24.6324 27.5373C22.6366 30.2546 22.5875 33.9464 24.4886 36.7122L24.6281 36.9086L24.7461 37.066C26.8225 39.757 30.5157 40.5841 33.5334 39.0071L34.4538 38.5268Z" fill="#00E366"/>
</svg> 
