<svg width="40" height="40" viewBox="0 0 40 40" fill="none" xmlns="http://www.w3.org/2000/svg">
<rect width="40" height="40" fill="#E5E5E5"/>
<g filter="url(#filter0_d_10277_46858)">
<rect x="-32" y="-87" width="410" height="713" rx="10" fill="white"/>
<circle cx="20" cy="20" r="20" fill="#EBEEF1"/>
<path d="M20.0099 12.7998L21.5815 13.8999C22.8592 14.7943 24.3766 15.2814 25.9348 15.2985L26.0198 15.299V21.0186C26.0198 23.1181 24.793 25.0239 22.882 25.8933L20.0099 27.1998L17.1378 25.8933C15.2268 25.0239 14 23.1181 14 21.0186V15.299C15.5502 15.299 17.0638 14.8283 18.3406 13.9492L20.0099 12.7998ZM19.3554 14.8398L19.083 15.0274C17.9679 15.7951 16.6986 16.2969 15.3724 16.5024L15.3091 16.5119V21.0186C15.3091 22.5868 16.2151 24.0121 17.6309 24.679L17.6799 24.7017L19.3554 25.4639V14.8398ZM20.6645 14.8559V25.4638L22.3399 24.7017C23.7674 24.0523 24.6896 22.6375 24.7104 21.0726L24.7107 21.0186V16.513L24.6345 16.5014C23.3023 16.295 22.0277 15.7926 20.907 15.0251L20.8308 14.9724L20.6645 14.8559Z" fill="#56606D"/>
</g>
<defs>
<filter id="filter0_d_10277_46858" x="-62" y="-97" width="470" height="773" filterUnits="userSpaceOnUse" color-interpolation-filters="sRGB">
<feFlood flood-opacity="0" result="BackgroundImageFix"/>
<feColorMatrix in="SourceAlpha" type="matrix" values="0 0 0 0 0 0 0 0 0 0 0 0 0 0 0 0 0 0 127 0" result="hardAlpha"/>
<feOffset dy="20"/>
<feGaussianBlur stdDeviation="15"/>
<feColorMatrix type="matrix" values="0 0 0 0 0.0377257 0 0 0 0 0.10428 0 0 0 0 0.170833 0 0 0 0.2 0"/>
<feBlend mode="normal" in2="BackgroundImageFix" result="effect1_dropShadow_10277_46858"/>
<feBlend mode="normal" in="SourceGraphic" in2="effect1_dropShadow_10277_46858" result="shape"/>
</filter>
</defs>
</svg>
