<svg width="40" height="40" viewBox="0 0 40 40" fill="none" xmlns="http://www.w3.org/2000/svg">
<rect width="40" height="40" fill="#E5E5E5"/>
<g filter="url(#filter0_d_10277_46858)">
<rect x="-32" y="-383" width="410" height="713" rx="10" fill="white"/>
<circle cx="20" cy="20" r="20" fill="#EBEEF1"/>
<path d="M26.5378 18.7079C27.7885 19.9587 27.8 21.9793 26.5581 23.2211C26.0549 23.7243 25.4239 24.0217 24.768 24.1143L24.5429 25.3899C24.5263 26.3906 22.4781 27.1998 19.954 27.1998C17.4449 27.1998 15.4062 26.4003 15.3657 25.4079L15.3653 25.3899L13.6398 15.614C13.6204 15.5448 13.6079 15.4749 13.6028 15.4042L13.6001 15.3884L13.6018 15.3885C13.6007 15.3689 13.6001 15.3493 13.6001 15.3296C13.6001 13.9324 16.4448 12.7998 19.954 12.7998C23.4631 12.7998 26.3078 13.9324 26.3078 15.3296C26.3078 15.3493 26.3072 15.3689 26.3061 15.3885L26.3078 15.3884L26.305 15.4052C26.2999 15.4751 26.2876 15.5443 26.2685 15.6127L25.8445 18.0146L26.5378 18.7079ZM24.7078 17.0081C23.5438 17.5303 21.8454 17.8594 19.954 17.8594C18.0626 17.8594 16.3642 17.5303 15.2002 17.0082L16.451 24.0956L16.6555 25.1808L16.6744 25.1955C16.7814 25.2757 16.9469 25.3661 17.1619 25.4532L17.2055 25.4706C17.8983 25.7415 18.8856 25.9055 19.954 25.9055C21.0285 25.9055 22.0208 25.7396 22.7137 25.4662C22.9634 25.3676 23.1496 25.264 23.2588 25.1758L23.2677 25.1685L23.4685 24.0308C22.9635 23.892 22.485 23.6275 22.0827 23.2379L22.0449 23.2008L19.4444 20.6003C19.1917 20.3476 19.1917 19.9378 19.4444 19.6851C19.691 19.4385 20.087 19.4325 20.3409 19.6671L20.3597 19.6851L22.9601 22.2856C23.175 22.5004 23.4272 22.6541 23.6951 22.7465L24.7078 17.0081ZM25.5699 19.5704L25.0142 22.7196C25.2436 22.6287 25.4581 22.4908 25.6429 22.3059C26.3682 21.5806 26.3702 20.3993 25.6489 19.65L25.6226 19.6231L25.5699 19.5704ZM19.954 14.0941C18.4012 14.0941 16.9612 14.3366 15.9399 14.7433C15.501 14.918 15.1745 15.1104 14.9866 15.2873C14.9746 15.2986 14.9637 15.3093 14.9537 15.3195L14.9443 15.3295L14.9614 15.3474L14.9866 15.3718C15.1745 15.5487 15.501 15.7412 15.9399 15.9159C16.9612 16.3226 18.4012 16.5651 19.954 16.5651C21.5067 16.5651 22.9467 16.3226 23.968 15.9159C24.4069 15.7412 24.7334 15.5487 24.9213 15.3718C24.9333 15.3606 24.9443 15.3498 24.9542 15.3397L24.9637 15.3295L24.9465 15.3118L24.9213 15.2873C24.7334 15.1104 24.4069 14.918 23.968 14.7433C22.9467 14.3366 21.5067 14.0941 19.954 14.0941Z" fill="#56606D"/>
</g>
<defs>
<filter id="filter0_d_10277_46858" x="-62" y="-393" width="470" height="773" filterUnits="userSpaceOnUse" color-interpolation-filters="sRGB">
<feFlood flood-opacity="0" result="BackgroundImageFix"/>
<feColorMatrix in="SourceAlpha" type="matrix" values="0 0 0 0 0 0 0 0 0 0 0 0 0 0 0 0 0 0 127 0" result="hardAlpha"/>
<feOffset dy="20"/>
<feGaussianBlur stdDeviation="15"/>
<feColorMatrix type="matrix" values="0 0 0 0 0.0377257 0 0 0 0 0.10428 0 0 0 0 0.170833 0 0 0 0.2 0"/>
<feBlend mode="normal" in2="BackgroundImageFix" result="effect1_dropShadow_10277_46858"/>
<feBlend mode="normal" in="SourceGraphic" in2="effect1_dropShadow_10277_46858" result="shape"/>
</filter>
</defs>
</svg>
