<svg width="40" height="40" viewBox="0 0 40 40" fill="none" xmlns="http://www.w3.org/2000/svg">
<rect width="40" height="40" fill="#E5E5E5"/>
<g filter="url(#filter0_d_10277_46858)">
<rect x="-32" y="-525" width="410" height="713" rx="10" fill="white"/>
<circle cx="20" cy="20" r="20" fill="#EBEEF1"/>
<path d="M21.7552 12.7998C23.1585 12.7998 24.0952 13.0301 24.9037 13.4625C25.7122 13.8949 26.3468 14.5294 26.7792 15.3379C27.2116 16.1464 27.4418 17.0831 27.4418 18.4865V18.4879C27.4418 19.8913 27.2116 20.828 26.7792 21.6365C26.3468 22.445 25.7122 23.0795 24.9037 23.5119C24.0952 23.9443 23.1585 24.1746 21.7552 24.1746H17.3199L12.7998 27.1998V18.9775C12.7998 16.9849 13.0301 16.1464 13.4625 15.3379C13.8949 14.5294 14.5294 13.8949 15.3379 13.4625L15.4027 13.4283C16.192 13.018 17.038 12.7998 18.9775 12.7998H21.7552ZM21.7552 14.1309H18.9029L18.7552 14.1318C17.2805 14.1443 16.6202 14.2862 15.9657 14.6362C15.3891 14.9446 14.9446 15.3891 14.6362 15.9657L14.603 16.0291C14.2661 16.6852 14.1351 17.3732 14.1309 18.9029V24.8034L16.9713 22.8435H21.7552C22.8931 22.8435 23.6338 22.6816 24.276 22.3382C24.8525 22.0298 25.297 21.5853 25.6054 21.0087C25.941 20.3811 26.1033 19.6595 26.1105 18.5649L26.1107 18.4879V18.4865C26.1107 17.3485 25.9488 16.6079 25.6054 15.9657C25.297 15.3891 24.8525 14.9446 24.276 14.6362C23.6484 14.3006 22.9267 14.1383 21.8321 14.1311L21.7552 14.1309Z" fill="#56606D"/>
</g>
<defs>
<filter id="filter0_d_10277_46858" x="-62" y="-535" width="470" height="773" filterUnits="userSpaceOnUse" color-interpolation-filters="sRGB">
<feFlood flood-opacity="0" result="BackgroundImageFix"/>
<feColorMatrix in="SourceAlpha" type="matrix" values="0 0 0 0 0 0 0 0 0 0 0 0 0 0 0 0 0 0 127 0" result="hardAlpha"/>
<feOffset dy="20"/>
<feGaussianBlur stdDeviation="15"/>
<feColorMatrix type="matrix" values="0 0 0 0 0.0377257 0 0 0 0 0.10428 0 0 0 0 0.170833 0 0 0 0.2 0"/>
<feBlend mode="normal" in2="BackgroundImageFix" result="effect1_dropShadow_10277_46858"/>
<feBlend mode="normal" in="SourceGraphic" in2="effect1_dropShadow_10277_46858" result="shape"/>
</filter>
</defs>
</svg>
