<svg width="40" height="40" viewBox="0 0 40 40" fill="none" xmlns="http://www.w3.org/2000/svg">
<rect width="40" height="40" fill="#E5E5E5"/>
<g filter="url(#filter0_d_10277_46858)">
<rect x="-32" y="-223" width="410" height="713" rx="10" fill="white"/>
<circle cx="20" cy="20" r="20" fill="#EBEEF1"/>
<path d="M19.9998 12.7998C23.9763 12.7998 27.1998 16.0234 27.1998 19.9998C27.1998 23.9763 23.9763 27.1998 19.9998 27.1998C16.0234 27.1998 12.7998 23.9763 12.7998 19.9998C12.7998 16.0234 16.0234 12.7998 19.9998 12.7998ZM20.5949 14.1386L20.5948 20.0593L20.5949 20.0637C20.5942 20.1822 20.5614 20.3019 20.4933 20.4094C20.4879 20.418 20.4824 20.4263 20.4766 20.4345C20.4749 20.437 20.4731 20.4396 20.4712 20.4421C20.4669 20.4482 20.4625 20.4541 20.458 20.4599C20.4569 20.4613 20.4557 20.4627 20.4546 20.4642C20.4496 20.4706 20.4445 20.4769 20.4393 20.483C20.438 20.4844 20.4368 20.4859 20.4355 20.4873C20.4134 20.5131 20.3896 20.5367 20.3643 20.5582L16.0337 24.3557C17.0805 25.3093 18.4722 25.8907 19.9998 25.8907C23.2533 25.8907 25.8907 23.2533 25.8907 19.9998C25.8907 16.9472 23.5689 14.4369 20.5949 14.1386ZM14.1089 19.9998C14.1089 21.2542 14.501 22.4171 15.1693 23.3725L18.8505 20.1442L14.6663 17.4951C14.3088 18.2552 14.1089 19.1042 14.1089 19.9998ZM15.352 16.3799L19.2858 18.8702L19.2858 14.1517C17.6908 14.3444 16.2921 15.1746 15.352 16.3799Z" fill="#56606D"/>
</g>
<defs>
<filter id="filter0_d_10277_46858" x="-62" y="-233" width="470" height="773" filterUnits="userSpaceOnUse" color-interpolation-filters="sRGB">
<feFlood flood-opacity="0" result="BackgroundImageFix"/>
<feColorMatrix in="SourceAlpha" type="matrix" values="0 0 0 0 0 0 0 0 0 0 0 0 0 0 0 0 0 0 127 0" result="hardAlpha"/>
<feOffset dy="20"/>
<feGaussianBlur stdDeviation="15"/>
<feColorMatrix type="matrix" values="0 0 0 0 0.0377257 0 0 0 0 0.10428 0 0 0 0 0.170833 0 0 0 0.2 0"/>
<feBlend mode="normal" in2="BackgroundImageFix" result="effect1_dropShadow_10277_46858"/>
<feBlend mode="normal" in="SourceGraphic" in2="effect1_dropShadow_10277_46858" result="shape"/>
</filter>
</defs>
</svg>
