<svg width="40" height="40" viewBox="0 0 40 40" fill="none" xmlns="http://www.w3.org/2000/svg">
<rect width="40" height="40" fill="#E5E5E5"/>
<g filter="url(#filter0_d_10277_46858)">
<rect x="-32" y="-453" width="410" height="713" rx="10" fill="white"/>
<circle cx="20" cy="20" r="20" fill="#EBEEF1"/>
<path d="M23.6296 12.7998C23.9822 12.7998 24.2698 13.0787 24.2836 13.428L24.2841 13.4544L24.2842 13.9502C24.7132 14.0332 25.0122 14.1563 25.3125 14.3169C25.9137 14.6384 26.3855 15.1103 26.707 15.7115L26.7346 15.7638L26.7752 15.8437C27.0527 16.4055 27.1998 17.0293 27.1998 18.5535V22.1856C27.1998 23.8301 27.0286 24.4265 26.707 25.0277C26.3855 25.6289 25.9137 26.1007 25.3125 26.4223L25.2602 26.4499L25.1802 26.4904C24.6184 26.7679 23.9947 26.915 22.4704 26.915H17.5292C15.8847 26.915 15.2884 26.7438 14.6871 26.4223C14.0859 26.1007 13.6141 25.6289 13.2926 25.0277L13.2642 24.9738L13.2237 24.8939C12.951 24.3413 12.8044 23.728 12.7998 22.2565V18.5535C12.7998 16.909 12.971 16.3127 13.2926 15.7115C13.6141 15.1103 14.0859 14.6384 14.6871 14.3169L14.741 14.2885C15.0373 14.1346 15.3401 14.0173 15.775 13.9391L15.775 13.4544C15.775 13.0929 16.0681 12.7998 16.4296 12.7998C16.7822 12.7998 17.0698 13.0787 17.0836 13.428L17.0841 13.4544L17.084 13.8288L17.2291 13.8261C17.3031 13.825 17.3795 13.8244 17.4584 13.8241H22.4704C22.6508 13.8241 22.8187 13.8262 22.9752 13.8303L22.975 13.4544C22.975 13.0929 23.2681 12.7998 23.6296 12.7998ZM25.8906 19.0605H14.1088L14.1089 22.2524L14.1097 22.3771C14.119 23.5359 14.2089 23.9652 14.4469 24.4103C14.6465 24.7834 14.9314 25.0684 15.3045 25.2679L15.3513 25.2924L15.399 25.3162C15.8138 25.518 16.264 25.5974 17.3402 25.6053L17.5292 25.6059H22.4704C23.7721 25.6059 24.2274 25.518 24.6951 25.2679C25.0682 25.0684 25.3531 24.7834 25.5527 24.4103L25.5771 24.3636L25.601 24.3158C25.8028 23.901 25.8821 23.4509 25.89 22.3746L25.8907 22.1856L25.8906 19.0605ZM22.4704 15.1332H17.4624L17.3377 15.134C17.249 15.1347 17.1645 15.1359 17.084 15.1376L17.0841 15.979C17.0841 16.3405 16.7911 16.6336 16.4296 16.6336C16.0769 16.6336 15.7893 16.3546 15.7755 16.0054L15.775 15.979L15.775 15.2792C15.6012 15.3283 15.4538 15.3914 15.3045 15.4713C14.9314 15.6708 14.6465 15.9558 14.4469 16.3288L14.4225 16.3756C14.2485 16.7156 14.1588 17.0643 14.1251 17.7513H25.8745C25.8392 17.0328 25.7428 16.6844 25.5527 16.3288C25.3531 15.9558 25.0682 15.6708 24.6951 15.4713L24.6483 15.4468C24.5323 15.3874 24.4153 15.3379 24.2842 15.297L24.2841 15.979C24.2841 16.3405 23.9911 16.6336 23.6296 16.6336C23.2769 16.6336 22.9893 16.3546 22.9755 16.0054L22.975 15.979L22.9752 15.1387C22.8762 15.1363 22.7712 15.1347 22.6594 15.1339L22.4704 15.1332Z" fill="#56606D"/>
</g>
<defs>
<filter id="filter0_d_10277_46858" x="-62" y="-463" width="470" height="773" filterUnits="userSpaceOnUse" color-interpolation-filters="sRGB">
<feFlood flood-opacity="0" result="BackgroundImageFix"/>
<feColorMatrix in="SourceAlpha" type="matrix" values="0 0 0 0 0 0 0 0 0 0 0 0 0 0 0 0 0 0 127 0" result="hardAlpha"/>
<feOffset dy="20"/>
<feGaussianBlur stdDeviation="15"/>
<feColorMatrix type="matrix" values="0 0 0 0 0.0377257 0 0 0 0 0.10428 0 0 0 0 0.170833 0 0 0 0.2 0"/>
<feBlend mode="normal" in2="BackgroundImageFix" result="effect1_dropShadow_10277_46858"/>
<feBlend mode="normal" in="SourceGraphic" in2="effect1_dropShadow_10277_46858" result="shape"/>
</filter>
</defs>
</svg>
