<svg width="40" height="40" viewBox="0 0 40 40" fill="none" xmlns="http://www.w3.org/2000/svg">
<rect width="40" height="40" fill="#E5E5E5"/>
<g filter="url(#filter0_d_10277_46858)">
<rect x="-32" y="-311" width="410" height="713" rx="10" fill="white"/>
<circle cx="20" cy="20" r="20" fill="#EBEEF1"/>
<path d="M21.2478 12.7998C21.905 12.7998 22.4378 13.3326 22.4378 13.9899L22.4378 14.1839C22.4378 14.6253 22.7956 14.983 23.2369 14.9831C23.3772 14.9831 23.515 14.9461 23.6365 14.876L23.8046 14.779C24.3738 14.4503 25.1016 14.6454 25.4303 15.2146L26.8584 17.6881C27.1812 18.2473 26.9987 18.9597 26.4524 19.2961L26.4227 19.3138L26.2547 19.4108C25.8915 19.6205 25.767 20.085 25.9767 20.4482C26.0434 20.5637 26.1392 20.6595 26.2547 20.7262L26.3633 20.7889C26.9325 21.1175 27.1275 21.8454 26.7989 22.4146L25.4303 24.785C25.1074 25.3443 24.3992 25.5423 23.8347 25.2375L23.8046 25.2206L23.6365 25.1236C23.2543 24.9029 22.7656 25.0338 22.5449 25.416C22.4747 25.5375 22.4378 25.6753 22.4378 25.8156L22.4378 26.0097C22.4379 26.6558 21.923 27.1817 21.2811 27.1994L21.2478 27.1998H18.3916C17.7343 27.1998 17.2015 26.667 17.2015 26.0097L17.2015 25.9187C17.2014 25.5102 16.8703 25.1791 16.4618 25.1791C16.332 25.1791 16.2045 25.2133 16.092 25.2782L16.0133 25.3237C15.4541 25.6466 14.7417 25.464 14.4052 24.9177L14.3876 24.8881L12.9595 22.4146C12.6309 21.8454 12.8259 21.1175 13.3951 20.7889L13.5632 20.6918C13.9454 20.4711 14.0763 19.9824 13.8557 19.6002C13.7855 19.4787 13.6846 19.3778 13.5632 19.3077L13.3951 19.2107C12.8359 18.8879 12.6378 18.1797 12.9426 17.6152L12.9595 17.585L14.3281 15.2146C14.6567 14.6454 15.3846 14.4503 15.9538 14.779L16.0623 14.8416C16.4255 15.0513 16.89 14.9269 17.0997 14.5636C17.1664 14.4482 17.2014 14.3172 17.2015 14.1839L17.2015 13.9899C17.2015 13.3326 17.7343 12.7998 18.3916 12.7998H21.2478ZM18.5106 14.1088L18.5105 14.1839C18.5105 14.547 18.415 14.9037 18.2334 15.2181C17.669 16.1957 16.4271 16.5383 15.4432 15.9953L15.4024 15.9721L14.1528 18.1364L14.2177 18.1739C14.5221 18.3497 14.7776 18.5987 14.961 18.8979L14.9894 18.9456C15.5647 19.9421 15.2341 21.213 14.2531 21.8046L14.2178 21.8255L14.1528 21.863L15.462 24.1307L15.487 24.1168C15.7695 23.964 16.084 23.8797 16.4051 23.8708L16.4618 23.87C17.5672 23.87 18.4682 24.7455 18.5091 25.841L18.5104 25.8907H21.1288L21.1287 25.8156C21.1287 25.464 21.2166 25.1183 21.3841 24.8098L21.4112 24.7614C21.9865 23.765 23.2525 23.4159 24.2554 23.9697L24.2911 23.9899L24.3561 24.0273L25.6057 21.863L25.6001 21.8599C25.3014 21.6874 25.0508 21.4431 24.8708 21.1495L24.843 21.1027C24.2786 20.1251 24.6029 18.8783 25.5651 18.2977L25.6002 18.2771L25.6652 18.2396L24.3561 15.9721L24.291 16.0097C23.9865 16.1855 23.6432 16.2822 23.2923 16.2914L23.2369 16.2922C22.0856 16.2921 21.1499 15.3693 21.1291 14.2229L21.1287 14.1837L21.1288 14.1089L18.5106 14.1088ZM19.9215 16.7271C21.729 16.7271 23.1942 18.1923 23.1942 19.9998C23.1942 21.8073 21.729 23.2725 19.9215 23.2725C18.114 23.2725 16.6487 21.8073 16.6487 19.9998C16.6487 18.1923 18.114 16.7271 19.9215 16.7271ZM19.9215 18.0362C18.837 18.0362 17.9578 18.9153 17.9578 19.9998C17.9578 21.0843 18.837 21.9634 19.9215 21.9634C21.006 21.9634 21.8851 21.0843 21.8851 19.9998C21.8851 18.9153 21.006 18.0362 19.9215 18.0362Z" fill="#56606D"/>
</g>
<defs>
<filter id="filter0_d_10277_46858" x="-62" y="-321" width="470" height="773" filterUnits="userSpaceOnUse" color-interpolation-filters="sRGB">
<feFlood flood-opacity="0" result="BackgroundImageFix"/>
<feColorMatrix in="SourceAlpha" type="matrix" values="0 0 0 0 0 0 0 0 0 0 0 0 0 0 0 0 0 0 127 0" result="hardAlpha"/>
<feOffset dy="20"/>
<feGaussianBlur stdDeviation="15"/>
<feColorMatrix type="matrix" values="0 0 0 0 0.0377257 0 0 0 0 0.10428 0 0 0 0 0.170833 0 0 0 0.2 0"/>
<feBlend mode="normal" in2="BackgroundImageFix" result="effect1_dropShadow_10277_46858"/>
<feBlend mode="normal" in="SourceGraphic" in2="effect1_dropShadow_10277_46858" result="shape"/>
</filter>
</defs>
</svg>
