<svg width="65" height="66" viewBox="0 0 65 66" fill="none" xmlns="http://www.w3.org/2000/svg">
    <path fill-rule="evenodd" clip-rule="evenodd" d="M26.6619 0.701324H37.857C46.8357 0.701324 50.3982 1.69651 53.8924 3.56525C57.3866 5.43399 60.1289 8.17629 61.9976 11.6705L62.1397 11.9395C63.8934 15.3061 64.8365 18.8626 64.8615 27.3633V38.5585C64.8615 47.5373 63.8664 51.0998 61.9976 54.594C60.1289 58.0882 57.3866 60.8305 53.8924 62.6993L53.6234 62.8413C50.2568 64.595 46.7004 65.5382 38.1997 65.5632H27.0046C18.0258 65.5632 14.4634 64.568 10.9692 62.6993C7.47493 60.8305 4.73264 58.0882 2.86391 54.594L2.72188 54.325C0.968178 50.9584 0.0250071 47.4019 0 38.9012V27.706C0 18.7272 0.995176 15.1648 2.86391 11.6705C4.73264 8.17629 7.47493 5.43399 10.9692 3.56525L11.2382 3.42322C14.6047 1.66951 18.1612 0.726332 26.6619 0.701324Z" fill="#0218A7"/>
    <path d="M32.6987 40.3687C39.5078 40.3687 45.0277 34.8488 45.0277 28.0397C45.0277 21.2306 39.5078 15.7108 32.6987 15.7108C25.8895 15.7108 20.3696 21.2306 20.3696 28.0397C20.3696 34.8488 25.8895 40.3687 32.6987 40.3687Z" fill="#FFC600"/>
    <path fill-rule="evenodd" clip-rule="evenodd" d="M32.4307 12.4943C41.4602 12.4943 48.7801 19.6941 48.7801 28.5754C48.7801 37.4568 41.4602 44.6566 32.4307 44.6566C23.9453 44.6566 16.9698 38.2985 16.1598 30.1617C16.2839 27.3142 16.5541 25.1479 16.9633 23.3524C19.1675 17.0348 25.26 12.4943 32.4307 12.4943ZM32.4307 17.3186C26.0479 17.3186 20.9057 22.3765 20.9057 28.5754C20.9057 34.7744 26.0479 39.8322 32.4307 39.8322C38.8135 39.8322 43.9557 34.7744 43.9557 28.5754C43.9557 22.3765 38.8135 17.3186 32.4307 17.3186Z" fill="#FF458B"/>
    <path d="M48.7801 28.5761H16.0815V53.2339H48.7801V28.5761Z" fill="#0149FF"/>
    <path fill-rule="evenodd" clip-rule="evenodd" d="M32.6987 35.0081C34.475 35.0081 35.915 36.3527 35.915 38.0113C35.915 39.2667 35.09 40.3421 33.9186 40.7908L33.9187 44.1211H31.4788L31.4788 40.7908C30.3075 40.3421 29.4825 39.2667 29.4825 38.0113C29.4825 36.3527 30.9224 35.0081 32.6987 35.0081Z" fill="#0218A7"/>
</svg>
