<svg width="18" height="18" viewBox="0 0 18 18" fill="none" xmlns="http://www.w3.org/2000/svg">
    <rect class="ag-info-rect" width="18" height="18" rx="9" fill="#93A1AF"/>
    <path class="ag-info-path" fill-rule="evenodd" clip-rule="evenodd" d="M9.00293 13.333C9.55522 13.333 10.0029 12.8853 10.0029 12.333L10.0029 8.99968C10.0029 8.44739 9.55522 7.99968 9.00293 7.99968C8.45065 7.99968 8.00293 8.44739 8.00293 8.99968L8.00293 12.333C8.00293 12.8853 8.45065 13.333 9.00293 13.333ZM8.99902 6.99975C9.68938 6.99975 10.249 6.44011 10.249 5.74975C10.249 5.0594 9.68938 4.49975 8.99902 4.49975C8.30867 4.49975 7.74902 5.0594 7.74902 5.74975C7.74902 6.44011 8.30867 6.99975 8.99902 6.99975Z" fill="white"/>
</svg>
