<svg width="40" height="40" viewBox="0 0 65 65" fill="none" xmlns="http://www.w3.org/2000/svg">
<path fill-rule="evenodd" clip-rule="evenodd" d="M27.3849 0.861511H38.58C47.5586 0.861511 51.1211 1.85669 54.6153 3.72542C58.1095 5.59415 60.8518 8.33644 62.7205 11.8307L62.8625 12.0997C64.6162 15.4663 65.5594 19.0227 65.5844 27.5234V38.7185C65.5844 47.6972 64.5892 51.2597 62.7205 54.7539C60.8518 58.2481 58.1095 60.9904 54.6153 62.8592L54.3463 63.0012C50.9797 64.7549 47.4233 65.6981 38.9226 65.7231H27.7276C18.7489 65.7231 15.1865 64.7279 11.6922 62.8592C8.19804 60.9904 5.45576 58.2481 3.58704 54.7539L3.44502 54.4849C1.69132 51.1183 0.748152 47.5619 0.723145 39.0612V27.8661C0.723145 18.8873 1.71832 15.3249 3.58704 11.8307C5.45576 8.33644 8.19804 5.59415 11.6922 3.72542L11.9613 3.5834C15.3278 1.82969 18.8842 0.886518 27.3849 0.861511Z" fill="#FF458B"/>
<path d="M22.2797 46.0462C28.4305 46.0462 32.0727 43.2602 32.0969 38.5687C32.0727 34.625 29.4074 32.2129 24.535 31.1395L22.4124 30.6571C20.1691 30.1747 18.746 29.4269 18.7942 27.9556C18.8063 26.6048 19.9641 25.6279 22.2797 25.6279C24.6073 25.6279 25.8858 26.6772 26.0425 28.438H31.7592C31.7109 23.8188 28.0325 20.6952 22.2918 20.6952C16.6475 20.6952 12.5831 23.7706 12.6193 28.3656C12.6072 32.1164 15.2364 34.227 19.5058 35.2039L22.0867 35.8069C24.8003 36.434 26.0184 37.1697 26.0425 38.5567C26.0184 40.0642 24.6073 41.1135 22.2073 41.1135C19.5661 41.1135 17.8294 39.8833 17.6967 37.5074H11.9801C12.0525 43.2843 16.0686 46.0462 22.2797 46.0462ZM44.4709 46.0703C50.2599 46.0703 54.3725 43.007 54.3605 38.7134C54.3725 35.6742 52.3825 33.5033 48.5714 33.0571V32.8641C51.4297 32.4541 53.4559 30.5365 53.4438 27.7626C53.4559 23.7344 49.8136 20.6952 44.5191 20.6952C39.1884 20.6952 35.305 23.7827 35.2567 28.1726H40.9613C41.0095 26.4842 42.5291 25.3505 44.5191 25.3505C46.4126 25.3505 47.7031 26.4962 47.691 28.1485C47.7031 29.8611 46.1834 31.043 43.9884 31.043H41.5884V35.2883H43.9884C46.4849 35.2883 48.1131 36.5184 48.089 38.2551C48.1131 40.0039 46.6176 41.222 44.495 41.222C42.3844 41.222 40.8286 40.1004 40.7683 38.4722H34.7622C34.8105 42.9346 38.8266 46.0703 44.4709 46.0703Z" fill="white"/>
</svg>
