<svg width="40" height="41" viewBox="0 0 40 41" fill="none" xmlns="http://www.w3.org/2000/svg">
<circle cx="20" cy="20.5" r="20" fill="#EBEEF1"/>
<path d="M20.0176 20.744C20.3733 20.744 20.6632 21.0252 20.6771 21.3774L20.6776 21.404V27.0398C20.6776 27.4043 20.3822 27.6998 20.0176 27.6998C19.662 27.6998 19.3721 27.4186 19.3582 27.0663L19.3576 27.0398V21.404C19.3576 21.0395 19.6531 20.744 20.0176 20.744ZM20.0176 18.2117C21.7316 18.2117 23.1244 19.5873 23.152 21.2947L23.1525 21.3465V25.3062C23.1525 25.6707 22.857 25.9662 22.4925 25.9662C22.1368 25.9662 21.8469 25.6849 21.833 25.3327L21.8325 25.3062V21.3465C21.8325 20.3442 21.0199 19.5317 20.0176 19.5317C19.028 19.5317 18.2234 20.3238 18.2032 21.3085L18.2028 21.3465V25.3062C18.2028 25.6707 17.9073 25.9662 17.5428 25.9662C17.1872 25.9662 16.8973 25.6849 16.8834 25.3327L16.8828 25.3062V21.3465C16.8828 19.6152 18.2863 18.2117 20.0176 18.2117ZM20.0176 15.7397C23.0085 15.7397 25.4387 18.14 25.487 21.1193L25.4877 21.2098V24.4165C25.4877 24.781 25.1922 25.0765 24.8277 25.0765C24.4721 25.0765 24.1822 24.7952 24.1682 24.443L24.1677 24.4165V21.2098C24.1677 18.9177 22.3097 17.0597 20.0176 17.0597C17.7485 17.0597 15.9048 18.8808 15.8681 21.1411L15.8676 21.2098V24.4165C15.8676 24.781 15.5721 25.0765 15.2076 25.0765C14.852 25.0765 14.562 24.7952 14.5481 24.443L14.5476 24.4165V21.2098C14.5476 18.1887 16.9966 15.7397 20.0176 15.7397ZM20.0176 13.2998C23.1988 13.2998 25.9501 15.056 27.1725 17.8803C27.3173 18.2148 27.1635 18.6034 26.829 18.7482C26.4945 18.893 26.1059 18.7392 25.9611 18.4046C24.9505 16.0697 22.6791 14.6198 20.0176 14.6198C17.3569 14.6198 15.0843 16.0692 14.0652 18.4063C13.9195 18.7404 13.5305 18.8931 13.1964 18.7475C12.8623 18.6018 12.7095 18.2128 12.8552 17.8787C14.0867 15.0545 16.838 13.2998 20.0176 13.2998Z" fill="#56606D"/>
</svg>
