<svg width="16" height="16" viewBox="0 0 16 16" fill="none" xmlns="http://www.w3.org/2000/svg">
<path d="M14.5762 3.86476C14.9206 3.86476 15.1998 4.14397 15.1998 4.48838C15.1998 4.8244 14.9341 5.09835 14.6013 5.11151L14.5762 5.11201H13.2896L12.3256 12.9845C12.1864 14.1218 11.2206 14.9766 10.0747 14.9766H6.01806C4.8809 14.9766 3.91958 14.1344 3.77004 13.0071L2.72271 5.11201H1.42343C1.07901 5.11201 0.799805 4.8328 0.799805 4.48838C0.799805 4.15237 1.06556 3.87842 1.39834 3.86526L1.42343 3.86476H14.5762ZM12.0331 5.11201H3.98096L5.00645 12.8431C5.07242 13.3404 5.48952 13.7144 5.98806 13.7289L6.01806 13.7293H10.0747C10.5802 13.7293 11.0079 13.3596 11.0835 12.8628L11.0876 12.8329L12.0331 5.11201ZM7.05993 7.32448L7.06398 7.34966L7.06697 7.37457L7.46392 11.3441C7.49819 11.6868 7.24815 11.9924 6.90544 12.0266C6.57109 12.0601 6.27206 11.8229 6.22585 11.4931L6.22286 11.4682L5.82591 7.49868C5.79164 7.15597 6.04168 6.85037 6.38439 6.8161C6.71016 6.78352 7.00241 7.00785 7.05993 7.32448ZM9.84197 6.81634C10.1763 6.84978 10.4225 7.14147 10.4024 7.47391L10.4004 7.49892L10.0038 11.4654C9.96952 11.8081 9.66392 12.0582 9.32121 12.0239C8.98686 11.9905 8.74072 11.6988 8.76074 11.3663L8.76274 11.3413L9.15939 7.37482C9.19366 7.03211 9.49926 6.78207 9.84197 6.81634ZM10.0407 1.2002C10.3852 1.2002 10.6644 1.4794 10.6644 1.82382C10.6644 2.15983 10.3986 2.43378 10.0658 2.44694L10.0407 2.44744H5.95886C5.61444 2.44744 5.33524 2.16823 5.33524 1.82382C5.33524 1.4878 5.60099 1.21385 5.93378 1.20069L5.95886 1.2002H10.0407Z" fill="black"/>
</svg>
