<svg width="20" height="20" viewBox="0 0 20 20" fill="none" xmlns="http://www.w3.org/2000/svg">
<path fill-rule="evenodd" clip-rule="evenodd" d="M2.5 2.50065C2.5 1.58018 3.24619 0.833984 4.16667 0.833984H15.8333C16.7538 0.833984 17.5 1.58018 17.5 2.50065V17.5006C17.5 18.4211 16.7538 19.1673 15.8333 19.1673H4.16667C3.24619 19.1673 2.5 18.4211 2.5 17.5006V2.50065ZM6.25 6.66732C6.71025 6.66732 7.08333 6.29423 7.08333 5.83398C7.08333 5.37373 6.71025 5.00065 6.25 5.00065C5.78975 5.00065 5.41667 5.37373 5.41667 5.83398C5.41667 6.29423 5.78975 6.66732 6.25 6.66732ZM7.91667 5.83398C7.91667 5.37375 8.28976 5.00065 8.75 5.00065H13.75C14.2102 5.00065 14.5833 5.37375 14.5833 5.83398C14.5833 6.29422 14.2102 6.66732 13.75 6.66732H8.75C8.28976 6.66732 7.91667 6.29422 7.91667 5.83398ZM8.75 9.16732C8.28976 9.16732 7.91667 9.54041 7.91667 10.0007C7.91667 10.4609 8.28976 10.834 8.75 10.834H13.75C14.2102 10.834 14.5833 10.4609 14.5833 10.0007C14.5833 9.54041 14.2102 9.16732 13.75 9.16732H8.75ZM8.75 13.334C8.28976 13.334 7.91667 13.7071 7.91667 14.1673C7.91667 14.6276 8.28976 15.0006 8.75 15.0006H13.75C14.2102 15.0006 14.5833 14.6276 14.5833 14.1673C14.5833 13.7071 14.2102 13.334 13.75 13.334H8.75ZM6.25 10.834C6.71025 10.834 7.08333 10.4609 7.08333 10.0007C7.08333 9.5404 6.71025 9.16732 6.25 9.16732C5.78975 9.16732 5.41667 9.5404 5.41667 10.0007C5.41667 10.4609 5.78975 10.834 6.25 10.834ZM6.25 15.0006C6.71025 15.0006 7.08333 14.6276 7.08333 14.1673C7.08333 13.7071 6.71025 13.334 6.25 13.334C5.78975 13.334 5.41667 13.7071 5.41667 14.1673C5.41667 14.6276 5.78975 15.0006 6.25 15.0006Z" fill="#586474"/>
</svg>
