<svg fill="none" height="20" width="20" version="1.1" id="Capa_1" xmlns="http://www.w3.org/2000/svg" xmlns:xlink="http://www.w3.org/1999/xlink" 
	 viewBox="0 0 490.766 490.766" xml:space="preserve">
<g>
	<path d="M472.554,319.199c-9.4-0.7-28.8,9.8-34.1,12.5c-18.9,9.5-45.2,24.4-62.5,36.3c-1.2,0.8-2.8,1.9-4,2.7
		c-7.8,5-16,8.3-25.1,10.3c-50.2,10.7-123.3,11.8-123.3,11.8l-4.3,0.2c-3.2,0.2-6.1-2.1-6.5-5.2c-0.5-3.4,2-6.6,5.6-6.9l108.7-10.3
		c12-1.3,21.5-12.5,20.2-25.1s-12.9-21.8-24.9-20.5l-96.7-1.2c-6.6-0.1-17.1-1.7-23.4-3.6c-62.3-18.2-97.5-1.2-116.2,6.8
		c-4.2-6.9-12.1-11.4-20.9-10.8l-41.7,2.8c-13.9,0.9-24.3,12.5-23.4,25.9l6.7,92.6c1,13.4,13,23.5,26.9,22.5l41.7-2.8
		c8.8-0.6,16-6,19.1-13.4l183.2,7.9c20.4,2.2,39.5-0.3,57.5-9.7l5.2-2.7l138.5-81c6.8-4,11.6-10.9,11.9-18.5
		C491.054,330.499,485.754,320.199,472.554,319.199z M48.954,438.099c-7.8,0-14.2-6.1-14.2-13.7s6.4-13.7,14.2-13.7
		s14.2,6.1,14.2,13.7S56.754,438.099,48.954,438.099z M369.554,351.099c0.2-2.5,0.2-5.1-0.1-7.7c-0.3-3.3-1.1-6.4-2.1-9.4
		c0.1-0.2,0.2-0.4,0.2-0.6c14.6-8,43.2-21.8,58.8-27.9c7.8-3.1,15.5-2.9,22.6,1.9c-5.6,2-10.8,4.5-15.7,6.9
		c-16.4,8.2-45.3,23.9-59.4,33.8C372.454,349.099,370.954,350.099,369.554,351.099z M411.354,296.199c-11.3,5-33,12.6-43.3,18.3
		l-7,3.8c-0.7,0.4-1.3,0.8-1.9,1.3c-3.1-3.7-6.8-6.8-10.9-9.3c9.6-5.1,31-12,40.7-15.8
		C396.754,291.399,404.254,291.599,411.354,296.199z M256.054,64.599c-29.7,0-53.7,24.1-53.7,53.7s24.1,53.7,53.7,53.7
		c29.7,0,53.7-24.1,53.7-53.7S285.754,64.599,256.054,64.599z M271.454,139.499c-2.3,2.8-5.4,4.8-9,5.7c-1.6,0.4-2.2,1.2-2.2,2.9
		c0.1,1.6,0,3.2,0,4.8c0,1.4-0.7,2.2-2.1,2.2c-1.7,0-3.4,0-5.1,0c-1.5,0-2.2-0.9-2.2-2.3c0-1.2,0-2.3,0-3.5c0-2.6-0.1-2.7-2.6-3.1
		c-3.1-0.5-6.2-1.2-9.1-2.6c-2.3-1.1-2.5-1.7-1.8-4c0.5-1.8,1-3.5,1.5-5.3c0.6-2,1.2-2.3,3-1.3c3.2,1.7,6.6,2.6,10.1,3
		c2.3,0.3,4.5,0.1,6.6-0.9c3.9-1.7,4.6-6.3,1.2-9.1c-1.1-0.9-2.4-1.6-3.8-2.2c-3.5-1.5-7.1-2.7-10.3-4.6c-5.3-3.2-8.7-7.5-8.3-14
		c0.4-7.3,4.6-11.9,11.3-14.3c2.8-1,2.8-1,2.8-3.9c0-1,0-2,0-2.9c0.1-2.2,0.4-2.5,2.6-2.6c0.7,0,1.3,0,2,0c4.6,0,4.6,0,4.6,4.6
		c0,3.3,0,3.3,3.3,3.8c2.5,0.4,4.9,1.1,7.2,2.1c1.3,0.6,1.8,1.4,1.4,2.8c-0.6,2-1.1,4-1.8,6c-0.6,1.9-1.2,2.1-3,1.3
		c-3.6-1.7-7.4-2.5-11.4-2.3c-1,0.1-2.1,0.2-3,0.6c-3.4,1.5-4,5.3-1.1,7.6c1.5,1.2,3.2,2,4.9,2.8c3,1.3,6.1,2.5,9,4.1
		C275.554,120.099,277.954,131.599,271.454,139.499z M349.154,118.299c0,8.2-6.7,14.9-14.9,14.9c-8.2,0-14.9-6.7-14.9-14.9
		s6.7-14.9,14.9-14.9C342.454,103.399,349.154,110.099,349.154,118.299z M192.854,118.299c0,8.2-6.7,14.9-14.9,14.9
		s-14.9-6.7-14.9-14.9s6.7-14.9,14.9-14.9C186.154,103.399,192.854,110.099,192.854,118.299z M373.054,30.699h-234
		c-13.5,0-24.5,11-24.5,24.5v126.2c0,13.5,11,24.5,24.5,24.5h234c13.5,0,24.5-11,24.5-24.5v-126.2
		C397.554,41.699,386.554,30.699,373.054,30.699z M376.654,157.899c-2-0.5-4-0.8-6.1-0.8c-13.7,0-24.8,11.1-24.8,24.8
		c0,1,0.1,2.1,0.2,3.1h-181.7c0.3-1.5,0.4-3,0.4-4.6c0-13.7-11.1-24.8-24.8-24.8c-1.5,0-2.9,0.1-4.4,0.4v-75.4
		c1.4,0.3,2.9,0.4,4.4,0.4c13.7,0,24.8-11.1,24.8-24.8c0-1.6-0.1-3.1-0.4-4.6h182.2c-0.5,1.9-0.8,4-0.8,6.1
		c0,13.7,11.1,24.8,24.8,24.8c2.1,0,4.2-0.3,6.1-0.8v76.2H376.654z M114.954,232.999c0-5.8,4.7-10.5,10.5-10.5h261.7
		c5.8,0,10.5,4.7,10.5,10.5s-4.7,10.5-10.5,10.5h-261.8C119.654,243.499,114.954,238.799,114.954,232.999z M114.954,270.999
		c0-5.8,4.7-10.5,10.5-10.5h261.7c5.8,0,10.5,4.7,10.5,10.5s-4.7,10.5-10.5,10.5h-261.8
		C119.654,281.499,114.954,276.799,114.954,270.999z" fill="#586474"/>
</g>
</svg>