<svg width="20" height="18" viewBox="0 0 20 18" fill="none" xmlns="http://www.w3.org/2000/svg">
<path fill-rule="evenodd" clip-rule="evenodd" d="M9.996 0.250003C10.3133 0.249188 10.6035 0.428639 10.7446 0.712863L13.1308 5.52073L18.4523 6.29668C18.7658 6.34239 19.0262 6.56186 19.1244 6.86304C19.2225 7.16422 19.1414 7.49502 18.9151 7.71666L15.0444 11.5074L15.9636 16.7734C16.0183 17.0871 15.8895 17.4047 15.6315 17.5915C15.3736 17.7784 15.0317 17.8019 14.7507 17.6521L9.99818 15.119L5.24675 17.652C4.96552 17.802 4.62341 17.7784 4.36543 17.5912C4.10745 17.4041 3.97879 17.0862 4.03398 16.7724L4.95973 11.5074L1.08283 7.71717C0.856142 7.49555 0.774837 7.1645 0.87307 6.86308C0.971303 6.56165 1.23206 6.34208 1.5458 6.29658L6.8962 5.52074L9.24979 0.716704C9.38939 0.431758 9.67869 0.250818 9.996 0.250003ZM10.003 2.96758L8.1994 6.64896C8.07832 6.89612 7.84301 7.06755 7.57064 7.10704L3.45354 7.70405L6.43915 10.6229C6.63585 10.8152 6.72498 11.0922 6.67734 11.3631L5.97158 15.3769L9.60611 13.4393C9.85112 13.3087 10.1451 13.3087 10.3901 13.4393L14.0282 15.3784L13.3272 11.3621C13.28 11.0917 13.369 10.8154 13.5651 10.6234L16.5469 7.70314L12.4582 7.10695C12.1876 7.06749 11.9535 6.89777 11.832 6.6528L10.003 2.96758Z" fill="#586474"/>
</svg>
