<svg width="20" height="20" viewBox="0 0 20 20" fill="none" xmlns="http://www.w3.org/2000/svg">
<path fill-rule="evenodd" clip-rule="evenodd" d="M7.1595 5.95509C6.21995 6.23073 5.41536 7.00873 5.41536 8.13094C5.41536 8.92561 5.77129 9.55151 6.3613 9.94129C6.90384 10.2997 7.57734 10.4172 8.20591 10.4172L11.6654 10.4175L11.7852 10.4172C12.4138 10.4172 13.088 10.2997 13.6315 9.94223C14.2224 9.5536 14.582 8.92806 14.582 8.13094C14.582 7.37062 14.2809 6.75139 13.7476 6.34748C13.4693 6.13672 13.1547 6.00459 12.8355 5.92898C12.7176 5.41471 12.4741 4.95056 12.1066 4.57903C11.5663 4.0327 10.8214 3.75081 9.9986 3.75081C9.18143 3.75081 8.43641 4.02397 7.89429 4.57032C7.51798 4.94955 7.27357 5.42597 7.1595 5.95509ZM8.73903 8.75052C8.74653 8.75052 8.754 8.75062 8.76145 8.75081H11.2209C11.2283 8.75062 11.2358 8.75052 11.2433 8.75052H11.7852C12.241 8.75052 12.5485 8.65969 12.7157 8.54975C12.8354 8.47098 12.9153 8.37007 12.9153 8.13094C12.9153 7.844 12.8215 7.73679 12.7413 7.67608C12.6285 7.59064 12.4177 7.51441 12.1037 7.51148L12.0849 7.51169C11.6247 7.51169 11.2516 7.13859 11.2516 6.67836C11.2516 6.24477 11.1107 5.94219 10.9216 5.75103C10.7338 5.56108 10.4355 5.41748 9.9986 5.41748C9.55609 5.41748 9.26072 5.55947 9.07736 5.74425C8.89451 5.92852 8.75297 6.22612 8.75116 6.6697L8.7512 6.67806C8.7512 6.73474 8.74554 6.7901 8.73475 6.84361C8.65809 7.22469 8.32146 7.51169 7.91781 7.51169L7.90041 7.51151C7.34512 7.51902 7.08203 7.88433 7.08203 8.13094C7.08203 8.37251 7.1625 8.47307 7.27999 8.55068C7.44495 8.65966 7.75005 8.75052 8.20591 8.75052H8.73903Z" fill="#131D3A"/>
<path fill-rule="evenodd" clip-rule="evenodd" d="M2.94915 1.91213C3.03015 1.52628 3.37046 1.25 3.76471 1.25H16.2573C16.6523 1.25 16.993 1.52729 17.0732 1.91404L19.1462 11.9058C19.1588 11.9632 19.1654 12.0229 19.1654 12.0841V17.5008C19.1654 17.9611 18.7923 18.3341 18.332 18.3341H1.66536C1.20513 18.3341 0.832031 17.9611 0.832031 17.5008V12.0841C0.832031 12.0208 0.83909 11.9592 0.852463 11.8999L2.94915 1.91213ZM15.5791 2.91667L17.3082 11.2508H2.69172L4.44127 2.91667H15.5791ZM15.832 14.7925C15.832 15.3678 15.3657 15.8341 14.7904 15.8341C14.2151 15.8341 13.7487 15.3678 13.7487 14.7925C13.7487 14.2172 14.2151 13.7508 14.7904 13.7508C15.3657 13.7508 15.832 14.2172 15.832 14.7925Z" fill="#131D3A"/>
</svg>
