<svg width="20" height="20" viewBox="0 0 20 20" fill="none" xmlns="http://www.w3.org/2000/svg">
<path d="M14 10H16V14H14V10Z" fill="#586474"/>
<path d="M17.2 5.50039V3.70039C17.2 2.70769 16.3927 1.90039 15.4 1.90039H3.7C2.2114 1.90039 1 3.11179 1 4.60039V15.4004C1 17.3813 2.6146 18.1004 3.7 18.1004H17.2C18.1927 18.1004 19 17.2931 19 16.3004V7.30039C19 6.30769 18.1927 5.50039 17.2 5.50039ZM3.7 3.70039H15.4V5.50039H3.7C3.46827 5.49002 3.24946 5.39067 3.08915 5.22303C2.92883 5.05538 2.83936 4.83235 2.83936 4.60039C2.83936 4.36843 2.92883 4.1454 3.08915 3.97775C3.24946 3.81011 3.46827 3.71076 3.7 3.70039ZM17.2 16.3004H3.7108C3.295 16.2896 2.8 16.1249 2.8 15.4004V7.13389C3.0826 7.23559 3.3823 7.30039 3.7 7.30039H17.2V16.3004Z" fill="#586474"/>
</svg>
