<svg width="268" height="68" viewBox="0 0 268 68" fill="none" xmlns="http://www.w3.org/2000/svg">
    <path fill-rule="evenodd" clip-rule="evenodd" d="M192.5 40.2803H206.5V54.2803H192.5V40.2803Z" fill="#00E567"/>
    <path fill-rule="evenodd" clip-rule="evenodd" d="M92.5 1.42285H102.5V11.4229H92.5V1.42285Z" fill="#FF458B"/>
    <path fill-rule="evenodd" clip-rule="evenodd" d="M209.643 19.709H215.643V25.709H209.643V19.709Z" fill="#FF458B"/>
    <path fill-rule="evenodd" clip-rule="evenodd" d="M47.3574 19.9941H53.3574V25.9941H47.3574V19.9941Z" fill="#00E567"/>
    <path fill-rule="evenodd" clip-rule="evenodd" d="M261.5 11.4229H267.5V17.4229H261.5V11.4229Z" fill="#0149FF"/>
    <path fill-rule="evenodd" clip-rule="evenodd" d="M0.5 52.4229H6.5V58.4229H0.5V52.4229Z" fill="#0149FF"/>
    <path fill-rule="evenodd" clip-rule="evenodd" d="M240.357 34.5654H246.357V40.5654H240.357V34.5654Z" fill="#FFC600"/>
    <path fill-rule="evenodd" clip-rule="evenodd" d="M63.6426 49.2803H81.6426V67.2803H63.6426V49.2803Z" fill="#FFC600"/>
    <path fill-rule="evenodd" clip-rule="evenodd" d="M164.785 9.42285H178.785V23.4229H164.785V9.42285Z" fill="#0149FF"/>
    <path fill-rule="evenodd" clip-rule="evenodd" d="M137.752 0L157.63 19.8787V66.9746H110.5V0L137.752 0Z" fill="#0149FF"/>
    <path fill-rule="evenodd" clip-rule="evenodd" d="M137.756 19.8789V0.000156403L157.635 19.8789L137.756 19.8789Z" fill="#00127F"/>
    <circle cx="134" cy="37.8901" r="14" fill="#0218A7"/>
    <path fill-rule="evenodd" clip-rule="evenodd" d="M142.996 37.9984L141.285 39.5879L140.521 38.8543L139.719 39.5879L138.689 38.8543L137.963 39.5879L137.215 38.8543L136.304 39.5879L134.743 39.5877L133.507 41.7283C133.289 42.1066 132.885 42.3397 132.448 42.3397L128.847 42.3397C128.411 42.3397 128.007 42.1066 127.788 41.7283L125.988 38.6097C125.77 38.2315 125.77 37.7654 125.988 37.3871L127.788 34.2685C128.007 33.8902 128.411 33.6572 128.847 33.6572L132.448 33.6572C132.885 33.6572 133.289 33.8902 133.507 34.2685L134.743 36.4089L141.285 36.409L142.996 37.9984ZM130.526 37.9984C130.526 37.2557 129.923 36.6535 129.181 36.6535C128.438 36.6535 127.836 37.2557 127.836 37.9984C127.836 38.7412 128.438 39.3433 129.181 39.3433C129.923 39.3433 130.526 38.7412 130.526 37.9984Z" fill="white"/>
</svg>
