<svg width="91" height="98" viewBox="0 0 91 98" fill="none" xmlns="http://www.w3.org/2000/svg">
    <path fill-rule="evenodd" clip-rule="evenodd" d="M27.2515 30.0879L47.1303 49.9666V97.0625H0V30.0879L27.2515 30.0879Z" fill="#0149FF"/>
    <path fill-rule="evenodd" clip-rule="evenodd" d="M27.256 49.9668L27.256 30.088L47.1348 49.9668L27.256 49.9668Z" fill="#00127F"/>
    <path d="M72.2774 16.0015L81.1709 24.895L90.0644 16.0015L81.1709 7.10803L72.2774 16.0015Z" fill="#FFC600"/>
    <path d="M50.1523 26.4877V34.1738H57.8385V26.4877H50.1523Z" fill="#00E567"/>
    <path d="M30.7741 6.12L36.209 11.5549L41.6439 6.12L36.209 0.685074L30.7741 6.12Z" fill="#FF458B"/>
    <path d="M14 16.5204V21.4116H18.8912V16.5204H14Z" fill="#0149FF"/>
    <path fill-rule="evenodd" clip-rule="evenodd" d="M37.9984 64.0863L35.1154 66.7634L33.8295 65.5278L32.4777 66.7634L30.7435 65.5278L29.5201 66.7634L28.2608 65.5278L26.7257 66.7634L24.0972 66.7632L22.0154 70.3687C21.6475 71.0058 20.9677 71.3983 20.232 71.3983H14.1667C13.4309 71.3983 12.7511 71.0058 12.3832 70.3687L9.35059 65.116C8.98273 64.4788 8.98273 63.6938 9.35059 63.0567L12.3832 57.8039C12.7511 57.1668 13.4309 56.7743 14.1667 56.7743L20.232 56.7743C20.9677 56.7743 21.6475 57.1668 22.0154 57.804L24.0972 61.409L35.1154 61.4092L37.9984 64.0863ZM16.9934 64.0863C16.9934 62.8353 15.9792 61.8211 14.7281 61.8211C13.4771 61.8211 12.4629 62.8353 12.4629 64.0863C12.4629 65.3374 13.4771 66.3516 14.7281 66.3516C15.9792 66.3516 16.9934 65.3374 16.9934 64.0863Z" fill="white"/>
</svg>
