<svg width="268" height="72" viewBox="0 0 268 72" fill="none" xmlns="http://www.w3.org/2000/svg">
    <path fill-rule="evenodd" clip-rule="evenodd" d="M192.5 44.78H206.5V58.78H192.5V44.78Z" fill="#00E567"/>
    <path fill-rule="evenodd" clip-rule="evenodd" d="M92.5 5.92261H102.5V15.9226H92.5V5.92261Z" fill="#FF458B"/>
    <path fill-rule="evenodd" clip-rule="evenodd" d="M209.643 24.2087H215.643V30.2087H209.643V24.2087Z" fill="#FF458B"/>
    <path fill-rule="evenodd" clip-rule="evenodd" d="M47.3574 24.4939H53.3574V30.4939H47.3574V24.4939Z" fill="#00E567"/>
    <path fill-rule="evenodd" clip-rule="evenodd" d="M261.5 15.9226H267.5V21.9226H261.5V15.9226Z" fill="#0149FF"/>
    <path fill-rule="evenodd" clip-rule="evenodd" d="M0.5 56.9226H6.5V62.9226H0.5V56.9226Z" fill="#0149FF"/>
    <path fill-rule="evenodd" clip-rule="evenodd" d="M240.357 39.0652H246.357V45.0652H240.357V39.0652Z" fill="#FFC600"/>
    <path fill-rule="evenodd" clip-rule="evenodd" d="M63.6426 53.78H81.6426V71.78H63.6426V53.78Z" fill="#FFC600"/>
    <path fill-rule="evenodd" clip-rule="evenodd" d="M164.785 13.9226H178.785V27.9226H164.785V13.9226Z" fill="#0149FF"/>
    <path fill-rule="evenodd" clip-rule="evenodd" d="M137.752 0L157.63 19.8787V66.9746H110.5V0L137.752 0Z" fill="#0149FF"/>
    <path fill-rule="evenodd" clip-rule="evenodd" d="M137.756 19.879V0.000278473L157.635 19.879L137.756 19.879Z" fill="#00127F"/>
    <circle cx="134" cy="37.89" r="14" fill="#00D459"/>
    <path d="M127.036 38.9486C126.35 38.2619 126.35 37.1485 127.036 36.4618C127.723 35.7751 128.836 35.7751 129.523 36.4618L133.668 40.6065C134.355 41.2932 134.355 42.4066 133.668 43.0933C132.981 43.78 131.868 43.78 131.181 43.0933L127.036 38.9486Z" fill="white"/>
    <path d="M133.668 43.0933C132.981 43.78 131.868 43.78 131.181 43.0933C130.494 42.4066 130.494 41.2932 131.181 40.6065L138.642 33.146C139.328 32.4593 140.442 32.4593 141.128 33.146C141.815 33.8327 141.815 34.9461 141.128 35.6328L133.668 43.0933Z" fill="white"/>
</svg>
