<svg width="90" height="74" viewBox="0 0 90 74" fill="none" xmlns="http://www.w3.org/2000/svg">
    <path d="M66.4674 19.3047H52.5569V33.2151H66.4674V19.3047Z" fill="#FF458B"/>
    <path d="M89.9105 0H76V13.9105H89.9105V0Z" fill="#0149FF"/>
    <path d="M89.9105 40H76V53.9105H89.9105V40Z" fill="#00E366"/>
    <path d="M13.9105 33H0V46.9105H13.9105V33Z" fill="#FFC600"/>
    <circle cx="35" cy="37" r="13" fill="#00D459"/>
    <path d="M28.5337 37.9832C27.896 37.3455 27.896 36.3117 28.5337 35.674C29.1713 35.0363 30.2052 35.0363 30.8429 35.674L34.6915 39.5227C35.3292 40.1603 35.3292 41.1942 34.6915 41.8319C34.0538 42.4695 33.02 42.4695 32.3823 41.8319L28.5337 37.9832Z" fill="white"/>
    <path d="M34.6915 41.8319C34.0538 42.4695 33.02 42.4695 32.3823 41.8319C31.7447 41.1942 31.7447 40.1603 32.3823 39.5227L39.3099 32.5951C39.9476 31.9574 40.9814 31.9574 41.6191 32.5951C42.2568 33.2328 42.2568 34.2666 41.6191 34.9043L34.6915 41.8319Z" fill="white"/>
</svg>

