<svg width="16" height="16" viewBox="0 0 16 16" fill="none" xmlns="http://www.w3.org/2000/svg">
<path d="M10.9809 3.39993L11.0028 3.42096L14.9791 7.39724C15.2665 7.68465 15.2735 8.14627 15.0001 8.44217L14.9791 8.46405L11.0028 12.4403C10.7082 12.7349 10.2306 12.7349 9.93596 12.4403C9.64856 12.1529 9.64155 11.6913 9.91493 11.3954L9.93596 11.3735L12.6243 8.68494L1.55435 8.68499C1.13774 8.68499 0.800003 8.34726 0.800003 7.93065C0.800003 7.52419 1.12146 7.19282 1.52401 7.1769L1.55435 7.1763L12.6243 7.17625L9.93596 4.48776C9.64856 4.20036 9.64155 3.73874 9.91493 3.44283L9.93596 3.42096C10.2234 3.13355 10.685 3.12654 10.9809 3.39993Z" fill="white"/>
</svg>
