<svg width="268" height="77" viewBox="0 0 268 77" fill="none" xmlns="http://www.w3.org/2000/svg">
    <path fill-rule="evenodd" clip-rule="evenodd" d="M192.5 43.4653H206.5V57.4653H192.5V43.4653Z" fill="#00E567"/>
    <path fill-rule="evenodd" clip-rule="evenodd" d="M92.5 4.60791H102.5V14.6079H92.5V4.60791Z" fill="#FF458B"/>
    <path fill-rule="evenodd" clip-rule="evenodd" d="M209.643 22.894H215.643V28.894H209.643V22.894Z" fill="#FF458B"/>
    <path fill-rule="evenodd" clip-rule="evenodd" d="M47.3574 23.1792H53.3574V29.1792H47.3574V23.1792Z" fill="#00E567"/>
    <path fill-rule="evenodd" clip-rule="evenodd" d="M261.5 14.6079H267.5V20.6079H261.5V14.6079Z" fill="#0149FF"/>
    <path fill-rule="evenodd" clip-rule="evenodd" d="M0.5 55.6079H6.5V61.6079H0.5V55.6079Z" fill="#0149FF"/>
    <path fill-rule="evenodd" clip-rule="evenodd" d="M240.357 37.7505H246.357V43.7505H240.357V37.7505Z" fill="#FFC600"/>
    <path fill-rule="evenodd" clip-rule="evenodd" d="M63.6426 52.4653H81.6426V70.4653H63.6426V52.4653Z" fill="#FFC600"/>
    <path fill-rule="evenodd" clip-rule="evenodd" d="M164.785 5.60791H178.785V19.6079H164.785V5.60791Z" fill="#0149FF"/>
    <path fill-rule="evenodd" clip-rule="evenodd" d="M162.078 20.7275H104.5L113.137 69.2936H113.155C113.614 73.1037 122.453 76.1425 133.289 76.1425C144.125 76.1425 152.964 73.1037 153.423 69.2936H153.441L162.078 20.7275Z" fill="#0149FF"/>
    <ellipse cx="133.289" cy="20.4166" rx="28.789" ry="10.2736" fill="#00127F"/>
    <path fill-rule="evenodd" clip-rule="evenodd" d="M134.5 30.6808C134.098 30.6868 133.695 30.6897 133.289 30.6897C127.024 30.6897 121.226 29.9755 116.5 28.7628V20.5713H134.5V30.6808Z" fill="#00E567"/>
    <path fill-rule="evenodd" clip-rule="evenodd" d="M127.643 0H141.643V14H127.643V0Z" fill="#FFC600"/>
    <circle cx="166.214" cy="30.4288" r="18.2857" fill="#D9E0EE"/>
    <path d="M167.461 23.8444C167.461 23.1558 166.903 22.5977 166.214 22.5977C165.525 22.5977 164.967 23.1558 164.967 23.8444V29.1821H159.63C158.941 29.1821 158.383 29.7403 158.383 30.4288C158.383 31.1174 158.941 31.6756 159.63 31.6756H164.967V37.0132C164.967 37.7018 165.525 38.26 166.214 38.26C166.903 38.26 167.461 37.7018 167.461 37.0132V31.6756H172.798C173.487 31.6756 174.045 31.1174 174.045 30.4288C174.045 29.7403 173.487 29.1821 172.798 29.1821H167.461V23.8444Z" fill="#00127F"/>
</svg>
