<svg width="44" height="44" viewBox="0 0 44 44" fill="none" xmlns="http://www.w3.org/2000/svg">
<path d="M22 2.20001C32.9352 2.20001 41.7999 11.0648 41.7999 22C41.7999 32.9352 32.9352 41.8 22 41.8C11.0647 41.8 2.19995 32.9352 2.19995 22C2.19995 11.0648 11.0647 2.20001 22 2.20001ZM22 5.83001C13.0695 5.83001 5.82995 13.0696 5.82995 22C5.82995 30.9305 13.0695 38.17 22 38.17C30.9304 38.17 38.1699 30.9305 38.1699 22C38.1699 13.0696 30.9304 5.83001 22 5.83001ZM30.4453 16.5102C31.1369 17.2017 31.1537 18.3124 30.4959 19.0243L30.4453 19.0769L21.515 28.0073C21.2485 28.2738 20.9211 28.4438 20.577 28.5165C19.9854 28.7142 19.3069 28.5894 18.8194 28.1333L18.7982 28.1132L13.4952 22.8105C12.7864 22.1017 12.7864 20.9525 13.4952 20.2437C14.1867 19.5522 15.2974 19.5353 16.0093 20.1931L16.0619 20.2437L20.1037 24.285L27.8786 16.5102C28.5874 15.8013 29.7365 15.8013 30.4453 16.5102Z" fill="white"/>
</svg>
