<svg width="78" height="64" viewBox="0 0 78 64" fill="none" xmlns="http://www.w3.org/2000/svg">
    <g clip-path="url(#clip0)">
        <path fill-rule="evenodd" clip-rule="evenodd" d="M18.7466 0.0117188H58.8389C65.4087 0.0117188 67.7911 0.695775 70.1929 1.98029C72.5948 3.2648 74.4798 5.14978 75.7643 7.55161L75.8406 7.69573C77.0759 10.0504 77.7328 12.4672 77.7328 18.9057V44.485L77.732 44.8742C77.7052 51.1502 77.0231 53.4853 75.7643 55.8391C74.4798 58.2409 72.5948 60.1259 70.1929 61.4104C67.8151 62.6821 65.4564 63.3652 59.0347 63.379H18.9425C12.3726 63.379 9.99025 62.6949 7.58842 61.4104C5.18658 60.1259 3.30161 58.2409 2.01709 55.8391L1.94074 55.695C0.718095 53.3643 0.0619907 50.9728 0.0485229 44.6809V18.9057C0.0485229 12.3358 0.732579 9.95345 2.01709 7.55161C3.30161 5.14978 5.18658 3.2648 7.58842 1.98029C9.96623 0.70862 12.325 0.0254599 18.7466 0.0117188Z" fill="#0218A7"/>
        <path d="M11.707 14.481C13.7635 14.481 15.4306 12.8139 15.4306 10.7573C15.4306 8.70083 13.7635 7.03369 11.707 7.03369C9.65047 7.03369 7.98334 8.70083 7.98334 10.7573C7.98334 12.8139 9.65047 14.481 11.707 14.481Z" fill="#FF458B"/>
        <path d="M22.878 14.481C24.9345 14.481 26.6016 12.8139 26.6016 10.7573C26.6016 8.70083 24.9345 7.03369 22.878 7.03369C20.8214 7.03369 19.1543 8.70083 19.1543 10.7573C19.1543 12.8139 20.8214 14.481 22.878 14.481Z" fill="#FFC600"/>
        <path d="M34.0489 14.481C36.1054 14.481 37.7726 12.8139 37.7726 10.7573C37.7726 8.70083 36.1054 7.03369 34.0489 7.03369C31.9924 7.03369 30.3253 8.70083 30.3253 10.7573C30.3253 12.8139 31.9924 14.481 34.0489 14.481Z" fill="#00E567"/>
        <path fill-rule="evenodd" clip-rule="evenodd" d="M10.9471 19.5991H41.1488C42.7682 19.5991 44.0843 20.8979 44.1121 22.5107L44.1125 22.5628C44.1125 24.1997 42.7856 25.5266 41.1488 25.5266H10.9471C9.32765 25.5266 8.0116 24.2277 7.98379 22.615L7.98334 22.5628C7.98334 20.926 9.31024 19.5991 10.9471 19.5991Z" fill="#276CFF"/>
        <path fill-rule="evenodd" clip-rule="evenodd" d="M25.7657 29.9019H32.6811C34.3005 29.9019 35.6165 31.2007 35.6444 32.8134L35.6448 32.8656C35.6448 34.5024 34.3179 35.8293 32.6811 35.8293H25.7657C24.1463 35.8293 22.8303 34.5305 22.8025 32.9177L22.802 32.8656C22.802 31.2288 24.1289 29.9019 25.7657 29.9019Z" fill="#FF458B"/>
        <path fill-rule="evenodd" clip-rule="evenodd" d="M43.6892 29.9019H50.6045C52.2239 29.9019 53.54 31.2007 53.5678 32.8134L53.5683 32.8656C53.5683 34.5024 52.2414 35.8293 50.6045 35.8293H43.6892C42.0698 35.8293 40.7537 34.5305 40.7259 32.9177L40.7255 32.8656C40.7255 31.2288 42.0524 29.9019 43.6892 29.9019Z" fill="#00E567"/>
        <path fill-rule="evenodd" clip-rule="evenodd" d="M61.6127 29.9019H68.528C70.1474 29.9019 71.4635 31.2007 71.4913 32.8134L71.4917 32.8656C71.4917 34.5024 70.1648 35.8293 68.528 35.8293H61.6127C59.9932 35.8293 58.6772 34.5305 58.6494 32.9177L58.6489 32.8656C58.6489 31.2288 59.9758 29.9019 61.6127 29.9019Z" fill="#00E567"/>
        <path fill-rule="evenodd" clip-rule="evenodd" d="M52.0158 19.5991H59.9191C61.5385 19.5991 62.8545 20.8979 62.8824 22.5107L62.8828 22.5628C62.8828 24.1997 61.5559 25.5266 59.9191 25.5266H52.0158C50.3964 25.5266 49.0804 24.2277 49.0525 22.615L49.0521 22.5628C49.0521 20.926 50.379 19.5991 52.0158 19.5991Z" fill="#276CFF"/>
        <path fill-rule="evenodd" clip-rule="evenodd" d="M34.6569 40.2041H50.6045C52.2239 40.2041 53.54 41.5029 53.5678 43.1157L53.5683 43.1678C53.5683 44.8046 52.2414 46.1316 50.6045 46.1316H34.6569C33.0375 46.1316 31.7214 44.8327 31.6936 43.22L31.6931 43.1678C31.6931 41.531 33.0201 40.2041 34.6569 40.2041Z" fill="#276CFF"/>
        <path fill-rule="evenodd" clip-rule="evenodd" d="M34.6569 50.5068H41.1488C42.7682 50.5068 44.0843 51.8057 44.1121 53.4184L44.1126 53.4706C44.1126 55.1074 42.7857 56.4343 41.1488 56.4343H34.6569C33.0375 56.4343 31.7214 55.1355 31.6936 53.5227L31.6931 53.4706C31.6931 51.8337 33.0201 50.5068 34.6569 50.5068Z" fill="#276CFF"/>
        <path fill-rule="evenodd" clip-rule="evenodd" d="M52.0158 50.5068H59.9191C61.5385 50.5068 62.8545 51.8057 62.8824 53.4184L62.8828 53.4706C62.8828 55.1074 61.5559 56.4343 59.9191 56.4343H52.0158C50.3964 56.4343 49.0804 55.1355 49.0525 53.5227L49.0521 53.4706C49.0521 51.8337 50.379 50.5068 52.0158 50.5068Z" fill="#FF458B"/>
    </g>
    <defs>
        <clipPath id="clip0">
            <rect width="77.8378" height="64" fill="white"/>
        </clipPath>
    </defs>
</svg>
