<svg width="18" height="18" viewBox="0 0 18 18" fill="none" xmlns="http://www.w3.org/2000/svg">
    <path fill-rule="evenodd" clip-rule="evenodd" d="M9 18C13.9706 18 18 13.9706 18 9C18 4.02944 13.9706 0 9 0C4.02944 0 0 4.02944 0 9C0 13.9706 4.02944 18 9 18ZM11.1214 5.46447C11.5119 5.07394 12.1451 5.07394 12.5356 5.46447C12.9261 5.85499 12.9261 6.48816 12.5356 6.87868L10.4143 9L12.5356 11.1213C12.9261 11.5118 12.9261 12.145 12.5356 12.5355C12.1451 12.9261 11.5119 12.9261 11.1214 12.5355L9.00004 10.4142L6.87872 12.5355C6.4882 12.9261 5.85503 12.9261 5.46451 12.5355C5.07398 12.145 5.07398 11.5118 5.46451 11.1213L7.58583 9L5.46451 6.87868C5.07398 6.48816 5.07398 5.85499 5.46451 5.46447C5.85503 5.07394 6.4882 5.07394 6.87872 5.46447L9.00004 7.58579L11.1214 5.46447Z" fill="white"/>
</svg>
