<svg width="91" height="108" viewBox="0 0 91 108" fill="none" xmlns="http://www.w3.org/2000/svg">
    <path fill-rule="evenodd" clip-rule="evenodd" d="M27.2515 30.6426L47.1303 50.5213V97.6172H0V30.6426L27.2515 30.6426Z" fill="#0149FF"/>
    <path fill-rule="evenodd" clip-rule="evenodd" d="M27.2555 50.5215L27.2555 30.6427L47.1343 50.5215L27.2555 50.5215Z" fill="#00127F"/>
    <path d="M72.2774 16.4141L81.1709 25.3076L90.0644 16.4141L81.1709 7.52063L72.2774 16.4141Z" fill="#FFC600"/>
    <path d="M50.1523 26.8998V34.5859H57.8385V26.8998H50.1523Z" fill="#00E567"/>
    <path d="M30.7741 6.53187L36.209 11.9668L41.6439 6.53187L36.209 1.09694L30.7741 6.53187Z" fill="#FF458B"/>
    <path d="M14 16.933V21.8242H18.8912V16.933H14Z" fill="#0149FF"/>
    <circle cx="47.2857" cy="89.3013" r="18.2857" fill="#D9E0EE"/>
    <path d="M41 90.2168L47 96.2168L53 90.2168" stroke="#00127F" stroke-width="2" stroke-linecap="round" stroke-linejoin="round"/>
    <path d="M47 96.2164V81.8164" stroke="#00127F" stroke-width="2" stroke-linecap="round" stroke-linejoin="round"/>
</svg>
