<svg width="268" height="78" viewBox="0 0 268 78" fill="none" xmlns="http://www.w3.org/2000/svg">
    <path fill-rule="evenodd" clip-rule="evenodd" d="M192.5 38.8574H206.5V52.8574H192.5V38.8574Z" fill="#00E567"/>
    <path fill-rule="evenodd" clip-rule="evenodd" d="M92.5 0H102.5V10H92.5V0Z" fill="#FF458B"/>
    <path fill-rule="evenodd" clip-rule="evenodd" d="M209.643 18.2861H215.643V24.2861H209.643V18.2861Z" fill="#FF458B"/>
    <path fill-rule="evenodd" clip-rule="evenodd" d="M47.3574 18.5713H53.3574V24.5713H47.3574V18.5713Z" fill="#00E567"/>
    <path fill-rule="evenodd" clip-rule="evenodd" d="M261.5 10H267.5V16H261.5V10Z" fill="#0149FF"/>
    <path fill-rule="evenodd" clip-rule="evenodd" d="M0.5 51H6.5V57H0.5V51Z" fill="#0149FF"/>
    <path fill-rule="evenodd" clip-rule="evenodd" d="M240.357 33.1426H246.357V39.1426H240.357V33.1426Z" fill="#FFC600"/>
    <path fill-rule="evenodd" clip-rule="evenodd" d="M63.6426 47.8574H81.6426V65.8574H63.6426V47.8574Z" fill="#FFC600"/>
    <path fill-rule="evenodd" clip-rule="evenodd" d="M164.785 1H178.785V15H164.785V1Z" fill="#0149FF"/>
    <path fill-rule="evenodd" clip-rule="evenodd" d="M137.252 0.000976562L157.13 19.8797V66.9756H110V0.000976563L137.252 0.000976562Z" fill="#0149FF"/>
    <path fill-rule="evenodd" clip-rule="evenodd" d="M137.256 19.8799V0.00113297L157.135 19.8799L137.256 19.8799Z" fill="#00127F"/>
    <circle cx="157.286" cy="59.1675" r="18.2857" fill="#D9E0EE"/>
    <path d="M151 60.335L157 66.335L163 60.335" stroke="#00127F" stroke-width="2" stroke-linecap="round" stroke-linejoin="round"/>
    <path d="M157 66.3346V51.9346" stroke="#00127F" stroke-width="2" stroke-linecap="round" stroke-linejoin="round"/>
</svg>
