<svg width="91" height="108" viewBox="0 0 91 108" fill="none" xmlns="http://www.w3.org/2000/svg">
    <path fill-rule="evenodd" clip-rule="evenodd" d="M27.2515 30.5122L47.1303 50.391V97.4868H0V30.5122L27.2515 30.5122Z" fill="#0149FF"/>
    <path fill-rule="evenodd" clip-rule="evenodd" d="M27.2556 50.3911L27.2556 30.5124L47.1344 50.3911L27.2556 50.3911Z" fill="#00127F"/>
    <path d="M72.2773 16.4258L81.1708 25.3193L90.0643 16.4258L81.1708 7.53235L72.2773 16.4258Z" fill="#FFC600"/>
    <path d="M50.1523 26.912V34.5981H57.8385V26.912H50.1523Z" fill="#00E567"/>
    <path d="M30.7741 6.54408L36.209 11.979L41.6439 6.54407L36.209 1.10915L30.7741 6.54408Z" fill="#FF458B"/>
    <path d="M14.0001 16.9447V21.8359H18.8913V16.9447H14.0001Z" fill="#0149FF"/>
    <circle cx="47.2857" cy="89.2901" r="18.2857" fill="#D9E0EE"/>
    <path d="M48.0779 82.2511C48.0779 81.5626 47.5198 81.0044 46.8312 81.0044C46.1426 81.0044 45.5844 81.5626 45.5844 82.2511V87.5888H40.2468C39.5582 87.5888 39 88.147 39 88.8356C39 89.5241 39.5582 90.0823 40.2468 90.0823H45.5844V95.42C45.5844 96.1086 46.1426 96.6667 46.8312 96.6667C47.5198 96.6667 48.0779 96.1086 48.0779 95.42V90.0823H53.4156C54.1042 90.0823 54.6623 89.5241 54.6623 88.8356C54.6623 88.147 54.1042 87.5888 53.4156 87.5888H48.0779V82.2511Z" fill="#00127F"/>
    <path fill-rule="evenodd" clip-rule="evenodd" d="M37.9984 64.5106L35.1154 67.1878L33.8295 65.9522L32.4777 67.1878L30.7435 65.9522L29.5201 67.1878L28.2608 65.9522L26.7257 67.1878L24.0972 67.1875L22.0154 70.793C21.6475 71.4302 20.9677 71.8227 20.232 71.8227H14.1667C13.4309 71.8227 12.7511 71.4302 12.3832 70.793L9.35059 65.5403C8.98273 64.9031 8.98273 64.1181 9.35059 63.481L12.3832 58.2283C12.7511 57.5911 13.4309 57.1986 14.1667 57.1986L20.232 57.1986C20.9677 57.1986 21.6475 57.5911 22.0154 58.2283L24.0972 61.8333L35.1154 61.8335L37.9984 64.5106ZM16.9934 64.5106C16.9934 63.2596 15.9792 62.2454 14.7281 62.2454C13.4771 62.2454 12.4629 63.2596 12.4629 64.5106C12.4629 65.7617 13.4771 66.7759 14.7281 66.7759C15.9792 66.7759 16.9934 65.7617 16.9934 64.5106Z" fill="white"/>
</svg>
