<svg width="91" height="108" viewBox="0 0 91 108" fill="none" xmlns="http://www.w3.org/2000/svg">
    <path fill-rule="evenodd" clip-rule="evenodd" d="M27.2515 30.8379L47.1303 50.7166V97.8125H0V30.8379L27.2515 30.8379Z" fill="#0149FF"/>
    <path fill-rule="evenodd" clip-rule="evenodd" d="M27.2555 50.7168L27.2555 30.838L47.1343 50.7168L27.2555 50.7168Z" fill="#00127F"/>
    <path d="M72.2774 16.7515L81.1709 25.645L90.0644 16.7515L81.1709 7.85803L72.2774 16.7515Z" fill="#FFC600"/>
    <path d="M50.1523 27.2377V34.9238H57.8385V27.2377H50.1523Z" fill="#00E567"/>
    <path d="M30.7741 6.86976L36.209 12.3047L41.6439 6.86976L36.209 1.43483L30.7741 6.86976Z" fill="#FF458B"/>
    <path d="M14 17.2704V22.1616H18.8912V17.2704H14Z" fill="#0149FF"/>
    <circle cx="47" cy="89.25" r="18" fill="#00D459"/>
    <path d="M38.0467 90.6089C37.1637 89.726 37.1637 88.2945 38.0467 87.4116C38.9296 86.5287 40.3611 86.5287 41.244 87.4116L46.5729 92.7405C47.4559 93.6234 47.4559 95.0549 46.5729 95.9378C45.69 96.8208 44.2585 96.8208 43.3756 95.9378L38.0467 90.6089Z" fill="white"/>
    <path d="M46.5729 95.9378C45.69 96.8208 44.2585 96.8208 43.3756 95.9378C42.4927 95.0549 42.4927 93.6234 43.3756 92.7405L52.9676 83.1484C53.8506 82.2655 55.2821 82.2655 56.165 83.1484C57.0479 84.0314 57.0479 85.4629 56.165 86.3458L46.5729 95.9378Z" fill="white"/>
    <path fill-rule="evenodd" clip-rule="evenodd" d="M37.9984 64.8363L35.1154 67.5134L33.8295 66.2778L32.4777 67.5134L30.7435 66.2778L29.5201 67.5134L28.2608 66.2778L26.7257 67.5134L24.0972 67.5132L22.0154 71.1187C21.6475 71.7558 20.9677 72.1483 20.232 72.1483H14.1667C13.4309 72.1483 12.7511 71.7558 12.3832 71.1187L9.35059 65.866C8.98273 65.2288 8.98273 64.4438 9.35059 63.8067L12.3832 58.5539C12.7511 57.9168 13.4309 57.5243 14.1667 57.5243L20.232 57.5243C20.9677 57.5243 21.6475 57.9168 22.0154 58.554L24.0972 62.159L35.1154 62.1592L37.9984 64.8363ZM16.9934 64.8363C16.9934 63.5853 15.9792 62.5711 14.7281 62.5711C13.4771 62.5711 12.4629 63.5853 12.4629 64.8363C12.4629 66.0874 13.4771 67.1016 14.7281 67.1016C15.9792 67.1016 16.9934 66.0874 16.9934 64.8363Z" fill="white"/>
</svg>
