<svg width="20" height="20" viewBox="0 0 20 20" fill="none" xmlns="http://www.w3.org/2000/svg">
<path d="M10.075 1C10.1113 1 10.1475 1.00061 10.1837 1.00184C15.0695 1.09966 19 5.09081 19 10C19 14.9092 15.0695 18.9003 10.1837 18.9982C10.1475 18.9994 10.1113 19 10.075 19L10.0472 18.9999C10.0315 19 10.0157 19 10 19C5.02944 19 1 14.9706 1 10C1 5.02944 5.02944 1 10 1L10.0471 1.00012C10.0564 1.00004 10.0657 1 10.075 1ZM6.4 10C6.4 13.5386 7.74556 16.3548 9.25004 17.1346V2.86544C7.74556 3.64516 6.4 6.46138 6.4 10ZM10.9001 2.86552V17.1345C12.4045 16.3547 13.75 13.5385 13.75 10C13.75 6.4615 12.4045 3.64535 10.9001 2.86552ZM6.30412 3.64542L6.2252 3.69209C4.08343 4.97653 2.65 7.32087 2.65 10C2.65 12.7119 4.11869 15.0807 6.30405 16.3545C5.34374 14.7267 4.75 12.4805 4.75 10C4.75 7.51949 5.34374 5.27335 6.30412 3.64542ZM13.9269 3.7858L13.9542 3.83444C14.8507 5.4451 15.4 7.61413 15.4 10C15.4 12.41 14.8396 14.5987 13.9269 16.2142C15.9841 14.9114 17.35 12.6152 17.35 10C17.35 7.38477 15.9841 5.08856 13.9269 3.7858Z" fill="black"/>
</svg>
