<svg width="91" height="109" viewBox="0 0 91 109" fill="none" xmlns="http://www.w3.org/2000/svg">
    <path fill-rule="evenodd" clip-rule="evenodd" d="M27.2515 31.0005L47.1303 50.8792V97.9751H0V31.0005L27.2515 31.0005Z" fill="#0149FF"/>
    <path fill-rule="evenodd" clip-rule="evenodd" d="M27.2555 50.8794L27.2555 31.0006L47.1343 50.8794L27.2555 50.8794Z" fill="#00127F"/>
    <g clip-path="url(#clip0)">
        <path d="M72.2774 16.9141L81.1709 25.8076L90.0644 16.9141L81.1709 8.02063L72.2774 16.9141Z" fill="#FFC600"/>
        <path d="M50.1523 27.4003V35.0864H57.8385V27.4003H50.1523Z" fill="#00E567"/>
        <path d="M30.7741 7.03236L36.209 12.4673L41.6439 7.03236L36.209 1.59743L30.7741 7.03236Z" fill="#FF458B"/>
        <path d="M14 17.433V22.3242H18.8912V17.433H14Z" fill="#0149FF"/>
    </g>
    <circle cx="47.2857" cy="89.8018" r="18.2857" fill="#D9E0EE"/>
    <path d="M45.6001 84.2007L39.6001 90.2007L45.6001 96.2007" stroke="#00127F" stroke-width="2" stroke-linecap="round" stroke-linejoin="round"/>
    <path d="M39.6 90.2007L54 90.2007" stroke="#00127F" stroke-width="2" stroke-linecap="round" stroke-linejoin="round"/>
    <path fill-rule="evenodd" clip-rule="evenodd" d="M37.9984 64.9989L35.1154 67.676L33.8295 66.4404L32.4777 67.676L30.7435 66.4404L29.5201 67.676L28.2608 66.4404L26.7257 67.676L24.0972 67.6758L22.0154 71.2813C21.6475 71.9184 20.9677 72.3109 20.232 72.3109H14.1667C13.4309 72.3109 12.7511 71.9184 12.3832 71.2813L9.35059 66.0286C8.98273 65.3914 8.98273 64.6064 9.35059 63.9693L12.3832 58.7165C12.7511 58.0794 13.4309 57.6869 14.1667 57.6869L20.232 57.6869C20.9677 57.6869 21.6475 58.0794 22.0154 58.7165L24.0972 62.3216L35.1154 62.3218L37.9984 64.9989ZM16.9934 64.9989C16.9934 63.7479 15.9792 62.7337 14.7281 62.7337C13.4771 62.7337 12.4629 63.7479 12.4629 64.9989C12.4629 66.25 13.4771 67.2642 14.7281 67.2642C15.9792 67.2642 16.9934 66.25 16.9934 64.9989Z" fill="white"/>
    <defs>
        <clipPath id="clip0">
            <rect width="77" height="35" fill="white" transform="translate(14 0.912598)"/>
        </clipPath>
    </defs>
</svg>
