<svg class="info-svg" width="18" height="18" viewBox="0 0 18 18" fill="none" xmlns="http://www.w3.org/2000/svg">
    <path fill-rule="evenodd" clip-rule="evenodd" d="M9 -7.86805e-07C4.02944 -1.22135e-06 1.22135e-06 4.02944 7.86805e-07 9C3.52265e-07 13.9706 4.02944 18 9 18C13.9706 18 18 13.9706 18 9C18 4.02944 13.9706 -3.52265e-07 9 -7.86805e-07ZM10 13C10 13.5523 9.55229 14 9 14C8.44772 14 8 13.5523 8 13C8 12.4477 8.44772 12 9 12C9.55229 12 10 12.4477 10 13ZM10 9C10 9.55228 9.55228 10 9 10C8.44771 10 8 9.55228 8 9L8 5C8 4.44771 8.44772 4 9 4C9.55229 4 10 4.44772 10 5L10 9Z" fill="white"/>
</svg>
