<svg width="48" height="48" viewBox="0 0 48 48" fill="none" xmlns="http://www.w3.org/2000/svg">
    <path fill-rule="evenodd" clip-rule="evenodd" d="M0 24C1.15877e-06 10.7452 10.7452 -1.15877e-06 24 0C37.2548 2.09815e-06 48 10.7452 48 24C48 37.2548 37.2548 48 24 48C10.7452 48 -2.09815e-06 37.2548 0 24ZM26.6669 24.0003C26.6669 25.473 25.473 26.6669 24.0003 26.6669C22.5275 26.6669 21.3336 25.473 21.3336 24.0003L21.3336 13.3336C21.3336 11.8609 22.5275 10.6669 24.0003 10.6669C25.473 10.6669 26.6669 11.8609 26.6669 13.3336L26.6669 24.0003ZM24.0003 37.3335C25.473 37.3335 26.6669 36.1396 26.6669 34.6668C26.6669 33.194 25.473 32.0001 24.0003 32.0001C22.5275 32.0001 21.3336 33.194 21.3336 34.6668C21.3336 36.1396 22.5275 37.3335 24.0003 37.3335Z" fill="#F4B000"/>
</svg>
