<svg width="57" height="57" viewBox="0 0 57 57" fill="none" xmlns="http://www.w3.org/2000/svg">
<g clip-path="url(#clip0)">
<path d="M28.5606 41.3316L4.18677 49.5986V14.7212L28.5606 19.6944V41.3316Z" fill="#0046A5"/>
<path d="M27.1045 18.0503L21.6953 18.4123L4.18676 14.7212L21.5304 11.8601L26.9508 13.6279L27.1045 18.0503Z" fill="#001D44"/>
<path d="M0.61591 7.56298L0.631838 7.55864L4.1877 6.32031L28.5606 0.2229V11.063V55.7488L20.2017 54.1285V12.0347L4.1877 14.7212V49.6514L0.631838 48.414V15.465L0.61591 15.4674V7.56298Z" fill="#4494FF"/>
<path d="M43.4352 46.8003L28.5606 55.5275V0L43.4352 8.72781V46.8003Z" fill="#0046A5"/>
<path d="M48.6571 44.3283L56.4912 40.6448V15.3264L48.6571 11.644V44.3283Z" fill="#0046A5"/>
<path d="M43.4352 44.1108L48.6571 44.2272V11.644L43.4352 11.7614V44.1108Z" fill="#4494FF"/>
</g>
<defs>
<clipPath id="clip0">
<rect width="57" height="57" fill="white"/>
</clipPath>
</defs>
</svg>
