<svg width="20" height="20" viewBox="0 0 20 20" fill="none" xmlns="http://www.w3.org/2000/svg">
<path d="M7.25644 6.43095L1.73887 7.22599L1.70439 7.23162C1.02162 7.35648 0.75741 8.20764 1.26352 8.69672L5.25161 12.5506L4.31053 17.9907L4.30547 18.0235C4.21203 18.7094 4.93441 19.2248 5.55636 18.9007L10.4932 16.3275L15.4301 18.9007L15.4598 18.9155C16.0847 19.2131 16.7955 18.6818 16.6759 17.9907L15.7347 12.5506L19.7229 8.69672L19.7476 8.67197C20.2281 8.17112 19.9442 7.32634 19.2476 7.22599L13.7299 6.43095L11.2637 1.47709C10.947 0.840969 10.0395 0.840969 9.72277 1.47709L7.25644 6.43095ZM10.4931 3.79176L12.3901 7.60218L12.408 7.63619C12.5381 7.87079 12.7708 8.03202 13.0378 8.07048L17.264 8.67926L14.211 11.6296L14.1837 11.6571C13.9978 11.8537 13.9146 12.1271 13.961 12.3952L14.6833 16.5704L10.891 14.5938L10.8533 14.5753C10.6121 14.4643 10.3323 14.4704 10.0954 14.5938L6.303 16.5704L7.02545 12.3952L7.03119 12.3568C7.0653 12.0884 6.97111 11.8186 6.77547 11.6296L3.72233 8.67926L7.94862 8.07048C8.22832 8.03019 8.47042 7.85516 8.59635 7.60218L10.4931 3.79176Z" fill="black"/>
</svg>
