<svg width="268" height="89" viewBox="0 0 268 89" fill="none" xmlns="http://www.w3.org/2000/svg">
    <path fill-rule="evenodd" clip-rule="evenodd" d="M192.5 50.2383H206.5V64.2383H192.5V50.2383Z" fill="#00E567"/>
    <path fill-rule="evenodd" clip-rule="evenodd" d="M92.5 11.3809H102.5V21.3809H92.5V11.3809Z" fill="#FF458B"/>
    <path fill-rule="evenodd" clip-rule="evenodd" d="M209.643 29.667H215.643V35.667H209.643V29.667Z" fill="#FF458B"/>
    <path fill-rule="evenodd" clip-rule="evenodd" d="M47.3574 29.9521H53.3574V35.9521H47.3574V29.9521Z" fill="#00E567"/>
    <path fill-rule="evenodd" clip-rule="evenodd" d="M261.5 21.3809H267.5V27.3809H261.5V21.3809Z" fill="#0149FF"/>
    <path fill-rule="evenodd" clip-rule="evenodd" d="M0.5 62.3809H6.5V68.3809H0.5V62.3809Z" fill="#0149FF"/>
    <path fill-rule="evenodd" clip-rule="evenodd" d="M240.357 44.5234H246.357V50.5234H240.357V44.5234Z" fill="#FFC600"/>
    <path fill-rule="evenodd" clip-rule="evenodd" d="M63.6426 59.2383H81.6426V77.2383H63.6426V59.2383Z" fill="#FFC600"/>
    <path fill-rule="evenodd" clip-rule="evenodd" d="M164.785 12.3809H178.785V26.3809H164.785V12.3809Z" fill="#0149FF"/>
    <path d="M103.604 15.4162C103.109 13.2964 104.9 11.3761 106.877 11.9064L117.933 14.8722C119.239 15.2227 120.587 14.4864 121.091 13.1467L125.351 1.81266C126.113 -0.214009 128.615 -0.638839 129.923 1.03618L137.242 10.4037C138.107 11.5109 139.601 11.7646 140.743 10.9982L150.403 4.51425C152.13 3.35483 154.387 4.58774 154.527 6.76767L155.313 18.9588C155.406 20.3998 156.475 21.5467 157.819 21.6463L169.189 22.489C171.222 22.6397 172.371 25.0595 171.29 26.9116L165.243 37.2698C164.528 38.4941 164.765 40.0961 165.798 41.0237L174.534 48.8713C176.096 50.2745 175.7 52.9568 173.81 53.7737L163.24 58.3425C161.99 58.8825 161.304 60.3277 161.63 61.7289L164.396 73.5838C164.891 75.7036 163.1 77.6239 161.123 77.0936L150.067 74.1278C148.761 73.7773 147.413 74.5136 146.909 75.8533L142.649 87.1873C141.887 89.214 139.385 89.6388 138.077 87.9638L130.758 78.5963C129.893 77.4891 128.399 77.2354 127.257 78.0018L117.597 84.4858C115.87 85.6452 113.613 84.4123 113.473 82.2323L112.687 70.0412C112.594 68.6002 111.525 67.4533 110.181 67.3537L98.8114 66.511C96.7785 66.3603 95.6287 63.9405 96.7099 62.0884L102.757 51.7302C103.472 50.5059 103.235 48.9039 102.202 47.9763L93.4663 40.1287C91.9042 38.7255 92.3004 36.0432 94.1905 35.2263L104.76 30.6575C106.01 30.1175 106.696 28.6723 106.37 27.2711L103.604 15.4162Z" fill="#FFEA9F"/>
    <mask id="mask0_11691_88022" style="mask-type:alpha" maskUnits="userSpaceOnUse" x="107" y="15" width="53" height="58">
        <ellipse cx="133.582" cy="44.0508" rx="26.2918" ry="28.1924" fill="#FFC700"/>
    </mask>
    <g mask="url(#mask0_11691_88022)">
        <ellipse cx="133.582" cy="44.0508" rx="26.2918" ry="28.1924" fill="#FFC700"/>
    </g>
    <path d="M100.265 42.226C100.265 37.8879 103.544 34.3711 107.59 34.3711H159.061C163.107 34.3711 166.387 37.8879 166.387 42.226V45.2235C166.387 54.4137 159.439 61.8637 150.868 61.8637C142.298 61.8637 135.35 54.4137 135.35 45.2235V44.3536C135.35 43.2357 134.444 42.3295 133.326 42.3295C132.208 42.3295 131.302 43.2357 131.302 44.3536V45.2235C131.302 54.4137 124.354 61.8637 115.783 61.8637C107.213 61.8637 100.265 54.4137 100.265 45.2235V42.226Z" fill="#FF598B"/>
    <path d="M104.312 41.1655C104.312 39.8104 105.411 38.7119 106.766 38.7119H124.799C126.154 38.7119 127.253 39.8104 127.253 41.1655V46.0525C127.253 52.3873 122.117 57.5227 115.783 57.5227C109.448 57.5227 104.312 52.3873 104.312 46.0525V41.1655Z" fill="black"/>
    <path d="M139.398 41.1655C139.398 39.8104 140.497 38.7119 141.852 38.7119H159.885C161.24 38.7119 162.339 39.8104 162.339 41.1655V46.0525C162.339 52.3873 157.203 57.5227 150.869 57.5227C144.534 57.5227 139.398 52.3873 139.398 46.0525V41.1655Z" fill="black"/>
</svg>
