<svg width="268" height="82" viewBox="0 0 268 82" fill="none" xmlns="http://www.w3.org/2000/svg">
    <path fill-rule="evenodd" clip-rule="evenodd" d="M192.5 39.5181H206.5V53.5181H192.5V39.5181Z" fill="#00E567"/>
    <path fill-rule="evenodd" clip-rule="evenodd" d="M92.5 0.660645H102.5V10.6606H92.5V0.660645Z" fill="#FF458B"/>
    <path fill-rule="evenodd" clip-rule="evenodd" d="M209.643 18.9468H215.643V24.9468H209.643V18.9468Z" fill="#FF458B"/>
    <path fill-rule="evenodd" clip-rule="evenodd" d="M47.3574 19.2319H53.3574V25.2319H47.3574V19.2319Z" fill="#00E567"/>
    <path fill-rule="evenodd" clip-rule="evenodd" d="M261.5 10.6606H267.5V16.6606H261.5V10.6606Z" fill="#0149FF"/>
    <path fill-rule="evenodd" clip-rule="evenodd" d="M0.5 51.6606H6.5V57.6606H0.5V51.6606Z" fill="#0149FF"/>
    <path fill-rule="evenodd" clip-rule="evenodd" d="M240.357 33.8032H246.357V39.8032H240.357V33.8032Z" fill="#FFC600"/>
    <path fill-rule="evenodd" clip-rule="evenodd" d="M63.6426 48.5181H81.6426V66.5181H63.6426V48.5181Z" fill="#FFC600"/>
    <path fill-rule="evenodd" clip-rule="evenodd" d="M164.785 1.66064H178.785V15.6606H164.785V1.66064Z" fill="#0149FF"/>
    <path fill-rule="evenodd" clip-rule="evenodd" d="M139.824 3.91016L159.234 23.3202V69.3057H113.215V3.91016L139.824 3.91016Z" fill="#0149FF"/>
    <path fill-rule="evenodd" clip-rule="evenodd" d="M139.824 23.3213V3.91121L159.234 23.3213L139.824 23.3213Z" fill="#0218A7"/>
    <circle cx="158.501" cy="63.1959" r="18.2857" fill="#D9E0EE"/>
    <path d="M158.622 54.128L158.646 54.151L162.874 58.3789C163.195 58.7 163.195 59.2205 162.874 59.5416C162.561 59.8548 162.058 59.8624 161.735 59.5645L161.711 59.5416L158.859 56.6896V65.9783C158.859 66.4323 158.491 66.8004 158.037 66.8004C157.594 66.8004 157.233 66.4501 157.216 66.0113L157.215 65.9783V56.7443L154.418 59.5416C154.105 59.8548 153.602 59.8624 153.279 59.5645L153.255 59.5416C152.942 59.2283 152.935 58.7252 153.233 58.4027L153.255 58.3789L157.483 54.151C157.797 53.8377 158.3 53.8301 158.622 54.128ZM167.215 70.2535C167.215 70.7076 166.847 71.0757 166.393 71.0757H150.099C149.645 71.0757 149.277 70.7076 149.277 70.2535C149.277 69.7995 149.645 69.4314 150.099 69.4314H166.393C166.847 69.4314 167.215 69.7995 167.215 70.2535ZM150.037 71.0133C149.583 71.0133 149.215 70.6452 149.215 70.1911V66.9026C149.215 66.4485 149.583 66.0804 150.037 66.0804C150.491 66.0804 150.859 66.4485 150.859 66.9026V70.1911C150.859 70.6452 150.491 71.0133 150.037 71.0133ZM166.33 71.0133C165.876 71.0133 165.508 70.6452 165.508 70.1911V66.9026C165.508 66.4485 165.876 66.0804 166.33 66.0804C166.784 66.0804 167.152 66.4485 167.152 66.9026V70.1911C167.152 70.6452 166.784 71.0133 166.33 71.0133Z" fill="#091C45"/>
</svg>
