<svg width="34" height="34" viewBox="0 0 34 34" fill="none" xmlns="http://www.w3.org/2000/svg">
    <path fill-rule="evenodd" clip-rule="evenodd" d="M17 34C26.3888 34 34 26.3888 34 17C34 7.61116 26.3888 0 17 0C7.61116 0 0 7.61116 0 17C0 26.3888 7.61116 34 17 34ZM24.4639 12.1445C23.7686 11.4507 22.6412 11.4507 21.9459 12.1445L14.8113 19.2624L11.8735 16.3315C11.1782 15.6378 10.0508 15.6378 9.35544 16.3315C8.66009 17.0252 8.66009 18.15 9.35544 18.8437L13.5522 23.0308C14.2476 23.7245 15.375 23.7245 16.0703 23.0308L24.4639 14.6567C25.1593 13.963 25.1593 12.8382 24.4639 12.1445Z" fill="#00BD8F"/>
</svg>
