<svg width="34" height="34" viewBox="0 0 34 34" fill="none" xmlns="http://www.w3.org/2000/svg">
    <path fill-rule="evenodd" clip-rule="evenodd" d="M17 34C26.3889 34 34 26.3889 34 17C34 7.61115 26.3889 0 17 0C7.61115 0 0 7.61115 0 17C0 26.3889 7.61115 34 17 34ZM8 19C9.10455 19 10 18.1046 10 17C10 15.8954 9.10455 15 8 15C6.89545 15 6 15.8954 6 17C6 18.1046 6.89545 19 8 19ZM17 19C18.1046 19 19 18.1046 19 17C19 15.8954 18.1046 15 17 15C15.8954 15 15 15.8954 15 17C15 18.1046 15.8954 19 17 19ZM28 17C28 18.1046 27.1046 19 26 19C24.8954 19 24 18.1046 24 17C24 15.8954 24.8954 15 26 15C27.1046 15 28 15.8954 28 17Z" fill="#C7CDD2"/>
</svg>
