<svg width="78" height="64" viewBox="0 0 78 64" fill="none" xmlns="http://www.w3.org/2000/svg">
<path fill-rule="evenodd" clip-rule="evenodd" d="M18.7464 0.0117188H58.8387C65.4086 0.0117188 67.7909 0.695775 70.1928 1.98029C72.5946 3.2648 74.4796 5.14978 75.7641 7.55161L75.8404 7.69573C77.0757 10.0504 77.7327 12.4672 77.7327 18.9057V44.485L77.7318 44.8742C77.7051 51.1502 77.0229 53.4853 75.7641 55.8391C74.4796 58.2409 72.5946 60.1259 70.1928 61.4104C67.8149 62.6821 65.4562 63.3652 59.0346 63.379H18.9423C12.3724 63.379 9.99007 62.6949 7.58823 61.4104C5.1864 60.1259 3.30143 58.2409 2.01691 55.8391L1.94056 55.695C0.717912 53.3643 0.0618076 50.9728 0.0483398 44.6809V18.9057C0.0483398 12.3358 0.732396 9.95345 2.01691 7.55161C3.30143 5.14978 5.1864 3.2648 7.58823 1.98029C9.96605 0.70862 12.3248 0.0254599 18.7464 0.0117188Z" fill="#EAEFF2"/>
<mask id="mask0" mask-type="alpha" maskUnits="userSpaceOnUse" x="0" y="20" width="78" height="44">
<path d="M0.0483398 20.1235H77.7327V44.4849L77.7318 44.8741C77.7051 51.15 77.0229 53.4852 75.7641 55.839C74.4796 58.2408 72.5946 60.1258 70.1928 61.4103C67.8149 62.6819 65.4562 63.3651 59.0346 63.3788H18.9423C12.3724 63.3788 9.99007 62.6948 7.58823 61.4103C5.1864 60.1258 3.30143 58.2408 2.01691 55.839L1.94056 55.6948C0.717912 53.3642 0.0618076 50.9727 0.0483398 44.6807V20.1235Z" fill="white"/>
</mask>
<g mask="url(#mask0)">
<path d="M0.0483398 20.1235H77.7327V44.4849L77.7318 44.8741C77.7051 51.15 77.0229 53.4852 75.7641 55.839C74.4796 58.2408 72.5946 60.1258 70.1928 61.4103C67.8149 62.6819 65.4562 63.3651 59.0346 63.3788H18.9423C12.3724 63.3788 9.99007 62.6948 7.58823 61.4103C5.1864 60.1258 3.30143 58.2408 2.01691 55.839L1.94056 55.6948C0.717912 53.3642 0.0618076 50.9727 0.0483398 44.6807V20.1235Z" fill="#D1D9DF"/>
<path fill-rule="evenodd" clip-rule="evenodd" d="M20.8792 20.1235V63.3789H18.9423C12.3724 63.3789 9.99007 62.6948 7.58823 61.4103C5.1864 60.1258 3.30143 58.2408 2.01691 55.839L1.94056 55.6949C0.717912 53.3642 0.0618076 50.9727 0.0483398 44.6808V20.1235H20.8792Z" fill="#0149FF"/>
<path fill-rule="evenodd" clip-rule="evenodd" d="M29.8309 25.4849H67.812C69.4488 25.4849 70.7757 26.8118 70.7757 28.4486V30.8116C70.7757 32.4484 69.4488 33.7753 67.812 33.7753H29.8309C28.1941 33.7753 26.8672 32.4484 26.8672 30.8116V28.4486C26.8672 26.8118 28.1941 25.4849 29.8309 25.4849Z" fill="white"/>
<path fill-rule="evenodd" clip-rule="evenodd" d="M29.8309 37.1533H67.812C69.4488 37.1533 70.7757 38.4802 70.7757 40.117V42.48C70.7757 44.1168 69.4488 45.4437 67.812 45.4437H29.8309C28.1941 45.4437 26.8672 44.1168 26.8672 42.48V40.117C26.8672 38.4802 28.1941 37.1533 29.8309 37.1533Z" fill="white"/>
<path fill-rule="evenodd" clip-rule="evenodd" d="M29.8309 48.8213H67.812C69.4488 48.8213 70.7757 50.1482 70.7757 51.785V54.148C70.7757 55.7848 69.4488 57.1117 67.812 57.1117H29.8309C28.1941 57.1117 26.8672 55.7848 26.8672 54.148V51.785C26.8672 50.1482 28.1941 48.8213 29.8309 48.8213Z" fill="white"/>
<path opacity="0.199481" fill-rule="evenodd" clip-rule="evenodd" d="M6.18736 25.4849H14.6914C16.3282 25.4849 17.6551 26.8118 17.6551 28.4486V28.5087C17.6551 30.1455 16.3282 31.4724 14.6914 31.4724H6.18736C4.56795 31.4724 3.2519 30.1736 3.22408 28.5608L3.22363 28.4486C3.22363 26.8118 4.55054 25.4849 6.18736 25.4849Z" fill="white"/>
<path opacity="0.199481" fill-rule="evenodd" clip-rule="evenodd" d="M6.18736 35.311H14.6914C16.3282 35.311 17.6551 36.6379 17.6551 38.2748V38.3348C17.6551 39.9717 16.3282 41.2986 14.6914 41.2986H6.18736C4.56795 41.2986 3.2519 39.9997 3.22408 38.387L3.22363 38.2748C3.22363 36.6379 4.55054 35.311 6.18736 35.311Z" fill="white"/>
<path opacity="0.199481" fill-rule="evenodd" clip-rule="evenodd" d="M6.18736 45.1362H14.6914C16.3282 45.1362 17.6551 46.4631 17.6551 48.1V48.16C17.6551 49.7969 16.3282 51.1238 14.6914 51.1238H6.18736C4.56795 51.1238 3.2519 49.8249 3.22408 48.2122L3.22363 48.1C3.22363 46.4631 4.55054 45.1362 6.18736 45.1362Z" fill="white"/>
</g>
<path d="M11.7071 14.481C13.7636 14.481 15.4307 12.8139 15.4307 10.7573C15.4307 8.70083 13.7636 7.03369 11.7071 7.03369C9.65054 7.03369 7.9834 8.70083 7.9834 10.7573C7.9834 12.8139 9.65054 14.481 11.7071 14.481Z" fill="#FF458B"/>
<path d="M22.878 14.481C24.9345 14.481 26.6016 12.8139 26.6016 10.7573C26.6016 8.70083 24.9345 7.03369 22.878 7.03369C20.8214 7.03369 19.1543 8.70083 19.1543 10.7573C19.1543 12.8139 20.8214 14.481 22.878 14.481Z" fill="#FFC600"/>
<path d="M34.0488 14.481C36.1054 14.481 37.7725 12.8139 37.7725 10.7573C37.7725 8.70083 36.1054 7.03369 34.0488 7.03369C31.9923 7.03369 30.3252 8.70083 30.3252 10.7573C30.3252 12.8139 31.9923 14.481 34.0488 14.481Z" fill="#00E567"/>
</svg>
