<svg width="24" height="24" viewBox="0 0 24 24" fill="none" xmlns="http://www.w3.org/2000/svg">
<path d="M12.0026 12.6663C12.3708 12.6663 12.6693 12.3679 12.6693 11.9997C12.6693 11.6315 12.3708 11.333 12.0026 11.333C11.6344 11.333 11.3359 11.6315 11.3359 11.9997C11.3359 12.3679 11.6344 12.6663 12.0026 12.6663Z" stroke="#586474" stroke-width="1.33333" stroke-linecap="round" stroke-linejoin="round"/>
<path d="M12.0026 8.00033C12.3708 8.00033 12.6693 7.70185 12.6693 7.33366C12.6693 6.96547 12.3708 6.66699 12.0026 6.66699C11.6344 6.66699 11.3359 6.96547 11.3359 7.33366C11.3359 7.70185 11.6344 8.00033 12.0026 8.00033Z" stroke="#586474" stroke-width="1.33333" stroke-linecap="round" stroke-linejoin="round"/>
<path d="M12.0026 17.3333C12.3708 17.3333 12.6693 17.0349 12.6693 16.6667C12.6693 16.2985 12.3708 16 12.0026 16C11.6344 16 11.3359 16.2985 11.3359 16.6667C11.3359 17.0349 11.6344 17.3333 12.0026 17.3333Z" stroke="#586474" stroke-width="1.33333" stroke-linecap="round" stroke-linejoin="round"/>
</svg>
