<svg width="60" height="60" viewBox="0 0 60 60" fill="none" xmlns="http://www.w3.org/2000/svg">
    <path d="M30 60C46.5685 60 60 46.5685 60 30C60 13.4315 46.5685 0 30 0C13.4315 0 0 13.4315 0 30C0 46.5685 13.4315 60 30 60Z" fill="#E8EAF2"/>
    <path d="M29.5001 34.5196C30.1001 34.5196 30.5865 34.0452 30.5865 33.46C30.5865 32.8748 30.1001 32.4004 29.5001 32.4004C28.9 32.4004 28.4136 32.8748 28.4136 33.46C28.4136 34.0452 28.9 34.5196 29.5001 34.5196Z" fill="#354049"/>
    <path d="M39.9405 40.2152C40.1781 40 40.3139 39.6854 40.3139 39.3709V25.5464C40.3139 24.9007 39.7707 24.3709 39.1086 24.3709H35.7473V21.0927C35.7473 17.7318 32.9462 15 29.5 15C26.0538 15 23.2527 17.7318 23.2527 21.0927V24.3709H19.8914C19.2293 24.3709 18.686 24.9007 18.686 25.5464V39.3709C18.686 39.6854 18.8218 40 19.0595 40.2152L23.7959 44.6689C24.0166 44.8841 24.3222 45 24.6278 45H34.3552C34.6608 45 34.9664 44.8841 35.1871 44.6689L39.9405 40.2152ZM30.7053 36.6391V38.1291C30.7053 38.7748 30.1621 39.3046 29.5 39.3046C28.8379 39.3046 28.2947 38.7748 28.2947 38.1291V36.6391C26.9705 36.1589 26.0198 34.9172 26.0198 33.4437C26.0198 31.5728 27.5817 30.0497 29.5 30.0497C31.4183 30.0497 32.9801 31.5728 32.9801 33.4437C32.9801 34.9172 32.0295 36.1589 30.7053 36.6391ZM33.3367 24.3709H25.6464V21.0927C25.6464 19.0232 27.3779 17.351 29.483 17.351C31.5881 17.351 33.3197 19.0397 33.3197 21.0927V24.3709H33.3367Z" fill="#354049"/>
</svg>
