<svg width="42px" height="42px" viewBox="0 0 42 42" version="1.1" xmlns="http://www.w3.org/2000/svg">
    <defs>
        <linearGradient x1="49.9978261%" y1="12.1432174%" x2="49.9978261%" y2="89.3941304%" id="linearGradient-1">
            <stop stop-color="#BF0000" offset="0%"></stop>
            <stop stop-color="#8F0000" offset="100%"></stop>
        </linearGradient>
    </defs>
    <g id="Page-1" stroke="none" stroke-width="1" fill="none" fill-rule="evenodd">
        <g id="filezilla" fill-rule="nonzero">
            <path d="M0,1.40638826 L0,3.26049652 C0.775311783,3.26049652 1.40618739,3.89134565 1.40618739,4.66640087 C1.40618739,5.44193087 0.775311783,6.07278 0,6.07278 L0,7.92689739 C0.775311783,7.92689739 1.40618739,8.55774652 1.40618739,9.33276522 C1.40618739,10.1083043 0.775311783,10.7392174 0,10.7392174 L0,12.5933348 C0.775311783,12.5933348 1.40618739,13.2241565 1.40618739,14.0001522 C1.40618739,14.7761478 0.775311783,15.4070609 0,15.4070609 L0,17.2611783 C0.775311783,17.2611783 1.40618739,17.8915435 1.40618739,18.6670826 C1.40618739,19.4425304 0.775311783,20.0734435 0,20.0734435 L0,21.9275609 C0.775311783,21.9275609 1.40618739,22.5579261 1.40618739,23.3334652 C1.40618739,24.1090043 0.775311783,24.7398261 0,24.7398261 L0,26.5939435 C0.775311783,26.5939435 1.40618739,27.2243087 1.40618739,27.9998478 C1.40618739,28.775387 0.775311783,29.4062087 0,29.4062087 L0,31.2603261 C0.775311783,31.2603261 1.40618739,31.8906913 1.40618739,32.6662304 C1.40618739,33.4417696 0.775311783,34.0725913 0,34.0725913 L0,35.9267087 C0.775311783,35.9267087 1.40618739,36.5570739 1.40618739,37.332613 C1.40618739,38.1081522 0.775311783,38.7390652 0,38.7390652 L0,40.5940957 C0.370111304,40.5940957 0.732532957,40.7438348 0.994496087,41.005787 C1.25597348,41.2672826 1.40618739,41.6296696 1.40618739,42 L3.26035043,42 C3.26035043,41.2244609 3.89121783,40.5940957 4.66653783,40.5940957 C5.4418487,40.5940957 6.07271609,41.2244609 6.07271609,42 L7.92687913,42 C7.92687913,41.2244609 8.55775565,40.5940957 9.33303913,40.5940957 C10.1083957,40.5940957 10.7392174,41.2244609 10.7392174,42 L12.5934261,42 C12.5934261,41.2244609 13.2242478,40.5940957 13.9996043,40.5940957 C14.7748696,40.5940957 15.4057826,41.2244609 15.4057826,42 L17.2599913,42 C17.2599913,41.2244609 17.890813,40.5940957 18.6661696,40.5940957 C19.4414348,40.5940957 20.0723478,41.2244609 20.0723478,42 L21.9264652,42 C21.9264652,41.2244609 22.5573783,40.5940957 23.3326435,40.5940957 C24.108,40.5940957 24.7388217,41.2244609 24.7388217,42 L26.5930304,42 C26.5930304,41.2244609 27.2238522,40.5940957 27.9992087,40.5940957 C28.7744739,40.5940957 29.405387,41.2244609 29.405387,42 L31.2595043,42 C31.2595043,41.2244609 31.8904174,40.5940957 32.6657739,40.5940957 C33.4410391,40.5940957 34.0719522,41.2244609 34.0719522,42 L35.9260696,42 C35.9260696,41.2244609 36.5569826,40.5940957 37.3322478,40.5940957 C38.1076043,40.5940957 38.7384261,41.2244609 38.7384261,42 L40.5935478,42 C40.5935478,41.6296696 40.7437435,41.2672826 41.005787,41.005787 C41.2671913,40.7438348 41.6296696,40.5940957 42,40.5940957 L42,38.7399783 C41.2244609,38.7399783 40.5935478,38.1091565 40.5935478,37.3336174 C40.5935478,36.5580783 41.2244609,35.927713 42,35.927713 L42,34.0735957 C41.2244609,34.0735957 40.5935478,33.4427739 40.5935478,32.6672348 C40.5935478,31.8916957 41.2244609,31.2613304 42,31.2613304 L42,29.407213 C41.2244609,29.407213 40.5935478,28.7763 40.5935478,28.0007609 C40.5935478,27.225313 41.2244609,26.5948565 42,26.5948565 L42,24.7408304 C41.2244609,24.7408304 40.5935478,24.1099174 40.5935478,23.3343783 C40.5935478,22.5588391 41.2244609,21.9284739 42,21.9284739 L42,20.0743565 C41.2244609,20.0743565 40.5935478,19.4435348 40.5935478,18.6679957 C40.5935478,17.8924565 41.2244609,17.2620913 42,17.2620913 L42,15.4079739 C41.2244609,15.4079739 40.5935478,14.7771522 40.5935478,14.0011565 C40.5935478,13.2250696 41.2244609,12.5942478 42,12.5942478 L42,10.7401304 C41.2244609,10.7401304 40.5935478,10.1093087 40.5935478,9.33376957 C40.5935478,8.55871435 41.2244609,7.92785609 42,7.92785609 L42,6.07374783 C41.2244609,6.07374783 40.5935478,5.44288957 40.5935478,4.66735957 C40.5935478,3.89231348 41.2244609,3.26145522 42,3.26145522 L42,1.40638826 C41.6296696,1.40638826 41.2671913,1.25618348 41.005787,0.994706087 C40.7437435,0.732752087 40.5935478,0.370341391 40.5935478,0 L38.7394304,0 C38.7394304,0.77553 38.1085174,1.40638826 37.3332522,1.40638826 C36.5578957,1.40638826 35.9270739,0.77553 35.9270739,0 L34.0728652,0 C34.0728652,0.77553 33.4420435,1.40638826 32.666687,1.40638826 C31.8914217,1.40638826 31.2605087,0.77553 31.2605087,0 L29.4063913,0 C29.4063913,0.77553 28.7754783,1.40638826 28.0001217,1.40638826 C27.2248565,1.40638826 26.5939435,0.77553 26.5939435,0 L24.7398261,0 C24.7398261,0.77553 24.108913,1.40638826 23.3336478,1.40638826 C22.5582913,1.40638826 21.9274696,0.77553 21.9274696,0 L20.0732609,0 C20.0732609,0.77553 19.4424391,1.40638826 18.6670826,1.40638826 C17.8918174,1.40638826 17.2609043,0.77553 17.2609043,0 L15.406787,0 C15.406787,0.77553 14.7758739,1.40638826 14.0005174,1.40638826 C13.2252522,1.40638826 12.5943391,0.77553 12.5943391,0 L10.7402217,0 C10.7402217,0.77553 10.1093087,1.40638826 9.33404348,1.40638826 C8.55871435,1.40638826 7.92783783,0.77553 7.92783783,0 L6.07367478,0 C6.07367478,0.77553 5.44280739,1.40638826 4.66749652,1.40638826 C3.89218565,1.40638826 3.26130913,0.77553 3.26130913,0 L1.40618739,0 C1.40618739,0.370341391 1.25597348,0.732752087 0.994496087,0.994706087 C0.732532957,1.25618348 0.370111304,1.40638826 0,1.40638826 Z" id="Path" fill="url(#linearGradient-1)"></path>
            <path d="M35.7787043,16.8054783 L14.8205217,16.8054783 L15.9143478,11.6882348 L28.6880087,11.6882348 L29.8598087,6.18042783 L11.4998739,6.18042783 L5.71844609,33.4463348 L11.265587,33.4463348 L13.804213,21.5319391 L27.1092652,21.5319391 L15.5480348,32.9773957 L17.5793739,36.5710435 C18.516613,35.9461565 20.0401174,35.8678174 21.0948652,35.8678174 C22.9702565,35.8678174 24.806113,36.4931609 26.7196696,36.4931609 C28.4743565,36.4931609 30.270587,36.3758348 33.2007261,34.9694739 L34.2245217,30.1649478 C32.2318957,30.9848609 29.2837696,31.7664261 26.7196696,31.7664261 C25.6655609,31.7664261 24.6888783,31.5321391 23.6732087,31.3759174 L34.880087,20.4776478 L35.7787043,16.8054783 Z" id="Path" fill="#FFFFFF"></path>
        </g>
    </g>
</svg>