<?xml version="1.0" encoding="utf-8"?>
<!-- Generator: Adobe Illustrator 21.1.0, SVG Export Plug-In . SVG Version: 6.00 Build 0)  -->
<svg version="1.1" id="Layer_1" xmlns="http://www.w3.org/2000/svg" xmlns:xlink="http://www.w3.org/1999/xlink" x="0px" y="0px"
	 viewBox="0 0 602 939.6" style="enable-background:new 0 0 602 939.6;" xml:space="preserve">
<style type="text/css">
	.st0{clip-path:url(#SVGID_2_);}
	.st1{fill:#2683FF;}
	.st2{fill:#007AFF;}
	.st3{fill:#0062FF;}
	.st4{fill:#FFFFFF;}
	.st5{fill:#6CB9FF;}
	.st6{fill:#499FFC;}
	.st7{fill:#F7F9F9;}
	.st8{fill:#0F002D;}
	.st9{fill:#DEDEFC;}
</style>
<g>
	<defs>
		<rect id="SVGID_1_" x="65.2" width="538.3" height="1080"/>
	</defs>
	<clipPath id="SVGID_2_">
		<use xlink:href="#SVGID_1_"  style="overflow:visible;"/>
	</clipPath>
	<g class="st0">
		<rect x="67" y="1" class="st1" width="534.6" height="938.5"/>
		<path class="st2" d="M67,939L520.5,71.5L584,87l101.8,368.9V939H163.5H67z"/>
		<path class="st2" d="M429.3,470l-1.9-379.3c0-4.6-1.9-8.7-5-11.8c-3.1-3-7.2-5-11.8-5c-4.6,0-8.8,1.9-11.8,5c-3.1,3-5,7.2-5,11.8
			c0,7.3-2.9,13.8-7.7,18.6c-4.8,4.8-11.4,7.7-18.6,7.7c-7.3,0-13.8-2.9-18.6-7.7c-4.8-4.8-7.7-11.4-7.7-18.6V42h9.6v48.7
			c0,4.6,1.9,8.7,5,11.8c3.1,3,7.3,5,11.8,5c4.6,0,8.8-1.9,11.8-5c3.1-3,5-7.3,5-11.8c0-7.3,2.9-13.8,7.7-18.6
			c4.8-4.8,11.4-7.7,18.6-7.7c7.3,0,13.8,2.9,18.6,7.7c4.8,4.8,7.7,11.4,7.7,18.6l1.9,379.3H429.3z"/>
		<path class="st3" d="M580,637H462v302h118V637z"/>
		<path class="st4" d="M586,708.5c86.1,0,155.9-69.9,155.9-156.3S672.1,396,586,396s-155.9,69.9-155.9,156.3S499.9,708.5,586,708.5z
			"/>
		<path class="st5" d="M601.6,1H631v838h-51V1.2L601.6,1z"/>
		<path class="st6" d="M553.1,707.6c-36.8-9.1-68.8-30.6-91.3-59.6V530.8c0-1.5,0.6-3.1,1.8-4.3l43.9-44.1h45.6v45.8V707.6z"/>
		<path class="st4" d="M461.8,672.8h-85.3c-4.2,0-8-1.7-10.8-4.5c-2.8-2.7-4.5-6.5-4.5-10.7s1.7-8,4.5-10.7
			c2.7-2.7,6.6-4.5,10.8-4.5c6.6,0,12.5-2.7,16.9-7c4.3-4.3,7-10.3,7-16.8c0-6.6-2.7-12.5-7-16.8c-4.3-4.3-10.3-7-16.9-7H67v9
			c100.3,0,209.1-0.3,309.5-0.3c4.2,0,8,1.7,10.8,4.5c2.7,2.7,4.5,6.5,4.5,10.7s-1.7,8-4.5,10.7c-2.7,2.7-6.6,4.5-10.8,4.5
			c-6.6,0-12.5,2.7-16.9,7c-4.3,4.3-7,10.3-7,16.8c0,6.6,2.7,12.5,7,16.8c4.3,4.3,10.3,7,16.9,7h85.3V672.8z"/>
		<path class="st1" d="M581,712.2c-27.4-1.9-52.9-10.6-75-24.2V530.8c0-1.5,0.6-3.1,1.8-4.3l43.9-44.1H580L581,712.2z"/>
		<path class="st1" d="M630,483h-50v18h50V483z"/>
		<path class="st1" d="M630.5,525h-50.3v17.8h50.3V525z"/>
		<path class="st1" d="M630.5,566.8h-50.3v18.6h50.3V566.8z"/>
		<path class="st1" d="M630.5,609.4h-50.3v18.6h50.3V609.4z"/>
		<path class="st1" d="M630.5,651.9h-50.3v17.8h50.3V651.9z"/>
		<path class="st1" d="M630.5,693.7h-50.3v18.6h50.3V693.7z"/>
		<path class="st3" d="M630.5,736.2h-51.8v18.6h51.8V736.2z"/>
		<path class="st3" d="M630.5,778.8h-51.8v18.6h51.8V778.8z"/>
		<path class="st3" d="M630.5,820.5h-51.8V940h51.8V820.5z"/>
		<path class="st7" d="M471.9,535.9h-6.2V549h6.2V535.9z"/>
		<path class="st7" d="M485,535.9h-7V549h7V535.9z"/>
		<path class="st7" d="M497.4,535.9h-7V549h7V535.9z"/>
		<path class="st7" d="M471.9,556h-6.2v13.9h6.2V556z"/>
		<path class="st7" d="M485,556h-7v13.9h7V556z"/>
		<path class="st7" d="M497.4,556h-7v13.9h7V556z"/>
		<path class="st7" d="M471.9,576.9h-6.2V590h6.2V576.9z"/>
		<path class="st7" d="M485,576.9h-7V590h7V576.9z"/>
		<path class="st7" d="M497.4,576.9h-7V590h7V576.9z"/>
		<path class="st7" d="M471.9,597h-6.2v13.2h6.2V597z"/>
		<path class="st7" d="M485,597h-7v13.2h7V597z"/>
		<path class="st7" d="M497.4,597h-7v13.2h7V597z"/>
		<path class="st7" d="M471.9,617.1h-6.2v13.2h6.2V617.1z"/>
		<path class="st7" d="M485,617.1h-7v13.2h7V617.1z"/>
		<path class="st7" d="M497.4,617.1h-7v13.2h7V617.1z"/>
		<path class="st7" d="M485,637.2h-7v13.1h7V637.2z"/>
		<path class="st7" d="M497.4,637.2h-7v13.1h7V637.2z"/>
		<path class="st8" d="M312.7,634.3h17.5c1.8,0,3.2-1.4,3.2-3.1c0-1.7-1.5-3.1-3.2-3.1h-17.5c-1.8,0-3.2,1.4-3.2,3.1
			C309.4,632.9,310.9,634.3,312.7,634.3z"/>
		<path class="st8" d="M312.6,621.9h30.7c1.8,0,3.2-1.5,3.2-3.5s-1.5-3.5-3.2-3.5h-30.6c-1.8,0-3.2,1.5-3.2,3.5
			S310.8,621.9,312.6,621.9z"/>
		<path class="st5" d="M355.2,621.9h2.1c1.8,0,3.2-1.5,3.2-3.5s-1.4-3.5-3.2-3.5h-2.1c-1.8,0-3.2,1.5-3.2,3.5
			S353.4,621.9,355.2,621.9z"/>
		<path class="st5" d="M367.6,621.9h2.1c1.8,0,3.2-1.5,3.2-3.5s-1.4-3.5-3.2-3.5h-2.1c-1.8,0-3.2,1.5-3.2,3.5
			S365.8,621.9,367.6,621.9z"/>
		<path class="st6" d="M350.2,18.4h-36.8v62.5h36.8V18.4z"/>
		<path class="st8" d="M360.1,0h-56.6v32.9h56.6V0z"/>
		<path class="st6" d="M362.7,88.1v4.7c0,16.6-13.5,30.2-29.9,30.2c-16.4,0-29.9-13.6-29.9-30.2v-4.7c0-16.6,13.5-30.2,29.9-30.2
			C349.2,57.9,362.7,71.5,362.7,88.1z"/>
		<path class="st6" d="M350.2,117.8v35.4c0,5.5-4.5,9.9-9.9,9.9c-5.5,0-9.9-4.5-9.9-9.9v-35.4c0-5.5,4.5-9.9,9.9-9.9
			C345.7,107.8,350.2,112.4,350.2,117.8z"/>
		<path class="st5" d="M321.9,109.8v9.5c0,4.7-3.8,8.4-8.6,8.4c-4.7,0-8.6-3.8-8.6-8.4v-9.5c0-4.7,3.8-8.4,8.6-8.4
			C318.1,101.3,321.9,105.1,321.9,109.8z"/>
		<path class="st5" d="M311.4,103v7.1c0,3.5-3,6.3-6.6,6.3c-3.6,0-6.6-2.8-6.6-6.3V103c0-3.5,3-6.3,6.6-6.3
			C308.4,96.7,311.4,99.6,311.4,103z"/>
		<path class="st5" d="M334.4,118v10.1c0,5.1-4.3,9.4-9.5,9.4c-5.3,0-9.5-4.2-9.5-9.4V118c0-5.2,4.3-9.4,9.5-9.4
			C330.1,108.6,334.4,112.8,334.4,118z"/>
		<path class="st5" d="M363.6,80.1l0.4,31.8c0.1,5.5-4.4,10.2-9.9,10.4c-5.5,0.2-10.1-4.1-10.1-9.7l-0.4-31.8
			c-0.1-5.5,4.4-10.2,9.9-10.4C358.9,70.2,363.5,74.6,363.6,80.1z"/>
		<path class="st5" d="M360.4,120.3l-6.7,8.4c-3.4,4.2-9.6,4.9-13.8,1.4c-4.1-3.5-4.7-9.8-1.3-14.1l6.7-8.4
			c3.4-4.2,9.6-4.9,13.8-1.4C363.3,109.7,363.9,116.1,360.4,120.3z"/>
		<path class="st5" d="M327.8,79.9c0,9.6,7.8,17.4,17.4,17.4c9.6,0,17.4-7.8,17.4-17.4c0-9.6-7.8-17.4-17.4-17.4
			C335.6,62.5,327.8,70.3,327.8,79.9z"/>
		<path class="st8" d="M334.2,175.9c-1.1-0.7-2.4,0.1-2.4,1.4v1.3v1.9c0,0.6,0.3,1.1,0.8,1.4l6.6,3.9c0.5,0.3,1.1,0.3,1.6,0l6.6-3.9
			c0.5-0.3,0.8-0.9,0.8-1.4v-1.9v-1.3c0-1.3-1.4-2-2.4-1.4l-5,3c-0.5,0.3-1.1,0.3-1.6,0L334.2,175.9z"/>
		<path class="st8" d="M334.2,188.4c-1.1-0.7-2.4,0.1-2.4,1.4v1.3v1.9c0,0.6,0.3,1.1,0.8,1.4l6.6,3.9c0.5,0.3,1.1,0.3,1.6,0l6.6-3.9
			c0.5-0.3,0.8-0.9,0.8-1.4v-1.9v-1.3c0-1.3-1.4-2-2.4-1.4l-5,3c-0.5,0.3-1.1,0.3-1.6,0L334.2,188.4z"/>
		<path class="st6" d="M580,0h-73v483h73V0z"/>
		<path class="st4" d="M552.5,469.3H570c1.8,0,3.2-1.4,3.2-3.1s-1.5-3.1-3.2-3.1h-17.5c-1.8,0-3.2,1.4-3.2,3.1
			S550.7,469.3,552.5,469.3z"/>
		<path class="st4" d="M552.6,457h5c1.9,0,3.3-1.5,3.3-3.5c0-1.9-1.5-3.5-3.3-3.5h-5c-1.9,0-3.3,1.5-3.3,3.5
			C549.3,455.4,550.7,457,552.6,457z"/>
		<path class="st8" d="M552.6,444.6h5c1.9,0,3.3-1.4,3.3-3.1s-1.5-3.1-3.3-3.1h-5c-1.9,0-3.3,1.4-3.3,3.1S550.7,444.6,552.6,444.6z"
			/>
		<path class="st9" d="M236.6,646.9c0.5-0.5,0.9-1.2,0.9-2v-32.8c0-1.5-1.2-2.8-2.8-2.8H227v-7.8c0-8-6.4-14.5-14.3-14.5
			c-7.9,0-14.3,6.5-14.3,14.5v7.8h-7.7c-1.5,0-2.8,1.2-2.8,2.8v32.8c0,0.8,0.3,1.5,0.9,2l10.8,10.6c0.5,0.5,1.2,0.8,1.9,0.8h22.3
			c0.7,0,1.4-0.3,1.9-0.8L236.6,646.9z M215.4,638.5v3.6c0,1.5-1.2,2.8-2.8,2.8c-1.5,0-2.8-1.2-2.8-2.8v-3.6c-3-1.2-5.2-4.1-5.2-7.6
			c0-4.4,3.6-8,8-8c4.4,0,8,3.6,8,8C220.7,634.4,218.5,637.3,215.4,638.5z M221.6,609.3H204v-7.8c0-4.9,3.9-8.9,8.7-8.9
			c4.8,0,8.7,4,8.7,8.9L221.6,609.3z"/>
		<path class="st4" d="M156,568.3l-2.8-2.7c0.9-0.9,1.9-1.9,2.9-2.7l2.6,2.9C157.9,566.5,156.9,567.4,156,568.3z M161.7,563.2
			l-2.5-2.9c1-0.9,2.1-1.6,3.2-2.4l2.3,3.1C163.7,561.6,162.7,562.4,161.7,563.2z M167.9,558.7l-2.2-3.2c1.1-0.7,2.2-1.4,3.4-2.1
			l2,3.3C170,557.3,168.9,558,167.9,558.7z M251,556.6c-1-0.5-2-1.2-3-1.6l1.9-3.4c1.1,0.5,2.1,1.2,3.2,1.8L251,556.6z M174.4,554.8
			l-1.9-3.4c1.2-0.6,2.4-1.2,3.6-1.8l1.7,3.5C176.7,553.7,175.5,554.3,174.4,554.8z M244.6,553.2c-1.2-0.5-2.3-1-3.5-1.5l1.5-3.6
			c1.2,0.5,2.5,1,3.7,1.6L244.6,553.2z M181.3,551.7l-1.5-3.6c1.2-0.5,2.5-0.9,3.8-1.4l1.3,3.6C183.7,550.7,182.6,551.1,181.3,551.7
			z M237.6,550.4c-1.2-0.4-2.4-0.8-3.6-1.2l1.2-3.7c1.3,0.4,2.6,0.8,3.8,1.2L237.6,550.4z M188.5,549.1l-1.2-3.7
			c1.3-0.4,2.6-0.7,3.9-1l0.9,3.7C191,548.4,189.8,548.7,188.5,549.1z M230.2,548.1c-1.2-0.3-2.5-0.5-3.7-0.8l0.8-3.8
			c1.3,0.2,2.6,0.5,3.9,0.9L230.2,548.1z M196,547.3l-0.8-3.8c1.3-0.2,2.6-0.5,3.9-0.6l0.5,3.8C198.5,546.8,197.3,547,196,547.3z
			 M222.7,546.6c-1.2-0.2-2.6-0.3-3.8-0.5l0.4-3.9c1.3,0.1,2.7,0.3,4,0.5L222.7,546.6z M203.6,546.2l-0.4-3.9c1.3-0.1,2.7-0.2,4-0.2
			l0.2,3.9C206.2,545.9,204.9,546.1,203.6,546.2z M215.1,545.9c-1.2-0.1-2.6-0.1-3.9-0.1V542c1.3,0,2.7,0,4,0.1L215.1,545.9z"/>
		<path class="st4" d="M212.7,704.5l-0.1-3.9c1.2,0,2.6-0.1,3.8-0.2l0.2,3.9C215.4,704.4,214,704.5,212.7,704.5z M208.6,704.4
			c-1.3-0.1-2.7-0.2-4-0.2l0.3-3.9c1.2,0.2,2.6,0.2,3.8,0.2L208.6,704.4z M220.7,703.9l-0.5-3.9c1.2-0.2,2.6-0.3,3.8-0.5l0.6,3.9
			C223.3,703.6,222,703.8,220.7,703.9z M200.7,703.8c-1.3-0.2-2.7-0.4-3.9-0.6l0.7-3.8c1.2,0.2,2.5,0.5,3.8,0.6L200.7,703.8z
			 M228.7,702.7l-0.9-3.8c1.2-0.3,2.5-0.6,3.7-0.9l1,3.8C231.2,702.1,229.9,702.4,228.7,702.7z M192.7,702.4c-1.3-0.3-2.6-0.6-3.9-1
			l1.1-3.7c1.2,0.4,2.5,0.7,3.7,0.9L192.7,702.4z M236.4,700.6l-1.2-3.7c1.2-0.4,2.4-0.9,3.6-1.2l1.4,3.6
			C239,699.7,237.7,700.1,236.4,700.6z M185,700.1c-1.2-0.5-2.6-0.9-3.8-1.4l1.5-3.6c1.2,0.5,2.4,0.9,3.6,1.3L185,700.1z
			 M243.9,697.7l-1.5-3.6c1.2-0.5,2.3-1.1,3.5-1.6l1.7,3.5C246.3,696.6,245.2,697.3,243.9,697.7z M177.5,697.3
			c-1.2-0.5-2.4-1.2-3.6-1.8l1.8-3.5c1.2,0.6,2.2,1.2,3.5,1.6L177.5,697.3z M251.1,694.2l-1.9-3.4c1.1-0.6,2.2-1.2,3.3-1.9l2.1,3.3
			C253.4,692.9,252.3,693.5,251.1,694.2z M170.4,693.5c-1.2-0.7-2.3-1.4-3.4-2.1l2.1-3.2c1.1,0.7,2.2,1.4,3.2,2L170.4,693.5z
			 M257.9,690l-2.2-3.2c1.1-0.7,2.1-1.5,3.1-2.2l2.4,3.1C260.1,688.5,259,689.3,257.9,690z M163.6,689.3c-1.1-0.8-2.2-1.6-3.2-2.4
			l2.4-3c1,0.8,2,1.5,3.1,2.3L163.6,689.3z M264.3,685.2l-2.6-2.9c1-0.9,1.9-1.7,2.9-2.6l2.7,2.9
			C266.3,683.4,265.3,684.3,264.3,685.2z M157.4,684.3c-0.6-0.5-1.2-1.1-1.8-1.6l2.7-2.9c0.5,0.5,1.2,1,1.7,1.5L157.4,684.3z
			 M270.1,679.7l-2.9-2.7c0.9-0.9,1.8-1.9,2.6-2.8l2.9,2.6C272,677.8,271.1,678.8,270.1,679.7z M275.4,673.7l-3.1-2.4
			c0.8-1,1.5-2,2.3-3l3.2,2.2C277.1,671.6,276.3,672.7,275.4,673.7z M280.1,667.2l-3.3-2.1c0.7-1.1,1.4-2.2,2-3.2l3.4,1.9
			C281.6,665,280.8,666.1,280.1,667.2z M284.1,660.3l-3.5-1.8c0.6-1.2,1.2-2.2,1.6-3.4l3.6,1.6C285.3,658,284.8,659.1,284.1,660.3z
			 M287.5,653l-3.6-1.5c0.5-1.2,0.9-2.4,1.3-3.6l3.7,1.2C288.4,650.5,287.9,651.8,287.5,653z M290,645.5l-3.8-1.1
			c0.4-1.2,0.7-2.5,0.9-3.6l3.8,0.9C290.7,642.9,290.4,644.2,290,645.5z M291.9,637.7L288,637c0.2-1.2,0.5-2.5,0.6-3.7l3.9,0.5
			C292.3,635.1,292.1,636.4,291.9,637.7z"/>
		<path class="st4" d="M569.7,873.4c-1.9,0-3.7,0.1-5.5,0.3c-19.2-37.3-58-62.7-102.8-62.7c-40.8,0-76.5,21-97.1,52.9
			c-6-1.6-12.5-2.5-19-2.5c-40.7,0-73.6,33-73.6,73.6c0,1.5,0.1,2.9,0.2,4.4h359.4c0.1-1.5,0.2-2.9,0.2-4.4
			C631.3,901,603.7,873.4,569.7,873.4z"/>
		<path class="st9" d="M261.4,917.8c-1.2,0-2.2-1.1-2.2-2.3c0.6-17.4,8-33.2,19.7-44.7c11.7-11.5,27.6-18.9,45.3-19.5
			c1.2,0,2.3,1,2.3,2.2v19.8c0,1.2-0.9,2.2-2.2,2.2c-10.9,0.5-20.8,5.2-28.1,12.4c-7.3,7.2-12,16.9-12.5,27.8
			c-0.1,1.2-1.1,2.2-2.2,2.2L261.4,917.8L261.4,917.8z"/>
		<path class="st6" d="M325.3,872.1c4.5,0,8.1-3.6,8.1-8.1c0-4.5-3.6-8.1-8.1-8.1c-4.5,0-8.1,3.6-8.1,8.1
			C317.2,868.5,320.8,872.1,325.3,872.1z"/>
		<path class="st8" d="M322.2,917c2.3,0,4.3-1.9,4.3-4.3c0-2.3-1.9-4.3-4.3-4.3c-2.3,0-4.3,1.9-4.3,4.3
			C317.9,915,319.9,917,322.2,917z"/>
		<path class="st2" d="M424,908.2v14c0,0.5-0.5,0.9-0.9,0.9h-7.5c-0.5,0-0.9-0.5-0.9-0.9v-12.8c0-0.5,0.3-0.9,0.8-0.9
			c1.5-0.3,5-0.9,7.5-1.3C423.5,907.2,424,907.6,424,908.2z M439.6,906.2c0.5,0,0.9,0.5,0.9,0.9v15.2c0,0.5-0.5,0.9-0.9,0.9h-7.5
			c-0.5,0-0.9-0.5-0.9-0.9v-14.9c0-0.5,0.4-0.9,0.9-0.9C433.7,906.3,437.4,906.2,439.6,906.2z M457,908.2v14c0,0.5-0.5,0.9-0.9,0.9
			h-7.5c-0.5,0-0.9-0.5-0.9-0.9v-14.8c0-0.5,0.5-1,1-0.9c1.7,0.2,5.1,0.5,7.4,0.8C456.6,907.4,457,907.8,457,908.2z M465.2,908.9
			c2.6,0.5,5,1.2,7.5,1.9c0.4,0.2,0.7,0.5,0.7,0.9v10.5c0,0.5-0.5,0.9-0.9,0.9H465c-0.5,0-0.9-0.5-0.9-0.9v-12.5
			C464.1,909.2,464.6,908.8,465.2,908.9z"/>
		<path class="st9" d="M631.3,940.2v-10.1H416.2c-0.9,0-1.5,0.6-1.5,1.5v7.1c0,0.9,0.7,1.5,1.5,1.5H631.3z"/>
		<path class="st4" d="M224.7,144.8c3.6,0,6.6-3.1,6.6-7c0-3.9-2.9-7-6.6-7s-6.6,3.1-6.6,7C218.2,141.7,221.1,144.8,224.7,144.8z"/>
		<path class="st4" d="M244.1,144.8c3.6,0,6.6-3.1,6.6-7c0-3.9-2.9-7-6.6-7c-3.6,0-6.6,3.1-6.6,7
			C237.5,141.7,240.4,144.8,244.1,144.8z"/>
		<path class="st5" d="M224.7,122.4c3.6,0,6.6-2.9,6.6-6.6c0-3.6-2.9-6.6-6.6-6.6s-6.6,2.9-6.6,6.6
			C218.2,119.4,221.1,122.4,224.7,122.4z"/>
		<path class="st5" d="M244.1,122.4c3.6,0,6.6-2.9,6.6-6.6c0-3.6-2.9-6.6-6.6-6.6c-3.6,0-6.6,2.9-6.6,6.6
			C237.5,119.4,240.4,122.4,244.1,122.4z"/>
		<path class="st4" d="M205.4,99.2c3.6,0,6.6-2.9,6.6-6.6c0-3.6-2.9-6.6-6.6-6.6s-6.6,2.9-6.6,6.6C198.8,96.3,201.8,99.2,205.4,99.2
			z"/>
		<path class="st4" d="M224.7,99.2c3.6,0,6.6-2.9,6.6-6.6c0-3.6-2.9-6.6-6.6-6.6s-6.6,2.9-6.6,6.6C218.2,96.3,221.1,99.2,224.7,99.2
			z"/>
		<path class="st4" d="M244.1,99.2c3.6,0,6.6-2.9,6.6-6.6c0-3.6-2.9-6.6-6.6-6.6c-3.6,0-6.6,2.9-6.6,6.6
			C237.5,96.3,240.4,99.2,244.1,99.2z"/>
		<path class="st5" d="M472.3,202.1c6.6,0,12-5.6,12-12.4c0-6.8-5.4-12.4-12-12.4c-6.6,0-12,5.6-12,12.4
			C460.2,196.5,465.7,202.1,472.3,202.1z"/>
		<path class="st8" d="M471.9,195.1c2.9,0,5.4-2.4,5.4-5.4c0-2.9-2.4-5.4-5.4-5.4c-2.9,0-5.4,2.4-5.4,5.4
			C466.5,192.7,468.9,195.1,471.9,195.1z"/>
		<path class="st4" d="M118.5,808.2c0,3.6,3.1,6.6,7,6.6c3.9,0,7-2.9,7-6.6s-3.1-6.6-7-6.6C121.7,801.7,118.5,804.6,118.5,808.2z"/>
		<path class="st4" d="M118.5,827.6c0,3.6,3.1,6.6,7,6.6c3.9,0,7-2.9,7-6.6c0-3.6-3.1-6.6-7-6.6C121.7,821,118.5,824,118.5,827.6z"
			/>
		<path class="st5" d="M141,827.6c0,3.6,2.9,6.6,6.6,6.6c3.6,0,6.6-2.9,6.6-6.6c0-3.6-2.9-6.6-6.6-6.6C143.9,821,141,824,141,827.6z
			"/>
		<path class="st6" d="M310.5,749.1c6.6,0,12-5.6,12-12.4c0-6.8-5.4-12.4-12-12.4c-6.6,0-12,5.6-12,12.4
			C298.5,743.6,303.9,749.1,310.5,749.1z"/>
		<path class="st2" d="M310.1,742.1c2.9,0,5.4-2.4,5.4-5.4c0-2.9-2.4-5.4-5.4-5.4c-2.9,0-5.4,2.4-5.4,5.4
			C304.7,739.7,307.1,742.1,310.1,742.1z"/>
		<rect x="191" y="595" class="st4" width="17" height="8.9"/>
	</g>
</g>
<path class="st9" d="M186,215c-0.6,0-1.2,0-1.7,0.1c-1.1,0-2-0.5-2.6-1.5c-12.2-22.3-36-37.4-63.3-37.4c-24.8,0-46.6,12.4-59.6,31.3
	c-0.6,0.9-1.8,1.4-2.9,1.2c-3.2-0.7-6.6-1.1-10.1-1.1c-25.4,0-46,20.5-46,45.7c0,0,0,0,0,0.1c0,1.5,1.2,2.7,2.7,2.7h218.8
	c1.5,0,2.7-1.2,2.7-2.7v-0.1C224.3,232.1,207.2,215,186,215z"/>
</svg>
