<svg width="331" height="211" viewBox="0 0 331 211" fill="none" xmlns="http://www.w3.org/2000/svg">
<mask id="path-1-inside-1" fill="white">
<path fill-rule="evenodd" clip-rule="evenodd" d="M331 205C331 208.314 328.314 211 325 211L6.00001 211C2.6863 211 1.77983e-05 208.313 1.75321e-05 205L2.32832e-06 15.7512C2.0621e-06 12.4375 2.6863 9.75124 6.00001 9.75124L158.565 9.75144C159.269 9.75144 159.921 9.38114 160.282 8.77648L164.389 1.89675C165.165 0.596804 167.047 0.596804 167.823 1.89675L171.93 8.77652C172.291 9.38117 172.943 9.75147 173.647 9.75147L325 9.75167C328.314 9.75168 331 12.438 331 15.7517L331 205Z"/>
</mask>
<path fill-rule="evenodd" clip-rule="evenodd" d="M331 205C331 208.314 328.314 211 325 211L6.00001 211C2.6863 211 1.77983e-05 208.313 1.75321e-05 205L2.32832e-06 15.7512C2.0621e-06 12.4375 2.6863 9.75124 6.00001 9.75124L158.565 9.75144C159.269 9.75144 159.921 9.38114 160.282 8.77648L164.389 1.89675C165.165 0.596804 167.047 0.596804 167.823 1.89675L171.93 8.77652C172.291 9.38117 172.943 9.75147 173.647 9.75147L325 9.75167C328.314 9.75168 331 12.438 331 15.7517L331 205Z" fill="white"/>
<path d="M325 211L325 212L325 211ZM331 205L332 205L331 205ZM6.00001 211L6.00001 210L6.00001 211ZM1.75321e-05 205L-0.999982 205L1.75321e-05 205ZM2.32832e-06 15.7512L-0.999998 15.7512L2.32832e-06 15.7512ZM6.00001 9.75124L6.00001 8.75124H6.00001L6.00001 9.75124ZM325 9.75167L325 8.75167L325 9.75167ZM331 15.7517L330 15.7517L331 15.7517ZM171.93 8.77652L172.788 8.26399L171.93 8.77652ZM173.647 9.75147L173.647 10.7515L173.647 9.75147ZM164.389 1.89675L165.247 2.40927L164.389 1.89675ZM167.823 1.89675L166.965 2.40926L167.823 1.89675ZM158.565 9.75144L158.565 8.75144L158.565 9.75144ZM160.282 8.77648L159.424 8.26396L160.282 8.77648ZM325 212C328.866 212 332 208.866 332 205L330 205C330 207.761 327.761 210 325 210L325 212ZM6.00001 212L325 212L325 210L6.00001 210L6.00001 212ZM-0.999982 205C-0.999982 208.866 2.13402 212 6.00001 212L6.00001 210C3.23859 210 1.00002 207.761 1.00002 205L-0.999982 205ZM-0.999998 15.7512L-0.999982 205L1.00002 205L1 15.7512L-0.999998 15.7512ZM6.00001 8.75124C2.13401 8.75124 -0.999998 11.8852 -0.999998 15.7512L1 15.7512C1 12.9898 3.23858 10.7512 6.00001 10.7512L6.00001 8.75124ZM158.565 8.75144L6.00001 8.75124L6.00001 10.7512L158.565 10.7514L158.565 8.75144ZM161.141 9.289L165.247 2.40927L163.53 1.38422L159.424 8.26396L161.141 9.289ZM166.965 2.40926L171.071 9.28903L172.788 8.26399L168.682 1.38422L166.965 2.40926ZM325 8.75167L173.647 8.75147L173.647 10.7515L325 10.7517L325 8.75167ZM332 15.7517C332 11.8857 328.866 8.75168 325 8.75167L325 10.7517C327.761 10.7517 330 12.9902 330 15.7517L332 15.7517ZM332 205L332 15.7517L330 15.7517L330 205L332 205ZM171.071 9.28903C171.612 10.196 172.591 10.7515 173.647 10.7515L173.647 8.75147C173.295 8.75147 172.969 8.56632 172.788 8.26399L171.071 9.28903ZM165.247 2.40927C165.635 1.75929 166.577 1.75929 166.965 2.40926L168.682 1.38422C167.518 -0.565687 164.694 -0.565687 163.53 1.38422L165.247 2.40927ZM158.565 10.7514C159.621 10.7514 160.6 10.196 161.141 9.289L159.424 8.26396C159.243 8.56629 158.917 8.75144 158.565 8.75144L158.565 10.7514Z" fill="#C1C1C1" fill-opacity="0.3" mask="url(#path-1-inside-1)"/>
</svg>
