<svg width="331" height="211" viewBox="0 0 331 211" fill="none" xmlns="http://www.w3.org/2000/svg">
<mask id="path-1-inside-1" fill="white">
<path fill-rule="evenodd" clip-rule="evenodd" d="M331 205C331 208.314 328.314 211 325 211L6.00001 211C2.6863 211 1.77983e-05 208.313 1.75321e-05 205L2.32832e-06 15.7512C2.0621e-06 12.4375 2.6863 9.75124 6.00001 9.75124L274.722 9.75161C275.426 9.75161 276.078 9.38131 276.439 8.77665L280.545 1.89675C281.321 0.596805 283.204 0.59682 283.98 1.89675L288.087 8.77668C288.447 9.38132 289.1 9.75162 289.804 9.75162L325 9.75167C328.314 9.75168 331 12.438 331 15.7517L331 205Z"/>
</mask>
<path fill-rule="evenodd" clip-rule="evenodd" d="M331 205C331 208.314 328.314 211 325 211L6.00001 211C2.6863 211 1.77983e-05 208.313 1.75321e-05 205L2.32832e-06 15.7512C2.0621e-06 12.4375 2.6863 9.75124 6.00001 9.75124L274.722 9.75161C275.426 9.75161 276.078 9.38131 276.439 8.77665L280.545 1.89675C281.321 0.596805 283.204 0.59682 283.98 1.89675L288.087 8.77668C288.447 9.38132 289.1 9.75162 289.804 9.75162L325 9.75167C328.314 9.75168 331 12.438 331 15.7517L331 205Z" fill="white"/>
<path d="M325 211L325 212L325 211ZM331 205L332 205L331 205ZM6.00001 211L6.00001 210L6.00001 211ZM1.75321e-05 205L-0.999982 205L1.75321e-05 205ZM2.32832e-06 15.7512L-0.999998 15.7512L2.32832e-06 15.7512ZM6.00001 9.75124L6.00001 8.75124L6.00001 8.75124L6.00001 9.75124ZM325 9.75167L325 8.75167L325 9.75167ZM331 15.7517L330 15.7517L331 15.7517ZM288.087 8.77668L288.945 8.26415L288.087 8.77668ZM289.804 9.75162L289.804 10.7516L289.804 9.75162ZM280.545 1.89675L281.404 2.40927L280.545 1.89675ZM283.98 1.89675L283.121 2.40927L283.98 1.89675ZM274.722 9.75161L274.722 10.7516L274.722 9.75161ZM276.439 8.77665L277.298 9.28917L276.439 8.77665ZM325 212C328.866 212 332 208.866 332 205L330 205C330 207.761 327.761 210 325 210L325 212ZM6.00001 212L325 212L325 210L6.00001 210L6.00001 212ZM-0.999982 205C-0.999982 208.866 2.13402 212 6.00001 212L6.00001 210C3.23859 210 1.00002 207.761 1.00002 205L-0.999982 205ZM-0.999998 15.7512L-0.999982 205L1.00002 205L1 15.7512L-0.999998 15.7512ZM6.00001 8.75124C2.13401 8.75124 -0.999998 11.8852 -0.999998 15.7512L1 15.7512C1 12.9898 3.23858 10.7512 6.00001 10.7512L6.00001 8.75124ZM274.722 8.75161L6.00001 8.75124L6.00001 10.7512L274.722 10.7516L274.722 8.75161ZM277.298 9.28917L281.404 2.40927L279.687 1.38422L275.58 8.26413L277.298 9.28917ZM283.121 2.40927L287.228 9.28919L288.945 8.26415L284.839 1.38422L283.121 2.40927ZM325 8.75167L289.804 8.75162L289.804 10.7516L325 10.7517L325 8.75167ZM332 15.7517C332 11.8857 328.866 8.75168 325 8.75167L325 10.7517C327.761 10.7517 330 12.9902 330 15.7517L332 15.7517ZM332 205L332 15.7517L330 15.7517L330 205L332 205ZM287.228 9.28919C287.769 10.1962 288.748 10.7516 289.804 10.7516L289.804 8.75162C289.452 8.75162 289.126 8.56647 288.945 8.26415L287.228 9.28919ZM281.404 2.40927C281.792 1.75931 282.733 1.7593 283.121 2.40927L284.839 1.38422C283.675 -0.56567 280.851 -0.565686 279.687 1.38422L281.404 2.40927ZM274.722 10.7516C275.778 10.7516 276.756 10.1961 277.298 9.28917L275.58 8.26413C275.4 8.56646 275.074 8.75161 274.722 8.75161L274.722 10.7516Z" fill="#C1C1C1" fill-opacity="0.3" mask="url(#path-1-inside-1)"/>
</svg>
