<svg width="207px" height="37px" viewBox="0 0 207 37" version="1.1" xmlns="http://www.w3.org/2000/svg" preserveAspectRatio="none" id="logo">
    <g id="Page-1" stroke="none" stroke-width="1" fill="none" fill-rule="evenodd">
        <g id="Storj-OSP-Logo---Color" transform="translate(0.000000, -1.000000)" fill-rule="nonzero">
            <g id="Group-112-Copy">
                <g id="Group-108" transform="translate(145.912020, 4.374153)" fill="#606470">
                    <g id="Group-107" transform="translate(0.043820, 0.001404)">
                        <g id="Group-111">
                            <path d="M0.444576918,0.0601945896 C0.590750987,0.0601945896 0.710876515,0.131812677 0.724503137,0.223386936 L0.725790454,0.240778358 L0.725790454,30.5588839 C0.725790454,30.6586175 0.599886866,30.7394676 0.444576918,30.7394676 C0.29840285,30.7394676 0.178277322,30.6678496 0.164650699,30.5762753 L0.163363383,30.5588839 L0.163363383,0.240778358 C0.163363383,0.141044697 0.289266972,0.0601945896 0.444576918,0.0601945896 Z" id="Line-4" />
                        </g>
                    </g>
                </g>
                <g id="Group-75-Copy">
                    <g id="Group-74-Copy-2" fill="#276CFF">
                        <g id="Group-73" transform="translate(16.378400, 19.097196) rotate(-180.000000) translate(-16.378400, -19.097196) translate(0.386984, 0.884750)">
                            <path d="M15.9709259,0.0704683097 C17.6033395,0.0704683097 18.9318535,1.37020331 18.9759372,2.99020741 L27.4346292,7.8682643 C27.8745134,7.63030285 28.3490521,7.51321234 28.8189761,7.50648199 L28.865459,7.50617583 C29.9031766,7.50736559 30.9120316,8.04582343 31.4682139,9.0081132 C32.2844069,10.4202653 31.8218659,12.2193731 30.4394719,13.0675291 L30.4394719,22.8239871 C31.8218659,23.6721431 32.2844069,25.4712509 31.4682139,26.8834029 C30.9203327,27.8313301 29.9331908,28.3679828 28.9119032,28.3849283 L28.865459,28.3853424 C28.3803919,28.3858965 27.8890185,28.2690612 27.4346238,28.0232489 L18.9759345,32.9014065 C18.9322489,34.504889 17.6301971,35.7945774 16.020638,35.8206456 L15.9709259,35.8210478 C14.3385528,35.8210478 13.0100641,34.5213772 12.9659179,32.901429 L4.50746343,28.0231215 C4.06751159,28.2611705 3.5928854,28.3783026 3.12287569,28.3850342 L3.07639284,28.3853403 C2.03867523,28.3841506 1.02982026,27.8456927 0.473637887,26.8834029 C-0.34255507,25.4712509 0.119985916,23.6721431 1.50237983,22.8239871 L1.50237983,13.0675291 C0.119985916,12.2193731 -0.34255507,10.4202653 0.473637887,9.0081132 C1.02151903,8.06018597 2.00866099,7.52353338 3.02994857,7.50658779 L3.07639284,7.50617386 C3.56144814,7.50561962 4.05280952,7.62244929 4.50719499,7.86824936 L12.9659173,2.99010958 C13.0096029,1.38662711 14.3116547,0.0969388128 15.9212139,0.0708706093 L15.9709259,0.0704683097 Z M15.9709259,31.3882311 L15.9320067,31.3887494 C15.9287437,31.3888364 15.9254834,31.3889343 15.9222259,31.3890431 L15.9319615,31.3887521 C15.9189699,31.3890999 15.9060125,31.3896211 15.8930921,31.390314 L15.9222259,31.3890431 C15.9080284,31.3895172 15.893883,31.3901978 15.8797931,31.391082 L15.8930921,31.390314 C15.8799027,31.3910213 15.8667517,31.3919076 15.8536419,31.3929709 L15.8797931,31.391082 C15.8668881,31.3918919 15.8540294,31.3928726 15.8412195,31.3940219 L15.8536419,31.3929709 C15.8420256,31.3939132 15.8304417,31.3949943 15.8188921,31.3962132 L15.8412195,31.3940219 C15.8271033,31.3952883 15.8130461,31.3967594 15.799051,31.3984323 L15.8188921,31.3962132 C15.8058297,31.3975917 15.7928112,31.3991463 15.7798392,31.4008752 L15.799051,31.3984323 C15.7871727,31.3998521 15.7753392,31.4014172 15.7635522,31.4031257 L15.7798392,31.4008752 C15.7651761,31.4028293 15.7505727,31.4050062 15.7360328,31.4074029 L15.7635522,31.4031257 C15.7516261,31.4048545 15.7397476,31.4067301 15.7279186,31.4087507 L15.7360328,31.4074029 C15.7236659,31.4094414 15.711345,31.4116389 15.6990726,31.4139939 L15.7279186,31.4087507 C15.7148894,31.4109763 15.7019203,31.4133778 15.6890138,31.4159527 L15.6990726,31.4139939 C15.6832794,31.4170244 15.6675666,31.4203156 15.6519394,31.4238639 L15.6890138,31.4159527 C15.6592456,31.4218915 15.6298105,31.4287526 15.6007397,31.4365048 C15.5934338,31.4384323 15.5861268,31.4404401 15.5788409,31.4425047 L15.6007397,31.4365048 C15.5887442,31.4397036 15.5768108,31.4430541 15.5649417,31.4465542 L15.5788409,31.4425047 C15.5681818,31.445525 15.5575681,31.4486667 15.5470015,31.4519284 L15.5649417,31.4465542 C14.9720855,31.6213788 14.5394302,32.1693043 14.5394302,32.818172 C14.5394302,33.6079066 15.1803326,34.2481129 15.9709259,34.2481129 C16.7615192,34.2481129 17.4024216,33.6079066 17.4024216,32.818172 C17.4024216,32.1763709 16.9791388,31.6333253 16.3962224,31.4523984 C16.3889527,31.4501003 16.3816012,31.4478873 16.3742275,31.4457326 L16.3962224,31.4523984 C16.3853187,31.4490141 16.3743593,31.4457565 16.3633455,31.4426272 L16.3742275,31.4457326 C16.3625089,31.4423081 16.3507342,31.4390306 16.3389061,31.4359018 L16.3633455,31.4426272 C16.3506661,31.4390248 16.3379148,31.4355925 16.3250945,31.4323331 L16.3389061,31.4359018 C16.3108112,31.42847 16.2824141,31.4218765 16.2537469,31.4161429 C16.2492364,31.4152312 16.2446664,31.4143395 16.2400887,31.4134696 L16.2537469,31.4161429 C16.2404296,31.4134795 16.2270541,31.4110016 16.2136234,31.4087114 L16.2400887,31.4134696 C16.2290774,31.4113769 16.2180213,31.4094102 16.2069221,31.407571 L16.2136234,31.4087114 C16.2016366,31.4066676 16.1896058,31.4047732 16.1775336,31.4030299 L16.2069221,31.407571 C16.1921696,31.4051266 16.177341,31.4029075 16.1624397,31.4009173 L16.1775336,31.4030299 C16.1660092,31.4013658 16.1544469,31.3998394 16.1428486,31.398452 L16.1624397,31.4009173 C16.149322,31.3991653 16.1361482,31.3975909 16.1229205,31.3961964 L16.1428486,31.398452 C16.1288306,31.3967752 16.1147601,31.3953015 16.1006405,31.3940334 L16.1229205,31.3961964 C16.1113907,31.3949808 16.0998199,31.393902 16.0882101,31.3929615 L16.1006405,31.3940334 C16.0878112,31.392881 16.0749414,31.3918984 16.0620339,31.3910871 L16.0882101,31.3929615 C16.0751169,31.3919009 16.0619738,31.3910164 16.0487834,31.3903102 L16.0620339,31.3910871 C16.0479506,31.390202 16.0338223,31.3895209 16.0196524,31.3890462 L16.0487834,31.3903102 C16.0230061,31.3889301 15.9970477,31.3882311 15.9709259,31.3882311 Z M11.3174772,21.5744429 L5.99218693,24.645617 C5.99598117,24.6605728 5.9996555,24.6755438 6.00321026,24.6905287 C6.0042988,24.6951167 6.00540044,24.6998106 6.00649036,24.7045058 C6.00888515,24.7148238 6.01120251,24.7250536 6.01346445,24.7352894 C6.01511343,24.7427503 6.01675152,24.7503016 6.01835954,24.7578559 C6.02023356,24.7666602 6.02206107,24.775441 6.02384804,24.7842257 C6.02574242,24.7935391 6.02758307,24.8028148 6.02937866,24.8120942 C6.03453059,24.8387167 6.03932103,24.8654299 6.04374068,24.8921683 C6.04486085,24.8989446 6.04596422,24.9057669 6.04704351,24.9125908 C6.05737481,24.9779179 6.0654934,25.0433355 6.07143547,25.1087863 C6.07210456,25.1161567 6.07274429,25.1235066 6.07335662,25.1308567 C6.0756629,25.1585372 6.07758199,25.1862479 6.07911384,25.2139544 C6.07924479,25.2163231 6.07937277,25.2186889 6.07949793,25.2210548 L6.07911384,25.2139544 C6.07990418,25.2282494 6.08059145,25.2425432 6.08117592,25.2568349 C6.0815283,25.2654473 6.08184509,25.2741128 6.08212414,25.2827773 C6.08243121,25.2923182 6.08269097,25.3017891 6.08290572,25.3112584 C6.08306975,25.3184864 6.08320819,25.3257549 6.08332014,25.3330223 C6.08343103,25.340223 6.08351575,25.3474022 6.08357465,25.3545802 C6.08362865,25.3611632 6.08366096,25.3677448 6.08367158,25.3743256 L6.08357465,25.3545802 C6.0848873,25.5145562 6.07337733,25.6739368 6.04946157,25.8311683 C6.04548709,25.8572995 6.04116559,25.8833957 6.03650271,25.9094252 C6.03446747,25.9207859 6.03237252,25.932106 6.03021302,25.9434129 C6.02562978,25.9674118 6.020748,25.9913869 6.01557603,26.0152967 C6.01371414,26.0239044 6.01180966,26.0325258 6.00986745,26.0411383 C6.00846655,26.0473503 6.00705407,26.0535229 6.00562221,26.0596908 C6.00428101,26.0654686 6.00291307,26.0712833 6.0015279,26.0770937 C5.99888601,26.0881744 5.99620023,26.099165 5.99345281,26.11014 C5.98525277,26.1428985 5.97648905,26.1755683 5.96717836,26.2080836 C5.96050178,26.2314006 5.95353832,26.2546559 5.94629464,26.2778262 C5.94383585,26.2856908 5.941357,26.2935075 5.93884624,26.3013143 C5.93678656,26.3077187 5.93469751,26.3141405 5.93258685,26.3205554 C5.93013581,26.3280049 5.92765124,26.3354582 5.92513748,26.3429021 C5.92171589,26.3530337 5.91825382,26.363109 5.91473823,26.3731664 C5.91301511,26.378096 5.9112751,26.3830325 5.90952218,26.3879648 C5.90602441,26.3978062 5.90248608,26.4076008 5.89889679,26.4173778 C5.8981462,26.4194225 5.89736464,26.4215442 5.89658068,26.4236651 C5.89190566,26.4363111 5.88718447,26.4488255 5.88237955,26.4613097 C5.87108445,26.4906568 5.85932393,26.5198433 5.84710376,26.5488505 C5.83734824,26.5720072 5.82729995,26.5950492 5.81696038,26.6179709 C5.81346318,26.6257241 5.80991289,26.6335063 5.80632897,26.6412744 C5.80402871,26.64626 5.80173564,26.6511949 5.79942897,26.6561238 C5.79452662,26.6665996 5.78955101,26.677074 5.7845139,26.6875213 C5.78100268,26.6948035 5.77748285,26.7020295 5.77393355,26.7092424 C5.77069745,26.7158188 5.76743018,26.7223977 5.76413835,26.7289654 C5.75983195,26.7375571 5.75549853,26.7461007 5.75112343,26.7546251 C5.74842331,26.7598863 5.74566232,26.7652266 5.74288495,26.7705594 C5.73827977,26.779401 5.73367558,26.7881354 5.72902735,26.7968488 C5.72641051,26.8017543 5.72377714,26.8066579 5.72112979,26.8115547 C5.70805885,26.8357327 5.69464364,26.8597533 5.6808899,26.8836021 L5.6808899,26.8836021 L13.3670881,31.3165009 C13.3686102,31.3138728 13.3701364,31.3112473 13.3716664,31.3086241 C13.385865,31.2842822 13.4003735,31.2601948 13.4152079,31.2363305 C13.4177322,31.2322694 13.4202654,31.2282159 13.4228079,31.2241689 C13.4284504,31.2151873 13.4341586,31.2062075 13.4399129,31.1972601 C13.4436542,31.1914433 13.4473724,31.1857055 13.4511096,31.1799813 C13.4557694,31.1728434 13.4605122,31.1656462 13.4652851,31.1584706 C13.4696231,31.1519491 13.4739533,31.1454936 13.4783081,31.1390558 C13.4811537,31.1348489 13.4840254,31.1306265 13.4869077,31.1264119 C13.533474,31.0583196 13.5827588,30.9922577 13.6346172,30.928365 C13.6497449,30.9097263 13.6651198,30.891239 13.6807106,30.8729408 C13.6951915,30.8559454 13.7098678,30.8391027 13.7247274,30.8224265 C13.731783,30.8145085 13.7388671,30.8066421 13.745992,30.7988136 C13.7499581,30.7944556 13.753962,30.7900821 13.7579787,30.7857206 C13.7621104,30.7812341 13.7662341,30.7767832 13.7703712,30.772345 C13.7875408,30.7539247 13.8049568,30.7357027 13.8225976,30.7177016 C13.877981,30.6611846 13.9356272,30.6068039 13.995353,30.5547437 L14.0006925,30.5501005 C14.0199287,30.5334122 14.0393794,30.5169641 14.0590397,30.5007608 C14.0622268,30.4981343 14.0653652,30.4955584 14.0685089,30.4929888 C14.0758363,30.4869994 14.0832573,30.4809916 14.0907077,30.4750186 C14.0974088,30.4696462 14.1041196,30.4643129 14.1108537,30.4590077 C14.1145453,30.4560992 14.1182416,30.4532013 14.1219447,30.4503118 C14.146217,30.4313731 14.1707655,30.412815 14.1956039,30.3946287 C14.1971392,30.3935046 14.198577,30.3924541 14.2000156,30.3914047 C14.2075136,30.3859354 14.2151011,30.3804546 14.2227152,30.3750084 C14.2408471,30.3620396 14.2590992,30.3492877 14.277498,30.3367346 L14.2851777,30.3315124 C14.336767,30.2965469 14.3895019,30.2631413 14.4433144,30.2313635 C14.4485593,30.2282663 14.453809,30.2251876 14.4590689,30.2221245 C14.4809396,30.2093877 14.5029982,30.196912 14.525228,30.1847091 C14.534194,30.1797875 14.5431389,30.1749364 14.5521111,30.1701295 C14.5573955,30.1672983 14.5627012,30.1644763 14.5680162,30.1616696 C14.5741296,30.1584414 14.580271,30.1552256 14.5864247,30.1520304 C14.5969426,30.1465695 14.607473,30.1411808 14.618039,30.1358528 C14.6222937,30.1337071 14.6265925,30.1315522 14.6308971,30.1294074 C14.6551964,30.1173006 14.6796311,30.1055369 14.7042469,30.0940962 C14.7099073,30.0914653 14.7156113,30.0888359 14.7213248,30.0862239 C14.7465823,30.0746782 14.7719608,30.0635 14.7975204,30.0526651 C14.8227212,30.0419821 14.8481094,30.0316283 14.8736682,30.021614 C14.8970968,30.0124343 14.9206947,30.0035304 14.9444318,29.9949167 C14.9501159,29.9928542 14.9557723,29.9908209 14.9614365,29.9888043 C14.9724351,29.984888 14.9835208,29.9810142 14.9946359,29.9772037 C14.9973887,29.9762601 15.0000745,29.9753437 15.0027621,29.9744309 C15.0149276,29.970299 15.0271863,29.9662239 15.0394799,29.9622259 C15.0441111,29.9607199 15.0487263,29.9592314 15.0533463,29.9577537 C15.0656965,29.9538036 15.0781093,29.9499228 15.0905564,29.9461203 C15.0933899,29.9452547 15.0962028,29.9444 15.0990173,29.9435494 C15.1093102,29.9404382 15.119648,29.9373745 15.1300089,29.9343649 C15.13889,29.9317853 15.147771,29.9292503 15.1566685,29.9267551 C15.1589156,29.926125 15.1611349,29.9255054 15.1633551,29.9248884 L15.163265,24.1418366 C13.5185998,23.9387498 12.1061803,22.9598601 11.3174772,21.5744429 Z M20.3505642,21.4525236 C19.6147129,22.8329356 18.284075,23.8107688 16.7379036,24.0955339 L16.7379152,29.9139171 C16.7552319,29.9184682 16.7724877,29.9231698 16.7896808,29.9280201 C16.7973011,29.9301714 16.8048613,29.9323367 16.8124092,29.9345308 C16.8704461,29.9513989 16.9278033,29.9699854 16.9843764,29.9902176 C16.9893825,29.9920103 16.994403,29.993821 16.9994172,29.9956447 C17.0105126,29.9996776 17.0215326,30.0037595 17.0325219,30.0079039 C17.0363916,30.0093659 17.0402858,30.0108438 17.0441762,30.0123296 C17.0546663,30.0163332 17.0651029,30.0203864 17.0755109,30.0244962 C17.0808235,30.026597 17.0861521,30.0287187 17.0914731,30.0308552 C17.1033931,30.0356381 17.11526,30.040492 17.1270885,30.0454192 C17.1303847,30.0467956 17.1337131,30.0481892 17.1370384,30.0495885 C17.1634173,30.0606853 17.1895604,30.0721309 17.2155059,30.0839342 C17.2225913,30.0871622 17.2296238,30.0903947 17.2366415,30.0936534 C17.2574925,30.1033302 17.2782444,30.1132587 17.2988628,30.1234165 C17.3116712,30.1297324 17.3244126,30.1361233 17.3371019,30.1426017 C17.3446486,30.1464481 17.3522301,30.1503593 17.3597926,30.1543017 C17.3629715,30.1559655 17.3661039,30.1576055 17.3692329,30.159251 C17.3811757,30.165524 17.3931023,30.1718986 17.4049804,30.178351 C17.4092176,30.1806598 17.4134878,30.182993 17.4177518,30.185336 C17.4250328,30.1893297 17.4322652,30.1933431 17.4394793,30.1973853 C17.4624042,30.2102392 17.4851401,30.2233748 17.5076853,30.2367966 C17.5126023,30.2397147 17.5174619,30.2426264 17.5223125,30.2455515 C17.5316622,30.251199 17.5410197,30.2569118 17.5503433,30.2626741 C17.556168,30.2662639 17.5619656,30.2698744 17.56775,30.2735038 C17.5734902,30.2771161 17.5792662,30.2807679 17.5850288,30.2844387 C17.5917239,30.2886929 17.5983173,30.2929294 17.604893,30.2971909 C17.6260175,30.3108921 17.6470175,30.3248798 17.667829,30.3391222 C17.6751386,30.3441114 17.6824203,30.3491417 17.6896785,30.3542031 C17.7268298,30.3801247 17.7633687,30.4068506 17.7992682,30.4343676 C17.8062122,30.4396731 17.8131464,30.4450358 17.8200563,30.4504281 L17.8256232,30.4548007 C17.854774,30.4776604 17.8834914,30.5010467 17.9117611,30.5249453 C17.918776,30.5308546 17.9257125,30.5367727 17.9326218,30.5427216 C17.9398,30.5489243 17.9469614,30.5551496 17.9540928,30.5614081 C17.9589915,30.565684 17.9638899,30.5700108 17.9687741,30.5743533 C17.9727443,30.5779067 17.9766722,30.5814178 17.980591,30.584939 C18.0372948,30.6358652 18.0920337,30.6889242 18.1446975,30.7439807 C18.1494745,30.749007 18.1543015,30.7540885 18.1591108,30.7591869 C18.1808288,30.7821764 18.2021478,30.8054978 18.2230992,30.8291517 L18.224392,30.8306497 C18.2612587,30.8723287 18.2969849,30.9150384 18.3315215,30.9587299 C18.3367306,30.9652743 18.3418973,30.9718664 18.3470367,30.9784805 C18.3517688,30.9846172 18.3564992,30.9907537 18.3612064,30.9969089 C18.36619,31.0033776 18.371121,31.0098798 18.3760259,31.0164025 C18.3796356,31.0212524 18.3832351,31.0260694 18.3868204,31.0308973 C18.3932481,31.039502 18.3996451,31.0482131 18.4059961,31.0569599 C18.4098391,31.0623048 18.4136835,31.0676361 18.4175107,31.0729805 C18.4225193,31.0799215 18.4274476,31.0868654 18.432347,31.093831 C18.4365292,31.0998313 18.4407599,31.1058935 18.4449688,31.111972 C18.4505391,31.119961 18.4560023,31.1279327 18.4614278,31.1359318 C18.4651785,31.1415193 18.4689643,31.1471419 18.4727316,31.1527779 C18.5049573,31.2009295 18.5357846,31.2500572 18.5652015,31.3001116 L18.5747226,31.3165009 L26.2610033,26.8836739 L26.2610033,26.8836739 C26.2447598,26.8554955 26.2293012,26.8276616 26.2142992,26.7996098 C26.2091352,26.7899537 26.2040336,26.7802876 26.1989859,26.7705961 C26.1951941,26.7633155 26.1914515,26.7560573 26.1877393,26.7487853 C26.18555,26.744497 26.1833735,26.740208 26.1812075,26.7359142 C26.1678847,26.7095042 26.1549473,26.6828872 26.1424113,26.656099 C26.140092,26.6511427 26.1377991,26.6462081 26.1355197,26.6412678 C26.1311087,26.6317067 26.1267455,26.6221175 26.1224334,26.6125072 C26.1204083,26.6079938 26.118402,26.6034927 26.116407,26.5989871 C26.1119868,26.5890049 26.1076177,26.578991 26.1033038,26.5689552 C26.0852467,26.5269453 26.0681722,26.4845902 26.0520741,26.4418884 C26.0366582,26.4009968 26.0221324,26.3597719 26.0085112,26.3182612 C26.0068353,26.3131548 26.0051517,26.3079769 26.0034821,26.3027947 C25.983208,26.2398642 25.9650176,26.1763255 25.9489289,26.1122537 C25.9470966,26.1049563 25.9452924,26.0976559 25.9435155,26.0903487 C25.9374588,26.0654419 25.9317186,26.0404543 25.926297,26.0153948 C25.9249788,26.0093015 25.9236883,26.0032461 25.9224164,25.9971865 C25.9199694,25.985529 25.9175826,25.9738126 25.9152654,25.9620815 C25.9141959,25.9566676 25.9131419,25.9512536 25.9121027,25.9458365 C25.9038049,25.902581 25.8964539,25.8591449 25.8900561,25.8155478 C25.8877814,25.8000465 25.8856264,25.7845198 25.8835924,25.7689742 C25.8808792,25.748237 25.8783821,25.7274742 25.8761011,25.7066813 C25.8713186,25.6630913 25.8674833,25.6193317 25.8646078,25.5754724 C25.8640389,25.5667953 25.8635083,25.558126 25.8630152,25.5494529 C25.8626354,25.5427718 25.8622767,25.5360667 25.8619404,25.5293596 C25.8605242,25.501108 25.8595065,25.4728342 25.8588893,25.4445327 C25.8582352,25.4145286 25.8580306,25.3845247 25.8582778,25.3545 C25.8583364,25.3473621 25.8584217,25.3401429 25.8585332,25.3329225 C25.8586166,25.3275285 25.8587125,25.3222354 25.8588226,25.3169418 C25.8594183,25.288229 25.8604324,25.2594065 25.8618654,25.2305777 C25.8623735,25.2203535 25.8629353,25.210111 25.8635501,25.199868 C25.8639701,25.1928728 25.8644141,25.1858854 25.8648829,25.178898 C25.8652637,25.1732228 25.8656598,25.16756 25.8660721,25.1618974 C25.8684808,25.1288171 25.8714449,25.0957239 25.874967,25.0626456 C25.8750218,25.0621305 25.8750776,25.0616082 25.8751334,25.0610859 L25.874967,25.0626456 C25.8822214,24.9945137 25.8918432,24.9264449 25.9038643,24.8585592 C25.9050324,24.8519629 25.906222,24.845374 25.9074344,24.8387871 C25.9089729,24.8304281 25.9105475,24.8220737 25.9121586,24.8137225 C25.9169654,24.7888065 25.9220956,24.7639263 25.9275522,24.7390804 C25.9320911,24.7184112 25.9368687,24.6977125 25.9418744,24.6770408 L20.3505642,21.4525236 Z M2.36128456,24.1435999 C1.6766107,24.5384672 1.44202411,25.4130053 1.83732074,26.0969355 C2.23261738,26.7808657 3.10810646,27.0151974 3.79278031,26.6203302 C4.33247496,26.3090758 4.59251276,25.6997831 4.48483486,25.1207353 C4.4838586,25.1150884 4.48276761,25.1094325 4.48164181,25.1037812 L4.48483486,25.1207353 C4.48284108,25.1100134 4.4807212,25.0993019 4.47847469,25.0886029 L4.48164181,25.1037812 C4.47890405,25.0900384 4.47596039,25.0763226 4.47281049,25.0626382 L4.47847469,25.0886029 C4.47544336,25.0741661 4.47218145,25.059752 4.4686876,25.0453656 L4.47281049,25.0626382 C4.47020812,25.0513325 4.46746498,25.0400481 4.4645809,25.0287878 L4.4686876,25.0453656 C4.46570724,25.0330936 4.46255811,25.020842 4.45923936,25.0086136 L4.4645809,25.0287878 C4.46115581,25.0154152 4.45753193,25.0020762 4.45370897,24.9887752 L4.45923936,25.0086136 C4.45614729,24.9972205 4.45290796,24.9858477 4.44952071,24.9744978 L4.45370897,24.9887752 C4.44161887,24.9467108 4.42753758,24.9050251 4.41145553,24.8638494 C4.40921003,24.858059 4.40690206,24.8522614 4.40455343,24.8464726 L4.41145553,24.8638494 C4.40636857,24.850825 4.40108142,24.8378516 4.39559378,24.8249335 L4.40455343,24.8464726 C4.39974765,24.8346275 4.39477164,24.8228194 4.38962456,24.8110512 L4.39559378,24.8249335 C4.39097707,24.8140655 4.38621847,24.8032366 4.38131779,24.7924493 L4.38962456,24.8110512 C4.38350992,24.7970708 4.37715384,24.7831468 4.37055496,24.7692845 L4.38131779,24.7924493 C4.37605975,24.7808754 4.37063817,24.7693492 4.36505279,24.757874 L4.37055496,24.7692845 C4.36512718,24.7578823 4.35953513,24.7465217 4.35377803,24.7352058 L4.36505279,24.757874 C4.35825024,24.743898 4.35120476,24.7299975 4.34391593,24.716178 L4.35377803,24.7352058 C4.34550087,24.7189365 4.33688255,24.7027594 4.32792076,24.686683 L4.31674413,24.6669946 C4.29714018,24.6330765 4.27630894,24.6001952 4.25432747,24.5683879 C4.2511954,24.5638385 4.24804681,24.559337 4.24487605,24.5548587 L4.25432747,24.5683879 C4.23898087,24.5461814 4.22307362,24.5244985 4.20663195,24.5033516 C4.20374018,24.4996085 4.20087392,24.4959592 4.19799233,24.492327 L4.20663195,24.5033516 C4.19993256,24.4947351 4.19314444,24.4862076 4.18626937,24.4777699 L4.19799233,24.492327 C4.18872734,24.4806484 4.17930396,24.4691457 4.16972714,24.4578202 L4.18626937,24.4777699 C4.17849659,24.4682306 4.17061268,24.4588061 4.16262017,24.4494978 L4.16972714,24.4578202 C4.16253371,24.4493132 4.15525369,24.4409064 4.14788919,24.4326 L4.16262017,24.4494978 C4.14343189,24.4271504 4.12361779,24.4054724 4.10321334,24.384481 C4.08848583,24.3693544 4.07346494,24.3545876 4.05816405,24.3401976 C4.0440155,24.3268266 4.02957288,24.3137791 4.01488867,24.3010487 C4.00694034,24.2942594 3.99900863,24.2875435 3.99101279,24.2809223 L4.01488867,24.3010487 C4.00546304,24.2928771 3.99593785,24.2848362 3.98631594,24.2769275 L3.99101279,24.2809223 C3.54328567,23.9101616 2.89443382,23.8361204 2.36128456,24.1435999 Z M27.8725139,24.3508212 L27.8609745,24.3620079 C27.8463663,24.3763824 27.8320424,24.3910979 27.8180148,24.4061483 C27.8160541,24.4082519 27.8141663,24.4102885 27.8122835,24.4123315 L27.8180148,24.4061483 C27.8092142,24.4155906 27.8005303,24.4251645 27.7919661,24.434869 L27.8122835,24.4123315 C27.8029357,24.4224754 27.7937164,24.4327761 27.7846297,24.4432325 L27.7919661,24.434869 C27.7830699,24.4449494 27.774303,24.4551705 27.7656685,24.4655306 L27.7846297,24.4432325 C27.7768591,24.4521744 27.7691855,24.4612302 27.7616114,24.4703992 L27.7656685,24.4655306 C27.7583662,24.4742926 27.7511585,24.4831538 27.7440478,24.4921136 L27.7616114,24.4703992 C27.7516212,24.482493 27.7418039,24.4947838 27.7321656,24.50727 L27.7440478,24.4921136 C27.7359662,24.5022965 27.7280097,24.5126067 27.7201813,24.5230425 L27.7321656,24.50727 C27.7249235,24.5166519 27.7177825,24.5261439 27.710745,24.5357457 L27.7201813,24.5230425 C27.7125886,24.5331643 27.7051162,24.5434045 27.6977671,24.5537615 L27.710745,24.5357457 C27.7027607,24.5466389 27.6949097,24.5576733 27.6871955,24.5688478 L27.6977671,24.5537615 C27.6719916,24.5900867 27.6477324,24.6278502 27.6251077,24.6669946 C27.6213277,24.6735345 27.6176041,24.6800946 27.6139366,24.6866742 L27.6251077,24.6669946 C27.6082846,24.6961013 27.5926024,24.7255533 27.5780472,24.7552988 C27.5744901,24.7625874 27.5709948,24.7698881 27.5675654,24.7772087 L27.5780472,24.7552988 C27.5739143,24.7637449 27.5698724,24.7722144 27.565921,24.7807065 L27.5675654,24.7772087 C27.5619444,24.7892078 27.5565005,24.8012602 27.5512335,24.8133624 C27.5496766,24.8169051 27.5481389,24.8204777 27.5466167,24.8240537 L27.5512335,24.8133624 C27.5281835,24.8663257 27.5085227,24.9202426 27.4922297,24.9748245 C27.4912229,24.9782146 27.4902349,24.9815738 27.4892598,24.9849348 L27.4922297,24.9748245 C27.4885468,24.9871625 27.4850359,24.9995347 27.4816969,25.0119373 L27.4892598,24.9849348 C27.4854292,24.9981391 27.4817979,25.0113732 27.4783651,25.0246332 L27.4816969,25.0119373 C27.4785235,25.0237248 27.4755054,25.0355399 27.4726422,25.04738 L27.4783651,25.0246332 C27.4714762,25.0512429 27.4653862,25.0779564 27.4600863,25.1047413 C27.4592844,25.1084432 27.4585672,25.112133 27.4578649,25.1158245 L27.4600863,25.1047413 C27.344572,25.6885326 27.6044054,26.3062086 28.1490715,26.6203302 C28.8337453,27.0151974 29.7092345,26.7808657 30.1045311,26.0969355 C30.4998277,25.4130053 30.2652411,24.5384672 29.5805672,24.1435999 C29.0154396,23.8176777 28.3203134,23.9204163 27.8725139,24.3508212 Z M26.7688476,12.6632279 L23.3586963,14.6300197 C23.9385314,15.3431196 24.2860303,16.2523315 24.2860303,17.2426181 C24.2860303,18.7329073 23.4990337,20.0395834 22.3175378,20.7705712 L26.6996236,23.2978328 C26.7173841,23.2793931 26.7353514,23.2612136 26.7535201,23.2432959 C26.7849475,23.2123026 26.8169611,23.1821066 26.8495455,23.1527013 C26.9817799,23.0333712 27.1233786,22.9270824 27.272333,22.8343534 C27.3303415,22.7982416 27.3894543,22.7641923 27.449562,22.7322309 L27.4514131,22.7312475 C27.4787184,22.7167527 27.5062285,22.7026886 27.5339323,22.689058 C27.5737873,22.66945 27.6139957,22.6507602 27.6545704,22.6329747 C27.668207,22.6269974 27.6818697,22.6211287 27.6955724,22.6153622 C27.7266222,22.602295 27.7579144,22.5897389 27.7893977,22.577713 C27.8096169,22.5699904 27.8298413,22.5625128 27.8501402,22.5552534 C27.888169,22.541653 27.9264692,22.5288152 27.9650052,22.5167503 C27.9885234,22.5093874 28.0121101,22.5023179 28.0357788,22.4955374 C28.0774035,22.4836126 28.1192966,22.4725778 28.161412,22.4624458 C28.1864465,22.4564228 28.2115922,22.4507117 28.2368101,22.4453222 C28.260944,22.4401642 28.2851671,22.4352963 28.3094505,22.4307251 C28.3143716,22.4297989 28.3192298,22.4288968 28.3240904,22.4280065 C28.3424019,22.4246523 28.3608072,22.4214568 28.3792436,22.4184316 C28.4036269,22.4144311 28.428009,22.4107361 28.4524399,22.4073393 C28.4550606,22.406975 28.4576373,22.4066201 28.4602147,22.4062685 C28.4652851,22.4055769 28.4704195,22.40489 28.475556,22.4042162 C28.5041177,22.4004698 28.5327061,22.3971344 28.5613489,22.3942074 C28.5890115,22.3913812 28.6166476,22.3889419 28.6443262,22.3868836 C28.6507698,22.3864045 28.6572113,22.3859463 28.663655,22.3855086 C28.6917535,22.3836005 28.7199071,22.3820844 28.748094,22.3809637 C28.7538253,22.3807359 28.7595351,22.3805252 28.7652463,22.3803308 C28.7827346,22.3797353 28.80023,22.3792921 28.8177355,22.3790017 L28.8641798,22.3785878 L28.8648231,22.378589 L28.8648231,13.512927 L28.8648231,13.512927 L28.8641798,13.5129264 C28.7712227,13.5128199 28.6784972,13.5084021 28.5863078,13.4997546 C28.5698352,13.4982093 28.5534014,13.4965315 28.5369863,13.4947192 C28.4993994,13.4905703 28.4618778,13.4857126 28.424476,13.4801555 C28.3983591,13.4762749 28.3723217,13.4720571 28.3463495,13.4675006 C28.3116056,13.461405 28.2769916,13.4547062 28.2425113,13.4474067 C28.2148253,13.4415448 28.1872898,13.4353109 28.1598488,13.4286938 L28.1101878,13.4162734 C28.0172806,13.3922006 27.9255268,13.3637125 27.8352686,13.3309005 C27.8143514,13.3232956 27.7935982,13.3154911 27.7729289,13.3074572 C27.7298221,13.2906958 27.6874552,13.2731031 27.6454841,13.2545407 C27.6383229,13.2513737 27.6310999,13.2481455 27.6238888,13.2448885 C27.606596,13.2370773 27.5894508,13.2291381 27.5723763,13.2210356 C27.5399817,13.2056635 27.5078387,13.1897024 27.4759677,13.1731587 C27.387005,13.1269787 27.3001753,13.0762664 27.2158498,13.021118 C27.1945498,13.007188 27.1734147,12.9929783 27.1524455,12.9784873 C27.1438827,12.9725701 27.1353269,12.9665913 27.1267993,12.9605655 C27.1003169,12.9418519 27.0741339,12.9227056 27.0482352,12.9031103 C26.9508413,12.8294185 26.857499,12.7494062 26.7688476,12.6632279 Z M5.14946741,12.6855689 L5.13344436,12.7009846 C5.0814284,12.7497258 5.02787944,12.7963995 4.97292743,12.840971 C4.87578063,12.9197627 4.77430785,12.991948 4.66917186,13.0573787 L4.66758136,13.0583678 C4.64465251,13.0726176 4.62154974,13.0865462 4.59828045,13.1001518 C4.59283253,13.1033374 4.58730953,13.1065432 4.58177727,13.109731 L4.59828045,13.1001518 C4.55333881,13.1264292 4.50777604,13.1515016 4.46164564,13.1753544 C4.39584941,13.2093762 4.32889685,13.2409177 4.26094472,13.2699369 C4.15903336,13.3134592 4.05485077,13.351315 3.94894287,13.3833544 C3.94164253,13.3855629 3.93435443,13.3877377 3.92705835,13.3898849 C3.90344586,13.396835 3.87966313,13.4035199 3.85580203,13.4099129 C3.81682114,13.4203562 3.77766806,13.430012 3.73833153,13.4388831 C3.72910113,13.4409649 3.71981855,13.4430126 3.71052612,13.4450166 C3.68410525,13.4507145 3.65759498,13.456061 3.63101258,13.4610522 C3.62867714,13.4614906 3.62634979,13.4619248 3.62402189,13.4623562 C3.61072978,13.4648196 3.59741658,13.4671948 3.58408647,13.4694807 L3.62402189,13.4623562 C3.60365326,13.4661311 3.58324273,13.4696973 3.5627937,13.4730541 C3.53582046,13.4774818 3.50878699,13.481544 3.48169446,13.4852398 C3.45290461,13.4891671 3.42404333,13.4926811 3.3951248,13.4957787 C3.39013707,13.496313 3.38511159,13.4968386 3.38008444,13.4973516 C3.35303678,13.5001115 3.32596532,13.5025053 3.29885306,13.5045336 C3.29200288,13.5050461 3.28513094,13.5055366 3.2782565,13.5060034 C3.2513257,13.5078324 3.22440291,13.5092986 3.19744945,13.5104033 C3.19047676,13.5106892 3.18345269,13.5109526 3.17642667,13.5111915 C3.17326783,13.5112988 3.17017922,13.5113989 3.16709026,13.5114943 C3.13715205,13.5124193 3.10713773,13.5128983 3.07709928,13.512927 L3.08351208,13.5127629 L3.07767204,13.5129283 L3.07709928,13.512927 L3.07709928,22.3785891 L3.07709928,22.3785891 L3.07767204,22.3785898 C3.13302075,22.3786532 3.18828733,22.3802451 3.2434075,22.3833483 C3.26636308,22.3846404 3.28931958,22.3861967 3.31224596,22.3880145 C3.34311587,22.3904613 3.37400715,22.3933906 3.40483213,22.3967932 C3.43698442,22.400342 3.46908918,22.4044093 3.50110864,22.4089889 C3.52279228,22.4120902 3.54443216,22.4154257 3.56602892,22.4189949 C3.59210371,22.4233042 3.61810721,22.4279527 3.64404074,22.4329398 C3.66887577,22.4377154 3.6936727,22.4428071 3.71839906,22.4482084 C3.78919183,22.4636716 3.85944916,22.4816842 3.92897997,22.5021974 C4.00975753,22.5260406 4.08916996,22.5531101 4.16738316,22.5834608 C4.19553801,22.5943866 4.2235172,22.6057291 4.25133059,22.6174933 C4.26018565,22.6212385 4.26906392,22.6250439 4.27792488,22.6288923 C4.31504579,22.6450151 4.35181611,22.6618708 4.38825813,22.679473 C4.40724596,22.6886443 4.4261809,22.6980367 4.44502274,22.7076317 C4.50359425,22.7374575 4.56129487,22.7692575 4.61798644,22.8029875 C4.63521374,22.8132372 4.65235272,22.8236682 4.66939543,22.8342766 L4.71237141,22.8615365 C4.72670062,22.8707971 4.74095858,22.8801851 4.75514341,22.8897002 C4.92115105,23.0010756 5.07696195,23.1296603 5.21979562,23.2747921 L10.6447776,20.146224 C8.9175187,19.9295111 7.5771504,18.4707007 7.54830314,16.6934188 L7.54830314,16.6934188 L7.54782849,16.6348932 C7.54782849,15.8274667 7.81851123,15.0831927 8.27417608,14.4876791 L5.14946741,12.6855689 Z M16.1561128,14.6687245 L11.0907805,14.6687245 C10.0037147,14.6687245 9.12247382,15.5490082 9.12247382,16.6348932 C9.12247382,17.7207782 10.0037147,18.6010619 11.0908124,18.6010619 L11.0908124,18.6010619 L12.1752517,18.6011059 L12.2334907,19.3244991 C12.382253,21.172289 13.9324853,22.6079825 15.800556,22.6079825 C17.2927916,22.6079825 18.6123782,21.687267 19.1407161,20.3198006 L19.1407161,20.3198006 L19.3351739,19.8164967 L20.1346926,19.8165117 C21.5577605,19.8165117 22.711385,18.6641403 22.711385,17.2426181 C22.711385,15.8210959 21.5577605,14.6687245 20.1346926,14.6687245 L20.1346926,14.6687245 L16.2861317,14.6687245 C16.2686388,14.6687245 16.2515492,14.6688975 16.2348345,14.6692449 L16.2348345,14.6692449 L16.2179086,14.6695966 L16.1785685,14.6688488 L16.1561128,14.6687245 Z M18.574723,4.57508564 L18.5661553,4.58978049 C18.5536787,4.6110406 18.5409478,4.63213376 18.5279667,4.65305579 C18.5239466,4.65953491 18.5199274,4.66595821 18.5158845,4.67236519 C18.5122781,4.67808093 18.5086277,4.68382294 18.5049583,4.68955168 C18.5004822,4.69653964 18.4959993,4.70347523 18.4914886,4.71039111 C18.4528188,4.76968129 18.4120969,4.82753883 18.3694336,4.88384724 C18.3484757,4.91150718 18.3270808,4.93875468 18.3052305,4.96561771 C18.2699305,5.00901491 18.233464,5.0513846 18.1958598,5.0927026 C18.1923967,5.09650768 18.1889421,5.10028403 18.185478,5.10405154 C18.1785349,5.11160301 18.1715224,5.11915216 18.1644716,5.12666507 C18.160723,5.13065919 18.1570167,5.13458709 18.1532999,5.13850499 C18.1461028,5.14609177 18.1388247,5.15368433 18.131507,5.16123862 C18.0671229,5.22770457 17.9997146,5.29118961 17.9294868,5.35149001 C17.8979347,5.37858275 17.8657793,5.40505947 17.8330741,5.4308716 C17.8287616,5.43427542 17.8243793,5.43771459 17.8199872,5.44114183 C17.8121943,5.44722275 17.8044017,5.45324232 17.7965788,5.45922436 C17.789594,5.4645657 17.7825552,5.46989947 17.7754924,5.47520287 C17.7708672,5.47867588 17.7662098,5.48215213 17.7615421,5.48561518 C17.7408458,5.50096922 17.7199872,5.51603411 17.69893,5.53083578 C17.6931887,5.53487135 17.6874609,5.53886782 17.6817185,5.54284482 C17.6615225,5.5568321 17.6411377,5.57058441 17.6205771,5.5840915 C17.6116339,5.58996667 17.6026476,5.59580175 17.5936283,5.60158998 C17.5681682,5.61792916 17.5424575,5.63388771 17.516492,5.64946564 C17.5107272,5.65292419 17.5049384,5.65637077 17.4991372,5.65979841 C17.4777112,5.67245735 17.4561498,5.68483842 17.4344224,5.69695799 C17.42854,5.70023931 17.4225881,5.703533 17.4166238,5.70680705 C17.4091769,5.71089469 17.4017935,5.71490729 17.3943913,5.71888981 C17.3710974,5.73142328 17.3475453,5.74369586 17.3238129,5.7556634 C17.3200862,5.75754269 17.3163487,5.75941757 17.3126068,5.76128489 C17.3035372,5.76581085 17.2944536,5.7702865 17.2853442,5.77471751 C17.2787692,5.77791572 17.272172,5.78109498 17.2655612,5.78425082 C17.2435296,5.79476837 17.2213531,5.80502431 17.1990324,5.81501624 C17.176936,5.82490767 17.1547071,5.83453669 17.1323408,5.84390334 C17.1065319,5.85471205 17.0805039,5.86518544 17.0542984,5.87530256 C17.0249957,5.88661553 16.9954584,5.89748751 16.9657075,5.90790534 C16.9616135,5.90933883 16.9575487,5.91075226 16.95348,5.91215722 C16.9282675,5.92086369 16.9028571,5.92925892 16.877299,5.93732222 C16.8713988,5.93918351 16.8655654,5.94100408 16.8597243,5.94280733 C16.8515192,5.94534071 16.8431988,5.94786999 16.8348631,5.9503641 C16.8273092,5.95262405 16.8198375,5.95482754 16.812354,5.95700276 C16.8033849,5.95960996 16.7943426,5.96219216 16.7852831,5.96473302 C16.7811223,5.96589995 16.7769849,5.96705066 16.7728441,5.96819274 C16.7650251,5.97034937 16.7571455,5.97248805 16.749253,5.97459543 L16.7378353,5.97748378 L16.7378353,13.0957348 L20.1346926,13.0957895 C20.8276577,13.0957895 21.4809663,13.2653945 22.0552864,13.5653149 L25.9665651,11.3095533 C25.9587119,11.2812405 25.9512927,11.2528661 25.9443053,11.2244391 C25.9381385,11.1993519 25.9323007,11.1741898 25.9267982,11.1489928 C25.9216528,11.1254285 25.9168106,11.1018843 25.9122591,11.0783148 C25.9105252,11.069335 25.9088408,11.0603908 25.907198,11.0514433 C25.9055582,11.0425125 25.903951,11.0335259 25.9023856,11.0245361 C25.8911312,10.9598951 25.8820538,10.8951273 25.8751197,10.8303015 C25.8738555,10.8184836 25.8726618,10.8066551 25.8715393,10.7948253 C25.8694785,10.7731046 25.8676614,10.7514301 25.866082,10.7297551 C25.865544,10.7223706 25.8650335,10.7149859 25.8645505,10.7076013 C25.8638976,10.6976172 25.8632924,10.6875892 25.862738,10.6775617 C25.8623568,10.6706657 25.8620014,10.6638085 25.8616699,10.6569516 C25.8603012,10.6286573 25.8593358,10.6003575 25.8587717,10.5720728 C25.8586066,10.5637949 25.858476,10.5555233 25.8583795,10.5472532 C25.858306,10.5409458 25.8582523,10.5346099 25.8582187,10.5282749 L25.8583795,10.5472532 C25.8579309,10.5087323 25.8582258,10.4702439 25.8592586,10.4318097 C25.8599088,10.4076137 25.8608519,10.3834336 25.8620859,10.3592804 C25.8624545,10.3520689 25.8628473,10.3448869 25.863266,10.3377075 C25.863686,10.3305027 25.8641335,10.3232776 25.8646071,10.3160553 C25.8684736,10.2570793 25.8740744,10.1982944 25.8813889,10.1397688 C25.883497,10.1228997 25.8857507,10.1060304 25.8881466,10.0891845 C25.8895135,10.0795733 25.8909307,10.0699432 25.8923943,10.0603211 L25.8881466,10.0891845 C25.8950823,10.0404187 25.9032099,9.9918499 25.9125171,9.94352418 C25.9135791,9.93800979 25.914655,9.93250643 25.915746,9.9270063 C25.9246511,9.8821166 25.9345803,9.83742065 25.9455193,9.79297685 C25.953181,9.76184793 25.9613417,9.73083047 25.9699946,9.69994959 C25.9716426,9.69406841 25.9733028,9.68821196 25.9749807,9.68236051 C25.9761729,9.67820243 25.9773939,9.67397897 25.978624,9.66975816 L25.9749807,9.68236051 C25.9844733,9.64925601 25.9945329,9.61631178 26.0051554,9.58354368 C26.0066372,9.57897266 26.0081343,9.57439183 26.0096424,9.56981449 C26.0129262,9.55984749 26.0162613,9.54989958 26.0196484,9.53996866 C26.0210819,9.53576572 26.0225295,9.53155198 26.0239864,9.52734134 C26.033434,9.50003734 26.043278,9.47285735 26.0535137,9.44581698 C26.0716733,9.39784512 26.0910507,9.35034707 26.1116453,9.3033399 C26.1266109,9.26918014 26.14223,9.23525691 26.1584875,9.20161323 C26.1624089,9.19349728 26.1664107,9.18531038 26.1704504,9.17714041 C26.1736742,9.17062069 26.1769006,9.16415429 26.1801508,9.15769866 C26.1842945,9.14946808 26.1885108,9.14118881 26.1927664,9.13292763 C26.1954255,9.12776554 26.1980925,9.12262481 26.2007746,9.11749119 C26.2053863,9.10866472 26.2100361,9.09987167 26.2147306,9.09109992 C26.229568,9.06337419 26.2448972,9.03578243 26.260672,9.00841679 L26.2610027,9.00784324 L18.574723,4.57508564 L18.574723,4.57508564 Z M13.3671288,4.57508564 L5.68084908,9.00784324 C5.69339488,9.02959617 5.70565905,9.05149206 5.71763994,9.07352491 C5.72085105,9.07943038 5.72401762,9.08530046 5.72716411,9.09118012 C5.73181572,9.09987167 5.73646558,9.10866472 5.74107067,9.11747872 C5.74375934,9.12262481 5.74642631,9.12776554 5.74907806,9.13291328 C5.75389556,9.14226543 5.75865563,9.15162634 5.76336553,9.16100994 C5.76573508,9.1657306 5.76811915,9.17051193 5.77049022,9.17529907 C5.77514584,9.18469899 5.77973507,9.19408768 5.78427439,9.20349822 C5.78773692,9.21067589 5.79120761,9.21794497 5.79464856,9.22522684 C5.79603242,9.22815541 5.79741054,9.23108405 5.79878385,9.23401473 L5.79464856,9.22522684 C5.80123416,9.23916346 5.80771084,9.25314689 5.81407827,9.26717574 C5.82459238,9.29033872 5.83484487,9.31371111 5.84479556,9.3372018 L5.84593704,9.33990013 C5.87200555,9.40160725 5.89599274,9.46412836 5.91786753,9.52734761 C5.91932232,9.53155198 5.92076989,9.53576572 5.9222081,9.53998252 C5.92559052,9.54989958 5.92892565,9.55984749 5.93220861,9.56981193 C5.93371754,9.57439183 5.93521462,9.57897266 5.93670069,9.58355693 C5.93972427,9.59288404 5.94270642,9.6022387 5.94564273,9.61160731 C5.95300948,9.63511084 5.96009538,9.65872859 5.96689067,9.68242849 C5.96854906,9.68821196 5.97020923,9.69406841 5.97185166,9.69992977 C5.98051019,9.73083047 5.98867078,9.76184793 5.99633552,9.79298919 C6.00328753,9.82123413 6.00983432,9.84959335 6.01597031,9.87804495 C6.01739919,9.88466959 6.01882116,9.89137294 6.02022032,9.89808127 C6.02571603,9.92443309 6.03084943,9.95080433 6.03563049,9.9772448 C6.03944599,9.99834434 6.04304151,10.0195157 6.04641104,10.0407274 L6.04757309,10.0481016 C6.07120062,10.1992558 6.0833564,10.3524365 6.08366928,10.50626 C6.08368424,10.5135388 6.08367235,10.5208821 6.08363344,10.5282267 C6.08359952,10.5346099 6.08354576,10.5409458 6.08347187,10.5472827 L6.08363344,10.5282267 C6.08355605,10.5428356 6.08337176,10.5574497 6.08308025,10.5720678 C6.08284652,10.5837879 6.08254403,10.5955056 6.08217252,10.6072252 C6.08193618,10.614678 6.0816731,10.6221019 6.08138229,10.6295264 C6.08102479,10.6386554 6.08062421,10.6478091 6.08018142,10.6569634 C6.07989495,10.6628862 6.07959017,10.6688211 6.07926762,10.6747562 C6.07786228,10.7006101 6.07612261,10.7264329 6.07404499,10.7522532 C6.07327761,10.7617877 6.07246888,10.7712696 6.07161446,10.7807509 C6.06566249,10.8468163 6.05748248,10.9129175 6.04705126,10.9788764 C6.04627367,10.9837931 6.04548701,10.9886879 6.04468794,10.9935818 C6.03984507,11.0232432 6.03454363,11.0528873 6.02878313,11.0824909 C6.02774689,11.0878159 6.02670204,11.0931085 6.02564248,11.0983996 C6.02334417,11.1098774 6.0209734,11.1213642 6.01853315,11.1328441 C6.01739574,11.1381952 6.01623781,11.1435695 6.01506462,11.1489423 C6.01321195,11.1574262 6.01133271,11.1658557 6.00941583,11.1742811 C6.00726262,11.1837459 6.00505027,11.1932545 6.00278982,11.2027574 C5.99611282,11.230826 5.98902519,11.2588124 5.98151669,11.2867414 C5.9783685,11.2984525 5.97513021,11.3102106 5.97181703,11.3219578 C5.97006874,11.3281563 5.96830801,11.3343227 5.96652659,11.340486 L9.58787187,13.4290592 C10.0441267,13.2152606 10.5534864,13.0957895 11.0907805,13.0957895 L11.0907805,13.0957895 L15.1632404,13.0957348 L15.1632317,5.96659344 C15.1483978,5.96247013 15.1336101,5.95823603 15.1188695,5.9538921 C15.1144377,5.95258611 15.1099824,5.9512619 15.1055315,5.94992767 C15.0949674,5.94676088 15.0844451,5.94354295 15.0739473,5.94026906 C15.0686423,5.93861471 15.0633031,5.93693316 15.0579703,5.93523715 C15.0483581,5.93217999 15.0388006,5.92908698 15.0292642,5.92594758 C15.0237319,5.92412635 15.0181853,5.92228236 15.0126459,5.92042271 C14.9865897,5.91167513 14.9606967,5.90258195 14.9349687,5.89314746 C14.9306024,5.89154648 14.9261776,5.88991211 14.9217578,5.88826764 C14.9131578,5.8850678 14.9046162,5.88184496 14.8960931,5.87858446 C14.8731615,5.86981182 14.8503714,5.86076938 14.8277202,5.85145855 C14.7936386,5.83744864 14.7599136,5.82285028 14.7265158,5.80765931 C14.7083114,5.79937864 14.6902534,5.7909455 14.6722942,5.78233941 C14.6661932,5.77941589 14.6600707,5.77645631 14.6539597,5.77347665 C14.6165398,5.75523066 14.5795722,5.73624039 14.5430594,5.71651721 C14.5336548,5.71143698 14.524294,5.70631573 14.5149635,5.70114633 C14.5107525,5.69881328 14.5064988,5.69644315 14.5022514,5.69406302 C14.4944081,5.6896675 14.4866224,5.68525841 14.4788584,5.68081574 C14.4708102,5.67621028 14.4628115,5.67158401 14.4548362,5.66692207 C14.4492576,5.66366135 14.4436269,5.66034541 14.438008,5.65701171 C14.428451,5.65134135 14.4189713,5.64564586 14.4095259,5.6398998 C14.4066055,5.63812312 14.4037121,5.6363562 14.400822,5.63458451 C14.3896381,5.62772904 14.3784644,5.62077844 14.3673401,5.61375693 C14.3634042,5.61127263 14.359513,5.60880393 14.3556278,5.60632656 C14.3485585,5.60181891 14.3414808,5.59726408 14.3344236,5.59268047 C14.3273773,5.58810399 14.3203295,5.58348438 14.3133025,5.57883605 C14.3067979,5.57453311 14.3003681,5.57024406 14.293956,5.56593096 C14.2874331,5.56154347 14.2808955,5.55710862 14.2743763,5.55264878 C14.2653906,5.54650149 14.2564389,5.54030601 14.2475227,5.53406343 C14.2224941,5.51653979 14.1977506,5.49864889 14.1732945,5.48039482 C14.1550161,5.46675202 14.1368672,5.45288215 14.1188828,5.43881208 C14.1128061,5.43405788 14.1067657,5.42929481 14.1007442,5.42450915 C14.0563424,5.38922042 14.0129635,5.35270356 13.9706584,5.31500956 C13.9656564,5.31055303 13.9605916,5.30600993 13.9555426,5.30144993 C13.9460528,5.2928789 13.936689,5.28431399 13.92738,5.27569091 C13.9242398,5.27278216 13.9210589,5.26982307 13.9178845,5.26685719 C13.9138149,5.26305489 13.9097583,5.25924368 13.9057123,5.25542136 C13.8976287,5.24778475 13.8895712,5.24008798 13.8815566,5.23234707 C13.8774274,5.22835867 13.8733625,5.22441023 13.8693086,5.22045043 C13.8643698,5.21562617 13.8594054,5.21074337 13.8544579,5.20584351 L13.8452632,5.19669804 C13.8426328,5.19407055 13.8400073,5.19143821 13.8373867,5.18880103 C13.8196393,5.17094212 13.8020893,5.15283426 13.7847677,5.13450869 L13.7809871,5.13050159 C13.7668545,5.11549523 13.7528748,5.1003436 13.7390504,5.08504919 C13.727535,5.0723092 13.7161299,5.05947314 13.704834,5.04653947 C13.6883597,5.02767648 13.6721198,5.00860876 13.6561166,4.98933795 C13.651793,4.9841316 13.6474921,4.97891687 13.6432084,4.97368744 C13.6369483,4.96604536 13.6307194,4.9583645 13.6245278,4.95065248 C13.6093003,4.93168553 13.5943228,4.91256156 13.5795743,4.89325368 C13.5750116,4.88728066 13.5704421,4.88125191 13.565895,4.87520546 C13.5619895,4.87001232 13.5580932,4.86479627 13.5542136,4.85956721 C13.5479532,4.85112914 13.5417666,4.84269914 13.5356231,4.83423588 C13.5323096,4.82967141 13.529006,4.82509324 13.5257149,4.82050542 C13.5194069,4.81171225 13.5131242,4.80285357 13.5068886,4.79395957 C13.5038289,4.78959552 13.5008068,4.78526065 13.4977958,4.78091745 C13.4922973,4.77298632 13.4868152,4.76499682 13.481371,4.75697964 C13.4773514,4.75106044 13.4733454,4.74511568 13.4693602,4.73915589 C13.4393307,4.69424604 13.4105067,4.64852563 13.3829046,4.60199678 L13.3671288,4.57508564 Z M28.1490715,9.27118598 C27.6083402,9.5830382 27.3483412,10.1940746 27.4576414,10.774117 C27.4583648,10.7783406 27.459181,10.782552 27.4600164,10.7867609 L27.4576414,10.774117 C27.4620501,10.7975133 27.4670596,10.8208591 27.4726757,10.8441328 C27.4969776,10.9447604 27.532495,11.0435615 27.5793301,11.138816 C27.5815214,11.1432886 27.5837801,11.1478214 27.5860651,11.1523471 L27.5793301,11.138816 C27.5843194,11.1489634 27.5894372,11.1590706 27.5946835,11.1691354 L27.5860651,11.1523471 C27.5925142,11.1651201 27.5991729,11.1778368 27.6060427,11.1904931 L27.6251077,11.2245216 C27.644614,11.2582709 27.6653355,11.2909937 27.6871962,11.3226532 C27.6904595,11.3273965 27.693748,11.3320995 27.6970607,11.3367774 L27.6871962,11.3226532 C27.6943028,11.3329451 27.7015296,11.3431247 27.7088742,11.3531906 L27.6970607,11.3367774 C27.7047328,11.3476111 27.7125348,11.3583098 27.7204631,11.3688725 L27.7088742,11.3531906 C27.7173732,11.3648386 27.7260299,11.3763343 27.7348402,11.387676 L27.7204631,11.3688725 C27.7273147,11.3780006 27.7342605,11.3870271 27.7412986,11.3959516 L27.7348402,11.387676 C27.7430944,11.3983016 27.7514833,11.408792 27.7600039,11.4191456 L27.7412986,11.3959516 C27.7492173,11.4059925 27.7572527,11.4159043 27.7654017,11.425686 L27.7600039,11.4191456 C27.775007,11.4373763 27.790418,11.4551826 27.8062187,11.4725558 C28.2493279,11.959551 28.986721,12.0904011 29.5805672,11.7479163 C30.2652411,11.353049 30.4998277,10.4785109 30.1045311,9.79458067 C29.7092345,9.11065051 28.8337453,8.87631872 28.1490715,9.27118598 Z M1.83732074,9.79458067 C1.44202411,10.4785109 1.6766107,11.353049 2.36128456,11.7479163 C2.90395519,12.060887 3.56649794,11.9785883 4.01480608,11.5904466 C4.02417074,11.5824204 4.03335628,11.5742466 4.04244261,11.5659474 L4.06933794,11.540695 C4.08415777,11.5264508 4.09870673,11.5118477 4.11297111,11.4968895 C4.11644643,11.4932501 4.11986926,11.4896204 4.12327465,11.4859709 L4.11297111,11.4968895 C4.12053506,11.4889576 4.12801899,11.4809258 4.13542087,11.4727947 L4.12327465,11.4859709 C4.13150165,11.4771543 4.13962689,11.4682226 4.14764786,11.459177 L4.13542087,11.4727947 C4.14400366,11.4633663 4.15247613,11.4538044 4.1608351,11.4441097 L4.14764786,11.459177 C4.15619072,11.4495428 4.16461534,11.4397795 4.17291872,11.4298884 L4.1608351,11.4441097 C4.1691365,11.4344818 4.17732596,11.424723 4.18540035,11.4148342 L4.17291872,11.4298884 C4.19854669,11.3993599 4.22301979,11.3676144 4.24625042,11.3346942 C4.24894595,11.3308925 4.25164198,11.3270313 4.25432155,11.3231532 L4.24625042,11.3346942 C4.27122004,11.2993096 4.2947542,11.2625679 4.31674413,11.2245216 C4.32331087,11.21316 4.32970789,11.2017374 4.33593544,11.1902572 C4.33830348,11.1858958 4.34064263,11.1815311 4.34295682,11.1771595 L4.33593544,11.1902572 C4.34285073,11.177509 4.34955704,11.1646897 4.35605468,11.1518035 L4.34295682,11.1771595 C4.34938769,11.1650112 4.35562589,11.152809 4.3616724,11.1405564 L4.35605468,11.1518035 C4.361478,11.1410479 4.36675594,11.1302458 4.37188871,11.1193997 L4.3616724,11.1405564 C4.36800572,11.1277226 4.37412873,11.1148336 4.38004253,11.1018936 L4.37188871,11.1193997 C4.38439867,11.0929648 4.39604621,11.0662685 4.40683405,11.0393477 C4.40840365,11.0354706 4.40992814,11.0316174 4.41143472,11.0277605 L4.40683405,11.0393477 C4.42771283,10.9872454 4.44537133,10.9343024 4.45982914,10.8807867 C4.4616003,10.8741554 4.46332601,10.8675681 4.46500275,10.8609746 L4.45982914,10.8807867 C4.46310825,10.8686491 4.46622271,10.856482 4.46917275,10.8442886 L4.46500275,10.8609746 C4.46799291,10.8492163 4.47082737,10.8374382 4.4735069,10.8256431 L4.46917275,10.8442886 C4.47250348,10.8305217 4.47562461,10.8167212 4.47853648,10.8028916 L4.4735069,10.8256431 C4.47638213,10.8129866 4.47907897,10.8003105 4.48159836,10.7876184 L4.47853648,10.8028916 C4.48087273,10.791796 4.48307427,10.7806816 4.48514127,10.7695509 L4.48159836,10.7876184 C4.59753,10.2035786 4.33770876,9.58545884 3.79278031,9.27118598 C3.10810646,8.87631872 2.23261738,9.11065051 1.83732074,9.79458067 Z M15.9709259,1.64340329 C15.1803326,1.64340329 14.5394302,2.28360962 14.5394302,3.07334417 C14.5394302,3.67793289 14.9150511,4.19488596 15.445896,4.40404585 C15.4497787,4.40569145 15.4536906,4.40720957 15.4576101,4.40871074 L15.445896,4.40404585 C15.4556863,4.40790335 15.4655295,4.41165616 15.4754239,4.4153029 L15.4576101,4.40871074 C15.4692009,4.41315003 15.480858,4.4174411 15.492579,4.42158225 L15.4754239,4.4153029 C15.4864824,4.4193786 15.4976049,4.4233218 15.5087898,4.42713056 L15.492579,4.42158225 C15.504316,4.42572903 15.5161169,4.42972548 15.5279792,4.43356984 L15.5087898,4.42713056 C15.5211625,4.43134382 15.5336114,4.4353926 15.5461339,4.43927427 L15.5279792,4.43356984 C15.5402434,4.43754438 15.5525732,4.44135637 15.5649658,4.4450039 L15.5461339,4.43927427 C15.5569836,4.44263739 15.5678885,4.44587507 15.578847,4.44898563 L15.5649658,4.4450039 C15.5768439,4.4485 15.5887798,4.451845 15.6007709,4.45503722 L15.578847,4.44898563 C15.5917745,4.45265508 15.6047766,4.45614761 15.6178503,4.45946042 L15.6007709,4.45503722 C15.6298535,4.46277941 15.659261,4.4696229 15.6889581,4.47554358 C15.6952583,4.47680923 15.7015174,4.47801442 15.7077909,4.47917877 L15.6889581,4.47554358 C15.7002674,4.47779831 15.7116187,4.47991921 15.72301,4.48190494 L15.7077909,4.47917877 C15.7206526,4.48156585 15.7335748,4.48378117 15.7465549,4.48582223 L15.72301,4.48190494 C15.7367225,4.48429533 15.7504931,4.48648986 15.7643183,4.48848621 L15.7465549,4.48582223 C15.7556522,4.48725271 15.7647777,4.48859761 15.773931,4.48985606 L15.7643183,4.48848621 C15.7785212,4.49053711 15.7927817,4.49237886 15.8070962,4.49400894 L15.773931,4.48985606 C15.786507,4.49158511 15.7991351,4.49315098 15.8118132,4.49455146 L15.8070962,4.49400894 C15.8191155,4.49537767 15.8311728,4.49659715 15.843266,4.49766592 L15.8118132,4.49455146 C15.8254576,4.4960587 15.8391599,4.49737439 15.8529173,4.49849575 L15.843266,4.49766592 C15.8567363,4.4988564 15.8702512,4.49985987 15.8838073,4.50067428 L15.8529173,4.49849575 C15.8659703,4.4995597 15.8790729,4.50044874 15.8922226,4.50116049 L15.8838073,4.50067428 C15.8965689,4.50144093 15.9093671,4.50204005 15.9221995,4.50246988 L15.8922226,4.50116049 C15.9182779,4.50257077 15.9445183,4.50328505 15.9709259,4.50328505 L16.0098452,4.50276679 C16.0131081,4.50267978 16.0163684,4.50258187 16.0196259,4.5024731 L16.0098893,4.50276405 C16.0231622,4.50240879 16.0363992,4.50187245 16.0495978,4.50115694 L16.0196259,4.5024731 C16.0324875,4.5020436 16.045306,4.50144462 16.0580795,4.50067834 L16.0495978,4.50115694 C16.0627473,4.50044408 16.0758587,4.49955337 16.088929,4.49848669 L16.0580795,4.50067834 C16.0716327,4.49986525 16.0851352,4.49886381 16.0985841,4.49767658 L16.088929,4.49848669 C16.1026841,4.49736412 16.1163937,4.49604664 16.1300548,4.49453644 L16.0985841,4.49767658 C16.1106793,4.49660886 16.1227313,4.49539088 16.1347381,4.49402451 L16.1300548,4.49453644 C16.1429136,4.49311493 16.1557292,4.49152267 16.1684991,4.48976147 L16.1347381,4.49402451 C16.148688,4.49243702 16.162577,4.49064924 16.1764022,4.48866413 L16.1684991,4.48976147 C16.1778792,4.4884678 16.1872346,4.48708299 16.1965642,4.48560774 L16.1764022,4.48866413 C16.1906583,4.48661713 16.2048467,4.4843603 16.2189638,4.48189688 L16.1965642,4.48560774 C16.2079225,4.4838117 16.2192427,4.48188164 16.2305228,4.47981883 L16.2189638,4.48189688 C16.2306245,4.4798621 16.2422367,4.47768635 16.2537986,4.47537146 L16.2305228,4.47981883 C16.2623946,4.47399038 16.2939464,4.46710227 16.3251348,4.45918388 C16.3296995,4.45801223 16.3342956,4.45681916 16.3388827,4.45560392 L16.3251348,4.45918388 C16.3379392,4.45593298 16.3506824,4.45250842 16.3633613,4.44891223 L16.3388827,4.45560392 C16.3507135,4.4524696 16.3624842,4.44918773 16.3741926,4.44576043 L16.3633613,4.44891223 C16.3747881,4.44567119 16.3861626,4.44229075 16.3974828,4.4387724 L16.3741926,4.44576043 C16.3872174,4.44194776 16.4001654,4.43795512 16.4130334,4.43378535 L16.3974828,4.4387724 C16.4093859,4.43507289 16.4212289,4.43122088 16.4330093,4.42721812 L16.4130334,4.43378535 C16.4251993,4.42984312 16.4372938,4.42574258 16.4493144,4.42148616 L16.4330093,4.42721812 C16.4441988,4.4234161 16.4553318,4.41947805 16.4664061,4.41540548 L16.4493144,4.42148616 C16.4611867,4.41728226 16.4729871,4.4129263 16.4847131,4.40842064 L16.4664061,4.41540548 C16.4759265,4.41190433 16.4854036,4.40830377 16.4948357,4.40460471 L16.4847131,4.40842064 C17.0214895,4.20216564 17.4024216,3.68219232 17.4024216,3.07334417 C17.4024216,2.28360962 16.7615192,1.64340329 15.9709259,1.64340329 Z" id="Combined-Shape" />
                        </g>
                    </g>
                    <path d="M88.3812939,9.13980693 C94.4978849,9.13980693 98.8870834,13.687708 98.8870834,19.3091107 L98.8870834,19.3655643 C98.8870834,24.986967 94.4412716,29.5913216 88.3246807,29.5913216 C82.2080897,29.5913216 77.8188912,25.0434207 77.8188912,19.422116 L77.8188912,19.3655643 C77.8188912,13.7442597 82.2647029,9.13980693 88.3812939,9.13980693 Z M49.6039629,9.205784 C52.4858334,9.205784 54.9438907,10.108845 56.9499265,11.7175268 L54.6896225,14.9912458 C52.9378548,13.7777391 51.2143938,13.0439407 49.5474479,13.0439407 C47.8805019,13.0439407 47.0046672,13.8059168 47.0046672,14.7654314 L47.0046672,14.821885 C47.0046672,16.1201211 47.8521953,16.5433758 51.2709088,17.4182591 C55.2829805,18.4625032 57.5432846,19.9018242 57.5432846,23.3448058 L57.5432846,23.4012594 C57.5432846,27.3241455 54.5483841,29.5253445 50.2820443,29.5253445 C47.2871439,29.5253445 44.264035,28.4811986 41.8907011,26.3645327 L44.4617884,23.2883522 C46.2417642,24.7559491 48.1065618,25.6872861 50.3667675,25.6872861 C52.1467435,25.6872861 53.2204297,24.9816653 53.2204297,23.8246122 L53.2204297,23.7681587 C53.2204297,22.6675591 52.5423483,22.1031214 49.2366646,21.2564158 C45.2528997,20.2404476 42.6818124,19.1398481 42.6818124,15.216962 L42.6818124,15.1605084 C42.6818124,11.5764419 45.5636829,9.205784 49.6039629,9.205784 Z M135.343664,9.46969223 L135.343664,22.406989 C135.343664,27.2090784 132.519095,29.5253445 128.338756,29.5253445 C125.260017,29.5253445 123.226362,28.1694767 121.870592,26.5594203 L124.610438,23.5086685 C125.740246,24.7515309 126.841748,25.4860167 128.225824,25.4860167 C129.86407,25.4860167 130.880849,24.4973426 130.880849,22.2092541 L130.880849,13.8897627 L124.380251,13.8898609 L124.380251,9.46969223 L135.343664,9.46969223 Z M76.0356718,9.46969223 L76.0356718,13.4845731 L70.0206111,13.4845731 L70.0206111,29.2615345 L65.6717103,29.2615345 L65.6717103,13.4845731 L59.6566497,13.4845731 L59.6566497,9.46969223 L76.0356718,9.46969223 Z M111.633126,9.46969223 C116.298315,9.46969223 119.097329,11.9294978 119.097329,16.0009304 L119.097329,16.0574823 C119.097329,19.2524607 117.372689,21.2599503 114.856347,22.1929563 L119.69108,29.2615345 L114.601883,29.2615345 L110.360802,22.9281292 L106.93973,22.9281292 L106.93973,29.2615345 L102.58562,29.2615345 L102.58562,9.46969223 L111.633126,9.46969223 Z M88.3246807,13.1641132 C84.8121031,13.1641132 82.3759637,15.926608 82.3759637,19.3092088 L82.3759637,19.3655643 C82.3759637,22.748165 84.8687163,25.5670153 88.3812939,25.5670153 C91.8938715,25.5670153 94.3300109,22.8045205 94.3300109,19.4219197 L94.3300109,19.3655643 C94.3300109,15.9829635 91.8372582,13.1641132 88.3246807,13.1641132 Z M111.259341,13.4280214 L106.944546,13.4280214 L106.944546,19.1016561 L111.343966,19.1016561 C113.459101,19.1016561 114.671764,17.9725842 114.671764,16.3072525 L114.671764,16.250799 C114.671764,14.3877324 113.374476,13.4280214 111.259341,13.4280214 Z" id="Clip-45" fill="#091C45" />
                </g>
            </g>
            <path d="M164.100263,29.3922055 C169.096956,29.3922055 172.64673,25.431954 172.64673,19.2555032 C172.64673,13.0790525 169.096956,9.11880098 164.100263,9.11880098 C159.113215,9.11880098 155.563441,13.0886882 155.563441,19.2555032 C155.563441,25.4223183 159.103569,29.3922055 164.100263,29.3922055 Z M164.100263,27.6963313 C160.193581,27.6963313 157.30939,24.5454743 157.30939,19.2555032 C157.30939,13.9366252 160.222519,10.8146751 164.100263,10.8146751 C167.997298,10.8146751 170.891159,13.9462609 170.891159,19.2555032 C170.900781,24.5647456 167.997298,27.6963313 164.100263,27.6963313 Z M182.970559,29.459655 C187.253439,29.459655 189.819308,27.0411073 189.819308,23.8806146 C189.819308,20.604494 186.964055,19.2940458 184.456063,18.5906435 L182.3725,17.9932332 C180.45292,17.4536369 178.43688,16.4804364 178.43688,14.3991364 C178.43688,12.2792937 180.337166,10.7279543 183.095959,10.7279543 C185.710059,10.7279543 187.581407,12.1251233 187.803269,14.3220512 L189.549217,14.3220512 C189.414172,11.3253645 186.819363,9.10916534 183.14419,9.10916534 C179.497954,9.10916534 176.690931,11.2964576 176.690931,14.4762216 C176.690931,17.0103972 178.48511,18.6002791 181.581517,19.5156658 L183.944818,20.2094324 C186.394934,20.9224704 188.07336,21.837857 188.07336,23.8517075 C188.07336,26.2220771 185.922273,27.8119591 182.970559,27.8119591 C180.308228,27.8119591 178.224665,26.5304178 178.031743,24.1889553 L176.179686,24.1889553 C176.391902,27.3109053 178.938479,29.459655 182.970559,29.459655 Z M196.043531,29.1224073 L196.043531,21.5776945 L200.644734,21.5776945 C204.821505,21.5776945 206.982238,18.9278911 206.982238,15.4783291 C206.982238,12.0287668 204.821505,9.38859914 200.615794,9.38859914 L194.239706,9.38859914 L194.239706,29.1224073 L196.043531,29.1224073 Z M200.596503,19.9589056 L196.043531,19.9589056 L196.043531,11.0073881 L200.567565,11.0073881 C203.69291,11.0073881 205.20735,12.8863396 205.20735,15.4783291 C205.20735,18.0606828 203.69291,19.9589056 200.596503,19.9589056 Z" id="OSP" fill="#606470" />
        </g>
    </g>
</svg>
