<svg width="157" height="22" viewBox="0 0 157 22" fill="none" xmlns="http://www.w3.org/2000/svg">
    <path d="M6.1445 5.83813V20.7814C6.1445 21.3771 5.66167 21.86 5.06607 21.86C4.90459 21.86 4.74518 21.8237 4.59959 21.7539L0.61196 19.8406C0.237942 19.6611 0 19.283 0 18.8682V8.63663L6.1445 5.83813ZM13.7558 2.37157V20.7814C13.7558 21.3771 13.273 21.86 12.6774 21.86C12.5159 21.86 12.3565 21.8237 12.2109 21.7539L8.22329 19.8406C7.84927 19.6611 7.61133 19.283 7.61133 18.8682V5.17007L13.7558 2.37157ZM15.2227 1.70351L15.8404 1.42217C17.602 0.619848 19.4753 0.155089 21.3672 0.029469V20.7814C21.3672 21.3771 20.8843 21.86 20.2887 21.86C20.1273 21.86 19.9678 21.8237 19.8223 21.7539L15.8346 19.8406C15.4606 19.6611 15.2227 19.283 15.2227 18.8682V1.70351ZM28.9785 1.40437V20.7814C28.9785 21.3771 28.4957 21.86 27.9001 21.86C27.7386 21.86 27.5792 21.8237 27.4336 21.7539L23.446 19.8406C23.0719 19.6611 22.834 19.283 22.834 18.8682V0C24.763 0.0504118 26.6864 0.452582 28.506 1.20817L28.9785 1.40437ZM36.5898 9.03171L36.5859 13.244L30.4453 15.7939V2.01347L36.5859 4.56338V8.77566L36.5898 9.03171ZM49.4709 13.018V8.62247H48.3845V6.72924H49.4709V4.47383H51.7919V6.72924H53.833V8.62247H51.7919V13.0345C51.7919 13.6436 52.0388 13.907 52.7631 13.907H53.833V15.8497H52.3845C50.6396 15.8497 49.4709 15.1088 49.4709 13.018ZM54.8925 11.2565C54.8925 8.40845 56.7361 6.58107 59.0571 6.58107C60.5222 6.58107 61.5263 7.27251 62.0695 8.0298V6.72924H64.3905V15.8497H62.0695V14.5162C61.5263 15.3064 60.4892 15.9978 59.0407 15.9978C56.7361 15.9978 54.8925 14.1046 54.8925 11.2565ZM62.0695 11.2894C62.0695 9.56085 60.9172 8.606 59.6497 8.606C58.4152 8.606 57.2464 9.52792 57.2464 11.2565C57.2464 12.9851 58.4152 13.9729 59.6497 13.9729C60.9172 13.9729 62.0695 13.018 62.0695 11.2894ZM68.9397 11.3059V15.8497H66.6351V6.72924H68.9397V8.14504C69.5158 7.20666 70.4705 6.59753 71.738 6.59753V9.01757H71.129C69.7627 9.01757 68.9397 9.54438 68.9397 11.3059ZM72.6823 11.2565C72.6823 8.40845 74.5259 6.58107 76.8634 6.58107C78.065 6.58107 79.2173 7.14081 79.8428 7.99688V3.66715H82.1803V15.8497H79.8428V14.4997C79.2996 15.3393 78.279 15.9978 76.8469 15.9978C74.5259 15.9978 72.6823 14.1046 72.6823 11.2565ZM79.8593 11.2894C79.8593 9.56085 78.707 8.606 77.4395 8.606C76.2049 8.606 75.0362 9.52792 75.0362 11.2565C75.0362 12.9851 76.2049 13.9729 77.4395 13.9729C78.707 13.9729 79.8593 13.018 79.8593 11.2894ZM84.4249 15.8497V6.72924H86.7294V15.8497H84.4249ZM85.5936 5.64269C84.7706 5.64269 84.178 5.05003 84.178 4.29273C84.178 3.53544 84.7706 2.94278 85.5936 2.94278C86.4002 2.94278 87.0093 3.53544 87.0093 4.29273C87.0093 5.05003 86.4002 5.64269 85.5936 5.64269ZM88.3979 11.2565C88.3979 8.40845 90.2416 6.58107 92.5626 6.58107C93.9947 6.58107 95.0317 7.23959 95.5749 8.0298V6.72924H97.8959V15.9155C97.8959 18.3849 96.3815 20.344 93.3856 20.344C90.8177 20.344 89.0235 19.0599 88.793 16.9691H91.0811C91.3116 17.7923 92.1675 18.3355 93.3198 18.3355C94.5873 18.3355 95.5749 17.6112 95.5749 15.9155V14.4997C95.0317 15.2899 93.9947 15.9978 92.5626 15.9978C90.2416 15.9978 88.3979 14.1046 88.3979 11.2565ZM95.5749 11.2894C95.5749 9.56085 94.4227 8.606 93.1552 8.606C91.9206 8.606 90.7519 9.52792 90.7519 11.2565C90.7519 12.9851 91.9206 13.9729 93.1552 13.9729C94.4227 13.9729 95.5749 13.018 95.5749 11.2894ZM102.445 11.3059V15.8497H100.141V6.72924H102.445V8.14504C103.021 7.20666 103.976 6.59753 105.243 6.59753V9.01757H104.634C103.268 9.01757 102.445 9.54438 102.445 11.3059ZM106.188 11.2565C106.188 8.40845 108.031 6.58107 110.352 6.58107C111.817 6.58107 112.821 7.27251 113.365 8.0298V6.72924H115.686V15.8497H113.365V14.5162C112.821 15.3064 111.784 15.9978 110.336 15.9978C108.031 15.9978 106.188 14.1046 106.188 11.2565ZM113.365 11.2894C113.365 9.56085 112.212 8.606 110.945 8.606C109.71 8.606 108.542 9.52792 108.542 11.2565C108.542 12.9851 109.71 13.9729 110.945 13.9729C112.212 13.9729 113.365 13.018 113.365 11.2894ZM117.338 11.2565C117.338 8.40845 119.181 6.58107 121.519 6.58107C122.72 6.58107 123.873 7.14081 124.498 7.99688V3.66715H126.836V15.8497H124.498V14.4997C123.955 15.3393 122.934 15.9978 121.502 15.9978C119.181 15.9978 117.338 14.1046 117.338 11.2565ZM124.515 11.2894C124.515 9.56085 123.362 8.606 122.095 8.606C120.86 8.606 119.692 9.52792 119.692 11.2565C119.692 12.9851 120.86 13.9729 122.095 13.9729C123.362 13.9729 124.515 13.018 124.515 11.2894ZM132.998 8.4743C131.895 8.4743 131.023 9.1822 130.842 10.4334H135.171C135.138 9.23159 134.183 8.4743 132.998 8.4743ZM137.327 12.9851C136.834 14.6643 135.319 15.9978 133.064 15.9978C130.414 15.9978 128.488 14.154 128.488 11.2894C128.488 8.40845 130.364 6.58107 133.064 6.58107C135.698 6.58107 137.558 8.37552 137.558 11.0919C137.558 11.3882 137.541 11.6846 137.492 11.9809H130.825C130.94 13.3308 131.862 14.0881 133.015 14.0881C134.002 14.0881 134.545 13.5942 134.842 12.9851H137.327ZM141.646 14.6149C141.646 15.3722 141.053 15.9649 140.247 15.9649C139.407 15.9649 138.815 15.3722 138.815 14.6149C138.815 13.8577 139.407 13.265 140.247 13.265C141.053 13.265 141.646 13.8577 141.646 14.6149ZM143.496 15.8497V6.72924H145.8V15.8497H143.496ZM144.664 5.64269C143.841 5.64269 143.249 5.05003 143.249 4.29273C143.249 3.53544 143.841 2.94278 144.664 2.94278C145.471 2.94278 146.08 3.53544 146.08 4.29273C146.08 5.05003 145.471 5.64269 144.664 5.64269ZM156.868 11.2894C156.868 14.154 154.761 15.9978 152.111 15.9978C149.477 15.9978 147.485 14.154 147.485 11.2894C147.485 8.40845 149.543 6.58107 152.177 6.58107C154.81 6.58107 156.868 8.40845 156.868 11.2894ZM149.823 11.2894C149.823 13.1004 150.876 13.9894 152.111 13.9894C153.329 13.9894 154.498 13.1004 154.498 11.2894C154.498 9.46207 153.362 8.58954 152.144 8.58954C150.926 8.58954 149.823 9.46207 149.823 11.2894Z" fill="#2582FF"/>
</svg>
