<svg width="207px" height="63px" viewBox="0 0 1125 341" version="1.1" xmlns="http://www.w3.org/2000/svg" xmlns:xlink="http://www.w3.org/1999/xlink">
    <!-- Generator: Sketch 64 (93537) - https://sketch.com -->
    <title>Slice</title>
    <desc>Created with Sketch.</desc>
    <g id="Page-1" stroke="none" stroke-width="1" fill="none" fill-rule="evenodd">
        <rect id="Rectangle" x="0" y="0" width="1125" height="341"></rect>
        <g id="storj-logo-type-mark-osp-color" transform="translate(92.000000, 86.000000)">
            <g id="Group-112-Copy">
                <g id="Group-108" transform="translate(658.067691, 13.843777)" fill="#606470" fill-rule="nonzero">
                    <g id="Group-107" transform="translate(0.148658, 0.006359)">
                        <g id="Group-111">
                            <path d="M1.31009099,0.272575251 C1.73514272,0.272575251 2.0844493,0.596878788 2.12407343,1.01154856 L2.12781675,1.090301 L2.12781675,138.377809 C2.12781675,138.829427 1.76170846,139.195535 1.31009099,139.195535 C0.885039265,139.195535 0.535732685,138.871232 0.49610856,138.456562 L0.492365242,138.377809 L0.492365242,1.090301 C0.492365242,0.638683541 0.858473532,0.272575251 1.31009099,0.272575251 Z" id="Line-4"></path>
                        </g>
                    </g>
                </g>
                <g id="Group-75-Copy">
                    <g id="Group-74-Copy-2" fill="#276CFF" fill-rule="nonzero">
                        <g id="Group-73" transform="translate(72.247919, 81.755991) rotate(-180.000000) translate(-72.247919, -81.755991) translate(0.015478, 0.528566)">
                            <path d="M72.2415533,0.319097071 C79.625198,0.319097071 85.6343128,6.20415874 85.8341478,13.539532 L124.095394,35.6300971 L124.158197,35.5956119 C126.13029,34.5407332 128.25404,34.0212717 130.357351,33.991115 L130.567608,33.9897286 C135.261533,33.9951161 139.824904,36.4333798 142.340693,40.790854 C146.032636,47.1854868 143.940323,55.3323873 137.687144,59.1729801 L137.687144,103.352242 C143.940323,107.192834 146.032636,115.339735 142.340693,121.734368 C139.862453,126.026805 135.397297,128.456894 130.77769,128.533628 L130.567608,128.535502 C128.37311,128.538012 126.150075,128.008768 124.094401,126.89527 L85.8341461,148.985753 C85.6363111,156.24649 79.7468119,162.086263 72.4664166,162.204303 L72.2415533,162.206125 C64.8579087,162.206125 58.8487939,156.321063 58.6489589,148.98569 L20.3873935,126.894097 L20.32491,126.92961 C18.3528164,127.984489 16.2290666,128.50395 14.1257553,128.534107 L13.9154986,128.535493 C9.22157339,128.530106 4.658203,126.091842 2.14241409,121.734368 C-1.54952891,115.339735 0.542784028,107.192834 6.79596252,103.352242 L6.79596252,59.1729801 C0.542784028,55.3323873 -1.54952891,47.1854868 2.14241409,40.790854 C4.62065391,36.4984167 9.08580952,34.0683276 13.7054165,33.991594 L13.9154986,33.9897196 C16.109688,33.9872097 18.3324051,34.5163052 20.387837,35.6294815 L58.6489606,13.5394688 C58.8467956,6.27873205 64.7362948,0.438959291 72.0166901,0.320918778 L72.2415533,0.319097071 Z M72.2415533,142.133289 L71.9942358,142.137925 C71.9681113,142.138906 71.9420264,142.140042 71.915982,142.141331 L71.9942197,142.137938 C71.9125055,142.141014 71.8311015,142.14561 71.7500395,142.151703 L71.915982,142.141331 C71.8281334,142.145682 71.7407454,142.151783 71.6538523,142.1596 L71.7500395,142.151703 C71.6700356,142.157716 71.590365,142.165188 71.5110584,142.174098 L71.6538523,142.1596 C71.5668687,142.167426 71.4803811,142.176972 71.3944235,142.188204 L71.5110584,142.174098 C71.4335928,142.182801 71.3564746,142.192876 71.2797324,142.204302 L71.3944235,142.188204 C71.3117522,142.199006 71.2295713,142.211368 71.1479113,142.225258 L71.2797324,142.204302 C71.2010372,142.21602 71.1227374,142.22916 71.044864,142.2437 L71.1479113,142.225258 C71.0706696,142.238398 70.993894,142.252905 70.9176101,142.268754 L71.044864,142.2437 C70.960237,142.259502 70.8761136,142.276958 70.7925334,142.296041 L70.9176101,142.268754 C70.8448273,142.283876 70.7724922,142.30022 70.7006272,142.317763 L70.7925334,142.296041 C70.694943,142.318324 70.5980932,142.342825 70.5020472,142.369503 L70.7006272,142.317763 C70.623785,142.336521 70.5474803,142.35665 70.4717405,142.378123 L70.5020472,142.369503 C70.4487201,142.384314 70.3956408,142.399797 70.3428201,142.415943 L70.4717405,142.378123 C70.26109,142.437846 70.0548092,142.507963 69.8534875,142.587886 C69.8404957,142.592483 69.8278512,142.597539 69.8152249,142.602634 L69.8534875,142.587886 C69.7872147,142.614196 69.7214792,142.641569 69.6563023,142.669983 L69.8152249,142.602634 C69.7450706,142.630944 69.6754763,142.660465 69.6064702,142.691177 L69.6563023,142.669983 C69.5837744,142.701601 69.511938,142.73451 69.4408221,142.768679 L69.6064702,142.691177 C69.5392569,142.721092 69.4726016,142.752137 69.4065305,142.784296 L69.4408221,142.768679 C69.3114413,142.830843 69.1844452,142.89718 69.0600082,142.967515 C69.036123,142.979641 69.0130679,142.992841 68.9900967,143.006181 L69.0600082,142.967515 C67.0937484,144.078902 65.7664449,146.188646 65.7664449,148.608397 C65.7664449,152.184501 68.6654497,155.083505 72.2415533,155.083505 C75.817657,155.083505 78.7166618,152.184501 78.7166618,148.608397 C78.7166618,146.208392 77.4109324,144.113356 75.4711067,142.994922 C75.4599353,142.987088 75.448517,142.980563 75.4370785,142.974072 L75.4711067,142.994922 C75.3422054,142.920602 75.2105042,142.850595 75.0762002,142.785097 C75.0645284,142.778432 75.0525303,142.772638 75.0405132,142.766881 L75.0762002,142.785097 C75.0133003,142.754421 74.9498295,142.724735 74.8858079,142.696058 L75.0405132,142.766881 C74.9648381,142.730628 74.8884078,142.69583 74.811261,142.662513 L74.8858079,142.696058 C74.81473,142.66422 74.7429732,142.633626 74.6705655,142.604305 L74.811261,142.662513 C74.7474239,142.634944 74.6830963,142.60839 74.6183001,142.582864 L74.6705655,142.604305 C74.4974977,142.53422 74.3207104,142.471401 74.1405821,142.416226 C74.0972783,142.402797 74.0541474,142.390104 74.0108513,142.377854 L74.1405821,142.416226 C74.0865248,142.399668 74.0321667,142.383798 73.9775179,142.368627 L74.0108513,142.377854 C73.9369052,142.356933 73.8624771,142.337303 73.7875959,142.318984 L73.9775179,142.368627 C73.882239,142.342177 73.7860765,142.31785 73.6890846,142.295701 L73.7875959,142.318984 C73.7121596,142.300529 73.6362636,142.283406 73.5599374,142.267633 L73.6890846,142.295701 C73.6069642,142.276948 73.5242493,142.259757 73.4409727,142.244159 L73.5599374,142.267633 C73.4851482,142.252178 73.4099461,142.23802 73.3343589,142.225178 L73.4409727,142.244159 C73.364084,142.229758 73.2867165,142.216716 73.208896,142.205059 L73.3343589,142.225178 C73.2507637,142.210976 73.1666976,142.198383 73.0821982,142.187426 L73.208896,142.205059 C73.1307405,142.193352 73.0521281,142.183041 72.9730851,142.174154 L73.0821982,142.187426 C72.9982732,142.176543 72.9139208,142.167273 72.8291781,142.159642 L72.9730851,142.174154 C72.8935183,142.165207 72.8135153,142.157703 72.7331026,142.151667 L72.8291781,142.159642 C72.742201,142.151809 72.6548126,142.145702 72.567053,142.141348 L72.7331026,142.151667 C72.5708473,142.139488 72.4069243,142.133289 72.2415533,142.133289 Z M51.1925097,97.6941097 L27.104681,111.601631 C27.1722513,111.868306 27.2314119,112.136048 27.2822599,112.404495 C27.292059,112.45623 27.3015324,112.507896 27.3106989,112.559585 C27.3185655,112.603945 27.3262008,112.648291 27.3336108,112.692653 C27.3456749,112.764873 27.3571591,112.837249 27.3680461,112.90966 C27.3728331,112.941496 27.3775273,112.973496 27.382105,113.005503 C27.3916376,113.072163 27.4006295,113.13857 27.4091222,113.204998 C27.4169059,113.265866 27.4243135,113.32713 27.4312979,113.388408 C27.4366716,113.435571 27.4417424,113.482236 27.4465683,113.528906 C27.5032897,114.077165 27.5262048,114.626985 27.5160569,115.174585 C27.5154538,115.20714 27.5147316,115.239774 27.5138921,115.272398 C27.5122901,115.334589 27.5102776,115.396345 27.5078457,115.458067 C27.5057513,115.511297 27.5033055,115.565269 27.5005394,115.619212 C27.4913926,115.797351 27.4788351,115.974252 27.4628476,116.150728 C27.4587802,116.195643 27.4544465,116.240968 27.4498867,116.286264 C27.4454511,116.330304 27.4408757,116.373647 27.4360935,116.416961 C27.4290956,116.480371 27.4215757,116.544349 27.4136051,116.608259 C27.4047353,116.679361 27.3953669,116.749956 27.3854489,116.820461 C27.3452123,117.106448 27.2959999,117.39063 27.2378875,117.672878 C27.2257265,117.731948 27.2131248,117.791165 27.2001312,117.850293 L27.2378875,117.672878 C27.2114511,117.801277 27.1831729,117.929276 27.1530641,118.056833 C27.1440061,118.095211 27.1347077,118.133854 27.1252414,118.172455 C27.1096875,118.235872 27.0937615,118.298863 27.0773879,118.361738 C27.0681365,118.397261 27.0587846,118.432589 27.0492914,118.467879 C27.0325396,118.530156 27.0152989,118.592484 26.9976168,118.654689 C26.9797385,118.717581 26.9614548,118.780195 26.9427234,118.842676 C26.9337144,118.872724 26.9247116,118.902385 26.915608,118.932015 C26.8364042,119.189831 26.7494199,119.445733 26.6548728,119.698966 C26.5413722,120.002972 26.4169167,120.303252 26.2817257,120.599035 C26.2515474,120.665068 26.2206278,120.73131 26.189168,120.797317 C26.1785929,120.819505 26.1680347,120.841504 26.1574164,120.863478 C26.1213506,120.938112 26.0845988,121.012428 26.047157,121.086429 C26.0307115,121.118931 26.0141728,121.151296 25.9975017,121.1836 C25.9665866,121.243505 25.9352354,121.303163 25.9034316,121.362605 C25.8363342,121.488004 25.767394,121.612143 25.6964633,121.73527 L25.8268268,121.503771 C25.8038427,121.545536 25.7806331,121.58719 25.7571986,121.628732 L25.6964633,121.73527 L60.4635704,141.808477 L60.4635704,141.808477 L60.5142988,141.721546 C60.5383726,141.68064 60.5626543,141.639871 60.5871424,141.599241 C60.6083571,141.564043 60.6296383,141.529093 60.6510721,141.494247 C60.8601564,141.154303 61.084055,140.823884 61.3216549,140.504255 L61.3422143,140.47667 C61.3675949,140.442706 61.3931307,140.408865 61.4188204,140.375147 C61.5081787,140.257863 61.5994624,140.141998 61.6925674,140.027675 C61.7422916,139.966624 61.7921493,139.906471 61.842512,139.846758 C61.8583352,139.827995 61.8747512,139.808638 61.8912204,139.789328 C61.9247775,139.749986 61.9581299,139.711325 61.9916954,139.672854 C62.0301495,139.628779 62.0690401,139.584779 62.1082097,139.541035 C62.1471514,139.497543 62.1865272,139.454132 62.2261783,139.410977 C62.3239316,139.304581 62.4235881,139.199512 62.5248836,139.096055 C62.6273035,138.991445 62.731545,138.888344 62.8374231,138.786937 C62.9763419,138.653901 63.1174737,138.524314 63.2613018,138.397719 C63.3714646,138.300767 63.4825997,138.206071 63.5952566,138.113155 C63.7250825,138.006081 63.8567525,137.901504 63.9903724,137.799349 C64.0361226,137.764373 64.0820314,137.729732 64.1281654,137.695378 C64.1622589,137.66999 64.1963708,137.644834 64.2306039,137.619834 C64.2876931,137.578142 64.3453693,137.536707 64.4033807,137.495714 C64.4209882,137.483273 64.4383723,137.47105 64.4557863,137.458867 C64.5888605,137.365764 64.7239154,137.274829 64.8606611,137.186283 C65.0002989,137.095867 65.1415096,137.008056 65.2844161,136.922792 C65.3188485,136.902249 65.3532478,136.88193 65.3877438,136.861759 C65.4490927,136.825888 65.5105741,136.790581 65.5723552,136.755744 C65.5938593,136.743618 65.6152486,136.731634 65.6366735,136.719706 C65.7758897,136.642192 65.9169712,136.566867 66.0595084,136.493984 C66.2636033,136.389623 66.4707421,136.290242 66.6807052,136.196033 C66.702591,136.186213 66.7243291,136.176528 66.7460971,136.166899 C66.8133267,136.137159 66.8809183,136.107917 66.9487915,136.079209 C66.9776828,136.066988 67.0070171,136.054702 67.0364035,136.042516 C67.0712373,136.028072 67.105499,136.014031 67.1398304,136.000126 C67.2999882,135.935249 67.4622007,135.873142 67.6258715,135.814086 C67.6754706,135.796188 67.7254747,135.778476 67.7756122,135.76105 C67.819841,135.745678 67.8638358,135.730642 67.9079316,135.715826 C67.9583831,135.698874 68.0090597,135.68218 68.059867,135.665777 C68.1173053,135.647233 68.174882,135.629069 68.2326227,135.61128 C68.2620327,135.602219 68.2913849,135.593286 68.3207791,135.584449 C68.4088204,135.55798 68.4974851,135.53231 68.5865178,135.507524 C68.5869887,135.507393 68.5873233,135.5073 68.5876578,135.507206 L68.5877913,109.319855 C61.1486293,108.400103 54.759986,103.967497 51.1925097,97.6941097 Z M92.0521419,97.1418853 C88.7237469,103.392675 82.704993,107.82055 75.7112993,109.110156 L75.7103935,135.458097 L75.7416607,135.465383 C75.7836524,135.476537 75.8255642,135.487887 75.8673953,135.499432 C75.8813488,135.503287 75.8953818,135.507185 75.9094056,135.511104 L75.8673953,135.499432 C76.055495,135.551344 76.2419601,135.607196 76.4266962,135.666893 L76.498754,135.690411 C76.527947,135.700026 76.5570962,135.709738 76.5862014,135.719545 C76.6358818,135.736276 76.6855134,135.753323 76.7350143,135.770648 C76.7939327,135.791282 76.8523302,135.812176 76.9105416,135.833458 C76.9605487,135.851728 77.0105446,135.870342 77.0604004,135.88924 C77.0954618,135.902544 77.1304461,135.915973 77.1653604,135.929541 C77.2220241,135.951548 77.2785909,135.973973 77.3349699,135.996765 C77.3876564,136.01808 77.4399631,136.03961 77.4921048,136.061457 C77.5251035,136.075264 77.5584798,136.089405 77.5917876,136.103674 C77.6439567,136.126044 77.6955681,136.148541 77.7470116,136.171347 C77.903061,136.24051 78.0574311,136.312477 78.2101931,136.387224 C78.2501931,136.406822 78.2900912,136.426589 78.3298778,136.446546 C78.5059065,136.534815 78.6796274,136.62675 78.8510667,136.722287 C78.986495,136.797897 79.1135239,136.87152 79.2392303,136.947118 C79.2872025,136.975923 79.3351511,137.005163 79.3829032,137.034691 C79.4310405,137.064502 79.4791853,137.09469 79.5271262,137.125171 C79.5581444,137.144844 79.5887823,137.164497 79.6193358,137.18427 C79.6734107,137.219314 79.7274781,137.254853 79.781275,137.290764 C79.8165751,137.314274 79.8515027,137.337825 79.8863145,137.361533 C79.9300348,137.391366 79.9737715,137.421529 80.0173219,137.45194 C80.0625621,137.483467 80.1078888,137.51553 80.1530094,137.547861 C80.1849397,137.570809 80.216292,137.593481 80.2475433,137.616282 C80.6509714,137.910532 81.0378641,138.226775 81.4061989,138.563006 C81.5237005,138.670375 81.6396694,138.780016 81.753682,138.891646 C81.7880648,138.92518 81.8224224,138.959175 81.8565988,138.993352 L81.8948079,139.031848 C81.9101304,139.047293 81.9254161,139.062775 81.9406649,139.078293 C82.1380544,139.27901 82.3294691,139.486218 82.5143681,139.699234 C82.5381243,139.726776 82.5622024,139.754743 82.5861684,139.782808 C82.6203408,139.822647 82.6538119,139.8623 82.6870593,139.902146 C82.7221803,139.944424 82.7574161,139.987177 82.7923947,140.030149 C82.8238165,140.068555 82.8548852,140.107148 82.8857466,140.145915 C82.9177867,140.186367 82.9495816,140.226774 82.9811515,140.267366 C83.0094563,140.303545 83.0376848,140.34022 83.0657297,140.377042 C83.0977725,140.419333 83.1296884,140.46175 83.161361,140.504359 C83.4571815,140.902114 83.7314139,141.316233 83.9827926,141.745363 L84.0193496,141.808477 L118.786831,121.735595 C118.774826,121.714758 118.762879,121.693892 118.750989,121.672998 C118.715949,121.611422 118.681477,121.549729 118.647501,121.487794 C118.629284,121.454588 118.610994,121.420915 118.592851,121.387172 C118.453492,121.127959 118.322979,120.865104 118.201182,120.598599 C118.066115,120.30306 117.94176,120.00302 117.828297,119.699135 C117.814425,119.661981 117.800778,119.624939 117.787292,119.587841 C117.767632,119.533761 117.748271,119.479434 117.729256,119.424993 C117.716751,119.38919 117.704334,119.353158 117.692069,119.317076 C117.664261,119.235266 117.637346,119.153557 117.611206,119.071609 C117.600021,119.036543 117.589022,119.001575 117.578163,118.966564 C117.564405,118.922199 117.550918,118.877917 117.537656,118.833568 C117.520094,118.774841 117.502899,118.715895 117.486101,118.656838 C117.474913,118.617503 117.463922,118.578191 117.453106,118.538831 C117.405716,118.366368 117.36168,118.192859 117.32106,118.018531 C117.308152,117.963145 117.295473,117.907146 117.283146,117.851067 C117.269982,117.791165 117.25738,117.731948 117.245171,117.672645 L117.283146,117.851067 C117.26435,117.765558 117.246373,117.679862 117.229219,117.593991 L117.222,117.557599 C117.180677,117.347774 117.144263,117.136919 117.112808,116.925217 C117.087765,116.756747 117.065768,116.586873 117.046968,116.416551 C117.042231,116.373647 117.037656,116.330304 117.033287,116.286933 C117.028681,116.241186 117.024347,116.19586 117.020239,116.150505 C117.014163,116.08344 117.008566,116.016089 117.003469,115.948683 C116.998087,115.877496 116.993279,115.806506 116.989027,115.735461 C116.986749,115.697434 116.984599,115.658788 116.982614,115.620128 C116.980527,115.579441 116.978653,115.53945 116.976954,115.499445 C116.973764,115.424385 116.971178,115.348616 116.969225,115.272802 C116.968379,115.239925 116.967655,115.20725 116.967049,115.174567 C116.956902,114.626985 116.979817,114.077165 117.036614,113.52818 C117.041159,113.484221 117.04601,113.439487 117.051086,113.394759 C117.058576,113.328786 117.06651,113.263189 117.074931,113.197614 C117.081611,113.145598 117.08855,113.093939 117.095791,113.042295 C117.104643,112.979158 117.113981,112.915825 117.123777,112.85252 C117.131602,112.801943 117.139735,112.751293 117.14816,112.700664 C117.156101,112.652948 117.164299,112.605271 117.172757,112.557614 C117.184406,112.491985 117.196567,112.426299 117.209225,112.360658 C117.216265,112.324154 117.223425,112.287834 117.230737,112.251528 C117.241542,112.197882 117.252694,112.144202 117.26418,112.090555 C117.285348,111.991692 117.307698,111.892756 117.331194,111.793953 C117.33213,111.790018 117.332924,111.786686 117.333719,111.783355 L117.343168,111.744026 L117.343168,111.744026 Z M10.6808375,109.327896 C7.58384091,111.115947 6.52273151,115.076062 8.31078333,118.173058 C10.0988352,121.270055 14.0589493,122.331164 17.1559459,120.543112 C18.4926118,119.771388 19.4500344,118.595054 19.9628278,117.258132 C19.9667879,117.25104 19.969854,117.243013 19.9729037,117.234982 L19.9628278,117.258132 C20.1507792,116.768118 20.278999,116.25653 20.3442677,115.735384 C20.3478076,115.719999 20.3497509,115.703978 20.3516341,115.68795 L20.3442677,115.735384 C20.3537301,115.65983 20.3618694,115.584075 20.3686758,115.508155 L20.3516341,115.68795 C20.3621193,115.598714 20.3707415,115.509293 20.3774968,115.419746 L20.3686758,115.508155 C20.4005996,115.152073 20.4032005,114.792377 20.3754664,114.432845 C20.3739302,114.402216 20.3713518,114.371912 20.3685583,114.34162 L20.3754664,114.432845 C20.3690467,114.349623 20.3610016,114.266409 20.3513185,114.183251 L20.3685583,114.34162 C20.360862,114.258165 20.3515325,114.174801 20.3405663,114.091575 L20.3513185,114.183251 C20.3411927,114.09629 20.3292757,114.00939 20.3155533,113.922605 L20.3405663,114.091575 C20.3303108,114.013743 20.318624,113.936032 20.3055031,113.858479 L20.3155533,113.922605 C20.3037901,113.84821 20.2907001,113.7739 20.2762744,113.699707 L20.3055031,113.858479 C20.2888873,113.76027 20.2699716,113.662315 20.2487503,113.564692 L20.2762744,113.699707 C20.2389786,113.507892 20.1927543,113.316865 20.1374452,113.127208 C20.1008245,113.001661 20.0601505,112.876585 20.0155253,112.752444 C20.0017154,112.713846 19.987389,112.675142 19.9726685,112.636519 L20.0155253,112.752444 C19.9838793,112.664409 19.9502463,112.576844 19.9146216,112.489811 L19.9726685,112.636519 C19.9421492,112.556442 19.9099361,112.476711 19.876017,112.39737 L19.9146216,112.489811 C19.8832727,112.413223 19.8503815,112.337046 19.8159451,112.261323 L19.876017,112.39737 C19.8417599,112.317238 19.8057626,112.237505 19.7680124,112.158218 L19.8159451,112.261323 C19.7291333,112.070429 19.6325012,111.882415 19.5260001,111.69795 C19.4426922,111.553656 19.3544843,111.413506 19.2616658,111.27764 C19.225062,111.223989 19.18807,111.171528 19.1504168,111.119767 L19.2616658,111.27764 C19.2157978,111.2105 19.1688039,111.144405 19.1207189,111.079374 L19.1504168,111.119767 C19.1122688,111.067325 19.073442,111.015601 19.0339559,110.9646 L19.1207189,111.079374 C19.0723089,111.013903 19.0227931,110.949509 18.9722069,110.88621 L19.0339559,110.9646 C18.9816283,110.897013 18.9281428,110.830696 18.8735443,110.76566 L18.9722069,110.88621 C18.9206987,110.821758 18.8680809,110.75844 18.814391,110.696275 L18.8735443,110.76566 C18.8260357,110.70907 18.7776844,110.65345 18.7285201,110.598809 L18.814391,110.696275 C18.7591006,110.632257 18.7026733,110.569462 18.6451502,110.50791 L18.7285201,110.598809 C18.6769042,110.541443 18.6243922,110.485156 18.5710185,110.429957 L18.6451502,110.50791 C18.5862703,110.444906 18.5262423,110.383205 18.4651102,110.322826 L18.5710185,110.429957 C18.5163001,110.373367 18.460676,110.31792 18.4041831,110.263626 L18.4651102,110.322826 C18.4108229,110.269208 18.3556649,110.216634 18.299667,110.165118 L18.4041831,110.263626 C18.3409832,110.202887 18.2766959,110.14359 18.2113732,110.085751 L18.299667,110.165118 C18.244835,110.114675 18.1891977,110.065247 18.132784,110.016847 L18.2113732,110.085751 C18.1475786,110.029265 18.0827963,109.974169 18.0170746,109.920475 L18.132784,110.016847 C18.0730304,109.965583 18.0124058,109.915472 17.9509446,109.866533 L18.0170746,109.920475 C17.9598526,109.873726 17.9019185,109.82804 17.8433041,109.783425 L17.9509446,109.866533 C17.8887736,109.817028 17.8257464,109.768722 17.7618989,109.721631 L17.8433041,109.783425 C16.8085019,108.995787 15.5616551,108.542218 14.2778832,108.469643 C14.2672656,108.468057 14.2562688,108.467461 14.2452673,108.466892 L14.2778832,108.469643 C13.0624264,108.400929 11.8138699,108.673739 10.6808375,109.327896 Z M130.681671,108.460266 L130.469081,108.459017 C130.457727,108.459204 130.446378,108.45942 130.435033,108.459666 L130.469159,108.460112 C130.392091,108.461323 130.315111,108.463908 130.238259,108.46786 L130.435033,108.459666 C130.35814,108.461329 130.28145,108.464336 130.204992,108.468672 L130.238259,108.46786 C128.820739,108.540742 127.446367,109.078181 126.350554,110.017096 C126.325261,110.038349 126.300315,110.060086 126.275525,110.082026 L126.350554,110.017096 C126.291616,110.067596 126.233484,110.119256 126.176194,110.172069 L126.275525,110.082026 C126.216262,110.134475 126.157893,110.188081 126.100451,110.242827 L126.176194,110.172069 C126.120142,110.22374 126.064897,110.276513 126.010492,110.33038 L126.100451,110.242827 C126.036563,110.303717 125.973823,110.366017 125.912278,110.429704 L126.010492,110.33038 C125.951947,110.388346 125.894376,110.447578 125.837821,110.508064 L125.912278,110.429704 C125.858776,110.485068 125.806178,110.541481 125.754514,110.598926 L125.837821,110.508064 C125.781701,110.568085 125.726582,110.629341 125.672505,110.691821 L125.754514,110.598926 C125.705303,110.653645 125.656939,110.709302 125.609452,110.765882 L125.672505,110.691821 C125.622903,110.749131 125.574177,110.807472 125.526361,110.866833 L125.609452,110.765882 C125.548861,110.838075 125.489695,110.911772 125.432011,110.986946 L125.526361,110.866833 C125.470533,110.936142 125.415944,111.006843 125.362646,111.078922 L125.432011,110.986946 C125.398361,111.0308 125.365215,111.075156 125.332584,111.12001 L125.362646,111.078922 C125.314614,111.14388 125.26763,111.209957 125.221732,111.277145 L125.332584,111.12001 C125.198455,111.304381 125.073037,111.497153 124.957107,111.69795 L125.017094,111.596161 C124.996836,111.629842 124.976839,111.663772 124.957107,111.69795 C124.900592,111.795836 124.846924,111.894584 124.796076,111.994099 C124.768289,112.048543 124.74129,112.10328 124.715116,112.158269 L124.796076,111.994099 C124.752063,112.080238 124.710163,112.166951 124.67036,112.254176 L124.715116,112.158269 C124.676862,112.238638 124.640369,112.319545 124.605634,112.400939 L124.67036,112.254176 C124.638229,112.324588 124.607464,112.395334 124.578057,112.46638 L124.605634,112.400939 C124.575304,112.472012 124.546314,112.543458 124.518662,112.61524 L124.578057,112.46638 C124.542062,112.553344 124.5081,112.640759 124.476157,112.728565 L124.518662,112.61524 C124.485088,112.702395 124.453486,112.790048 124.423853,112.878138 L124.476157,112.728565 C124.339456,113.104325 124.239709,113.487245 124.175658,113.872628 C124.172459,113.889206 124.169743,113.905881 124.167094,113.922563 L124.175658,113.872628 C124.162127,113.954035 124.15019,114.035553 124.139834,114.117136 L124.167094,113.922563 C124.15525,113.99713 124.144728,114.071835 124.135526,114.146642 L124.139834,114.117136 C124.129908,114.195323 124.121435,114.273571 124.114403,114.351841 L124.135526,114.146642 C124.125739,114.226206 124.117445,114.305887 124.110641,114.385643 L124.114403,114.351841 C123.895714,116.78603 125.071389,119.240742 127.327161,120.543112 C130.424157,122.331164 134.384272,121.270055 136.172323,118.173058 C137.960375,115.076062 136.899266,111.115947 133.802269,109.327896 C132.816861,108.75897 131.744071,108.478493 130.681671,108.460266 Z M121.083394,57.3420971 L105.658945,66.2483748 C108.281622,69.4774273 109.853403,73.594473 109.853403,78.0786277 C109.853403,84.8269207 106.29366,90.7437913 100.949495,94.0539009 L120.770723,105.498194 C120.811648,105.455657 120.852815,105.413426 120.894222,105.371501 C120.933182,105.332051 120.972727,105.292504 121.012485,105.253234 C121.051806,105.214395 121.091605,105.175567 121.131612,105.137014 C121.166782,105.103124 121.202036,105.06952 121.237448,105.036128 C121.295151,104.981718 121.353157,104.92798 121.411573,104.874808 C121.441442,104.847618 121.471694,104.82033 121.502053,104.793193 C121.539854,104.759406 121.577533,104.726106 121.615374,104.693037 C121.664024,104.650521 121.713028,104.608315 121.762296,104.566493 C121.809328,104.526569 121.856646,104.486959 121.9042,104.4477 C121.941364,104.41702 121.97867,104.386557 122.016119,104.35631 C122.058582,104.322013 122.101265,104.287964 122.14413,104.254193 C122.191783,104.21665 122.239502,104.179573 122.287439,104.142839 C122.331743,104.108887 122.376465,104.075055 122.421373,104.04152 C122.462354,104.010917 122.503359,103.980657 122.544515,103.950642 C122.594417,103.914251 122.64443,103.8783 122.69466,103.84271 C122.739063,103.811246 122.784048,103.77978 122.829203,103.748602 C122.871739,103.719234 122.914014,103.6904 122.956434,103.661818 C123.010921,103.625102 123.065965,103.588595 123.121246,103.552508 C123.156345,103.529598 123.191346,103.506981 123.22644,103.484532 C123.274863,103.453556 123.323651,103.422783 123.372615,103.392335 C123.435437,103.35327 123.498359,103.314852 123.56156,103.276965 C123.595372,103.256697 123.629097,103.23668 123.662899,103.216813 C123.709958,103.189154 123.757557,103.161565 123.805307,103.134275 C123.86033,103.102831 123.915071,103.07205 123.970005,103.041659 C124.031271,103.007762 124.093276,102.974084 124.155517,102.940902 C124.185594,102.924869 124.215271,102.90919 124.245001,102.893623 C124.303257,102.863119 124.361861,102.832974 124.420663,102.803264 C124.46145,102.782656 124.502469,102.762189 124.543583,102.741934 C124.609136,102.709641 124.674722,102.677983 124.740539,102.64686 C124.771083,102.632417 124.801823,102.61802 124.832613,102.603741 C124.90472,102.5703 124.976999,102.537544 125.049539,102.50543 C125.081586,102.491241 125.113671,102.477184 125.145806,102.463253 C125.217423,102.432204 125.289333,102.401758 125.361483,102.371938 C125.390894,102.359783 125.41997,102.347884 125.449085,102.336087 C125.832542,102.18069 126.223094,102.042749 126.618978,101.922795 C126.850968,101.852503 127.084766,101.788392 127.320126,101.73053 C127.326099,101.729061 127.332761,101.727428 127.339425,101.7258 C127.408277,101.708983 127.476468,101.692882 127.544782,101.677305 C127.582602,101.668679 127.621002,101.660096 127.659439,101.651677 C127.836135,101.612985 128.013258,101.577856 128.191063,101.546241 C128.232146,101.538934 128.273798,101.531726 128.315486,101.52471 C128.395309,101.511281 128.474517,101.498671 128.553845,101.486757 C128.577049,101.483273 128.600121,101.479868 128.623202,101.476523 C128.676063,101.46886 128.729349,101.461456 128.782685,101.454367 C128.851661,101.445201 128.920315,101.436608 128.989045,101.428536 C129.035689,101.423056 129.082668,101.417785 129.129681,101.412757 C129.181192,101.407248 129.232786,101.402027 129.284418,101.3971 C129.342084,101.391599 129.399429,101.386494 129.456817,101.381752 C129.522425,101.376329 129.588468,101.371354 129.654562,101.36686 C129.677302,101.365315 129.699633,101.363852 129.721969,101.362445 C129.814445,101.356614 129.907445,101.351707 130.000528,101.347754 C130.015659,101.347112 130.030313,101.346514 130.044969,101.345939 C130.217655,101.339165 130.391105,101.335674 130.564732,101.335512 L130.316741,101.338007 C130.328406,101.337783 130.340072,101.337574 130.35174,101.33738 L130.561822,101.335506 L130.564732,101.335512 L130.564732,61.1897101 L130.564732,61.1897101 L130.561822,61.1897071 C130.093507,61.1891696 129.626493,61.164415 129.162681,61.1159533 C128.810145,61.0791154 128.459568,61.0286014 128.111677,60.9646235 C127.883303,60.9226268 127.655988,60.8748049 127.430068,60.8212395 C126.724003,60.6537866 126.032348,60.4305565 125.361483,60.1532838 C125.178602,60.0777037 124.996927,59.9979501 124.816949,59.9142046 C124.307623,59.6771954 123.812164,59.4083869 123.333601,59.1085337 C122.532985,58.6068805 121.779769,58.0184441 121.089353,57.3473068 L121.083394,57.3420971 Z M23.2923935,57.4430971 L23.2325472,57.501441 C23.189324,57.5420893 23.1458659,57.5824211 23.1021766,57.6224354 C23.0614153,57.6597678 23.0204809,57.6967987 22.9793486,57.7335527 C22.9329928,57.7749725 22.8865962,57.8158577 22.8399547,57.8563933 C22.8102101,57.8822465 22.779874,57.9083774 22.7494361,57.9343612 C22.6907313,57.9844715 22.6320571,58.0336968 22.5730175,58.0823801 C22.5415072,58.1083631 22.5098844,58.1341985 22.4781587,58.1598791 C22.420814,58.2062969 22.3631558,58.2521911 22.3051685,58.297578 C22.2815176,58.3160908 22.2575271,58.334739 22.2334812,58.3533006 C22.1675767,58.4041704 22.1016036,58.4541311 22.035228,58.5034457 C22.0041919,58.5265053 21.9728311,58.5495965 21.9413819,58.5725439 C21.8988526,58.6035758 21.8562202,58.6343033 21.8134295,58.664768 C21.7488576,58.7107381 21.6841112,58.7559821 21.6190151,58.8006287 C21.6014821,58.8126549 21.5834815,58.824938 21.5654545,58.8371754 C21.4990869,58.8822247 21.4327645,58.9263923 21.366097,58.9699466 C21.3218301,58.9988657 21.2775558,59.0274223 21.2331331,59.0557097 C21.1945955,59.0802511 21.1555871,59.1048135 21.1164667,59.129169 C21.0435925,59.1745365 20.9705828,59.219035 20.8971986,59.2628174 C20.87922,59.2735438 20.8611727,59.2842546 20.843103,59.2949221 C20.7720301,59.3368795 20.7006832,59.3781266 20.6290005,59.418703 C20.5988264,59.4357838 20.5684362,59.4528329 20.5379866,59.4697617 C20.4722491,59.5063081 20.4063816,59.5422158 20.3402466,59.5775633 C20.3075457,59.5950409 20.2748453,59.612347 20.2420807,59.6295165 C20.1825754,59.6606998 20.1226907,59.6915171 20.0625988,59.7218796 C20.0265927,59.7400723 19.9905305,59.7580926 19.9543953,59.7759495 C19.9007422,59.8024639 19.8467995,59.8286793 19.7926988,59.8545317 C19.7395092,59.8799461 19.6866606,59.9047815 19.633666,59.9292713 C19.574436,59.9566475 19.5141835,59.9839656 19.4537488,60.0108384 C19.4147157,60.0281931 19.3760448,60.0451721 19.337301,60.0619691 C19.1526469,60.1420279 18.9661133,60.2180374 18.7780733,60.2898612 C18.761483,60.2961977 18.7450957,60.3024206 18.7286971,60.3086117 C18.7203078,60.3117792 18.711618,60.31505 18.702925,60.318312 L18.4206302,60.4207165 L18.4206302,60.4207165 L18.3967296,60.4290659 C18.2270257,60.4881739 18.0562024,60.5439204 17.8843694,60.5962763 C17.6883165,60.656008 17.4911765,60.7112675 17.2928872,60.7620798 C17.134169,60.8027559 16.9743976,60.8406517 16.8139706,60.8756644 C16.6478828,60.9119167 16.4807726,60.9451362 16.3130502,60.9752287 C16.2625014,60.9842986 16.2117671,60.9931062 16.1609795,61.0016277 C16.0940769,61.0128525 16.0271995,61.0235627 15.9602357,61.0337765 C15.9268915,61.0388623 15.8935437,61.0438225 15.8601752,61.0486595 C15.8070439,61.0563618 15.7537577,61.0637654 15.7004218,61.0708548 C15.6313352,61.0800372 15.5622941,61.0886772 15.4931764,61.0967902 C15.4570666,61.1010293 15.4207524,61.1051446 15.384418,61.1091144 C15.3205041,61.1160963 15.2567707,61.1226047 15.1929801,61.128665 C15.1406777,61.1336351 15.0880014,61.1383319 15.035289,61.1427227 C14.9646547,61.1486048 14.8942784,61.1539156 14.8238443,61.1586804 C14.8057958,61.1599017 14.7874651,61.1611049 14.7691306,61.1622711 C14.6726369,61.1684068 14.5763065,61.1735062 14.4798883,61.1775819 C14.467776,61.1780941 14.4554536,61.1785983 14.4431297,61.1790859 C14.2684306,61.1859949 14.0936528,61.1895424 13.9186941,61.1897098 L14.1653662,61.1872344 C14.1540341,61.187451 14.142701,61.1876534 14.131367,61.1878417 L13.9212848,61.1897161 L13.9186941,61.1897098 L13.9186941,101.335512 L13.9186941,101.335512 L13.9212848,101.335515 C14.3815132,101.336043 14.8404865,101.359959 15.2963979,101.406779 C15.4595683,101.423533 15.622657,101.443263 15.7852688,101.465916 C15.8481919,101.474682 15.9108296,101.483854 15.9733917,101.493459 C16.1149721,101.515193 16.2563369,101.539178 16.3972575,101.565374 C16.5924896,101.601666 16.7867878,101.642182 16.9800864,101.686896 C17.087808,101.711815 17.195175,101.738026 17.3022063,101.765534 C17.3896605,101.788009 17.4770056,101.811381 17.5641121,101.835617 C17.7919744,101.89902 18.0180299,101.968276 18.2422049,102.043367 C18.3521075,102.080183 18.4613891,102.118339 18.5701908,102.157885 C18.7552656,102.225154 18.9389919,102.296463 19.121185,102.371757 C19.2570745,102.427916 19.3920182,102.486251 19.5260503,102.546785 C20.0851281,102.799316 20.6277668,103.089735 21.1502616,103.417162 C21.3665343,103.552692 21.5793519,103.694559 21.7884121,103.842685 C21.949712,103.956975 22.1086388,104.074884 22.2651924,104.196475 C22.3480599,104.260839 22.430022,104.326038 22.5113025,104.392258 C22.6196688,104.480542 22.7269575,104.570755 22.8329824,104.662773 C23.0661672,104.865176 23.2926568,105.075729 23.5125467,105.294826 C23.5455009,105.327662 23.578265,105.360647 23.6108795,105.393823 L48.1492305,91.2267793 C40.3365176,90.245247 34.2738471,83.6395134 34.1433645,75.5917241 L34.1433645,75.5917241 L34.1412175,75.3267067 C34.1412175,71.6703699 35.3656811,68.300022 37.4269195,65.6033519 L23.2923935,57.4430971 Z M73.1807865,66.4239954 L50.1671108,66.4234325 C45.2499683,66.4234325 41.2638367,70.4095642 41.2638367,75.3267067 C41.2638367,80.2438492 45.2499683,84.2299808 50.1672553,84.2299808 L50.1672553,84.2299808 L55.0725173,84.2301798 L55.3359511,87.5058746 C56.0088497,95.8731013 63.021041,102.374259 71.4709164,102.374259 C78.2207706,102.374259 84.1896785,98.2050429 86.5795179,92.0128334 L86.5795179,92.0128334 L87.4591121,89.7337552 L91.0755882,89.7338229 C97.5125748,89.7338229 102.730783,84.5156143 102.730783,78.0786277 C102.730783,71.6416412 97.5125748,66.4234325 91.0755882,66.4234325 L91.0755882,66.4234325 L73.5499922,66.4240209 L73.5499922,66.4240209 L73.4352953,66.425789 L73.3587343,66.427382 L73.1807865,66.4239954 Z M84.019352,20.7170632 L83.9688079,20.8036762 C83.7926592,21.1029841 83.605379,21.3949553 83.4075364,21.6790207 C83.3450537,21.7687375 83.2813818,21.8578508 83.21667,21.9461542 C83.0158332,22.2201973 82.8051526,22.4862375 82.5850091,22.7439511 C82.5490328,22.7860685 82.5126648,22.8281223 82.4760444,22.8699497 C82.4409507,22.9100319 82.4057885,22.9497241 82.3703988,22.9892081 C82.3475098,23.0147462 82.3243451,23.0403957 82.3010842,23.0659562 C82.2544092,23.1172428 82.2076178,23.1678827 82.1604484,23.2181638 C82.1339213,23.2464435 82.1068328,23.2750728 82.0796216,23.3035839 C82.037566,23.3476454 81.9955765,23.3910583 81.9533019,23.4341909 C81.9340427,23.453842 81.9144568,23.4737047 81.8948103,23.4935073 L81.8274425,23.560939 C81.7925342,23.5956379 81.7574385,23.6301485 81.7221572,23.6644693 C81.6982812,23.6876973 81.6738694,23.7112705 81.6493698,23.7347529 C81.6126273,23.7699674 81.5760603,23.8046282 81.5393017,23.839087 C81.497481,23.8782926 81.4552491,23.917386 81.41277,23.9562134 C81.2914582,24.0670992 81.1679973,24.1759281 81.0425771,24.2825212 C80.9760073,24.3390973 80.9089645,24.394979 80.8413802,24.4502231 C80.8032899,24.48136 80.7647696,24.5125007 80.7260767,24.5434344 C80.704157,24.560957 80.6826106,24.5780749 80.6610111,24.5951286 C80.527055,24.7008987 80.3907677,24.8044162 80.2525028,24.9053873 C80.122199,25.000546 79.9900661,25.0934924 79.8562326,25.1841169 C79.8187237,25.2095178 79.7806889,25.2349962 79.742519,25.2602871 C79.7045855,25.2854197 79.666879,25.3101335 79.6290429,25.3346643 C79.4831596,25.4292515 79.335086,25.5212754 79.1851506,25.6104977 C79.15655,25.627517 79.1278985,25.6444246 79.0991798,25.6612298 C78.9378987,25.7556039 78.7746293,25.8466819 78.6093335,25.9344494 C78.6036644,25.9374591 78.5986213,25.9401325 78.5935763,25.9428027 L78.6093335,25.9344494 C78.5599118,25.9606909 78.5103089,25.9866365 78.4605273,26.0122838 C78.1821489,26.1556879 77.8987293,26.2895277 77.6101514,26.4136642 C77.5496265,26.4396999 77.4888904,26.4653023 77.4279313,26.4904743 C77.4079285,26.4987339 77.3879885,26.5069118 77.3680248,26.5150437 C77.199551,26.5836716 77.0291981,26.649088 76.8572351,26.7111362 C76.8138196,26.7268021 76.7701442,26.7423083 76.7263666,26.7575969 C76.6760003,26.7751858 76.6256539,26.7924348 76.5751751,26.8093956 C76.524618,26.8263826 76.4739426,26.8430759 76.4231364,26.8594784 C76.3593678,26.8800662 76.295318,26.9002189 76.2310657,26.9199084 C76.2122352,26.9256791 76.1932121,26.9314628 76.1741714,26.937206 C76.0461297,26.9758238 75.9175499,27.0125348 75.7882072,27.0473857 L75.7103935,27.0670971 L75.7103935,59.3000971 L91.0755882,59.3008133 C94.2098248,59.3008133 97.164713,60.0686949 99.7623861,61.4265915 L117.454949,51.2121548 C117.414505,51.0661806 117.376607,50.9198452 117.341239,50.7732086 C117.328633,50.7209561 117.316182,50.6679379 117.30406,50.6148832 C117.290253,50.5544383 117.276987,50.494479 117.26414,50.4344773 C117.246205,50.3507187 117.22905,50.2666864 117.212713,50.182582 C117.211576,50.1767335 117.210415,50.1707339 117.209258,50.1647338 L117.212713,50.182582 C117.198538,50.1096127 117.184979,50.0365891 117.172032,49.9635186 C117.159006,49.8900001 117.146588,49.8163499 117.134789,49.7426596 C117.131039,49.7192322 117.12737,49.6959248 117.123763,49.6726136 C117.112229,49.5980689 117.101316,49.5233967 117.091036,49.4486934 C117.084512,49.4012931 117.078208,49.3536041 117.072161,49.3059045 C117.062211,49.2273928 117.052992,49.1491695 117.044463,49.0709265 C117.041633,49.0449552 117.038944,49.0196126 117.036327,48.9942683 C116.979762,48.4467231 116.956914,47.897573 116.96705,47.3506369 C116.96781,47.3096367 116.968755,47.2686287 116.969886,47.2276345 C116.971838,47.1569117 116.97433,47.086491 116.977368,47.0161174 C116.979913,46.9570831 116.98288,46.8974082 116.986238,46.8377712 C116.988622,46.7954802 116.99116,46.7538583 116.993888,46.7122562 C116.997154,46.662422 117.000734,46.6120867 117.004593,46.5617828 C117.010424,46.4857838 117.016871,46.4100597 117.023949,46.3344152 C117.027538,46.29605 117.031323,46.2573745 117.035272,46.218721 C117.039511,46.1772464 117.04389,46.136244 117.048454,46.0952677 C117.072973,45.8750695 117.102902,45.6552173 117.138142,45.4363251 C117.164083,45.2751617 117.19299,45.1140811 117.224768,44.9536064 C117.258397,44.7838174 117.295151,44.6150851 117.33508,44.4471254 C117.371661,44.2932163 117.411067,44.1393791 117.453139,43.986271 C117.457764,43.9694419 117.462454,43.9524981 117.467178,43.9355633 L117.513113,43.7746861 C117.522095,43.7439413 117.531185,43.7132277 117.540383,43.6825457 C117.555953,43.6306067 117.571877,43.578619 117.58811,43.5267257 C117.603808,43.4765416 117.619803,43.426427 117.636087,43.3764035 C117.654291,43.3204779 117.672937,43.2644315 117.691947,43.2085039 C117.704334,43.1720639 117.716751,43.1360314 117.729319,43.1000494 C117.74827,43.0457915 117.76763,42.9914654 117.787336,42.9372584 C117.791877,42.9247677 117.796481,42.9121607 117.801103,42.8995601 L117.8991,42.6405814 C117.994415,42.3962 118.096824,42.1544174 118.206237,41.9155738 C118.330357,41.6446229 118.463518,41.3774049 118.605561,41.1144672 C118.664582,41.005221 118.724948,40.8970414 118.786828,40.7896315 L118.647501,41.0374276 C118.681477,40.9754928 118.715949,40.9137998 118.750914,40.8523551 L118.786828,40.7896315 L84.019352,20.7170632 L84.019352,20.7170632 Z M60.4637547,20.7170632 L25.6962786,40.7896315 C25.708283,40.8104684 25.7202304,40.8313342 25.7321207,40.8522288 C25.7671578,40.9137998 25.8016293,40.9754928 25.8356055,41.0374276 C25.8494675,41.0626943 25.8634592,41.0883942 25.8773659,41.1141351 C25.9155783,41.1848702 25.9529744,41.2555801 25.9897311,41.3265873 C26.0018461,41.3499896 26.0140728,41.3737793 26.0262279,41.3976019 C26.0625136,41.4687188 26.0981313,41.5400694 26.1331089,41.6117034 C26.1508101,41.6479522 26.1685564,41.6847115 26.1861345,41.7215439 C26.2089543,41.7693632 26.2313332,41.8169657 26.2534318,41.8646869 C26.3716166,42.1198903 26.481884,42.3787441 26.5840067,42.6405814 L26.6820032,42.8995601 C26.7639583,43.1229571 26.8400441,43.3483958 26.9101923,43.5756221 C26.9192001,43.6048025 26.9280354,43.6337647 26.9367742,43.6627554 C26.9479642,43.6998754 26.9590592,43.7372577 26.9699939,43.7746861 L27.0159287,43.9355633 C27.0216711,43.9561507 27.0273652,43.9767514 27.033011,43.9973653 C27.0463909,44.0462169 27.0595232,44.0952328 27.0723825,44.1443205 C27.0882212,44.2047794 27.1036732,44.2654584 27.1187084,44.3262421 C27.1222877,44.3407144 27.1257401,44.3547689 27.1291701,44.3688289 C27.2364955,44.8086699 27.3221068,45.2546034 27.3853714,45.7042092 C27.3952269,45.7742707 27.4044708,45.8438687 27.4131788,45.9135479 C27.4186529,45.9573553 27.4238944,46.0010141 27.4289254,46.0447033 C27.4355535,46.1022463 27.4418566,46.1602352 27.4477885,46.2182736 C27.4517836,46.2573745 27.4555684,46.29605 27.4591882,46.3347463 C27.4761376,46.5158895 27.4894907,46.6978223 27.499186,46.8801 C27.502532,46.9430658 27.5054142,47.0053798 27.5078683,47.0677295 C27.5088973,47.0938452 27.5098705,47.1205421 27.5107652,47.1472453 C27.5130429,47.2152903 27.5148027,47.2829567 27.5160572,47.3506571 C27.5261925,47.897573 27.5033452,48.4467231 27.4466996,48.9950448 C27.444163,49.0196126 27.441474,49.0449552 27.4387128,49.0702956 C27.4315697,49.1358203 27.4240213,49.2007005 27.4159975,49.265562 L27.4387128,49.0702956 C27.4112833,49.3220191 27.3767208,49.5735387 27.3349462,49.8245598 C27.327228,49.8709376 27.3192669,49.9172796 27.3110594,49.9636027 C27.3023306,50.0128696 27.2933072,50.0621992 27.2840034,50.1115051 C27.2293021,50.4013715 27.1649671,50.6902028 27.0908352,50.9777634 C27.0585314,51.1030567 27.0244734,51.2277423 26.9885564,51.3521508 L43.3695363,60.8096759 C45.4331787,59.8417089 47.7369783,59.3008133 50.1671108,59.3008133 L50.1671108,59.3008133 L68.5873935,59.3000971 L68.587659,27.0180157 C68.3934412,26.9639641 68.2009741,26.9057097 68.0103619,26.8433567 C67.9636184,26.8280693 67.9161587,26.8122546 67.8688161,26.7961862 C67.8283909,26.782465 67.7881987,26.7686106 67.7480924,26.7545735 C67.6851396,26.7325384 67.6227352,26.7101769 67.5605437,26.6873741 C67.514588,26.6705248 67.4685879,26.6533737 67.4227063,26.6359814 C67.3876434,26.6226901 67.3526591,26.6092617 67.3177447,26.5956931 C67.2630154,26.5744244 67.208369,26.5527758 67.1538976,26.5307845 C67.0035574,26.4700888 66.8545553,26.4067854 66.7069427,26.3409285 C66.6747476,26.3265646 66.642662,26.312099 66.6106428,26.2975129 C66.5507781,26.2702422 66.4910874,26.2425224 66.4316334,26.2143841 C66.3913253,26.1953065 66.3512965,26.1761193 66.3113768,26.1567426 C66.2714981,26.1373851 66.2319043,26.117926 66.1924196,26.0982806 L66.149118,26.0766396 C65.9745781,25.9890189 65.8021854,25.8977508 65.63204,25.8029353 C65.4807683,25.7185211 65.3382333,25.6355312 65.1973745,25.550055 C65.1644257,25.53006 65.1318243,25.5100871 65.099314,25.489981 C65.0610116,25.4662938 65.0226384,25.442297 64.9843941,25.4181147 C64.941935,25.3912667 64.8997551,25.364268 64.857735,25.3370437 C64.7991893,25.2991135 64.7408404,25.2606694 64.6828075,25.2217904 C64.6559222,25.2037781 64.6292547,25.1857744 64.6026546,25.1676789 C64.5441814,25.127903 64.4857296,25.0874687 64.4276124,25.0465908 C64.4084571,25.0331172 64.389461,25.0196827 64.3705009,25.0062009 C64.321956,24.9716825 64.2736116,24.9368271 64.2255068,24.9016633 C64.0046464,24.7402216 63.7887302,24.5721914 63.5781526,24.397937 C63.553253,24.377334 63.5280303,24.3563101 63.5028852,24.3351968 C63.2715713,24.1409587 63.0471664,23.9394913 62.8296821,23.7308649 C62.649525,23.5580459 62.4741017,23.3802985 62.3036435,23.1978532 C62.1885773,23.0746955 62.0757648,22.9493869 61.9652814,22.8220036 C61.946769,22.8006577 61.9286907,22.7796839 61.9106754,22.7586545 C61.7992698,22.6286198 61.6899351,22.4960266 61.5830985,22.3613619 C61.5547516,22.3256302 61.5267192,22.289931 61.4988623,22.2540887 C61.3984999,22.1249591 61.3003462,21.9938774 61.2045332,21.8609958 C61.0725528,21.6779503 60.9450895,21.4916064 60.8222197,21.3020093 C60.7637641,21.2118018 60.7065736,21.1212241 60.6504313,21.0299327 L60.6272199,20.9920506 L60.6272199,20.9920506 L60.5711202,20.8993281 C60.547321,20.8596359 60.5237185,20.8198122 60.5003141,20.7798583 L60.4637547,20.7170632 Z M8.31078333,44.3521636 C6.52273151,47.4491602 7.58384091,51.4092744 10.6808375,53.1973262 C11.7319807,53.8042041 12.8825528,54.0828662 14.0138817,54.0651107 C14.0255285,54.066015 14.0368779,54.0657986 14.0482228,54.065553 L14.0138817,54.0651107 C14.0909723,54.0639008 14.1679735,54.0613145 14.2448478,54.057362 L14.0482228,54.065553 C14.1251139,54.0638879 14.2018022,54.0608791 14.2782576,54.0565411 L14.2448478,54.057362 C15.665801,53.984303 17.0433976,53.4444348 18.140511,52.5012952 C18.1685503,52.4775985 18.1961016,52.453471 18.2234609,52.4290958 L18.140511,52.5012952 C18.1941056,52.4552224 18.2470308,52.4081872 18.299259,52.3601971 L18.2234609,52.4290958 C18.2847776,52.3744672 18.34513,52.3185949 18.4044791,52.2614978 L18.299259,52.3601971 C18.3588658,52.3054271 18.4175647,52.2494133 18.4753148,52.1921666 L18.4044791,52.2614978 C18.4611904,52.2069383 18.5169857,52.1512605 18.571831,52.0944806 L18.4753148,52.1921666 C18.5329299,52.1350538 18.5896005,52.0767139 18.6452858,52.0171578 L18.571831,52.0944806 C18.6249947,52.0394417 18.6772659,51.9833673 18.7286135,51.9262725 L18.6452858,52.0171578 C18.7026154,51.9558433 18.7589006,51.8932397 18.814097,51.829359 L18.7286135,51.9262725 C18.7795654,51.8696176 18.8296081,51.8119579 18.8787112,51.753308 L18.814097,51.829359 C18.8678432,51.7671567 18.920557,51.7037434 18.9721973,51.6391304 L18.8787112,51.753308 C18.9486148,51.6698134 19.0166143,51.5843121 19.0826226,51.4968461 L18.9721973,51.6391304 C19.019232,51.58028 19.0653761,51.5204342 19.1105985,51.4596014 L19.0826226,51.4968461 C19.1284169,51.4361652 19.1732528,51.3745387 19.2171012,51.3119807 L19.1105985,51.4596014 C19.1618382,51.3906743 19.2118947,51.3204801 19.2607228,51.2490307 L19.2171012,51.3119807 C19.3263471,51.1561207 19.4294634,50.9944786 19.5260001,50.8272721 C19.6132832,50.6760933 19.6939376,50.522531 19.7679902,50.3669534 C19.7843156,50.3327617 19.8002918,50.2984369 19.8159421,50.2640327 L19.7679902,50.3669534 C19.8068481,50.2853167 19.8438882,50.2031251 19.8791144,50.1204319 L19.8159421,50.2640327 C19.8503816,50.1883244 19.8832428,50.1122317 19.9145367,50.0357953 L19.8791144,50.1204319 C19.9122739,50.0425902 19.9438261,49.964304 19.9737743,49.8856176 L19.9145367,50.0357953 C19.9502802,49.9484907 19.983979,49.8607377 20.0156492,49.7725968 L19.9737743,49.8856176 C20.0383409,49.7159744 20.0954516,49.5444714 20.145139,49.3715537 C20.1858619,49.2295575 20.2216368,49.0863629 20.2523642,48.9426576 C20.2616962,48.9002689 20.2703224,48.8579586 20.2785177,48.8155934 L20.2523642,48.9426576 C20.2730654,48.8458428 20.2914757,48.7487963 20.3076153,48.6515935 L20.2785177,48.8155934 C20.2929916,48.7407714 20.3061212,48.6657781 20.3179092,48.5906481 L20.3076153,48.6515935 C20.3194112,48.5805508 20.3299942,48.5094247 20.3393722,48.4382445 L20.3179092,48.5906481 C20.3313303,48.50511 20.3430122,48.4193946 20.3529586,48.3335529 L20.3393722,48.4382445 C20.3505593,48.3533321 20.3600316,48.2683428 20.3678023,48.1833266 L20.3529586,48.3335529 C20.3629464,48.2473546 20.3711843,48.161029 20.3776762,48.0746275 L20.3678023,48.1833266 C20.4018685,47.8106258 20.4032351,47.4374065 20.3730302,47.0678787 C20.3717351,47.0332923 20.3686949,46.9992761 20.3653852,46.9652826 L20.3730302,47.0678787 C20.3656535,46.9776321 20.3563937,46.8876057 20.3452674,46.7978608 C20.3457544,46.7887652 20.3447049,46.7804243 20.3436392,46.7720851 L20.3452674,46.7978608 C20.1040017,44.8518187 18.9850467,43.0381413 17.1559459,41.9821094 C14.0589493,40.1940576 10.0988352,41.255167 8.31078333,44.3521636 Z M127.327161,41.9821094 C126.280656,42.5863092 125.466615,43.4385213 124.916416,44.4216379 C124.903962,44.4416599 124.892537,44.4623717 124.881233,44.4831301 L124.916416,44.4216379 C124.286171,45.5477838 124.002123,46.8456943 124.111437,48.1393524 C124.111039,48.1442422 124.111442,48.1489041 124.111849,48.1535657 L124.111437,48.1393524 C124.117123,48.2066491 124.123874,48.2739342 124.131696,48.341183 C124.132683,48.3552371 124.134329,48.3689114 124.13602,48.3825822 L124.131696,48.341183 C124.141567,48.4260441 124.153144,48.5108474 124.166439,48.5955431 C124.168932,48.614339 124.171962,48.6330161 124.175074,48.6516841 L124.166439,48.5955431 C124.221933,48.949056 124.307374,49.3006948 124.423732,49.646839 C124.440669,49.6970723 124.458119,49.7469194 124.476203,49.7966147 L124.423732,49.646839 C124.449698,49.7240841 124.477205,49.8010555 124.506261,49.8777131 L124.476203,49.7966147 C124.502876,49.8699114 124.530929,49.942878 124.560365,50.0154788 L124.506261,49.8777131 C124.537122,49.9591322 124.569733,50.0401972 124.604105,50.1208599 L124.560365,50.0154788 C124.594139,50.0987798 124.629735,50.1815993 124.667155,50.2638838 L124.604105,50.1208599 C124.639255,50.2033456 124.676246,50.2854106 124.715094,50.3670034 L124.667155,50.2638838 C124.700762,50.3377844 124.735841,50.4112535 124.772394,50.4842522 L124.715094,50.3670034 C124.754186,50.4491075 124.795157,50.5307336 124.838022,50.6118289 L124.957107,50.8272721 C125.040618,50.9719184 125.129054,51.1124006 125.222122,51.2485776 C125.236884,51.2702484 125.251492,51.2913554 125.266208,51.3123514 L125.222122,51.2485776 C125.27103,51.3201405 125.321218,51.3905144 125.372643,51.4596789 L125.266208,51.3123514 C125.310056,51.374914 125.354856,51.436491 125.400576,51.4970742 L125.372643,51.4596789 C125.422593,51.5268599 125.47371,51.5928998 125.525956,51.65778 L125.400576,51.4970742 C125.452519,51.565904 125.505649,51.6334509 125.559922,51.6997025 L125.525956,51.65778 C125.573752,51.7171347 125.622493,51.7755188 125.672148,51.8329179 L125.559922,51.6997025 C125.623278,51.7770442 125.688191,51.8526207 125.754587,51.9264125 L125.672148,51.8329179 C125.726348,51.8955704 125.781638,51.9570493 125.837979,52.0173361 L125.754587,51.9264125 C125.805893,51.9834347 125.858085,52.0393911 125.911129,52.0942728 L125.837979,52.0173361 C125.893654,52.0769095 125.950355,52.1353188 126.008046,52.1925459 L125.911129,52.0942728 C125.972402,52.1576689 126.034811,52.219631 126.098305,52.280145 L126.008046,52.1925459 C126.055149,52.2392712 126.102912,52.2852084 126.151315,52.3303477 L126.098305,52.280145 C126.15127,52.330624 126.204989,52.3800954 126.259433,52.4285512 L126.151315,52.3303477 C126.213932,52.3887439 126.27762,52.4458046 126.342334,52.5015087 L126.259433,52.4285512 C127.36127,53.4092018 128.759843,53.9738672 130.205223,54.0555789 C130.215985,54.0571728 130.226982,54.0577688 130.237984,54.0583372 L130.205223,54.0555789 C131.42068,54.1242924 132.669237,53.8514828 133.802269,53.1973262 C136.899266,51.4092744 137.960375,47.4491602 136.172323,44.3521636 C134.384272,41.255167 130.424157,40.1940576 127.327161,41.9821094 Z M72.2415533,7.44171635 C68.6654497,7.44171635 65.7664449,10.3407211 65.7664449,13.9168248 C65.7664449,16.4763103 67.2514711,18.6889495 69.4069065,19.7401252 C69.417912,19.7464659 69.4292425,19.7519396 69.44059,19.7573805 L69.4069065,19.7401252 C69.4728055,19.7722632 69.5393312,19.8033156 69.6064603,19.8332591 L69.44059,19.7573805 C69.5118347,19.7915412 69.5837494,19.8244122 69.6563017,19.8559714 L69.6064603,19.8332591 C69.6755319,19.864069 69.7452422,19.8937049 69.8155661,19.9221413 L69.6563017,19.8559714 C69.7214341,19.8843031 69.7870803,19.9115776 69.8532169,19.937779 L69.8155661,19.9221413 C69.9876688,19.9917336 70.1634456,20.0541423 70.3425246,20.1089958 C70.3858278,20.1224248 70.4289587,20.1351175 70.4722548,20.1473673 L70.3425246,20.1089958 C70.3952674,20.1251514 70.4482966,20.1406516 70.5016028,20.1554869 L70.4722548,20.1473673 C70.5478869,20.168766 70.6240232,20.1888135 70.7006328,20.2074887 L70.5016028,20.1554869 C70.5976617,20.1822205 70.6946201,20.2067952 70.7924222,20.2291552 L70.7006328,20.2074887 C70.7726634,20.2250477 70.8451123,20.2413935 70.9179537,20.2565087 L70.7924222,20.2291552 C70.8759698,20.2482564 70.9601331,20.2657414 71.0448776,20.2815757 L70.9179537,20.2565087 C70.9941318,20.2723162 71.0707392,20.2867778 71.1477465,20.2998733 L71.0448776,20.2815757 C71.1225844,20.2960951 71.2007799,20.3092265 71.2794373,20.3209433 L71.1477465,20.2998733 C71.2296856,20.3138075 71.3120775,20.3261952 71.3948864,20.3370121 L71.2794373,20.3209433 C71.3561423,20.3323693 71.4332866,20.34245 71.5108454,20.3511606 L71.3948864,20.3370121 C71.480798,20.3482343 71.5671586,20.3577659 71.6539284,20.3655799 L71.5108454,20.3511606 C71.5901405,20.3600663 71.6698689,20.3675399 71.7500041,20.3735549 L71.6539284,20.3655799 C71.7409056,20.3734126 71.828294,20.3795195 71.9160536,20.3838735 L71.7500041,20.3735549 C71.9122594,20.3857339 72.0761824,20.3919332 72.2415533,20.3919332 L72.4888709,20.3872971 C72.5149954,20.3863161 72.5410803,20.3851802 72.5671247,20.3838905 L72.4888344,20.3872856 C72.5705619,20.3842095 72.6519792,20.3796137 72.7330543,20.3735199 L72.5671247,20.3838905 C72.6549733,20.3795403 72.7423613,20.3734393 72.8292544,20.3656217 L72.7330543,20.3735199 C72.8133911,20.3674817 72.8933919,20.3599726 72.9730254,20.351014 L72.8292544,20.3656217 C72.9139882,20.3579983 72.9982515,20.3487427 73.0820125,20.3378864 L72.9730254,20.351014 C73.0521702,20.3421103 73.1309522,20.3317748 73.2093409,20.3200282 L73.0820125,20.3378864 C73.1665282,20.3269323 73.2505325,20.3143486 73.333993,20.3001678 L73.2093409,20.3200282 C73.2870235,20.3083874 73.3643199,20.2953608 73.4412002,20.2809687 L73.333993,20.3001678 C73.409682,20.2873075 73.4849238,20.2731336 73.5596939,20.2576706 L73.4412002,20.2809687 C73.524242,20.2654231 73.6067985,20.2482843 73.6888319,20.2295778 L73.5596939,20.2576706 C73.6364032,20.2418065 73.7126161,20.2245855 73.7883064,20.2060338 L73.6888319,20.2295778 C73.7856138,20.2075081 73.8816677,20.1832563 73.9769321,20.1568643 L73.7883064,20.2060338 C73.8631794,20.1876823 73.9375411,20.1680288 74.0113661,20.1470984 L73.9769321,20.1568643 C74.0316319,20.1417103 74.0860713,20.1258507 74.1402387,20.1092933 L74.0113661,20.1470984 C74.2179175,20.0885384 74.4202675,20.0199837 74.6178606,19.9419902 C74.6359007,19.9354241 74.6534659,19.928415 74.6709961,19.9213302 L74.6178606,19.9419902 C74.6827181,19.9163897 74.7470631,19.8897723 74.810876,19.8621576 L74.6709961,19.9213302 C74.7433569,19.8920861 74.8151211,19.8615534 74.8862578,19.8297531 L74.810876,19.8621576 C74.8881082,19.8287358 74.9645608,19.7938531 75.0401991,19.7575445 L74.8862578,19.8297531 C74.9501889,19.8011739 75.0136132,19.771571 75.0765081,19.7409596 L75.0401991,19.7575445 C77.2150824,18.7135341 78.7166618,16.4905357 78.7166618,13.9168248 C78.7166618,10.3407211 75.817657,7.44171635 72.2415533,7.44171635 Z" id="Combined-Shape"></path>
                        </g>
                    </g>
                    <path d="M397.838004,35.4237795 C425.505282,35.4237795 445.359016,56.0177442 445.359016,81.4727773 L445.359016,81.7284124 C445.359016,107.183445 425.249202,128.033045 397.581925,128.033045 C369.914648,128.033045 350.060913,107.439081 350.060913,81.9844921 L350.060913,81.7284124 C350.060913,56.2738239 370.170727,35.4237795 397.838004,35.4237795 Z M222.435862,35.7225392 C235.471474,35.7225392 246.590045,39.8118118 255.66398,47.0963011 L245.43991,61.9204701 C237.51611,56.4254266 229.720351,53.1026148 222.180226,53.1026148 C214.640102,53.1026148 210.678425,56.5530219 210.678425,60.8979297 L210.678425,61.1535648 C210.678425,67.0322832 214.512062,68.9488797 229.975986,72.910557 C248.123856,77.6391397 258.347927,84.1567236 258.347927,99.7473534 L258.347927,100.002989 C258.347927,117.766739 244.801044,127.734286 225.503038,127.734286 C211.956156,127.734286 198.281678,123.006147 187.546337,113.421387 L199.176178,99.4917183 C207.227573,106.137342 215.662643,110.354655 225.886269,110.354655 C233.937663,110.354655 238.794286,107.159438 238.794286,101.92003 L238.794286,101.664394 C238.794286,96.6806212 235.727109,94.1247147 220.774456,90.2906326 C202.754625,85.6900897 191.124784,80.7063165 191.124784,62.942566 L191.124784,62.6869309 C191.124784,46.4574356 204.160396,35.7225392 222.435862,35.7225392 Z M610.26367,36.9175778 L610.26367,95.5006985 C610.26367,117.245688 597.487249,127.734286 578.578253,127.734286 C564.652141,127.734286 555.453279,121.594597 549.320703,114.303884 L561.713894,100.489362 C566.824373,106.117336 571.806812,109.44326 578.067428,109.44326 C585.477734,109.44326 590.076943,104.966311 590.076943,94.6053087 L590.076943,56.9326956 L560.672681,56.9331402 L560.672681,36.9175778 L610.26367,36.9175778 Z M341.994848,36.9175778 L341.994848,55.0979024 L314.786825,55.0979024 L314.786825,126.539692 L295.115369,126.539692 L295.115369,55.0979024 L267.907346,55.0979024 L267.907346,36.9175778 L341.994848,36.9175778 Z M503.013403,36.9175778 C524.115526,36.9175778 536.776355,48.0561554 536.776355,66.4925597 L536.776355,66.7486394 C536.776355,81.216253 528.975261,90.3066376 517.593052,94.531508 L539.46208,126.539692 L516.442027,126.539692 L497.258279,97.860544 L481.783685,97.860544 L481.783685,126.539692 L462.088667,126.539692 L462.088667,36.9175778 L503.013403,36.9175778 Z M397.581925,53.6467841 C381.693425,53.6467841 370.673995,66.1560105 370.673995,81.4732218 L370.673995,81.7284124 C370.673995,97.0456237 381.949504,109.810041 397.838004,109.810041 C413.726505,109.810041 424.745934,97.3008143 424.745934,81.9836029 L424.745934,81.7284124 C424.745934,66.411201 413.470425,53.6467841 397.581925,53.6467841 Z M501.322655,54.8418227 L481.80547,54.8418227 L481.80547,80.5333738 L501.70544,80.5333738 C511.272862,80.5333738 516.758125,75.4206715 516.758125,67.879658 L516.758125,67.6240229 C516.758125,59.1876196 510.890077,54.8418227 501.322655,54.8418227 Z" id="Clip-45" fill="#091C45"></path>
                </g>
            </g>
            <path d="M740.338868,127.131401 C762.940493,127.131401 778.997246,109.198451 778.997246,81.2300302 C778.997246,53.2616096 762.940493,35.3286597 740.338868,35.3286597 C717.780875,35.3286597 701.724122,53.3052421 701.724122,81.2300302 C701.724122,109.154818 717.737242,127.131401 740.338868,127.131401 Z M740.338868,119.452084 C722.667713,119.452084 709.621601,105.184262 709.621601,81.2300302 C709.621601,57.1449004 722.79861,43.0079764 740.338868,43.0079764 C757.96639,43.0079764 771.056243,57.1885329 771.056243,81.2300302 C771.099767,105.271527 757.96639,119.452084 740.338868,119.452084 Z M825.695194,127.436828 C845.068015,127.436828 856.674255,116.485075 856.674255,102.173621 C856.674255,87.3385776 843.759041,81.4045601 832.414596,78.2193889 L822.98998,75.5141751 C814.307116,73.0707561 805.187927,68.6638755 805.187927,59.2392595 C805.187927,49.6401136 813.783526,42.6152841 826.262416,42.6152841 C838.086818,42.6152841 846.55152,48.9419939 847.555067,58.8901997 L855.452546,58.8901997 C854.841691,45.320498 843.104554,35.2850272 826.480578,35.2850272 C809.9875,35.2850272 797.290448,45.1896005 797.290448,59.5883194 C797.290448,71.063662 805.40609,78.2630214 819.412116,82.4081072 L830.102074,85.5496458 C841.184725,88.7784495 848.776776,92.9235352 848.776776,102.042724 C848.776776,112.776314 839.046733,119.975674 825.695194,119.975674 C813.652629,119.975674 804.228013,114.172554 803.355363,103.569861 L794.977927,103.569861 C795.937841,117.706785 807.456816,127.436828 825.695194,127.436828 Z M884.828383,125.909691 L884.828383,91.7454582 L905.641077,91.7454582 C924.533941,91.7454582 934.307617,79.7465258 934.307617,64.1260974 C934.307617,48.5056691 924.533941,36.5503692 905.510179,36.5503692 L876.669109,36.5503692 L876.669109,125.909691 L884.828383,125.909691 Z M905.422914,84.4152013 L884.828383,84.4152013 L884.828383,43.8806261 L905.292017,43.8806261 C919.428941,43.8806261 926.27924,52.3889599 926.27924,64.1260974 C926.27924,75.8196025 919.428941,84.4152013 905.422914,84.4152013 Z" id="OSP" fill="#606470" fill-rule="nonzero"></path>
        </g>
    </g>
</svg>
