<svg width="140" height="62" viewBox="0 0 140 62" fill="none" xmlns="http://www.w3.org/2000/svg">
<path d="M73.0048 25.7875C72.6652 26.0422 72.4954 26.4668 72.4954 26.9762C72.4954 27.4857 72.7501 27.8253 73.1747 28.08C73.5992 28.3348 74.6181 28.6744 76.1465 29.0989C77.6748 29.5235 78.9484 30.0329 79.7975 30.7971C80.6466 31.5613 81.0712 32.6651 81.0712 34.1934C81.0712 35.6369 80.4768 36.8256 79.373 37.7596C78.2692 38.6936 76.8257 39.1181 75.0426 39.1181C72.4105 39.1181 70.118 38.1842 67.9952 36.2313L70.2029 33.5142C71.9859 35.0425 73.5992 35.8067 75.1276 35.8067C75.8068 35.8067 76.3163 35.6369 76.7408 35.3822C77.1654 35.1274 77.3352 34.7029 77.3352 34.1934C77.3352 33.684 77.1654 33.3444 76.7408 33.0047C76.3163 32.75 75.5521 32.4104 74.2785 32.1556C72.3256 31.7311 70.967 31.1367 70.118 30.3726C69.2689 29.6084 68.7594 28.5046 68.7594 26.9762C68.7594 25.4479 69.3538 24.1742 70.4576 23.3251C71.5614 22.4761 73.0048 22.0515 74.6181 22.0515C75.7219 22.0515 76.8257 22.2213 77.9295 22.6459C79.0334 22.9855 79.9673 23.5799 80.8164 24.2591L78.9484 26.9762C77.505 25.8724 76.0616 25.363 74.5332 25.363C73.8539 25.363 73.3445 25.5328 73.0048 25.7875Z" fill="#2683FF"/>
<path d="M90.1565 25.7021V38.9479H86.5054V25.7021H81.8354V22.4756H94.8265V25.7021H90.1565Z" fill="#2683FF"/>
<path d="M110.025 36.6552C108.327 38.2685 106.289 39.1176 103.911 39.1176C101.534 39.1176 99.4113 38.2685 97.798 36.6552C96.0999 35.042 95.3357 33.0042 95.3357 30.6267C95.3357 28.2493 96.1848 26.2115 97.798 24.5982C99.4962 22.985 101.534 22.1359 103.911 22.1359C106.374 22.1359 108.412 22.985 110.025 24.5982C111.723 26.2115 112.487 28.2493 112.487 30.6267C112.487 33.0042 111.723 35.042 110.025 36.6552ZM108.751 30.6267C108.751 29.1833 108.242 27.9097 107.308 26.8907C106.374 25.8718 105.185 25.3624 103.827 25.3624C102.468 25.3624 101.279 25.8718 100.345 26.8907C99.4113 27.9097 98.9019 29.1833 98.9019 30.6267C98.9019 32.0702 99.4113 33.3438 100.345 34.3627C101.279 35.3816 102.468 35.8911 103.827 35.8911C105.185 35.8911 106.374 35.3816 107.308 34.3627C108.327 33.3438 108.751 32.0702 108.751 30.6267Z" fill="#2683FF"/>
<path d="M128.111 27.9946C128.111 30.6268 127.092 32.325 124.969 33.0892L129.13 38.9479H124.629L120.978 33.6835H118.431V38.9479H114.78V22.4756H120.978C123.526 22.4756 125.394 22.9001 126.413 23.7492C127.601 24.6832 128.111 26.0417 128.111 27.9946ZM123.695 29.9475C124.12 29.523 124.375 28.9286 124.375 27.9946C124.375 27.0607 124.12 26.4663 123.695 26.2116C123.186 25.8719 122.422 25.7021 121.233 25.7021H118.516V30.5419H121.233C122.422 30.5419 123.271 30.2872 123.695 29.9475Z" fill="#2683FF"/>
<path d="M131.422 25.7021V22.4756H139.998V33.1741C139.998 35.127 139.488 36.5704 138.469 37.5893C137.45 38.5233 136.177 39.0328 134.564 39.0328C132.611 39.0328 130.828 38.2686 129.384 36.7402L131.252 34.1081C132.271 35.2119 133.29 35.7213 134.394 35.7213C134.903 35.7213 135.328 35.5515 135.752 35.127C136.092 34.7024 136.347 34.1081 136.347 33.3439V25.6172L131.422 25.7021Z" fill="#2683FF"/>
<path d="M55.8533 17.6363C55.7684 19.5892 54.9193 21.0327 53.306 22.0516C52.9664 22.2214 52.8815 22.3912 52.8815 22.7308C52.8815 28.0801 52.8815 33.4293 52.8815 38.7786C52.8815 39.1182 52.9664 39.288 53.2211 39.4578C55.0891 40.5616 56.108 42.5995 55.7684 44.7222C55.4287 46.76 53.8155 48.4581 51.6927 48.7978C50.504 49.0525 49.3153 48.8827 48.2115 48.2034C47.8719 48.0336 47.6171 48.0336 47.3624 48.2034C42.7773 50.8356 38.1923 53.5527 33.6072 56.1848C33.2676 56.3546 33.1827 56.5245 33.1827 56.949C33.1827 59.4963 31.2298 61.7888 28.7674 61.9586C26.1352 62.2133 23.7578 60.6001 23.2484 57.9679C23.1634 57.5434 23.1634 57.2037 23.1634 56.7792C23.1634 56.5245 23.0785 56.3546 22.8238 56.1848C18.1538 53.4678 13.4839 50.8356 8.81388 48.1185C8.55916 47.9487 8.38934 47.9487 8.13462 48.1185C5.0779 49.9865 1.17211 48.2034 0.577747 44.8071C0.153204 42.6844 1.0872 40.6466 2.95519 39.4578C3.29482 39.288 3.37973 39.1182 3.37973 38.6937C3.37973 33.3444 3.37973 27.9952 3.37973 22.6459C3.37973 22.3063 3.29482 22.1365 3.0401 21.9667C1.0872 20.8628 0.153204 18.9099 0.577747 16.7023C0.917381 14.4947 2.61555 12.8814 4.82318 12.6267C6.0119 12.4569 7.11571 12.7116 8.13462 13.306C8.38934 13.4758 8.55916 13.4758 8.81388 13.306C13.4839 10.5889 18.0689 7.95673 22.7389 5.23966C22.9936 5.06984 23.1634 4.90002 23.1634 4.56039C23.1634 1.58859 25.456 -0.619039 28.4278 -0.534131C30.7203 -0.449222 32.843 1.41877 33.1827 3.7113C33.1827 3.88112 33.2676 4.05094 33.2676 4.30566C33.2676 4.90002 33.5223 5.23966 33.9468 5.49438C38.447 8.04164 42.9472 10.6738 47.4473 13.306C47.7869 13.4758 47.9568 13.4758 48.2964 13.306C51.3531 11.5229 55.0891 13.2211 55.7684 16.7023C55.8533 17.042 55.8533 17.3816 55.8533 17.6363ZM16.0311 35.9766C15.9462 35.9766 15.9462 36.0615 15.9462 36.0615C13.3989 37.5049 10.8517 38.9484 8.30443 40.4767C8.13462 40.5616 7.87989 40.5616 7.71007 40.4767C7.0308 40.0522 6.35153 39.7975 5.50245 39.7975C2.87028 39.7126 1.34192 41.8353 1.25702 43.7033C1.25702 45.826 2.87028 48.0336 5.50245 48.0336C7.79498 48.0336 9.57806 46.1656 9.57806 43.8731C9.57806 43.4485 9.66297 43.1938 10.0875 43.024C12.8046 41.4956 15.4368 39.9673 18.1538 38.354C18.4086 38.1842 18.6633 38.1842 18.918 38.2691C20.6162 39.0333 22.3144 39.2031 24.0974 38.6937C24.2673 38.6087 24.522 38.6937 24.6918 38.7786C25.2013 39.0333 25.7107 39.288 26.2202 39.4578C26.5598 39.5427 26.6447 39.7126 26.6447 40.0522C26.6447 44.2976 26.6447 48.4581 26.6447 52.7036C26.6447 52.9583 26.5598 53.1281 26.3051 53.2979C24.8616 53.9772 23.8427 55.7603 24.0974 57.6283C24.4371 59.8359 26.6447 61.4492 28.8523 61.0246C30.8052 60.685 31.9939 59.3265 32.3336 57.3736C32.5034 56.015 31.8241 54.2319 30.1259 53.2979C29.8712 53.213 29.7863 53.0432 29.7863 52.7885C29.7863 48.7129 29.7863 44.6373 29.7863 40.5616C29.7863 40.222 29.9561 40.1371 30.2958 40.0522C31.1449 39.8824 31.9939 39.7126 32.7581 39.5427C33.0978 39.4578 33.4374 39.4578 33.777 39.5427C35.5601 40.3069 37.3432 40.222 39.0414 39.2031C39.2961 39.0333 39.4659 39.0333 39.7206 39.2031C41.9282 40.4767 44.1359 41.7504 46.3435 43.024C46.6831 43.1938 46.853 43.4485 46.853 43.8731C46.5982 46.2505 48.8059 48.2034 51.2682 47.9487C53.7306 47.694 55.4287 45.3165 54.8344 42.9391C54.1551 40.0522 51.0984 38.7786 48.5511 40.3069C48.2964 40.4767 48.1266 40.4767 47.7869 40.3069C45.6642 39.0333 43.5415 37.8446 41.4188 36.6559C41.0792 36.486 41.0792 36.3162 41.1641 35.9766C41.8433 33.8539 41.3339 31.901 39.8055 30.2877C39.4659 29.9481 38.1074 27.7404 37.8526 27.3159C37.6828 26.9763 37.7677 26.8064 38.1074 26.6366C41.3339 24.7686 44.5604 22.9856 47.702 21.1176C47.9568 20.9478 48.1266 20.9478 48.3813 21.1176C49.3153 21.7119 50.3342 21.8817 51.3531 21.7119C53.3909 21.3723 54.9193 19.5043 54.7495 17.2967C54.5796 14.9192 52.2022 13.1362 49.8248 13.6456C47.7869 14.0702 46.4284 15.6834 46.5133 17.8061C46.5133 18.1458 46.4284 18.4005 46.0888 18.5703C42.8622 20.4383 39.5508 22.3063 36.3243 24.1743C36.0696 24.3441 35.8997 24.3441 35.645 24.0894C34.1167 22.6459 32.2487 21.7968 30.2109 21.5421C29.5316 21.4572 29.5316 21.4572 29.5316 20.693C29.5316 16.8721 29.5316 13.0512 29.5316 9.23036C29.5316 8.72091 29.6165 8.38128 30.1259 8.12655C31.909 7.10765 32.5883 4.90002 31.8241 2.94712C30.975 1.07913 28.8523 -0.024679 26.8994 0.65459C25.1163 1.16404 24.0974 2.52258 23.9276 4.30566C23.7578 5.74911 24.4371 7.36237 26.1352 8.21146C26.39 8.38127 26.5598 8.46618 26.5598 8.80582C26.5598 13.0512 26.5598 17.2118 26.5598 21.4572C26.5598 21.7968 26.39 21.8817 26.1352 22.0516C25.2862 22.4761 24.4371 22.8157 23.7578 23.4101C22.9936 24.0894 22.2294 24.429 21.1256 24.429C21.0407 24.429 20.9558 24.429 20.8709 24.429C20.6162 24.429 20.2766 24.429 20.0218 24.2592C16.7104 22.3912 13.4839 20.5232 10.1724 18.6552C9.66297 18.4005 9.49315 18.0609 9.57806 17.5514C9.57806 17.2967 9.57806 17.1269 9.49315 16.8721C9.15352 14.8343 7.20062 13.1362 4.82318 13.5607C2.44574 13.9852 1.00229 16.108 1.34192 18.3156C1.85138 21.2025 5.16281 22.6459 7.62516 21.1176C7.87989 20.9478 8.13461 20.9478 8.38934 21.1176C10.8517 22.561 13.314 24.0045 15.8613 25.4479C16.2858 25.7026 16.7104 25.9574 17.1349 26.2121C14.3329 29.1839 13.9933 32.4104 16.0311 35.9766Z" fill="#2683FF"/>
<path d="M22.9087 26.212C23.588 26.2969 23.8427 26.0422 24.3522 25.6176C26.39 23.6647 28.8523 23.1553 31.4845 24.0043C34.1167 24.8534 35.7299 26.7214 36.2394 29.4385C36.3243 29.9479 36.579 30.2876 37.0036 30.5423C38.3621 31.3065 39.1263 33.0047 38.8716 34.3632C38.5319 36.1463 37.3432 37.4199 35.645 37.6746C34.711 37.8445 33.8619 37.6746 33.0978 37.2501C32.7581 36.9954 32.5034 37.0803 32.0789 37.2501C29.7014 38.269 27.4938 38.0992 25.2862 36.7406C24.9465 36.5708 24.6918 36.4859 24.3522 36.6557C21.2955 37.6746 18.1539 35.8916 17.3897 32.9197C16.5406 29.4385 19.3426 26.0421 22.9087 26.212Z" fill="#2683FF"/>
<path d="M49.6549 43.8728C49.6549 43.1935 50.1644 42.6841 50.8436 42.6841C51.5229 42.6841 52.0323 43.1935 52.0323 43.8728C52.0323 44.4672 51.438 45.0615 50.8436 45.0615C50.1644 45.0615 49.6549 44.5521 49.6549 43.8728Z" fill="#2683FF"/>
<path d="M26.9844 4.64551C26.9844 3.96624 27.4938 3.45679 28.1731 3.45679C28.7675 3.45679 29.2769 3.96624 29.2769 4.64551C29.2769 5.23987 28.7675 5.83423 28.0882 5.83423C27.4938 5.74932 26.9844 5.23987 26.9844 4.64551Z" fill="#2683FF"/>
<path d="M6.60632 43.8728C6.60632 44.5521 6.09687 45.0615 5.4176 45.0615C4.82324 45.0615 4.22888 44.4672 4.22888 43.8728C4.22888 43.2784 4.82324 42.6841 5.4176 42.6841C6.09687 42.6841 6.60632 43.1935 6.60632 43.8728Z" fill="#2683FF"/>
<path d="M28.1731 55.7596C28.8524 55.7596 29.3618 56.2691 29.3618 56.9484C29.3618 57.6276 28.8524 58.0522 28.1731 58.0522C27.4938 58.0522 26.9844 57.5427 26.9844 56.8635C26.9844 56.2691 27.4938 55.7596 28.1731 55.7596Z" fill="#2683FF"/>
<path d="M5.50256 18.8248C4.82329 18.8248 4.31384 18.3153 4.31384 17.7209C4.31384 17.1266 4.82329 16.5322 5.50256 16.5322C6.18183 16.5322 6.69128 16.9568 6.69128 17.636C6.60638 18.3153 6.18183 18.8248 5.50256 18.8248Z" fill="#2683FF"/>
<path d="M50.8438 18.8248C50.1645 18.8248 49.6551 18.3153 49.74 17.636C49.74 16.9568 50.2494 16.5322 50.9287 16.5322C51.608 16.5322 52.1174 17.0417 52.1174 17.7209C52.0325 18.3153 51.4381 18.8248 50.8438 18.8248Z" fill="#2683FF"/>
</svg>
