<svg xmlns="http://www.w3.org/2000/svg" viewBox="0 0 228 62" height="62" fill-rule="evenodd" xmlns:v="https://vecta.io/nano"><path d="M21.973 56.723L7.7 48.393c-.716.394-1.519.606-2.336.618h-.079a5.06 5.06 0 0 1-4.391-2.564 5.16 5.16 0 0 1 1.735-6.93v-16.66a5.16 5.16 0 0 1-1.735-6.93 5.06 5.06 0 0 1 4.313-2.565h.078a5 5 0 0 1 2.415.618l14.272-8.33c.074-2.737 2.27-4.94 4.986-4.984h.084c2.755 0 4.996 2.219 5.07 4.985l14.272 8.33c.717-.394 1.519-.607 2.337-.619h.078a5.06 5.06 0 0 1 4.392 2.564c1.377 2.411.596 5.483-1.736 6.932v16.658c2.332 1.448 3.113 4.52 1.736 6.931a5.06 5.06 0 0 1-4.314 2.564H48.8c-.844.001-1.674-.211-2.414-.617l-14.273 8.329c-.073 2.738-2.27 4.94-4.986 4.984l-.084.001c-2.754 0-4.996-2.22-5.07-4.985zm5.07-48.489h.066l.016-.001h-.016l.065-.002-.049.002c.024 0 .048-.002.072-.004l-.023.002.067-.005-.044.003c.022 0 .043-.002.065-.004l-.02.001.058-.005-.038.004.071-.008-.033.004.066-.008-.033.004.06-.008-.027.004.073-.011-.046.007.06-.01-.014.003.063-.012-.049.01.066-.013-.017.003.08-.016-.063.013.186-.045-.037.01.06-.017-.023.007.054-.016-.03.009a2.44 2.44 0 0 0 1.73-2.342 2.43 2.43 0 0 0-2.416-2.442c-1.334 0-2.415 1.093-2.415 2.442a2.44 2.44 0 0 0 1.735 2.343l-.037-.011.055.017-.018-.006.06.017-.042-.011.065.017-.024-.006.167.038-.023-.004.068.012-.045-.008.056.01-.011-.002.06.01-.049-.008.075.012-.025-.004.058.008-.033-.004.067.008-.034-.004.071.008-.037-.004.058.005-.02-.002.064.005-.044-.003.067.005-.023-.002.072.004-.05-.002.132.003h0zm7.852 16.757l8.985-5.244-.018-.077-.006-.023-.012-.053-.008-.039-.048-.264c-.026-.17-.044-.342-.054-.514l-.001-.012v.012l-.003-.074-.002-.044v-.048l-.002-.038v-.036-.034.034a5.19 5.19 0 0 1 .124-1.173l.008-.031.007-.03.105-.383.01-.033.03-.09.01-.025.105-.275.05-.118.019-.04.011-.025.044-.09.016-.034.022-.044.014-.027.105-.193-12.97-7.57-.007.014-.074.124-.012.02-.03.046-.018.03-.046.07-.015.021c-.133.197-.279.384-.437.56l-.02.022-.02.023a4.86 4.86 0 0 1-.38.372l-.01.008-.098.084-.016.013-.037.03-.034.028-.019.015-.262.194-.014.009a5.01 5.01 0 0 1-.45.275l-.027.015-.084.044-.022.01a4.71 4.71 0 0 1-.529.23l-.029.01-.056.02-.013.005c-.02.008-.041.014-.062.021l-.024.008-.062.02-.015.004-.097.029-.011 9.877c2.775.347 5.158 2.018 6.489 4.384h0zm-15.242.208a8.71 8.71 0 0 1 6.096-4.513v-9.934l-.416-.13-.025-.01-.056-.02-.02-.008-.053-.021-.026-.01-.453-.212-.016-.008-.06-.033-.022-.012-.037-.02-.115-.068-.024-.014-.048-.03-.03-.018-.028-.019-.14-.093-.037-.026-.185-.137-.035-.027-.01-.008-.145-.12-.035-.03-.036-.032-.025-.022-.02-.018-.277-.272-.024-.025-.108-.12-.002-.002-.256-.318-.018-.024-.032-.045-.02-.027-.025-.036-.021-.03-.047-.07-.156-.252-.016-.028-12.97 7.569.124.23.011.022.066.136.011.026.023.049.01.023.022.051.16.428.008.027.092.325.01.037.028.128.007.031.078.496a5.06 5.06 0 0 1 .03.602v.064l-.006.147c0 .018-.002.035-.003.053l-.002.036-.002.029-.015.172v-.003l-.049.349-.006.033-.008.043-.05.233 9.434 5.506h0zm30.354-4.595c1.157-.683 1.551-2.169.884-3.335a2.4 2.4 0 0 0-3.3-.894 2.45 2.45 0 0 0-1.162 2.59l-.005-.03.01.056-.005-.026.015.07-.01-.044.017.074-.007-.03.014.058-.007-.028.016.062-.01-.034.02.068-.01-.034.016.059-.007-.025a2.47 2.47 0 0 0 .083.243l-.012-.03.027.067-.015-.037.025.06-.01-.023.024.055-.014-.031.032.071-.018-.04.028.06-.01-.02.029.058-.02-.039.036.072-.016-.033.043.083.02.034.12.191-.016-.023.096.13-.015-.019.034.044-.02-.025.048.059-.028-.034.04.048-.012-.014.037.043-.025-.029a2.46 2.46 0 0 0 .29.288l-.04-.035.048.042-.008-.007c.755.633 1.85.76 2.75.234h0zM6.962 20.25l.02-.019.081-.086-.01.011.045-.049-.035.038.047-.052-.012.014.044-.052-.032.038.039-.047-.007.009.036-.046-.03.037a.77.77 0 0 0 .05-.063l-.02.026.04-.053-.02.027.037-.048-.016.021.038-.052-.022.03.04-.056-.018.026a2.45 2.45 0 0 0 .141-.227l-.019.034.097-.189-.018.038.021-.043-.003.005.028-.061.008-.019-.008.019a2.53 2.53 0 0 0 .1-.276l.004-.017-.005.017.018-.063-.013.046.019-.068-.006.022.015-.06-.01.038.035-.156-.003.02a2.45 2.45 0 0 0-1.163-2.589 2.4 2.4 0 0 0-3.3.894c-.667 1.167-.273 2.653.885 3.335.931.543 2.11.399 2.882-.354h0zm1.862 19.956l5.754-3.358a7.1 7.1 0 0 1-1.565-4.46c-.006-2.447 1.25-4.723 3.322-6.024l-7.394-4.316-.253.248c-.307.28-.647.521-1.013.718l-.003.002c-.216.117-.441.217-.673.3-.252.091-.511.163-.775.213l-.024.005-.217.035-.013.002c-.009 0-.017.002-.026.003l-.285.03-.032.002-.143.008-.029.001-.088.002-.079.001v15.138a5.05 5.05 0 0 1 1.189.144l.084.02c.853.225 1.633.668 2.263 1.286h0zm36.478-.038l.027-.026a5.08 5.08 0 0 1 .784-.609l.002-.001.117-.072.028-.016-.028.016c.184-.108.374-.205.57-.29a5.06 5.06 0 0 1 .526-.193l.037-.011.365-.094.134-.028.012-.002.067-.012-.067.012.386-.057.026-.003.137-.012.035-.003.136-.007.035-.001h.016l.152-.003h-.011.01V23.618c-.487-.001-.971-.073-1.437-.211-.185-.055-.366-.121-.543-.197l-.045-.02a5.06 5.06 0 0 1-.66-.35l-.073-.047a5.02 5.02 0 0 1-.856-.705L36.03 27.43c2.914.37 5.176 2.86 5.225 5.895v.1c0 1.379-.456 2.65-1.225 3.666l5.272 3.077h0zm-18.571-3.386h8.546c1.835 0 3.322-1.503 3.322-3.357s-1.487-3.357-3.322-3.357h-1.83l-.098-1.235c-.25-3.155-2.866-5.607-6.018-5.607-2.518 0-4.745 1.572-5.636 3.907l-.328.86h-1.35c-2.4 0-4.347 1.967-4.347 4.394s1.946 4.395 4.348 4.395h6.58l.028-.001.067.001h.038 0zM22.65 54.017l.014-.026.085-.14.018-.03.023-.035c.163-.253.348-.491.552-.711l.019-.02.037-.04a5.15 5.15 0 0 1 .503-.46l.022-.017.075-.058.024-.018.106-.077.029-.02.103-.071.045-.03.13-.082.03-.018.139-.08.037-.02.138-.073.046-.023.034-.016c.164-.08.333-.151.506-.211l.02-.007.129-.043.03-.01.125-.037.021-.006.04-.011.02-.005V39.468h-5.732c-1.17 0-2.272-.29-3.24-.802l-6.6 3.852.091.395.009.046.008.045a5.13 5.13 0 0 1 .074.773v.075-.033l-.006.321-.002.037-.002.037-.047.437.007-.05-.041.25-.006.027-.091.388-.009.03-.006.022.006-.022-.05.169-.008.023a5.07 5.07 0 0 1-.251.629l-.02.042-.017.033-.136.255 12.969 7.57h0zm8.787 0l12.969-7.57-.063-.111-.016-.03-.023-.045-.073-.147-.017-.037-.007-.015.007.015-.085-.191-.002-.005-.121-.32-.008-.022-.024-.074-.015-.048a5.6 5.6 0 0 1-.152-.624l-.018-.109-.002-.012c-.042-.271-.062-.545-.061-.82v-.033.033l.002-.135.002-.038.002-.047.001-.03c.013-.234.042-.466.086-.696l.005-.028.012-.059.006-.027.01-.043.046-.192.017-.06.008-.032-6.11-3.566a5.9 5.9 0 0 1-2.536.569h-6.871v12.173l.075.021.022.007c.16.048.316.104.47.168l.261.118.031.015.235.124.021.012.08.046.029.017.048.03.014.009.057.035.02.013.071.047.033.022.033.022.262.195.03.024.293.254.016.015.02.02.042.04.02.02.025.025.016.015.013.014.089.092.006.007a5.16 5.16 0 0 1 .363.436l.02.027.031.043.064.091.028.041.02.03.146.235.027.046h0zM6.495 45.998a2.45 2.45 0 0 0 1.167-2.566l-.004-.022.004.022c-.039-.216-.109-.426-.206-.623l-.011-.023.011.023-.025-.051.014.028-.034-.065-.032-.058-.105-.168-.016-.024.016.024-.036-.052.02.028-.04-.054.02.026-.044-.059.024.032-.035-.046.011.014-.043-.053.032.04-.04-.052.008.012a2.4 2.4 0 0 0-3.072-.561c-1.157.683-1.55 2.169-.883 3.335a2.4 2.4 0 0 0 3.299.893h0zm44.396-.893c.668-1.167.274-2.653-.884-3.336-.911-.532-2.063-.406-2.837.311l-.045.043-.074.075-.017.019.017-.02-.038.042.02-.022-.04.045.02-.023-.043.05.023-.027-.043.05.02-.024-.041.05.02-.026-.123.163-.014.02.014-.02a2.44 2.44 0 0 0-.151.246l-.012.023.012-.023-.034.066.022-.043-.032.062.01-.019-.027.056.017-.037-.03.066.013-.03-.067.157.008-.02c-.039.099-.072.201-.098.305l.009-.034-.016.062.007-.028-.014.06.007-.032-.016.07.009-.038-.014.065.005-.026-.01.057.005-.031a2.45 2.45 0 0 0 1.162 2.59 2.4 2.4 0 0 0 3.3-.895v.001zM27.043 59.022c1.334 0 2.416-1.093 2.416-2.441a2.44 2.44 0 0 0-1.55-2.28l.02.008-.05-.02.03.012-.059-.022.03.01-.057-.02.027.01-.06-.02.033.01-.063-.02.03.01-.062-.02.032.01-.055-.017.023.007-.06-.017.037.01-.066-.018.029.008-.18-.042.03.007-.056-.011.025.004-.065-.011.04.007-.07-.012.03.005-.046-.007.016.002-.072-.009.056.007-.064-.008.008.001-.061-.006.053.005-.07-.007.017.002-.069-.005.052.003-.066-.004h.014l-.065-.002.051.002-.133-.004-.066.001h-.016.016l-.067.003.051-.002-.065.003.014-.001-.066.004.052-.003-.068.005.016-.002-.07.007.054-.005-.061.006h.008l-.065.007.057-.007-.07.01.013-.003-.047.007.034-.005-.072.012.038-.007-.058.01.02-.003-.06.01.04-.007-.16.035-.023.007.023-.006-.064.017.041-.011-.06.016.019-.005-.058.017.04-.012-.066.02.026-.008-.06.02.034-.011-.061.02.027-.009-.056.02.029-.01-.06.022.031-.012-.048.019.017-.007a2.44 2.44 0 0 0-1.548 2.28c0 1.348 1.081 2.441 2.415 2.441h0z" fill="#0149ff" fill-rule="nonzero"/><path d="M148.498 13.73c10.321 0 17.727 7.765 17.727 17.364v.096c0 9.598-7.502 17.46-17.822 17.46s-17.726-7.765-17.726-17.364v-.096c0-9.598 7.501-17.46 17.821-17.46h0zm-65.428.113c4.862 0 9.01 1.542 12.395 4.288l-3.814 5.59c-2.956-2.072-5.864-3.325-8.677-3.325s-4.29 1.301-4.29 2.94v.096c0 2.216 1.43 2.94 7.198 4.433 6.77 1.783 10.584 4.24 10.584 10.12v.096c0 6.698-5.054 10.456-12.252 10.456-5.053 0-10.154-1.782-14.159-5.397l4.338-5.252c3.004 2.506 6.15 4.096 9.964 4.096 3.003 0 4.815-1.205 4.815-3.18v-.097c0-1.879-1.144-2.843-6.722-4.288-6.722-1.735-11.06-3.614-11.06-10.313v-.096c0-6.12 4.863-10.167 11.68-10.167h0zm144.668.45v22.09c0 8.2-4.766 12.154-11.82 12.154-5.194 0-8.626-2.315-10.913-5.064l4.623-5.209c1.906 2.122 3.765 3.376 6.1 3.376 2.764 0 4.48-1.688 4.48-5.595V21.84h-10.969v-7.547h18.499 0zm-100.07 0v6.855h-10.149v26.939h-7.338V21.148h-10.149v-6.855h27.636zm60.063 0c7.872 0 12.594 4.2 12.594 11.152v.097c0 5.455-2.91 8.883-7.155 10.476l8.157 12.069h-8.587l-7.156-10.814h-5.772v10.814h-7.347V14.293h15.266zm-39.328 6.308c-5.927 0-10.037 4.717-10.037 10.493v.096c0 5.776 4.206 10.589 10.132 10.589s10.038-4.717 10.038-10.493v-.096c0-5.776-4.206-10.589-10.133-10.589zm38.697.45h-7.28v9.688h7.423c3.569 0 5.615-1.927 5.615-4.77v-.097c0-3.181-2.189-4.82-5.758-4.82v-.001z" fill="#091c45"/></svg>
