<svg width="236" height="71" viewBox="0 0 236 71" fill="none" xmlns="http://www.w3.org/2000/svg">
<path d="M31.0432 66.708C28.2888 66.708 26.0472 64.4888 25.9728 61.7227L11.7005 53.3936C10.9583 53.7999 10.1576 53.9999 9.36472 54.0114L9.28629 54.0119C7.53536 54.0099 5.83312 53.0905 4.89468 51.4474C3.51752 49.0362 4.29796 45.9643 6.63047 44.5161L6.63047 27.8575C4.29796 26.4093 3.51752 23.3374 4.89468 20.9262C5.81911 19.3077 7.48471 18.3913 9.20793 18.3624L9.28629 18.3617C10.1047 18.3608 10.9338 18.5603 11.7005 18.98L25.9728 10.6507C26.0465 7.91287 28.2435 5.71079 30.9593 5.66628L31.0432 5.66559C33.7975 5.66559 36.039 7.88472 36.1135 10.6507L50.3854 18.9802C51.1277 18.5737 51.9286 18.3737 52.7216 18.3622L52.8001 18.3617C54.551 18.3637 56.2532 19.2831 57.1917 20.9262C58.5688 23.3374 57.7884 26.4093 55.4559 27.8575L55.4559 44.5161C57.7884 45.9643 58.5688 49.0362 57.1917 51.4474C56.2672 53.0659 54.6016 53.9823 52.8784 54.0112L52.8001 54.0119C51.9816 54.0128 51.1526 53.8134 50.3859 53.3937L36.1135 61.7229C36.0398 64.4607 33.8429 66.6628 31.1271 66.7073L31.0432 66.708ZM31.0432 13.2344L31.1088 13.2335C31.1143 13.2334 31.1199 13.2332 31.1253 13.233L31.1089 13.2335C31.1308 13.2329 31.1527 13.232 31.1745 13.2309L31.1253 13.233C31.1493 13.2322 31.1732 13.2311 31.1969 13.2295L31.1745 13.2309C31.1968 13.2296 31.2189 13.2281 31.2411 13.2263L31.1969 13.2295C31.2187 13.2282 31.2404 13.2265 31.262 13.2245L31.2411 13.2263C31.2607 13.2247 31.2802 13.2229 31.2997 13.2208L31.262 13.2245C31.2858 13.2224 31.3096 13.2198 31.3332 13.217L31.2997 13.2208C31.3217 13.2184 31.3437 13.2158 31.3656 13.2128L31.3332 13.217C31.3532 13.2146 31.3732 13.2119 31.3931 13.209L31.3656 13.2128C31.3903 13.2095 31.415 13.2058 31.4395 13.2017L31.3931 13.209C31.4132 13.206 31.4332 13.2028 31.4532 13.1994L31.4395 13.2017C31.4604 13.1982 31.4812 13.1944 31.5019 13.1904L31.4532 13.1994C31.4752 13.1956 31.4971 13.1915 31.5188 13.1871L31.5019 13.1904C31.5285 13.1853 31.555 13.1796 31.5814 13.1736L31.5188 13.1871C31.5691 13.1769 31.6187 13.1652 31.6678 13.152C31.6801 13.1487 31.6924 13.1453 31.7047 13.1417L31.6678 13.152C31.688 13.1465 31.7082 13.1408 31.7282 13.1348L31.7047 13.1417C31.7227 13.1366 31.7406 13.1312 31.7585 13.1256L31.7282 13.1348C32.7285 12.8363 33.4585 11.9008 33.4585 10.7929C33.4585 9.44442 32.3771 8.3513 31.0432 8.3513C29.7092 8.3513 28.6278 9.44442 28.6278 10.7929C28.6278 11.8887 29.342 12.8159 30.3256 13.1249C30.3378 13.1288 30.3502 13.1326 30.3627 13.1362L30.3256 13.1249C30.344 13.1306 30.3625 13.1362 30.381 13.1415L30.3627 13.1362C30.3825 13.1421 30.4023 13.1477 30.4223 13.153L30.381 13.1415C30.4024 13.1477 30.424 13.1535 30.4456 13.1591L30.4223 13.153C30.4697 13.1657 30.5176 13.177 30.566 13.1868C30.5736 13.1883 30.5813 13.1898 30.589 13.1913L30.566 13.1868C30.5884 13.1913 30.611 13.1955 30.6337 13.1994L30.589 13.1913C30.6076 13.1949 30.6262 13.1983 30.645 13.2014L30.6337 13.1994C30.6539 13.2029 30.6742 13.2062 30.6946 13.2091L30.645 13.2014C30.6699 13.2056 30.6949 13.2094 30.72 13.2128L30.6946 13.2091C30.714 13.212 30.7335 13.2146 30.7531 13.217L30.72 13.2128C30.7422 13.2157 30.7644 13.2184 30.7867 13.2208L30.7531 13.217C30.7767 13.2198 30.8005 13.2223 30.8243 13.2245L30.7867 13.2208C30.8062 13.2229 30.8257 13.2247 30.8453 13.2263L30.8243 13.2245C30.846 13.2265 30.8677 13.2282 30.8894 13.2295L30.8453 13.2263C30.8674 13.2281 30.8896 13.2297 30.9118 13.2309L30.8894 13.2295C30.9132 13.2311 30.937 13.2322 30.961 13.233L30.9118 13.2309C30.9553 13.2332 30.9991 13.2344 31.0432 13.2344ZM38.8949 29.991L47.8803 24.7471C47.8738 24.7216 47.8676 24.696 47.8617 24.6704C47.8598 24.6626 47.858 24.6546 47.8561 24.6466C47.8521 24.6289 47.8482 24.6115 47.8443 24.594C47.8416 24.5813 47.8388 24.5684 47.8361 24.5555C47.8329 24.5404 47.8298 24.5254 47.8268 24.5104C47.8236 24.4945 47.8205 24.4787 47.8175 24.4629C47.8088 24.4174 47.8007 24.3718 47.7933 24.3261C47.7914 24.3146 47.7895 24.3029 47.7877 24.2913C47.7703 24.1797 47.7566 24.068 47.7465 23.9563C47.7454 23.9437 47.7443 23.9311 47.7433 23.9186C47.7394 23.8713 47.7362 23.824 47.7336 23.7767C47.7334 23.7727 47.7331 23.7686 47.7329 23.7646L47.7336 23.7767C47.7322 23.7523 47.7311 23.7279 47.7301 23.7035C47.7295 23.6888 47.729 23.674 47.7285 23.6592C47.728 23.6429 47.7275 23.6267 47.7272 23.6106C47.7269 23.5982 47.7267 23.5858 47.7265 23.5734C47.7263 23.5611 47.7262 23.5488 47.7261 23.5366C47.726 23.5253 47.7259 23.5141 47.7259 23.5029L47.7261 23.5366C47.7238 23.2634 47.7433 22.9913 47.7836 22.7228C47.7903 22.6782 47.7976 22.6337 47.8055 22.5892C47.8089 22.5698 47.8124 22.5505 47.8161 22.5312C47.8238 22.4902 47.8321 22.4493 47.8408 22.4084C47.8439 22.3938 47.8471 22.379 47.8504 22.3643C47.8528 22.3537 47.8552 22.3432 47.8576 22.3326C47.8598 22.3228 47.8622 22.3129 47.8645 22.3029C47.8689 22.284 47.8735 22.2652 47.8781 22.2465C47.892 22.1906 47.9067 22.1348 47.9224 22.0793C47.9337 22.0395 47.9455 21.9998 47.9577 21.9602C47.9618 21.9468 47.966 21.9334 47.9703 21.9201C47.9737 21.9092 47.9773 21.8982 47.9808 21.8872C47.9849 21.8745 47.9891 21.8618 47.9934 21.8491C47.9992 21.8318 48.005 21.8146 48.0109 21.7974C48.0138 21.789 48.0168 21.7806 48.0197 21.7721C48.0256 21.7553 48.0316 21.7386 48.0377 21.7219C48.0389 21.7184 48.0402 21.7148 48.0416 21.7112C48.0495 21.6896 48.0574 21.6682 48.0655 21.6469C48.0846 21.5968 48.1044 21.547 48.125 21.4974C48.1415 21.4579 48.1585 21.4185 48.1759 21.3794C48.1818 21.3662 48.1878 21.3529 48.1938 21.3396C48.1977 21.3311 48.2016 21.3227 48.2055 21.3143C48.2138 21.2964 48.2222 21.2785 48.2307 21.2607C48.2366 21.2482 48.2425 21.2359 48.2485 21.2236C48.254 21.2123 48.2595 21.2011 48.265 21.1899C48.2723 21.1752 48.2796 21.1606 48.287 21.1461C48.2916 21.1371 48.2962 21.128 48.3009 21.1189C48.3087 21.1038 48.3164 21.0889 48.3243 21.074C48.3287 21.0656 48.3331 21.0572 48.3376 21.0489C48.3597 21.0076 48.3823 20.9666 48.4055 20.9259L35.4366 13.3569C35.434 13.3614 35.4315 13.3659 35.4289 13.3703C35.4049 13.4119 35.3805 13.453 35.3554 13.4938C35.3512 13.5007 35.3469 13.5076 35.3426 13.5145C35.3331 13.5299 35.3234 13.5452 35.3137 13.5605C35.3074 13.5704 35.3012 13.5802 35.2948 13.59C35.287 13.6022 35.279 13.6145 35.2709 13.6267C35.2636 13.6379 35.2563 13.6489 35.249 13.6599C35.2442 13.667 35.2393 13.6743 35.2344 13.6815C35.1559 13.7977 35.0727 13.9105 34.9852 14.0196C34.9597 14.0514 34.9337 14.083 34.9074 14.1143C34.883 14.1433 34.8582 14.172 34.8332 14.2005C34.8213 14.214 34.8093 14.2275 34.7973 14.2408C34.7906 14.2483 34.7838 14.2557 34.7771 14.2632C34.7701 14.2708 34.7631 14.2784 34.7562 14.286C34.7272 14.3175 34.6978 14.3486 34.668 14.3793C34.5746 14.4758 34.4773 14.5687 34.3765 14.6576L34.3675 14.6655C34.3351 14.694 34.3023 14.7221 34.2691 14.7497C34.2637 14.7542 34.2584 14.7586 34.2531 14.763C34.2407 14.7732 34.2282 14.7835 34.2157 14.7937C34.2043 14.8029 34.193 14.812 34.1817 14.821C34.1754 14.826 34.1692 14.8309 34.163 14.8359C34.122 14.8682 34.0806 14.8999 34.0387 14.9309C34.0361 14.9329 34.0336 14.9347 34.0312 14.9364C34.0186 14.9458 34.0058 14.9551 33.9929 14.9644C33.9623 14.9866 33.9315 15.0084 33.9005 15.0298L33.8875 15.0387C33.8005 15.0984 33.7115 15.1555 33.6207 15.2097C33.6119 15.215 33.603 15.2203 33.5941 15.2255C33.5572 15.2472 33.52 15.2685 33.4825 15.2894C33.4674 15.2978 33.4523 15.3061 33.4371 15.3143C33.4282 15.3191 33.4193 15.3239 33.4103 15.3287C33.4 15.3342 33.3896 15.3397 33.3792 15.3452C33.3615 15.3545 33.3437 15.3637 33.3259 15.3728C33.3187 15.3765 33.3115 15.3801 33.3042 15.3838C33.2632 15.4045 33.222 15.4246 33.1804 15.4441C33.1709 15.4486 33.1613 15.4531 33.1516 15.4575C33.109 15.4772 33.0662 15.4963 33.0231 15.5148C32.9805 15.5331 32.9377 15.5508 32.8946 15.5678C32.855 15.5835 32.8152 15.5987 32.7752 15.6134C32.7656 15.617 32.756 15.6204 32.7465 15.6239C32.7279 15.6306 32.7092 15.6372 32.6905 15.6437C32.6858 15.6453 32.6813 15.6469 32.6768 15.6484C32.6562 15.6555 32.6355 15.6624 32.6148 15.6693C32.607 15.6718 32.5992 15.6744 32.5914 15.6769C32.5706 15.6836 32.5496 15.6903 32.5286 15.6968C32.5238 15.6982 32.5191 15.6997 32.5143 15.7011C32.497 15.7065 32.4795 15.7117 32.462 15.7168C32.4471 15.7212 32.4321 15.7256 32.4171 15.7298C32.4133 15.7309 32.4095 15.7319 32.4058 15.733L32.4059 25.6073C35.181 25.9541 37.5641 27.6255 38.8949 29.991ZM23.6534 30.1992C24.895 27.8422 27.1402 26.1726 29.7491 25.6864L29.749 15.7517C29.7198 15.744 29.6907 15.7359 29.6617 15.7277C29.6488 15.724 29.6361 15.7203 29.6233 15.7165C29.5254 15.6877 29.4286 15.656 29.3332 15.6215C29.3247 15.6184 29.3163 15.6153 29.3078 15.6122C29.2891 15.6053 29.2705 15.5983 29.2519 15.5913C29.2454 15.5888 29.2388 15.5862 29.2323 15.5837C29.2146 15.5769 29.197 15.5699 29.1794 15.5629C29.1704 15.5593 29.1615 15.5557 29.1525 15.5521C29.1324 15.5439 29.1123 15.5356 29.0924 15.5272C29.0868 15.5249 29.0812 15.5225 29.0756 15.5201C29.0311 15.5011 28.987 15.4816 28.9432 15.4614C28.9312 15.4559 28.9194 15.4504 28.9075 15.4448C28.8724 15.4283 28.8373 15.4114 28.8026 15.394C28.7809 15.3832 28.7594 15.3723 28.738 15.3613C28.7253 15.3547 28.7125 15.348 28.6997 15.3413C28.6944 15.3385 28.6891 15.3357 28.6838 15.3328C28.6637 15.3221 28.6435 15.3112 28.6235 15.3002C28.6164 15.2963 28.6091 15.2923 28.602 15.2883C28.5897 15.2815 28.5775 15.2746 28.5653 15.2677C28.5266 15.2458 28.4882 15.2234 28.4502 15.2004C28.4419 15.1955 28.4337 15.1905 28.4255 15.1855C28.4098 15.1758 28.394 15.1661 28.3782 15.1563C28.3684 15.1501 28.3586 15.144 28.3489 15.1378C28.3392 15.1316 28.3294 15.1254 28.3197 15.1191C28.3084 15.1118 28.2973 15.1046 28.2862 15.0973C28.2505 15.0739 28.2151 15.05 28.18 15.0257C28.1677 15.0172 28.1554 15.0086 28.1431 15C28.0804 14.9557 28.0188 14.9101 27.9582 14.8631C27.9465 14.854 27.9348 14.8449 27.9231 14.8357L27.9138 14.8282C27.8646 14.7892 27.8161 14.7492 27.7684 14.7084C27.7566 14.6983 27.7449 14.6882 27.7332 14.6781C27.7211 14.6675 27.709 14.6569 27.697 14.6462C27.6887 14.6389 27.6805 14.6315 27.6722 14.6241C27.6655 14.618 27.6589 14.612 27.6523 14.606C27.5566 14.519 27.4642 14.4284 27.3754 14.3344C27.3673 14.3259 27.3592 14.3172 27.3511 14.3085C27.3144 14.2692 27.2784 14.2294 27.2431 14.189L27.2409 14.1865C27.1787 14.1153 27.1184 14.0424 27.0602 13.9678C27.0514 13.9566 27.0426 13.9453 27.034 13.934C27.026 13.9236 27.018 13.9131 27.0101 13.9026C27.0017 13.8915 26.9933 13.8804 26.9851 13.8693C26.979 13.861 26.9729 13.8528 26.9668 13.8445C26.956 13.8298 26.9452 13.815 26.9345 13.8C26.928 13.7909 26.9215 13.7818 26.9151 13.7727C26.9066 13.7608 26.8983 13.749 26.89 13.7371C26.883 13.7268 26.8758 13.7165 26.8687 13.7061C26.8593 13.6925 26.8501 13.6789 26.841 13.6652C26.8346 13.6557 26.8282 13.6461 26.8219 13.6364C26.7675 13.5542 26.7155 13.4703 26.6659 13.3849L26.6498 13.3569L13.6808 20.9257C13.7082 20.9738 13.7343 21.0214 13.7596 21.0693C13.7683 21.0858 13.7769 21.1023 13.7854 21.1188C13.7918 21.1312 13.7981 21.1436 13.8044 21.156C13.8081 21.1634 13.8118 21.1707 13.8154 21.178C13.8379 21.2231 13.8597 21.2686 13.8809 21.3143C13.8848 21.3228 13.8887 21.3312 13.8925 21.3396C13.8999 21.356 13.9073 21.3723 13.9146 21.3887C13.918 21.3964 13.9214 21.4041 13.9248 21.4118C13.9322 21.4289 13.9396 21.446 13.9469 21.4631C13.9773 21.5348 14.0061 21.6072 14.0333 21.6801C14.0593 21.7499 14.0838 21.8203 14.1068 21.8911C14.1096 21.8999 14.1125 21.9087 14.1153 21.9176C14.1495 22.025 14.1802 22.1335 14.2073 22.2429C14.2104 22.2554 14.2135 22.2678 14.2165 22.2803C14.2267 22.3228 14.2364 22.3655 14.2455 22.4083C14.2477 22.4187 14.2499 22.429 14.2521 22.4394C14.2562 22.4593 14.2602 22.4793 14.2641 22.4993C14.2659 22.5086 14.2677 22.5178 14.2695 22.527C14.2835 22.6009 14.2959 22.6751 14.3067 22.7495C14.3105 22.776 14.3141 22.8025 14.3176 22.829C14.3222 22.8644 14.3264 22.8999 14.3302 22.9354C14.3383 23.0098 14.3448 23.0845 14.3496 23.1594C14.3506 23.1742 14.3515 23.189 14.3523 23.2039C14.3529 23.2153 14.3535 23.2267 14.3541 23.2382C14.3565 23.2864 14.3582 23.3347 14.3593 23.383C14.3604 23.4342 14.3607 23.4855 14.3603 23.5367C14.3602 23.5489 14.3601 23.5612 14.3599 23.5736C14.3597 23.5828 14.3596 23.5918 14.3594 23.6009C14.3584 23.6499 14.3567 23.6991 14.3542 23.7483C14.3534 23.7658 14.3524 23.7833 14.3514 23.8008C14.3507 23.8127 14.3499 23.8246 14.3492 23.8366C14.3485 23.8462 14.3478 23.8559 14.3471 23.8656C14.3431 23.9221 14.3381 23.9786 14.3321 24.0351C14.332 24.0359 14.3319 24.0368 14.3319 24.0377L14.3321 24.0351C14.3199 24.1514 14.3037 24.2676 14.2834 24.3835C14.2814 24.3948 14.2794 24.406 14.2774 24.4173C14.2748 24.4316 14.2721 24.4458 14.2694 24.4601C14.2613 24.5026 14.2526 24.5451 14.2434 24.5875C14.2357 24.6228 14.2277 24.6582 14.2192 24.6935L23.6534 30.1992ZM54.0067 25.6043C55.1619 24.9301 55.5577 23.4368 54.8907 22.2691C54.2238 21.1013 52.7465 20.7012 51.5913 21.3754C50.6807 21.9068 50.2419 22.9472 50.4236 23.9359C50.4252 23.9455 50.4271 23.9552 50.429 23.9648L50.4236 23.9359C50.427 23.9542 50.4305 23.9725 50.4343 23.9907L50.429 23.9648C50.4336 23.9883 50.4386 24.0117 50.4439 24.0351L50.4343 23.9907C50.4394 24.0154 50.4449 24.04 50.4508 24.0646L50.4439 24.0351C50.4483 24.0544 50.4529 24.0736 50.4578 24.0929L50.4508 24.0646C50.4559 24.0855 50.4612 24.1064 50.4668 24.1273L50.4578 24.0929C50.4636 24.1157 50.4697 24.1385 50.4761 24.1612L50.4668 24.1273C50.472 24.1468 50.4775 24.1662 50.4832 24.1856L50.4761 24.1612C50.4965 24.233 50.5203 24.3042 50.5474 24.3745C50.5512 24.3844 50.5551 24.3943 50.5591 24.4042L50.5474 24.3745C50.556 24.3967 50.5649 24.4189 50.5742 24.4409L50.5591 24.4042C50.5672 24.4244 50.5756 24.4445 50.5842 24.4646L50.5742 24.4409C50.582 24.4595 50.59 24.478 50.5983 24.4964L50.5842 24.4646C50.5946 24.4885 50.6053 24.5123 50.6164 24.536L50.5983 24.4964C50.6071 24.5162 50.6163 24.5358 50.6257 24.5554L50.6164 24.536C50.6256 24.5554 50.635 24.5748 50.6447 24.5941L50.6257 24.5554C50.6372 24.5793 50.6491 24.603 50.6614 24.6266L50.6447 24.5941C50.6587 24.6219 50.6732 24.6495 50.6884 24.677L50.7072 24.7106C50.7403 24.7685 50.7754 24.8247 50.8125 24.879C50.8178 24.8867 50.8231 24.8944 50.8285 24.9021L50.8125 24.879C50.8384 24.9169 50.8653 24.9539 50.893 24.99C50.8979 24.9964 50.9027 25.0026 50.9076 25.0088L50.893 24.99C50.9043 25.0047 50.9158 25.0193 50.9274 25.0337L50.9076 25.0088C50.9232 25.0288 50.9391 25.0484 50.9553 25.0678L50.9274 25.0337C50.9405 25.05 50.9538 25.0661 50.9673 25.082L50.9553 25.0678C50.9674 25.0823 50.9797 25.0966 50.9921 25.1108L50.9673 25.082C50.9996 25.1201 51.0331 25.1571 51.0675 25.193C51.0924 25.2188 51.1177 25.244 51.1435 25.2686C51.1674 25.2914 51.1918 25.3137 51.2165 25.3354C51.2299 25.347 51.2433 25.3585 51.2568 25.3698L51.2165 25.3354C51.2324 25.3494 51.2485 25.3631 51.2647 25.3766L51.2568 25.3698C52.0123 26.0029 53.1071 26.1293 54.0067 25.6043ZM10.9617 25.2505L10.9812 25.2314C11.0058 25.2068 11.03 25.1817 11.0536 25.156C11.0569 25.1524 11.0601 25.1489 11.0633 25.1454L11.0536 25.156C11.0685 25.1399 11.0831 25.1235 11.0976 25.107L11.0633 25.1454C11.0791 25.1281 11.0946 25.1105 11.11 25.0927L11.0976 25.107C11.1126 25.0897 11.1274 25.0723 11.142 25.0546L11.11 25.0927C11.1231 25.0774 11.136 25.0619 11.1488 25.0463L11.142 25.0546C11.1543 25.0396 11.1664 25.0245 11.1784 25.0092L11.1488 25.0463C11.1657 25.0256 11.1822 25.0047 11.1985 24.9833L11.1784 25.0092C11.1921 24.9918 11.2055 24.9742 11.2187 24.9564L11.1985 24.9833C11.2107 24.9673 11.2228 24.9511 11.2346 24.9347L11.2187 24.9564C11.2315 24.9391 11.2441 24.9216 11.2565 24.9039L11.2346 24.9347C11.2481 24.9161 11.2614 24.8973 11.2744 24.8782L11.2565 24.9039C11.3 24.8419 11.341 24.7774 11.3791 24.7106C11.3855 24.6994 11.3918 24.6882 11.398 24.677L11.3791 24.7106C11.4075 24.6609 11.434 24.6106 11.4585 24.5598C11.4645 24.5474 11.4704 24.5349 11.4762 24.5224L11.4585 24.5598C11.4655 24.5454 11.4723 24.531 11.479 24.5165L11.4762 24.5224C11.4857 24.5019 11.4949 24.4814 11.5038 24.4607C11.5064 24.4546 11.509 24.4485 11.5116 24.4424L11.5038 24.4607C11.5427 24.3703 11.5758 24.2782 11.6033 24.185C11.605 24.1792 11.6067 24.1735 11.6083 24.1677L11.6033 24.185C11.6095 24.1639 11.6155 24.1428 11.6211 24.1216L11.6083 24.1677C11.6148 24.1452 11.6209 24.1226 11.6267 24.1L11.6211 24.1216C11.6265 24.1015 11.6316 24.0813 11.6364 24.0611L11.6267 24.1C11.6384 24.0545 11.6486 24.0089 11.6576 23.9632C11.6589 23.9569 11.6601 23.9506 11.6613 23.9443L11.6576 23.9632C11.8525 22.9664 11.4141 21.9117 10.495 21.3754C9.3398 20.7012 7.86259 21.1013 7.19561 22.2691C6.52863 23.4368 6.92445 24.9301 8.07969 25.6043C9.03323 26.1608 10.2061 25.9854 10.9617 25.2505ZM12.8239 45.2065L18.5778 41.8483C17.5995 40.6307 17.0131 39.0782 17.0131 37.3874C17.0131 34.8428 18.341 32.6117 20.3346 31.3636L12.9407 27.0484C12.9107 27.0799 12.8804 27.1109 12.8498 27.1415C12.7967 27.1944 12.7427 27.246 12.6877 27.2962C12.4646 27.4999 12.2257 27.6814 11.9744 27.8398C11.8765 27.9014 11.7767 27.9596 11.6753 28.0141L11.6722 28.0158C11.6261 28.0406 11.5797 28.0646 11.533 28.0878C11.4657 28.1213 11.3979 28.1532 11.3294 28.1836C11.3064 28.1938 11.2834 28.2038 11.2602 28.2137C11.2078 28.236 11.155 28.2574 11.1019 28.278C11.0678 28.2911 11.0337 28.3039 10.9994 28.3163C10.9353 28.3395 10.8706 28.3614 10.8056 28.382C10.7659 28.3946 10.7261 28.4067 10.6862 28.4183C10.616 28.4386 10.5453 28.4575 10.4742 28.4748C10.432 28.4851 10.3896 28.4948 10.347 28.504C10.3063 28.5128 10.2654 28.5211 10.2244 28.5289C10.2161 28.5305 10.2079 28.5321 10.1997 28.5336C10.1688 28.5393 10.1378 28.5448 10.1067 28.5499C10.0655 28.5568 10.0244 28.5631 9.98318 28.5689C9.97876 28.5695 9.97441 28.5701 9.97006 28.5707C9.9615 28.5719 9.95284 28.573 9.94417 28.5742C9.89598 28.5806 9.84775 28.5863 9.79942 28.5913C9.75274 28.5961 9.70611 28.6003 9.65941 28.6038C9.64853 28.6046 9.63767 28.6054 9.6268 28.6061C9.57939 28.6094 9.53188 28.612 9.48432 28.6139C9.47465 28.6143 9.46502 28.6146 9.45538 28.615C9.42587 28.616 9.39635 28.6168 9.36682 28.6172L9.28845 28.618L9.28736 28.618L9.28736 43.7556H9.28845C9.4453 43.7558 9.60175 43.7634 9.7573 43.7781C9.7851 43.7808 9.81282 43.7836 9.84052 43.7867C9.90394 43.7938 9.96725 43.8021 10.0304 43.8116C10.0744 43.8182 10.1184 43.8254 10.1622 43.8332C10.2208 43.8436 10.2792 43.8551 10.3374 43.8675C10.3841 43.8775 10.4306 43.8882 10.4769 43.8995L10.5607 43.9207C10.7174 43.9618 10.8722 44.0104 11.0245 44.0664C11.0598 44.0794 11.0948 44.0928 11.1297 44.1065C11.2024 44.1351 11.2739 44.1651 11.3447 44.1968C11.3568 44.2022 11.369 44.2077 11.3812 44.2133C11.4104 44.2266 11.4393 44.2402 11.4681 44.254C11.5228 44.2803 11.577 44.3075 11.6308 44.3358C11.7809 44.4146 11.9274 44.5012 12.0697 44.5954C12.1056 44.6192 12.1413 44.6434 12.1767 44.6682C12.1911 44.6783 12.2055 44.6885 12.2199 44.6988C12.2646 44.7307 12.3088 44.7634 12.3525 44.7969C12.5168 44.9227 12.6743 45.0593 12.8239 45.2065ZM49.3022 45.1683L49.3292 45.142C49.417 45.0588 49.5073 44.9791 49.6 44.903C49.764 44.7684 49.9352 44.6452 50.1126 44.5335L50.1153 44.5318C50.1539 44.5075 50.1929 44.4837 50.2322 44.4604C50.2414 44.455 50.2507 44.4495 50.26 44.4441L50.2322 44.4604C50.308 44.4156 50.3849 44.3728 50.4627 44.332C50.5737 44.2739 50.6867 44.2201 50.8014 44.1705C50.9733 44.0962 51.1491 44.0316 51.3278 43.9769C51.3401 43.9731 51.3524 43.9694 51.3647 43.9657C51.4046 43.9539 51.4447 43.9425 51.485 43.9315C51.5507 43.9137 51.6168 43.8972 51.6832 43.8821C51.6987 43.8785 51.7144 43.875 51.7301 43.8716C51.7747 43.8619 51.8194 43.8527 51.8642 43.8442C51.8682 43.8435 51.8721 43.8427 51.876 43.842C51.8985 43.8378 51.9209 43.8337 51.9434 43.8298L51.876 43.842C51.9104 43.8355 51.9449 43.8295 51.9794 43.8237C52.0249 43.8162 52.0705 43.8092 52.1162 43.8029C52.1648 43.7962 52.2135 43.7902 52.2623 43.7849C52.2707 43.784 52.2792 43.7831 52.2876 43.7822C52.3333 43.7775 52.379 43.7734 52.4247 43.77C52.4363 43.7691 52.4479 43.7683 52.4595 43.7675C52.5049 43.7643 52.5503 43.7618 52.5958 43.76C52.6076 43.7595 52.6194 43.759 52.6313 43.7586C52.6366 43.7584 52.6418 43.7583 52.647 43.7581C52.6975 43.7565 52.7482 43.7557 52.7989 43.7556L52.788 43.7559L52.7979 43.7556L52.7989 43.7556L52.7989 28.618H52.7979C52.7045 28.6178 52.6113 28.6151 52.5183 28.6098C52.4795 28.6076 52.4408 28.605 52.4021 28.6019C52.35 28.5977 52.2979 28.5927 52.2459 28.5869C52.1916 28.5808 52.1375 28.5739 52.0834 28.566C52.0468 28.5608 52.0103 28.5551 51.9739 28.549C51.9299 28.5416 51.886 28.5337 51.8423 28.5252C51.8004 28.517 51.7585 28.5083 51.7168 28.4991C51.5974 28.4727 51.4788 28.4419 51.3615 28.4069C51.2252 28.3662 51.0912 28.32 50.9592 28.2681C50.9117 28.2495 50.8645 28.2301 50.8176 28.21C50.8026 28.2036 50.7877 28.1971 50.7727 28.1906C50.7101 28.163 50.648 28.1343 50.5866 28.1042C50.5545 28.0885 50.5226 28.0725 50.4908 28.0561C50.3919 28.0052 50.2946 27.9509 50.1989 27.8933C50.1699 27.8758 50.1409 27.858 50.1122 27.8399L50.0397 27.7933C50.0155 27.7775 49.9914 27.7615 49.9675 27.7453C49.6874 27.5551 49.4245 27.3355 49.1835 27.0877L40.03 32.4296C42.9444 32.7996 45.2059 35.2905 45.2546 38.3251L45.2554 38.425C45.2554 39.8037 44.7987 41.0745 44.0299 42.0913L49.3022 45.1683ZM30.7307 41.7822H39.2774C41.1116 41.7822 42.5985 40.2791 42.5985 38.425C42.5985 36.5709 41.1116 35.0679 39.2774 35.0679L37.4476 35.0678L37.3493 33.8327C37.0983 30.6777 34.4826 28.2263 31.3306 28.2263C28.8128 28.2263 26.5863 29.7984 25.6948 32.1332L25.3667 32.9926L24.0177 32.9926C21.6165 32.9926 19.67 34.9602 19.67 37.3874C19.67 39.8146 21.6165 41.7822 24.0177 41.7822H30.5113C30.5408 41.7822 30.5697 41.7819 30.5979 41.7813L30.6264 41.7807L30.6928 41.782L30.7307 41.7822ZM26.6498 59.0166L26.6643 58.9915C26.6853 58.9552 26.7068 58.9192 26.7287 58.8835C26.7355 58.8724 26.7423 58.8614 26.7491 58.8505C26.7552 58.8407 26.7613 58.8309 26.7675 58.8211C26.7751 58.8092 26.7826 58.7974 26.7902 58.7856C26.8555 58.6843 26.9242 58.5855 26.9962 58.4894C27.0315 58.4422 27.0676 58.3956 27.1045 58.3498C27.1641 58.2757 27.2256 58.2033 27.2891 58.1328C27.2949 58.1263 27.3007 58.1198 27.3066 58.1134C27.3183 58.1005 27.3301 58.0876 27.342 58.0748C27.3483 58.068 27.3546 58.0613 27.3609 58.0546C27.373 58.0416 27.3853 58.0287 27.3976 58.0158C27.5063 57.9023 27.62 57.7939 27.7385 57.6909C27.7917 57.6447 27.846 57.5994 27.9012 57.5554C27.9085 57.5496 27.9158 57.5437 27.9233 57.5378C27.9364 57.5275 27.9496 57.5172 27.9628 57.507C27.9745 57.4978 27.9864 57.4887 27.9983 57.4797C28.0061 57.4738 28.014 57.4678 28.0219 57.4619C28.0568 57.4357 28.092 57.41 28.1275 57.3847C28.1372 57.3778 28.1469 57.371 28.1566 57.3642C28.1906 57.3403 28.225 57.3168 28.2597 57.2938C28.2748 57.2837 28.29 57.2738 28.3052 57.2639C28.3482 57.236 28.3915 57.2087 28.4353 57.1821C28.4451 57.1762 28.4548 57.1703 28.4646 57.1645C28.5008 57.1429 28.5372 57.1217 28.5738 57.101C28.5838 57.0954 28.5938 57.0898 28.6039 57.0842C28.6164 57.0772 28.6289 57.0704 28.6414 57.0636C28.6807 57.0422 28.7204 57.0212 28.7605 57.0008C28.7667 56.9976 28.773 56.9944 28.7794 56.9912C28.7947 56.9835 28.81 56.9758 28.8254 56.9683C28.8365 56.9628 28.8476 56.9574 28.8587 56.952C28.8959 56.934 28.9333 56.9165 28.971 56.8995C29.0083 56.8826 29.0458 56.8661 29.0835 56.8501C29.1271 56.8317 29.171 56.8138 29.2152 56.7965C29.2646 56.7772 29.3145 56.7586 29.3647 56.7409C29.3716 56.7384 29.3785 56.736 29.3853 56.7336C29.4279 56.7187 29.4707 56.7044 29.5139 56.6906C29.5238 56.6875 29.5337 56.6843 29.5435 56.6813C29.5574 56.6769 29.5714 56.6726 29.5855 56.6684C29.5982 56.6645 29.6108 56.6607 29.6234 56.657C29.6386 56.6526 29.6538 56.6482 29.6691 56.6438C29.6761 56.6418 29.6831 56.6399 29.6901 56.6379C29.7033 56.6342 29.7166 56.6306 29.7299 56.627L29.7492 56.6221L29.7492 44.468L24.0177 44.4679C22.8484 44.4679 21.7461 44.1783 20.7771 43.6662L14.1776 47.5178C14.1908 47.5661 14.2034 47.6146 14.2151 47.6631C14.2255 47.706 14.2354 47.7489 14.2447 47.792C14.2534 47.8322 14.2615 47.8724 14.2692 47.9126C14.2721 47.928 14.275 47.9432 14.2778 47.9585C14.2805 47.9738 14.2832 47.9891 14.2859 48.0045C14.3049 48.1148 14.3202 48.2254 14.3319 48.3361C14.334 48.3563 14.336 48.3765 14.3379 48.3967C14.3414 48.4338 14.3445 48.4708 14.3471 48.5078C14.348 48.5204 14.3489 48.533 14.3497 48.5456C14.3508 48.5627 14.3518 48.5798 14.3528 48.5969C14.3534 48.6087 14.354 48.6204 14.3546 48.6321C14.3569 48.6804 14.3585 48.7287 14.3595 48.777C14.3597 48.7912 14.36 48.8053 14.3601 48.8194C14.3602 48.8302 14.3603 48.841 14.3604 48.8518L14.3601 48.8194C14.3609 48.8852 14.3604 48.9509 14.3586 49.0165C14.3575 49.0578 14.3559 49.0991 14.3539 49.1403C14.3532 49.1527 14.3526 49.1649 14.3519 49.1772C14.3512 49.1895 14.3504 49.2018 14.3496 49.2142C14.3431 49.3149 14.3336 49.4152 14.3213 49.5152C14.3177 49.544 14.3139 49.5728 14.3099 49.6015C14.3076 49.6179 14.3052 49.6344 14.3027 49.6508L14.3099 49.6015C14.2982 49.6848 14.2845 49.7677 14.2688 49.8502C14.267 49.8596 14.2652 49.869 14.2633 49.8784C14.2483 49.9551 14.2315 50.0314 14.2131 50.1073C14.2002 50.1604 14.1864 50.2134 14.1718 50.2661C14.169 50.2762 14.1662 50.2862 14.1634 50.2962C14.1614 50.3033 14.1593 50.3105 14.1572 50.3177L14.1634 50.2962C14.1474 50.3527 14.1304 50.4089 14.1125 50.4649C14.11 50.4727 14.1074 50.4805 14.1049 50.4883C14.0994 50.5053 14.0937 50.5223 14.088 50.5393C14.0856 50.5465 14.0832 50.5537 14.0807 50.5608C14.0648 50.6075 14.0481 50.6539 14.0309 50.7C14.0002 50.782 13.9675 50.8631 13.9328 50.9433C13.9075 51.0016 13.8812 51.0596 13.8538 51.117C13.8471 51.1309 13.8404 51.1448 13.8336 51.1588C13.8281 51.1699 13.8227 51.181 13.8172 51.192C13.8102 51.206 13.8031 51.2202 13.7959 51.2343C13.7914 51.2431 13.7869 51.2519 13.7824 51.2606C13.7746 51.2757 13.7668 51.2907 13.7589 51.3057C13.7338 51.353 13.708 51.4002 13.6813 51.4469L13.6808 51.4479L26.6498 59.0166ZM35.4365 59.0166L48.4056 51.4479C48.3844 51.4107 48.3637 51.3733 48.3435 51.3357C48.3381 51.3256 48.3327 51.3156 48.3274 51.3056C48.3196 51.2907 48.3117 51.2757 48.304 51.2607C48.2994 51.2519 48.2949 51.2431 48.2904 51.2343C48.2823 51.2183 48.2743 51.2024 48.2663 51.1863C48.2623 51.1783 48.2583 51.1701 48.2543 51.1619C48.2465 51.1459 48.2387 51.1299 48.2311 51.1138C48.2252 51.1015 48.2194 51.0891 48.2136 51.0767C48.2112 51.0717 48.2089 51.0667 48.2066 51.0617L48.2136 51.0767C48.2024 51.0529 48.1915 51.029 48.1808 51.0051C48.163 50.9655 48.1457 50.9256 48.1289 50.8855L48.127 50.8809C48.083 50.7755 48.0426 50.6688 48.0056 50.5608C48.0032 50.5537 48.0008 50.5465 47.9983 50.5393C47.9926 50.5223 47.987 50.5053 47.9815 50.4883C47.9789 50.4805 47.9764 50.4727 47.9739 50.4649C47.9688 50.4489 47.9637 50.433 47.9588 50.417C47.9464 50.3768 47.9344 50.3365 47.9229 50.296C47.9201 50.2862 47.9173 50.2762 47.9146 50.2662C47.9 50.2134 47.8862 50.1604 47.8733 50.1073C47.8615 50.059 47.8505 50.0106 47.8401 49.962C47.8377 49.9507 47.8353 49.9393 47.8329 49.9278C47.8237 49.8828 47.815 49.8378 47.8069 49.7927C47.8005 49.7566 47.7944 49.7205 47.7888 49.6843L47.7868 49.6717C47.7469 49.4136 47.7264 49.152 47.7259 48.8894C47.7259 48.877 47.7259 48.8644 47.726 48.8519C47.726 48.841 47.7261 48.8302 47.7262 48.8193L47.726 48.8519C47.7261 48.8269 47.7264 48.802 47.7269 48.777C47.7273 48.757 47.7278 48.737 47.7284 48.717C47.7288 48.7043 47.7293 48.6916 47.7298 48.6789C47.7304 48.6633 47.731 48.6477 47.7318 48.6321C47.7323 48.622 47.7328 48.6118 47.7333 48.6017C47.7357 48.5575 47.7386 48.5135 47.7421 48.4694C47.7434 48.4531 47.7448 48.4369 47.7462 48.4207C47.7563 48.3079 47.7701 48.195 47.7877 48.0824C47.789 48.074 47.7903 48.0657 47.7917 48.0573C47.7998 48.0067 47.8088 47.956 47.8185 47.9055C47.8203 47.8964 47.822 47.8874 47.8238 47.8783C47.8277 47.8587 47.8317 47.8391 47.8358 47.8195C47.8377 47.8104 47.8397 47.8012 47.8416 47.792C47.8448 47.7776 47.8479 47.7632 47.8512 47.7488C47.8548 47.7326 47.8585 47.7164 47.8624 47.7002C47.8736 47.6522 47.8856 47.6044 47.8983 47.5568C47.9036 47.5368 47.909 47.5167 47.9146 47.4966C47.9176 47.486 47.9205 47.4755 47.9235 47.465L41.8133 43.8988C41.0434 44.2639 40.184 44.4679 39.2774 44.4679L32.406 44.468L32.406 56.6407C32.431 56.6477 32.456 56.6549 32.4808 56.6623C32.4883 56.6646 32.4958 56.6668 32.5034 56.6691C32.5212 56.6745 32.5389 56.68 32.5566 56.6856C32.5656 56.6884 32.5746 56.6913 32.5836 56.6942C32.5998 56.6994 32.6159 56.7047 32.632 56.7101C32.6414 56.7132 32.6507 56.7163 32.6601 56.7195C32.704 56.7344 32.7477 56.75 32.7911 56.7661C32.7985 56.7688 32.806 56.7716 32.8134 56.7744C32.8279 56.7799 32.8424 56.7854 32.8567 56.7909C32.8954 56.8059 32.9339 56.8213 32.9721 56.8372C33.0296 56.8612 33.0865 56.8861 33.1429 56.912C33.1736 56.9262 33.204 56.9406 33.2343 56.9553C33.2446 56.9603 33.255 56.9653 33.2653 56.9704C33.3284 57.0015 33.3908 57.034 33.4524 57.0676C33.4683 57.0763 33.4841 57.0851 33.4998 57.0939C33.5069 57.0979 33.5141 57.1019 33.5213 57.106C33.5345 57.1135 33.5476 57.121 33.5607 57.1286C33.5743 57.1365 33.5878 57.1444 33.6013 57.1523C33.6107 57.1579 33.6202 57.1636 33.6297 57.1693C33.6458 57.1789 33.6618 57.1887 33.6777 57.1985C33.6826 57.2015 33.6875 57.2045 33.6924 57.2075C33.7113 57.2192 33.7301 57.2311 33.7489 57.2431C33.7555 57.2473 33.7621 57.2516 33.7687 57.2558C33.7806 57.2635 33.7925 57.2713 33.8044 57.2791C33.8163 57.2869 33.8282 57.2948 33.8401 57.3027C33.851 57.3101 33.8619 57.3174 33.8727 57.3248C33.8837 57.3323 33.8948 57.3398 33.9058 57.3474C33.9209 57.3579 33.936 57.3685 33.9511 57.3792C33.9933 57.4091 34.035 57.4396 34.0763 57.4708C34.1071 57.4941 34.1378 57.5178 34.1681 57.5418C34.1784 57.5499 34.1886 57.5581 34.1987 57.5662C34.2736 57.6265 34.3468 57.6888 34.4182 57.7532C34.4267 57.7608 34.4352 57.7686 34.4437 57.7764C34.4597 57.791 34.4755 57.8056 34.4912 57.8203C34.4965 57.8253 34.5019 57.8304 34.5073 57.8354C34.5141 57.8419 34.521 57.8484 34.5278 57.8549C34.5414 57.868 34.555 57.8811 34.5686 57.8943C34.5755 57.9012 34.5824 57.9079 34.5892 57.9147C34.5976 57.9229 34.6059 57.9312 34.6143 57.9396L34.6298 57.9552C34.6342 57.9597 34.6387 57.9642 34.6431 57.9687C34.673 57.9992 34.7026 58.0301 34.7319 58.0614L34.7382 58.0682C34.7621 58.0939 34.7857 58.1197 34.809 58.1458C34.8284 58.1676 34.8477 58.1895 34.8667 58.2116C34.8945 58.2438 34.9219 58.2764 34.9489 58.3093C34.9562 58.3182 34.9635 58.3271 34.9707 58.336C34.9813 58.349 34.9918 58.3622 35.0022 58.3753C35.0279 58.4077 35.0532 58.4404 35.0781 58.4733C35.0858 58.4835 35.0935 58.4938 35.1012 58.5041C35.1078 58.513 35.1143 58.5219 35.1209 58.5308C35.1314 58.5453 35.1419 58.5597 35.1522 58.5741C35.1578 58.5819 35.1634 58.5897 35.169 58.5975C35.1796 58.6126 35.1902 58.6277 35.2007 58.6429C35.2059 58.6503 35.211 58.6577 35.2161 58.6651C35.2254 58.6787 35.2346 58.6923 35.2438 58.706C35.2506 58.7161 35.2573 58.7263 35.2641 58.7364C35.3147 58.8131 35.3634 58.8912 35.4099 58.9706L35.4365 59.0166ZM10.495 50.9982C11.4074 50.4657 11.8461 49.4224 11.6617 48.432C11.6605 48.4248 11.6591 48.4176 11.6577 48.4104L11.6617 48.432C11.6543 48.3921 11.6458 48.3522 11.6363 48.3125C11.5953 48.1407 11.5354 47.972 11.4564 47.8093C11.4527 47.8017 11.4489 47.794 11.445 47.7862L11.4564 47.8093C11.448 47.792 11.4393 47.7747 11.4305 47.7576L11.445 47.7862C11.4341 47.7644 11.4229 47.7427 11.4113 47.7211L11.3791 47.663C11.3462 47.6054 11.3113 47.5495 11.2744 47.4954C11.2689 47.4873 11.2633 47.4793 11.2577 47.4713L11.2744 47.4954C11.2624 47.4779 11.2502 47.4605 11.2378 47.4433L11.2577 47.4713C11.2448 47.4528 11.2316 47.4346 11.2182 47.4165L11.2378 47.4433C11.2235 47.4234 11.2088 47.4038 11.194 47.3844L11.2182 47.4165C11.2067 47.4009 11.195 47.3855 11.1831 47.3703L11.194 47.3844C11.1801 47.3663 11.1659 47.3484 11.1515 47.3307L11.1831 47.3703C11.1697 47.3531 11.1562 47.3362 11.1424 47.3195L11.1515 47.3307C11.1262 47.2996 11.1002 47.2691 11.0735 47.2395C10.3259 46.408 9.08169 46.1845 8.07969 46.7693C6.92445 47.4435 6.52863 48.9368 7.19561 50.1045C7.86259 51.2723 9.3398 51.6724 10.495 50.9982ZM54.8907 50.1045C55.5577 48.9368 55.1619 47.4435 54.0067 46.7693C53.091 46.2349 51.9731 46.3755 51.2167 47.0382C51.2009 47.0519 51.1854 47.0659 51.17 47.08L51.1247 47.1231C51.0997 47.1475 51.0751 47.1724 51.051 47.1979C51.0452 47.2042 51.0394 47.2103 51.0337 47.2166L51.051 47.1979C51.0383 47.2115 51.0257 47.2252 51.0132 47.2391L51.0337 47.2166C51.0198 47.2316 51.0061 47.2469 50.9925 47.2623L51.0132 47.2391C50.9987 47.2552 50.9844 47.2715 50.9703 47.2881L50.9925 47.2623C50.9781 47.2788 50.9639 47.2954 50.9499 47.3123L50.9703 47.2881C50.9563 47.3045 50.9425 47.3212 50.9288 47.338L50.9499 47.3123C50.9067 47.3645 50.8654 47.4187 50.8262 47.4749C50.8216 47.4814 50.8171 47.488 50.8125 47.4946L50.8262 47.4749C50.784 47.5353 50.7443 47.598 50.7072 47.663C50.6961 47.6824 50.6853 47.7019 50.6748 47.7215C50.6708 47.7289 50.6669 47.7364 50.663 47.7439L50.6748 47.7215C50.6632 47.7433 50.6519 47.7652 50.6409 47.7872L50.663 47.7439C50.6521 47.7646 50.6416 47.7854 50.6314 47.8064L50.6409 47.7872C50.6317 47.8055 50.6228 47.824 50.6142 47.8425L50.6314 47.8064C50.6207 47.8283 50.6104 47.8503 50.6004 47.8724L50.6142 47.8425C50.5931 47.8876 50.5734 47.9332 50.5552 47.9792C50.5526 47.9858 50.55 47.9924 50.5474 47.999L50.5552 47.9792C50.52 48.0681 50.4902 48.1585 50.4658 48.2499C50.4628 48.2612 50.4599 48.2725 50.4571 48.2837L50.4658 48.2499C50.4603 48.2706 50.455 48.2914 50.45 48.3122L50.4571 48.2837C50.452 48.3038 50.4472 48.3239 50.4427 48.3441L50.45 48.3122C50.4444 48.3357 50.4391 48.3593 50.4342 48.3829L50.4427 48.3441C50.4379 48.3657 50.4333 48.3873 50.4291 48.409L50.4342 48.3829C50.4303 48.4018 50.4266 48.4208 50.4231 48.4398L50.4291 48.409C50.2334 49.4062 50.6718 50.4616 51.5913 50.9982C52.7465 51.6724 54.2238 51.2723 54.8907 50.1045ZM31.0432 64.0223C32.3771 64.0223 33.4585 62.9292 33.4585 61.5807C33.4585 60.5484 32.8247 59.6658 31.9291 59.3086C31.9225 59.3058 31.9159 59.3032 31.9093 59.3007L31.9291 59.3086C31.9125 59.302 31.8959 59.2956 31.8792 59.2894L31.9093 59.3007C31.8897 59.2931 31.8701 59.2858 31.8503 59.2787L31.8792 59.2894C31.8606 59.2825 31.8418 59.2757 31.8229 59.2692L31.8503 59.2787C31.8305 59.2716 31.8106 59.2648 31.7906 59.2582L31.8229 59.2692C31.8021 59.262 31.7811 59.2551 31.7599 59.2485L31.7906 59.2582C31.7699 59.2514 31.7491 59.2449 31.7281 59.2387L31.7599 59.2485C31.7416 59.2427 31.7232 59.2372 31.7047 59.2319L31.7281 59.2387C31.7081 59.2327 31.688 59.227 31.6677 59.2216L31.7047 59.2319C31.6829 59.2256 31.661 59.2197 31.6389 59.214L31.6677 59.2216C31.6187 59.2083 31.569 59.1967 31.5189 59.1866C31.5083 59.1844 31.4977 59.1823 31.4872 59.1803L31.5189 59.1866C31.4999 59.1827 31.4807 59.1791 31.4615 59.1757L31.4872 59.1803C31.4655 59.1763 31.4437 59.1725 31.4218 59.169L31.4615 59.1757C31.4383 59.1716 31.4151 59.1679 31.3918 59.1645L31.4218 59.169C31.4064 59.1666 31.391 59.1643 31.3756 59.1621L31.3918 59.1645C31.3678 59.161 31.3438 59.1578 31.3196 59.155L31.3756 59.1621C31.3543 59.1592 31.333 59.1565 31.3116 59.1541L31.3196 59.155C31.2993 59.1527 31.279 59.1506 31.2586 59.1488L31.3116 59.1541C31.2886 59.1515 31.2655 59.1493 31.2423 59.1474L31.2586 59.1488C31.2358 59.1467 31.213 59.145 31.1902 59.1436L31.2423 59.1474C31.2203 59.1455 31.1982 59.144 31.176 59.1428L31.1902 59.1436C31.1686 59.1423 31.147 59.1413 31.1254 59.1406L31.176 59.1428C31.132 59.1404 31.0877 59.1392 31.0432 59.1392L30.9775 59.1401C30.972 59.1402 30.9665 59.1404 30.961 59.1406L30.9774 59.1401C30.955 59.1407 30.9327 59.1416 30.9104 59.1428L30.961 59.1406C30.9393 59.1413 30.9177 59.1423 30.8961 59.1436L30.9104 59.1428C30.8882 59.144 30.8661 59.1456 30.8441 59.1474L30.8961 59.1436C30.8733 59.145 30.8505 59.1467 30.8278 59.1488L30.8441 59.1474C30.8209 59.1493 30.7977 59.1515 30.7747 59.1541L30.8278 59.1488C30.8074 59.1506 30.787 59.1527 30.7668 59.155L30.7747 59.1541C30.753 59.1565 30.7314 59.1593 30.7098 59.1623L30.7668 59.155C30.7432 59.1577 30.7198 59.1608 30.6965 59.1641L30.7098 59.1623C30.694 59.1645 30.6782 59.1668 30.6625 59.1694L30.6965 59.1641C30.6724 59.1676 30.6485 59.1715 30.6247 59.1757L30.6625 59.1694C30.6433 59.1724 30.6242 59.1757 30.6052 59.1793L30.6247 59.1757C30.605 59.1792 30.5854 59.1829 30.5659 59.1868L30.6052 59.1793C30.5514 59.1892 30.4981 59.201 30.4455 59.2145C30.4378 59.2165 30.4301 59.2185 30.4223 59.2206L30.4455 59.2145C30.4239 59.22 30.4024 59.2259 30.381 59.232L30.4223 59.2206C30.4024 59.2259 30.3825 59.2316 30.3627 59.2374L30.381 59.232C30.3617 59.2376 30.3425 59.2433 30.3234 59.2493L30.3627 59.2374C30.3408 59.2439 30.3189 59.2507 30.2972 59.2579L30.3234 59.2493C30.3034 59.2557 30.2834 59.2622 30.2635 59.2691L30.2972 59.2579C30.2767 59.2646 30.2563 59.2716 30.236 59.2789L30.2635 59.2691C30.2446 59.2756 30.2258 59.2823 30.2072 59.2892L30.236 59.2789C30.216 59.286 30.196 59.2935 30.1763 59.3012L30.2072 59.2892C30.1911 59.2952 30.1751 59.3014 30.1592 59.3077L30.1763 59.3012C29.2706 59.6533 28.6278 60.5412 28.6278 61.5807C28.6278 62.9292 29.7092 64.0223 31.0432 64.0223Z" fill="#376FFF"/>
<path fill-rule="evenodd" clip-rule="evenodd" d="M152.498 18.73C162.819 18.73 170.225 26.4953 170.225 36.0936V36.19C170.225 45.7883 162.723 53.65 152.403 53.65C142.082 53.65 134.677 45.8846 134.677 36.2865V36.19C134.677 26.5919 142.178 18.73 152.498 18.73ZM87.0697 18.8426C91.9323 18.8426 96.0797 20.3846 99.4645 23.1313L95.6507 28.721C92.695 26.649 89.787 25.3961 86.9744 25.3961C84.1617 25.3961 82.6839 26.6971 82.6839 28.3355V28.4319C82.6839 30.6485 84.114 31.3712 89.8823 32.865C96.6519 34.648 100.466 37.1056 100.466 42.9843V43.0807C100.466 49.7789 95.4124 53.5373 88.2138 53.5373C83.1606 53.5373 78.0597 51.7545 74.0552 48.1404L78.3934 42.8879C81.3967 45.3938 84.5432 46.984 88.3568 46.984C91.3601 46.984 93.1718 45.7792 93.1718 43.8036V43.7072C93.1718 41.828 92.0276 40.8642 86.45 39.4185C79.7282 37.6838 75.39 35.8046 75.39 29.1064V29.01C75.39 22.8904 80.2526 18.8426 87.0697 18.8426ZM231.738 19.2932V41.3831C231.738 49.5824 226.972 53.5373 219.918 53.5373C214.724 53.5373 211.292 51.2222 209.005 48.4731L213.628 43.2641C215.534 45.3863 217.393 46.6404 219.728 46.6404C222.492 46.6404 224.208 44.9522 224.208 41.0454V26.8403L213.239 26.8405V19.2932H231.738ZM131.668 19.2932V26.1485H121.519V53.0869H114.181V26.1485H104.032V19.2932H131.668ZM191.731 19.2932C199.603 19.2932 204.325 23.4932 204.325 30.445V30.5416C204.325 35.9969 201.415 39.4245 197.17 41.0176L205.327 53.0869H196.74L189.584 42.2729H183.812V53.0869H176.465V19.2932H191.731ZM152.403 25.6013C146.476 25.6013 142.366 30.3181 142.366 36.0937V36.19C142.366 41.9656 146.572 46.7787 152.498 46.7787C158.425 46.7787 162.536 42.0618 162.536 36.2862V36.19C162.536 30.4143 158.33 25.6013 152.403 25.6013ZM191.1 26.0519H183.82V35.7394H191.243C194.812 35.7394 196.858 33.8115 196.858 30.9681V30.8717C196.858 27.6906 194.669 26.0519 191.1 26.0519Z" fill="#091C45"/>
</svg>
