<svg width="37" height="40" viewBox="0 0 37 40" fill="none" xmlns="http://www.w3.org/2000/svg">
    <path d="M18.1816 38.1953C16.6543 38.1953 15.4114 36.8563 15.3702 35.1873L7.45651 30.1617C7.04497 30.4068 6.601 30.5275 6.16136 30.5344L6.11787 30.5347C5.14701 30.5335 4.20316 29.9788 3.68281 28.9874C2.91921 27.5325 3.35195 25.679 4.64527 24.8052L4.64527 14.7536C3.35195 13.8798 2.91921 12.0263 3.68281 10.5714C4.19539 9.59485 5.11893 9.04197 6.07442 9.02451L6.11787 9.02409C6.57168 9.02351 7.03139 9.14388 7.45651 9.39713L15.3702 4.37144C15.4111 2.71946 16.6292 1.39076 18.1351 1.36391L18.1816 1.36349C19.7088 1.36349 20.9517 2.70247 20.993 4.37141L28.9064 9.39726C29.318 9.15201 29.7621 9.03134 30.2018 9.0244L30.2453 9.02409C31.2162 9.02531 32.16 9.58006 32.6804 10.5714C33.444 12.0263 33.0112 13.8798 31.7179 14.7536L31.7179 24.8052C33.0112 25.679 33.444 27.5325 32.6804 28.9874C32.1678 29.964 31.2442 30.5168 30.2887 30.5343L30.2453 30.5347C29.7915 30.5353 29.3318 30.4149 28.9067 30.1617L20.993 35.1874C20.9521 36.8393 19.7339 38.168 18.2281 38.1949L18.1816 38.1953ZM18.1816 5.93037L18.218 5.92984C18.221 5.92975 18.2241 5.92965 18.2271 5.92954L18.218 5.92984C18.2302 5.92948 18.2423 5.92894 18.2544 5.92823L18.2271 5.92954C18.2404 5.92905 18.2537 5.92835 18.2668 5.92744L18.2544 5.92823C18.2667 5.9275 18.279 5.92659 18.2913 5.92549L18.2668 5.92744C18.2789 5.92661 18.2909 5.92559 18.3029 5.92441L18.2913 5.92549C18.3022 5.92452 18.313 5.9234 18.3238 5.92215L18.3029 5.92441C18.3161 5.92311 18.3293 5.92159 18.3424 5.91986L18.3238 5.92215C18.336 5.92073 18.3482 5.91913 18.3604 5.91735L18.3424 5.91986C18.3535 5.9184 18.3646 5.91679 18.3756 5.91503L18.3604 5.91735C18.3741 5.91533 18.3877 5.91309 18.4013 5.91063L18.3756 5.91503C18.3868 5.91325 18.3979 5.91132 18.4089 5.90924L18.4013 5.91063C18.4129 5.90852 18.4244 5.90626 18.4359 5.90384L18.4089 5.90924C18.4211 5.90694 18.4333 5.90446 18.4453 5.90181L18.4359 5.90384C18.4507 5.90071 18.4654 5.89732 18.48 5.89367L18.4453 5.90181C18.4732 5.89569 18.5007 5.88863 18.5279 5.88064C18.5348 5.87866 18.5416 5.87659 18.5484 5.87446L18.5279 5.88064C18.5391 5.87735 18.5503 5.87389 18.5614 5.87029L18.5484 5.87446C18.5584 5.87135 18.5683 5.86811 18.5782 5.86475L18.5614 5.87029C19.1161 5.69017 19.5208 5.12568 19.5208 4.45719C19.5208 3.64357 18.9212 2.984 18.1816 2.984C17.4419 2.984 16.8423 3.64357 16.8423 4.45719C16.8423 5.1184 17.2383 5.67787 17.7837 5.86427C17.7905 5.86664 17.7974 5.86892 17.8043 5.87114L17.7837 5.86427C17.7939 5.86776 17.8041 5.87111 17.8144 5.87433L17.8043 5.87114C17.8152 5.87466 17.8262 5.87804 17.8373 5.88126L17.8144 5.87433C17.8263 5.87804 17.8382 5.88158 17.8502 5.88494L17.8373 5.88126C17.8636 5.88892 17.8902 5.89571 17.917 5.90162C17.9212 5.90256 17.9255 5.90348 17.9298 5.90437L17.917 5.90162C17.9294 5.90437 17.942 5.90691 17.9545 5.90928L17.9298 5.90437C17.9401 5.90653 17.9504 5.90856 17.9608 5.91045L17.9545 5.90928C17.9657 5.91138 17.977 5.91333 17.9883 5.91513L17.9608 5.91045C17.9746 5.91297 17.9885 5.91526 18.0024 5.9173L17.9883 5.91513C17.9991 5.91684 18.0099 5.91842 18.0207 5.91985L18.0024 5.9173C18.0147 5.91911 18.027 5.92073 18.0394 5.92217L18.0207 5.91985C18.0339 5.92157 18.047 5.92309 18.0602 5.9244L18.0394 5.92217C18.0502 5.92342 18.061 5.92453 18.0719 5.9255L18.0602 5.9244C18.0722 5.92559 18.0843 5.9266 18.0963 5.92743L18.0719 5.9255C18.0841 5.92659 18.0964 5.92751 18.1087 5.92823L18.0963 5.92743C18.1095 5.92834 18.1227 5.92905 18.136 5.92953L18.1087 5.92823C18.1329 5.92966 18.1571 5.93037 18.1816 5.93037ZM22.5352 16.041L27.5174 12.8769C27.5138 12.8615 27.5104 12.8461 27.5071 12.8306C27.506 12.8259 27.505 12.8211 27.504 12.8162C27.5017 12.8056 27.4996 12.7951 27.4975 12.7845C27.4959 12.7768 27.4944 12.7691 27.4929 12.7613C27.4911 12.7522 27.4894 12.7432 27.4878 12.7341C27.486 12.7245 27.4843 12.715 27.4826 12.7054C27.4778 12.678 27.4733 12.6505 27.4691 12.6229C27.4681 12.6159 27.4671 12.6089 27.4661 12.6019C27.4564 12.5346 27.4488 12.4672 27.4432 12.3997C27.4426 12.3921 27.442 12.3846 27.4414 12.377C27.4393 12.3485 27.4375 12.3199 27.436 12.2914C27.4359 12.2889 27.4358 12.2865 27.4357 12.2841L27.436 12.2914C27.4353 12.2767 27.4347 12.2619 27.4341 12.2472C27.4338 12.2383 27.4335 12.2294 27.4332 12.2205C27.4329 12.2107 27.4327 12.2009 27.4325 12.1911C27.4323 12.1837 27.4322 12.1762 27.4321 12.1687C27.432 12.1613 27.4319 12.1539 27.4319 12.1465C27.4318 12.1397 27.4318 12.1329 27.4318 12.1262L27.4319 12.1465C27.4306 11.9817 27.4414 11.8175 27.4638 11.6555C27.4675 11.6286 27.4715 11.6017 27.4759 11.5749C27.4778 11.5632 27.4798 11.5515 27.4818 11.5399C27.4861 11.5151 27.4907 11.4904 27.4955 11.4658C27.4972 11.4569 27.499 11.4481 27.5008 11.4392C27.5021 11.4328 27.5035 11.4264 27.5048 11.4201C27.5061 11.4141 27.5073 11.4081 27.5086 11.4021C27.5111 11.3907 27.5136 11.3794 27.5162 11.3681C27.5239 11.3343 27.5321 11.3007 27.5408 11.2672C27.547 11.2432 27.5535 11.2192 27.5603 11.1953C27.5626 11.1872 27.5649 11.1792 27.5673 11.1711C27.5692 11.1645 27.5712 11.1579 27.5731 11.1513C27.5754 11.1436 27.5777 11.136 27.5801 11.1283C27.5833 11.1179 27.5865 11.1075 27.5898 11.0971C27.5914 11.092 27.5931 11.087 27.5947 11.0819C27.598 11.0717 27.6013 11.0616 27.6047 11.0516C27.6054 11.0495 27.6061 11.0473 27.6068 11.0451C27.6112 11.0321 27.6156 11.0192 27.6201 11.0063C27.6307 10.9761 27.6417 10.946 27.6531 10.9161C27.6622 10.8923 27.6716 10.8685 27.6813 10.8449C27.6846 10.8369 27.6879 10.8289 27.6913 10.8209C27.6934 10.8158 27.6956 10.8107 27.6977 10.8056C27.7023 10.7948 27.707 10.784 27.7117 10.7733C27.7149 10.7658 27.7182 10.7583 27.7216 10.7509C27.7246 10.7441 27.7276 10.7373 27.7307 10.7306C27.7348 10.7217 27.7388 10.7129 27.7429 10.7041C27.7454 10.6987 27.748 10.6932 27.7506 10.6877C27.7549 10.6786 27.7592 10.6696 27.7636 10.6606C27.766 10.6556 27.7685 10.6505 27.771 10.6455C27.7832 10.6206 27.7957 10.5958 27.8086 10.5712L20.6177 6.00428C20.6162 6.00698 20.6148 6.00969 20.6134 6.01239C20.6001 6.03747 20.5865 6.06229 20.5726 6.08687C20.5703 6.09105 20.5679 6.09523 20.5655 6.0994C20.5602 6.10865 20.5549 6.1179 20.5495 6.12712C20.546 6.13311 20.5425 6.13903 20.539 6.14492C20.5347 6.15228 20.5302 6.15969 20.5258 6.16708C20.5217 6.1738 20.5177 6.18045 20.5136 6.18708C20.5109 6.19142 20.5082 6.19577 20.5056 6.20011C20.462 6.27027 20.4159 6.33832 20.3674 6.40415C20.3532 6.42335 20.3388 6.4424 20.3242 6.46125C20.3107 6.47876 20.297 6.49611 20.2831 6.51329C20.2765 6.52145 20.2698 6.52956 20.2632 6.53762C20.2594 6.54211 20.2557 6.54662 20.2519 6.55111C20.2481 6.55573 20.2442 6.56032 20.2404 6.56489C20.2243 6.58387 20.208 6.60264 20.1915 6.62119C20.1397 6.67941 20.0857 6.73544 20.0299 6.78907L20.0249 6.79386C20.0069 6.81105 19.9887 6.828 19.9703 6.84469C19.9673 6.84739 19.9644 6.85005 19.9614 6.8527C19.9546 6.85887 19.9476 6.86506 19.9407 6.87121C19.9344 6.87674 19.9281 6.88224 19.9218 6.8877C19.9184 6.8907 19.9149 6.89369 19.9114 6.89666C19.8887 6.91617 19.8658 6.93529 19.8425 6.95403C19.8411 6.95519 19.8397 6.95627 19.8384 6.95735C19.8314 6.96299 19.8243 6.96863 19.8172 6.97425C19.8002 6.98761 19.7831 7.00074 19.7659 7.01368L19.7587 7.01905C19.7104 7.05508 19.6611 7.08949 19.6108 7.12223C19.6059 7.12542 19.6009 7.1286 19.596 7.13175C19.5756 7.14487 19.5549 7.15773 19.5341 7.1703C19.5257 7.17537 19.5174 7.18037 19.509 7.18532C19.504 7.18824 19.4991 7.19114 19.4941 7.19403C19.4884 7.19736 19.4826 7.20067 19.4769 7.20397C19.467 7.20959 19.4572 7.21514 19.4473 7.22063C19.4433 7.22284 19.4393 7.22506 19.4353 7.22727C19.4125 7.23975 19.3897 7.25187 19.3666 7.26365C19.3614 7.26636 19.356 7.26907 19.3507 7.27176C19.327 7.28366 19.3033 7.29517 19.2794 7.30634C19.2558 7.31734 19.2321 7.32801 19.2081 7.33833C19.1862 7.34778 19.1641 7.35696 19.1419 7.36583C19.1366 7.36795 19.1313 7.37005 19.126 7.37213C19.1157 7.37616 19.1054 7.38015 19.095 7.38408C19.0924 7.38505 19.0899 7.386 19.0874 7.38694C19.076 7.39119 19.0645 7.39539 19.053 7.39951C19.0487 7.40106 19.0444 7.4026 19.04 7.40412C19.0285 7.40819 19.0169 7.41219 19.0052 7.4161C19.0026 7.417 18.9999 7.41788 18.9973 7.41875C18.9877 7.42196 18.978 7.42511 18.9683 7.42822C18.96 7.43087 18.9517 7.43348 18.9434 7.43605C18.9413 7.4367 18.9392 7.43734 18.9371 7.43798L18.9372 13.3959C20.4759 13.6052 21.7973 14.6137 22.5352 16.041ZM14.0841 16.1666C14.7726 14.7444 16.0175 13.737 17.464 13.4436L17.464 7.44928C17.4478 7.44459 17.4317 7.43975 17.4156 7.43475C17.4085 7.43254 17.4014 7.4303 17.3943 7.42804C17.34 7.41066 17.2864 7.39152 17.2334 7.37067C17.2287 7.36882 17.224 7.36696 17.2194 7.36508C17.209 7.36093 17.1987 7.35672 17.1884 7.35245C17.1848 7.35095 17.1811 7.34942 17.1775 7.34789C17.1677 7.34377 17.1579 7.33959 17.1482 7.33536C17.1432 7.33319 17.1382 7.33101 17.1332 7.32881C17.1221 7.32388 17.111 7.31888 17.0999 7.3138C17.0968 7.31238 17.0937 7.31095 17.0906 7.30951C17.0659 7.29807 17.0415 7.28628 17.0172 7.27412C17.0106 7.2708 17.004 7.26747 16.9974 7.26411C16.9779 7.25414 16.9585 7.24391 16.9392 7.23344C16.9272 7.22694 16.9153 7.22035 16.9034 7.21368C16.8964 7.20971 16.8893 7.20569 16.8822 7.20162C16.8792 7.19991 16.8763 7.19822 16.8734 7.19653C16.8622 7.19006 16.851 7.1835 16.8399 7.17685C16.836 7.17447 16.832 7.17207 16.828 7.16965C16.8212 7.16554 16.8144 7.1614 16.8077 7.15724C16.7862 7.144 16.7649 7.13046 16.7438 7.11664C16.7392 7.11363 16.7347 7.11063 16.7302 7.10762C16.7214 7.1018 16.7127 7.09591 16.7039 7.08998C16.6985 7.08628 16.6931 7.08256 16.6876 7.07882C16.6823 7.0751 16.6769 7.07133 16.6715 7.06755C16.6652 7.06317 16.659 7.05881 16.6529 7.05441C16.6331 7.0403 16.6135 7.02589 16.594 7.01122C16.5872 7.00607 16.5804 7.00089 16.5736 6.99568C16.5388 6.96897 16.5046 6.94144 16.471 6.91309C16.4645 6.90762 16.4581 6.9021 16.4516 6.89654L16.4464 6.89204C16.4191 6.86849 16.3922 6.84439 16.3658 6.81977C16.3592 6.81368 16.3527 6.80759 16.3463 6.80146C16.3396 6.79507 16.3329 6.78865 16.3262 6.78221C16.3216 6.7778 16.317 6.77334 16.3125 6.76887C16.3087 6.76521 16.3051 6.76159 16.3014 6.75796C16.2484 6.7055 16.1971 6.65083 16.1479 6.59411C16.1434 6.58893 16.1389 6.5837 16.1344 6.57845C16.1141 6.55476 16.0941 6.53073 16.0745 6.50636L16.0733 6.50482C16.0388 6.46188 16.0054 6.41788 15.9731 6.37287C15.9682 6.36612 15.9634 6.35933 15.9586 6.35252C15.9541 6.3462 15.9497 6.33987 15.9453 6.33353C15.9406 6.32687 15.936 6.32017 15.9314 6.31345C15.9281 6.30845 15.9247 6.30349 15.9213 6.29852C15.9153 6.28965 15.9093 6.28068 15.9034 6.27167C15.8998 6.26616 15.8962 6.26067 15.8926 6.25516C15.8879 6.24801 15.8833 6.24086 15.8788 6.23368C15.8748 6.2275 15.8709 6.22125 15.8669 6.21499C15.8617 6.20676 15.8566 6.19855 15.8515 6.19031C15.848 6.18455 15.8445 6.17875 15.841 6.17295C15.8108 6.12334 15.782 6.07273 15.7545 6.02116L15.7456 6.00428L8.55452 10.5712C8.56971 10.6002 8.58417 10.6289 8.59821 10.6578C8.60304 10.6677 8.60781 10.6777 8.61254 10.6877C8.61608 10.6952 8.61959 10.7026 8.62306 10.7101C8.62511 10.7146 8.62714 10.719 8.62917 10.7234C8.64163 10.7506 8.65374 10.778 8.66546 10.8056C8.66763 10.8107 8.66978 10.8158 8.67191 10.8209C8.67604 10.8308 8.68012 10.8406 8.68416 10.8505C8.68605 10.8552 8.68793 10.8598 8.68979 10.8645C8.69393 10.8748 8.69802 10.8851 8.70205 10.8954C8.71895 10.9387 8.73492 10.9823 8.74998 11.0263C8.7644 11.0684 8.77799 11.1109 8.79074 11.1537C8.79231 11.1589 8.79388 11.1643 8.79544 11.1696C8.81441 11.2345 8.83143 11.2999 8.84648 11.3659C8.84819 11.3734 8.84988 11.381 8.85155 11.3885C8.85721 11.4141 8.86258 11.4399 8.86765 11.4657C8.86889 11.472 8.8701 11.4782 8.87128 11.4845C8.87358 11.4965 8.87581 11.5085 8.87798 11.5206C8.87898 11.5262 8.87996 11.5318 8.88094 11.5374C8.8887 11.5819 8.89557 11.6267 8.90156 11.6716C8.90369 11.6876 8.9057 11.7036 8.90761 11.7196C8.91015 11.7409 8.91248 11.7623 8.91462 11.7838C8.91909 11.8287 8.92268 11.8738 8.92537 11.9189C8.9259 11.9279 8.9264 11.9368 8.92686 11.9457C8.92721 11.9526 8.92755 11.9595 8.92787 11.9664C8.92919 11.9956 8.93014 12.0247 8.93072 12.0538C8.93133 12.0847 8.93152 12.1157 8.93129 12.1466C8.93124 12.1539 8.93116 12.1614 8.93105 12.1688C8.93097 12.1744 8.93089 12.1798 8.93078 12.1853C8.93023 12.2149 8.92928 12.2446 8.92793 12.2743C8.92746 12.2848 8.92693 12.2953 8.92636 12.3059C8.92597 12.3131 8.92555 12.3203 8.92511 12.3275C8.92476 12.3334 8.92439 12.3392 8.924 12.345C8.92175 12.3791 8.91897 12.4132 8.91568 12.4473C8.91563 12.4478 8.91558 12.4483 8.91552 12.4489L8.91568 12.4473C8.90889 12.5175 8.89989 12.5876 8.88864 12.6575C8.88755 12.6643 8.88644 12.6711 8.8853 12.6779C8.88386 12.6865 8.88239 12.6951 8.88088 12.7037C8.87638 12.7294 8.87158 12.755 8.86648 12.7806C8.86223 12.8019 8.85776 12.8232 8.85308 12.8445L14.0841 16.1666ZM30.9143 13.3941C31.5549 12.9873 31.7744 12.0863 31.4045 11.3817C31.0347 10.6771 30.2156 10.4357 29.5751 10.8425C29.0701 11.1631 28.8269 11.7909 28.9276 12.3874C28.9285 12.3932 28.9295 12.3991 28.9306 12.4049L28.9276 12.3874C28.9295 12.3985 28.9315 12.4095 28.9336 12.4205L28.9306 12.4049C28.9332 12.4191 28.9359 12.4332 28.9389 12.4473L28.9336 12.4205C28.9364 12.4354 28.9394 12.4503 28.9427 12.4651L28.9389 12.4473C28.9413 12.4589 28.9439 12.4706 28.9466 12.4822L28.9427 12.4651C28.9455 12.4777 28.9484 12.4903 28.9515 12.5029L28.9466 12.4822C28.9498 12.4959 28.9531 12.5097 28.9567 12.5234L28.9515 12.5029C28.9544 12.5147 28.9575 12.5264 28.9606 12.5381L28.9567 12.5234C28.968 12.5667 28.9812 12.6097 28.9963 12.6521C28.9984 12.658 29.0005 12.664 29.0027 12.67L28.9963 12.6521C29.001 12.6655 29.006 12.6789 29.0111 12.6922L29.0027 12.67C29.0072 12.6822 29.0119 12.6944 29.0167 12.7065L29.0111 12.6922C29.0154 12.7034 29.0199 12.7145 29.0244 12.7256L29.0167 12.7065C29.0224 12.7209 29.0283 12.7352 29.0345 12.7495L29.0244 12.7256C29.0294 12.7376 29.0344 12.7494 29.0397 12.7613L29.0345 12.7495C29.0396 12.7613 29.0448 12.773 29.0502 12.7846L29.0397 12.7613C29.046 12.7757 29.0526 12.79 29.0594 12.8042L29.0502 12.7846C29.058 12.8014 29.066 12.818 29.0744 12.8346L29.0849 12.8549C29.1032 12.8898 29.1227 12.9237 29.1433 12.9565C29.1462 12.9612 29.1491 12.9658 29.1521 12.9704L29.1433 12.9565C29.1576 12.9794 29.1725 13.0017 29.1879 13.0235C29.1906 13.0273 29.1933 13.0311 29.196 13.0348L29.1879 13.0235C29.1941 13.0324 29.2005 13.0411 29.2069 13.0498L29.196 13.0348C29.2046 13.0469 29.2134 13.0587 29.2224 13.0704L29.2069 13.0498C29.2142 13.0597 29.2216 13.0694 29.2291 13.079L29.2224 13.0704C29.2291 13.0792 29.2359 13.0878 29.2428 13.0964L29.2291 13.079C29.247 13.102 29.2655 13.1243 29.2846 13.1459C29.2984 13.1615 29.3125 13.1767 29.3268 13.1916C29.34 13.2053 29.3535 13.2188 29.3673 13.2319C29.3747 13.2389 29.3821 13.2458 29.3896 13.2526L29.3673 13.2319C29.3761 13.2403 29.385 13.2486 29.394 13.2568L29.3896 13.2526C29.8085 13.6346 30.4155 13.7109 30.9143 13.3941ZM7.04684 13.1806L7.05763 13.1691C7.0713 13.1543 7.0847 13.1391 7.09782 13.1236C7.09966 13.1215 7.10143 13.1194 7.10319 13.1173L7.09782 13.1236C7.10606 13.1139 7.11418 13.104 7.12219 13.094L7.10319 13.1173C7.11193 13.1068 7.12056 13.0962 7.12906 13.0854L7.12219 13.094C7.13052 13.0837 7.13872 13.0731 7.1468 13.0624L7.12906 13.0854C7.13633 13.0762 7.14351 13.0669 7.15059 13.0574L7.1468 13.0624C7.15363 13.0534 7.16037 13.0443 7.16703 13.0351L7.15059 13.0574C7.15994 13.045 7.16912 13.0323 7.17814 13.0194L7.16703 13.0351C7.17459 13.0246 7.18203 13.0139 7.18935 13.0032L7.17814 13.0194C7.18492 13.0098 7.1916 13 7.19818 12.9901L7.18935 13.0032C7.19646 12.9928 7.20345 12.9822 7.21032 12.9715L7.19818 12.9901C7.20565 12.9789 7.213 12.9675 7.22021 12.956L7.21032 12.9715C7.23444 12.9341 7.25714 12.8952 7.2783 12.8549C7.28184 12.8482 7.28532 12.8414 7.28875 12.8346L7.2783 12.8549C7.29404 12.8249 7.30871 12.7946 7.32233 12.7639C7.32566 12.7564 7.32893 12.7489 7.33214 12.7413L7.32233 12.7639C7.3262 12.7552 7.32998 12.7465 7.33368 12.7377L7.33214 12.7413C7.3374 12.729 7.34249 12.7166 7.34742 12.7041C7.34887 12.7004 7.35031 12.6968 7.35174 12.6931L7.34742 12.7041C7.36898 12.6495 7.38737 12.594 7.40262 12.5378C7.40356 12.5343 7.40448 12.5308 7.4054 12.5273L7.40262 12.5378C7.40606 12.525 7.40935 12.5123 7.41247 12.4995L7.4054 12.5273C7.40898 12.5137 7.41238 12.5001 7.41559 12.4864L7.41247 12.4995C7.41544 12.4874 7.41827 12.4752 7.42094 12.463L7.41559 12.4864C7.42204 12.459 7.42773 12.4315 7.43269 12.4039C7.43344 12.4001 7.43411 12.3963 7.43477 12.3925L7.43269 12.4039C7.54076 11.8025 7.29767 11.1661 6.7881 10.8425C6.14754 10.4357 5.32846 10.6771 4.95863 11.3817C4.58881 12.0863 4.80828 12.9873 5.44884 13.3941C5.97755 13.7299 6.62789 13.624 7.04684 13.1806ZM8.07939 25.2217L11.2698 23.1954C10.7273 22.4608 10.4022 21.524 10.4022 20.5038C10.4022 18.9684 11.1385 17.6223 12.2439 16.8692L8.14416 14.2655C8.12754 14.2845 8.11073 14.3032 8.09373 14.3216C8.06433 14.3536 8.03438 14.3847 8.00389 14.415C7.88018 14.5379 7.7477 14.6474 7.60835 14.743C7.55408 14.7802 7.49877 14.8152 7.44254 14.8482L7.44081 14.8492C7.41526 14.8641 7.38952 14.8786 7.3636 14.8926C7.32632 14.9128 7.2887 14.9321 7.25074 14.9504C7.23798 14.9566 7.2252 14.9626 7.21238 14.9686C7.18333 14.982 7.15405 14.995 7.1246 15.0074C7.10568 15.0153 7.08676 15.023 7.06777 15.0305C7.03219 15.0445 6.99636 15.0577 6.9603 15.0702C6.9383 15.0778 6.91623 15.085 6.89409 15.092C6.85515 15.1043 6.81595 15.1157 6.77655 15.1261C6.75313 15.1323 6.7296 15.1382 6.70601 15.1438C6.68343 15.1491 6.66077 15.1541 6.63805 15.1588C6.63345 15.1597 6.6289 15.1607 6.62436 15.1616C6.60722 15.1651 6.59 15.1683 6.57276 15.1715C6.54994 15.1756 6.52713 15.1794 6.50428 15.1829C6.50183 15.1833 6.49941 15.1836 6.497 15.184C6.49226 15.1847 6.48746 15.1854 6.48265 15.1861C6.45593 15.19 6.42918 15.1934 6.40239 15.1964C6.3765 15.1993 6.35065 15.2018 6.32475 15.204C6.31872 15.2045 6.3127 15.2049 6.30667 15.2054C6.28038 15.2073 6.25404 15.2089 6.22767 15.2101C6.22231 15.2103 6.21697 15.2105 6.21162 15.2107C6.19526 15.2113 6.1789 15.2118 6.16252 15.2121L6.11906 15.2125L6.11846 15.2125L6.11846 24.3463H6.11906C6.20603 24.3464 6.29278 24.351 6.37903 24.3599C6.39444 24.3615 6.40982 24.3632 6.42518 24.3651C6.46034 24.3693 6.49545 24.3743 6.53044 24.3801C6.55487 24.3841 6.57923 24.3884 6.60353 24.3931C6.63604 24.3994 6.66842 24.4063 6.70068 24.4138C6.72658 24.4198 6.75234 24.4263 6.77802 24.4331L6.82448 24.4459C6.9114 24.4707 6.99724 24.5 7.08168 24.5338C7.10125 24.5417 7.12067 24.5497 7.14001 24.558C7.18033 24.5753 7.21997 24.5934 7.25924 24.6125C7.26594 24.6158 7.2727 24.6191 7.27944 24.6224C7.29562 24.6305 7.31166 24.6387 7.32764 24.647C7.35794 24.6629 7.38801 24.6793 7.41783 24.6963C7.50106 24.7439 7.5823 24.7962 7.66119 24.853C7.68112 24.8673 7.70089 24.882 7.72051 24.8969C7.72852 24.903 7.73652 24.9092 7.7445 24.9154C7.76928 24.9346 7.79378 24.9544 7.818 24.9746C7.90912 25.0505 7.99645 25.1329 8.07939 25.2217ZM28.3058 25.1987L28.3208 25.1828C28.3694 25.1326 28.4195 25.0845 28.471 25.0386C28.5618 24.9574 28.6568 24.883 28.7551 24.8156L28.7566 24.8146C28.7781 24.7999 28.7997 24.7856 28.8215 24.7716C28.8266 24.7683 28.8317 24.765 28.8369 24.7617L28.8215 24.7716C28.8635 24.7445 28.9061 24.7187 28.9493 24.6941C29.0109 24.659 29.0735 24.6265 29.1371 24.5966C29.2324 24.5518 29.3299 24.5128 29.429 24.4798C29.4358 24.4775 29.4426 24.4753 29.4494 24.4731C29.4715 24.4659 29.4938 24.459 29.5161 24.4524C29.5526 24.4417 29.5892 24.4317 29.626 24.4226C29.6346 24.4204 29.6433 24.4183 29.652 24.4163C29.6767 24.4104 29.7015 24.4049 29.7264 24.3997C29.7286 24.3993 29.7308 24.3988 29.733 24.3984C29.7454 24.3959 29.7578 24.3934 29.7703 24.3911L29.733 24.3984C29.752 24.3945 29.7711 24.3908 29.7902 24.3874C29.8155 24.3828 29.8408 24.3786 29.8661 24.3748C29.893 24.3708 29.92 24.3672 29.9471 24.364C29.9518 24.3634 29.9565 24.3629 29.9612 24.3623C29.9865 24.3595 30.0118 24.357 30.0372 24.3549C30.0436 24.3544 30.05 24.3539 30.0564 24.3534C30.0816 24.3515 30.1068 24.35 30.132 24.3489C30.1386 24.3486 30.1451 24.3483 30.1517 24.3481C30.1547 24.348 30.1576 24.3479 30.1604 24.3478C30.1885 24.3468 30.2165 24.3463 30.2446 24.3463L30.2386 24.3465L30.2441 24.3463L30.2446 24.3463L30.2446 15.2125H30.2441C30.1923 15.2124 30.1406 15.2108 30.089 15.2076C30.0676 15.2063 30.0461 15.2047 30.0246 15.2028C29.9958 15.2003 29.9669 15.1973 29.938 15.1938C29.9079 15.1901 29.8779 15.1859 29.8479 15.1812C29.8277 15.178 29.8074 15.1746 29.7872 15.1709C29.7628 15.1664 29.7385 15.1617 29.7142 15.1565C29.691 15.1516 29.6678 15.1463 29.6447 15.1408C29.5784 15.1249 29.5127 15.1063 29.4476 15.0852C29.3721 15.0606 29.2978 15.0327 29.2246 15.0014C29.1983 14.9902 29.1721 14.9785 29.1461 14.9664C29.1378 14.9625 29.1295 14.9586 29.1212 14.9546C29.0865 14.938 29.0521 14.9207 29.018 14.9025C29.0002 14.8931 28.9825 14.8834 28.9648 14.8735C28.9101 14.8428 28.8561 14.81 28.803 14.7753C28.7869 14.7647 28.7709 14.754 28.7549 14.743L28.7147 14.715C28.7013 14.7054 28.688 14.6957 28.6747 14.6859C28.5194 14.5712 28.3736 14.4387 28.24 14.2892L23.1646 17.5124C24.7805 17.7357 26.0345 19.2386 26.0615 21.0696L26.062 21.1299C26.062 21.9618 25.8087 22.7285 25.3824 23.3421L28.3058 25.1987ZM18.0083 23.1555H22.7473C23.7643 23.1555 24.5888 22.2486 24.5888 21.1299C24.5888 20.0112 23.7643 19.1043 22.7473 19.1043L21.7327 19.1042L21.6782 18.359C21.539 16.4553 20.0887 14.9762 18.341 14.9762C16.9449 14.9762 15.7103 15.9247 15.216 17.3336L15.0341 17.8521L14.2861 17.8521C12.9547 17.8521 11.8754 19.0393 11.8754 20.5038C11.8754 21.9683 12.9547 23.1555 14.2861 23.1555H17.8867C17.9031 23.1555 17.919 23.1554 17.9347 23.155L17.9505 23.1546L17.9873 23.1554L18.0083 23.1555ZM15.7456 33.5545L15.7536 33.5393C15.7652 33.5174 15.7772 33.4957 15.7893 33.4741C15.7931 33.4675 15.7968 33.4608 15.8006 33.4542C15.804 33.4483 15.8074 33.4424 15.8108 33.4365C15.815 33.4293 15.8192 33.4222 15.8234 33.4151C15.8596 33.354 15.8977 33.2944 15.9376 33.2364C15.9572 33.2079 15.9772 33.1798 15.9977 33.1521C16.0307 33.1074 16.0648 33.0638 16.1 33.0212C16.1032 33.0173 16.1065 33.0134 16.1097 33.0095C16.1162 33.0017 16.1228 32.9939 16.1294 32.9862C16.1329 32.9821 16.1363 32.978 16.1398 32.974C16.1466 32.9662 16.1534 32.9584 16.1602 32.9506C16.2204 32.8821 16.2835 32.8167 16.3492 32.7546C16.3787 32.7267 16.4088 32.6994 16.4394 32.6728C16.4435 32.6693 16.4475 32.6657 16.4517 32.6622C16.459 32.6559 16.4662 32.6497 16.4736 32.6436C16.4801 32.6381 16.4867 32.6326 16.4933 32.6271C16.4976 32.6235 16.502 32.62 16.5063 32.6164C16.5257 32.6006 16.5452 32.5851 16.5649 32.5698C16.5703 32.5656 16.5756 32.5615 16.581 32.5574C16.5999 32.543 16.619 32.5289 16.6382 32.5149C16.6466 32.5089 16.655 32.5029 16.6634 32.4969C16.6873 32.4801 16.7113 32.4636 16.7356 32.4476C16.741 32.444 16.7464 32.4405 16.7518 32.4369C16.7719 32.4239 16.7921 32.4111 16.8124 32.3987C16.8179 32.3953 16.8235 32.3919 16.829 32.3885C16.836 32.3843 16.8429 32.3802 16.8498 32.3761C16.8716 32.3631 16.8937 32.3505 16.9159 32.3382C16.9193 32.3362 16.9228 32.3343 16.9263 32.3324C16.9348 32.3277 16.9433 32.3231 16.9519 32.3185C16.958 32.3152 16.9642 32.312 16.9704 32.3087C16.991 32.2979 17.0117 32.2873 17.0326 32.277C17.0533 32.2668 17.0741 32.2569 17.095 32.2473C17.1191 32.2361 17.1435 32.2253 17.168 32.2149C17.1954 32.2033 17.2231 32.1921 17.2509 32.1813C17.2547 32.1799 17.2585 32.1784 17.2623 32.1769C17.2859 32.168 17.3097 32.1593 17.3336 32.151C17.3391 32.1491 17.3446 32.1472 17.3501 32.1454C17.3577 32.1428 17.3655 32.1402 17.3733 32.1376C17.3804 32.1353 17.3874 32.133 17.3944 32.1307C17.4028 32.1281 17.4112 32.1254 17.4197 32.1228C17.4236 32.1216 17.4275 32.1204 17.4313 32.1192C17.4386 32.117 17.446 32.1148 17.4534 32.1126L17.4641 32.1096V24.7761L14.2861 24.7761C13.6378 24.7761 13.0266 24.6013 12.4892 24.2923L8.82998 26.6163C8.83733 26.6455 8.84427 26.6747 8.85081 26.704C8.85658 26.7298 8.86204 26.7558 8.86719 26.7817C8.872 26.806 8.87653 26.8303 8.88079 26.8545C8.88241 26.8638 8.88399 26.873 8.88552 26.8822C8.88706 26.8914 8.88856 26.9007 8.89002 26.91C8.90055 26.9765 8.90905 27.0433 8.91553 27.1101C8.91672 27.1222 8.91784 27.1344 8.91888 27.1466C8.92081 27.169 8.92251 27.1913 8.92399 27.2136C8.92449 27.2213 8.92497 27.2289 8.92542 27.2365C8.92603 27.2468 8.9266 27.2571 8.92712 27.2674C8.92747 27.2745 8.92781 27.2816 8.92812 27.2887C8.9294 27.3178 8.9303 27.347 8.93083 27.3761C8.93098 27.3846 8.93111 27.3931 8.9312 27.4017C8.93126 27.4082 8.93131 27.4147 8.93135 27.4212L8.9312 27.4017C8.93162 27.4414 8.93134 27.481 8.93037 27.5206C8.92977 27.5455 8.92888 27.5704 8.92773 27.5953C8.92738 27.6028 8.92702 27.6102 8.92662 27.6176C8.92623 27.625 8.92581 27.6324 8.92537 27.6399C8.92175 27.7006 8.91651 27.7612 8.90967 27.8215C8.9077 27.8389 8.90559 27.8562 8.90335 27.8736C8.90207 27.8835 8.90074 27.8934 8.89937 27.9033L8.90335 27.8736C8.89686 27.9238 8.88925 27.9739 8.88055 28.0237C8.87955 28.0293 8.87855 28.035 8.87753 28.0407C8.86919 28.0869 8.85991 28.133 8.84967 28.1788C8.8425 28.2108 8.83487 28.2428 8.82677 28.2746C8.82523 28.2807 8.82368 28.2867 8.82211 28.2927C8.82099 28.297 8.81985 28.3014 8.8187 28.3057L8.82211 28.2927C8.81323 28.3268 8.80382 28.3608 8.79388 28.3945C8.79249 28.3992 8.79109 28.404 8.78968 28.4087C8.78661 28.4189 8.78349 28.4292 8.78032 28.4394C8.77898 28.4437 8.77762 28.4481 8.77626 28.4524C8.76742 28.4806 8.75821 28.5086 8.74864 28.5364C8.73165 28.5858 8.71352 28.6348 8.69425 28.6832C8.68025 28.7184 8.66563 28.7533 8.65042 28.788C8.64676 28.7964 8.64301 28.8048 8.63923 28.8132C8.63622 28.8199 8.6332 28.8266 8.63016 28.8332C8.62628 28.8417 8.62234 28.8503 8.61835 28.8588C8.61587 28.8641 8.61337 28.8694 8.61086 28.8747C8.60655 28.8838 8.6022 28.8928 8.59781 28.9019C8.58393 28.9304 8.56958 28.9589 8.55482 28.987L8.55452 28.9876L15.7456 33.5545ZM20.6176 33.5545L27.8087 28.9876C27.7969 28.9652 27.7854 28.9427 27.7742 28.92C27.7712 28.9139 27.7683 28.9078 27.7653 28.9018C27.761 28.8928 27.7566 28.8838 27.7523 28.8747C27.7498 28.8694 27.7473 28.8641 27.7448 28.8588C27.7403 28.8491 27.7359 28.8395 27.7315 28.8298C27.7292 28.825 27.727 28.82 27.7248 28.8151C27.7204 28.8054 27.7161 28.7958 27.7119 28.7861C27.7086 28.7787 27.7054 28.7712 27.7022 28.7637C27.7009 28.7607 27.6996 28.7576 27.6983 28.7546L27.7022 28.7637C27.696 28.7493 27.69 28.7349 27.684 28.7205C27.6742 28.6966 27.6646 28.6725 27.6553 28.6483L27.6542 28.6455C27.6298 28.582 27.6074 28.5176 27.5869 28.4524C27.5855 28.4481 27.5842 28.4437 27.5828 28.4394C27.5797 28.4292 27.5766 28.4189 27.5735 28.4087C27.5721 28.404 27.5707 28.3992 27.5693 28.3945C27.5665 28.3849 27.5637 28.3753 27.5609 28.3656C27.554 28.3414 27.5474 28.3171 27.541 28.2926C27.5395 28.2867 27.5379 28.2807 27.5364 28.2746C27.5283 28.2428 27.5207 28.2108 27.5135 28.1787C27.507 28.1496 27.5009 28.1204 27.4951 28.0911C27.4938 28.0843 27.4925 28.0774 27.4911 28.0705C27.486 28.0433 27.4812 28.0162 27.4767 27.9889C27.4732 27.9672 27.4698 27.9454 27.4666 27.9235L27.4656 27.9159C27.4434 27.7602 27.4321 27.6024 27.4318 27.4439C27.4318 27.4364 27.4318 27.4288 27.4318 27.4213C27.4318 27.4147 27.4319 27.4082 27.432 27.4016L27.4318 27.4213C27.4319 27.4062 27.4321 27.3912 27.4323 27.3761C27.4326 27.364 27.4328 27.352 27.4332 27.3399C27.4334 27.3322 27.4337 27.3246 27.4339 27.3169C27.4343 27.3075 27.4346 27.2981 27.435 27.2886C27.4353 27.2825 27.4356 27.2764 27.4359 27.2703C27.4372 27.2437 27.4388 27.2171 27.4408 27.1905C27.4415 27.1806 27.4423 27.1709 27.4431 27.1611C27.4486 27.093 27.4563 27.0249 27.466 26.957C27.4668 26.9519 27.4675 26.9469 27.4683 26.9418C27.4728 26.9113 27.4777 26.8807 27.4831 26.8502C27.4841 26.8448 27.4851 26.8393 27.4861 26.8339C27.4882 26.822 27.4904 26.8102 27.4927 26.7984C27.4938 26.7929 27.4949 26.7873 27.496 26.7818C27.4977 26.773 27.4995 26.7644 27.5013 26.7557C27.5033 26.7459 27.5053 26.7361 27.5075 26.7263C27.5137 26.6974 27.5203 26.6686 27.5274 26.6398C27.5303 26.6277 27.5333 26.6156 27.5364 26.6035C27.5381 26.5971 27.5397 26.5908 27.5414 26.5844L24.1534 24.4327C23.7265 24.653 23.25 24.7761 22.7473 24.7761L18.9372 24.7761L18.9372 32.1209C18.9511 32.1251 18.9649 32.1295 18.9787 32.134C18.9829 32.1353 18.9871 32.1367 18.9912 32.138C19.0011 32.1413 19.0109 32.1446 19.0208 32.148C19.0257 32.1497 19.0307 32.1514 19.0357 32.1532C19.0447 32.1563 19.0536 32.1595 19.0626 32.1627C19.0677 32.1646 19.0729 32.1665 19.0781 32.1684C19.1025 32.1774 19.1267 32.1868 19.1508 32.1965C19.1549 32.1982 19.159 32.1999 19.1632 32.2016C19.1712 32.2049 19.1792 32.2082 19.1872 32.2115C19.2086 32.2206 19.2299 32.2299 19.2511 32.2395C19.283 32.2539 19.3146 32.269 19.3458 32.2846C19.3628 32.2931 19.3797 32.3018 19.3965 32.3107C19.4022 32.3137 19.408 32.3168 19.4137 32.3198C19.4487 32.3386 19.4833 32.3582 19.5174 32.3785C19.5262 32.3837 19.535 32.389 19.5437 32.3943C19.5477 32.3967 19.5517 32.3992 19.5556 32.4016C19.563 32.4062 19.5702 32.4107 19.5775 32.4153C19.585 32.42 19.5925 32.4248 19.6 32.4296C19.6052 32.433 19.6105 32.4364 19.6157 32.4398C19.6247 32.4457 19.6335 32.4515 19.6424 32.4574C19.6451 32.4593 19.6478 32.4611 19.6505 32.4629C19.661 32.47 19.6714 32.4771 19.6818 32.4844C19.6855 32.4869 19.6892 32.4895 19.6928 32.492C19.6994 32.4967 19.706 32.5014 19.7126 32.5061C19.7192 32.5108 19.7258 32.5156 19.7324 32.5203C19.7385 32.5248 19.7445 32.5292 19.7505 32.5336C19.7566 32.5382 19.7627 32.5427 19.7688 32.5473C19.7772 32.5537 19.7856 32.56 19.7939 32.5665C19.8174 32.5845 19.8405 32.603 19.8634 32.6218C19.8805 32.6358 19.8975 32.6501 19.9143 32.6646C19.92 32.6695 19.9256 32.6744 19.9313 32.6793C19.9728 32.7157 20.0134 32.7533 20.053 32.7922C20.0576 32.7967 20.0624 32.8014 20.0671 32.8061C20.076 32.815 20.0847 32.8238 20.0935 32.8327C20.0964 32.8357 20.0994 32.8387 20.1023 32.8418C20.1061 32.8457 20.1099 32.8496 20.1137 32.8535C20.1213 32.8614 20.1288 32.8693 20.1363 32.8773C20.1402 32.8814 20.144 32.8855 20.1478 32.8896C20.1524 32.8945 20.1571 32.8996 20.1617 32.9046L20.1703 32.914C20.1727 32.9168 20.1752 32.9195 20.1777 32.9222C20.1943 32.9406 20.2107 32.9592 20.2269 32.9781L20.2304 32.9822C20.2436 32.9977 20.2567 33.0133 20.2697 33.0291C20.2804 33.0422 20.2911 33.0554 20.3017 33.0687C20.3171 33.0882 20.3323 33.1078 20.3472 33.1277C20.3513 33.133 20.3553 33.1384 20.3593 33.1438C20.3652 33.1517 20.371 33.1596 20.3768 33.1675C20.391 33.1871 20.4051 33.2068 20.4189 33.2267C20.4231 33.2328 20.4274 33.239 20.4317 33.2453C20.4353 33.2506 20.439 33.256 20.4426 33.2614C20.4484 33.2701 20.4542 33.2788 20.46 33.2875C20.4631 33.2922 20.4662 33.2969 20.4692 33.3016C20.4751 33.3107 20.481 33.3198 20.4869 33.329C20.4897 33.3335 20.4925 33.3379 20.4954 33.3424C20.5005 33.3506 20.5056 33.3588 20.5107 33.3671C20.5145 33.3732 20.5182 33.3793 20.522 33.3854C20.5501 33.4317 20.577 33.4788 20.6029 33.5267L20.6176 33.5545ZM6.7881 28.7163C7.29399 28.395 7.53724 27.7655 7.43498 27.1679C7.4343 27.1636 7.43354 27.1593 7.43275 27.1549L7.43498 27.1679C7.43085 27.1438 7.42617 27.1198 7.42091 27.0958C7.39818 26.9921 7.36495 26.8903 7.32113 26.7922C7.31908 26.7876 7.31697 26.7829 7.31483 26.7783L7.32113 26.7922C7.31646 26.7818 7.31167 26.7713 7.30677 26.761L7.31483 26.7783C7.3088 26.7651 7.30257 26.752 7.29614 26.739L7.2783 26.7039C7.26005 26.6691 7.24067 26.6354 7.22021 26.6028C7.21716 26.5979 7.21408 26.5931 7.21099 26.5883L7.22021 26.6028C7.21356 26.5922 7.2068 26.5817 7.19993 26.5714L7.21099 26.5883C7.20381 26.5771 7.19651 26.5661 7.18909 26.5552L7.19993 26.5714C7.19198 26.5594 7.18388 26.5475 7.17564 26.5358L7.18909 26.5552C7.18268 26.5458 7.17618 26.5365 7.1696 26.5273L7.17564 26.5358C7.16792 26.5249 7.16007 26.5141 7.1521 26.5034L7.1696 26.5273C7.16219 26.517 7.15467 26.5067 7.14705 26.4967L7.1521 26.5034C7.13806 26.4846 7.12364 26.4663 7.10886 26.4484C6.6943 25.9467 6.00442 25.8118 5.44884 26.1647C4.80828 26.5715 4.58881 27.4725 4.95863 28.1771C5.32846 28.8817 6.14754 29.1231 6.7881 28.7163ZM31.4045 28.1771C31.7744 27.4725 31.5549 26.5715 30.9143 26.1647C30.4066 25.8423 29.7868 25.927 29.3673 26.3269C29.3586 26.3352 29.35 26.3436 29.3415 26.3522L29.3163 26.3782C29.3025 26.3929 29.2889 26.4079 29.2755 26.4233C29.2723 26.4271 29.2691 26.4308 29.2659 26.4346L29.2755 26.4233C29.2684 26.4315 29.2614 26.4398 29.2545 26.4481L29.2659 26.4346C29.2582 26.4436 29.2506 26.4528 29.2431 26.4622L29.2545 26.4481C29.2465 26.4578 29.2385 26.4677 29.2307 26.4777L29.2431 26.4622C29.2351 26.4721 29.2272 26.4821 29.2194 26.4923L29.2307 26.4777C29.223 26.4876 29.2153 26.4977 29.2077 26.5078L29.2194 26.4923C29.1954 26.5238 29.1725 26.5565 29.1508 26.5904C29.1483 26.5943 29.1458 26.5983 29.1433 26.6023L29.1508 26.5904C29.1275 26.6269 29.1054 26.6647 29.0849 26.7039C29.0787 26.7156 29.0727 26.7274 29.0669 26.7392C29.0647 26.7437 29.0625 26.7482 29.0603 26.7527L29.0669 26.7392C29.0604 26.7523 29.0542 26.7656 29.0481 26.7788L29.0603 26.7527C29.0543 26.7652 29.0485 26.7778 29.0428 26.7904L29.0481 26.7788C29.043 26.7899 29.0381 26.801 29.0333 26.8122L29.0428 26.7904C29.0369 26.8036 29.0312 26.8169 29.0256 26.8303L29.0333 26.8122C29.0216 26.8395 29.0107 26.867 29.0006 26.8947C28.9991 26.8987 28.9977 26.9027 28.9963 26.9066L29.0006 26.8947C28.981 26.9484 28.9645 27.0029 28.951 27.058C28.9493 27.0649 28.9477 27.0717 28.9462 27.0785L28.951 27.058C28.9479 27.0706 28.945 27.0831 28.9423 27.0956L28.9462 27.0785C28.9434 27.0906 28.9407 27.1027 28.9382 27.1149L28.9423 27.0956C28.9391 27.1098 28.9362 27.1241 28.9335 27.1383L28.9382 27.1149C28.9355 27.1279 28.933 27.141 28.9306 27.154L28.9335 27.1383C28.9313 27.1497 28.9292 27.1612 28.9273 27.1726L28.9306 27.154C28.8222 27.7557 29.0652 28.3926 29.5751 28.7163C30.2156 29.1231 31.0347 28.8817 31.4045 28.1771ZM18.1816 36.5748C18.9212 36.5748 19.5208 35.9152 19.5208 35.1016C19.5208 34.4787 19.1694 33.9462 18.6728 33.7307C18.6692 33.729 18.6655 33.7274 18.6618 33.7259L18.6728 33.7307C18.6636 33.7267 18.6544 33.7228 18.6452 33.7191L18.6618 33.7259C18.651 33.7213 18.6401 33.7169 18.6291 33.7126L18.6452 33.7191C18.6348 33.7149 18.6244 33.7108 18.6139 33.7069L18.6291 33.7126C18.6181 33.7083 18.6071 33.7042 18.596 33.7003L18.6139 33.7069C18.6024 33.7025 18.5907 33.6984 18.579 33.6944L18.596 33.7003C18.5845 33.6962 18.573 33.6922 18.5614 33.6885L18.579 33.6944C18.5689 33.6909 18.5587 33.6876 18.5484 33.6844L18.5614 33.6885C18.5503 33.6849 18.5391 33.6814 18.5279 33.6781L18.5484 33.6844C18.5363 33.6806 18.5241 33.677 18.5119 33.6736L18.5279 33.6781C18.5007 33.6702 18.4732 33.6631 18.4454 33.657C18.4395 33.6557 18.4336 33.6545 18.4278 33.6533L18.4454 33.657C18.4348 33.6547 18.4242 33.6525 18.4135 33.6505L18.4278 33.6533C18.4157 33.6508 18.4036 33.6485 18.3915 33.6464L18.4135 33.6505C18.4007 33.648 18.3878 33.6457 18.3749 33.6437L18.3915 33.6464C18.383 33.6449 18.3744 33.6436 18.3659 33.6423L18.3749 33.6437C18.3616 33.6416 18.3482 33.6397 18.3349 33.638L18.3659 33.6423C18.3541 33.6405 18.3423 33.6389 18.3304 33.6374L18.3349 33.638C18.3236 33.6366 18.3123 33.6353 18.301 33.6342L18.3304 33.6374C18.3177 33.6359 18.3049 33.6345 18.292 33.6334L18.301 33.6342C18.2884 33.633 18.2758 33.632 18.2631 33.6311L18.292 33.6334C18.2798 33.6323 18.2675 33.6314 18.2552 33.6306L18.2631 33.6311C18.2511 33.6303 18.2392 33.6297 18.2272 33.6293L18.2552 33.6306C18.2308 33.6292 18.2063 33.6284 18.1816 33.6284L18.1452 33.629C18.1421 33.6291 18.1391 33.6292 18.136 33.6293L18.1451 33.629C18.1327 33.6293 18.1203 33.6299 18.108 33.6306L18.136 33.6293C18.124 33.6297 18.112 33.6303 18.1 33.6311L18.108 33.6306C18.0957 33.6314 18.0834 33.6323 18.0712 33.6334L18.1 33.6311C18.0874 33.632 18.0747 33.633 18.0621 33.6342L18.0712 33.6334C18.0583 33.6345 18.0455 33.6359 18.0327 33.6374L18.0621 33.6342C18.0508 33.6353 18.0396 33.6366 18.0283 33.638L18.0327 33.6374C18.0207 33.6389 18.0087 33.6405 17.9967 33.6424L18.0283 33.638C18.0153 33.6396 18.0023 33.6414 17.9893 33.6435L17.9967 33.6424C17.988 33.6437 17.9792 33.6451 17.9705 33.6466L17.9893 33.6435C17.976 33.6456 17.9627 33.6479 17.9495 33.6505L17.9705 33.6466C17.9599 33.6485 17.9493 33.6505 17.9387 33.6526L17.9495 33.6505C17.9386 33.6526 17.9278 33.6548 17.9169 33.6572L17.9387 33.6526C17.9089 33.6586 17.8794 33.6657 17.8502 33.6739C17.8459 33.6751 17.8416 33.6763 17.8373 33.6776L17.8502 33.6739C17.8382 33.6772 17.8263 33.6807 17.8144 33.6844L17.8373 33.6776C17.8263 33.6808 17.8153 33.6842 17.8043 33.6877L17.8144 33.6844C17.8037 33.6878 17.7931 33.6913 17.7825 33.6949L17.8043 33.6877C17.7921 33.6916 17.78 33.6957 17.768 33.7L17.7825 33.6949C17.7714 33.6987 17.7603 33.7027 17.7493 33.7068L17.768 33.7C17.7566 33.7041 17.7453 33.7083 17.734 33.7127L17.7493 33.7068C17.7388 33.7107 17.7284 33.7148 17.718 33.719L17.734 33.7127C17.7229 33.717 17.7119 33.7215 17.7009 33.7262L17.718 33.719C17.7091 33.7226 17.7003 33.7263 17.6914 33.7301L17.7009 33.7262C17.1987 33.9387 16.8423 34.4744 16.8423 35.1016C16.8423 35.9152 17.4419 36.5748 18.1816 36.5748Z" fill="#376FFF"/>
</svg>
