<svg width="40" height="40" viewBox="0 0 40 40" fill="none" xmlns="http://www.w3.org/2000/svg">
    <path d="M20 38.1958C18.3201 38.1958 16.9528 36.8568 16.9075 35.1878L8.20243 30.1622C7.74973 30.4073 7.26137 30.528 6.77776 30.5349L6.72993 30.5352C5.66199 30.534 4.62375 29.9792 4.05137 28.9878C3.2114 27.533 3.68742 25.6795 5.11007 24.8057L5.11007 14.7541C3.68742 13.8803 3.2114 12.0268 4.05137 10.5719C4.6152 9.59534 5.6311 9.04246 6.68213 9.025L6.72993 9.02457C7.22912 9.024 7.73481 9.14437 8.20243 9.39762L16.9075 4.37192C16.9524 2.71995 18.2924 1.39125 19.9489 1.3644L20 1.36398C21.6799 1.36398 23.0471 2.70296 23.0925 4.3719L31.7973 9.39775C32.2501 9.1525 32.7386 9.03183 33.2223 9.02489L33.2701 9.02458C34.338 9.0258 35.3763 9.58054 35.9487 10.5719C36.7886 12.0268 36.3126 13.8803 34.89 14.7541V24.8057C36.3126 25.6795 36.7886 27.533 35.9487 28.9878C35.3848 29.9644 34.3689 30.5173 33.3179 30.5348L33.2701 30.5352C32.7709 30.5358 32.2652 30.4154 31.7976 30.1622L23.0925 35.1879C23.0476 36.8398 21.7076 38.1685 20.0512 38.1954L20 38.1958ZM20 5.93086L20.0401 5.93033C20.0434 5.93024 20.0468 5.93014 20.0501 5.93003L20.0401 5.93033C20.0535 5.92997 20.0668 5.92943 20.0801 5.92872L20.0501 5.93003C20.0647 5.92954 20.0793 5.92884 20.0938 5.92793L20.0801 5.92872C20.0937 5.92799 20.1072 5.92708 20.1207 5.92598L20.0938 5.92793C20.1071 5.92709 20.1203 5.92608 20.1335 5.9249L20.1207 5.92598C20.1327 5.92501 20.1446 5.92389 20.1565 5.92264L20.1335 5.9249C20.148 5.92359 20.1625 5.92208 20.1769 5.92035L20.1565 5.92264C20.1699 5.92122 20.1833 5.91962 20.1967 5.91784L20.1769 5.92035C20.1891 5.91889 20.2013 5.91728 20.2134 5.91552L20.1967 5.91784C20.2118 5.91582 20.2268 5.91358 20.2417 5.91111L20.2134 5.91552C20.2257 5.91374 20.2379 5.91181 20.2501 5.90972L20.2417 5.91111C20.2545 5.90901 20.2672 5.90675 20.2798 5.90432L20.2501 5.90972C20.2635 5.90743 20.2769 5.90495 20.2901 5.9023L20.2798 5.90432C20.296 5.9012 20.3122 5.89781 20.3283 5.89415L20.2901 5.9023C20.3208 5.89618 20.3511 5.88912 20.381 5.88113C20.3885 5.87915 20.396 5.87707 20.4035 5.87495L20.381 5.88113C20.3933 5.87784 20.4056 5.87438 20.4178 5.87078L20.4035 5.87495C20.4145 5.87183 20.4254 5.8686 20.4363 5.86524L20.4178 5.87078C21.0279 5.69066 21.4732 5.12617 21.4732 4.45768C21.4732 3.64406 20.8136 2.98449 20 2.98449C19.1864 2.98449 18.5268 3.64406 18.5268 4.45768C18.5268 5.11889 18.9624 5.67836 19.5623 5.86476C19.5698 5.86712 19.5774 5.8694 19.585 5.87162L19.5623 5.86476C19.5735 5.86824 19.5848 5.8716 19.5962 5.87482L19.585 5.87162C19.597 5.87515 19.6091 5.87853 19.6213 5.88175L19.5962 5.87482C19.6092 5.87853 19.6223 5.88207 19.6355 5.88543L19.6213 5.88175C19.6502 5.88941 19.6795 5.8962 19.709 5.90211C19.7136 5.90305 19.7183 5.90396 19.723 5.90486L19.709 5.90211C19.7227 5.90485 19.7364 5.9074 19.7502 5.90976L19.723 5.90486C19.7343 5.90702 19.7457 5.90904 19.7571 5.91094L19.7502 5.90976C19.7626 5.91187 19.775 5.91382 19.7874 5.91562L19.7571 5.91094C19.7723 5.91346 19.7876 5.91574 19.8029 5.91779L19.7874 5.91562C19.7992 5.91733 19.8111 5.9189 19.8231 5.92033L19.8029 5.91779C19.8164 5.9196 19.83 5.92122 19.8436 5.92266L19.8231 5.92033C19.8375 5.92206 19.852 5.92358 19.8665 5.92489L19.8436 5.92266C19.8555 5.92391 19.8674 5.92502 19.8793 5.92599L19.8665 5.92489C19.8797 5.92607 19.893 5.92709 19.9062 5.92792L19.8793 5.92599C19.8928 5.92708 19.9063 5.92799 19.9199 5.92872L19.9062 5.92792C19.9207 5.92883 19.9353 5.92953 19.9499 5.93002L19.9199 5.92872C19.9464 5.93014 19.9731 5.93086 20 5.93086ZM24.789 16.0415L30.2694 12.8774C30.2655 12.862 30.2617 12.8466 30.258 12.8311C30.2569 12.8264 30.2558 12.8216 30.2547 12.8167C30.2522 12.8061 30.2498 12.7956 30.2475 12.785C30.2458 12.7773 30.2441 12.7696 30.2424 12.7618C30.2405 12.7527 30.2386 12.7437 30.2368 12.7346C30.2348 12.725 30.233 12.7155 30.2311 12.7059C30.2258 12.6785 30.2209 12.6509 30.2163 12.6234C30.2152 12.6164 30.214 12.6094 30.2129 12.6024C30.2023 12.5351 30.1939 12.4677 30.1878 12.4002C30.1871 12.3926 30.1865 12.3851 30.1858 12.3775C30.1835 12.349 30.1815 12.3204 30.1799 12.2919C30.1798 12.2894 30.1797 12.287 30.1795 12.2846L30.1799 12.2919C30.1791 12.2772 30.1784 12.2624 30.1778 12.2477C30.1774 12.2388 30.1771 12.2299 30.1768 12.221C30.1765 12.2111 30.1762 12.2014 30.176 12.1916C30.1758 12.1842 30.1757 12.1767 30.1756 12.1692C30.1755 12.1618 30.1754 12.1544 30.1753 12.147C30.1753 12.1402 30.1752 12.1334 30.1752 12.1267L30.1753 12.147C30.174 11.9822 30.1858 11.818 30.2104 11.656C30.2145 11.6291 30.219 11.6022 30.2238 11.5754C30.2259 11.5637 30.228 11.552 30.2302 11.5404C30.235 11.5156 30.24 11.4909 30.2453 11.4663C30.2472 11.4574 30.2492 11.4485 30.2512 11.4397C30.2526 11.4333 30.2541 11.4269 30.2556 11.4206C30.2569 11.4146 30.2583 11.4086 30.2598 11.4026C30.2625 11.3912 30.2652 11.3799 30.2681 11.3686C30.2765 11.3348 30.2855 11.3012 30.2951 11.2677C30.302 11.2437 30.3092 11.2197 30.3166 11.1958C30.3191 11.1877 30.3217 11.1797 30.3243 11.1716C30.3264 11.165 30.3285 11.1584 30.3307 11.1518C30.3332 11.1441 30.3358 11.1365 30.3384 11.1288C30.3419 11.1183 30.3455 11.108 30.3491 11.0976C30.3509 11.0925 30.3526 11.0874 30.3545 11.0824C30.3581 11.0722 30.3617 11.0621 30.3654 11.0521C30.3662 11.05 30.367 11.0478 30.3678 11.0456C30.3726 11.0326 30.3774 11.0197 30.3824 11.0068C30.394 10.9766 30.4061 10.9465 30.4187 10.9166C30.4287 10.8928 30.4391 10.869 30.4497 10.8454C30.4533 10.8374 30.457 10.8294 30.4606 10.8214C30.463 10.8163 30.4654 10.8112 30.4678 10.8061C30.4728 10.7953 30.4779 10.7845 30.4831 10.7737C30.4867 10.7662 30.4903 10.7588 30.494 10.7514C30.4973 10.7446 30.5007 10.7378 30.5041 10.731C30.5085 10.7222 30.513 10.7134 30.5175 10.7046C30.5202 10.6992 30.5231 10.6937 30.5259 10.6882C30.5307 10.6791 30.5354 10.6701 30.5402 10.6611C30.5429 10.6561 30.5456 10.651 30.5483 10.646C30.5618 10.621 30.5756 10.5963 30.5897 10.5717L22.6797 6.00476C22.6781 6.00747 22.6765 6.01018 22.675 6.01288C22.6604 6.03796 22.6454 6.06277 22.6302 6.08736C22.6276 6.09154 22.625 6.09572 22.6223 6.09989C22.6165 6.10914 22.6107 6.11839 22.6047 6.12761C22.6009 6.1336 22.5971 6.13951 22.5932 6.14541C22.5884 6.15276 22.5835 6.16018 22.5786 6.16757C22.5742 6.17429 22.5697 6.18094 22.5652 6.18757C22.5623 6.19191 22.5593 6.19626 22.5564 6.2006C22.5085 6.27075 22.4577 6.33881 22.4044 6.40464C22.3888 6.42384 22.373 6.44289 22.3569 6.46174C22.342 6.47925 22.3269 6.4966 22.3116 6.51378C22.3044 6.52194 22.2971 6.53004 22.2897 6.53811C22.2857 6.5426 22.2815 6.5471 22.2774 6.5516C22.2732 6.55622 22.2689 6.56081 22.2647 6.56538C22.247 6.58435 22.2291 6.60313 22.2109 6.62167C22.1539 6.6799 22.0946 6.73593 22.0331 6.78956L22.0276 6.79434C22.0078 6.81154 21.9878 6.82848 21.9676 6.84518C21.9643 6.84788 21.9611 6.85054 21.9578 6.85318C21.9503 6.85935 21.9427 6.86554 21.935 6.8717C21.9281 6.87723 21.9212 6.88273 21.9143 6.88819C21.9105 6.89119 21.9067 6.89417 21.9028 6.89715C21.8779 6.91666 21.8526 6.93578 21.827 6.95452C21.8255 6.95568 21.824 6.95676 21.8225 6.95784C21.8148 6.96347 21.807 6.96912 21.7991 6.97473C21.7805 6.98809 21.7617 7.00123 21.7428 7.01416L21.7349 7.01954C21.6818 7.05557 21.6275 7.08998 21.5721 7.12272C21.5667 7.12591 21.5613 7.12908 21.5559 7.13224C21.5334 7.14536 21.5107 7.15821 21.4878 7.17079C21.4786 7.17586 21.4694 7.18085 21.4601 7.18581C21.4547 7.18872 21.4492 7.19163 21.4438 7.19452C21.4375 7.19785 21.4312 7.20116 21.4248 7.20445C21.414 7.21008 21.4032 7.21563 21.3923 7.22112C21.3879 7.22333 21.3835 7.22555 21.3791 7.22776C21.3541 7.24023 21.3289 7.25235 21.3036 7.26414C21.2978 7.26685 21.2919 7.26956 21.286 7.27225C21.26 7.28415 21.2339 7.29566 21.2076 7.30682C21.1817 7.31783 21.1555 7.3285 21.1292 7.33881C21.1051 7.34827 21.0808 7.35744 21.0564 7.36632C21.0506 7.36844 21.0447 7.37054 21.0389 7.37262C21.0276 7.37665 21.0162 7.38064 21.0047 7.38457C21.0019 7.38554 20.9991 7.38648 20.9964 7.38742C20.9839 7.39168 20.9712 7.39588 20.9586 7.4C20.9538 7.40155 20.9491 7.40308 20.9443 7.40461C20.9316 7.40868 20.9188 7.41267 20.906 7.41659C20.9031 7.41748 20.9002 7.41836 20.8973 7.41924C20.8867 7.42245 20.8761 7.4256 20.8654 7.4287C20.8563 7.43136 20.8471 7.43397 20.838 7.43654C20.8357 7.43719 20.8334 7.43783 20.8311 7.43846L20.8312 13.3964C22.5238 13.6056 23.9773 14.6141 24.789 16.0415ZM15.4928 16.1671C16.2501 14.7449 17.6195 13.7375 19.2107 13.4441L19.2107 7.44977C19.1929 7.44508 19.1751 7.44024 19.1574 7.43524C19.1496 7.43302 19.1418 7.43079 19.134 7.42853C19.0743 7.41115 19.0153 7.392 18.957 7.37116C18.9519 7.36931 18.9467 7.36745 18.9416 7.36557C18.9301 7.36141 18.9188 7.35721 18.9075 7.35294C18.9035 7.35143 18.8995 7.34991 18.8955 7.34838C18.8847 7.34425 18.874 7.34008 18.8633 7.33584C18.8578 7.33368 18.8523 7.3315 18.8468 7.32929C18.8346 7.32437 18.8223 7.31936 18.8102 7.31429C18.8068 7.31287 18.8034 7.31144 18.7999 7.30999C18.7728 7.29856 18.7459 7.28677 18.7192 7.27461C18.7119 7.27128 18.7047 7.26795 18.6974 7.2646C18.676 7.25463 18.6546 7.2444 18.6334 7.23393C18.6202 7.22743 18.6071 7.22084 18.594 7.21417C18.5863 7.2102 18.5785 7.20617 18.5707 7.20211C18.5674 7.2004 18.5642 7.19871 18.561 7.19701C18.5487 7.19055 18.5364 7.18399 18.5242 7.17734C18.5198 7.17496 18.5154 7.17255 18.511 7.17014C18.5036 7.16603 18.4961 7.16189 18.4887 7.15773C18.4651 7.14448 18.4417 7.13095 18.4185 7.11712C18.4134 7.11412 18.4084 7.11112 18.4034 7.1081C18.3938 7.10229 18.3842 7.0964 18.3746 7.09046C18.3686 7.08677 18.3626 7.08304 18.3567 7.07931C18.3508 7.07558 18.3448 7.07182 18.3389 7.06804C18.332 7.06366 18.3252 7.05929 18.3185 7.0549C18.2967 7.04079 18.2751 7.02638 18.2537 7.0117C18.2462 7.00656 18.2387 7.00138 18.2312 6.99617C18.193 6.96946 18.1554 6.94193 18.1184 6.91358C18.1113 6.90811 18.1041 6.90259 18.097 6.89703L18.0913 6.89253C18.0613 6.86897 18.0317 6.84488 18.0026 6.82026C17.9954 6.81417 17.9883 6.80808 17.9812 6.80195C17.9738 6.79556 17.9664 6.78914 17.9591 6.7827C17.954 6.77829 17.949 6.77383 17.944 6.76936C17.9399 6.7657 17.9358 6.76208 17.9318 6.75845C17.8735 6.70599 17.8171 6.65132 17.7629 6.5946C17.758 6.58942 17.753 6.58419 17.7481 6.57893C17.7257 6.55525 17.7038 6.53122 17.6822 6.50685L17.6809 6.50531C17.643 6.46237 17.6062 6.41837 17.5707 6.37335C17.5653 6.36661 17.56 6.35982 17.5547 6.353C17.5498 6.34668 17.545 6.34036 17.5401 6.33402C17.535 6.32735 17.5299 6.32066 17.5249 6.31394C17.5211 6.30894 17.5174 6.30398 17.5138 6.299C17.5071 6.29014 17.5006 6.28117 17.494 6.27216C17.4901 6.26665 17.4861 6.26115 17.4822 6.25565C17.477 6.2485 17.4719 6.24134 17.4669 6.23417C17.4626 6.22799 17.4582 6.22174 17.4539 6.21548C17.4482 6.20725 17.4426 6.19904 17.437 6.19079C17.4331 6.18504 17.4292 6.17924 17.4253 6.17344C17.3922 6.12383 17.3605 6.07322 17.3302 6.02165L17.3204 6.00476L9.41024 10.5717C9.42695 10.6007 9.44286 10.6294 9.4583 10.6583C9.46362 10.6682 9.46887 10.6782 9.47406 10.6882C9.47796 10.6957 9.48181 10.7031 9.48564 10.7106C9.48789 10.715 9.49013 10.7195 9.49236 10.7239C9.50607 10.7511 9.51938 10.7785 9.53228 10.8061C9.53467 10.8112 9.53703 10.8163 9.53938 10.8214C9.54392 10.8312 9.54841 10.8411 9.55284 10.851C9.55493 10.8557 9.55699 10.8603 9.55905 10.865C9.56359 10.8752 9.56809 10.8856 9.57253 10.8959C9.59111 10.9392 9.60868 10.9828 9.62525 11.0268C9.64112 11.0689 9.65607 11.1114 9.67008 11.1542C9.67181 11.1594 9.67354 11.1648 9.67526 11.1701C9.69612 11.2349 9.71484 11.3004 9.7314 11.3664C9.73329 11.3739 9.73514 11.3814 9.73697 11.389C9.7432 11.4146 9.74911 11.4404 9.75469 11.4662C9.75605 11.4725 9.75738 11.4787 9.75868 11.485C9.7612 11.497 9.76366 11.509 9.76604 11.5211C9.76715 11.5267 9.76823 11.5323 9.7693 11.5379C9.77784 11.5824 9.7854 11.6272 9.79199 11.6721C9.79433 11.6881 9.79655 11.7041 9.79864 11.7201C9.80143 11.7414 9.804 11.7628 9.80635 11.7842C9.81127 11.8292 9.81522 11.8742 9.81818 11.9194C9.81876 11.9284 9.81931 11.9373 9.81982 11.9462C9.82021 11.9531 9.82058 11.96 9.82092 11.9669C9.82238 11.996 9.82343 12.0252 9.82406 12.0543C9.82474 12.0852 9.82495 12.1161 9.82469 12.1471C9.82463 12.1544 9.82454 12.1619 9.82443 12.1693C9.82434 12.1749 9.82424 12.1803 9.82413 12.1858C9.82352 12.2154 9.82247 12.245 9.821 12.2747C9.82048 12.2853 9.8199 12.2958 9.81927 12.3064C9.81883 12.3136 9.81838 12.3208 9.8179 12.328C9.8175 12.3338 9.81709 12.3397 9.81667 12.3455C9.81419 12.3796 9.81114 12.4137 9.80752 12.4478C9.80746 12.4483 9.8074 12.4488 9.80735 12.4494L9.80752 12.4478C9.80005 12.518 9.79015 12.5881 9.77778 12.658C9.77657 12.6648 9.77535 12.6716 9.7741 12.6784C9.77252 12.687 9.7709 12.6956 9.76924 12.7042C9.76429 12.7299 9.75901 12.7555 9.7534 12.7811C9.74873 12.8024 9.74381 12.8237 9.73866 12.845L15.4928 16.1671ZM34.006 13.3946C34.7106 12.9878 34.9521 12.0868 34.5453 11.3822C34.1384 10.6776 33.2375 10.4362 32.5328 10.843C31.9774 11.1636 31.7098 11.7914 31.8206 12.3879C31.8216 12.3937 31.8228 12.3996 31.8239 12.4054L31.8206 12.3879C31.8227 12.399 31.8249 12.41 31.8272 12.421L31.8239 12.4054C31.8267 12.4195 31.8298 12.4337 31.833 12.4478L31.8272 12.421C31.8303 12.4359 31.8337 12.4507 31.8372 12.4656L31.833 12.4478C31.8357 12.4594 31.8385 12.471 31.8415 12.4826L31.8372 12.4656C31.8403 12.4782 31.8436 12.4908 31.847 12.5034L31.8415 12.4826C31.845 12.4964 31.8487 12.5102 31.8527 12.5239L31.847 12.5034C31.8502 12.5152 31.8535 12.5269 31.857 12.5386L31.8527 12.5239C31.8651 12.5672 31.8796 12.6101 31.8961 12.6526C31.8985 12.6585 31.9008 12.6645 31.9033 12.6705L31.8961 12.6526C31.9014 12.666 31.9068 12.6794 31.9125 12.6927L31.9033 12.6705C31.9082 12.6827 31.9133 12.6948 31.9186 12.707L31.9125 12.6927C31.9172 12.7039 31.9221 12.715 31.9272 12.7261L31.9186 12.707C31.9249 12.7214 31.9314 12.7357 31.9382 12.75L31.9272 12.7261C31.9326 12.7381 31.9382 12.7499 31.9439 12.7618L31.9382 12.75C31.9438 12.7617 31.9496 12.7734 31.9555 12.7851L31.9439 12.7618C31.9509 12.7761 31.9582 12.7905 31.9657 12.8047L31.9555 12.7851C31.964 12.8019 31.9729 12.8185 31.9821 12.8351L31.9936 12.8554C32.0138 12.8903 32.0352 12.9242 32.0579 12.957C32.0611 12.9617 32.0643 12.9663 32.0676 12.9709L32.0579 12.957C32.0736 12.9798 32.09 13.0022 32.1069 13.024C32.1099 13.0278 32.1129 13.0316 32.1158 13.0353L32.1069 13.024C32.1138 13.0328 32.1208 13.0416 32.1279 13.0503L32.1158 13.0353C32.1254 13.0474 32.1351 13.0592 32.1449 13.0709L32.1279 13.0503C32.1359 13.0602 32.144 13.0699 32.1522 13.0795L32.1449 13.0709C32.1523 13.0796 32.1598 13.0883 32.1674 13.0969L32.1522 13.0795C32.172 13.1025 32.1924 13.1248 32.2134 13.1464C32.2285 13.162 32.244 13.1772 32.2597 13.1921C32.2743 13.2058 32.2892 13.2193 32.3043 13.2324C32.3124 13.2394 32.3206 13.2463 32.3288 13.2531L32.3043 13.2324C32.314 13.2408 32.3238 13.2491 32.3337 13.2572L32.3288 13.2531C32.7896 13.6351 33.4574 13.7114 34.006 13.3946ZM7.75179 13.1811L7.76367 13.1696C7.7787 13.1548 7.79344 13.1396 7.80788 13.1241C7.8099 13.1219 7.81184 13.1198 7.81378 13.1177L7.80788 13.1241C7.81693 13.1144 7.82587 13.1045 7.83469 13.0945L7.81378 13.1177C7.8234 13.1073 7.83288 13.0967 7.84223 13.0859L7.83469 13.0945C7.84384 13.0841 7.85286 13.0736 7.86175 13.0629L7.84223 13.0859C7.85023 13.0767 7.85813 13.0674 7.86592 13.0579L7.86175 13.0629C7.86926 13.0539 7.87668 13.0448 7.884 13.0355L7.86592 13.0579C7.87621 13.0455 7.88631 13.0328 7.89623 13.0199L7.884 13.0355C7.89232 13.0251 7.9005 13.0144 7.90856 13.0037L7.89623 13.0199C7.90368 13.0103 7.91103 13.0005 7.91827 12.9906L7.90856 13.0037C7.91638 12.9933 7.92406 12.9827 7.93163 12.972L7.91827 12.9906C7.92649 12.9794 7.93457 12.968 7.94251 12.9565L7.93163 12.972C7.95815 12.9346 7.98312 12.8957 8.0064 12.8554C8.01029 12.8486 8.01413 12.8419 8.0179 12.8351L8.0064 12.8554C8.02372 12.8254 8.03986 12.795 8.05483 12.7644C8.0585 12.7569 8.06209 12.7494 8.06562 12.7418L8.05483 12.7644C8.05909 12.7557 8.06325 12.747 8.06731 12.7382L8.06562 12.7418C8.07141 12.7295 8.07701 12.7171 8.08243 12.7046C8.08403 12.7009 8.08561 12.6973 8.08718 12.6936L8.08243 12.7046C8.10615 12.65 8.12638 12.5945 8.14315 12.5382C8.14419 12.5347 8.1452 12.5313 8.14621 12.5278L8.14315 12.5382C8.14694 12.5255 8.15055 12.5128 8.15399 12.5L8.14621 12.5278C8.15015 12.5142 8.15389 12.5006 8.15742 12.4869L8.15399 12.5C8.15726 12.4879 8.16036 12.4757 8.16331 12.4635L8.15742 12.4869C8.16451 12.4595 8.17078 12.432 8.17623 12.4044C8.17706 12.4006 8.17779 12.3968 8.17852 12.393L8.17623 12.4044C8.29511 11.8029 8.02771 11.1666 7.46718 10.843C6.76256 10.4362 5.86158 10.6776 5.45477 11.3822C5.04796 12.0868 5.28938 12.9878 5.99399 13.3946C6.57558 13.7304 7.29095 13.6245 7.75179 13.1811ZM8.8876 25.2222L12.3971 23.1959C11.8004 22.4612 11.4427 21.5245 11.4427 20.5043C11.4427 18.9689 12.2526 17.6227 13.4686 16.8696L8.95884 14.266C8.94056 14.2849 8.92207 14.3037 8.90337 14.3221C8.87103 14.3541 8.83809 14.3852 8.80455 14.4155C8.66847 14.5384 8.52274 14.6479 8.36945 14.7434C8.30975 14.7807 8.24892 14.8157 8.18706 14.8487L8.18516 14.8497C8.15706 14.8646 8.12875 14.8791 8.10023 14.8931C8.05922 14.9133 8.01784 14.9326 7.97608 14.9509C7.96205 14.9571 7.94799 14.9631 7.93389 14.9691C7.90193 14.9825 7.86973 14.9955 7.83733 15.0078C7.81652 15.0158 7.79571 15.0235 7.77482 15.031C7.73568 15.045 7.69626 15.0582 7.65661 15.0707C7.6324 15.0782 7.60813 15.0855 7.58377 15.0925C7.54093 15.1048 7.49782 15.1162 7.45448 15.1266C7.42872 15.1328 7.40284 15.1387 7.37688 15.1442C7.35205 15.1496 7.32712 15.1546 7.30213 15.1593C7.29706 15.1602 7.29206 15.1612 7.28706 15.1621C7.26822 15.1655 7.24928 15.1688 7.2303 15.1719C7.20521 15.1761 7.18012 15.1799 7.15498 15.1834C7.15228 15.1838 7.14963 15.1841 7.14697 15.1845C7.14176 15.1852 7.13647 15.1859 7.13119 15.1866C7.10179 15.1905 7.07237 15.1939 7.0429 15.1969C7.01443 15.1998 6.98598 15.2023 6.9575 15.2044C6.95087 15.2049 6.94424 15.2054 6.93761 15.2059C6.90869 15.2078 6.87972 15.2094 6.85071 15.2105C6.84481 15.2108 6.83894 15.211 6.83306 15.2112C6.81506 15.2118 6.79706 15.2123 6.77904 15.2126L6.73124 15.213L6.73058 15.213L6.73058 24.3468H6.73124C6.82691 24.3469 6.92233 24.3515 7.01721 24.3604C7.03416 24.362 7.05107 24.3637 7.06797 24.3655C7.10665 24.3698 7.14526 24.3748 7.18375 24.3806C7.21063 24.3845 7.23743 24.3889 7.26416 24.3936C7.29991 24.3999 7.33553 24.4068 7.37102 24.4143C7.39951 24.4203 7.42785 24.4268 7.45609 24.4336L7.50719 24.4464C7.60281 24.4712 7.69723 24.5005 7.79012 24.5343C7.81165 24.5422 7.83301 24.5502 7.85428 24.5585C7.89864 24.5757 7.94224 24.5939 7.98543 24.613C7.9928 24.6163 8.00024 24.6196 8.00766 24.6229C8.02545 24.631 8.0431 24.6392 8.06067 24.6475C8.09401 24.6633 8.12709 24.6798 8.15989 24.6968C8.25144 24.7444 8.3408 24.7967 8.42758 24.8535C8.4495 24.8678 8.47125 24.8825 8.49283 24.8974C8.50164 24.9035 8.51045 24.9096 8.51922 24.9159C8.54648 24.9351 8.57342 24.9549 8.60008 24.975C8.70031 25.051 8.79637 25.1334 8.8876 25.2222ZM31.1366 25.1992L31.1531 25.1833C31.2067 25.1331 31.2618 25.085 31.3183 25.0391C31.4183 24.9579 31.5227 24.8835 31.6309 24.8161L31.6326 24.8151C31.6562 24.8004 31.6799 24.7861 31.7039 24.772C31.7095 24.7688 31.7152 24.7655 31.7209 24.7622L31.7039 24.772C31.7501 24.745 31.797 24.7191 31.8445 24.6946C31.9122 24.6595 31.9811 24.627 32.051 24.5971C32.1559 24.5523 32.2631 24.5133 32.3721 24.4803C32.3796 24.478 32.3871 24.4758 32.3947 24.4736C32.419 24.4664 32.4434 24.4595 32.468 24.4529C32.5081 24.4422 32.5484 24.4322 32.5889 24.4231C32.5984 24.4209 32.6079 24.4188 32.6175 24.4168C32.6447 24.4109 32.672 24.4054 32.6993 24.4002C32.7017 24.3998 32.7041 24.3993 32.7065 24.3989C32.7202 24.3964 32.7339 24.3939 32.7476 24.3915L32.7065 24.3989C32.7275 24.395 32.7485 24.3913 32.7695 24.3879C32.7973 24.3833 32.8251 24.3791 32.853 24.3753C32.8826 24.3713 32.9123 24.3676 32.9421 24.3645C32.9472 24.3639 32.9524 24.3634 32.9576 24.3628C32.9854 24.36 33.0133 24.3575 33.0412 24.3554C33.0482 24.3549 33.0553 24.3544 33.0624 24.3539C33.0901 24.352 33.1178 24.3505 33.1455 24.3494C33.1527 24.3491 33.1599 24.3488 33.1671 24.3486C33.1704 24.3485 33.1736 24.3484 33.1768 24.3483C33.2076 24.3473 33.2385 24.3468 33.2694 24.3468L33.2628 24.347L33.2688 24.3468L33.2694 24.3468V15.213H33.2688C33.2118 15.2129 33.1549 15.2113 33.0982 15.2081C33.0746 15.2068 33.051 15.2052 33.0274 15.2033C32.9956 15.2008 32.9638 15.1977 32.9321 15.1942C32.899 15.1906 32.866 15.1864 32.833 15.1817C32.8107 15.1785 32.7884 15.175 32.7662 15.1714C32.7394 15.1669 32.7126 15.1621 32.6859 15.157C32.6604 15.1521 32.6348 15.1468 32.6094 15.1413C32.5365 15.1253 32.4642 15.1068 32.3927 15.0856C32.3095 15.0611 32.2278 15.0332 32.1473 15.0019C32.1184 14.9907 32.0896 14.979 32.0609 14.9669C32.0518 14.963 32.0427 14.9591 32.0336 14.9551C31.9954 14.9385 31.9575 14.9211 31.92 14.903C31.9005 14.8936 31.881 14.8839 31.8616 14.874C31.8013 14.8433 31.7419 14.8105 31.6836 14.7758C31.6659 14.7652 31.6482 14.7545 31.6307 14.7435L31.5865 14.7154C31.5717 14.7059 31.557 14.6962 31.5425 14.6864C31.3716 14.5717 31.2113 14.4392 31.0643 14.2897L25.4813 17.5129C27.2588 17.7361 28.6383 19.2391 28.6679 21.0701L28.6684 21.1304C28.6684 21.9622 28.3899 22.729 27.9209 23.3426L31.1366 25.1992ZM19.8094 23.156H25.0223C26.141 23.156 27.0479 22.2491 27.0479 21.1304C27.0479 20.0117 26.141 19.1048 25.0223 19.1048L23.9062 19.1047L23.8463 18.3595C23.6932 16.4558 22.0978 14.9767 20.1753 14.9767C18.6396 14.9767 17.2816 15.9252 16.7379 17.334L16.5378 17.8526L15.715 17.8526C14.2505 17.8526 13.0632 19.0398 13.0632 20.5043C13.0632 21.9688 14.2505 23.156 15.715 23.156H19.6756C19.6936 23.156 19.7112 23.1559 19.7284 23.1555L19.7458 23.1551L19.7863 23.1559L19.8094 23.156ZM17.3204 33.5549L17.3292 33.5398C17.342 33.5179 17.3551 33.4962 17.3685 33.4746C17.3726 33.4679 17.3768 33.4613 17.3809 33.4547C17.3846 33.4488 17.3884 33.4429 17.3922 33.437C17.3968 33.4298 17.4014 33.4227 17.406 33.4155C17.4458 33.3545 17.4877 33.2949 17.5316 33.2368C17.5532 33.2083 17.5752 33.1803 17.5977 33.1526C17.634 33.1079 17.6716 33.0642 17.7103 33.0217C17.7138 33.0178 17.7174 33.0139 17.721 33.01C17.7281 33.0022 17.7353 32.9944 17.7426 32.9867C17.7464 32.9826 17.7503 32.9785 17.7541 32.9745C17.7615 32.9667 17.769 32.9588 17.7765 32.9511C17.8428 32.8826 17.9121 32.8172 17.9844 32.7551C18.0169 32.7271 18.05 32.6999 18.0836 32.6733C18.0881 32.6698 18.0926 32.6662 18.0971 32.6627C18.1051 32.6564 18.1131 32.6502 18.1212 32.6441C18.1284 32.6386 18.1356 32.6331 18.1429 32.6276C18.1476 32.624 18.1524 32.6204 18.1572 32.6169C18.1785 32.6011 18.2 32.5855 18.2217 32.5703C18.2276 32.5661 18.2335 32.562 18.2394 32.5579C18.2602 32.5435 18.2812 32.5293 18.3023 32.5154C18.3115 32.5094 18.3208 32.5034 18.33 32.4974C18.3562 32.4806 18.3827 32.4641 18.4094 32.4481C18.4154 32.4445 18.4213 32.441 18.4273 32.4374C18.4493 32.4244 18.4715 32.4116 18.4939 32.3991C18.4999 32.3958 18.5061 32.3924 18.5122 32.389C18.5199 32.3848 18.5275 32.3807 18.5351 32.3765C18.5591 32.3636 18.5833 32.351 18.6077 32.3387C18.6116 32.3367 18.6154 32.3348 18.6193 32.3329C18.6286 32.3282 18.6379 32.3236 18.6473 32.319C18.6541 32.3157 18.6609 32.3125 18.6677 32.3092C18.6903 32.2984 18.7132 32.2878 18.7361 32.2775C18.7589 32.2673 18.7818 32.2574 18.8048 32.2478C18.8313 32.2366 18.8581 32.2258 18.8851 32.2154C18.9152 32.2038 18.9456 32.1925 18.9763 32.1818C18.9805 32.1803 18.9847 32.1789 18.9888 32.1774C19.0148 32.1685 19.0409 32.1598 19.0672 32.1515C19.0733 32.1496 19.0793 32.1477 19.0853 32.1459C19.0938 32.1432 19.1023 32.1406 19.1109 32.1381C19.1187 32.1357 19.1264 32.1335 19.1341 32.1312C19.1433 32.1285 19.1526 32.1259 19.1619 32.1233C19.1662 32.1221 19.1705 32.1209 19.1747 32.1197C19.1828 32.1175 19.1909 32.1153 19.199 32.1131L19.2108 32.1101V24.7766L15.715 24.7765C15.0018 24.7765 14.3295 24.6018 13.7384 24.2928L9.71325 26.6168C9.72133 26.646 9.72897 26.6752 9.73616 26.7045C9.74251 26.7303 9.74851 26.7563 9.75417 26.7822C9.75947 26.8065 9.76445 26.8308 9.76914 26.855C9.77092 26.8643 9.77266 26.8735 9.77435 26.8827C9.77604 26.8919 9.77769 26.9012 9.7793 26.9104C9.79088 26.977 9.80022 27.0438 9.80736 27.1105C9.80866 27.1227 9.80989 27.1349 9.81104 27.1471C9.81316 27.1695 9.81504 27.1918 9.81666 27.2141C9.81721 27.2217 9.81774 27.2294 9.81824 27.237C9.81891 27.2472 9.81953 27.2576 9.8201 27.2679C9.82049 27.275 9.82086 27.2821 9.8212 27.2891C9.82261 27.3183 9.8236 27.3474 9.82418 27.3766C9.82435 27.3851 9.82449 27.3936 9.82459 27.4022C9.82466 27.4087 9.82472 27.4152 9.82475 27.4217L9.82459 27.4022C9.82505 27.4418 9.82475 27.4815 9.82368 27.5211C9.82301 27.546 9.82204 27.5709 9.82077 27.5958C9.82039 27.6032 9.81999 27.6106 9.81956 27.618C9.81913 27.6255 9.81867 27.6329 9.81818 27.6403C9.8142 27.7011 9.80844 27.7617 9.80091 27.822C9.79874 27.8393 9.79642 27.8567 9.79395 27.8741C9.79255 27.884 9.79109 27.8939 9.78958 27.9038L9.79395 27.8741C9.78681 27.9243 9.77845 27.9744 9.76887 28.0241C9.76778 28.0298 9.76667 28.0355 9.76555 28.0412C9.75638 28.0874 9.74617 28.1335 9.73491 28.1792C9.72702 28.2113 9.71863 28.2433 9.70972 28.2751C9.70802 28.2811 9.70632 28.2872 9.70459 28.2932C9.70336 28.2975 9.70211 28.3018 9.70084 28.3062L9.70459 28.2932C9.69482 28.3273 9.68447 28.3613 9.67354 28.395C9.67201 28.3997 9.67047 28.4044 9.66892 28.4092C9.66554 28.4194 9.66211 28.4297 9.65862 28.4399C9.65715 28.4442 9.65566 28.4486 9.65416 28.4529C9.64443 28.481 9.6343 28.509 9.62377 28.5369C9.60508 28.5863 9.58514 28.6353 9.56395 28.6837C9.54854 28.7189 9.53247 28.7538 9.51574 28.7885C9.5117 28.7969 9.50758 28.8053 9.50343 28.8137C9.50011 28.8204 9.49679 28.8271 9.49344 28.8337C9.48918 28.8422 9.48484 28.8507 9.48046 28.8593C9.47772 28.8646 9.47498 28.8699 9.47222 28.8752C9.46747 28.8843 9.46269 28.8933 9.45786 28.9023C9.44259 28.9309 9.42681 28.9593 9.41058 28.9875L9.41024 28.9881L17.3204 33.5549ZM22.6796 33.5549L30.5898 28.9881C30.5769 28.9657 30.5643 28.9432 30.5519 28.9205C30.5486 28.9144 30.5454 28.9083 30.5421 28.9023C30.5373 28.8933 30.5325 28.8843 30.5278 28.8752C30.525 28.8699 30.5223 28.8646 30.5196 28.8593C30.5146 28.8496 30.5097 28.84 30.5049 28.8303C30.5024 28.8255 30.5 28.8205 30.4975 28.8156C30.4927 28.8059 30.488 28.7962 30.4833 28.7866C30.4798 28.7792 30.4762 28.7717 30.4727 28.7642C30.4712 28.7611 30.4698 28.7581 30.4684 28.7551L30.4727 28.7642C30.4659 28.7498 30.4592 28.7354 30.4527 28.7209C30.4419 28.6971 30.4313 28.673 30.4211 28.6488L30.4199 28.646C30.3931 28.5825 30.3684 28.518 30.3459 28.4529C30.3444 28.4486 30.3429 28.4442 30.3414 28.4399C30.3379 28.4297 30.3345 28.4194 30.3311 28.4092C30.3296 28.4044 30.328 28.3997 30.3265 28.395C30.3234 28.3854 30.3203 28.3758 30.3173 28.3661C30.3097 28.3419 30.3024 28.3176 30.2954 28.2931C30.2937 28.2872 30.292 28.2811 30.2903 28.2751C30.2814 28.2433 30.273 28.2113 30.2651 28.1792C30.258 28.1501 30.2512 28.1209 30.2449 28.0916C30.2434 28.0848 30.242 28.0779 30.2405 28.071C30.2349 28.0438 30.2296 28.0166 30.2247 27.9894C30.2207 27.9677 30.217 27.9459 30.2136 27.924L30.2124 27.9164C30.1881 27.7607 30.1756 27.6029 30.1752 27.4444C30.1752 27.4369 30.1752 27.4293 30.1753 27.4218C30.1753 27.4152 30.1754 27.4087 30.1754 27.4021L30.1753 27.4218C30.1753 27.4067 30.1755 27.3917 30.1758 27.3766C30.1761 27.3645 30.1764 27.3524 30.1768 27.3404C30.177 27.3327 30.1773 27.325 30.1776 27.3174C30.178 27.308 30.1784 27.2986 30.1788 27.2891C30.1791 27.283 30.1794 27.2769 30.1798 27.2708C30.1812 27.2442 30.183 27.2176 30.1851 27.191C30.1859 27.1811 30.1868 27.1714 30.1876 27.1616C30.1938 27.0935 30.2022 27.0254 30.2129 26.9575C30.2137 26.9524 30.2145 26.9474 30.2153 26.9423C30.2203 26.9118 30.2258 26.8812 30.2317 26.8507C30.2328 26.8452 30.2339 26.8398 30.2349 26.8343C30.2373 26.8225 30.2398 26.8107 30.2423 26.7989C30.2434 26.7933 30.2446 26.7878 30.2458 26.7823C30.2477 26.7735 30.2497 26.7648 30.2516 26.7562C30.2539 26.7464 30.2561 26.7366 30.2585 26.7268C30.2653 26.6979 30.2726 26.6691 30.2804 26.6403C30.2836 26.6282 30.2869 26.6161 30.2903 26.604C30.2921 26.5976 30.294 26.5913 30.2958 26.5849L26.569 24.4332C26.0994 24.6535 25.5752 24.7765 25.0223 24.7765L20.8312 24.7766L20.8312 32.1214C20.8465 32.1256 20.8617 32.13 20.8769 32.1344C20.8814 32.1358 20.886 32.1371 20.8906 32.1385C20.9015 32.1418 20.9123 32.1451 20.9231 32.1485C20.9286 32.1502 20.9341 32.1519 20.9396 32.1537C20.9494 32.1568 20.9593 32.16 20.9691 32.1632C20.9748 32.1651 20.9805 32.167 20.9862 32.1689C21.013 32.1779 21.0397 32.1873 21.0661 32.197C21.0706 32.1987 21.0752 32.2004 21.0797 32.202C21.0886 32.2053 21.0974 32.2087 21.1061 32.212C21.1297 32.2211 21.1532 32.2304 21.1765 32.24C21.2116 32.2544 21.2463 32.2694 21.2807 32.2851C21.2994 32.2936 21.318 32.3023 21.3365 32.3112C21.3427 32.3142 21.349 32.3172 21.3553 32.3203C21.3938 32.3391 21.4319 32.3587 21.4695 32.379C21.4791 32.3842 21.4888 32.3895 21.4984 32.3948C21.5027 32.3972 21.5071 32.3997 21.5115 32.4021C21.5195 32.4067 21.5275 32.4112 21.5355 32.4158C21.5438 32.4205 21.552 32.4253 21.5603 32.4301C21.566 32.4334 21.5718 32.4369 21.5776 32.4403C21.5874 32.4461 21.5972 32.452 21.6069 32.4579C21.6099 32.4598 21.6129 32.4616 21.6158 32.4634C21.6274 32.4705 21.6389 32.4776 21.6503 32.4849C21.6544 32.4874 21.6584 32.49 21.6624 32.4925C21.6696 32.4972 21.6769 32.5019 21.6842 32.5066C21.6914 32.5113 21.6987 32.516 21.7059 32.5208C21.7126 32.5253 21.7192 32.5297 21.7258 32.5341C21.7325 32.5387 21.7393 32.5432 21.746 32.5478C21.7552 32.5542 21.7644 32.5605 21.7736 32.567C21.7994 32.585 21.8248 32.6035 21.85 32.6223C21.8688 32.6363 21.8875 32.6506 21.906 32.6651C21.9122 32.67 21.9185 32.6749 21.9247 32.6798C21.9704 32.7162 22.015 32.7538 22.0585 32.7926C22.0637 32.7972 22.0689 32.8019 22.0741 32.8066C22.0839 32.8154 22.0935 32.8243 22.1031 32.8332C22.1063 32.8361 22.1096 32.8392 22.1128 32.8423C22.117 32.8462 22.1212 32.8501 22.1254 32.854C22.1337 32.8619 22.142 32.8698 22.1502 32.8778C22.1545 32.8819 22.1587 32.886 22.1628 32.8901C22.1679 32.895 22.173 32.9001 22.1781 32.9051L22.1876 32.9145C22.1903 32.9172 22.193 32.92 22.1957 32.9227C22.214 32.9411 22.232 32.9597 22.2498 32.9786L22.2537 32.9827C22.2683 32.9982 22.2827 33.0138 22.2969 33.0296C22.3087 33.0427 22.3205 33.0559 22.3321 33.0692C22.3491 33.0887 22.3658 33.1083 22.3822 33.1282C22.3867 33.1335 22.3911 33.1389 22.3955 33.1443C22.402 33.1522 22.4084 33.1601 22.4147 33.168C22.4304 33.1876 22.4458 33.2073 22.461 33.2272C22.4657 33.2333 22.4704 33.2395 22.4751 33.2457C22.4791 33.2511 22.4831 33.2565 22.4871 33.2619C22.4936 33.2706 22.4999 33.2792 22.5062 33.288C22.5097 33.2927 22.5131 33.2974 22.5164 33.3021C22.5229 33.3112 22.5294 33.3203 22.5358 33.3295C22.539 33.3339 22.5421 33.3384 22.5452 33.3429C22.5508 33.3511 22.5565 33.3593 22.5621 33.3676C22.5662 33.3736 22.5703 33.3798 22.5744 33.3859C22.6053 33.4322 22.635 33.4793 22.6634 33.5272L22.6796 33.5549ZM7.46718 28.7168C8.02366 28.3955 8.29123 27.766 8.17875 27.1684C8.178 27.1641 8.17716 27.1597 8.1763 27.1554L8.17875 27.1684C8.17421 27.1443 8.16905 27.1203 8.16327 27.0963C8.13826 26.9926 8.10171 26.8908 8.05351 26.7927C8.05126 26.7881 8.04893 26.7834 8.04658 26.7788L8.05351 26.7927C8.04838 26.7822 8.04311 26.7718 8.03771 26.7615L8.04658 26.7788C8.03995 26.7656 8.03309 26.7525 8.02602 26.7395L8.0064 26.7044C7.98633 26.6696 7.965 26.6359 7.94251 26.6033C7.93915 26.5984 7.93576 26.5936 7.93235 26.5888L7.94251 26.6033C7.93519 26.5927 7.92776 26.5822 7.9202 26.5718L7.93235 26.5888C7.92446 26.5776 7.91643 26.5666 7.90827 26.5557L7.9202 26.5718C7.91145 26.5598 7.90254 26.548 7.89348 26.5363L7.90827 26.5557C7.90122 26.5463 7.89407 26.537 7.88683 26.5278L7.89348 26.5363C7.88498 26.5254 7.87635 26.5146 7.86758 26.5039L7.88683 26.5278C7.87868 26.5174 7.87041 26.5072 7.86202 26.4972L7.86758 26.5039C7.85214 26.4851 7.83628 26.4668 7.82002 26.4489C7.364 25.9471 6.60513 25.8123 5.99399 26.1652C5.28938 26.572 5.04796 27.473 5.45477 28.1776C5.86158 28.8822 6.76256 29.1236 7.46718 28.7168ZM34.5453 28.1776C34.9521 27.473 34.7106 26.572 34.006 26.1652C33.4476 25.8427 32.7657 25.9275 32.3044 26.3274C32.2947 26.3357 32.2853 26.3441 32.2759 26.3527L32.2482 26.3787C32.233 26.3933 32.218 26.4084 32.2033 26.4238C32.1997 26.4275 32.1962 26.4313 32.1927 26.435L32.2033 26.4238C32.1955 26.432 32.1878 26.4402 32.1802 26.4486L32.1927 26.435C32.1843 26.4441 32.1759 26.4533 32.1676 26.4627L32.1802 26.4486C32.1714 26.4583 32.1627 26.4682 32.1541 26.4782L32.1676 26.4627C32.1588 26.4726 32.1502 26.4826 32.1416 26.4928L32.1541 26.4782C32.1455 26.4881 32.1371 26.4981 32.1288 26.5083L32.1416 26.4928C32.1153 26.5243 32.0901 26.557 32.0662 26.5909C32.0634 26.5948 32.0606 26.5988 32.0579 26.6028L32.0662 26.5909C32.0405 26.6274 32.0162 26.6652 31.9936 26.7044C31.9869 26.7161 31.9803 26.7279 31.9739 26.7397C31.9714 26.7442 31.969 26.7487 31.9666 26.7532L31.9739 26.7397C31.9668 26.7528 31.9598 26.766 31.9532 26.7793L31.9666 26.7532C31.96 26.7657 31.9536 26.7783 31.9474 26.7909L31.9532 26.7793C31.9476 26.7904 31.9421 26.8015 31.9369 26.8127L31.9474 26.7909C31.9409 26.8041 31.9346 26.8174 31.9285 26.8307L31.9369 26.8127C31.924 26.8399 31.912 26.8674 31.9009 26.8952C31.8993 26.8992 31.8977 26.9031 31.8962 26.9071L31.9009 26.8952C31.8794 26.9489 31.8612 27.0034 31.8464 27.0585C31.8445 27.0654 31.8428 27.0722 31.841 27.0789L31.8464 27.0585C31.843 27.071 31.8398 27.0836 31.8368 27.0961L31.841 27.0789C31.838 27.0911 31.835 27.1032 31.8323 27.1153L31.8368 27.0961C31.8333 27.1103 31.8301 27.1245 31.8271 27.1388L31.8323 27.1153C31.8293 27.1284 31.8266 27.1414 31.824 27.1545L31.8271 27.1388C31.8247 27.1502 31.8224 27.1617 31.8203 27.1731L31.824 27.1545C31.7047 27.7562 31.972 28.393 32.5328 28.7168C33.2375 29.1236 34.1384 28.8822 34.5453 28.1776ZM20 36.5753C20.8136 36.5753 21.4732 35.9157 21.4732 35.1021C21.4732 34.4792 21.0866 33.9466 20.5403 33.7312C20.5363 33.7295 20.5323 33.7279 20.5283 33.7264L20.5403 33.7312C20.5303 33.7272 20.5201 33.7233 20.5099 33.7196L20.5283 33.7264C20.5163 33.7218 20.5044 33.7174 20.4923 33.7131L20.5099 33.7196C20.4986 33.7154 20.4871 33.7113 20.4756 33.7074L20.4923 33.7131C20.4802 33.7088 20.4681 33.7047 20.4559 33.7007L20.4756 33.7074C20.4629 33.703 20.4501 33.6989 20.4372 33.6949L20.4559 33.7007C20.4432 33.6966 20.4305 33.6927 20.4178 33.689L20.4372 33.6949C20.426 33.6914 20.4148 33.6881 20.4035 33.6849L20.4178 33.689C20.4056 33.6854 20.3933 33.6819 20.3809 33.6786L20.4035 33.6849C20.3902 33.6811 20.3768 33.6775 20.3634 33.6741L20.3809 33.6786C20.351 33.6706 20.3208 33.6636 20.2902 33.6575C20.2837 33.6562 20.2773 33.655 20.2708 33.6538L20.2902 33.6575C20.2786 33.6552 20.2669 33.653 20.2551 33.6509L20.2708 33.6538C20.2576 33.6513 20.2443 33.649 20.2309 33.6469L20.2551 33.6509C20.241 33.6485 20.2269 33.6462 20.2126 33.6442L20.2309 33.6469C20.2216 33.6454 20.2122 33.6441 20.2027 33.6428L20.2126 33.6442C20.198 33.6421 20.1833 33.6402 20.1686 33.6385L20.2027 33.6428C20.1898 33.641 20.1768 33.6394 20.1638 33.6379L20.1686 33.6385C20.1562 33.6371 20.1438 33.6358 20.1314 33.6347L20.1638 33.6379C20.1497 33.6364 20.1356 33.635 20.1215 33.6339L20.1314 33.6347C20.1175 33.6335 20.1036 33.6324 20.0897 33.6316L20.1215 33.6339C20.108 33.6328 20.0945 33.6318 20.081 33.6311L20.0897 33.6316C20.0765 33.6308 20.0634 33.6302 20.0502 33.6298L20.081 33.6311C20.0542 33.6297 20.0272 33.6289 20 33.6289L19.96 33.6295C19.9566 33.6295 19.9532 33.6296 19.9499 33.6298L19.9599 33.6295C19.9463 33.6298 19.9326 33.6304 19.919 33.6311L19.9499 33.6298C19.9367 33.6302 19.9235 33.6308 19.9103 33.6316L19.919 33.6311C19.9055 33.6318 19.892 33.6328 19.8786 33.6339L19.9103 33.6316C19.8964 33.6324 19.8825 33.6335 19.8686 33.6347L19.8786 33.6339C19.8644 33.635 19.8503 33.6364 19.8362 33.6379L19.8686 33.6347C19.8562 33.6358 19.8438 33.6371 19.8314 33.6385L19.8362 33.6379C19.823 33.6394 19.8098 33.641 19.7967 33.6429L19.8314 33.6385C19.8171 33.6401 19.8028 33.6419 19.7885 33.644L19.7967 33.6429C19.787 33.6442 19.7774 33.6456 19.7678 33.6471L19.7885 33.644C19.7739 33.6461 19.7593 33.6484 19.7447 33.651L19.7678 33.6471C19.7561 33.649 19.7445 33.651 19.7329 33.6531L19.7447 33.651C19.7327 33.653 19.7208 33.6553 19.7089 33.6577L19.7329 33.6531C19.7001 33.6591 19.6676 33.6662 19.6355 33.6744C19.6308 33.6756 19.6261 33.6768 19.6213 33.678L19.6355 33.6744C19.6223 33.6777 19.6092 33.6812 19.5961 33.6849L19.6213 33.678C19.6092 33.6813 19.597 33.6847 19.585 33.6882L19.5961 33.6849C19.5844 33.6883 19.5727 33.6918 19.561 33.6954L19.585 33.6882C19.5716 33.6921 19.5583 33.6962 19.545 33.7005L19.561 33.6954C19.5488 33.6992 19.5366 33.7032 19.5245 33.7073L19.545 33.7005C19.5325 33.7046 19.5201 33.7088 19.5077 33.7132L19.5245 33.7073C19.513 33.7112 19.5015 33.7153 19.4901 33.7195L19.5077 33.7132C19.4955 33.7175 19.4833 33.722 19.4713 33.7267L19.4901 33.7195C19.4803 33.7231 19.4705 33.7268 19.4608 33.7306L19.4713 33.7267C18.9188 33.9391 18.5268 34.4748 18.5268 35.1021C18.5268 35.9157 19.1864 36.5753 20 36.5753Z" fill="#0149FF"/>
</svg>

